<svg width="27" height="33" viewBox="0 0 27 33" fill="none" xmlns="http://www.w3.org/2000/svg">
<path fill-rule="evenodd" clip-rule="evenodd" d="M13.5 32.5418C13.5 32.5418 26.625 23.7918 26.625 13.5835C26.625 10.1025 25.2422 6.76413 22.7808 4.30272C20.3194 1.8413 16.981 0.458496 13.5 0.458496C10.019 0.458496 6.68064 1.8413 4.21922 4.30272C1.75781 6.76413 0.375 10.1025 0.375 13.5835C0.375 23.7918 13.5 32.5418 13.5 32.5418ZM17.875 13.5835C17.875 15.9997 15.9162 17.9585 13.5 17.9585C11.0838 17.9585 9.125 15.9997 9.125 13.5835C9.125 11.1672 11.0838 9.2085 13.5 9.2085C15.9162 9.2085 17.875 11.1672 17.875 13.5835Z" fill="#9B1313"/>
</svg>
