<svg width="27" height="33" viewBox="0 0 27 33" fill="none" xmlns="http://www.w3.org/2000/svg">
<path fill-rule="evenodd" clip-rule="evenodd" d="M13.5 32.5417C13.5 32.5417 26.625 23.7917 26.625 13.5833C26.625 10.1024 25.2422 6.76397 22.7808 4.30256C20.3194 1.84114 16.981 0.458333 13.5 0.458333C10.019 0.458333 6.68064 1.84114 4.21922 4.30256C1.75781 6.76397 0.375 10.1024 0.375 13.5833C0.375 23.7917 13.5 32.5417 13.5 32.5417ZM17.875 13.5833C17.875 15.9996 15.9162 17.9583 13.5 17.9583C11.0838 17.9583 9.125 15.9996 9.125 13.5833C9.125 11.1671 11.0838 9.20833 13.5 9.20833C15.9162 9.20833 17.875 11.1671 17.875 13.5833Z" fill="#9B1313"/>
</svg>
