<svg width="23" height="14" viewBox="0 0 23 14" fill="none" xmlns="http://www.w3.org/2000/svg">
<path d="M16.5995 5.3692C16.055 4.783 14.9413 3.62697 14.5866 3.28263C13.9844 2.69642 13.2666 1.5486 13.8235 0.839409C14.4051 0.101523 15.6013 0.363882 16.4427 0.995184C18.2948 2.38487 20.1839 3.72126 21.9988 5.16014C23.2487 6.15218 23.327 7.20162 22.2422 8.39453C20.5469 10.2597 14.0751 15.0642 12.685 13.5105C12.3551 13.1416 12.1694 12.334 12.4128 11.7929C13.0356 10.4032 15.593 9.35788 15.7209 9.00534C15.1352 8.97254 13.2666 9.2349 12.8005 9.2226C9.79356 9.14062 6.78246 9.09962 3.7796 8.96025C2.98764 8.92335 2.17093 8.68149 1.44496 8.35354C1.02836 8.16497 0.525135 7.62385 0.52101 7.23851C0.516885 6.77938 1.44084 5.82013 1.8327 5.67666C3.07426 5.22163 3.59811 5.31181 4.90567 5.22573C7.66516 5.04945 10.1772 5.4266 12.9449 5.3692C13.6214 5.35691 15.593 5.43889 16.5995 5.3692Z" fill="white"/>
</svg>
