<svg width="45" height="60" viewBox="0 0 45 60" fill="none" xmlns="http://www.w3.org/2000/svg">
<path fill-rule="evenodd" clip-rule="evenodd" d="M22.5 59.5C22.5 59.5 45 40 45 22.5C45 16.5326 42.6295 10.8097 38.4099 6.5901C34.1903 2.37053 28.4674 0 22.5 0C16.5326 0 10.8097 2.37053 6.5901 6.5901C2.37053 10.8097 0 16.5326 0 22.5C0 40 22.5 59.5 22.5 59.5Z" fill="#9B1313"/>
<path d="M11.1109 20.495C11.0077 20.0905 10.9937 19.6772 11.002 19.2621C11.0147 19.161 11.0252 19.0594 11.0396 18.9587C11.0873 18.6273 11.1954 18.3148 11.3122 18.0049C11.4579 17.739 11.604 17.4736 11.7497 17.2077C11.8451 17.0548 11.94 16.9015 12.0354 16.7487C12.2931 16.3441 12.5367 15.9304 12.7761 15.5139C12.8364 15.4352 12.885 15.3487 12.9274 15.2581C13.1379 14.9322 13.3369 14.5986 13.5259 14.2586C13.5408 14.2375 13.557 14.2169 13.571 14.1949C13.7582 13.9057 13.907 13.589 14.1314 13.3254C14.3182 13.1776 14.5173 13.0567 14.7535 13.0137C14.8152 13.0023 14.8765 13 14.9377 13C19.9829 13 25.0285 13 30.0737 13.0009C30.1494 13.0009 30.2251 13.0142 30.3008 13.0211C30.5086 13.0828 30.6945 13.1895 30.866 13.3254C31.1071 13.6096 31.2629 13.9542 31.4737 14.2604C31.4978 14.3071 31.5188 14.3556 31.5459 14.3995C31.6338 14.5423 31.7301 14.681 31.815 14.8242C31.9007 14.9693 31.9812 15.1194 32.0696 15.264C32.1151 15.3395 32.1602 15.415 32.2057 15.4906C32.4528 15.9134 32.7013 16.3359 32.9634 16.7491C33.0465 16.9175 33.1441 17.0763 33.25 17.2292C33.3952 17.4878 33.5405 17.7463 33.6861 18.0054C33.8218 18.3527 33.9381 18.7056 33.9814 19.0809C33.9884 19.1408 33.9928 19.2012 33.9981 19.2612C34.0042 19.6772 33.9989 20.0918 33.8878 20.4964C33.7688 20.9435 33.5728 21.3513 33.3134 21.727C33.285 21.7659 33.257 21.8053 33.2285 21.8442C33.1716 21.9073 33.1161 21.9714 33.0579 22.0332C32.7735 22.3366 32.4428 22.5691 32.0705 22.7375C31.9182 22.8053 31.7594 22.8497 31.6023 22.9027C31.4825 22.943 31.3521 22.922 31.2392 22.9856C31.1159 22.9897 30.9925 22.9943 30.8691 22.9984C30.7444 22.9957 30.6197 22.9929 30.495 22.9902C30.4447 22.9975 30.3949 22.9508 30.3441 22.9879C30.3301 22.987 30.3157 22.9856 30.3017 22.9847C30.0899 22.9325 29.8782 22.8803 29.6669 22.8281C29.4967 22.7545 29.3252 22.6822 29.1559 22.6057C28.9148 22.4968 28.707 22.3302 28.4891 22.1815C28.3491 22.0437 28.2083 21.9064 28.0696 21.7668C28.0315 21.7284 28.0004 21.7156 27.9606 21.7618C27.7607 21.9952 27.5245 22.1842 27.2838 22.3677C27.1084 22.4666 26.9391 22.5764 26.7558 22.6616C26.0059 23.0085 25.2311 23.0753 24.4327 22.9018C24.1789 22.8465 23.9409 22.7426 23.7007 22.6451C23.2584 22.419 22.8678 22.1188 22.5248 21.7499C22.4635 21.6895 22.4386 21.7614 22.4158 21.7916C22.3169 21.9202 22.1945 22.0208 22.0741 22.1243C21.8353 22.3302 21.5706 22.4936 21.2971 22.6433C21.1283 22.6982 20.9708 22.7838 20.7997 22.8346C20.588 22.8977 20.371 22.932 20.157 22.981C20.1299 22.986 20.0997 22.9577 20.0743 22.9888C19.8482 22.9888 19.622 22.9883 19.3958 22.9883C19.2352 22.96 19.0751 22.9316 18.9145 22.9032C18.4976 22.7957 18.1065 22.6222 17.7394 22.3893C17.4813 22.1984 17.2328 21.9957 17.0206 21.749C16.9843 21.7069 16.9659 21.7215 16.9366 21.754C16.7971 21.9083 16.6505 22.0552 16.4917 22.1883C16.1373 22.4648 15.7493 22.6753 15.3319 22.8272C15.1132 22.8799 14.8944 22.933 14.6757 22.9856C14.6612 22.9865 14.6468 22.9879 14.6323 22.9888C14.6188 22.9668 14.6043 22.9686 14.5895 22.9874C14.4368 22.9911 14.2845 22.9947 14.1318 22.9984C14.0658 22.9815 13.9989 22.9892 13.9319 22.9906C13.868 22.986 13.8029 22.9892 13.7407 22.976C13.4651 22.9169 13.1908 22.8538 12.9292 22.7412C12.731 22.6478 12.5394 22.5426 12.3631 22.408C12.1369 22.2355 11.9356 22.0355 11.751 21.8167C11.7353 21.7957 11.7191 21.7746 11.7033 21.7536C11.4364 21.3696 11.2356 20.9518 11.1109 20.495Z" fill="white"/>
<path d="M31.1746 32.973C31.0494 33.005 30.9217 32.9981 30.7944 32.9981C25.2697 32.9986 19.7454 32.9981 14.2207 33C13.9841 33 13.7587 32.9734 13.5492 32.8448C13.2687 32.6727 13.0828 32.4265 12.9831 32.1052C12.9756 32.081 12.9778 32.0508 12.9524 32.0348C12.952 32.0201 12.9511 32.0055 12.9507 31.9908C12.9494 31.9684 12.9481 31.946 12.9467 31.9236C12.945 31.8691 12.9607 31.8128 12.9314 31.7611C12.9314 31.3428 12.931 30.9245 12.931 30.5062C12.9494 30.4838 12.9463 30.4563 12.9463 30.4302C12.9463 30.0614 12.9463 29.6925 12.9463 29.3241C12.9463 29.2975 12.9494 29.2705 12.931 29.2481C12.931 28.8371 12.931 28.4266 12.931 28.0156C12.9489 27.9932 12.9459 27.9658 12.9459 27.9392C12.9459 27.5703 12.9459 27.2015 12.9459 26.8331C12.9459 26.8065 12.9489 26.7795 12.9306 26.7571C12.9306 26.3388 12.9306 25.92 12.9306 25.5017C12.9489 25.4793 12.9459 25.4519 12.9459 25.4258C12.9459 25.0569 12.9459 24.688 12.9459 24.3196C12.9459 24.2931 12.9489 24.2661 12.9306 24.2436C12.9301 24.1919 12.9301 24.1402 12.9297 24.0885C12.9739 24.0743 13.015 24.0894 13.0574 24.1004C13.4092 24.1938 13.7649 24.2569 14.1293 24.2446C14.2881 24.2464 14.446 24.2468 14.6049 24.2313C14.8494 24.2075 15.0874 24.1475 15.3298 24.1114C15.3307 24.1558 15.3315 24.1997 15.3324 24.2441C15.3324 24.6629 15.3324 25.0821 15.3324 25.5008C15.3324 25.92 15.3324 26.3388 15.3324 26.758C15.3315 27.1383 15.3328 27.5186 15.328 27.8989C15.3272 27.9836 15.36 27.9987 15.4308 27.9978C15.7909 27.9946 16.151 27.9955 16.511 27.995C16.5325 28.0138 16.5587 28.0106 16.5841 28.0106C16.9367 28.0106 17.2893 28.0106 17.6419 28.0106C17.6673 28.0106 17.6931 28.0138 17.7146 27.9946C18.1149 27.9946 18.5148 27.9946 18.9151 27.9946C18.94 28.0161 18.9702 28.0101 18.9986 28.0101C19.3438 28.0106 19.6894 28.0106 20.0346 28.0101C20.063 28.0101 20.0932 28.0161 20.1186 27.9946C20.5115 27.9946 20.9044 27.9946 21.2968 27.9946C21.3182 28.0133 21.3445 28.0101 21.3698 28.0101C21.7225 28.0101 22.0751 28.0101 22.4277 28.0101C22.4531 28.0101 22.4789 28.0133 22.5003 27.9946C22.9006 27.9946 23.3005 27.9946 23.7008 27.9946C23.7179 28.0001 23.7349 28.0097 23.7516 28.0097C24.1112 28.0106 24.4712 28.0106 24.8309 28.0097C24.8479 28.0097 24.8646 27.9996 24.8816 27.9941C25.2819 27.9941 25.6822 27.9946 26.0825 27.9946C26.104 28.0133 26.1302 28.0101 26.1552 28.0101C26.5078 28.0101 26.8604 28.0101 27.213 28.0101C27.2384 28.0101 27.2642 28.0133 27.2857 27.9946C27.686 27.9946 28.0858 27.9946 28.4861 27.9946C28.4958 27.9992 28.5054 28.0083 28.5155 28.0083C28.8786 28.0097 29.2417 28.0092 29.6048 28.0111C29.6713 28.0115 29.6691 27.9676 29.6691 27.92C29.6678 27.5328 29.6669 27.1452 29.6661 26.758C29.6661 26.3392 29.6661 25.92 29.6661 25.5013C29.6661 25.0821 29.6661 24.6633 29.6661 24.2441C29.6669 24.2002 29.6683 24.1558 29.6691 24.1118C29.9076 24.1535 30.1447 24.2066 30.3844 24.2327C30.5441 24.25 30.7069 24.2752 30.8687 24.2446C31.2782 24.2574 31.675 24.1745 32.0688 24.0684C32.0705 24.1269 32.0723 24.186 32.074 24.2446C32.074 24.6633 32.074 25.0821 32.074 25.5008C32.074 25.92 32.074 26.3392 32.074 26.7585C32.074 27.1772 32.0745 27.596 32.0745 28.0143C32.0745 28.4262 32.0745 28.8376 32.074 29.2495C32.074 29.6682 32.074 30.087 32.074 30.5057C32.074 30.925 32.074 31.3442 32.074 31.7634C32.0662 31.8471 32.0579 31.9309 32.05 32.0146C32.0189 32.103 31.9935 32.1945 31.9559 32.2796C31.7984 32.6361 31.5245 32.8521 31.1746 32.973Z" fill="white"/>
</svg>
