<svg width="672" height="75" viewBox="0 0 672 75" fill="none" xmlns="http://www.w3.org/2000/svg">
<path d="M350.462 10.196C349.649 10.7748 348.905 11.2572 348.223 11.8084C346.913 12.8558 345.673 12.6628 344.502 11.6361C343.303 10.5819 343.061 9.28644 344.157 7.97722C347.03 4.55257 350.793 2.51295 355.189 1.90657C357.511 1.5896 358.6 3.50519 357.539 5.65507C357.132 6.46816 356.512 7.1779 356.099 7.99099C355.554 9.05215 354.962 10.1271 354.672 11.2709C354.093 13.5104 354.493 13.8411 356.794 13.6895C358.042 13.6069 359.316 13.6206 360.564 13.7585C361.776 13.8894 362.741 14.7231 362.61 15.9014C362.527 16.6594 361.714 17.6379 360.984 17.9686C359.117 18.8162 357.084 19.2985 355.175 20.0634C354.541 20.3183 354.08 21.0074 353.542 21.4966C353.694 21.6896 353.838 21.8825 353.99 22.0686C355.354 21.3037 356.677 20.4493 358.097 19.8084C359.11 19.3536 360.26 18.9195 361.328 18.9678C362.231 19.0091 363.72 19.6086 363.857 20.215C364.092 21.221 363.761 22.6749 363.106 23.488C362.204 24.5974 360.784 25.3003 359.564 26.1478C357.78 27.3881 355.892 28.4975 354.197 29.8481C352.474 31.2193 351.861 33.1418 352.143 35.6155C353.528 35.3881 354.796 35.0712 356.078 34.9954C357.656 34.9058 359.296 34.7749 360.805 35.1125C362.727 35.5397 363.017 36.9454 361.701 38.4683C360.474 39.9015 359.192 41.2865 357.931 42.6922C355.644 45.228 354.872 48.4597 353.597 51.464C353.728 51.5811 353.866 51.6914 353.997 51.8085C354.7 51.2986 355.444 50.8369 356.105 50.2788C359.695 47.24 363.223 44.1323 366.869 41.1625C368.047 40.2047 369.466 39.5019 370.865 38.8679C372.119 38.296 373.215 38.7508 373.987 39.9084C374.731 41.0316 374.366 42.0032 373.511 42.83C370.59 45.6621 367.627 48.4597 364.705 51.2917C364.112 51.8636 363.616 52.5251 362.817 53.4416C364.105 53.5932 365.022 53.5794 365.863 53.8137C371.926 55.5019 377.976 57.2108 384.019 58.9679C386.879 59.8016 389.704 60.7594 392.55 61.6414C394.162 62.1376 395.134 63.4675 394.907 64.9352C394.534 67.3331 393.728 68.346 391.661 68.0015C387.161 67.2573 382.655 66.4029 378.266 65.1901C369.88 62.8818 361.57 60.2909 353.225 57.824C353.129 57.7965 353.005 57.8447 352.805 57.8654C352.46 60.5045 352.116 63.1574 351.751 65.8172C351.682 66.3202 351.647 66.9197 351.358 67.2918C350.91 67.8637 350.235 68.6699 349.69 68.6492C349.015 68.6216 347.995 67.9739 347.788 67.3676C347.32 65.9825 346.906 64.4184 347.092 63.0058C347.719 58.2513 348.471 53.5036 349.47 48.818C349.911 46.7301 351.055 44.7939 352.04 42.4097C351.082 42.7267 350.338 42.8851 349.676 43.2159C347.471 44.3184 345.356 45.6001 343.103 46.5923C341.614 47.2469 339.961 47.8602 338.472 46.3787C337.315 45.228 337.211 44.1944 338.514 43.1883C340.14 41.9342 341.876 40.7904 343.668 39.7775C345.342 38.8335 346.038 37.6414 346.052 35.65C346.1 27.7947 347.775 20.2081 350.179 12.7593C350.372 12.1598 350.51 11.5466 350.641 10.9333C350.669 10.7886 350.572 10.6163 350.462 10.196Z" fill="#262626"/>
<path d="M644.912 38.2476C646.876 41.1278 648.667 43.7601 650.659 46.6817C652.368 44.9866 653.725 43.3397 655.386 42.0925C656.97 40.8936 658.872 40.1011 660.636 39.1364C660.374 37.4345 659.961 35.5395 659.837 33.6308C659.761 32.425 660.181 31.2742 661.601 30.8126C663.517 30.1855 664.151 30.6885 664.716 32.5766C665.349 34.6851 666.383 36.6696 667.244 38.7023C667.803 40.0116 668.512 41.2725 668.891 42.63C669.215 43.7945 669.188 45.0762 667.734 45.6688C666.252 46.2751 665.039 45.9099 664.13 44.5938C663.585 43.8014 663.062 42.9952 662.331 41.9065C661.835 42.6713 661.477 43.2019 661.139 43.7394C659.541 46.2958 657.894 48.8247 656.399 51.4362C656.082 51.9875 656.02 53.0624 656.35 53.5379C657.336 54.9298 658.493 56.2321 659.74 57.4035C662.924 60.3803 666.19 63.2674 669.422 66.1891C669.849 66.5749 670.435 66.8919 670.648 67.3742C671.103 68.4078 671.916 69.7653 671.572 70.5508C670.979 71.9152 669.374 72.6938 667.803 72.2528C666.411 71.86 664.922 71.2468 663.868 70.2959C660.292 67.078 656.86 63.6947 653.422 60.3251C650.583 57.5413 651.155 57.7825 648.543 60.1873C646.938 61.6619 645.374 63.1847 643.678 64.5491C641.921 65.9617 639.916 66.7059 637.587 66.0306C635.107 65.3071 634.321 62.8333 636.119 60.966C637.105 59.9461 638.345 59.1675 639.448 58.2579C640.04 57.7687 640.585 57.2312 641.28 56.5973C640.798 56.301 640.564 56.0392 640.343 56.0392C636.188 56.1356 632.736 54.1718 629.229 52.332C627.031 51.1744 627.024 51.2019 626.059 53.4345C624.695 56.5835 623.427 59.7808 621.904 62.854C621.298 64.0805 620.278 65.2657 619.148 66.0168C618.41 66.506 616.908 66.5405 616.164 66.0926C615.53 65.7067 615.303 64.3562 615.234 63.4121C615.179 62.6679 615.489 61.8066 615.889 61.1451C619.196 55.6464 621.339 49.686 622.986 43.5189C623.206 42.692 623.523 41.8927 623.847 41.1003C624.867 38.6334 626.273 37.9444 628.898 37.7928C631.082 37.6687 633.253 37.0486 635.403 36.5593C636.567 36.2975 636.926 35.4775 636.554 34.3268C636.326 33.617 636.099 32.9004 635.995 32.17C635.761 30.5576 636.65 29.2966 638.173 28.9728C639.806 28.6282 640.895 29.3173 641.384 31.0055C642.066 33.3621 642.149 33.3828 644.595 32.8591C645.539 32.6593 646.607 32.3216 647.454 32.5835C648.302 32.8384 649.267 33.6515 649.556 34.4439C649.742 34.9538 648.943 36.0701 648.309 36.5593C647.434 37.2346 646.304 37.5792 644.912 38.2476ZM645.601 52.1666C645.132 51.0021 644.877 50.003 644.367 49.1485C642.872 46.6541 641.315 44.1873 639.675 41.7893C639.372 41.3483 638.49 40.9142 638.021 41.0383C635.423 41.7066 632.764 42.3337 630.345 43.4431C629.318 43.9185 628.726 45.4965 628.195 46.6886C628.119 46.8539 629.463 47.922 630.262 48.1494C632.729 48.8453 635.272 49.2726 637.759 49.9134C640.226 50.5473 642.652 51.3122 645.601 52.1666Z" fill="#262626"/>
<path d="M420.925 59.4636C420.925 61.7858 421.015 63.7151 420.891 65.6307C420.829 66.5679 420.525 67.5601 420.05 68.3663C419.768 68.8487 418.906 69.2966 418.369 69.2277C417.893 69.1725 417.211 68.4214 417.142 67.9047C416.873 65.9408 416.784 63.9425 416.674 61.958C416.584 60.3663 416.625 58.7608 416.467 57.1828C416.405 56.5902 415.936 56.0321 415.433 55.0123C414.544 56.48 413.897 57.5205 413.283 58.5747C411.933 60.8969 410.686 63.2879 409.211 65.5343C408.653 66.3887 407.695 67.1949 406.744 67.5119C406.055 67.7462 404.898 67.3465 404.305 66.8297C403.947 66.5127 403.988 65.2793 404.312 64.7212C406.434 60.9865 408.681 57.3275 410.872 53.6342C411.478 52.6143 412.05 51.567 412.863 50.1406C411.333 50.3473 410.19 50.5058 409.046 50.6574C408.198 50.7745 407.309 51.0915 406.51 50.9399C405.656 50.7814 404.401 50.3404 404.195 49.7203C403.933 48.9485 404.25 47.5291 404.849 47.0054C406.255 45.7995 407.971 44.9657 409.576 44.0011C409.852 43.8357 410.19 43.7599 410.706 43.5669C410.01 42.6436 409.37 41.865 408.811 41.0312C407.978 39.7909 407.888 38.461 408.598 37.1311C409.273 35.8632 410.445 35.7805 411.705 35.8081C413.077 35.8425 413.594 36.6074 413.807 37.8339C414 38.964 414.317 40.0665 414.586 41.1828C414.841 41.1621 415.096 41.1346 415.351 41.1139C415.564 38.1854 415.785 35.2637 416.012 32.1629C413.387 33.0036 411.092 33.8649 408.729 34.4369C407.309 34.7814 405.759 34.8296 404.298 34.6849C403.63 34.616 402.748 33.8649 402.5 33.2172C402.3 32.6866 402.817 31.8046 403.175 31.1707C403.375 30.8193 403.892 30.6126 404.298 30.4058C411.513 26.7469 418.899 23.5152 426.686 21.2826C427.712 20.9863 428.953 21.1448 430.035 21.3722C431.571 21.6961 432.302 22.8124 432.24 24.4041C432.129 27.1535 431.826 29.9028 431.95 32.6384C432.357 41.796 436.126 49.0174 444.388 53.5584C445.228 54.02 446.117 54.5575 446.703 55.281C447.144 55.8185 447.475 56.8659 447.227 57.4102C446.999 57.9063 445.931 58.306 445.256 58.2784C442.582 58.1751 440.315 56.983 438.262 55.3224C434.348 52.1596 431.571 48.1285 429.304 43.7048C429.097 43.2982 428.911 42.8779 428.698 42.4713C428.65 42.3818 428.526 42.3335 428.222 42.1061C425.983 43.2017 423.613 44.3111 421.311 45.5377C420.925 45.7444 420.636 46.4955 420.643 46.9916C420.67 49.0519 420.643 51.1397 421.022 53.1449C421.166 53.896 422.262 54.8125 423.089 55.033C426.238 55.8667 429.463 56.4111 432.639 57.1415C434.134 57.486 435.616 57.9477 437.063 58.4852C438.365 58.9675 439.509 59.7944 439.137 61.3999C438.779 62.9503 437.566 63.5704 436.023 63.5291C431.426 63.412 427.12 62.1234 422.937 60.3318C422.42 60.132 421.911 59.8977 420.925 59.4636ZM419.513 37.1931C419.706 37.2413 419.892 37.2896 420.084 37.3447C420.498 36.2629 420.898 35.1742 421.318 34.0923C422.462 31.1225 423.027 30.8675 425.983 31.9356C426.059 31.9631 426.183 31.8666 426.451 31.7633C426.451 30.3921 426.451 28.9588 426.451 26.933C424.26 27.9872 422.441 28.8486 420.643 29.7443C420.47 29.827 420.319 30.0958 420.298 30.2956C420.016 32.5971 419.768 34.8985 419.513 37.1931ZM426.3 34.6849C425.859 35.8081 425.487 36.7521 425.094 37.7444C426.968 37.8684 427.333 36.9657 426.3 34.6849Z" fill="#262626"/>
<path d="M495.075 49.8516C494.641 50.6302 494.234 51.4295 493.766 52.1875C491.685 55.5432 489.7 58.9679 487.426 62.1858C486.441 63.5846 484.939 64.694 483.471 65.6311C482.899 65.9963 481.68 65.7482 480.977 65.3693C480.639 65.1832 480.605 63.9774 480.805 63.3572C481.204 62.1169 481.742 60.8904 482.431 59.781C484.098 57.1074 485.911 54.5303 487.619 51.8774C488.453 50.582 489.266 49.2521 489.928 47.8602C491.32 44.9316 490.92 44.3253 487.688 44.1392C485.304 44.0014 482.817 40.2736 483.802 38.0135C485.015 35.2365 486.469 32.563 487.895 29.8894C489.342 27.1745 490.886 24.5009 492.594 21.4415C491.54 21.2348 490.803 21.1314 490.086 20.9247C489.604 20.7869 488.846 20.5802 488.777 20.2701C488.653 19.7464 488.805 18.9747 489.142 18.5612C489.597 18.0169 490.334 17.6999 490.968 17.3209C493.277 15.9428 494.503 13.8549 495.137 11.3674C495.034 11.1813 494.93 10.9884 494.82 10.8024C493.807 11.2158 492.815 11.6981 491.781 12.0289C491.106 12.2494 490.355 12.2632 489.645 12.3665C489.838 11.6017 489.776 10.444 490.259 10.1271C492.436 8.7145 494.675 7.29503 497.08 6.3579C498.837 5.66884 500.594 7.72225 500.298 9.93414C500.147 11.0435 499.657 12.1185 499.209 13.159C498.858 13.9858 498.334 14.7438 497.714 15.8325C499.154 15.7085 500.305 15.5638 501.456 15.5293C502.551 15.4949 503.812 15.4466 504.095 16.8523C504.412 18.3958 503.254 18.9747 502.021 19.3054C500.643 19.6706 499.258 20.0772 497.845 20.2287C496.281 20.401 495.337 21.0694 494.889 22.5991C494.386 24.3011 493.738 25.9549 493.18 27.6431C493.097 27.8911 493.139 28.1874 493.111 28.7869C493.814 28.4562 494.29 28.2081 494.786 28.0014C497.218 27.0091 499.63 25.9411 502.11 25.0797C503.936 24.4458 505.749 24.811 507.354 25.9204C508.732 26.8644 509.104 28.3528 508.408 29.855C507.65 31.4743 506.837 31.7912 504.936 31.2124C502.324 30.42 501.745 30.6818 500.822 33.1556C500.353 34.4165 499.933 35.6982 499.313 37.4967C500.677 37.2004 501.545 37.0832 502.372 36.8283C503.902 36.3459 505.377 35.6706 506.927 35.2986C508.14 35.0023 509.539 34.8438 510.159 36.4011C510.758 37.9032 510.048 39.116 508.774 39.7085C505.983 41.0178 503.075 42.0789 500.243 43.2917C499.23 43.7258 498.286 44.3115 497.315 44.8352C498.128 45.6 498.824 46.5647 499.761 47.1091C508.257 51.9877 516.849 56.6871 525.277 61.6828C527.096 62.7577 528.605 64.6389 529.756 66.4649C530.817 68.1462 529.762 69.7724 527.764 69.7655C526.338 69.7655 524.739 69.4692 523.506 68.7939C514.383 63.8189 505.59 58.3339 497.638 51.588C497.025 51.0712 496.384 50.5889 495.743 50.1065C495.613 50.0101 495.426 49.9825 495.075 49.8516ZM491.733 31.6603C491.072 33.0591 490.148 34.83 489.425 36.6905C489.225 37.2073 489.439 38.1582 489.824 38.5785C491.23 40.122 492.822 39.8808 493.842 38.041C494.992 35.96 496.067 33.8308 497.204 31.6672C495.633 31.6603 493.931 31.6603 491.733 31.6603Z" fill="#262626"/>
<path d="M312.067 39.2261C311.757 39.9358 311.426 40.6318 311.137 41.3553C308.518 47.9151 305.542 54.289 301.455 60.084C300.608 61.283 299.567 62.3924 298.451 63.357C297.245 64.4044 295.791 64.5009 294.517 63.4397C293.318 62.4406 293.428 61.1796 294.117 59.8704C297.059 54.3028 300.015 48.7351 302.902 43.1399C304.081 40.8523 305.114 38.4888 306.189 36.1528C306.754 34.9263 306.554 33.9616 305.459 32.9694C304.784 32.363 304.439 31.2605 304.212 30.3165C303.922 29.1382 304.522 28.3595 305.769 28.1046C308.367 27.5671 309.738 25.7893 310.51 23.3983C310.916 22.1442 311.206 20.8281 311.812 19.6773C312.136 19.0572 313.169 18.2441 313.61 18.3819C314.293 18.5955 314.789 19.5189 315.271 20.2079C315.436 20.4422 315.333 20.8763 315.333 21.2208C315.299 23.4879 315.678 23.7566 317.945 23.1089C322.72 21.7445 324.339 22.8057 324.828 27.7945C325.352 33.0589 323.767 37.8824 321.369 42.4509C320.363 44.3734 316.877 45.4759 314.989 44.5112C314.244 44.1322 313.728 43.133 313.342 42.2993C312.901 41.3553 312.735 40.2803 312.446 39.2674C312.322 39.2398 312.198 39.2329 312.067 39.2261ZM316.484 38.0547C317.269 35.1537 318.007 32.5559 318.641 29.9375C318.758 29.462 318.572 28.5249 318.31 28.4422C317.793 28.27 317.07 28.4215 316.539 28.6627C316.112 28.8557 315.76 29.3311 315.499 29.7583C314.189 31.9496 314.499 35.45 316.484 38.0547Z" fill="#262626"/>
<path d="M612.912 19.064C614.862 19.2639 616.509 19.3397 618.108 19.636C619.313 19.8633 620.202 20.6489 620.195 22.0132C620.189 23.3913 619.878 24.7075 618.411 25.2449C617.288 25.6515 616.109 25.934 614.931 26.1476C613.725 26.3681 612.953 26.8642 612.788 28.1872C612.168 33.1692 612.423 33.3207 616.054 35.1743C617.784 36.0563 619.582 36.8763 621.146 38.0064C623.406 39.6463 623.386 42.2855 621.146 43.4638C620.382 43.8703 619.065 43.8703 618.287 43.4775C616.723 42.6851 615.365 41.4861 613.904 40.4801C613.284 40.0529 612.616 39.7015 611.796 39.2122C611.127 42.7678 610.583 45.9719 609.908 49.1485C609.412 51.4982 608.764 53.8204 608.137 56.1356C607.958 56.7902 607.751 57.4931 607.358 58.0237C607 58.506 606.297 59.1537 605.884 59.071C605.415 58.9746 604.781 58.1408 604.781 57.624C604.788 55.4603 604.94 53.2829 605.16 51.1261C605.498 47.7842 605.939 44.456 606.332 41.1278C606.159 41.0589 605.987 40.99 605.815 40.9211C604.94 41.9961 604.071 43.071 603.189 44.139C602.645 44.8005 602.204 45.6894 601.494 46.0477C600.674 46.4543 599.503 46.7092 598.71 46.4129C598.207 46.2269 597.787 44.8557 597.925 44.1253C598.18 42.8022 598.779 41.5206 599.4 40.3009C601.15 36.8901 603.017 33.5344 604.774 30.1235C605.084 29.5171 605.126 28.7798 605.291 28.0976C604.63 28.0701 603.968 28.0287 603.313 28.0287C602.914 28.0356 602.521 28.139 602.121 28.1597C601.06 28.2148 599.93 28.2355 599.572 26.9676C599.234 25.7686 599.255 24.4938 600.412 23.6945C601.439 22.9848 602.562 22.3853 603.713 21.8961C604.94 21.3724 605.677 20.6075 605.835 19.2501C605.918 18.5197 606.118 17.7824 606.38 17.0933C607.096 15.2053 610.28 14.2475 611.878 15.4809C612.271 15.7841 612.478 16.4111 612.602 16.9348C612.802 17.7066 612.843 18.5059 612.912 19.064Z" fill="#262626"/>
<path d="M292.16 40.0668C294.469 39.2743 296.508 38.5439 298.562 37.8824C299.202 37.6757 300.036 37.345 300.546 37.5793C301.449 37.9927 302.455 38.6542 302.868 39.488C303.109 39.9841 302.42 41.0866 301.917 41.7481C301.531 42.2649 300.829 42.5819 300.215 42.8781C293.821 45.9789 287.447 49.1142 280.997 52.0909C279.702 52.6904 278.124 52.8696 276.67 52.8833C275.871 52.8902 274.644 52.3597 274.348 51.7326C273.831 50.6232 273.748 48.873 275.099 48.3769C278.158 47.2468 278.338 44.9178 278.537 42.2373C278.958 36.587 279.626 30.9505 280.205 25.307C280.295 24.4526 280.446 23.6051 280.563 22.7575C280.873 20.4147 281.452 18.4026 284.401 18.1201C285.338 18.0305 286.2 17.1623 287.109 16.6869C290.589 14.8746 293.414 16.2321 293.731 20.1253C294.269 26.7058 293.938 33.2657 292.16 40.0668ZM288.136 37.4139C287.447 37.4139 286.71 37.3381 286 37.4346C285.235 37.531 283.919 37.6482 283.829 37.9996C283.354 39.9152 282.906 41.8997 283.382 43.9324C287.964 42.8506 288.977 41.4449 288.136 37.4139ZM289.914 26.6783C289.728 24.6662 290.217 22.661 288.804 20.9384C285.759 21.9858 285.483 24.742 284.284 27.202C286.227 27.0228 287.902 26.8643 289.914 26.6783ZM289.638 29.9858C286.152 29.7928 283.285 32.0805 283.864 34.7265C285.104 34.2786 286.296 33.7618 287.543 33.4035C289.369 32.8867 289.535 31.5017 289.638 29.9858Z" fill="#262626"/>
<path d="M566.228 61.483C561.701 60.8008 557.429 60.3598 553.26 59.4709C549.339 58.6303 547.699 56.5217 547.996 52.6078C548.444 46.6337 549.215 40.6733 549.973 34.7267C550.215 32.8386 551.041 31.3503 553.37 31.054C554.604 30.8955 555.727 29.9446 556.912 29.3726C561.054 27.3812 563.162 28.7387 562.645 33.2658C562.377 35.6224 561.743 37.979 560.971 40.2254C560.344 42.0583 558.828 43.1677 556.795 43.3331C555.224 43.464 554.328 44.2357 554.046 45.8344C553.736 47.5777 553.246 49.2797 552.888 51.0161C552.433 53.2211 553.143 54.4201 555.327 54.9782C556.65 55.3159 558.035 55.6604 559.379 55.6328C564.988 55.5088 570.597 55.3434 576.192 54.992C578.707 54.8335 580.912 53.6828 582.649 51.7672C583.069 51.2986 583.531 50.8714 583.992 50.4373C584.978 49.5002 585.998 48.5975 587.458 49.5277C588.664 50.2926 589.126 51.9946 588.389 53.5312C586.838 56.7491 584.296 59.1126 580.823 59.7465C575.937 60.6216 570.962 60.9455 566.228 61.483ZM556.754 39.0884C557.064 37.5932 557.284 36.532 557.539 35.2848C555.431 35.905 555.141 37.0901 556.754 39.0884Z" fill="#262626"/>
<path d="M558.028 17.8031C559.062 17.8513 559.93 17.6859 560.605 17.9684C561.398 18.2992 562.348 18.878 562.659 19.5946C563.113 20.6558 562.679 21.7927 561.439 22.2475C558.807 23.2053 556.14 24.0735 553.508 25.0244C547.237 27.2777 547.727 26.2648 545.852 33.307C544.309 39.1089 542.848 44.9315 541.249 50.7127C540.891 52.015 540.23 53.2622 539.52 54.4199C538.92 55.3915 537.962 55.9978 536.729 55.3983C535.496 54.7989 534.91 53.7859 535.303 52.4423C536.598 47.9358 537.873 43.4224 539.292 38.9504C540.312 35.7394 541.497 32.5697 542.731 29.4276C543.158 28.3388 543.034 27.6842 542.18 26.8987C540.781 25.6033 540.967 24.7281 542.662 23.9288C543.179 23.6877 543.716 23.4534 544.261 23.3087C548.464 22.22 550.8 19.2777 552.109 15.3707C552.309 14.7712 552.13 14.0477 552.123 13.3862C551.241 13.5722 550.062 13.4758 549.546 14.0132C548.664 14.9297 548.333 16.356 547.506 17.3552C546.927 18.058 545.949 18.7678 545.087 18.8504C543.11 19.0365 542.021 17.493 542.869 15.7083C544.088 13.1243 545.48 10.6161 546.948 8.16307C547.775 6.77806 548.829 6.84697 550.131 7.7841C550.724 8.21131 551.613 8.30778 552.385 8.38358C553.342 8.48005 554.39 8.15618 555.279 8.42492C558.91 9.51364 560.605 11.0158 558.938 15.0537C558.621 15.8668 558.386 16.735 558.028 17.8031Z" fill="#262626"/>
<path d="M633.17 19.8153C634.783 20.1047 636.182 20.3872 637.587 20.6077C638.897 20.8144 639.53 21.6137 638.986 22.7644C637.201 26.5336 635.355 30.2752 633.315 33.9066C632.991 34.4785 631.468 34.6921 630.6 34.5268C630.118 34.4372 629.546 33.2382 629.539 32.5285C629.518 31.1297 629.856 29.724 630.07 28.1805C629.077 28.1805 628.085 28.3527 627.189 28.1391C626.032 27.8635 624.557 27.5741 623.923 26.7472C623.034 25.5896 623.703 24.0943 624.612 22.978C625.591 21.7791 626.672 20.6697 627.692 19.5052C627.94 19.2227 628.106 18.8712 628.437 18.3613C627.313 18.4785 626.411 18.5405 625.522 18.6714C623.978 18.8919 623.027 18.2442 623.007 16.7145C622.993 15.7636 623.151 14.7644 623.455 13.8617C624.729 10.127 626.101 6.41987 627.424 2.69893C627.906 1.33458 628.96 0.852235 630.263 1.03828C631.689 1.245 632.847 2.08566 632.833 3.58781C632.826 4.85569 632.468 6.19248 631.958 7.36389C631.014 9.54822 629.842 11.643 628.533 14.2545C630.201 13.1727 631.406 12.2424 632.75 11.5878C633.474 11.2364 634.721 10.9815 635.196 11.3536C635.713 11.767 635.94 13.0624 635.706 13.7859C635.052 15.7773 634.094 17.6654 633.17 19.8153Z" fill="#262626"/>
<path d="M463.757 34.0786C462.269 35.3672 461.173 36.3594 460.036 37.3034C459.092 38.089 458.024 38.5093 456.894 37.7238C455.654 36.8624 455.881 35.6083 456.315 34.4714C456.674 33.5205 457.17 32.5765 457.797 31.7771C461.249 27.3465 464.736 22.9571 468.25 18.5747C469.001 17.6376 469.876 16.604 471.275 17.4998C472.619 18.3542 472.474 19.7874 471.936 20.8831C470.855 23.0812 469.538 25.1759 468.209 27.2362C467.271 28.6901 467.023 29.9029 467.836 31.6324C468.553 33.1622 468.663 35.0709 468.691 36.8211C468.822 44.766 467.175 52.5042 465.611 60.2354C465.459 60.9796 464.708 61.9305 464.026 62.1717C462.668 62.6541 461.697 61.6274 461.656 60.4077C461.545 57.3552 461.483 54.2682 461.8 51.2363C462.324 46.2475 463.185 41.2931 463.867 36.325C463.943 35.7324 463.812 35.1053 463.757 34.0786Z" fill="#262626"/>
<path d="M649.915 9.17618C654.056 8.45955 655.951 10.4992 654.842 14.2408C654.228 16.3011 653.305 18.2718 652.492 20.3597C652.905 20.6284 653.319 20.9316 653.753 21.1797C655.062 21.917 655.724 23.1228 655.331 24.4872C654.731 26.5406 653.96 28.5871 652.933 30.4544C652.568 31.1159 651.245 31.2538 650.363 31.6328C650.246 30.7439 649.88 29.7998 650.08 28.9867C650.411 27.6431 651.1 26.3821 651.638 25.0935C651.534 24.9557 651.431 24.8248 651.321 24.687C650.204 24.9971 649.081 25.2934 647.972 25.631C646.704 26.01 645.464 26.196 644.547 24.9488C643.644 23.7292 643.83 22.4751 644.582 21.2624C645.209 20.2563 645.87 19.271 646.304 18.0169C645.677 18.3269 645.064 18.6784 644.416 18.9333C643.038 19.4777 641.715 19.4157 640.592 18.3476C639.51 17.3209 639.751 16.1013 640.44 15.0608C642.549 11.8704 644.719 8.72141 646.959 5.62062C647.627 4.69728 648.647 3.80838 649.894 4.57324C651.059 5.28987 650.645 6.46128 650.294 7.52243C650.142 7.99789 650.066 8.49401 649.915 9.17618Z" fill="#262626"/>
<path d="M411.044 8.96248C415.323 8.10115 419.285 7.35697 423.227 6.50253C425.604 5.98574 426.824 6.20623 427.285 7.481C427.719 8.68686 426.755 9.9065 424.529 10.5818C420.078 11.9461 415.564 12.8557 410.851 12.1528C410.465 12.0977 409.714 12.7592 409.563 13.2278C408.86 15.3432 408.343 17.5207 407.695 19.6499C407.413 20.5732 407.027 21.4759 406.6 22.351C406.124 23.3363 405.408 24.0874 404.181 23.8462C402.892 23.5913 402.631 22.5232 402.7 21.4759C402.837 19.2571 402.906 17.0039 403.389 14.8471C404.181 11.2915 405.111 7.73595 406.303 4.29752C407.165 1.80311 408.674 0.976244 410.176 1.49304C411.65 1.99606 412.243 3.92543 411.657 6.26824C411.471 7.01243 411.313 7.7704 411.044 8.96248Z" fill="#262626"/>
<path d="M414.166 20.6284C413.47 20.1392 412.464 19.7464 412.464 19.3605C412.471 18.258 412.664 17.0108 413.229 16.1012C413.573 15.55 414.731 15.4397 415.551 15.2675C417.081 14.9505 418.638 14.7507 420.174 14.4613C421.456 14.2201 422.724 13.724 424.006 13.7171C424.674 13.7102 425.832 14.4475 425.907 14.9712C426.004 15.6602 425.425 16.935 424.839 17.1486C421.367 18.4234 417.818 19.4708 414.166 20.6284Z" fill="#262626"/>
<path d="M479.041 32.0185C478.89 33.6584 478.821 35.326 478.552 36.9591C478.414 37.8342 478.132 38.8402 477.553 39.4466C477.057 39.9634 476.009 40.2528 475.279 40.1425C474.783 40.0667 474.128 39.1709 474.045 38.5715C473.508 34.8436 474.225 31.2674 475.761 27.8634C475.989 27.3604 476.857 26.7471 477.284 26.8436C477.856 26.9676 478.573 27.6705 478.71 28.2424C479 29.4483 478.945 30.7368 479.041 32.0185Z" fill="#262626"/>
<path d="M45.9054 69.625C39.834 69.625 33.7559 69.6449 27.6844 69.6051C26.8284 69.5984 25.8928 69.4325 25.1364 69.0609C24.5923 68.7955 24.0017 68.0855 23.9553 67.5282C23.9221 67.0836 24.5923 66.3139 25.0966 66.148C26.3374 65.7432 27.6579 65.4911 28.9651 65.3915C32.6478 65.1062 36.3437 64.9536 40.033 64.7081C41.327 64.6218 42.6076 64.4493 42.8 62.7307C43.0721 60.2689 42.3223 59.4329 39.8539 59.7182C38.5467 59.8708 37.2661 60.249 35.9721 60.5078C34.008 60.9059 33.1321 60.5344 32.7606 59.1608C32.3226 57.555 33.0061 56.3938 34.9237 55.9227C36.576 55.5179 38.2746 55.2923 39.9667 55.0933C42.2493 54.8212 43.5366 52.2732 42.1763 50.4285C41.9042 50.057 41.0416 49.9773 40.4643 50.0105C40.0198 50.037 39.615 50.475 39.1771 50.7072C37.7239 51.4836 36.4565 51.0523 36.2176 49.3868C35.9323 47.4492 36.065 45.4519 36.0119 43.4812C35.9655 41.8422 36.1181 40.1635 35.7863 38.5842C35.4015 36.7396 35.9058 35.3262 37.3523 34.4105C41.0085 32.0881 45.0362 31.2122 49.3559 31.7961C51.3266 32.0616 52.4347 33.3223 52.74 35.1603C53.2708 38.4183 53.085 41.683 51.9304 44.7818C51.5456 45.8235 50.6233 46.8255 49.6877 47.4691C48.3606 48.3782 47.6041 49.3735 47.8629 51.0058C47.8961 51.2182 47.8695 51.4438 47.8695 51.6694C47.8695 55.1198 47.8695 55.1198 51.0612 56.1948C51.4792 56.3341 51.9835 56.4137 52.2622 56.6991C52.6404 57.0906 53.1182 57.701 53.0452 58.139C52.9788 58.5703 52.3352 59.0878 51.8508 59.2338C51.1873 59.4329 50.4308 59.3002 49.7142 59.3466C47.8297 59.4793 46.4761 61.5297 47.3719 63.1487C47.6638 63.6729 48.7388 64.0114 49.462 64.018C53.6026 64.0313 57.7431 63.8322 61.8836 63.8786C64.1264 63.8985 66.3825 64.1308 68.5921 64.5156C69.9391 64.7479 71.0937 65.5972 70.9212 67.2561C70.7486 68.9017 69.4216 69.3529 68.0812 69.5453C66.5019 69.7709 64.8962 69.8904 63.297 69.897C57.4976 69.9368 51.6982 69.9103 45.8988 69.9103C45.9054 69.824 45.9054 69.7245 45.9054 69.625ZM41.5459 46.3676C42.1365 45.4188 42.5811 44.9476 42.7071 44.4035C42.7735 44.1116 42.2957 43.6935 42.0635 43.3352C41.6455 43.74 41.0748 44.0718 40.8757 44.5628C40.743 44.8813 41.1677 45.4188 41.5459 46.3676ZM49.0042 36.8988C48.3141 36.3547 47.9558 35.8637 47.5444 35.8172C47.2259 35.7774 46.841 36.295 46.4894 36.567C46.8344 36.9121 47.1264 37.4164 47.5444 37.5557C47.8231 37.6486 48.2809 37.2439 49.0042 36.8988ZM47.7169 44.6225C47.916 44.6225 48.1217 44.6225 48.3207 44.6291C48.3207 43.8063 48.3274 42.9835 48.2876 42.1674C48.2876 42.1342 47.8297 42.1276 47.5842 42.1077C47.5842 42.9106 47.5908 43.7201 47.5975 44.523C47.6041 44.5561 47.6771 44.5893 47.7169 44.6225Z" fill="#262626"/>
<path d="M9.59622 45.5644C8.64071 46.6659 7.67193 47.7607 6.72969 48.8689C5.66802 50.123 4.53335 51.1647 2.69533 51.0586C0.372911 50.9325 -0.741849 49.1277 0.538798 47.1901C1.62702 45.5445 2.99392 44.0714 4.2613 42.5453C5.814 40.6741 7.39324 38.836 8.94594 36.9648C9.36398 36.4539 9.855 35.9297 10.0474 35.3259C10.4124 34.1713 10.5915 32.957 10.8503 31.7693C9.70239 31.5967 8.55445 31.3645 7.39988 31.2716C6.19886 31.1787 4.95139 31.4043 3.79682 31.1455C3.06692 30.9796 2.07823 30.2829 1.93225 29.6525C1.77964 28.9956 2.33701 27.9937 2.87449 27.4031C3.47832 26.7329 4.41392 26.3614 5.1969 25.8438C5.63484 25.5518 6.05288 25.2333 6.73633 24.7357C4.71251 24.0323 4.12859 22.6654 4.52008 21.0397C4.71251 20.2434 5.37606 19.1287 6.0197 18.9761C6.76287 18.8035 7.9838 19.2946 8.53454 19.9117C9.46351 20.9468 10.0209 22.3071 10.7375 23.528C10.9034 23.5214 11.0627 23.5081 11.2285 23.5015C11.3745 22.254 11.5072 20.9999 11.6731 19.7524C11.8191 18.6642 11.8257 17.5163 12.2239 16.5209C12.4495 15.9569 13.2988 15.3929 13.9159 15.3199C14.2809 15.2801 15.0174 16.1494 15.1368 16.7067C15.4686 18.2329 15.5615 19.8055 15.7473 21.3582C15.9198 21.3847 16.099 21.4047 16.2715 21.4312C16.517 20.6548 16.6232 19.7856 17.0479 19.1221C17.4991 18.4121 18.2489 17.8879 18.866 17.2774C19.4101 17.9409 20.0272 18.558 20.4585 19.2879C20.6841 19.6728 20.6177 20.2567 20.6111 20.7477C20.5912 22.0549 21.1287 22.8446 22.3828 23.3953C23.0463 23.6873 23.9222 24.656 23.8426 25.1869C23.7364 25.9035 22.9136 26.7329 22.1903 27.0979C21.0756 27.6553 19.7817 27.8676 18.5607 28.206C16.955 28.6506 16.4573 29.4203 17.008 31.0062C17.6716 32.9172 18.4479 34.795 19.284 36.6463C19.4698 37.0577 20.0604 37.3497 20.5315 37.562C22.3828 38.4114 24.2938 39.1346 26.1053 40.057C27.3926 40.7139 28.4277 41.7424 27.8438 43.3813C27.2798 44.9672 25.8598 45.2857 24.4331 45.0269C22.8207 44.735 21.2614 44.1643 19.6821 43.6866C16.9085 42.8439 16.3511 43.2287 16.1322 46.0687C15.88 49.4196 15.6212 52.7639 15.2762 56.1082C15.1899 56.9575 14.8714 57.8334 14.4667 58.5965C13.6505 60.1425 12.0182 60.189 11.2883 58.5965C10.6645 57.2296 10.2133 55.6835 10.1204 54.1905C9.94126 51.397 10.0673 48.5835 10.0673 45.7767C9.90145 45.7237 9.74883 45.644 9.59622 45.5644Z" fill="#262626"/>
<path d="M174.74 22.4798C173.845 22.7718 173.44 23.0306 173.068 22.9974C172.259 22.9111 171.217 22.9111 170.739 22.4201C170.394 22.0684 170.527 20.675 170.951 20.2702C172.61 18.6843 174.355 17.1184 176.3 15.9107C177.74 15.0149 178.277 14.0727 178.098 12.4603C177.972 11.3256 177.959 10.1379 178.151 9.01646C178.37 7.77563 179.193 6.95947 180.599 7.01919C181.96 7.07227 182.039 8.17376 182.278 9.12263C182.358 9.44113 182.358 9.77954 182.411 10.1047C182.749 12.0223 182.995 12.1882 184.946 11.7901C187.215 11.3322 189.498 12.5996 189.657 14.5571C189.75 15.7515 189.564 16.979 189.391 18.1734C188.881 21.7168 188.363 25.2601 187.739 28.7835C187.54 29.9049 187.195 31.086 186.585 32.0283C186.147 32.7051 185.178 33.0568 184.421 33.5213C183.665 33.9857 182.577 34.2246 182.185 34.8882C181.017 36.8655 179.816 38.9159 179.173 41.0923C176.97 48.5373 174.999 56.0421 172.929 63.5269C172.71 64.3231 172.597 65.2123 172.152 65.8692C171.748 66.4597 170.918 67.1631 170.341 67.11C169.77 67.0569 168.848 66.1213 168.835 65.5573C168.788 62.7572 168.689 59.9039 169.16 57.1634C170.155 51.364 171.502 45.631 172.657 39.8581C172.796 39.1614 172.59 38.405 172.584 37.6751C172.577 36.7594 172.458 35.7972 172.67 34.928C173.214 32.6918 174.15 30.5486 172.69 28.2461C172.391 27.7749 172.909 26.7 173.188 25.9568C173.572 24.9018 174.09 23.9065 174.74 22.4798ZM177.866 21.9291C179.16 21.7964 180.507 21.8495 181.708 21.4646C182.418 21.2324 182.942 20.3299 183.433 19.6465C183.532 19.5071 183.194 18.7772 182.948 18.7175C181.721 18.399 178.304 20.6086 177.866 21.9291ZM182.238 26.9123C180.327 26.2886 179.067 26.6867 178.27 27.6489C177.72 28.3124 177.74 29.4537 177.507 30.3827C177.713 30.4756 177.919 30.5751 178.124 30.668C179.392 29.5134 180.659 28.3589 182.238 26.9123Z" fill="#262626"/>
<path d="M224.38 29.6525C222.894 30.3426 221.56 30.9796 220.22 31.5835C217.924 32.612 216.232 31.4972 216.663 29.0089C216.915 27.5624 217.625 26.0428 218.548 24.8883C220.127 22.9175 222.018 21.1923 223.81 19.3941C225.011 18.1864 225.74 14.8753 224.951 13.4155C224.758 13.0572 224.128 12.8051 223.67 12.7453C223.146 12.6856 222.582 12.9975 222.044 12.9776C220.91 12.9245 219.636 13.0307 219.317 11.4514C218.939 9.58023 219.364 8.53846 220.95 7.98108C221.978 7.61613 223.08 7.43033 224.155 7.22463C225.349 6.99903 226.012 6.43501 225.966 5.11455C225.933 4.29839 225.906 3.36942 226.258 2.67934C226.55 2.10205 227.399 1.80345 227.996 1.38542C228.308 1.90299 228.693 2.39401 228.906 2.94475C229.032 3.27653 228.786 3.74101 228.892 4.08606C229.071 4.65671 229.443 5.65203 229.655 5.63212C230.339 5.56577 231.268 5.29371 231.573 4.78278C232.091 3.92017 232.097 2.77223 232.515 1.82336C232.754 1.27262 233.292 0.628974 233.829 0.476358C234.804 0.197669 235.189 0.974019 235.236 1.84327C235.322 3.52204 236.351 4.15241 237.844 4.5439C241.553 5.51932 242.349 8.0408 239.974 11.1396C239.137 12.2344 238.142 13.2165 237.359 14.3445C236.842 15.0943 236.384 15.9835 236.218 16.8726C235.753 19.3609 236.855 20.3231 239.137 19.3808C241.865 18.2594 244.598 18.1599 247.405 18.923C249.442 19.4804 250.093 20.5752 249.575 22.6388C248.752 25.9367 246.224 27.7017 243.484 29.2345C243.205 29.3937 242.362 29.1814 242.349 29.0752C242.289 28.5975 242.269 27.9406 242.548 27.6221C243.444 26.5803 244.545 25.7111 245.435 24.6627C245.872 24.1385 246.012 23.3555 246.284 22.6919C245.567 22.5526 244.791 22.1744 244.141 22.3203C241.997 22.8047 239.854 23.3687 237.804 24.1517C237.18 24.3906 236.735 25.3793 236.437 26.1158C236.224 26.64 236.55 27.3832 236.337 27.9008C236.092 28.4847 235.568 29.2544 235.063 29.3407C234.453 29.4402 233.67 29.0023 233.106 28.5909C232.767 28.3453 232.774 27.6619 232.495 27.2704C232.144 26.7794 231.48 25.9499 231.248 26.0362C230.611 26.2817 229.821 26.8391 229.649 27.4363C229.297 28.624 229.264 29.9246 229.204 31.1787C229.138 32.612 229.317 34.0651 229.131 35.4718C229.038 36.1487 228.468 37.0975 227.89 37.3099C226.888 37.6682 226.085 36.9516 225.847 35.8965C225.475 34.2376 225.203 32.5589 224.871 30.8934C224.805 30.5616 224.632 30.2696 224.38 29.6525ZM229.808 21.8691C231.308 21.962 232.17 21.398 232.057 20.051C232.018 19.56 231.155 18.6642 230.903 18.7438C229.304 19.2149 229.888 20.5885 229.808 21.8691ZM229.138 10.1641C229.224 11.75 229.277 12.6856 229.337 13.7075C231.029 13.4753 231.805 12.6591 231.427 11.3386C231.294 10.8675 230.186 10.6751 229.138 10.1641ZM235.554 10.6618C235.773 10.7746 235.992 10.8874 236.211 10.9936C237.24 10.8277 237.85 10.2305 237.658 9.12901C237.598 8.80388 237.021 8.57164 236.682 8.29958C236.304 9.0892 235.933 9.87882 235.554 10.6618ZM222.396 25.2864C224.606 24.802 224.851 24.384 224.108 22.7052C223.484 23.6541 222.94 24.4702 222.396 25.2864Z" fill="#262626"/>
<path d="M240.617 46.0221C240.451 48.6631 240.252 51.304 240.132 53.9449C240.053 55.7763 239.482 57.3555 238.347 58.8087C237.206 60.2685 237.471 60.9785 239.316 61.4894C241.864 62.1994 244.485 62.6573 247 63.4602C251.32 64.8403 255.493 66.5589 259.023 69.5582C260.291 70.6331 260.231 71.8341 259.687 73.1081C259.123 74.422 257.922 74.3556 256.854 73.9309C252.852 72.365 248.865 70.7592 244.903 69.1069C241.745 67.7931 238.606 66.4328 235.507 64.9996C234.539 64.5484 233.955 64.7939 233.411 65.5437C232.634 66.612 231.904 67.7201 231.095 68.7685C230.358 69.724 229.602 70.6796 228.752 71.5355C228.009 72.2853 227.08 72.7233 226.098 71.9005C225.183 71.1308 224.678 70.1222 225.256 68.9742C226.072 67.3552 227.014 65.7958 227.943 64.2365C228.859 62.6971 230.093 61.2705 228.507 59.3727C228.129 58.9215 228.215 57.9859 228.261 57.2825C228.62 52.2794 229.024 47.2762 229.416 42.2731C229.462 41.6693 229.635 41.0455 229.549 40.4616C228.971 36.5201 231.34 34.43 234.366 32.7844C236.496 31.6232 238.692 32.4061 239.389 34.7219C239.92 36.4936 240.066 38.3847 240.371 40.2294C240.418 40.5014 240.404 40.7801 240.404 41.0588C240.404 42.711 240.404 44.3699 240.404 46.0221C240.484 46.0221 240.55 46.0221 240.617 46.0221ZM235.395 36.8121C234.452 38.0264 233.576 39.0483 232.846 40.163C232.634 40.4815 232.654 41.238 232.893 41.5034C233.192 41.8351 233.855 42.074 234.313 42.0077C237.06 41.6361 237.604 39.7317 235.395 36.8121ZM232.734 49.4659C233.497 49.4659 234.339 49.5986 235.103 49.4129C235.514 49.3133 236.058 48.683 236.078 48.2716C236.118 47.2431 235.892 46.2013 235.74 45.1728C235.733 45.1396 235.328 45.133 235.122 45.1662C232.866 45.551 231.964 47.0904 232.734 49.4659ZM232.203 54.2236C232.322 54.4625 232.435 54.7013 232.555 54.9402C233.636 54.7743 234.764 54.7345 235.773 54.3563C236.005 54.27 235.806 53.0425 235.806 52.3457C235.647 52.2595 235.487 52.1732 235.328 52.087C234.28 52.797 233.245 53.5136 232.203 54.2236Z" fill="#262626"/>
<path d="M110.521 49.1875C112.18 49.8842 113.653 50.5942 115.186 51.1317C122.153 53.5868 129.147 55.9888 136.121 58.4373C137.163 58.8023 138.251 59.154 139.14 59.7644C139.764 60.1957 140.494 61.0849 140.454 61.7219C140.401 62.4916 139.751 63.4936 139.067 63.8917C136.798 65.2122 134.27 64.7941 131.98 64.0775C126.679 62.4186 121.43 60.5541 116.215 58.6298C111.769 56.9908 107.396 55.1528 102.99 53.401C102.632 53.2617 102.267 53.129 101.915 52.9763C99.1747 51.7687 98.949 50.5876 101.358 48.8159C105.133 46.0423 108.989 43.3615 112.89 40.7671C113.534 40.3358 114.748 40.1964 115.432 40.5083C116.706 41.0922 116.832 42.2733 115.85 43.3881C114.463 44.9541 112.923 46.3873 111.464 47.8936C111.158 48.1988 110.953 48.5837 110.521 49.1875Z" fill="#262626"/>
<path d="M109.228 30.3892C109.109 32.3732 108.916 34.0188 108.929 35.671C108.943 37.3764 108.06 38.4911 106.773 39.3405C105.074 40.4685 103.375 41.6231 101.557 42.5321C99.9847 43.3217 99.5932 44.4564 99.4672 46.0887C99.1686 49.8112 98.6975 53.5205 98.1733 57.223C98.014 58.3444 97.6159 59.5189 96.9988 60.4479C96.5144 61.1712 95.4925 62.0139 94.7626 61.9608C94.0526 61.9143 93.0308 60.9057 92.8251 60.1427C92.4402 58.6895 92.2876 57.0704 92.4734 55.5774C93.3095 48.8624 94.2583 42.1605 95.2736 35.4653C95.4726 34.1382 96.1428 32.8709 96.6405 31.5969C97.231 30.0906 97.9609 28.6374 98.4652 27.1046C99.2416 24.7291 103.555 22.0086 106.023 22.4134C107.695 22.6854 108.578 23.7803 108.817 25.2799C109.095 27.0715 109.115 28.8962 109.228 30.3892ZM104.59 33.2889C101.763 33.9458 100.655 35.2994 100.363 38.511C102.347 37.0977 103.515 35.4123 104.59 33.2889ZM100.317 29.6659C100.429 29.8849 100.535 30.1039 100.648 30.3162C101.949 29.9513 103.269 29.6261 104.543 29.1948C104.835 29.0953 104.995 28.6043 105.213 28.299C104.842 28.0801 104.344 27.589 104.112 27.6886C102.805 28.2725 101.571 28.9891 100.317 29.6659Z" fill="#262626"/>
<path d="M187.825 46.2877C189.357 47.1437 190.532 47.8404 191.739 48.4641C195.21 50.2623 198.747 51.9411 202.157 53.8521C203.312 54.4958 204.393 55.5375 205.077 56.6589C205.521 57.3888 205.581 58.8685 205.117 59.4989C204.652 60.1293 203.318 60.3217 202.363 60.335C201.533 60.3483 200.651 59.9369 199.875 59.5454C197.804 58.5102 195.694 57.5215 193.763 56.2608C190.014 53.799 186.132 51.6492 181.866 50.2159C181.401 50.0566 180.957 49.8111 180.539 49.559C178.853 48.5504 178.535 46.7721 180.094 45.6241C184.221 42.5917 188.448 39.6987 192.695 36.8321C193.604 36.215 194.838 35.8833 195.674 36.998C196.484 38.073 195.96 39.1479 195.104 39.9442C193.372 41.5566 191.56 43.0894 189.782 44.6487C189.245 45.1132 188.7 45.5578 187.825 46.2877Z" fill="#262626"/>
<path d="M33.9282 16.3416C34.1273 13.2893 34.3728 9.93841 34.5586 6.58087C34.6316 5.2405 35.242 4.27836 36.5293 4.08593C39.5684 3.62808 42.6207 3.13706 45.6796 3.06406C46.8077 3.03752 48.2343 3.91341 49.0505 4.80256C51.7577 7.74207 51.6715 13.5813 49.0969 16.6137C47.73 18.2261 46.0114 18.8499 43.9279 18.4783C43.1117 18.3323 42.2955 18.1996 41.4927 18.0337C39.6347 17.6488 37.9161 17.3901 36.9938 19.739C36.808 20.2101 35.5738 20.5087 34.8705 20.4357C34.5055 20.3959 34.1074 19.4072 33.9614 18.7901C33.8021 18.1067 33.9282 17.3635 33.9282 16.3416ZM38.7721 13.7074C40.1058 14.9084 44.9232 15.207 45.9384 14.2581C46.4892 13.7405 47.0067 12.8315 45.8455 12.6656C43.5165 12.3338 41.1476 12.4068 38.7721 13.7074ZM46.4626 7.96768C44.6578 6.00358 40.2916 6.64722 39.1702 8.95636C41.632 8.61796 43.8814 8.31272 46.4626 7.96768Z" fill="#262626"/>
<path d="M102.241 10.2568C100.184 12.7053 98.1998 15.2068 96.0631 17.5691C93.4753 20.429 90.8012 23.2225 88.0608 25.943C87.1451 26.8587 85.9839 27.5886 84.8094 28.1526C84.3184 28.3915 83.2633 28.1858 82.9183 27.7877C82.5998 27.4227 82.6993 26.4274 82.9714 25.8899C83.4823 24.8681 84.1989 23.9258 84.9222 23.0301C88.7774 18.2724 92.6459 13.5347 96.5409 8.81024C97.2376 7.9609 98.0272 7.17128 98.8766 6.47455C100.091 5.48587 102.002 5.30007 103.163 6.71343C103.76 7.4367 104.716 7.93436 105.598 8.33912C109.308 10.0378 113.043 11.6768 116.772 13.3157C117.808 13.7669 118.683 14.3177 118.398 15.6315C118.119 16.9188 117.084 17.1311 115.97 17.1444C113.229 17.1709 110.728 16.3216 108.491 14.8352C106.395 13.4484 104.417 11.8626 102.241 10.2568Z" fill="#262626"/>
<path d="M51.7244 22.7515C52.7396 22.9107 53.7349 22.8908 54.5644 23.2491C55.1616 23.5013 55.5398 24.2577 56.0175 24.7886C55.4867 25.2464 55.0023 26.0228 54.4118 26.1156C50.7622 26.6996 47.0928 27.184 43.4234 27.602C39.4819 28.0532 35.5206 28.3983 31.5725 28.8097C29.3695 29.0419 28.4803 28.6769 28.3808 27.4626C28.2746 26.1156 29.1306 25.5384 31.2805 25.2796C35.7661 24.7355 40.245 24.0985 44.724 23.5345C47.0729 23.2425 49.4352 23.0102 51.7244 22.7515Z" fill="#262626"/>
<path d="M163.287 40.9793C162.842 41.948 162.623 42.8571 162.093 43.5074C158.967 47.2896 155.072 49.977 150.348 51.3969C149.206 51.742 148.165 51.7354 147.594 50.3817C147.03 49.0414 147.189 47.8536 148.397 47.0109C152.06 44.4695 155.729 41.9414 159.478 39.5394C160.122 39.128 161.25 39.1611 162.039 39.3801C162.55 39.5261 162.856 40.3887 163.287 40.9793Z" fill="#262626"/>
<path d="M155.45 19.8521C156.552 20.0047 157.66 20.0644 158.722 20.3232C160.235 20.6948 161.183 22.1479 160.699 23.6011C160.473 24.2646 159.564 25.1737 158.994 25.1604C156.645 25.1007 154.283 24.822 151.967 24.4173C150.885 24.2248 149.89 23.5679 149.996 22.1479C150.102 20.7877 151.124 20.5023 152.179 20.3099C153.254 20.1108 154.349 20.0047 155.45 19.8521Z" fill="#262626"/>
<path d="M156.525 36.0424C155.59 36.0424 154.608 36.215 153.738 35.9827C153.141 35.8235 152.299 35.1135 152.272 34.6224C152.239 33.9655 152.776 32.8375 153.294 32.6849C155.172 32.1341 157.149 31.6763 159.08 31.6829C159.77 31.6896 160.878 33.0631 160.998 33.9257C161.084 34.5362 159.943 35.5713 159.126 35.9694C158.423 36.3145 157.408 36.0424 156.525 36.0424Z" fill="#262626"/>
<path d="M102.612 21.0663C101.338 20.8407 99.8451 21.1459 99.6527 19.3211C99.5133 18.014 100.834 16.9456 102.678 16.9855C103.833 17.012 105.087 17.2177 106.102 17.7353C107.323 18.359 107.197 19.7325 105.917 20.27C104.888 20.6947 103.72 20.8075 102.612 21.0663Z" fill="#262626"/>
</svg>
