<svg width="853" height="100" viewBox="0 0 853 100" fill="none" xmlns="http://www.w3.org/2000/svg">
<g filter="url(#filter0_d_248_627)">
<path d="M601.116 46.7124C598.771 46.8435 596.419 46.9806 594.074 47.1177C592.312 47.219 591.322 48.1966 590.891 49.8893C590.497 51.4271 590.025 52.9411 589.583 54.461C589.047 56.3028 589.147 56.4697 591.08 56.6783C592.023 56.7796 592.848 57.0061 593.06 58.0969C593.266 59.1698 592.954 60.0698 592.017 60.6718C591.605 60.9341 591.163 61.1665 590.703 61.3334C589.919 61.6136 589.124 61.9056 588.304 62.0487C586.666 62.3288 585.635 63.2527 584.816 64.6951C582.965 67.9614 581.032 71.186 579.017 74.357C578.204 75.6385 577.155 76.7889 576.088 77.8677C575.522 78.4399 574.727 78.875 573.961 79.1194C572.699 79.5247 571.627 79.0717 570.955 77.8856C570.277 76.6935 570.825 75.7398 571.721 75.0186C575.269 72.1636 577.526 68.3369 579.636 64.403C580.679 62.4599 580.478 62.1261 578.363 61.5539C574.903 60.6241 571.409 59.8135 568.008 58.6989C564.655 57.5962 563.907 56.1418 564.437 52.6252C564.632 51.3198 564.125 50.7059 562.881 50.7357C560.63 50.7953 558.373 50.9682 556.122 50.9801C555.055 50.9861 553.918 50.9205 552.946 50.539C552.315 50.2887 551.561 49.4125 551.549 48.8045C551.537 48.1727 552.227 47.1654 552.828 46.9568C554.101 46.5097 555.503 46.3548 556.865 46.3011C559.363 46.2058 561.868 46.2534 564.372 46.2654C566.199 46.2713 567.537 45.562 568.45 43.8812C570.46 40.1917 572.529 36.5319 574.668 32.9199C575.11 32.1748 575.905 31.3106 576.671 31.1496C580.991 30.2258 585.075 30.8457 588.593 33.7603C590.455 35.2981 591.127 37.4499 591.487 39.7685C591.935 42.6653 592.052 42.7725 594.987 42.6831C597.386 42.6116 599.784 42.2599 602.177 42.2719C604.41 42.2838 606.656 42.5341 608.877 42.8202C609.838 42.9454 610.81 43.6249 610.492 44.7157C610.292 45.4011 609.414 46.2594 608.742 46.3607C606.231 46.7362 603.68 46.8316 601.14 47.0343C601.128 46.9151 601.122 46.8137 601.116 46.7124ZM584.15 40.8056C584.132 41.0023 584.103 41.199 584.097 41.3957C584.061 42.4805 584.232 43.4401 585.605 43.4461C586.831 43.452 587.597 42.5878 587.532 41.3361C587.356 37.9326 585.081 35.2147 581.804 34.4935C579.641 34.0166 578.333 34.4935 577.143 36.377C576.088 38.0459 575.086 39.7565 574.196 41.5149C573.713 42.4686 573.519 43.5653 573.194 44.5964C574.279 44.6739 575.375 44.8945 576.442 44.7931C578.316 44.6203 578.622 44.0481 578.316 42.105C578.139 40.9844 577.944 39.8519 577.974 38.7254C578.003 37.5095 578.704 36.681 579.977 36.5617C582.311 36.3472 584.344 38.4214 584.15 40.8056ZM573.33 56.4339C573.949 56.0107 574.803 55.7067 575.198 55.0928C576.153 53.6087 576.954 52.0112 577.691 50.4019C578.239 49.1979 577.797 48.6257 576.459 48.6853C575.186 48.739 573.919 48.9118 572.652 48.9893C570.366 49.1204 569.152 50.5271 568.415 52.5358C568.014 53.6385 568.309 54.5683 569.346 55.0332C570.537 55.5756 571.821 55.9154 573.33 56.4339ZM580.649 55.3968C580.578 56.5114 581.239 57.1313 582.358 56.7021C582.995 56.4578 583.731 55.969 584.014 55.3849C585.004 53.3583 585.853 51.2543 586.672 49.1443C586.808 48.7986 586.643 48.0893 586.366 47.8687C585.299 47.0164 581.887 48.3694 581.604 49.7582C581.221 51.5881 580.973 53.4537 580.649 55.3968Z" fill="white"/>
<path d="M202.559 59.73C201.975 60.475 201.563 60.9996 201.156 61.5181C198.952 64.2957 196.807 67.1269 194.521 69.839C193.277 71.3112 191.568 72.2232 189.635 72.2947C188.816 72.3245 187.779 71.9311 187.219 71.3529C186.948 71.0728 187.372 69.7913 187.802 69.2012C188.61 68.0925 189.553 67.0316 190.614 66.1733C194.032 63.4076 196.542 59.8492 199.206 56.4219C199.542 55.9868 199.771 55.4563 200.284 54.5563C199.335 54.7768 198.846 54.9079 198.351 54.9974C197.202 55.206 196.047 55.5636 194.892 55.5576C192.829 55.5576 191.716 54.145 192.152 52.1006C192.381 51.0098 192.829 49.9131 193.401 48.9594C194.367 47.35 195.623 45.9195 196.536 44.2864C197.343 42.8558 197.821 41.2346 198.504 39.7325C198.817 39.0411 199.229 38.3795 199.701 37.7894C199.995 37.4199 200.573 37.2709 200.862 36.8954C201.339 36.2755 201.693 35.5542 202.093 34.8807C201.451 34.5052 200.85 34.0105 200.16 33.7721C198.976 33.3608 197.391 33.3846 197.22 31.7693C197.043 30.1123 198.634 29.7368 199.754 29.3017C201.805 28.497 203.903 27.74 206.054 27.2871C209.436 26.5718 211.287 28.2348 211.428 31.7217C211.469 32.7945 211.634 33.8972 211.958 34.9165C212.371 36.2099 212.112 37.1517 210.98 37.849C210.267 38.2842 209.548 38.7133 208.806 39.1007C207.497 39.7862 206.896 40.7458 207.433 42.2538C207.615 42.7664 207.715 43.3088 207.845 43.8334C208.11 44.8943 208.806 45.3116 209.831 45.0672C211.646 44.6321 213.426 44.0539 215.259 43.7142C216.932 43.4042 218.653 43.1837 220.344 43.2016C222.425 43.2254 223.55 44.4771 223.745 46.5692C224.246 51.8502 220.58 57.5127 215.512 58.8955C214.186 59.2591 212.618 58.8836 211.204 58.6273C210.792 58.5558 210.509 57.7273 210.173 57.2445C210.691 57.0001 211.275 56.4636 211.717 56.565C213.856 57.0537 215.424 56.1656 216.879 54.753C218.494 53.1913 219.944 51.5283 220.598 49.311C221.246 47.1057 220.456 46.1937 218.282 46.8434C215.559 47.654 212.884 48.6554 210.19 49.5793C208.711 50.0859 208.358 51.2482 208.464 52.6549C209.041 60.2664 208.081 67.7945 207.244 75.3226C207.038 77.1882 206.678 79.0539 206.148 80.848C205.959 81.4977 205.069 81.9328 204.498 82.4692C204.044 81.8851 203.231 81.3189 203.195 80.7049C202.942 76.6637 202.806 72.6106 202.73 68.5575C202.683 66.0302 202.824 63.503 202.859 60.9817C202.877 60.6717 202.724 60.3558 202.559 59.73ZM203.148 44.9957C203.148 44.5009 203.248 43.9824 203.119 43.5294C202.989 43.0525 202.724 42.379 202.37 42.2598C202.029 42.1465 201.292 42.5221 201.08 42.8916C200.237 44.3758 199.436 45.9076 198.799 47.4931C198.369 48.5779 198.923 49.0846 200.054 48.8581C202.347 48.3991 203.189 47.362 203.148 44.9957ZM208.971 31.972C208.093 31.4057 207.468 30.762 207.214 30.8872C206.607 31.1912 206.006 31.7872 205.765 32.4071C205.665 32.6634 206.69 33.7423 206.902 33.6588C207.556 33.4025 208.063 32.7647 208.971 31.972Z" fill="white"/>
<path d="M301.274 20.5037C301.274 19.3652 301.215 18.2208 301.292 17.0824C301.351 16.2539 301.404 15.324 301.804 14.6445C302.17 14.0187 303.018 13.2855 303.619 13.3153C304.209 13.3511 305.016 14.1915 305.24 14.8531C305.594 15.9022 305.605 17.0883 305.653 18.2268C305.712 19.6931 306.177 20.6706 307.798 20.915C308.275 20.9865 309.047 21.7315 308.994 22.0594C308.912 22.5899 308.328 23.1323 307.827 23.4839C307.362 23.8058 306.678 23.7998 306.195 24.1098C305.9 24.3005 305.659 24.8191 305.676 25.1707C305.688 25.3913 306.224 25.7191 306.548 25.7489C307.073 25.8026 307.615 25.6059 308.145 25.588C311.033 25.4986 313.921 25.4092 316.808 25.3734C317.28 25.3674 317.851 25.4926 318.199 25.7787C318.729 26.2138 319.419 26.8218 319.454 27.394C319.49 27.9722 318.936 28.8901 318.405 29.1285C316.985 29.7603 315.465 30.2193 313.938 30.5352C311.923 30.9524 309.872 31.1908 307.827 31.4591C306.313 31.6617 305.582 32.4127 305.629 34.0221C305.67 35.3036 305.523 36.591 305.417 37.8785C305.317 39.0766 305.753 39.7739 307.008 39.8812C307.639 39.9349 308.269 40.0779 308.882 40.2448C312.4 41.2164 313.844 43.3979 313.155 47.0219C312.795 48.9114 312.235 50.777 311.581 52.589C308.994 59.7714 305.169 66.1849 299.571 71.4062C298.098 72.7772 296.442 73.9514 294.821 75.1554C294.037 75.7395 293.13 76.0554 292.287 75.2031C291.427 74.3388 291.598 73.3792 292.216 72.503C294.12 69.7969 295.953 67.0312 298.015 64.4504C301.928 59.5449 304.663 53.9361 307.692 48.4941C307.833 48.2378 307.992 47.9517 308.01 47.6656C308.063 46.9206 308.287 45.651 308.016 45.5258C307.256 45.1801 306.047 44.9298 305.458 45.3172C304.515 45.943 303.614 47.01 303.254 48.0829C302.294 50.9618 300.178 52.0287 297.502 52.4579C295.369 52.7976 292.44 50.783 291.704 48.5001C290.896 45.9848 291.798 43.3443 294.002 42.2297C295.31 41.568 296.748 41.1746 298.115 40.6203C300.82 39.5236 301.846 37.6699 301.486 34.7433C301.327 33.4499 300.649 32.8598 299.4 33.0624C297.897 33.3008 296.418 33.6883 294.915 33.9088C292.01 34.332 289.099 34.7314 286.182 35.0353C285.274 35.1307 284.166 35.0353 284.019 33.7777C283.883 32.6035 284.82 32.1266 285.74 31.8763C287.584 31.3696 289.47 31.012 291.315 30.4994C294.432 29.6351 294.792 29.1941 295.128 25.9516C295.269 24.5747 295.257 23.1799 295.346 21.7971C295.404 20.8613 295.387 19.8778 295.67 19.0076C295.864 18.4115 296.518 17.9645 296.966 17.4519C297.449 17.9466 298.204 18.3698 298.351 18.954C298.681 20.2355 298.711 21.5885 298.852 22.9177C298.958 23.9488 298.976 24.9979 299.176 26.0112C299.253 26.3986 299.742 26.6966 300.036 27.0364C300.331 26.6847 300.773 26.3688 300.891 25.9635C301.103 25.2125 301.18 24.4078 301.215 23.6151C301.268 22.5779 301.227 21.5348 301.227 20.4918C301.256 20.5037 301.268 20.5037 301.274 20.5037ZM296.819 46.6464C296.943 46.849 297.066 47.0457 297.19 47.2484C297.768 46.8848 298.339 46.5212 298.917 46.1576C298.793 45.955 298.663 45.7523 298.54 45.5556C297.968 45.9132 297.39 46.2828 296.819 46.6464Z" fill="white"/>
<path d="M774.097 76.5263C773.979 77.9091 773.944 79.8999 773.572 81.8311C773.425 82.5821 772.518 83.1841 771.958 83.8577C771.304 83.2557 770.225 82.749 770.072 82.0397C769.459 79.1489 768.852 76.2044 768.758 73.26C768.498 64.9391 768.534 56.6064 768.381 48.2856C768.328 45.3173 768.062 42.349 767.915 39.3866C767.844 37.9561 767.084 37.2885 765.723 37.068C763.802 36.7581 761.981 36.6269 760.16 37.67C758.669 38.5164 757.254 38.0515 756.677 36.3885C755.975 34.356 755.416 32.1983 755.286 30.0645C755.103 27.114 755.304 24.1278 755.492 21.1655C755.616 19.2343 756.453 18.5667 758.333 18.9303C760.018 19.2581 761.197 18.8826 762.01 17.3269C762.234 16.8978 762.623 16.5521 762.965 16.2004C766.029 13.0592 770.084 13.9891 771.256 18.2448C771.84 20.3668 772.117 22.6318 772.17 24.8431C772.37 32.8182 772.282 40.8052 772.553 48.7803C772.8 56.1057 773.378 63.4133 773.802 70.7327C773.914 72.4613 773.985 74.1898 774.097 76.5263ZM765.587 27.5015C767.762 27.5432 768.221 27.1081 768.08 24.9325C768.015 23.9073 767.862 22.8582 767.579 21.8748C767.149 20.3906 765.935 19.8125 764.467 20.2416C762.7 20.7602 761.22 22.9477 761.374 24.8073C761.509 26.4822 762.617 27.2988 765.004 27.4776C765.198 27.4895 765.393 27.4895 765.587 27.5015ZM764.556 29.3015C763.277 29.6353 762.157 29.683 761.768 31.0062C761.45 32.0851 762.169 33.1699 763.554 33.6646C764.285 33.9268 765.074 34.2308 765.817 34.1831C766.501 34.1414 767.461 33.8195 767.738 33.3069C768.033 32.7705 767.933 31.5784 767.52 31.1731C766.713 30.3684 765.564 29.9035 764.556 29.3015Z" fill="white"/>
<path d="M427.022 70.322C422.572 69.1418 418.041 68.2239 413.703 66.71C407.645 64.6 401.693 62.1502 395.776 59.6468C391.975 58.0375 391.687 58.0375 390.337 61.9297C389.624 63.986 388.905 66.0484 388.068 68.057C387.591 69.1955 386.86 70.5306 385.405 70.1015C383.908 69.6604 384.244 68.0928 384.515 67.0259C385.858 61.7509 387.261 56.4877 388.817 51.2723C389.241 49.8418 390.149 48.5007 391.062 47.2967C391.575 46.6232 392.529 46.2178 393.36 45.896C393.667 45.7768 394.321 46.1344 394.574 46.4682C394.727 46.6708 394.539 47.3921 394.28 47.6126C392.635 49.0133 392.482 50.9803 392.335 52.8936C392.294 53.4479 392.789 54.3718 393.266 54.5744C394.61 55.1407 396.071 55.4268 397.491 55.7963C398.505 56.0586 399.118 55.6235 399.271 54.5923C399.625 52.2498 399.978 49.9014 400.279 47.553C400.774 43.7264 401.074 39.8699 401.776 36.085C402.023 34.732 403.102 33.4803 404.003 32.3418C404.363 31.8889 405.27 31.8769 405.93 31.6624C406.119 32.324 406.496 32.9975 406.467 33.6472C406.331 36.5082 406.001 39.3633 405.901 42.2243C405.836 44.1376 406.366 44.4118 408.128 43.7979C409.236 43.4105 410.362 42.9575 411.505 42.8323C412.071 42.7727 412.961 43.2495 413.238 43.7502C413.42 44.084 412.949 45.1211 412.495 45.4251C411.028 46.4026 409.46 47.243 407.881 48.0358C406.325 48.8226 405.317 49.9074 405.058 51.7313C404.905 52.7982 404.445 53.8175 404.121 54.8546C403.549 56.6725 403.785 57.5189 405.559 58.1209C410.209 59.6945 414.911 61.0952 419.585 62.5853C422.06 63.3781 424.529 64.2066 426.998 65.0291C427.417 65.1662 427.817 65.3629 428.206 65.5775C429.302 66.1854 430.505 66.8351 430.133 68.367C429.756 69.9167 428.336 69.7975 427.14 69.9346C427.098 70.0717 427.063 70.1969 427.022 70.322Z" fill="white"/>
<path d="M65.7736 62.9724C63.5695 62.3406 61.2712 61.9353 59.1733 61.0412C53.4864 58.6153 48.2062 55.498 43.8276 51.0038C43.5506 50.7237 43.2383 50.4733 42.9259 50.2409C41.6766 49.2991 41.2759 49.4124 40.2622 50.6462C38.3941 52.935 36.5849 55.2953 34.4988 57.3696C33.6148 58.2517 32.1238 58.6749 30.8391 58.9074C30.1614 59.0325 29.3364 58.2875 28.5762 57.9418C28.9533 57.2563 29.1655 56.3205 29.7371 55.9271C33.161 53.6145 35.3002 50.2409 37.3923 46.8195C38.3411 45.2698 38.2586 44.8407 36.7794 43.732C35.8777 43.0585 34.8523 42.5519 33.9507 41.8724C33.5323 41.5565 33.2789 41.02 32.9489 40.5789C33.491 40.3703 34.0745 39.9233 34.5754 40.0008C35.8247 40.1975 37.0564 40.5909 38.2704 40.9723C39.449 41.3478 40.2387 41.0498 40.769 39.8756C41.7827 37.6166 42.8965 35.4053 43.8865 33.1403C44.0928 32.6694 43.9454 32.0436 43.9572 31.4952C43.4092 31.5906 42.755 31.531 42.3248 31.8171C41.2582 32.5144 40.3388 33.4383 39.2781 34.1416C38.7182 34.5112 37.7046 34.9701 37.3746 34.7258C36.8855 34.3622 36.4965 33.337 36.638 32.729C37.1742 30.3687 37.8578 28.0322 38.6711 25.7553C38.8597 25.2188 39.7672 24.6228 40.333 24.6347C40.8928 24.6466 41.6353 25.2844 41.9418 25.8447C42.9907 27.7639 43.1852 27.8832 45.2007 26.9712C46.5443 26.3632 47.8467 25.6301 49.2434 25.2188C49.9152 25.0221 50.7638 25.4572 51.5299 25.6063C51.2706 26.2977 51.0761 27.0248 50.7284 27.6626C50.3807 28.3063 49.7148 28.807 49.4732 29.4746C47.9351 33.6529 46.45 37.849 44.9944 42.0571C44.4346 43.6784 44.9355 44.9539 46.4323 45.842C51.082 48.6017 55.7317 51.3733 60.3637 54.1628C62.7209 55.5874 65.0605 57.0358 67.3765 58.5319C68.2605 59.1041 69.115 59.8253 68.5905 61.0829C68.0837 62.2691 67.0936 62.734 65.7736 62.9724Z" fill="white"/>
<path d="M531.566 21.1124C530.464 23.443 528.49 25.4516 528.637 28.5272C529.203 28.3246 529.574 28.2411 529.898 28.0683C533.446 26.1907 537.282 27.5378 538.579 31.4002C539.374 33.7665 540.005 36.3057 540.081 38.7852C540.323 46.665 540.394 54.5626 538.944 62.3589C538.602 64.1947 538.113 66.0425 537.412 67.7651C536.781 69.3148 535.573 70.4711 533.74 70.5963C532.456 70.6797 531.872 70.1075 532.008 68.832C532.067 68.2538 532.261 67.6697 532.509 67.1392C534.312 63.253 534.996 59.1164 535.178 54.8726C535.184 54.7235 535.149 54.5686 535.19 54.4255C536.074 51.2963 534.565 49.5022 531.925 48.2207C529.892 47.2372 527.971 46.0272 525.938 45.0378C524.441 44.3106 523.657 43.2854 523.716 41.5568C523.734 41.0323 523.475 40.329 523.097 40.0012C521.925 38.9819 521.736 37.6945 522.025 36.3474C523.133 31.132 525.154 26.3219 528.59 22.227C529.214 21.482 530.281 21.1243 531.141 20.5879C531.277 20.7548 531.418 20.9336 531.566 21.1124ZM534.913 39.6257C534.99 39.6078 535.066 39.5899 535.137 39.578C534.713 37.611 534.389 35.6143 533.841 33.6771C533.505 32.4969 532.627 31.5969 531.306 31.5015C530.045 31.4121 529.191 32.1453 528.619 33.2181C527.8 34.7381 527.034 36.2818 526.191 37.7898C525.461 39.1011 525.849 39.9177 527.17 40.4363C528.855 41.0979 530.517 41.8131 532.214 42.445C534.406 43.2615 535.102 42.7132 534.966 40.3648C534.954 40.1204 534.931 39.876 534.913 39.6257Z" fill="white"/>
<path d="M165.992 17.3865C165.173 18.823 164.442 19.9137 163.918 21.0939C163.393 22.2681 163.069 23.5377 162.656 24.7656C162.792 24.8669 162.928 24.9682 163.063 25.0696C163.44 24.9325 163.841 24.8371 164.195 24.6523C167.789 22.7628 171.691 24.2172 172.905 28.169C173.635 30.5592 174.183 33.0984 174.254 35.5898C174.496 43.5173 174.49 51.4627 173.093 59.3126C172.763 61.1902 172.08 63.0141 171.431 64.8142C171.213 65.4222 170.659 65.9824 170.129 66.3878C169.104 67.1686 167.837 67.6871 166.735 66.811C165.562 65.8752 166.192 64.6234 166.77 63.5744C168.526 60.4094 168.891 56.9046 169.28 53.4058C169.457 51.8322 169.504 50.2467 169.599 48.6612C169.663 47.5645 169.216 46.7419 168.267 46.2055C165.703 44.7511 163.169 43.2372 160.564 41.8663C158.914 40.996 157.724 39.9947 157.86 37.8906C157.895 37.3899 157.494 36.7641 157.123 36.3588C156.198 35.3514 155.909 34.201 156.204 32.9195C157.317 28.0379 159.15 23.4662 162.197 19.4727C163.022 18.3878 164.071 17.4938 165.992 17.3865ZM169.528 36.621C169.045 34.4574 168.762 32.2162 168.019 30.1419C167.094 27.5491 164.542 27.3167 163.063 29.5876C162.067 31.1135 161.224 32.7467 160.435 34.3918C159.734 35.8521 159.963 36.3826 161.472 37.0561C163.04 37.7535 164.642 38.3913 166.257 38.9635C168.691 39.8218 169.351 39.2973 169.528 36.621Z" fill="white"/>
<path d="M751.038 66.6857C751.038 63.2227 751.055 59.7597 751.032 56.2907C751.02 54.1986 750.578 53.8768 748.657 54.4549C745.757 55.3311 745.357 55.7781 745.457 58.8597C745.51 60.5823 745.816 62.2929 746.07 64.0035C746.217 64.9811 746.37 65.9467 745.321 66.4712C744.254 67.0076 743.429 66.3341 742.97 65.5175C742.28 64.2896 741.756 62.9485 741.29 61.6075C741.001 60.7789 740.942 59.861 740.772 58.9849C740.518 57.6736 739.929 56.9166 738.432 57.3457C737.607 57.5841 736.688 57.6259 736.293 56.6186C735.874 55.5516 736.475 54.8125 737.312 54.2582C738.173 53.686 739.192 53.2926 739.905 52.5833C740.671 51.8204 741.402 50.8548 741.715 49.8415C742.286 47.9819 741.738 47.356 739.823 47.1176C738.355 46.9328 737.79 46.0507 738.261 44.6261C738.703 43.3029 739.782 42.689 741.013 42.4148C745.197 41.485 749.44 41.181 753.713 41.5327C754.338 41.5863 755.033 41.7115 755.528 42.0453C756 42.3671 756.518 43.0109 756.53 43.5235C756.542 44.0182 756.047 44.7394 755.575 44.9957C754.591 45.5321 753.719 45.9792 754.214 47.3322C754.691 48.6375 755.681 48.9355 756.931 48.8163C757.974 48.715 759.37 48.262 759.695 49.6687C760.031 51.123 758.439 51.0455 757.591 51.4151C755.958 52.1184 755.039 53.2271 755.145 55.0569C755.369 58.8597 755.646 62.6624 755.864 66.4712C755.947 67.9017 756.088 69.362 755.899 70.7627C755.787 71.5972 755.251 72.5627 754.603 73.0873C753.018 74.3688 751.35 73.731 750.99 71.6985C750.702 70.0534 750.749 68.3487 750.649 66.6738C750.784 66.6857 750.908 66.6857 751.038 66.6857ZM746.759 50.6879C747.955 50.2945 749.181 49.9786 750.336 49.4839C751.067 49.168 751.639 48.2441 750.814 47.7733C749.877 47.2428 748.556 46.9924 747.513 47.2011C746.777 47.3501 746.052 48.3693 745.639 49.174C745.221 49.9846 745.71 50.5806 746.759 50.6879Z" fill="white"/>
<path d="M721.171 57.6074C721.849 51.7662 722.485 45.9189 723.21 40.0777C723.687 36.2451 724.247 32.4185 724.854 28.6038C725.331 25.6236 727.488 23.442 730.311 22.8937C732.439 22.4824 734.489 23.2692 735.238 25.2182C737.295 30.5409 738.644 36.0127 737.071 41.7526C736.735 42.9745 736.169 44.1666 735.497 45.2454C734.537 46.7773 733.104 47.5521 731.23 47.2422C730.8 47.1706 730.347 47.1587 729.91 47.1885C727.459 47.3375 726.587 48.0051 726.457 50.4727C726.186 55.557 726.103 60.6532 725.944 65.7435C725.909 66.7806 725.974 67.8356 725.785 68.8429C725.691 69.3257 725.161 69.9694 724.724 70.0708C724.294 70.1661 723.469 69.7966 723.275 69.3972C722.703 68.2171 722.12 66.9534 721.967 65.6719C721.648 63.0255 721.601 60.3433 721.442 57.673C721.354 57.6492 721.259 57.6253 721.171 57.6074ZM727.365 31.6615C727.477 31.7152 727.594 31.7688 727.706 31.8224C727.759 32.5615 727.653 33.3543 727.913 34.0099C728.089 34.457 728.785 35.0113 729.215 34.9875C732.574 34.8027 733.258 33.9801 733.051 30.5886C733.016 29.9985 732.94 29.4085 732.792 28.8363C732.256 26.7739 730.282 26.1958 728.973 27.8826C728.16 28.9257 727.877 30.3919 727.365 31.6615ZM730.476 38.5995C728.938 38.5816 727.435 39.5234 727.453 40.6618C727.471 41.7764 728.502 42.8612 729.592 42.9149C730.965 42.9745 732.085 41.7943 732.138 40.2327C732.168 39.2432 731.82 38.5935 730.476 38.5995Z" fill="white"/>
<path d="M115.582 75.5786C114.893 75.4058 113.667 75.221 112.524 74.8097C107.803 73.0931 103.649 70.4287 99.989 66.9597C98.6335 65.6723 97.2251 64.4325 95.8991 63.1152C95.1036 62.3225 94.4023 62.3582 93.5831 63.0139C91.167 64.957 88.7685 66.918 86.3051 68.7956C85.539 69.3797 84.6197 69.8386 83.7063 70.1248C82.6514 70.4526 82.0503 69.7075 82.5335 68.6942C82.8635 67.9969 83.388 67.371 83.9184 66.7988C86.0635 64.4921 88.2086 62.1854 90.4185 59.9442C91.3909 58.9548 91.385 58.1024 90.4834 57.1368C90.0826 56.7077 89.7172 56.2368 89.3401 55.7778C88.1497 54.3413 88.0672 54.4069 86.5585 55.5692C86.0399 55.9686 85.0794 56.1355 84.4783 55.9328C84.1482 55.8195 83.8123 54.5202 84.054 54.091C85.5272 51.4863 87.1125 48.9471 88.792 46.4735C89.1574 45.937 90.006 45.6569 90.6896 45.4423C91.0903 45.3171 91.5972 45.5377 92.0568 45.6032C91.939 46.0503 91.9213 46.5569 91.6914 46.9265C91.2436 47.6298 90.56 48.202 90.1946 48.9352C89.8999 49.5312 89.9235 50.2882 89.8056 50.9737C90.4009 50.9319 91.0609 51.0452 91.5854 50.8306C93.4535 50.0796 95.245 49.1438 97.1249 48.4226C98.1562 48.0292 99.2936 47.7371 100.384 47.7311C101.574 47.7252 102.334 48.5895 102.564 49.7935C102.771 50.8843 102.087 51.4743 101.209 51.8081C99.8829 52.3148 99.488 53.4473 99.0932 54.6513C97.7437 58.77 97.6848 58.8236 100.926 61.6072C105.8 65.7855 110.844 69.7194 116.943 71.9725C117.939 72.3421 118.947 72.8904 118.7 74.1839C118.429 75.6084 117.197 75.525 115.582 75.5786Z" fill="white"/>
<path d="M804.872 54.4015C803.192 53.8173 802.19 54.4849 801.294 55.6532C799.827 57.5665 798.295 59.4441 796.674 61.2262C795.378 62.6508 793.61 62.9727 791.795 62.6448C791.282 62.5495 790.87 61.9236 790.41 61.5362C790.787 61.1368 791.093 60.5348 791.553 60.3739C794.9 59.2116 796.091 56.1598 797.558 53.3882C797.765 52.9948 797.488 52.053 797.116 51.6835C795.643 50.2053 794.865 48.5304 794.841 46.3965C794.824 44.7753 794.111 44.3282 792.626 44.9302C791.518 45.3832 790.486 46.0687 789.485 46.7482C788.713 47.2727 788.288 48.733 787.01 47.7257C786.131 47.0402 786.208 44.9422 787.057 44.0421C787.322 43.756 787.64 43.5057 787.976 43.303C790.127 42.0215 792.319 40.8234 794.417 39.4645C795.154 38.9876 795.902 38.2366 796.209 37.4379C796.91 35.6497 797.317 33.7483 797.882 31.9065C798.289 30.5833 798.578 29.1826 799.25 28.0084C799.633 27.3408 800.805 26.6017 801.406 26.7567C802.013 26.9116 802.685 28.1037 802.738 28.8905C802.827 30.0826 802.467 31.3284 802.202 32.5264C801.978 33.5397 801.577 34.5113 801.342 35.5246C801.071 36.6869 801.719 37.2114 802.726 36.8836C803.504 36.6273 804.241 36.0491 804.836 35.453C805.378 34.9047 805.579 33.9748 806.168 33.5218C806.734 33.0927 807.712 32.7529 808.296 32.9675C808.714 33.1225 809.097 34.3205 808.956 34.9285C808.578 36.6094 807.871 38.2127 807.382 39.8757C806.551 42.7248 805.809 45.6097 804.978 48.4588C804.724 49.3291 804.771 50.0145 805.549 50.545C805.673 50.6285 805.838 50.7 805.891 50.8192C806.262 51.6179 806.934 52.4703 806.84 53.2153C806.787 53.6862 805.573 54.014 804.872 54.4015ZM798.949 45.4667C799.255 46.2594 799.456 46.778 799.656 47.2966C800.098 46.9151 800.693 46.623 800.959 46.1402C801.53 45.109 801.99 44.0064 802.361 42.8858C802.485 42.5043 802.208 41.9857 802.114 41.5327C801.625 41.646 800.87 41.6043 800.687 41.9083C800.004 43.0467 799.497 44.3044 798.949 45.4667Z" fill="white"/>
<path d="M19.4356 52.6251C20.9502 51.2423 22.4647 49.8654 23.9851 48.4826C24.3505 48.1547 24.6864 47.6421 25.1048 47.5527C25.8002 47.4097 26.7019 47.3024 27.2263 47.6362C27.5564 47.8507 27.6565 49.1144 27.3501 49.5435C25.0577 52.7443 22.6533 55.8617 20.2371 58.973C19.8894 59.4201 19.3237 59.7241 18.8227 60.028C15.8938 61.8043 12.965 60.2843 13.0003 56.8332C13.0239 54.4729 13.5189 52.1244 13.7782 49.7641C14.1023 46.8673 14.5031 43.9764 14.6858 41.0677C14.8802 37.9146 15.6345 37.3483 18.6165 38.2365C19.2176 38.4153 20.3726 38.1709 20.6673 37.7179C22.3822 35.0833 23.9969 32.3773 25.4702 29.5997C26.0831 28.4433 25.1048 28.038 24.0971 27.9904C22.8301 27.9367 21.5571 27.9904 20.296 27.8711C19.2588 27.7698 18.3866 27.3228 18.3041 26.0711C18.2216 24.8194 18.7992 23.7286 19.9424 23.5796C22.5943 23.2339 25.2875 23.0908 27.963 23.0908C28.4816 23.0908 29.1947 24.0087 29.4893 24.6584C30.444 26.7744 29.8134 28.8367 28.9707 30.8276C28.5346 31.8528 28.3166 32.7707 28.7232 33.9509C28.9236 34.535 28.3696 35.6973 27.8039 36.1741C26.2658 37.4675 24.6157 38.6656 22.8713 39.6551C20.5612 40.9664 19.3354 42.7366 19.3472 45.4785C19.3531 47.1534 19.0113 48.8283 18.8817 50.5032C18.8345 51.1529 18.9406 51.8204 18.976 52.4821C19.1292 52.5297 19.2824 52.5774 19.4356 52.6251Z" fill="white"/>
<path d="M693.291 52.0172C693.291 52.5655 693.273 53.1079 693.297 53.6563C693.385 56.0047 692.442 57.6737 690.221 58.532C689.625 58.7644 689.06 59.0625 688.482 59.3366C687.256 59.9327 686.455 61.5837 687.08 62.5017C687.922 63.7355 689.083 63.1275 689.955 62.5911C691.452 61.6612 692.819 60.5168 694.24 59.4618C694.912 58.9611 695.53 58.3651 696.261 57.9896C696.668 57.775 697.257 57.9181 697.764 57.8942C697.681 58.383 697.752 58.9969 697.487 59.3426C696.65 60.4393 695.707 61.4526 694.776 62.4719C693.373 64.0156 693.538 64.3732 695.377 65.3388C699.42 67.4548 703.409 69.69 707.381 71.949C708.171 72.402 708.843 73.1232 709.45 73.8206C709.715 74.1305 709.892 74.8041 709.739 75.1319C709.574 75.4776 708.902 75.871 708.566 75.7816C707.21 75.4359 705.814 75.0783 704.594 74.4286C700.911 72.4616 697.339 70.2741 693.645 68.331C692.142 67.5383 690.45 67.0793 688.806 66.6084C687.622 66.2687 686.82 66.8409 686.549 68.0985C686.143 69.988 685.783 71.8894 685.288 73.755C685.052 74.6491 684.716 75.6147 684.127 76.2763C683.697 76.7591 682.736 77.0571 682.094 76.9498C681.658 76.8783 681.063 75.9664 681.057 75.418C681.033 73.9994 681.033 72.4914 681.475 71.1682C683.402 65.3984 684.015 59.4737 683.921 53.4298C683.897 51.9993 683.968 50.5271 684.298 49.1502C684.487 48.3634 685.147 47.4217 685.848 47.0879C687.156 46.462 688.63 46.1163 690.073 45.8719C691.753 45.5858 692.643 46.319 693.032 48.0058C693.12 48.3932 693.214 48.7866 693.226 49.18C693.256 50.1218 693.238 51.0635 693.238 52.0053C693.244 52.0172 693.267 52.0172 693.291 52.0172ZM689.236 53.2272C689.03 53.1914 688.83 53.1556 688.624 53.1199C688.152 53.7338 687.575 54.3 687.286 54.9915C687.197 55.206 687.881 55.7604 688.211 56.1538C688.783 55.5637 689.419 55.0213 689.873 54.3477C689.973 54.1987 689.46 53.6146 689.236 53.2272ZM688.665 51.4033C689.372 50.8847 689.867 50.5211 690.356 50.1635C689.885 49.782 689.407 49.0846 688.942 49.0966C688.347 49.1085 687.769 49.6926 687.18 50.0264C687.616 50.4257 688.052 50.837 688.665 51.4033Z" fill="white"/>
<path d="M148.354 42.5163C147.917 45.8243 147.699 48.8523 147.045 51.7848C146.762 53.0604 145.737 54.2882 144.782 55.2657C143.869 56.1956 142.667 56.3267 141.459 55.3671C140.492 54.5982 137.599 55.2896 136.326 56.4996C135.63 57.1612 134.864 58.0433 133.945 57.4056C133.285 56.9526 133.014 55.9154 132.601 55.1227C132.519 54.9618 132.531 54.7353 132.536 54.5386C132.743 47.9046 132.902 41.2705 135.536 35.0061C136.526 32.6517 138.088 31.0364 140.51 30.3152C143.468 29.433 146.203 30.8635 146.874 33.8616C147.528 36.7882 147.894 39.7864 148.354 42.5163ZM136.903 48.7152C136.897 51.0576 137.434 51.4391 139.502 50.4378C140.557 49.9252 141.736 49.4722 142.537 48.6675C143.392 47.8092 144.046 46.635 144.446 45.4727C144.806 44.4355 144.175 43.7203 142.985 43.9766C141.836 44.221 140.687 44.4952 139.579 44.8766C137.369 45.6396 136.909 46.3548 136.903 48.7152ZM144.105 37.9148C143.68 36.83 143.445 35.9657 143.02 35.2087C142.301 33.9272 141.087 33.6352 139.909 34.4815C138.371 35.5842 137.734 37.2293 137.575 39.0652C137.504 39.8758 137.946 40.2394 138.783 40.0308C140.056 39.7089 141.364 39.4883 142.602 39.0771C143.15 38.8923 143.58 38.338 144.105 37.9148Z" fill="white"/>
<path d="M498.352 56.1419C498.287 49.8894 499.059 43.7978 501.505 37.9804C502.306 36.079 503.55 34.7379 505.436 34.0107C509.054 32.6159 511.971 33.9034 512.761 37.7121C513.433 40.9666 513.592 44.364 513.686 47.7019C513.751 50.0086 513.492 52.357 513.067 54.628C512.702 56.5949 511.818 58.4427 509.72 59.1877C509.166 59.3844 508.247 59.5275 507.928 59.2295C506.084 57.4711 504.457 58.9255 502.766 59.4142C502.631 59.45 502.513 59.5632 502.395 59.6527C501.528 60.3143 500.798 61.5064 499.484 60.7911C498.163 60.0758 498.429 58.6811 498.358 57.4711C498.334 57.036 498.352 56.589 498.352 56.1419ZM502.489 51.9517C502.465 54.3299 503.131 54.7949 505.288 53.7995C506.39 53.2869 507.587 52.7862 508.441 51.9696C509.272 51.1769 509.932 50.0444 510.286 48.9357C510.657 47.7555 509.973 47.1297 508.748 47.3741C507.463 47.6304 506.196 48.0297 504.947 48.4529C503.008 49.1086 502.507 49.8656 502.489 51.9517ZM503.137 42.9633C503.514 43.1183 503.992 43.5057 504.404 43.4402C505.601 43.2554 506.767 42.856 507.958 42.5997C509.696 42.2302 510.079 41.5745 509.419 39.8818C509.225 39.3811 508.972 38.8864 508.653 38.4572C507.746 37.2353 506.673 37.1042 505.495 38.04C504.057 39.1903 503.52 40.8116 503.137 42.9633Z" fill="white"/>
<path d="M251.341 46.0269C247.682 45.7467 244.01 45.5262 240.357 45.1447C239.219 45.0255 237.964 44.6977 237.068 44.036C236.373 43.5234 235.79 42.3254 235.837 41.473C235.872 40.8353 236.915 39.8875 237.652 39.7206C240.086 39.1663 242.567 38.7431 245.053 38.5464C251.842 38.0159 258.643 37.6285 265.444 37.1874C265.685 37.1695 265.933 37.1815 266.18 37.1874C268.608 37.2172 269.663 37.9086 269.946 39.6432C270.317 41.9141 269.333 43.8453 267.294 44.5308C266.233 44.8884 265.096 45.0493 263.982 45.1745C261.89 45.407 259.786 45.6215 257.682 45.7109C255.579 45.8004 253.469 45.7288 251.359 45.7288C251.353 45.8302 251.347 45.9255 251.341 46.0269Z" fill="white"/>
<path d="M634.978 49.478C631.171 49.1621 627.353 48.9178 623.563 48.4826C622.45 48.3575 621.241 47.8926 620.34 47.219C618.619 45.9256 618.99 43.8753 621.047 43.2435C622.632 42.7547 624.3 42.4329 625.95 42.3017C633.576 41.6878 641.201 41.1633 648.833 40.609C649.128 40.5851 649.422 40.603 649.717 40.609C652.286 40.6388 653.217 41.2348 653.477 43.005C653.872 45.6455 652.917 47.6065 650.518 48.0177C647 48.6257 643.417 48.8879 639.858 49.1919C638.249 49.329 636.622 49.2158 635.002 49.2158C634.99 49.3052 634.984 49.3946 634.978 49.478Z" fill="white"/>
<path d="M833.771 61.4104C829.021 61.321 824.425 61.8038 820.082 64.0926C817.312 65.5529 815.279 64.5277 814.713 61.47C814.006 57.6434 814.059 53.787 815.397 50.0438C815.909 48.6133 816.87 47.7729 818.373 47.5106C819.911 47.2424 821.425 46.7 822.969 46.6046C826.116 46.4139 827.943 48.5418 827.43 51.7008C827.218 53.0062 826.735 54.2757 826.346 55.5513C825.863 57.1248 826.11 57.4944 827.772 57.5599C830.854 57.6732 833.936 57.7328 837.012 57.9176C837.761 57.9593 838.598 58.2335 839.193 58.6805C839.653 59.0262 840.053 59.8309 839.994 60.3673C839.947 60.7667 839.128 61.3269 838.615 61.3687C837.007 61.4938 835.386 61.4104 833.771 61.4104ZM821.272 50.5028C820.588 51.2359 819.557 51.8677 819.31 52.732C818.879 54.2102 818.903 55.8314 818.815 57.399C818.797 57.7149 819.062 58.2514 819.31 58.3288C819.569 58.4123 820.135 58.15 820.264 57.8878C821.184 56.0579 822.109 54.2161 822.845 52.3088C823.193 51.4147 822.557 50.8425 821.272 50.5028Z" fill="white"/>
<path d="M674.068 18.0422C674.398 18.2449 674.975 18.5727 675.529 18.9363C676.502 19.5741 677.427 20.3013 678.446 20.8615C679.737 21.5708 679.967 22.3755 679.006 23.5914C678.275 24.5153 677.397 25.3438 676.767 26.3273C675.9 27.6744 676.254 28.634 677.674 29.3135C679.601 30.2374 680.203 31.1612 679.389 33.2057C677.945 36.8177 676.254 40.3344 674.539 43.8332C673.938 45.0551 673.019 46.128 672.152 47.1949C671.563 47.928 670.791 48.1247 669.954 47.4572C669.094 46.7777 669.053 46.0326 669.618 45.1266C670.384 43.9167 671.127 42.6948 671.811 41.4371C672.406 40.3523 672.035 39.6311 670.832 39.3748C670.161 39.2317 669.453 39.2079 668.817 38.9873C668.292 38.8085 667.674 38.5224 667.385 38.0933C666.748 37.1396 667.697 33.2116 668.793 32.7825C671.657 31.65 672.117 29.5281 671.852 26.7624C671.64 24.557 671.817 22.3099 671.828 20.0807C671.84 18.8171 672.512 18.1734 674.068 18.0422Z" fill="white"/>
<path d="M687.557 39.2436C687.875 39.5833 688.37 39.8754 688.476 40.2747C688.723 41.2224 689.048 42.2953 688.824 43.1775C688.7 43.6483 687.498 44.1073 686.791 44.0894C685.877 44.0656 684.869 43.7318 684.08 43.2371C682.648 42.343 682.394 42.3251 681.387 43.7735C679.076 47.0935 676.79 50.4373 674.403 53.6977C673.814 54.5023 672.936 55.1759 672.058 55.6527C671.569 55.915 670.661 55.8613 670.207 55.5454C669.93 55.3547 669.96 54.3057 670.201 53.8229C670.985 52.2851 671.804 50.7294 672.853 49.3704C675.859 45.4722 678.959 41.6337 682.094 37.8429C682.801 36.9905 683.779 36.317 684.728 35.715C686.555 34.5527 688.346 34.4454 690.391 35.5779C692.825 36.9249 695.501 37.8369 698.052 38.9813C700.38 40.0244 702.702 41.0794 704.988 42.2059C705.884 42.647 706.78 43.3265 706.291 44.5245C705.749 45.8418 704.558 45.7643 703.521 45.3292C700.675 44.1311 697.881 42.802 695.047 41.5622C693.114 40.7158 691.163 39.9111 689.207 39.1363C688.747 38.9575 688.211 38.9753 687.71 38.9038C687.663 39.023 687.61 39.1303 687.557 39.2436Z" fill="white"/>
<path d="M837.284 42.1521C837.178 44.2919 835.716 44.9594 834.237 43.9044C832.357 42.5633 830.607 41.0434 828.815 39.5771C827.713 38.6771 826.641 37.7294 825.545 36.8174C824.661 36.0843 823.8 36.1081 822.887 36.8413C821.361 38.0751 819.893 39.452 818.19 40.3818C817.076 40.9898 815.556 41.2401 814.295 41.0672C812.409 40.8169 811.554 39.1539 812.026 37.2823C813.116 32.955 815.479 29.337 818.349 26.023C818.726 25.5879 819.233 25.1468 819.764 25.0037C820.347 24.8368 821.019 25.0037 821.655 25.0276C821.543 25.6534 821.596 26.3925 821.278 26.8873C820.382 28.2999 819.28 29.5814 818.361 30.9761C817.766 31.8762 817.288 32.8656 816.87 33.867C816.681 34.314 816.782 34.8862 816.752 35.4048C817.235 35.2677 817.795 35.2558 818.178 34.9816C819.658 33.9206 821.078 32.7822 822.516 31.6676C824.39 30.2192 825.05 30.3384 826.835 31.9119C828.709 33.569 830.754 35.0352 832.664 36.6565C833.901 37.6996 835.121 38.7903 836.182 40.0122C836.801 40.7156 837.072 41.711 837.284 42.1521Z" fill="white"/>
<path d="M561.556 32.1271C562.121 30.3926 562.658 28.8011 563.159 27.2037C564.384 23.2936 565.598 19.3835 566.812 15.4734C566.93 15.0979 566.948 14.6151 567.195 14.3707C567.578 13.9893 568.121 13.5542 568.592 13.5601C568.904 13.5661 569.376 14.2515 569.482 14.7105C569.718 15.7178 569.794 16.7669 569.883 17.804C570 19.169 570.761 19.6339 571.992 19.3537C573.283 19.0617 574.556 18.6862 575.829 18.3285C578.003 17.7206 580.154 17.0232 582.352 16.5225C583.478 16.2662 584.692 16.2543 585.847 16.3318C586.926 16.4092 587.839 16.9695 588.033 18.1914C588.234 19.4372 587.65 20.3074 586.566 20.826C585.947 21.118 585.299 21.3743 584.633 21.5293C579.577 22.7393 574.509 23.8897 569.464 25.1593C568.739 25.344 567.967 25.9103 567.514 26.5242C566.759 27.5494 566.27 28.7654 565.622 29.874C565.021 30.8933 564.42 31.9244 563.689 32.8483C563.412 33.2 562.711 33.492 562.322 33.3788C561.992 33.2775 561.815 32.5801 561.556 32.1271Z" fill="white"/>
<path d="M78.3075 41.0853C78.0423 41.6336 77.73 42.1641 77.5119 42.7304C76.8637 44.441 76.3451 46.2113 75.5731 47.8624C75.3138 48.4167 74.4239 48.673 73.8228 49.0664C73.5989 48.3809 73.0155 47.5644 73.21 47.0339C74.1116 44.5841 75.2018 42.1999 76.2862 39.8216C76.846 38.5997 77.5414 37.5149 76.628 36.0844C76.4099 35.7447 76.9167 34.7135 77.341 34.2247C78.2132 33.2293 79.2917 32.4247 80.2169 31.471C80.4821 31.1968 80.7237 30.6127 80.6058 30.3206C80.4939 30.0345 79.9222 29.8199 79.5333 29.7722C78.7613 29.6709 77.9657 29.7424 77.1819 29.6769C76.1271 29.5874 75.579 28.9497 76.0328 27.9602C76.958 25.9396 77.9363 23.9309 79.0913 22.0474C79.4154 21.5229 80.4467 21.4394 81.1539 21.1533C81.2423 21.8745 81.5193 22.6434 81.3602 23.3051C81.1539 24.1455 80.5705 24.8846 80.1933 25.6893C79.7572 26.6191 79.8869 27.1675 81.1009 27.2032C83.906 27.2807 84.7546 28.8901 83.3344 31.31C82.3561 32.979 82.3561 32.979 83.9472 33.9923C85.2143 34.7969 85.4028 37.0679 84.1948 37.9679C83.9531 38.1467 83.1929 37.956 82.9277 37.6818C81.9259 36.6626 80.4762 36.2394 79.2445 36.8175C78.9734 36.9487 78.7908 37.2705 78.5727 37.509C78.8556 37.7295 79.1384 38.1408 79.4095 38.1348C80.7001 38.0931 81.4191 38.8858 82.25 39.7144C82.8334 40.2925 83.7292 40.6084 84.5366 40.8886C85.503 41.2224 86.5933 41.2581 87.4949 41.6992C87.9546 41.9257 88.4908 42.9092 88.3376 43.2907C88.1314 43.8092 87.3358 44.143 86.7347 44.4291C86.4813 44.5483 86.0688 44.3576 85.7388 44.2682C84.2242 43.8569 82.9454 43.9523 82.1381 45.6093C81.9436 46.0027 81.2482 46.4497 80.8769 46.3723C80.4114 46.2769 79.8692 45.7464 79.6865 45.2755C79.386 44.5066 79.3624 43.6364 79.2033 42.8138C79.0972 42.2595 78.9499 41.7171 78.8202 41.1687C78.6552 41.133 78.4843 41.1091 78.3075 41.0853Z" fill="white"/>
<path d="M464.066 67.3411C463.147 66.1252 462.269 65.1834 461.656 64.0926C461.096 63.0912 460.666 61.9587 460.454 60.8322C460.277 59.8845 460.654 58.7401 461.756 58.6864C462.534 58.6507 463.536 59.1394 464.102 59.7235C465.115 60.7726 465.811 62.1197 466.748 63.2462C467.614 64.2893 468.657 64.8258 470.119 64.182C471.203 63.7052 472.04 64.4622 472.004 65.6722C471.999 65.9642 471.922 66.2622 471.839 66.5424C470.107 72.2168 462.31 74.7977 457.649 71.2512C455.451 69.5823 455.02 67.1206 454.908 64.635C454.838 63.133 455.197 61.5892 455.533 60.0991C455.645 59.5924 456.276 59.199 456.67 58.7579C457.089 59.2467 457.714 59.6699 457.884 60.2362C458.267 61.5057 458.362 62.8647 458.698 64.1522C459.293 66.4411 460.943 67.7345 463.023 67.6332C463.253 67.6272 463.477 67.514 464.066 67.3411Z" fill="white"/>
<path d="M375.598 59.5869C376.447 55.4266 377.296 51.2602 378.138 47.0998C378.303 46.2773 378.486 45.4488 378.574 44.6143C378.68 43.6129 378.191 43.309 377.337 43.7977C376.488 44.2865 375.716 44.9183 374.856 45.3832C373.253 46.2475 371.827 46.1879 371.202 45.3176C370.483 44.3222 370.813 42.3553 372.11 41.3182C374.962 39.0234 378.262 37.6585 381.845 37.1101C383.354 36.8776 384.114 37.7657 383.519 38.9876C381.792 42.5281 381.869 46.3786 381.415 50.1456C381.049 53.1914 380.678 56.2372 380.283 59.277C380.213 59.8134 380.054 60.3439 379.889 60.8565C379.535 61.9473 379.034 62.9844 377.673 62.7758C376.3 62.5672 375.97 61.4526 375.887 60.2366C375.875 60.0399 375.887 59.8432 375.887 59.6406C375.787 59.6227 375.693 59.6048 375.598 59.5869Z" fill="white"/>
<path d="M701.547 30.0227C700.504 29.6412 699.697 29.4148 698.954 29.0571C697.375 28.3061 696.072 28.5028 694.888 29.8797C694.157 30.732 693.32 31.5367 692.395 32.1566C691.924 32.4665 690.957 32.5857 690.574 32.2996C690.156 31.9897 689.896 31.042 690.038 30.4936C690.28 29.5697 690.816 28.6935 691.358 27.8889C692.018 26.9114 692.165 26.1246 691.075 25.3795C690.05 24.6821 689.938 23.7344 690.409 22.6437C690.545 22.3337 690.739 21.9582 690.674 21.6602C690.256 19.7588 691.405 18.7336 692.802 18.0243C694.322 17.2494 695.931 16.6236 697.552 16.0931C698.795 15.6878 700.009 16.0275 700.905 17.0408C701.771 18.0243 701.553 19.1687 701.099 20.2595C700.698 21.2131 700.251 22.1549 699.773 23.0728C699.266 24.0444 699.485 24.7477 700.386 25.3318C701.129 25.8146 701.936 26.2617 702.496 26.9173C702.95 27.4418 703.439 28.3717 703.262 28.8962C703.067 29.4267 702.095 29.6889 701.547 30.0227ZM692.772 22.0774C692.861 22.2503 692.949 22.4291 693.037 22.6019C693.963 22.7271 694.682 22.5006 695.018 21.6185C694.923 21.4456 694.823 21.2668 694.729 21.0939C694.075 21.4158 693.426 21.7496 692.772 22.0774Z" fill="white"/>
<path d="M461.303 39.0054C461.037 39.5061 460.749 39.9889 460.519 40.5075C459.546 42.6711 458.598 44.8467 457.619 47.0104C457.395 47.4991 457.177 48.1488 456.771 48.3693C455.922 48.8283 454.92 49.3767 454.042 49.2813C452.876 49.1502 452.64 47.9164 452.563 46.8375C452.546 46.5514 452.593 46.2355 452.693 45.9613C454.119 42.087 455.928 38.4154 458.527 35.1967C459.234 34.3205 460.047 33.7364 461.338 34.2132C462.823 34.7675 464.603 34.7914 464.603 37.1041C464.603 39.9234 464.715 42.7486 464.779 45.5679C464.821 47.3978 464.868 49.2336 464.886 51.0635C464.891 51.5046 464.933 52.0708 464.691 52.3509C464.231 52.8993 463.601 53.5967 463 53.6384C462.546 53.6682 461.668 52.8039 461.615 52.2735C461.409 50.1694 461.373 48.0356 461.42 45.9136C461.468 43.6606 461.668 41.4075 461.804 39.1545C461.639 39.1068 461.473 39.0531 461.303 39.0054Z" fill="white"/>
<path d="M473.837 25.6119C473.324 27.3524 472.905 29.1346 472.269 30.8274C471.874 31.8705 471.214 33.0805 469.794 32.6096C468.409 32.1507 468.586 30.8513 468.763 29.7009C468.904 28.8187 469.157 27.9604 469.281 27.0782C469.482 25.6239 468.928 25.0517 467.537 25.4212C465.015 26.0888 462.563 26.8637 460.848 29.1406C460.241 29.9453 459.222 30.6188 458.261 30.9288C456.847 31.3818 456.057 30.5056 456.44 29.0452C456.829 27.567 457.354 26.1126 457.908 24.6821C458.685 22.6496 459.522 20.6349 460.377 18.6321C460.807 17.6248 461.549 16.6294 462.675 17.0228C463.359 17.2612 464.025 18.2685 464.231 19.0613C465.032 22.1012 464.962 22.1191 468.079 21.4813C471.739 20.7243 473.619 22.1131 473.837 25.6119Z" fill="white"/>
<path d="M195.369 21.9884C195.858 22.0957 196.341 22.2268 196.837 22.3103C197.85 22.4831 198.881 22.5725 199.883 22.799C201.015 23.0553 201.663 23.7944 201.645 25.0282C201.633 26.2262 200.909 26.9117 199.86 27.0607C198.363 27.2693 196.836 27.3528 195.322 27.3289C193.348 27.2991 191.462 27.2574 190.49 29.5104C190.372 29.7906 189.718 30.0469 189.393 29.9694C189.063 29.8919 188.651 29.4091 188.598 29.0574C188.48 28.2885 188.421 27.4481 188.598 26.6971C189.429 23.2341 190.33 19.783 191.256 16.3439C191.509 15.4021 192.216 15.0028 193.053 15.6346C194.025 16.3618 194.951 16.2187 195.97 15.8671C196.901 15.5512 197.844 15.2651 198.799 15.0564C200.467 14.6929 201.905 15.5988 202.305 17.1962C202.641 18.5254 201.922 19.4314 200.084 19.9261C199.041 20.2062 197.962 20.3433 196.925 20.6533C196.33 20.8321 195.793 21.2255 195.234 21.5235C195.298 21.6725 195.334 21.8334 195.369 21.9884Z" fill="white"/>
<path d="M438.484 36.4124C438.666 36.0012 438.849 35.1726 439.332 34.5945C441.354 32.1805 443.446 29.8261 445.561 27.4955C445.903 27.12 446.463 26.8697 446.964 26.7504C448.467 26.3869 449.486 27.418 448.92 28.8545C448.537 29.8261 447.865 30.8036 447.07 31.4592C445.485 32.7527 445.155 34.3322 445.402 36.2277C445.732 38.7847 446.209 41.3477 446.227 43.9107C446.245 46.3009 445.791 48.697 445.467 51.0872C445.396 51.5938 445.06 52.1064 444.73 52.5177C443.793 53.6979 442.308 53.5846 441.825 52.166C441.401 50.9024 441.171 49.4719 441.277 48.1546C441.501 45.3472 442.084 42.5696 442.355 39.7622C442.526 37.9681 442.214 37.8012 440.487 38.1767C439.22 38.4509 438.448 37.9145 438.484 36.4124Z" fill="white"/>
<path d="M205.052 20.933C205.152 20.474 205.205 20.0329 205.341 19.6097C206.095 17.2554 206.831 14.895 207.645 12.5645C208.21 10.9552 209.731 10.4128 210.862 11.6049C212.418 13.25 213.98 13.1129 215.789 12.3678C216.367 12.1294 217.015 12.0102 217.645 11.9506C218.659 11.8612 219.525 12.1711 219.814 13.2798C220.091 14.3407 219.649 15.1037 218.706 15.5984C218.576 15.6639 218.441 15.7295 218.311 15.7951C216.19 16.8083 216.19 16.9275 218.087 18.4355C218.777 18.9839 219.567 19.5203 219.979 20.2535C220.303 20.8316 220.368 21.8389 220.067 22.3873C219.873 22.7449 218.647 22.9297 218.176 22.6615C216.52 21.7257 214.976 20.5813 213.42 19.4726C211.735 18.2627 211.534 18.3104 210.727 20.2654C210.444 20.9508 210.126 21.6244 209.772 22.2681C209.13 23.4542 208.11 23.9907 206.82 23.5853C205.6 23.2039 205.217 22.1131 205.052 20.933Z" fill="white"/>
<path d="M396.136 23.86C395.447 25.1236 394.963 26.1429 394.362 27.0846C393.714 28.0979 393.667 28.843 394.61 29.8026C395.441 30.655 396.113 31.8053 396.46 32.9438C396.672 33.6352 396.39 34.8213 395.883 35.2982C395.464 35.6916 394.386 35.4174 393.608 35.3339C393.307 35.2982 393.025 34.9882 392.753 34.7737C391.033 33.3729 391.044 33.3789 389.73 35.2922C389.17 36.1028 388.669 37.0446 387.909 37.5989C387.296 38.046 386.236 38.3142 385.576 38.0817C385.175 37.9387 384.774 36.5022 385.027 35.9717C387.19 31.4894 389.441 27.0429 391.852 22.6858C392.182 22.0838 393.608 21.6963 394.38 21.8751C395.052 22.0242 395.517 23.109 396.136 23.86Z" fill="white"/>
<path d="M407.898 24.4318C408.865 24.1815 409.831 23.9132 410.804 23.6808C412.059 23.3768 413.161 23.6033 413.892 24.7775C414.564 25.8624 414.275 26.8458 413.09 27.281C410.002 28.4194 406.897 29.5102 403.791 30.5831C402.713 30.9527 401.664 30.9587 400.85 29.9334C400.072 28.944 400.538 28.0201 401.068 27.1916C402.265 25.3199 403.538 23.496 404.805 21.6721C405.052 21.3144 405.388 20.8912 405.759 20.778C406.455 20.5634 407.209 20.5574 407.94 20.468C407.999 21.1594 408.14 21.8509 408.093 22.5304C408.058 23.037 407.781 23.5318 407.61 24.0325C407.704 24.1695 407.804 24.3007 407.898 24.4318Z" fill="white"/>
<path d="M373.671 35.4941C372.958 34.8981 372.056 34.4034 371.52 33.6464C370.878 32.7285 371.031 31.59 371.891 30.8032C374.738 28.1925 378.026 26.3746 381.857 25.856C382.57 25.7607 383.736 26.3746 384.072 27.0004C384.326 27.4713 383.807 28.7588 383.253 29.2118C381.061 31.0178 378.739 32.6748 376.411 34.302C375.716 34.7968 374.826 35.0113 373.671 35.4941Z" fill="white"/>
<path d="M105.246 24.8551C106.153 24.6226 106.619 24.3902 107.084 24.4081C107.803 24.4379 108.982 24.4379 109.135 24.8014C109.4 25.4333 109.182 26.4048 108.876 27.1082C108.546 27.8652 107.88 28.4672 107.361 29.1407C107.444 29.2659 107.526 29.3851 107.609 29.5103C108.204 29.4209 108.799 29.3314 109.4 29.248C111.298 28.9977 112.306 30.2017 111.722 32.0554C111.616 32.3892 111.322 32.7587 111.021 32.8899C110.838 32.9674 110.355 32.6753 110.22 32.425C109.577 31.2805 108.699 31.3878 107.691 31.7872C106.919 32.0912 106.13 32.4428 105.322 32.5442C104.821 32.6097 104.032 32.3952 103.802 32.0316C103.584 31.6918 103.802 30.905 104.067 30.458C104.574 29.5997 105.252 28.8427 105.853 28.044C105.758 27.889 105.664 27.734 105.57 27.5731C104.597 27.7102 103.625 27.9486 102.647 27.9546C101.887 27.9605 101.126 27.6744 100.366 27.5194C100.543 26.6909 100.466 25.6598 100.944 25.0816C101.893 23.9193 103.083 22.9179 104.303 22.0358C104.715 21.7377 105.523 21.994 106.147 22C106.059 22.6318 105.994 23.2636 105.87 23.8895C105.817 24.11 105.623 24.2888 105.246 24.8551Z" fill="white"/>
<path d="M469.282 36.46C470.407 36.901 471.527 37.1812 472.482 37.7474C475.428 39.4998 478.369 41.2701 481.186 43.2251C482.123 43.8808 482.895 45.0252 483.307 46.1159C483.567 46.7954 483.26 48.071 482.736 48.5419C482.364 48.8756 481.156 48.4048 480.408 48.0948C479.901 47.8802 479.577 47.2663 479.117 46.9087C476.183 44.6199 473.23 42.3549 470.284 40.0839C469.665 39.6071 468.94 39.2316 468.427 38.6594C468.132 38.3316 467.979 37.6401 468.109 37.2289C468.209 36.8891 468.84 36.7222 469.282 36.46Z" fill="white"/>
<path d="M95.2622 27.7344C95.6394 28.0265 95.7573 28.104 95.8633 28.1993C96.4291 28.7298 96.9948 29.2663 97.5606 29.8027C96.9595 30.3987 96.4527 31.3047 95.7396 31.5252C94.1249 32.02 92.4159 32.2643 90.7304 32.4074C90.2413 32.4491 89.4163 31.9127 89.2571 31.4597C89.1157 31.0544 89.5636 30.2616 89.9702 29.8861C90.7304 29.1828 90.9249 28.6166 90.1942 27.7702C89.2807 26.7152 89.593 25.7258 90.642 24.9867C92.3334 23.7827 94.2427 23.0853 96.3112 23.288C96.9771 23.3535 97.9554 24.0449 98.0909 24.6171C98.2206 25.1774 97.5488 26.0298 97.0538 26.6079C96.653 27.0609 96.0107 27.2814 95.2622 27.7344Z" fill="white"/>
<path d="M444.542 68.9985C445.22 67.3117 445.673 65.7799 446.428 64.4209C447.424 62.6149 448.608 60.9042 449.81 59.2234C450.417 58.377 451.343 57.8465 452.362 58.526C453.317 59.1638 453.676 60.2307 453.205 61.2738C451.855 64.2302 450.453 67.1687 448.938 70.0416C448.261 71.3291 446.899 71.7582 445.98 71.0609C445.355 70.5959 445.025 69.7317 444.542 68.9985Z" fill="white"/>
<path d="M507.428 23.0725C507.652 23.2454 508.459 23.5672 508.736 24.1513C509.202 25.1348 508.589 25.8799 507.723 26.4819C505.389 28.0971 503.055 29.7124 500.816 31.4588C500.038 32.0668 499.584 33.092 498.912 33.8668C498.594 34.2364 498.046 34.7728 497.722 34.6953C497.256 34.588 496.797 34.0516 496.526 33.5867C496.331 33.247 496.367 32.7165 496.425 32.2873C496.92 28.8005 503.409 23.1023 507.428 23.0725Z" fill="white"/>
<path d="M141.4 19.3892C141.924 19.866 142.826 20.3071 142.879 20.8376C142.944 21.5051 142.514 22.4946 141.965 22.9118C140.256 24.2291 138.288 25.2006 136.638 26.5775C135.312 27.6861 134.316 29.2001 133.143 30.5055C132.837 30.8452 132.383 31.334 132.047 31.2982C131.611 31.2445 131.063 30.8154 130.869 30.3982C130.639 29.9094 130.58 29.2299 130.698 28.6875C131.411 25.3496 137.062 20.164 140.427 19.7051C140.669 19.6693 140.916 19.6633 141.158 19.6455C141.247 19.562 141.323 19.4726 141.4 19.3892Z" fill="white"/>
<path d="M91.3145 22.2801C90.678 22.3099 90.0416 22.3397 89.4051 22.3695C88.4327 22.4172 87.6254 21.9702 87.6489 21.0106C87.6666 20.3132 88.1263 19.4311 88.6744 18.996C89.2872 18.5132 90.2066 18.3821 91.0198 18.2032C92.3163 17.9231 93.0412 17.19 93.383 15.8787C93.548 15.2529 94.1255 14.7403 94.5203 14.1741C94.9918 14.7343 95.4515 15.3006 95.9347 15.843C96.5594 16.5463 97.2076 17.2198 97.8323 17.9231C98.3509 18.5072 99.3468 19.2225 99.2408 19.6754C99.0875 20.3609 98.2507 21.2132 97.5553 21.398C95.5281 21.9284 93.4301 22.1609 91.3557 22.5066C91.3381 22.4351 91.3263 22.3576 91.3145 22.2801Z" fill="white"/>
<path d="M479.883 62.3401C479.694 63.2341 479.712 63.7944 479.464 64.1759C479.034 64.8375 478.474 65.8329 477.903 65.8806C477.231 65.9343 476.217 65.2965 475.834 64.6647C474.279 62.0778 472.652 59.5923 470.354 57.5776C469.912 57.1902 469.977 56.2126 469.806 55.5033C470.483 55.5033 471.314 55.247 471.803 55.551C474.125 56.9875 476.418 58.4955 478.586 60.1585C479.282 60.6771 479.553 61.7559 479.883 62.3401Z" fill="white"/>
<path d="M108.882 38.7428C108.899 40.1495 108.387 40.7932 107.379 40.668C106.707 40.5846 105.911 40.2985 105.47 39.8217C103.707 37.9203 103.696 37.8905 102.57 40.221C102.14 41.1091 101.833 42.0866 101.256 42.8615C100.92 43.3085 100.166 43.4337 99.5941 43.7019C99.3171 43.0701 98.6276 42.2237 98.828 41.8482C99.9594 39.6965 101.15 37.5269 102.641 35.6255C103.43 34.6182 104.921 34.1175 106.265 34.9043C107.833 35.8222 108.746 37.2527 108.882 38.7428Z" fill="white"/>
<path d="M112.777 35.7925C114.769 36.2932 116.773 36.7283 118.735 37.3303C119.448 37.5508 120.285 38.0217 120.633 38.6297C121.016 39.2973 121.134 40.3404 120.904 41.0616C120.768 41.4788 119.59 41.9617 119.089 41.7948C116.219 40.8053 113.402 39.6609 110.603 38.4807C110.22 38.3198 109.801 37.5926 109.866 37.2111C109.931 36.8237 110.532 36.4124 110.98 36.2276C111.504 36.013 112.129 36.0309 112.707 35.9475C112.736 35.8998 112.754 35.8461 112.777 35.7925Z" fill="white"/>
<path d="M91.29 38.2301C91.2842 35.4823 94.9261 32.9908 97.2362 33.9385C98.4973 34.4571 99.1102 35.524 98.7095 36.7757C98.0789 38.7486 96.7883 40.2447 94.9615 41.1328C92.9755 42.0925 91.7792 41.3832 91.3902 39.1837C91.3195 38.8023 91.3077 38.4029 91.29 38.2301ZM96.1165 37.3777C96.0163 37.2168 95.9161 37.0499 95.816 36.889C94.8023 36.6744 94.2307 37.0559 94.4547 38.5221C95.0145 38.1407 95.5626 37.7592 96.1165 37.3777Z" fill="white"/>
</g>
<defs>
<filter id="filter0_d_248_627" x="0" y="0.960205" width="853" height="98.8975" filterUnits="userSpaceOnUse" color-interpolation-filters="sRGB">
<feFlood flood-opacity="0" result="BackgroundImageFix"/>
<feColorMatrix in="SourceAlpha" type="matrix" values="0 0 0 0 0 0 0 0 0 0 0 0 0 0 0 0 0 0 127 0" result="hardAlpha"/>
<feOffset dy="3"/>
<feGaussianBlur stdDeviation="6.5"/>
<feComposite in2="hardAlpha" operator="out"/>
<feColorMatrix type="matrix" values="0 0 0 0 0 0 0 0 0 0 0 0 0 0 0 0 0 0 0.15 0"/>
<feBlend mode="normal" in2="BackgroundImageFix" result="effect1_dropShadow_248_627"/>
<feBlend mode="normal" in="SourceGraphic" in2="effect1_dropShadow_248_627" result="shape"/>
</filter>
</defs>
</svg>
