<svg width="53" height="55" viewBox="0 0 53 55" fill="none" xmlns="http://www.w3.org/2000/svg">
<path d="M18.706 4.00944C17.9907 4.55104 17.4117 4.83538 17.0438 5.28221C12.6024 10.7321 8.71268 16.5002 7.0301 23.4395C6.42382 25.958 6.21265 28.5306 7.13909 31.0694C7.81349 32.9244 8.64456 33.4592 10.2999 32.4979C12.3299 31.3199 14.2032 29.8575 16.0902 28.4426C16.5397 28.1109 16.7714 27.4948 17.4117 26.5538C15.9471 26.6621 14.9798 26.7162 14.0125 26.8042C11.8599 27.0006 10.7154 26.4454 10.4838 25.0711C10.2113 23.4124 11.1923 22.0246 13.1337 21.5642C15.4362 21.0226 17.7523 20.5216 20.0888 20.1764C23.3995 19.6821 24.7347 20.8601 24.7074 24.2113C24.687 26.96 24.578 29.7154 24.3872 32.464C24.0194 37.7853 23.6652 43.1066 23.0861 48.4075C22.909 50.0256 22.1733 51.6301 21.4444 53.1195C20.7496 54.5344 19.4757 55.3333 17.8 54.8458C16.1923 54.3787 15.5179 53.0721 15.7359 51.5759C16.2332 48.1503 16.9417 44.7585 17.5547 41.3463C17.9022 39.3966 18.2291 37.4468 18.6379 35.0637C16.9008 36.3636 15.7223 37.5348 14.2986 38.2389C12.6228 39.0784 10.7699 39.9179 8.93748 40.0533C3.95786 40.4324 0.694874 37.0677 0.129472 31.4553C-0.531299 24.9222 1.43058 18.9171 3.88973 13.0272C5.43607 9.31717 7.51376 5.90506 10.4157 3.06163C12.5138 1.0103 15.0275 -0.147382 18.0384 0.0150992C20.1978 0.13019 21.9077 1.4165 22.3164 3.21734C22.3504 3.37982 22.4118 3.5423 22.4118 3.70478C22.3709 4.93694 21.9826 5.89152 20.5861 6.14878C19.1215 6.41958 18.8627 5.47854 18.706 4.00944Z" fill="white"/>
<path d="M34.7212 28.5238C35.307 25.5179 35.6953 22.4443 36.54 19.5061C37.9297 14.6655 40.8725 13.0068 45.4434 14.1103C50.1642 15.2409 52.9639 18.9306 51.8944 23.4124C50.968 27.312 49.626 31.1641 48.0047 34.8335C46.3426 38.5977 43.3044 39.5455 39.2512 38.5435C37.6436 38.1508 36.4787 37.1286 36.0836 35.5511C35.525 33.2832 35.1844 30.961 34.7212 28.5238ZM45.6273 24.4008C45.5933 24.1571 45.6273 23.4463 45.3889 22.837C45.1573 22.2344 44.66 21.2934 44.2717 21.2866C43.5565 21.2798 42.3848 21.686 42.1804 22.2073C41.0564 25.1862 40.1777 28.2598 40.8589 31.4959C40.9542 31.9562 41.397 32.5317 41.8126 32.6806C42.0919 32.7822 42.7458 32.3218 43.0047 31.9562C44.5306 29.8304 45.6614 27.5354 45.6273 24.4008Z" fill="white"/>
</svg>
