<svg width="38" height="23" viewBox="0 0 38 23" fill="none" xmlns="http://www.w3.org/2000/svg">
<path d="M27.4275 8.73061C26.5283 7.7625 24.689 5.85334 24.1032 5.28465C23.1086 4.31653 21.9233 2.42092 22.843 1.2497C23.8035 0.0310851 25.779 0.464368 27.1686 1.50696C30.2272 3.80201 33.3472 6.00905 36.3445 8.38534C38.4085 10.0237 38.538 11.7568 36.7464 13.7269C33.9466 16.8073 23.2585 24.7418 20.9628 22.176C20.4179 21.5666 20.1113 20.2329 20.5132 19.3393C21.5419 17.0442 25.7653 15.3179 25.9765 14.7357C25.0092 14.6815 21.9233 15.1148 21.1536 15.0945C16.1876 14.9591 11.2148 14.8914 6.25558 14.6612C4.94766 14.6003 3.59887 14.2008 2.39995 13.6592C1.71193 13.3478 0.880858 12.4541 0.874046 11.8178C0.867234 11.0595 2.39314 9.47532 3.04028 9.23837C5.09072 8.48689 5.95585 8.63583 8.11527 8.49366C12.6725 8.20255 16.8211 8.82539 21.392 8.73061C22.5092 8.7103 25.7653 8.8457 27.4275 8.73061Z" fill="white"/>
</svg>
