<svg width="235" height="45" viewBox="0 0 235 45" fill="none" xmlns="http://www.w3.org/2000/svg">
<path d="M164.018 3.59018C164.378 3.59018 164.552 3.76857 164.552 4.1365V6.44442C164.552 6.81235 164.378 6.99074 164.018 6.99074H156.907C156.765 6.99074 156.688 7.06878 156.688 7.21373V41.5649C156.688 41.9328 156.514 42.1112 156.154 42.1112H153.405C153.046 42.1112 152.871 41.9328 152.871 41.5649V7.22488C152.871 7.07993 152.795 7.00189 152.653 7.00189H145.978C145.618 7.00189 145.443 6.8235 145.443 6.45557V4.1365C145.443 3.76857 145.618 3.59018 145.978 3.59018H164.018Z" fill="white"/>
<path d="M184.337 5.79796C182.614 4.03636 180.356 3.15556 177.553 3.15556C174.794 3.15556 172.547 4.03636 170.824 5.79796C169.133 7.55955 168.293 9.88977 168.293 12.7886V32.9355C168.293 35.8343 169.133 38.1645 170.824 39.9261C172.547 41.6877 174.794 42.5685 177.553 42.5685C180.356 42.5685 182.614 41.6877 184.337 39.9261C186.061 38.1311 186.922 35.8009 186.922 32.9355V12.7886C186.922 9.88977 186.061 7.55955 184.337 5.79796ZM183.105 33.1473C183.105 34.9089 182.581 36.3584 181.545 37.4956C180.542 38.5994 179.211 39.1457 177.564 39.1457C175.95 39.1457 174.641 38.5994 173.638 37.4956C172.634 36.3584 172.133 34.9089 172.133 33.1473V12.6214C172.133 10.8263 172.634 9.3769 173.638 8.27311C174.641 7.13588 175.95 6.56726 177.564 6.56726C179.211 6.56726 180.542 7.13588 181.545 8.27311C182.581 9.3769 183.105 10.8263 183.105 12.6214V33.1473Z" fill="white"/>
<path d="M201.614 42.5574C198.854 42.5574 196.64 41.7323 194.993 40.0822C193.346 38.3987 192.518 36.1577 192.518 33.3703V12.3426C192.518 9.55529 193.346 7.33657 194.993 5.68646C196.64 4.00291 198.854 3.15556 201.614 3.15556C204.373 3.15556 206.587 4.00291 208.234 5.68646C209.925 7.37002 210.765 9.61104 210.765 12.3984V14.762C210.765 15.13 210.59 15.3084 210.23 15.3084H207.482C207.122 15.3084 206.947 15.13 206.947 14.762V12.2869C206.947 10.5587 206.467 9.18736 205.497 8.16162C204.526 7.10243 203.239 6.56726 201.625 6.56726C200.043 6.56726 198.756 7.10243 197.753 8.16162C196.782 9.22081 196.302 10.6033 196.302 12.2869V33.4261C196.302 35.1096 196.782 36.4921 197.753 37.5513C198.756 38.6105 200.054 39.1457 201.625 39.1457C203.239 39.1457 204.537 38.6328 205.497 37.6071C206.467 36.5479 206.947 35.1431 206.947 33.4261V26.3797C206.947 26.2347 206.871 26.1567 206.729 26.1567H202.094C201.734 26.1567 201.559 25.9783 201.559 25.6104V23.3025C201.559 22.9345 201.734 22.7561 202.094 22.7561H210.219C210.579 22.7561 210.754 22.9345 210.754 23.3025V33.3703C210.754 36.1577 209.914 38.3987 208.223 40.0822C206.587 41.7323 204.384 42.5574 201.614 42.5574Z" fill="white"/>
<path d="M232.415 5.79796C230.692 4.03636 228.434 3.15556 225.631 3.15556C222.871 3.15556 220.625 4.03636 218.901 5.79796C217.211 7.55955 216.371 9.88977 216.371 12.7886V32.9355C216.371 35.8343 217.211 38.1645 218.901 39.9261C220.625 41.6877 222.871 42.5685 225.631 42.5685C228.434 42.5685 230.692 41.6877 232.415 39.9261C234.138 38.1311 235 35.8009 235 32.9355V12.7886C235 9.88977 234.138 7.55955 232.415 5.79796ZM231.172 33.1473C231.172 34.9089 230.648 36.3584 229.612 37.4956C228.608 38.5994 227.278 39.1457 225.631 39.1457C224.017 39.1457 222.708 38.5994 221.704 37.4956C220.701 36.3584 220.199 34.9089 220.199 33.1473V12.6214C220.199 10.8263 220.701 9.3769 221.704 8.27311C222.708 7.13588 224.017 6.56726 225.631 6.56726C227.278 6.56726 228.608 7.13588 229.612 8.27311C230.648 9.3769 231.172 10.8263 231.172 12.6214V33.1473Z" fill="white"/>
<path d="M60.8713 42.5574C58.1119 42.5574 55.8978 41.7323 54.2509 40.0822C52.6039 38.3987 51.775 36.1577 51.775 33.3703V12.3426C51.775 9.55529 52.6039 7.33657 54.2509 5.68646C55.8978 4.00291 58.1119 3.15556 60.8713 3.15556C63.6308 3.15556 65.8449 4.00291 67.4918 5.68646C69.1824 7.37002 70.0222 9.61104 70.0222 12.3984V14.762C70.0222 15.13 69.8477 15.3084 69.4878 15.3084H66.7393C66.3793 15.3084 66.2048 15.13 66.2048 14.762V12.2869C66.2048 10.5587 65.7249 9.18736 64.7542 8.16162C63.7835 7.10243 62.4965 6.56726 60.8823 6.56726C59.3008 6.56726 58.0137 7.10243 57.0103 8.16162C56.0396 9.22081 55.5597 10.6033 55.5597 12.2869V33.4261C55.5597 35.1096 56.0396 36.4921 57.0103 37.5513C58.0137 38.6105 59.3117 39.1457 60.8823 39.1457C62.4965 39.1457 63.7944 38.6328 64.7542 37.6071C65.7249 36.5479 66.2048 35.1431 66.2048 33.4261V26.3797C66.2048 26.2347 66.1285 26.1567 65.9867 26.1567H61.3512C60.9913 26.1567 60.8168 25.9783 60.8168 25.6104V23.3025C60.8168 22.9345 60.9913 22.7561 61.3512 22.7561H69.4769C69.8368 22.7561 70.0113 22.9345 70.0113 23.3025V33.3703C70.0113 36.1577 69.1715 38.3987 67.4809 40.0822C65.8449 41.7323 63.6417 42.5574 60.8713 42.5574Z" fill="white"/>
<path d="M91.6724 5.79796C89.9491 4.03636 87.6914 3.15556 84.8883 3.15556C82.1289 3.15556 79.8821 4.03636 78.1588 5.79796C76.4682 7.55955 75.6284 9.88977 75.6284 12.7886V32.9355C75.6284 35.8343 76.4682 38.1645 78.1588 39.9261C79.8821 41.6877 82.1289 42.5685 84.8883 42.5685C87.6914 42.5685 89.9491 41.6877 91.6724 39.9261C93.3957 38.1311 94.2573 35.8009 94.2573 32.9355V12.7886C94.2573 9.88977 93.3957 7.55955 91.6724 5.79796ZM90.429 33.1473C90.429 34.9089 89.9055 36.3584 88.8693 37.4956C87.8659 38.5994 86.5353 39.1457 84.8883 39.1457C83.2741 39.1457 81.9653 38.5994 80.9618 37.4956C79.9584 36.3584 79.4567 34.9089 79.4567 33.1473V12.6214C79.4567 10.8263 79.9584 9.3769 80.9618 8.27311C81.9653 7.13588 83.2741 6.56726 84.8883 6.56726C86.5353 6.56726 87.8659 7.13588 88.8693 8.27311C89.9055 9.3769 90.429 10.8263 90.429 12.6214V33.1473Z" fill="white"/>
<path d="M115.897 5.79796C114.173 4.03636 111.916 3.15556 109.113 3.15556C106.353 3.15556 104.106 4.03636 102.383 5.79796C100.692 7.55955 99.8526 9.88977 99.8526 12.7886V32.9355C99.8526 35.8343 100.692 38.1645 102.383 39.9261C104.106 41.6877 106.353 42.5685 109.113 42.5685C111.916 42.5685 114.173 41.6877 115.897 39.9261C117.62 38.1311 118.482 35.8009 118.482 32.9355V12.7886C118.482 9.88977 117.62 7.55955 115.897 5.79796ZM114.653 33.1473C114.653 34.9089 114.13 36.3584 113.094 37.4956C112.09 38.5994 110.759 39.1457 109.113 39.1457C107.498 39.1457 106.189 38.5994 105.186 37.4956C104.183 36.3584 103.681 34.9089 103.681 33.1473V12.6214C103.681 10.8263 104.183 9.3769 105.186 8.27311C106.189 7.13588 107.498 6.56726 109.113 6.56726C110.759 6.56726 112.09 7.13588 113.094 8.27311C114.13 9.3769 114.653 10.8263 114.653 12.6214V33.1473Z" fill="white"/>
<path d="M139.532 6.39982C137.885 4.52673 135.671 3.59018 132.911 3.59018H124.622C124.262 3.59018 124.088 3.76857 124.088 4.1365V41.5649C124.088 41.9328 124.262 42.1112 124.622 42.1112H132.911C135.671 42.1112 137.885 41.197 139.532 39.3573C141.179 37.4842 142.008 34.9868 142.008 31.8761V13.8253C142.008 10.7146 141.179 8.22832 139.532 6.39982ZM138.125 31.72C138.092 33.8495 137.59 35.5331 136.62 36.7818C135.682 38.0306 134.427 38.6549 132.846 38.6549L128.112 38.7107C127.971 38.7107 127.894 38.6326 127.894 38.4877V7.22488C127.894 7.07993 127.971 7.00189 128.112 7.00189H132.846C134.493 7.00189 135.791 7.62625 136.718 8.87498C137.656 10.1237 138.114 11.8296 138.114 13.9925V31.72H138.125Z" fill="white"/>
<path d="M22.0259 45C16.2671 45 10.6936 42.6809 6.57083 38.5222C2.04447 33.9733 -0.278698 27.8746 0.026695 21.3411C0.517505 10.8718 8.21777 2.03037 18.3394 0.313365C24.938 -0.812721 31.5912 1.12727 36.5757 5.63161C37.2192 6.21138 37.2737 7.20367 36.7175 7.86148C36.1503 8.51929 35.1796 8.57504 34.5361 7.99527C30.2497 4.12645 24.5345 2.46519 18.852 3.42404C10.1592 4.9069 3.53871 12.4996 3.12425 21.4972C2.86249 27.1164 4.84754 32.3678 8.73039 36.2701C12.5587 40.1277 17.8376 42.1346 23.1929 41.8001C28.2319 41.4768 32.8564 39.1689 36.2049 35.3001C38.8661 32.2117 40.4694 28.4321 40.8512 24.4071C34.8306 28.2537 27.054 28.0976 21.1206 23.7939C20.4226 23.2922 20.259 22.2999 20.7607 21.5863C21.2515 20.8728 22.2222 20.7055 22.9203 21.2184C28.4391 25.2322 35.8776 24.8866 41.0257 20.3711L41.4511 20.0031C41.8982 19.6129 42.5199 19.5126 43.0544 19.7467C43.5997 19.9808 43.9597 20.5049 43.9924 21.1069C44.3632 27.1053 42.4218 32.8918 38.528 37.3961C34.6343 41.9005 29.2681 44.5875 23.3893 44.9666C22.9312 44.9889 22.4731 45 22.0259 45Z" fill="white"/>
<path d="M27.8065 18.3419C30.795 18.3419 30.795 13.6034 27.8065 13.6034C24.829 13.6034 24.8181 18.3419 27.8065 18.3419Z" fill="white"/>
<path d="M35.7577 18.1077C38.7462 18.1077 38.7462 13.3693 35.7577 13.3693C32.7801 13.3581 32.7692 18.1077 35.7577 18.1077Z" fill="white"/>
</svg>
