<svg width="381" height="99" viewBox="0 0 381 99" fill="none" xmlns="http://www.w3.org/2000/svg">
<path d="M67.665 54.252C69.3419 42.9208 70.6291 31.5218 72.814 20.2922C74.4739 11.7388 76.8621 10.5532 85.568 10.9258C87.3295 10.9935 89.1249 10.2144 90.9033 9.87565C98.051 8.52065 105.063 8.65615 110.94 13.4495C113.21 15.3126 115.293 18.0734 116.191 20.8342C123.593 43.5475 119.595 64.3467 104.081 82.5207C96.4927 91.4129 83.3153 90.5491 76.0491 81.3351C69.833 73.4252 68.2579 64.1435 67.665 54.252ZM81.6046 56.962C82.2991 60.1462 82.5023 63.3644 83.7557 66.0744C84.8228 68.3779 86.7367 71.0032 88.9386 71.8839C92.0889 73.1542 94.5449 70.4951 96.0185 67.8528C101.76 57.5887 105.148 46.7148 103.59 34.8077C102.641 27.5754 97.1533 24.6113 90.8864 28.3714C88.4304 29.845 86.3133 33.1139 85.568 35.9764C83.7557 42.8361 82.858 49.9498 81.6046 56.962Z" fill="white"/>
<path d="M207.331 41.3623C206.501 56.1996 202.148 69.5463 192.663 81.013C183.805 91.7345 169.357 91.3449 162.057 79.5564C158.856 74.3735 156.569 67.9711 156.027 61.9244C154.774 47.9171 156.569 33.9436 159.855 20.2412C161.904 11.7386 163.903 10.5529 172.711 10.9255C174.218 10.9933 175.759 10.4682 177.25 10.1295C191.918 6.87748 202.673 12.1959 205.095 26.4573C205.942 31.403 206.603 36.3827 207.331 41.3623ZM168.764 56.9279C169.476 60.2476 169.628 63.4658 170.898 66.1758C171.948 68.4454 173.947 71.0368 176.149 71.8837C179.316 73.1032 181.755 70.444 183.195 67.7679C188.767 57.4699 192.29 46.6468 190.664 34.7228C189.682 27.4396 183.009 24.3062 177.148 28.7438C174.896 30.4545 173.168 33.6049 172.49 36.4165C170.831 43.1915 169.933 50.1698 168.764 56.9279Z" fill="white"/>
<path d="M242.174 54.1498C243.478 43.8856 244.681 33.5876 246.188 23.3404C246.611 20.478 247.695 17.6325 248.881 14.9733C250.49 11.3487 253.505 10.0275 257.502 10.4002C259.806 10.6203 262.228 10.5357 264.497 10.0614C278.793 7.02959 289.48 12.1278 292.377 26.5755C296.425 46.782 292.58 65.0067 279.674 81.0974C271.256 91.5987 257.418 91.0736 249.389 80.2844C244.833 74.153 242.801 65.9891 242.174 54.1498ZM255.944 56.3686C256.537 59.6884 256.571 62.9404 257.773 65.6673C258.84 68.1063 260.839 70.9349 263.109 71.8326C266.411 73.1537 268.918 70.3421 270.426 67.4966C275.744 57.4187 279.25 46.8836 277.861 35.2475C276.964 27.6934 271.628 24.4414 265.141 28.3031C262.499 29.8783 260.331 33.5199 259.501 36.6194C257.756 43.1235 257.045 49.8815 255.944 56.3686Z" fill="white"/>
<path d="M329.097 53.997C330.638 43.0215 332.129 32.046 333.788 21.1043C334.093 19.0718 334.957 17.0563 335.838 15.1593C337.599 11.4161 340.614 9.92558 344.815 10.4168C346.983 10.6708 349.269 10.5861 351.403 10.1288C366.664 6.80907 376.911 12.6017 379.638 27.2527C383.365 47.2051 379.571 65.2435 366.749 81.114C358.365 91.4967 344.882 91.1071 336.702 80.5551C331.959 74.4237 329.791 65.9549 329.097 53.997ZM342.952 56.7748C343.544 59.7897 344.002 62.7029 344.696 65.5315C345.458 68.5802 346.525 71.5951 350.286 72.0694C354.164 72.5436 356.315 69.9691 357.823 67.0389C362.972 57.0797 366.342 46.68 365.004 35.2302C364.107 27.6422 357.738 24.2208 351.522 28.6585C349.151 30.3522 347.321 33.672 346.593 36.5683C344.933 43.2078 344.103 50.0336 342.952 56.7748Z" fill="white"/>
<path d="M0 88.5334C3.04875 74.0518 5.94507 59.5364 9.1632 45.0887C11.7885 33.334 14.7187 21.6471 17.7336 9.97719C18.3772 7.47043 19.5628 4.9298 21.138 2.88036C23.2891 0.0687331 26.4225 -0.913644 29.7762 0.966422C32.6386 2.55855 35.0099 8.19874 33.3839 10.9934C27.1847 21.5963 27.8284 33.6728 25.4232 45.0717C22.3067 59.8751 19.3088 74.7124 15.7858 89.4142C15.0913 92.3444 12.8895 95.8335 10.3658 97.2224C4.53926 100.407 0.728314 96.6634 1.13481 88.7706C0.762189 88.6859 0.372626 88.6181 0 88.5334Z" fill="white"/>
</svg>
