<svg width="307" height="73" viewBox="0 0 307 73" fill="none" xmlns="http://www.w3.org/2000/svg">
<path d="M189.559 49.73C188.975 50.475 188.563 50.9996 188.156 51.5181C185.952 54.2957 183.807 57.1269 181.52 59.839C180.277 61.3112 178.568 62.2232 176.635 62.2947C175.816 62.3245 174.779 61.9311 174.219 61.3529C173.948 61.0728 174.372 59.7913 174.802 59.2012C175.61 58.0925 176.552 57.0316 177.613 56.1733C181.031 53.4076 183.542 49.8492 186.205 46.4219C186.541 45.9868 186.771 45.4563 187.284 44.5563C186.335 44.7768 185.846 44.9079 185.351 44.9974C184.202 45.206 183.047 45.5636 181.892 45.5576C179.829 45.5576 178.715 44.145 179.151 42.1006C179.381 41.0098 179.829 39.9131 180.401 38.9594C181.367 37.35 182.622 35.9195 183.536 34.2864C184.343 32.8558 184.821 31.2346 185.504 29.7325C185.816 29.0411 186.229 28.3795 186.7 27.7894C186.995 27.4199 187.573 27.2709 187.861 26.8954C188.339 26.2755 188.692 25.5542 189.093 24.8807C188.451 24.5052 187.85 24.0105 187.16 23.7721C185.976 23.3608 184.39 23.3846 184.219 21.7693C184.043 20.1123 185.634 19.7368 186.753 19.3017C188.804 18.497 190.902 17.74 193.053 17.2871C196.436 16.5718 198.286 18.2348 198.428 21.7217C198.469 22.7945 198.634 23.8972 198.958 24.9165C199.371 26.2099 199.111 27.1517 197.98 27.849C197.267 28.2842 196.548 28.7133 195.805 29.1007C194.497 29.7862 193.896 30.7458 194.432 32.2538C194.615 32.7664 194.715 33.3088 194.845 33.8334C195.11 34.8943 195.805 35.3116 196.831 35.0672C198.646 34.6321 200.426 34.0539 202.258 33.7142C203.932 33.4042 205.653 33.1837 207.344 33.2016C209.424 33.2254 210.55 34.4771 210.744 36.5692C211.245 41.8502 207.58 47.5127 202.512 48.8955C201.186 49.2591 199.618 48.8836 198.204 48.6273C197.791 48.5558 197.508 47.7273 197.173 47.2445C197.691 47.0001 198.275 46.4636 198.717 46.565C200.856 47.0537 202.423 46.1656 203.879 44.753C205.494 43.1913 206.943 41.5283 207.597 39.311C208.246 37.1057 207.456 36.1937 205.281 36.8434C202.559 37.654 199.883 38.6554 197.19 39.5793C195.711 40.0859 195.357 41.2482 195.464 42.6549C196.041 50.2664 195.08 57.7945 194.244 65.3226C194.037 67.1882 193.678 69.0539 193.148 70.848C192.959 71.4977 192.069 71.9328 191.497 72.4692C191.044 71.8851 190.23 71.3189 190.195 70.7049C189.942 66.6637 189.806 62.6106 189.729 58.5575C189.682 56.0302 189.824 53.503 189.859 50.9817C189.877 50.6717 189.724 50.3558 189.559 49.73ZM190.148 34.9957C190.148 34.5009 190.248 33.9824 190.118 33.5294C189.989 33.0525 189.724 32.379 189.37 32.2598C189.028 32.1465 188.292 32.5221 188.079 32.8916C187.237 34.3758 186.435 35.9076 185.799 37.4931C185.369 38.5779 185.923 39.0846 187.054 38.8581C189.346 38.3991 190.189 37.362 190.148 34.9957ZM195.97 21.972C195.092 21.4057 194.468 20.762 194.214 20.8872C193.607 21.1912 193.006 21.7872 192.764 22.4071C192.664 22.6634 193.69 23.7423 193.902 23.6588C194.556 23.4025 195.063 22.7647 195.97 21.972Z" fill="white"/>
<path d="M288.274 10.5037C288.274 9.36523 288.215 8.22081 288.292 7.08236C288.351 6.25385 288.404 5.32402 288.805 4.64452C289.17 4.01867 290.019 3.28553 290.62 3.31533C291.209 3.3511 292.016 4.19152 292.24 4.85314C292.594 5.90218 292.606 7.08832 292.653 8.22677C292.712 9.69305 293.177 10.6706 294.798 10.915C295.275 10.9865 296.047 11.7315 295.994 12.0594C295.912 12.5899 295.328 13.1323 294.827 13.4839C294.362 13.8058 293.678 13.7998 293.195 14.1098C292.9 14.3005 292.659 14.8191 292.676 15.1707C292.688 15.3913 293.224 15.7191 293.549 15.7489C294.073 15.8026 294.615 15.6059 295.146 15.588C298.033 15.4986 300.921 15.4092 303.809 15.3734C304.28 15.3674 304.852 15.4926 305.199 15.7787C305.73 16.2138 306.419 16.8218 306.455 17.394C306.49 17.9722 305.936 18.8901 305.406 19.1285C303.985 19.7603 302.465 20.2193 300.939 20.5352C298.923 20.9524 296.872 21.1908 294.827 21.4591C293.313 21.6617 292.582 22.4127 292.629 24.0221C292.671 25.3036 292.523 26.591 292.417 27.8785C292.317 29.0766 292.753 29.7739 294.008 29.8812C294.639 29.9349 295.269 30.0779 295.882 30.2448C299.4 31.2164 300.844 33.3979 300.155 37.0219C299.795 38.9114 299.235 40.777 298.581 42.589C295.994 49.7714 292.17 56.1849 286.571 61.4062C285.098 62.7772 283.442 63.9514 281.821 65.1554C281.038 65.7395 280.13 66.0554 279.287 65.2031C278.427 64.3388 278.598 63.3792 279.217 62.503C281.12 59.7969 282.953 57.0312 285.015 54.4504C288.928 49.5449 291.663 43.9361 294.692 38.4941C294.833 38.2378 294.992 37.9517 295.01 37.6656C295.063 36.9206 295.287 35.651 295.016 35.5258C294.256 35.1801 293.048 34.9298 292.458 35.3172C291.516 35.943 290.614 37.01 290.254 38.0829C289.294 40.9618 287.178 42.0287 284.503 42.4579C282.369 42.7976 279.44 40.783 278.704 38.5001C277.897 35.9848 278.798 33.3443 281.002 32.2297C282.31 31.568 283.748 31.1746 285.116 30.6203C287.821 29.5236 288.846 27.6699 288.486 24.7433C288.327 23.4499 287.65 22.8598 286.4 23.0624C284.898 23.3008 283.418 23.6883 281.916 23.9088C279.01 24.332 276.099 24.7314 273.182 25.0353C272.274 25.1307 271.167 25.0353 271.019 23.7777C270.884 22.6035 271.821 22.1266 272.74 21.8763C274.585 21.3696 276.47 21.012 278.315 20.4994C281.432 19.6351 281.792 19.1941 282.128 15.9516C282.269 14.5747 282.257 13.1799 282.346 11.7971C282.405 10.8613 282.387 9.87783 282.67 9.0076C282.864 8.41155 283.519 7.96451 283.966 7.45191C284.45 7.94663 285.204 8.36983 285.351 8.95395C285.681 10.2355 285.711 11.5885 285.852 12.9177C285.958 13.9488 285.976 14.9979 286.176 16.0112C286.253 16.3986 286.742 16.6966 287.037 17.0364C287.331 16.6847 287.773 16.3688 287.891 15.9635C288.103 15.2125 288.18 14.4078 288.215 13.6151C288.268 12.5779 288.227 11.5348 288.227 10.4918C288.257 10.5037 288.268 10.5037 288.274 10.5037ZM283.819 36.6464C283.943 36.849 284.067 37.0457 284.19 37.2484C284.768 36.8848 285.34 36.5212 285.917 36.1576C285.793 35.955 285.664 35.7523 285.54 35.5556C284.968 35.9132 284.391 36.2828 283.819 36.6464Z" fill="white"/>
<path d="M52.7733 52.9724C50.5693 52.3406 48.2709 51.9353 46.173 51.0412C40.4861 48.6153 35.2059 45.498 30.8273 41.0038C30.5503 40.7237 30.238 40.4733 29.9256 40.2409C28.6763 39.2991 28.2756 39.4124 27.262 40.6462C25.3938 42.935 23.5847 45.2953 21.4985 47.3696C20.6145 48.2517 19.1236 48.6749 17.8389 48.9074C17.1611 49.0325 16.3361 48.2875 15.5759 47.9418C15.9531 47.2563 16.1652 46.3205 16.7368 45.9271C20.1607 43.6145 22.2999 40.2409 24.392 36.8195C25.3408 35.2698 25.2583 34.8407 23.7791 33.732C22.8775 33.0585 21.8521 32.5519 20.9504 31.8724C20.532 31.5565 20.2786 31.02 19.9486 30.5789C20.4908 30.3703 21.0742 29.9233 21.5751 30.0008C22.8244 30.1975 24.0561 30.5909 25.2701 30.9723C26.4487 31.3478 27.2384 31.0498 27.7688 29.8756C28.7824 27.6166 29.8962 25.4053 30.8862 23.1403C31.0925 22.6694 30.9452 22.0436 30.9569 21.4952C30.4089 21.5906 29.7547 21.531 29.3246 21.8171C28.2579 22.5144 27.3386 23.4383 26.2778 24.1416C25.718 24.5112 24.7043 24.9701 24.3743 24.7258C23.8852 24.3622 23.4963 23.337 23.6377 22.729C24.174 20.3687 24.8576 18.0322 25.6708 15.7553C25.8594 15.2188 26.7669 14.6228 27.3327 14.6347C27.8925 14.6466 28.6351 15.2844 28.9415 15.8447C29.9905 17.7639 30.1849 17.8832 32.2004 16.9712C33.544 16.3632 34.8464 15.6301 36.2431 15.2188C36.9149 15.0221 37.7635 15.4572 38.5296 15.6063C38.2703 16.2977 38.0758 17.0248 37.7281 17.6626C37.3804 18.3063 36.7145 18.807 36.4729 19.4746C34.9348 23.6529 33.4497 27.849 31.9941 32.0571C31.4343 33.6784 31.9352 34.9539 33.4321 35.842C38.0817 38.6017 42.7314 41.3733 47.3634 44.1628C49.7207 45.5874 52.0602 47.0358 54.3762 48.5319C55.2602 49.1041 56.1147 49.8253 55.5902 51.0829C55.0834 52.2691 54.0933 52.734 52.7733 52.9724Z" fill="white"/>
<path d="M152.992 7.38647C152.173 8.82296 151.442 9.91373 150.917 11.0939C150.393 12.2681 150.069 13.5377 149.656 14.7656C149.792 14.8669 149.927 14.9682 150.063 15.0696C150.44 14.9325 150.841 14.8371 151.194 14.6523C154.789 12.7628 158.69 14.2172 159.904 18.169C160.635 20.5592 161.183 23.0984 161.254 25.5898C161.496 33.5173 161.49 41.4627 160.093 49.3126C159.763 51.1902 159.079 53.0141 158.431 54.8142C158.213 55.4222 157.659 55.9824 157.129 56.3878C156.103 57.1686 154.836 57.6871 153.734 56.811C152.562 55.8752 153.192 54.6234 153.77 53.5744C155.526 50.4094 155.891 46.9046 156.28 43.4058C156.457 41.8322 156.504 40.2467 156.598 38.6612C156.663 37.5645 156.215 36.7419 155.267 36.2055C152.703 34.7511 150.169 33.2372 147.564 31.8663C145.914 30.996 144.724 29.9947 144.859 27.8906C144.895 27.3899 144.494 26.7641 144.123 26.3588C143.197 25.3514 142.909 24.2011 143.203 22.9195C144.317 18.0379 146.15 13.4662 149.197 9.47265C150.022 8.38784 151.071 7.49376 152.992 7.38647ZM156.528 26.621C156.044 24.4574 155.762 22.2162 155.019 20.1419C154.094 17.5491 151.542 17.3167 150.063 19.5876C149.067 21.1135 148.224 22.7467 147.435 24.3918C146.733 25.8521 146.963 26.3826 148.472 27.0561C150.039 27.7535 151.642 28.3913 153.257 28.9635C155.691 29.8218 156.351 29.2973 156.528 26.621Z" fill="white"/>
<path d="M102.582 65.5786C101.892 65.4058 100.667 65.221 99.5234 64.8097C94.803 63.0931 90.6483 60.4287 86.9887 56.9597C85.6333 55.6723 84.2248 54.4325 82.8989 53.1152C82.1033 52.3225 81.402 52.3582 80.5829 53.0139C78.1667 54.957 75.7682 56.918 73.3049 58.7956C72.5387 59.3797 71.6194 59.8386 70.706 60.1248C69.6511 60.4526 69.05 59.7075 69.5333 58.6942C69.8633 57.9969 70.3878 57.371 70.9181 56.7988C73.0632 54.4921 75.2083 52.1854 77.4183 49.9442C78.3906 48.9548 78.3847 48.1024 77.4831 47.1368C77.0823 46.7077 76.717 46.2368 76.3398 45.7778C75.1494 44.3413 75.0669 44.4069 73.5583 45.5692C73.0397 45.9686 72.0791 46.1355 71.478 45.9328C71.148 45.8195 70.8121 44.5202 71.0537 44.091C72.527 41.4863 74.1122 38.9471 75.7918 36.4735C76.1571 35.937 77.0057 35.6569 77.6893 35.4423C78.0901 35.3171 78.5969 35.5377 79.0565 35.6032C78.9387 36.0503 78.921 36.5569 78.6912 36.9265C78.2433 37.6298 77.5597 38.202 77.1943 38.9352C76.8997 39.5312 76.9232 40.2882 76.8054 40.9737C77.4006 40.9319 78.0606 41.0452 78.5851 40.8306C80.4532 40.0796 82.2447 39.1438 84.1246 38.4226C85.1559 38.0292 86.2933 37.7371 87.3835 37.7311C88.5739 37.7252 89.3341 38.5895 89.564 39.7935C89.7702 40.8843 89.0866 41.4743 88.2086 41.8081C86.8826 42.3148 86.4878 43.4473 86.0929 44.6513C84.7434 48.77 84.6845 48.8236 87.9257 51.6072C92.7993 55.7855 97.8438 59.7194 103.943 61.9725C104.939 62.3421 105.947 62.8904 105.699 64.1839C105.428 65.6084 104.197 65.525 102.582 65.5786Z" fill="white"/>
<path d="M6.43562 42.6251C7.95016 41.2423 9.46469 39.8654 10.9851 38.4826C11.3505 38.1547 11.6864 37.6421 12.1048 37.5527C12.8002 37.4097 13.7019 37.3024 14.2263 37.6362C14.5564 37.8507 14.6565 39.1144 14.3501 39.5435C12.0577 42.7443 9.65327 45.8617 7.23709 48.973C6.88939 49.4201 6.32365 49.7241 5.82273 50.028C2.89385 51.8043 -0.0350418 50.2843 0.000316963 46.8332C0.0238895 44.4729 0.518913 42.1244 0.778211 39.7641C1.10233 36.8673 1.50307 33.9764 1.68575 31.0677C1.88023 27.9146 2.63455 27.3483 5.61647 28.2365C6.21757 28.4153 7.37263 28.1709 7.66729 27.7179C9.38219 25.0833 10.9969 22.3773 12.4702 19.5997C13.0831 18.4434 12.1048 18.038 11.0971 17.9904C9.83007 17.9367 8.55715 17.9904 7.29602 17.8711C6.25883 17.7698 5.38664 17.3228 5.30414 16.0711C5.22163 14.8194 5.79916 13.7286 6.94243 13.5796C9.59434 13.2339 12.2875 13.0908 14.963 13.0908C15.4816 13.0908 16.1947 14.0087 16.4893 14.6584C17.444 16.7744 16.8134 18.8367 15.9707 20.8276C15.5346 21.8528 15.3166 22.7707 15.7232 23.9509C15.9236 24.535 15.3696 25.6973 14.8039 26.1741C13.2658 27.4675 11.6157 28.6656 9.87132 29.6551C7.56121 30.9664 6.33544 32.7366 6.34722 35.4785C6.35312 37.1534 6.01131 38.8283 5.88167 40.5032C5.83452 41.1529 5.9406 41.8204 5.97596 42.4821C6.12918 42.5297 6.2824 42.5774 6.43562 42.6251Z" fill="white"/>
<path d="M135.354 32.5163C134.917 35.8243 134.699 38.8523 134.045 41.7848C133.762 43.0604 132.737 44.2882 131.782 45.2657C130.869 46.1956 129.667 46.3267 128.459 45.3671C127.492 44.5982 124.599 45.2896 123.326 46.4996C122.63 47.1612 121.864 48.0433 120.945 47.4056C120.285 46.9526 120.014 45.9154 119.601 45.1227C119.519 44.9618 119.531 44.7353 119.536 44.5386C119.743 37.9045 119.902 31.2705 122.536 25.0061C123.526 22.6517 125.088 21.0364 127.51 20.3152C130.468 19.433 133.203 20.8635 133.874 23.8617C134.529 26.7882 134.894 29.7864 135.354 32.5163ZM123.903 38.7152C123.897 41.0576 124.434 41.4391 126.502 40.4378C127.557 39.9252 128.736 39.4722 129.537 38.6675C130.392 37.8092 131.046 36.635 131.446 35.4727C131.806 34.4356 131.175 33.7203 129.985 33.9766C128.836 34.221 127.687 34.4952 126.579 34.8766C124.369 35.6396 123.909 36.3548 123.903 38.7152ZM131.105 27.9148C130.68 26.83 130.445 25.9657 130.02 25.2087C129.301 23.9272 128.087 23.6352 126.909 24.4815C125.371 25.5842 124.734 27.2293 124.575 29.0652C124.504 29.8758 124.946 30.2394 125.783 30.0308C127.056 29.7089 128.364 29.4883 129.602 29.0771C130.15 28.8923 130.58 28.338 131.105 27.9148Z" fill="white"/>
<path d="M238.342 36.0269C234.682 35.7467 231.011 35.5262 227.357 35.1447C226.22 35.0255 224.964 34.6977 224.069 34.036C223.373 33.5234 222.79 32.3254 222.837 31.473C222.872 30.8353 223.915 29.8875 224.652 29.7206C227.086 29.1663 229.567 28.7431 232.054 28.5464C238.843 28.0159 245.643 27.6285 252.444 27.1874C252.686 27.1695 252.933 27.1815 253.181 27.1874C255.609 27.2172 256.664 27.9086 256.946 29.6432C257.318 31.9141 256.334 33.8453 254.295 34.5308C253.234 34.8884 252.096 35.0493 250.983 35.1745C248.891 35.407 246.787 35.6215 244.683 35.7109C242.579 35.8004 240.469 35.7288 238.36 35.7288C238.354 35.8302 238.348 35.9255 238.342 36.0269Z" fill="white"/>
<path d="M65.3079 31.0853C65.0427 31.6336 64.7304 32.1641 64.5123 32.7304C63.8641 34.441 63.3455 36.2113 62.5735 37.8624C62.3142 38.4167 61.4243 38.673 60.8232 39.0664C60.5993 38.3809 60.0159 37.5644 60.2104 37.0339C61.112 34.5841 62.2022 32.1999 63.2866 29.8216C63.8464 28.5997 64.5418 27.5149 63.6284 26.0844C63.4103 25.7447 63.9171 24.7135 64.3414 24.2247C65.2136 23.2293 66.2921 22.4247 67.2173 21.471C67.4825 21.1968 67.7241 20.6127 67.6062 20.3206C67.4943 20.0345 66.9226 19.8199 66.5337 19.7722C65.7617 19.6709 64.9661 19.7424 64.1823 19.6769C63.1275 19.5874 62.5794 18.9497 63.0332 17.9602C63.9584 15.9396 64.9366 13.9309 66.0917 12.0474C66.4158 11.5229 67.4471 11.4394 68.1543 11.1533C68.2427 11.8745 68.5197 12.6434 68.3606 13.3051C68.1543 14.1455 67.5709 14.8846 67.1937 15.6893C66.7576 16.6191 66.8873 17.1675 68.1013 17.2032C70.9064 17.2807 71.755 18.8901 70.3347 21.31C69.3565 22.979 69.3565 22.979 70.9476 23.9923C72.2147 24.7969 72.4032 27.0679 71.1951 27.9679C70.9535 28.1467 70.1933 27.956 69.9281 27.6818C68.9263 26.6626 67.4766 26.2394 66.2449 26.8176C65.9738 26.9487 65.7912 27.2705 65.5731 27.509C65.856 27.7295 66.1388 28.1408 66.4099 28.1348C67.7005 28.0931 68.4195 28.8858 69.2504 29.7144C69.8338 30.2925 70.7296 30.6084 71.5369 30.8886C72.5034 31.2224 73.5937 31.2581 74.4953 31.6992C74.955 31.9257 75.4912 32.9092 75.338 33.2907C75.1318 33.8092 74.3362 34.143 73.7351 34.4291C73.4817 34.5483 73.0692 34.3576 72.7392 34.2682C71.2246 33.8569 69.9458 33.9523 69.1384 35.6093C68.944 36.0027 68.2486 36.4497 67.8773 36.3722C67.4118 36.2769 66.8696 35.7464 66.6869 35.2755C66.3864 34.5066 66.3628 33.6364 66.2037 32.8138C66.0976 32.2595 65.9503 31.7171 65.8206 31.1687C65.6556 31.133 65.4847 31.1091 65.3079 31.0853Z" fill="white"/>
<path d="M182.369 11.9884C182.858 12.0957 183.341 12.2268 183.836 12.3103C184.85 12.4831 185.881 12.5725 186.883 12.799C188.015 13.0553 188.663 13.7944 188.645 15.0282C188.633 16.2262 187.908 16.9117 186.86 17.0607C185.363 17.2693 183.836 17.3528 182.322 17.3289C180.348 17.2991 178.462 17.2574 177.489 19.5104C177.372 19.7906 176.717 20.0469 176.393 19.9694C176.063 19.8919 175.651 19.4091 175.598 19.0574C175.48 18.2885 175.421 17.4481 175.598 16.6971C176.429 13.2341 177.33 9.78305 178.256 6.34389C178.509 5.40215 179.216 5.0028 180.053 5.6346C181.025 6.36177 181.951 6.21872 182.97 5.86706C183.901 5.55116 184.844 5.26506 185.799 5.05644C187.467 4.69286 188.904 5.59884 189.305 7.19623C189.641 8.5254 188.922 9.43138 187.083 9.9261C186.04 10.2062 184.962 10.3433 183.925 10.6533C183.33 10.8321 182.793 11.2255 182.233 11.5235C182.298 11.6725 182.334 11.8334 182.369 11.9884Z" fill="white"/>
<path d="M192.051 10.933C192.152 10.474 192.205 10.0329 192.34 9.60974C193.094 7.25537 193.831 4.89504 194.644 2.56451C195.21 0.955195 196.731 0.412796 197.862 1.60488C199.418 3.24996 200.979 3.11287 202.789 2.36782C203.366 2.1294 204.014 2.01019 204.645 1.95059C205.659 1.86118 206.525 2.17112 206.814 3.27976C207.091 4.34072 206.649 5.10365 205.706 5.59837C205.576 5.66393 205.441 5.7295 205.311 5.79506C203.189 6.80834 203.189 6.92755 205.087 8.43553C205.776 8.98389 206.566 9.52033 206.979 10.2535C207.303 10.8316 207.368 11.8389 207.067 12.3873C206.873 12.7449 205.647 12.9297 205.175 12.6615C203.519 11.7257 201.975 10.5813 200.42 9.47265C198.734 8.26268 198.534 8.31036 197.726 10.2654C197.444 10.9508 197.125 11.6244 196.772 12.2681C196.129 13.4542 195.11 13.9907 193.819 13.5853C192.599 13.2039 192.216 12.1131 192.051 10.933Z" fill="white"/>
<path d="M92.2455 14.8551C93.153 14.6226 93.6185 14.3902 94.0841 14.4081C94.8031 14.4379 95.9817 14.4379 96.1349 14.8014C96.4001 15.4333 96.1821 16.4048 95.8756 17.1082C95.5456 17.8652 94.8797 18.4672 94.3611 19.1407C94.4436 19.2659 94.5261 19.3851 94.6086 19.5103C95.2038 19.4209 95.799 19.3314 96.4001 19.248C98.2977 18.9977 99.3054 20.2017 98.722 22.0554C98.6159 22.3892 98.3213 22.7587 98.0207 22.8899C97.838 22.9674 97.3548 22.6753 97.2193 22.425C96.5769 21.2805 95.6988 21.3878 94.6911 21.7872C93.9191 22.0912 93.1294 22.4428 92.3221 22.5442C91.8212 22.6097 91.0315 22.3952 90.8016 22.0316C90.5836 21.6918 90.8016 20.905 91.0668 20.458C91.5736 19.5997 92.2513 18.8427 92.8524 18.044C92.7581 17.889 92.6639 17.734 92.5696 17.5731C91.5972 17.7102 90.6248 17.9486 89.6466 17.9546C88.8864 17.9605 88.1262 17.6744 87.3659 17.5194C87.5427 16.6909 87.4661 15.6598 87.9435 15.0816C88.8923 13.9193 90.0827 12.9179 91.3025 12.0358C91.7151 11.7377 92.5224 11.994 93.1471 12C93.0587 12.6318 92.9939 13.2636 92.8701 13.8895C92.8171 14.11 92.6226 14.2888 92.2455 14.8551Z" fill="white"/>
<path d="M82.2625 17.7344C82.6396 18.0265 82.7575 18.104 82.8636 18.1993C83.4293 18.7298 83.9951 19.2663 84.5608 19.8027C83.9597 20.3987 83.4529 21.3047 82.7398 21.5252C81.1251 22.02 79.4161 22.2643 77.7307 22.4074C77.2415 22.4491 76.4165 21.9127 76.2574 21.4597C76.116 21.0544 76.5638 20.2616 76.9705 19.8861C77.7307 19.1828 77.9251 18.6166 77.1944 17.7702C76.281 16.7152 76.5933 15.7258 77.6423 14.9867C79.3336 13.7827 81.243 13.0853 83.3115 13.288C83.9774 13.3535 84.9557 14.0449 85.0912 14.6171C85.2208 15.1774 84.549 16.0298 84.054 16.6079C83.6533 17.0609 83.0109 17.2814 82.2625 17.7344Z" fill="white"/>
<path d="M128.4 9.38916C128.924 9.866 129.826 10.3071 129.879 10.8376C129.944 11.5051 129.513 12.4946 128.965 12.9118C127.256 14.2291 125.288 15.2006 123.638 16.5775C122.312 17.6861 121.316 19.2001 120.143 20.5055C119.837 20.8452 119.383 21.334 119.047 21.2982C118.611 21.2445 118.063 20.8154 117.869 20.3982C117.639 19.9094 117.58 19.2299 117.698 18.6875C118.411 15.3496 124.062 10.164 127.427 9.70507C127.669 9.6693 127.916 9.66334 128.158 9.64546C128.246 9.56201 128.323 9.47261 128.4 9.38916Z" fill="white"/>
<path d="M78.314 12.2801C77.6776 12.3099 77.0411 12.3397 76.4046 12.3695C75.4323 12.4172 74.6249 11.9702 74.6485 11.0106C74.6662 10.3132 75.1258 9.43107 75.6739 8.99597C76.2868 8.51318 77.2061 8.38205 78.0194 8.20324C79.3159 7.92311 80.0407 7.18999 80.3825 5.87872C80.5475 5.25289 81.125 4.7403 81.5199 4.17407C81.9913 4.73434 82.451 5.30057 82.9342 5.84296C83.5589 6.54628 84.2072 7.21979 84.8318 7.92311C85.3504 8.50722 86.3464 9.22246 86.2403 9.67544C86.0871 10.3609 85.2502 11.2132 84.5549 11.398C82.5276 11.9284 80.4297 12.1609 78.3553 12.5066C78.3376 12.4351 78.3258 12.3576 78.314 12.2801Z" fill="white"/>
<path d="M95.8815 28.7428C95.8991 30.1495 95.3864 30.7932 94.3787 30.668C93.7069 30.5846 92.9113 30.2985 92.4693 29.8217C90.7073 27.9203 90.6955 27.8905 89.5699 30.221C89.1397 31.1091 88.8333 32.0866 88.2558 32.8615C87.9199 33.3085 87.1655 33.4337 86.5939 33.7019C86.3169 33.0701 85.6274 32.2237 85.8278 31.8482C86.9593 29.6965 88.1497 27.5269 89.6407 25.6255C90.4303 24.6182 91.9213 24.1175 93.2649 24.9043C94.8325 25.8222 95.7459 27.2527 95.8815 28.7428Z" fill="white"/>
<path d="M99.7768 25.7925C101.769 26.2932 103.772 26.7283 105.735 27.3303C106.448 27.5508 107.285 28.0217 107.632 28.6297C108.015 29.2973 108.133 30.3404 107.903 31.0616C107.768 31.4788 106.589 31.9617 106.088 31.7948C103.218 30.8053 100.401 29.6609 97.6022 28.4807C97.2192 28.3198 96.8008 27.5926 96.8656 27.2111C96.9304 26.8237 97.5315 26.4124 97.9794 26.2276C98.5039 26.013 99.1286 26.0309 99.7061 25.9475C99.7356 25.8998 99.7532 25.8461 99.7768 25.7925Z" fill="white"/>
<path d="M78.2904 28.2301C78.2846 25.4823 81.9265 22.9908 84.2366 23.9385C85.4977 24.4571 86.1106 25.524 85.7099 26.7757C85.0793 28.7486 83.7887 30.2447 81.9619 31.1328C79.9759 32.0925 78.7796 31.3832 78.3906 29.1837C78.3199 28.8023 78.3081 28.4029 78.2904 28.2301ZM83.1169 27.3777C83.0167 27.2168 82.9165 27.0499 82.8164 26.889C81.8027 26.6744 81.2311 27.0558 81.455 28.5221C82.0149 28.1407 82.563 27.7592 83.1169 27.3777Z" fill="white"/>
</svg>
