<svg width="470" height="71" viewBox="0 0 470 71" fill="none" xmlns="http://www.w3.org/2000/svg">
<path d="M231.116 33.7124C228.771 33.8435 226.419 33.9806 224.074 34.1177C222.312 34.219 221.322 35.1966 220.891 36.8893C220.497 38.4271 220.025 39.9411 219.583 41.461C219.047 43.3028 219.147 43.4697 221.08 43.6783C222.023 43.7796 222.848 44.0061 223.06 45.0969C223.266 46.1698 222.954 47.0698 222.017 47.6718C221.605 47.9341 221.163 48.1665 220.703 48.3334C219.919 48.6136 219.124 48.9056 218.304 49.0487C216.666 49.3288 215.635 50.2527 214.816 51.6951C212.965 54.9614 211.032 58.186 209.017 61.357C208.204 62.6385 207.155 63.7889 206.088 64.8677C205.522 65.4399 204.727 65.875 203.961 66.1194C202.699 66.5247 201.627 66.0717 200.955 64.8856C200.277 63.6935 200.825 62.7398 201.721 62.0186C205.269 59.1636 207.526 55.3369 209.636 51.403C210.679 49.4599 210.478 49.1261 208.363 48.5539C204.903 47.6241 201.409 46.8135 198.008 45.6989C194.655 44.5962 193.907 43.1418 194.437 39.6252C194.632 38.3198 194.125 37.7059 192.881 37.7357C190.63 37.7953 188.373 37.9682 186.122 37.9801C185.055 37.9861 183.918 37.9205 182.946 37.539C182.315 37.2887 181.561 36.4125 181.549 35.8045C181.537 35.1727 182.227 34.1654 182.828 33.9568C184.101 33.5097 185.503 33.3548 186.865 33.3011C189.363 33.2058 191.868 33.2534 194.372 33.2654C196.199 33.2713 197.537 32.562 198.45 30.8812C200.46 27.1917 202.529 23.5319 204.668 19.9199C205.11 19.1748 205.905 18.3106 206.671 18.1496C210.991 17.2258 215.075 17.8457 218.593 20.7603C220.455 22.2981 221.127 24.4499 221.487 26.7685C221.935 29.6653 222.052 29.7725 224.987 29.6831C227.386 29.6116 229.784 29.2599 232.177 29.2719C234.41 29.2838 236.656 29.5341 238.877 29.8202C239.838 29.9454 240.81 30.6249 240.492 31.7157C240.292 32.4011 239.414 33.2594 238.742 33.3607C236.231 33.7362 233.68 33.8316 231.14 34.0343C231.128 33.9151 231.122 33.8137 231.116 33.7124ZM214.15 27.8056C214.132 28.0023 214.103 28.199 214.097 28.3957C214.061 29.4805 214.232 30.4401 215.605 30.4461C216.831 30.452 217.597 29.5878 217.532 28.3361C217.356 24.9326 215.081 22.2147 211.804 21.4935C209.641 21.0166 208.333 21.4935 207.143 23.377C206.088 25.0459 205.086 26.7565 204.196 28.5149C203.713 29.4686 203.519 30.5653 203.194 31.5964C204.279 31.6739 205.375 31.8945 206.442 31.7931C208.316 31.6203 208.622 31.0481 208.316 29.105C208.139 27.9844 207.944 26.8519 207.974 25.7254C208.003 24.5095 208.704 23.681 209.977 23.5617C212.311 23.3472 214.344 25.4214 214.15 27.8056ZM203.33 43.4339C203.949 43.0107 204.803 42.7067 205.198 42.0928C206.153 40.6087 206.954 39.0112 207.691 37.4019C208.239 36.1979 207.797 35.6257 206.459 35.6853C205.186 35.739 203.919 35.9118 202.652 35.9893C200.366 36.1204 199.152 37.5271 198.415 39.5358C198.014 40.6385 198.309 41.5683 199.346 42.0332C200.537 42.5756 201.821 42.9154 203.33 43.4339ZM210.649 42.3968C210.578 43.5114 211.239 44.1313 212.358 43.7021C212.995 43.4578 213.731 42.969 214.014 42.3849C215.004 40.3583 215.853 38.2543 216.672 36.1443C216.808 35.7986 216.643 35.0893 216.366 34.8687C215.299 34.0164 211.887 35.3694 211.604 36.7582C211.221 38.5881 210.973 40.4537 210.649 42.3968Z" fill="white"/>
<path d="M404.097 63.5263C403.979 64.9091 403.944 66.8999 403.572 68.8311C403.425 69.5821 402.518 70.1841 401.958 70.8577C401.304 70.2557 400.225 69.749 400.072 69.0397C399.459 66.1489 398.852 63.2044 398.758 60.26C398.498 51.9391 398.534 43.6064 398.381 35.2856C398.328 32.3173 398.062 29.349 397.915 26.3866C397.844 24.9561 397.084 24.2885 395.723 24.068C393.802 23.7581 391.981 23.6269 390.16 24.67C388.669 25.5164 387.254 25.0515 386.677 23.3885C385.975 21.356 385.416 19.1983 385.286 17.0645C385.103 14.114 385.304 11.1278 385.492 8.16548C385.616 6.23429 386.453 5.56671 388.333 5.9303C390.018 6.25813 391.197 5.88262 392.01 4.32694C392.234 3.89778 392.623 3.55208 392.965 3.20041C396.029 0.0592424 400.084 0.989075 401.256 5.24485C401.84 7.36678 402.117 9.63175 402.17 11.8431C402.37 19.8182 402.282 27.8052 402.553 35.7803C402.8 43.1057 403.378 50.4133 403.802 57.7327C403.914 59.4613 403.985 61.1898 404.097 63.5263ZM395.587 14.5015C397.762 14.5432 398.221 14.1081 398.08 11.9325C398.015 10.9073 397.862 9.85825 397.579 8.87477C397.149 7.39062 395.935 6.81245 394.467 7.2416C392.7 7.76017 391.22 9.94766 391.374 11.8073C391.509 13.4822 392.617 14.2988 395.004 14.4776C395.198 14.4895 395.393 14.4895 395.587 14.5015ZM394.556 16.3015C393.277 16.6353 392.157 16.683 391.768 18.0062C391.45 19.0851 392.169 20.1699 393.554 20.6646C394.285 20.9268 395.074 21.2308 395.817 21.1831C396.501 21.1414 397.461 20.8195 397.738 20.3069C398.033 19.7705 397.933 18.5784 397.52 18.1731C396.713 17.3684 395.564 16.9035 394.556 16.3015Z" fill="white"/>
<path d="M57.0217 57.322C52.5724 56.1418 48.0406 55.2239 43.7033 53.71C37.6451 51.6 31.6931 49.1502 25.7764 46.6468C21.9754 45.0375 21.6866 45.0375 20.3371 48.9297C19.624 50.986 18.905 53.0484 18.0682 55.057C17.5909 56.1955 16.8601 57.5306 15.4045 57.1015C13.9077 56.6604 14.2436 55.0928 14.5147 54.0259C15.8583 48.7509 17.2608 43.4877 18.8166 38.2723C19.2409 36.8418 20.1485 35.5007 21.0619 34.2967C21.5746 33.6232 22.5293 33.2178 23.3602 32.896C23.6667 32.7768 24.3208 33.1344 24.5742 33.4682C24.7274 33.6708 24.5389 34.3921 24.2796 34.6126C22.6354 36.0133 22.4822 37.9803 22.3348 39.8936C22.2936 40.4479 22.7886 41.3718 23.266 41.5744C24.6096 42.1407 26.0711 42.4268 27.4913 42.7963C28.5049 43.0586 29.1178 42.6235 29.271 41.5923C29.6246 39.2498 29.9782 36.9014 30.2787 34.553C30.7738 30.7264 31.0743 26.8699 31.7756 23.085C32.0231 21.732 33.1015 20.4803 34.0032 19.3418C34.3627 18.8889 35.2702 18.8769 35.9302 18.6624C36.1188 19.324 36.496 19.9975 36.4665 20.6472C36.331 23.5082 36.001 26.3633 35.9008 29.2243C35.836 31.1376 36.3663 31.4118 38.1284 30.7979C39.2363 30.4105 40.3618 29.9575 41.5051 29.8323C42.0708 29.7727 42.9607 30.2495 43.2377 30.7502C43.4204 31.084 42.949 32.1211 42.4952 32.4251C41.0278 33.4026 39.4602 34.243 37.8809 35.0358C36.3251 35.8226 35.3174 36.9074 35.0581 38.7313C34.9049 39.7982 34.4452 40.8175 34.1211 41.8546C33.5494 43.6725 33.7852 44.5189 35.559 45.1209C40.2086 46.6945 44.9113 48.0952 49.5846 49.5853C52.0597 50.3781 54.5289 51.2066 56.9981 52.0291C57.4165 52.1662 57.8173 52.3629 58.2062 52.5775C59.3023 53.1854 60.5045 53.8351 60.1333 55.367C59.7561 56.9167 58.3359 56.7975 57.1396 56.9346C57.0983 57.0717 57.0629 57.1969 57.0217 57.322Z" fill="white"/>
<path d="M161.566 8.11241C160.464 10.443 158.49 12.4516 158.637 15.5272C159.203 15.3246 159.574 15.2411 159.898 15.0683C163.446 13.1907 167.282 14.5378 168.579 18.4002C169.374 20.7665 170.005 23.3057 170.081 25.7852C170.323 33.665 170.394 41.5626 168.944 49.3589C168.602 51.1947 168.113 53.0425 167.412 54.7651C166.781 56.3148 165.573 57.4711 163.74 57.5963C162.456 57.6797 161.872 57.1075 162.008 55.832C162.067 55.2538 162.261 54.6697 162.509 54.1392C164.312 50.253 164.996 46.1164 165.178 41.8726C165.184 41.7235 165.149 41.5686 165.19 41.4255C166.074 38.2963 164.565 36.5022 161.925 35.2207C159.892 34.2372 157.971 33.0272 155.938 32.0378C154.441 31.3106 153.657 30.2854 153.716 28.5568C153.734 28.0323 153.475 27.329 153.097 27.0012C151.925 25.9819 151.736 24.6945 152.025 23.3474C153.133 18.132 155.154 13.3219 158.59 9.22702C159.214 8.48196 160.281 8.12433 161.141 7.58789C161.277 7.75478 161.418 7.9336 161.566 8.11241ZM164.913 26.6257C164.99 26.6078 165.066 26.5899 165.137 26.578C164.713 24.611 164.389 22.6143 163.841 20.6771C163.505 19.4969 162.627 18.5969 161.306 18.5015C160.045 18.4121 159.191 19.1453 158.619 20.2181C157.8 21.7381 157.034 23.2818 156.191 24.7898C155.461 26.1011 155.849 26.9177 157.17 27.4363C158.855 28.0979 160.517 28.8131 162.214 29.445C164.406 30.2615 165.102 29.7132 164.966 27.3648C164.954 27.1204 164.931 26.876 164.913 26.6257Z" fill="white"/>
<path d="M381.038 53.6857C381.038 50.2227 381.055 46.7597 381.032 43.2907C381.02 41.1986 380.578 40.8768 378.657 41.4549C375.757 42.3311 375.357 42.7781 375.457 45.8597C375.51 47.5823 375.816 49.2929 376.07 51.0035C376.217 51.9811 376.37 52.9467 375.321 53.4712C374.254 54.0076 373.429 53.3341 372.97 52.5175C372.28 51.2896 371.756 49.9485 371.29 48.6075C371.001 47.7789 370.942 46.861 370.772 45.9849C370.518 44.6736 369.929 43.9166 368.432 44.3457C367.607 44.5841 366.688 44.6259 366.293 43.6186C365.874 42.5516 366.475 41.8125 367.312 41.2582C368.173 40.686 369.192 40.2926 369.905 39.5833C370.671 38.8204 371.402 37.8548 371.715 36.8415C372.286 34.9819 371.738 34.356 369.823 34.1176C368.355 33.9328 367.79 33.0507 368.261 31.6261C368.703 30.3029 369.782 29.689 371.013 29.4148C375.197 28.485 379.44 28.181 383.713 28.5327C384.338 28.5863 385.033 28.7115 385.528 29.0453C386 29.3671 386.518 30.0109 386.53 30.5235C386.542 31.0182 386.047 31.7394 385.575 31.9957C384.591 32.5321 383.719 32.9792 384.214 34.3322C384.691 35.6375 385.681 35.9355 386.931 35.8163C387.974 35.715 389.37 35.262 389.695 36.6687C390.031 38.123 388.439 38.0455 387.591 38.4151C385.958 39.1184 385.039 40.2271 385.145 42.0569C385.369 45.8597 385.646 49.6624 385.864 53.4712C385.947 54.9017 386.088 56.362 385.899 57.7627C385.787 58.5972 385.251 59.5627 384.603 60.0873C383.018 61.3688 381.35 60.731 380.99 58.6985C380.702 57.0534 380.749 55.3487 380.649 53.6738C380.784 53.6857 380.908 53.6857 381.038 53.6857ZM376.759 37.6879C377.955 37.2945 379.181 36.9786 380.336 36.4839C381.067 36.168 381.639 35.2441 380.814 34.7733C379.877 34.2428 378.556 33.9924 377.513 34.2011C376.777 34.3501 376.052 35.3693 375.639 36.174C375.221 36.9846 375.71 37.5806 376.759 37.6879Z" fill="white"/>
<path d="M351.171 44.6074C351.849 38.7662 352.485 32.9189 353.21 27.0777C353.687 23.2451 354.247 19.4185 354.854 15.6038C355.331 12.6236 357.488 10.442 360.311 9.89367C362.439 9.48239 364.489 10.2692 365.238 12.2182C367.295 17.5409 368.644 23.0127 367.071 28.7526C366.735 29.9745 366.169 31.1666 365.497 32.2454C364.537 33.7773 363.104 34.5521 361.23 34.2422C360.8 34.1706 360.347 34.1587 359.91 34.1885C357.459 34.3375 356.587 35.0051 356.457 37.4727C356.186 42.557 356.103 47.6532 355.944 52.7435C355.909 53.7806 355.974 54.8356 355.785 55.8429C355.691 56.3257 355.161 56.9694 354.724 57.0708C354.294 57.1661 353.469 56.7966 353.275 56.3972C352.703 55.2171 352.12 53.9534 351.967 52.6719C351.648 50.0255 351.601 47.3433 351.442 44.673C351.354 44.6492 351.259 44.6253 351.171 44.6074ZM357.365 18.6615C357.477 18.7152 357.594 18.7688 357.706 18.8224C357.759 19.5615 357.653 20.3543 357.913 21.0099C358.089 21.457 358.785 22.0113 359.215 21.9875C362.574 21.8027 363.258 20.9801 363.051 17.5886C363.016 16.9985 362.94 16.4085 362.792 15.8363C362.256 13.7739 360.282 13.1958 358.973 14.8826C358.16 15.9257 357.877 17.3919 357.365 18.6615ZM360.476 25.5995C358.938 25.5816 357.435 26.5234 357.453 27.6618C357.471 28.7764 358.502 29.8612 359.592 29.9149C360.965 29.9745 362.085 28.7943 362.138 27.2327C362.168 26.2432 361.82 25.5935 360.476 25.5995Z" fill="white"/>
<path d="M434.872 41.4015C433.192 40.8173 432.19 41.4849 431.294 42.6532C429.827 44.5665 428.295 46.4441 426.674 48.2262C425.378 49.6508 423.61 49.9727 421.795 49.6448C421.282 49.5495 420.87 48.9236 420.41 48.5362C420.787 48.1368 421.093 47.5348 421.553 47.3739C424.9 46.2116 426.091 43.1598 427.558 40.3882C427.765 39.9948 427.488 39.053 427.116 38.6835C425.643 37.2053 424.865 35.5304 424.841 33.3965C424.824 31.7753 424.111 31.3282 422.626 31.9302C421.518 32.3832 420.486 33.0687 419.485 33.7482C418.713 34.2727 418.288 35.733 417.01 34.7257C416.131 34.0402 416.208 31.9422 417.057 31.0421C417.322 30.756 417.64 30.5057 417.976 30.303C420.127 29.0215 422.319 27.8234 424.417 26.4645C425.154 25.9876 425.902 25.2366 426.209 24.4379C426.91 22.6497 427.317 20.7483 427.882 18.9065C428.289 17.5833 428.578 16.1826 429.25 15.0084C429.633 14.3408 430.805 13.6017 431.406 13.7567C432.013 13.9116 432.685 15.1037 432.738 15.8905C432.827 17.0826 432.467 18.3284 432.202 19.5264C431.978 20.5397 431.577 21.5113 431.342 22.5246C431.071 23.6869 431.719 24.2114 432.726 23.8836C433.504 23.6273 434.241 23.0491 434.836 22.453C435.378 21.9047 435.579 20.9748 436.168 20.5218C436.734 20.0927 437.712 19.7529 438.296 19.9675C438.714 20.1225 439.097 21.3205 438.956 21.9285C438.578 23.6094 437.871 25.2127 437.382 26.8757C436.551 29.7248 435.809 32.6097 434.978 35.4588C434.724 36.3291 434.771 37.0145 435.549 37.545C435.673 37.6285 435.838 37.7 435.891 37.8192C436.262 38.6179 436.934 39.4703 436.84 40.2153C436.787 40.6862 435.573 41.014 434.872 41.4015ZM428.949 32.4667C429.255 33.2594 429.456 33.778 429.656 34.2966C430.098 33.9151 430.693 33.623 430.959 33.1402C431.53 32.109 431.99 31.0064 432.361 29.8858C432.485 29.5043 432.208 28.9857 432.114 28.5327C431.625 28.646 430.87 28.6043 430.687 28.9083C430.004 30.0467 429.497 31.3044 428.949 32.4667Z" fill="white"/>
<path d="M323.291 39.0172C323.291 39.5655 323.273 40.1079 323.297 40.6563C323.385 43.0047 322.442 44.6737 320.221 45.532C319.625 45.7644 319.06 46.0625 318.482 46.3366C317.256 46.9327 316.455 48.5837 317.08 49.5017C317.922 50.7355 319.083 50.1275 319.955 49.5911C321.452 48.6612 322.819 47.5168 324.24 46.4618C324.912 45.9611 325.53 45.3651 326.261 44.9896C326.668 44.775 327.257 44.9181 327.764 44.8942C327.681 45.383 327.752 45.9969 327.487 46.3426C326.65 47.4393 325.707 48.4526 324.776 49.4719C323.373 51.0156 323.538 51.3732 325.377 52.3388C329.42 54.4548 333.409 56.69 337.381 58.949C338.171 59.402 338.843 60.1232 339.45 60.8206C339.715 61.1305 339.892 61.8041 339.739 62.1319C339.574 62.4776 338.902 62.871 338.566 62.7816C337.21 62.4359 335.814 62.0783 334.594 61.4286C330.911 59.4616 327.339 57.2741 323.645 55.331C322.142 54.5383 320.45 54.0793 318.806 53.6084C317.622 53.2687 316.82 53.8409 316.549 55.0985C316.143 56.988 315.783 58.8894 315.288 60.755C315.052 61.6491 314.716 62.6147 314.127 63.2763C313.697 63.7591 312.736 64.0571 312.094 63.9498C311.658 63.8783 311.063 62.9664 311.057 62.418C311.033 60.9994 311.033 59.4914 311.475 58.1682C313.402 52.3984 314.015 46.4737 313.921 40.4298C313.897 38.9993 313.968 37.5271 314.298 36.1502C314.487 35.3634 315.147 34.4217 315.848 34.0879C317.156 33.462 318.63 33.1163 320.073 32.8719C321.753 32.5858 322.643 33.319 323.032 35.0058C323.12 35.3932 323.214 35.7866 323.226 36.18C323.256 37.1218 323.238 38.0635 323.238 39.0053C323.244 39.0172 323.267 39.0172 323.291 39.0172ZM319.236 40.2272C319.03 40.1914 318.83 40.1556 318.624 40.1199C318.152 40.7338 317.575 41.3 317.286 41.9915C317.197 42.206 317.881 42.7604 318.211 43.1538C318.783 42.5637 319.419 42.0213 319.873 41.3477C319.973 41.1987 319.46 40.6146 319.236 40.2272ZM318.665 38.4033C319.372 37.8847 319.867 37.5211 320.356 37.1635C319.885 36.782 319.407 36.0846 318.942 36.0966C318.347 36.1085 317.769 36.6926 317.18 37.0264C317.616 37.4257 318.052 37.837 318.665 38.4033Z" fill="white"/>
<path d="M128.352 43.1419C128.287 36.8894 129.059 30.7978 131.505 24.9804C132.306 23.079 133.55 21.7379 135.436 21.0107C139.054 19.6159 141.971 20.9034 142.761 24.7121C143.433 27.9666 143.592 31.364 143.686 34.7019C143.751 37.0086 143.492 39.357 143.067 41.628C142.702 43.5949 141.818 45.4427 139.72 46.1877C139.166 46.3844 138.247 46.5275 137.928 46.2295C136.084 44.4711 134.457 45.9255 132.766 46.4142C132.631 46.45 132.513 46.5632 132.395 46.6527C131.528 47.3143 130.798 48.5064 129.484 47.7911C128.163 47.0758 128.429 45.6811 128.358 44.4711C128.334 44.036 128.352 43.589 128.352 43.1419ZM132.489 38.9517C132.465 41.3299 133.131 41.7949 135.288 40.7995C136.39 40.2869 137.587 39.7862 138.441 38.9696C139.272 38.1769 139.932 37.0444 140.286 35.9357C140.657 34.7555 139.973 34.1297 138.748 34.3741C137.463 34.6304 136.196 35.0297 134.947 35.4529C133.008 36.1086 132.507 36.8656 132.489 38.9517ZM133.137 29.9633C133.514 30.1183 133.992 30.5057 134.404 30.4402C135.601 30.2554 136.767 29.856 137.958 29.5997C139.696 29.2302 140.079 28.5745 139.419 26.8818C139.225 26.3811 138.972 25.8864 138.653 25.4572C137.746 24.2353 136.673 24.1042 135.495 25.04C134.057 26.1903 133.52 27.8116 133.137 29.9633Z" fill="white"/>
<path d="M264.978 36.478C261.171 36.1621 257.353 35.9178 253.563 35.4826C252.45 35.3575 251.241 34.8926 250.34 34.219C248.619 32.9256 248.99 30.8753 251.047 30.2435C252.632 29.7547 254.3 29.4329 255.95 29.3017C263.576 28.6878 271.201 28.1633 278.833 27.609C279.128 27.5851 279.422 27.603 279.717 27.609C282.286 27.6388 283.217 28.2348 283.477 30.005C283.872 32.6455 282.917 34.6065 280.518 35.0177C277 35.6257 273.417 35.8879 269.858 36.1919C268.249 36.329 266.622 36.2158 265.002 36.2158C264.99 36.3052 264.984 36.3946 264.978 36.478Z" fill="white"/>
<path d="M463.771 48.4104C459.021 48.321 454.425 48.8038 450.082 51.0926C447.312 52.5529 445.279 51.5277 444.713 48.47C444.006 44.6434 444.059 40.787 445.397 37.0438C445.909 35.6133 446.87 34.7729 448.373 34.5106C449.911 34.2424 451.425 33.7 452.969 33.6046C456.116 33.4139 457.943 35.5418 457.43 38.7008C457.218 40.0062 456.735 41.2757 456.346 42.5513C455.863 44.1248 456.11 44.4944 457.772 44.5599C460.854 44.6732 463.936 44.7328 467.012 44.9176C467.761 44.9593 468.598 45.2335 469.193 45.6805C469.653 46.0262 470.053 46.8309 469.994 47.3673C469.947 47.7667 469.128 48.3269 468.615 48.3687C467.007 48.4938 465.386 48.4104 463.771 48.4104ZM451.272 37.5028C450.588 38.2359 449.557 38.8677 449.31 39.732C448.879 41.2102 448.903 42.8314 448.815 44.399C448.797 44.7149 449.062 45.2514 449.31 45.3288C449.569 45.4123 450.135 45.15 450.264 44.8878C451.184 43.0579 452.109 41.2161 452.845 39.3088C453.193 38.4147 452.557 37.8425 451.272 37.5028Z" fill="white"/>
<path d="M304.068 5.04224C304.398 5.24489 304.975 5.57272 305.529 5.93631C306.502 6.57408 307.427 7.30126 308.446 7.86154C309.737 8.57084 309.967 9.3755 309.006 10.5914C308.275 11.5153 307.397 12.3438 306.767 13.3273C305.9 14.6744 306.254 15.634 307.674 16.3135C309.601 17.2374 310.203 18.1612 309.389 20.2057C307.945 23.8177 306.254 27.3344 304.539 30.8332C303.938 32.0551 303.019 33.128 302.152 34.1949C301.563 34.928 300.791 35.1247 299.954 34.4572C299.094 33.7777 299.053 33.0326 299.618 32.1266C300.384 30.9167 301.127 29.6948 301.811 28.4371C302.406 27.3523 302.035 26.6311 300.832 26.3748C300.161 26.2317 299.453 26.2079 298.817 25.9873C298.292 25.8085 297.674 25.5224 297.385 25.0933C296.748 24.1396 297.697 20.2116 298.793 19.7825C301.657 18.65 302.117 16.5281 301.852 13.7624C301.64 11.557 301.817 9.30994 301.828 7.08072C301.84 5.8171 302.512 5.17337 304.068 5.04224Z" fill="white"/>
<path d="M317.557 26.2436C317.875 26.5833 318.37 26.8754 318.476 27.2747C318.723 28.2224 319.048 29.2953 318.824 30.1775C318.7 30.6483 317.498 31.1073 316.791 31.0894C315.877 31.0656 314.869 30.7318 314.08 30.2371C312.648 29.343 312.394 29.3251 311.387 30.7735C309.076 34.0935 306.79 37.4373 304.403 40.6977C303.814 41.5023 302.936 42.1759 302.058 42.6527C301.569 42.915 300.661 42.8613 300.207 42.5454C299.93 42.3547 299.96 41.3057 300.201 40.8229C300.985 39.2851 301.804 37.7294 302.853 36.3704C305.859 32.4722 308.959 28.6337 312.094 24.8429C312.801 23.9905 313.779 23.317 314.728 22.715C316.555 21.5527 318.346 21.4454 320.391 22.5779C322.825 23.9249 325.501 24.8369 328.052 25.9813C330.38 27.0244 332.702 28.0794 334.988 29.2059C335.884 29.647 336.78 30.3265 336.291 31.5245C335.749 32.8418 334.558 32.7643 333.521 32.3292C330.675 31.1311 327.881 29.802 325.047 28.5622C323.114 27.7158 321.163 26.9111 319.207 26.1363C318.747 25.9575 318.211 25.9753 317.71 25.9038C317.663 26.023 317.61 26.1303 317.557 26.2436Z" fill="white"/>
<path d="M467.284 29.1521C467.178 31.2919 465.716 31.9594 464.237 30.9044C462.357 29.5633 460.607 28.0434 458.815 26.5771C457.713 25.6771 456.641 24.7294 455.545 23.8174C454.661 23.0843 453.8 23.1081 452.887 23.8413C451.361 25.0751 449.893 26.452 448.19 27.3818C447.076 27.9898 445.556 28.2401 444.295 28.0672C442.409 27.8169 441.554 26.1539 442.026 24.2823C443.116 19.955 445.479 16.337 448.349 13.023C448.726 12.5879 449.233 12.1468 449.764 12.0037C450.347 11.8368 451.019 12.0037 451.655 12.0276C451.543 12.6534 451.596 13.3925 451.278 13.8873C450.382 15.2999 449.28 16.5814 448.361 17.9761C447.766 18.8762 447.288 19.8656 446.87 20.867C446.681 21.314 446.782 21.8862 446.752 22.4048C447.235 22.2677 447.795 22.2558 448.178 21.9816C449.658 20.9206 451.078 19.7822 452.516 18.6676C454.39 17.2192 455.05 17.3384 456.835 18.9119C458.709 20.569 460.754 22.0352 462.664 23.6565C463.901 24.6996 465.121 25.7903 466.182 27.0122C466.801 27.7156 467.072 28.711 467.284 29.1521Z" fill="white"/>
<path d="M191.556 19.1271C192.121 17.3926 192.658 15.8011 193.159 14.2037C194.384 10.2936 195.598 6.38353 196.812 2.47344C196.93 2.09793 196.948 1.61513 197.195 1.37075C197.578 0.989275 198.121 0.554159 198.592 0.560119C198.904 0.56608 199.376 1.25154 199.482 1.7105C199.718 2.71782 199.794 3.76687 199.883 4.804C200 6.16895 200.761 6.63387 201.992 6.35373C203.283 6.06166 204.556 5.68615 205.829 5.32852C208.003 4.72055 210.154 4.02317 212.352 3.52249C213.478 3.26619 214.692 3.25427 215.847 3.33175C216.926 3.40924 217.839 3.96953 218.033 5.19143C218.234 6.43718 217.65 7.30741 216.566 7.82597C215.947 8.11804 215.299 8.37434 214.633 8.52931C209.577 9.7393 204.509 10.8897 199.464 12.1593C198.739 12.344 197.967 12.9103 197.514 13.5242C196.759 14.5494 196.27 15.7654 195.622 16.874C195.021 17.8933 194.42 18.9244 193.689 19.8483C193.412 20.2 192.711 20.492 192.322 20.3788C191.992 20.2775 191.815 19.5801 191.556 19.1271Z" fill="white"/>
<path d="M94.0664 54.3411C93.147 53.1252 92.269 52.1834 91.6561 51.0926C91.0962 50.0912 90.666 48.9587 90.4539 47.8322C90.2771 46.8845 90.6542 45.7401 91.7563 45.6864C92.5342 45.6507 93.536 46.1394 94.1017 46.7235C95.1153 47.7726 95.8108 49.1197 96.7478 50.2462C97.6141 51.2893 98.6572 51.8258 100.119 51.182C101.203 50.7052 102.04 51.4622 102.004 52.6722C101.999 52.9642 101.922 53.2622 101.839 53.5424C100.107 59.2168 92.3102 61.7977 87.6487 58.2512C85.4506 56.5823 85.0204 54.1206 84.9084 51.635C84.8377 50.133 85.1972 48.5892 85.5331 47.0991C85.645 46.5924 86.2756 46.199 86.6705 45.7579C87.0889 46.2467 87.7135 46.6699 87.8844 47.2362C88.2675 48.5057 88.3618 49.8647 88.6977 51.1522C89.2929 53.4411 90.943 54.7345 93.0233 54.6332C93.2531 54.6272 93.477 54.514 94.0664 54.3411Z" fill="white"/>
<path d="M5.59833 46.5869C6.44694 42.4266 7.29555 38.2602 8.13826 34.0998C8.30327 33.2773 8.48599 32.4488 8.57439 31.6143C8.68046 30.6129 8.19131 30.309 7.33681 30.7977C6.4882 31.2865 5.71622 31.9183 4.85582 32.3832C3.25289 33.2475 1.82675 33.1879 1.20207 32.3176C0.483111 31.3222 0.813114 29.3553 2.1096 28.3182C4.96188 26.0234 8.26204 24.6585 11.8451 24.1101C13.3537 23.8776 14.1139 24.7657 13.5187 25.9876C11.792 29.5281 11.8686 33.3786 11.4148 37.1456C11.0495 40.1914 10.6782 43.2372 10.2834 46.277C10.2127 46.8134 10.0536 47.3439 9.88854 47.8565C9.53496 48.9473 9.03403 49.9844 7.67272 49.7758C6.29962 49.5672 5.96962 48.4526 5.88712 47.2366C5.87533 47.0399 5.88712 46.8432 5.88712 46.6406C5.78694 46.6227 5.69262 46.6048 5.59833 46.5869Z" fill="white"/>
<path d="M331.547 17.0227C330.504 16.6412 329.697 16.4148 328.954 16.0571C327.375 15.3061 326.072 15.5028 324.888 16.8797C324.157 17.732 323.32 18.5367 322.395 19.1566C321.924 19.4665 320.957 19.5857 320.574 19.2996C320.156 18.9897 319.896 18.042 320.038 17.4936C320.28 16.5697 320.816 15.6935 321.358 14.8889C322.018 13.9114 322.165 13.1246 321.075 12.3795C320.05 11.6821 319.938 10.7344 320.409 9.64366C320.545 9.33372 320.739 8.95821 320.674 8.66018C320.256 6.75879 321.405 5.73359 322.802 5.0243C324.322 4.24944 325.931 3.62359 327.552 3.09311C328.795 2.68779 330.009 3.02754 330.905 4.04082C331.771 5.0243 331.553 6.16871 331.099 7.25947C330.698 8.21315 330.251 9.1549 329.773 10.0728C329.266 11.0444 329.485 11.7477 330.386 12.3318C331.129 12.8146 331.936 13.2617 332.496 13.9173C332.95 14.4418 333.439 15.3717 333.262 15.8962C333.067 16.4267 332.095 16.6889 331.547 17.0227ZM322.772 9.07741C322.861 9.25027 322.949 9.42908 323.037 9.60194C323.963 9.72711 324.682 9.50061 325.018 8.61846C324.923 8.44561 324.823 8.26679 324.729 8.09394C324.075 8.4158 323.426 8.74959 322.772 9.07741Z" fill="white"/>
<path d="M91.3026 26.0054C91.0374 26.5061 90.7487 26.9889 90.5188 27.5075C89.5465 29.6711 88.5977 31.8467 87.6194 34.0104C87.3955 34.4991 87.1775 35.1488 86.7709 35.3693C85.9223 35.8283 84.9204 36.3767 84.0424 36.2813C82.8756 36.1502 82.6398 34.9164 82.5632 33.8375C82.5455 33.5514 82.5927 33.2355 82.6928 32.9613C84.119 29.087 85.9281 25.4154 88.527 22.1967C89.2341 21.3205 90.0474 20.7364 91.338 21.2132C92.823 21.7675 94.6027 21.7914 94.6027 24.1041C94.6027 26.9234 94.7147 29.7486 94.7795 32.5679C94.8207 34.3978 94.8679 36.2336 94.8856 38.0635C94.8915 38.5046 94.9327 39.0708 94.6911 39.3509C94.2314 39.8993 93.6009 40.5967 92.9998 40.6384C92.546 40.6682 91.668 39.8039 91.6149 39.2735C91.4087 37.1694 91.3733 35.0356 91.4204 32.9136C91.4676 30.6606 91.668 28.4075 91.8035 26.1545C91.6385 26.1068 91.4735 26.0531 91.3026 26.0054Z" fill="white"/>
<path d="M103.837 12.6119C103.324 14.3524 102.905 16.1346 102.269 17.8274C101.874 18.8705 101.214 20.0805 99.7939 19.6096C98.409 19.1507 98.5858 17.8513 98.7626 16.7009C98.904 15.8187 99.1574 14.9604 99.2812 14.0782C99.4816 12.6239 98.9276 12.0517 97.5368 12.4212C95.0146 13.0888 92.5631 13.8637 90.8482 16.1406C90.2412 16.9453 89.2217 17.6188 88.2611 17.9288C86.8468 18.3818 86.0571 17.5056 86.4401 16.0452C86.8291 14.567 87.3536 13.1126 87.9075 11.6821C88.6854 9.64955 89.5222 7.63488 90.3767 5.63213C90.8069 4.6248 91.5494 3.62939 92.675 4.02278C93.3586 4.26121 94.0246 5.26854 94.2308 6.06129C95.0323 9.10118 94.9615 9.11906 98.079 8.48128C101.739 7.72429 103.619 9.1131 103.837 12.6119Z" fill="white"/>
<path d="M68.4836 23.4124C68.6663 23.0012 68.849 22.1726 69.3322 21.5945C71.3535 19.1805 73.4456 16.8261 75.5612 14.4955C75.903 14.12 76.4629 13.8697 76.9638 13.7504C78.4665 13.3869 79.4861 14.418 78.9203 15.8545C78.5373 16.8261 77.8654 17.8036 77.0699 18.4592C75.4846 19.7527 75.1546 21.3322 75.4021 23.2277C75.7321 25.7847 76.2095 28.3477 76.2272 30.9107C76.2448 33.3009 75.791 35.697 75.4669 38.0872C75.3962 38.5938 75.0603 39.1064 74.7303 39.5177C73.7933 40.6979 72.3082 40.5846 71.825 39.166C71.4007 37.9024 71.1708 36.4719 71.2769 35.1546C71.5009 32.3472 72.0843 29.5696 72.3554 26.7622C72.5263 24.9681 72.2139 24.8012 70.4873 25.1767C69.2202 25.4509 68.4482 24.9145 68.4836 23.4124Z" fill="white"/>
<path d="M26.1361 10.86C25.4466 12.1236 24.9634 13.1429 24.3623 14.0846C23.714 15.0979 23.6669 15.843 24.6098 16.8026C25.4407 17.655 26.1125 18.8053 26.4602 19.9438C26.6724 20.6352 26.3895 21.8213 25.8827 22.2982C25.4643 22.6916 24.3858 22.4174 23.6079 22.3339C23.3074 22.2982 23.0245 21.9882 22.7535 21.7737C21.0326 20.3729 21.0444 20.3789 19.7303 22.2922C19.1704 23.1028 18.6695 24.0446 17.9093 24.5989C17.2964 25.046 16.2356 25.3142 15.5755 25.0817C15.1748 24.9387 14.7741 23.5022 15.0275 22.9717C17.1903 18.4894 19.4415 14.0429 21.8518 9.68577C22.1818 9.08376 23.6079 8.69633 24.3799 8.87515C25.0518 9.02416 25.5173 10.109 26.1361 10.86Z" fill="white"/>
<path d="M37.8984 11.4318C38.8649 11.1815 39.8314 10.9132 40.8038 10.6808C42.059 10.3768 43.161 10.6033 43.8917 11.7775C44.5636 12.8624 44.2748 13.8458 43.0903 14.281C40.0023 15.4194 36.8966 16.5102 33.791 17.5831C32.7125 17.9527 31.6636 17.9587 30.8503 16.9334C30.0724 15.944 30.538 15.0201 31.0684 14.1916C32.2647 12.3199 33.5375 10.496 34.8046 8.67206C35.0521 8.31442 35.388 7.89122 35.7592 7.77797C36.4546 7.56339 37.2089 7.55743 37.9397 7.46802C37.9986 8.15945 38.1401 8.85087 38.0929 9.53038C38.0576 10.037 37.7806 10.5318 37.6097 11.0325C37.704 11.1695 37.8041 11.3007 37.8984 11.4318Z" fill="white"/>
<path d="M3.671 22.4941C2.95793 21.8981 2.05627 21.4034 1.52 20.6464C0.877649 19.7285 1.03087 18.59 1.89127 17.8032C4.73764 15.1925 8.02599 13.3746 11.8565 12.856C12.5696 12.7607 13.7364 13.3746 14.0723 14.0004C14.3257 14.4713 13.8072 15.7588 13.2532 16.2118C11.061 18.0178 8.73906 19.6748 6.41128 21.302C5.71589 21.7968 4.82605 22.0113 3.671 22.4941Z" fill="white"/>
<path d="M99.2817 23.46C100.407 23.901 101.527 24.1812 102.482 24.7474C105.428 26.4998 108.369 28.2701 111.186 30.2251C112.123 30.8808 112.895 32.0252 113.307 33.1159C113.567 33.7954 113.26 35.071 112.736 35.5419C112.364 35.8756 111.156 35.4048 110.408 35.0948C109.901 34.8802 109.577 34.2663 109.117 33.9087C106.183 31.6199 103.23 29.3549 100.284 27.0839C99.6647 26.6071 98.9399 26.2316 98.4272 25.6594C98.1325 25.3316 97.9793 24.6401 98.1089 24.2289C98.2091 23.8891 98.8397 23.7222 99.2817 23.46Z" fill="white"/>
<path d="M74.542 55.9985C75.2197 54.3117 75.6734 52.7799 76.4278 51.4209C77.4237 49.6149 78.6082 47.9042 79.8104 46.2234C80.4174 45.377 81.3426 44.8465 82.3621 45.526C83.3168 46.1638 83.6763 47.2307 83.2048 48.2738C81.8553 51.2302 80.4528 54.1687 78.9382 57.0416C78.2605 58.3291 76.8992 58.7582 75.9799 58.0609C75.3552 57.5959 75.0252 56.7317 74.542 55.9985Z" fill="white"/>
<path d="M137.428 10.0725C137.652 10.2454 138.459 10.5672 138.736 11.1513C139.202 12.1348 138.589 12.8799 137.723 13.4819C135.389 15.0971 133.055 16.7124 130.816 18.4588C130.038 19.0668 129.584 20.092 128.912 20.8668C128.594 21.2364 128.046 21.7728 127.722 21.6953C127.256 21.588 126.797 21.0516 126.526 20.5867C126.331 20.247 126.367 19.7165 126.425 19.2873C126.92 15.8005 133.409 10.1023 137.428 10.0725Z" fill="white"/>
<path d="M109.883 49.3401C109.694 50.2341 109.712 50.7944 109.464 51.1759C109.034 51.8375 108.474 52.8329 107.903 52.8806C107.231 52.9343 106.217 52.2965 105.834 51.6647C104.279 49.0778 102.652 46.5923 100.354 44.5776C99.9117 44.1902 99.9766 43.2126 99.8057 42.5033C100.483 42.5033 101.314 42.247 101.803 42.551C104.125 43.9875 106.418 45.4955 108.586 47.1585C109.282 47.6771 109.553 48.7559 109.883 49.3401Z" fill="white"/>
</svg>
