<svg width="32" height="34" viewBox="0 0 32 34" fill="none" xmlns="http://www.w3.org/2000/svg">
<path d="M11.3267 2.42777C10.8936 2.75572 10.543 2.92789 10.3203 3.19845C7.6309 6.49844 5.27564 9.9911 4.25682 14.1929C3.88971 15.7179 3.76184 17.2757 4.32282 18.8129C4.73117 19.9362 5.2344 20.26 6.23672 19.6779C7.46591 18.9646 8.60023 18.0791 9.7428 17.2224C10.015 17.0215 10.1553 16.6485 10.543 16.0787C9.65618 16.1442 9.07046 16.177 8.48474 16.2303C7.1813 16.3492 6.48834 16.0131 6.34809 15.1809C6.1831 14.1765 6.77707 13.3362 7.95264 13.0574C9.34682 12.7295 10.7493 12.4261 12.1641 12.2171C14.1687 11.9178 14.9772 12.6311 14.9607 14.6603C14.9483 16.3246 14.8823 17.9931 14.7668 19.6574C14.5441 22.8795 14.3296 26.1016 13.979 29.3114C13.8717 30.2911 13.4262 31.2627 12.9849 32.1646C12.5642 33.0213 11.7928 33.505 10.7781 33.2099C9.80467 32.927 9.39632 32.1359 9.52831 31.2299C9.82942 29.1556 10.2584 27.1018 10.6296 25.0358C10.84 23.8551 11.038 22.6745 11.2855 21.2316C10.2337 22.0186 9.52006 22.7278 8.65798 23.1542C7.64328 23.6625 6.52133 24.1708 5.41176 24.2528C2.39653 24.4823 0.420755 22.445 0.078397 19.0466C-0.321709 15.0907 0.866234 11.4546 2.35529 7.88812C3.29162 5.64167 4.54968 3.57559 6.30684 1.85386C7.57728 0.611749 9.09933 -0.089242 10.9225 0.00914277C12.2301 0.078832 13.2654 0.857711 13.5129 1.94814C13.5335 2.04653 13.5706 2.14491 13.5706 2.2433C13.5459 2.98938 13.3108 3.56739 12.4652 3.72317C11.5783 3.88714 11.4216 3.31733 11.3267 2.42777Z" fill="white"/>
<path d="M21.0244 17.2715C21.3791 15.4514 21.6143 13.5903 22.1257 11.8112C22.9672 8.88014 24.7491 7.8758 27.5169 8.544C30.3753 9.22859 32.0706 11.4627 31.423 14.1765C30.8621 16.5378 30.0495 18.8703 29.0678 21.0922C28.0613 23.3714 26.2217 23.9453 23.7674 23.3386C22.794 23.1008 22.0886 22.4818 21.8494 21.5267C21.5111 20.1534 21.3049 18.7473 21.0244 17.2715ZM27.6282 14.775C27.6076 14.6275 27.6282 14.197 27.4839 13.8281C27.3436 13.4632 27.0425 12.8934 26.8074 12.8893C26.3743 12.8852 25.6648 13.1312 25.5411 13.4468C24.8605 15.2506 24.3284 17.1117 24.7409 19.0712C24.7986 19.3499 25.0667 19.6984 25.3183 19.7886C25.4875 19.85 25.8834 19.5713 26.0402 19.3499C26.9641 18.0627 27.6489 16.673 27.6282 14.775Z" fill="white"/>
</svg>
