<svg width="570" height="226" viewBox="0 0 570 226" fill="none" xmlns="http://www.w3.org/2000/svg">
<path d="M231.079 159.69C235.027 161.859 236.156 164.633 234.876 168.821C234.405 170.368 233.862 171.906 233.276 173.418C232.724 174.849 232.066 176.245 231.355 177.899C233.124 177.801 234.716 177.748 236.298 177.614C238.361 177.436 240.13 177.988 241.411 179.65C243.847 182.806 247.181 184.665 250.764 186.149C255.778 188.221 260.562 190.666 264.527 194.48C266.376 196.258 268.119 198.152 268.083 200.855C268.066 201.975 267.514 203.478 266.679 204.056C266.03 204.509 264.376 204.1 263.514 203.54C261.664 202.34 260.099 200.722 258.321 199.397C253.947 196.161 249.519 193.004 245.545 190.133C242.371 194.356 239.553 198.01 236.876 201.753C236.316 202.535 236.272 203.682 236.014 204.669C235.792 205.523 235.738 206.439 235.392 207.239C234.609 209.052 232.911 209.266 232.137 207.488C231.168 205.256 229.675 205.025 227.621 205.194C226.403 205.292 225.114 205.034 223.94 204.66C223.407 204.491 222.775 203.682 222.731 203.131C222.686 202.535 223.238 201.86 223.638 201.3C223.824 201.042 224.278 200.962 224.625 200.837C228.892 199.299 228.981 199.281 227.852 194.943C227.185 192.391 226.189 189.928 225.398 187.608C223.816 187.279 222.349 186.967 221.042 186.692C221.273 190.568 221.691 194.605 221.691 198.632C221.691 200.597 221.531 202.873 218.943 203.647C216.73 204.305 215.28 203.638 215.183 201.353C215.022 197.459 215.191 193.556 215.307 189.652C215.343 188.337 215.547 187.003 215.814 185.714C216.436 182.718 217.512 182.344 220.17 184.291C222.802 178.681 226.919 173.844 228.679 167.292C227.488 167.559 226.723 167.692 225.985 167.905C224.642 168.297 223.318 169.043 221.966 169.088C220.704 169.123 219.006 168.803 218.268 167.968C217.619 167.23 217.592 165.354 218.072 164.34C219.423 161.477 221.202 158.819 222.749 156.045C224.145 153.529 225.603 151.03 226.758 148.408C227.799 146.06 227.167 145.225 224.642 145.26C221.54 145.313 218.934 146.469 217.77 149.546C215.325 156.027 213.066 162.589 210.639 169.088C206.745 179.526 202.78 189.937 198.832 200.357C198.699 200.704 198.539 201.033 198.405 201.38C197.739 203.033 196.894 204.563 194.742 204.109C193 203.745 191.871 201.949 192.466 199.673C194.129 193.333 195.747 186.959 197.979 180.806C201.322 171.586 205.18 162.544 208.808 153.431C209.101 152.693 209.323 151.919 209.67 150.888C208.683 151.146 207.847 151.662 207.207 151.475C206.078 151.164 204.513 150.648 204.176 149.795C203.855 149.003 204.611 147.358 205.394 146.647C206.496 145.642 208.07 145.145 209.448 144.433C210.47 143.909 211.493 143.384 212.782 142.717C207.936 140.077 206.976 135.285 205.011 131.168C204.407 129.906 204.798 128.652 206.176 127.994C207.59 127.318 208.977 127.034 210.115 128.59C211.893 131.026 213.724 133.426 215.823 136.236C216.534 133.702 217.13 131.568 217.725 129.425C218.534 126.518 219.806 125.371 221.628 125.914C223.611 126.5 224.429 128.616 223.593 131.293C223.131 132.768 222.438 134.164 221.94 135.631C221.62 136.574 221.451 137.561 221.175 138.663C223.496 138.201 225.478 137.543 227.479 137.445C232.315 137.223 235.436 140.29 235.525 145.145C235.605 149.306 234.236 153.12 232.511 156.827C232.075 157.743 231.595 158.659 231.079 159.69ZM234.182 193.787C236.325 191.039 236.69 188.177 236.201 184.549C233.862 184.931 231.657 185.287 229.301 185.669C231.088 188.639 232.564 191.093 234.182 193.787Z" fill="#262626"/>
<path d="M295.868 175.125C294.525 175.783 293.512 176.343 292.445 176.778C290.018 177.756 287.919 176.547 288.088 173.942C288.231 171.711 289.013 169.506 289.662 167.336C290.018 166.145 290.169 165.22 289.297 164.091C287.99 162.393 288.346 161.113 290.275 160.161C291.92 159.343 293.69 158.783 295.388 158.063C297.175 157.307 298.402 152.302 297.13 150.87C296.828 150.532 296.232 150.426 295.752 150.292C295.112 150.123 294.445 150.052 293.805 149.892C292 149.448 290.987 148.319 291.022 146.416C291.058 144.407 292.311 143.518 294.116 143.295C298.811 142.717 303.514 142.139 308.217 141.677C310.858 141.419 313.534 141.224 316.184 141.304C317.179 141.339 318.78 142.051 318.984 142.78C319.278 143.82 318.949 145.607 318.184 146.274C315.561 148.576 316.13 151.813 315.294 154.622C315.197 154.951 316.024 155.751 316.575 156.009C317.135 156.267 317.882 156.125 318.549 156.151C323.127 156.392 324.879 158.632 324.159 163.158C323.91 164.722 324.141 166.376 323.803 167.914C323.51 169.248 322.798 170.519 322.087 171.711C321.785 172.217 321.047 172.582 320.433 172.778C315.837 174.28 314.761 177.828 314.672 182.149C314.619 184.691 314.156 187.243 313.765 189.768C313.596 190.888 313.827 191.502 315.046 191.493C316.824 191.484 318.611 191.617 320.371 191.448C329.493 190.55 338.295 192.418 347.088 194.4C349.018 194.836 350.974 195.423 352.725 196.312C353.517 196.712 354.326 198.099 354.246 198.952C354.103 200.402 352.885 200.997 351.285 200.873C345.995 200.473 340.678 199.753 335.397 199.93C324.692 200.295 314.005 201.166 303.31 201.824C298.891 204.18 294.481 203.54 289.893 202.153C287.546 201.442 284.905 201.735 282.398 201.486C281.376 201.388 280.238 201.282 279.42 200.766C278.664 200.286 277.873 199.264 277.846 198.454C277.828 197.832 278.904 196.747 279.624 196.623C282.087 196.178 284.603 196.001 287.11 195.832C292.943 195.44 292.943 195.467 293.876 189.75C294.534 185.678 295.219 181.615 295.859 177.543C295.948 176.912 295.868 176.245 295.868 175.125ZM293.698 169.808C294.828 169.355 295.583 169.061 296.33 168.75C299.842 167.292 301.736 168.288 302.136 172.093C302.394 174.565 302.349 177.09 302.278 179.579C302.163 183.633 301.86 187.679 301.78 191.733C301.771 192.355 302.474 193.467 302.963 193.538C305.701 193.911 307.586 192.275 307.986 189.484C308.368 186.861 308.857 184.256 309.151 181.624C309.453 178.93 310.476 176.129 307.719 173.844C307.204 173.418 307.435 171.648 307.817 170.706C308.093 170.03 309.16 169.621 309.942 169.221C312.707 167.825 315.517 166.501 318.291 165.122C319.9 164.322 319.882 162.82 319.402 161.504C319.26 161.113 317.784 160.988 316.966 161.095C315.508 161.29 314.103 161.806 312.654 162.091C309.933 162.615 308.466 161.255 308.929 158.534C309.222 156.801 309.862 155.129 310.271 153.404C310.582 152.097 310.787 150.772 311.134 148.941C309.24 149.43 307.915 149.857 306.564 150.088C304.314 150.479 303.718 151.822 303.967 153.911C304.199 155.814 304.359 157.734 304.35 159.655C304.341 162.34 300.998 165.016 298.775 164.118C297.255 163.504 295.823 163.335 294.694 164.553C293.414 165.923 293.334 167.665 293.698 169.808Z" fill="#262626"/>
<path d="M520.407 178.565C519.572 178.823 518.754 179.134 517.909 179.339C516.131 179.748 514.264 178.797 513.739 177.223C513.152 175.454 513.766 174.049 515.455 173.444C519.687 171.933 523.928 170.395 528.267 169.31C529.529 168.999 531.628 169.781 532.526 170.795C533.673 172.084 532.543 173.747 531.45 174.911C529.707 176.769 529.618 178.645 531.059 180.699C531.654 181.544 532.214 182.433 532.632 183.366C536.162 191.342 543.026 194.791 550.939 196.623C553.473 197.21 556.193 196.97 559.376 197.13C556.842 192.577 558.007 188.176 557.785 183.9C557.678 181.926 556.993 180.779 555.046 180.192C552.797 179.508 550.601 178.619 548.44 177.667C546.609 176.858 545.711 175.338 546.253 173.338C546.804 171.302 548.512 171.204 550.21 171.506C551.943 171.817 553.642 172.351 555.375 172.644C556.015 172.751 557.287 172.546 557.322 172.333C557.554 170.981 557.642 169.568 557.474 168.216C557.429 167.834 556.371 167.327 555.767 167.309C554.522 167.274 553.25 167.71 552.023 167.612C551.125 167.532 550.272 166.901 549.401 166.518C549.854 165.602 550.094 164.402 550.823 163.824C551.766 163.077 553.073 162.713 554.282 162.402C556.54 161.806 558.114 160.597 558.78 158.294C558.985 157.592 559.252 156.827 559.741 156.32C560.292 155.742 561.163 155.049 561.812 155.12C562.328 155.182 563.022 156.276 563.11 156.978C563.262 158.179 563.697 158.694 564.889 158.73C565.627 158.748 566.427 158.783 567.067 159.085C567.911 159.485 569.174 160.09 569.272 160.739C569.405 161.717 568.729 162.837 568.294 163.86C568.178 164.135 567.707 164.278 567.387 164.456C563.511 166.678 563.457 166.883 564.151 171.426C565.084 177.543 566.444 183.642 565.671 189.892C565.431 191.848 564.96 193.778 564.577 195.858C564.782 195.903 565.253 195.903 565.591 196.116C566.507 196.694 568 197.29 568.08 198.019C568.196 199.006 567.467 200.739 566.658 201.068C563.066 202.526 559.358 204.474 555.624 204.651C541.274 205.318 532.41 198.81 527.858 185.1C527.636 184.424 527.369 183.758 526.933 182.557C526.098 184.104 525.404 185.189 524.888 186.354C522.852 191.03 520.905 195.734 518.869 200.41C517.509 203.531 515.339 204.971 513.215 204.296C511.321 203.691 510.325 201.024 511.525 197.885C512.992 194.044 514.966 190.399 516.807 186.709C518.113 184.087 519.563 181.544 520.95 178.965C520.754 178.832 520.585 178.699 520.407 178.565Z" fill="#262626"/>
<path d="M23.4498 157.165C24.6412 156.667 25.8859 156.276 26.9973 155.645C29.8957 154.018 32.7497 152.302 35.6126 150.604C37.9776 149.199 39.658 149.083 41.3828 151.057C44.459 154.569 48.5489 156.134 52.6831 157.778C57.5554 159.717 62.4543 161.637 66.2418 165.522C68.3756 167.71 69.6381 170.288 69.2825 173.302C69.1313 174.573 68.2067 176.165 67.1487 176.787C66.4107 177.214 64.4636 176.601 63.7168 175.818C58.4356 170.252 51.7496 166.998 44.9125 163.913C42.6986 162.909 40.5559 161.682 38.5377 160.33C36.8484 159.192 35.4081 159.254 33.8966 160.464C29.3356 164.127 24.819 167.825 20.2224 171.435C17.4929 173.578 14.7278 175.703 11.8116 177.579C10.229 178.592 8.35303 179.268 6.5215 179.739C4.20097 180.335 2.32499 179.232 0.929115 177.401C-0.37785 175.676 -0.164468 173.818 0.697951 171.968C0.88466 171.568 1.12471 171.195 1.39144 170.839C8.65532 161.228 15.9281 151.626 23.2098 142.033C23.7877 141.268 24.4545 140.566 25.0946 139.854C27.1573 137.552 29.4423 136.894 31.0604 138.13C32.4563 139.196 32.7319 142.708 31.5139 144.744C31.1049 145.438 30.5181 146.025 30.0291 146.674C27.6196 149.919 25.228 153.164 22.8274 156.409C23.0497 156.658 23.2542 156.907 23.4498 157.165Z" fill="#262626"/>
<path d="M279.25 29.9714C278.708 29.8203 278.619 29.767 278.574 29.7847C276.903 30.4693 275 31.3051 273.889 29.2424C272.822 27.2597 274.556 25.8905 275.836 24.7792C277.668 23.1788 279.615 21.6495 281.74 20.4937C283.536 19.5068 284.078 18.3155 283.864 16.4128C283.704 15.0258 283.571 13.5499 283.864 12.2252C284.122 11.096 284.789 9.83352 285.678 9.13114C287.154 7.95754 288.879 8.78439 289.421 10.6515C289.546 11.0694 289.564 11.5228 289.635 11.9584C290.195 15.4081 290.195 15.4081 293.778 14.9814C297.414 14.5457 299.868 17.0263 299.344 20.716C298.481 26.833 297.601 32.9588 296.632 39.058C296.436 40.2671 295.974 41.5474 295.263 42.5254C294.685 43.3256 293.573 44.2058 292.684 44.2236C290.897 44.2592 289.786 45.1394 289.172 46.473C287.394 50.3405 285.465 54.1992 284.247 58.2535C281.642 66.9399 279.455 75.7508 277.09 84.4995C276.796 85.5664 276.672 86.7844 276.04 87.6202C275.436 88.4292 274.271 89.3272 273.391 89.2828C272.68 89.2472 271.524 87.9313 271.444 87.0956C271.213 84.4639 271.017 81.7255 271.479 79.1382C273.089 70.1406 274.974 61.2052 276.761 52.2432C276.832 51.8787 277.152 51.4252 277.018 51.1941C275.125 47.8066 277.454 44.757 277.694 41.5474C277.765 40.6494 277.703 39.5647 277.267 38.8268C276.218 37.0575 276.432 35.5105 277.419 33.839C278.112 32.6654 278.601 31.3673 279.25 29.9714ZM291.2 24.6814C288.221 24.4946 284.505 26.5396 283.758 28.8245C284.398 28.6912 284.949 28.5489 285.509 28.46C286.158 28.3533 286.816 28.2466 287.465 28.2199C289.857 28.1399 290.719 27.3664 291.2 24.6814ZM289.039 35.7683C288.817 35.3949 288.594 35.0126 288.381 34.6392C286.932 35.2704 285.234 35.6261 284.122 36.6307C283.402 37.2798 283.527 38.8801 283.269 40.0449C283.536 40.1604 283.793 40.2671 284.06 40.3827C285.714 38.8446 287.376 37.3065 289.039 35.7683Z" fill="#262626"/>
<path d="M346.225 39.0314C343.958 40.0894 342.118 40.9963 340.251 41.8143C337.379 43.0768 334.961 41.4408 335.565 38.3646C335.956 36.3463 336.908 34.2481 338.179 32.6388C340.277 29.9893 342.829 27.6866 345.23 25.286C346.75 23.7657 347.755 19.0713 346.723 17.2753C346.474 16.8397 345.71 16.5552 345.15 16.4929C344.518 16.4218 343.843 16.8041 343.194 16.7863C341.611 16.7508 339.806 17.0619 339.246 14.8748C338.588 12.3231 339.299 10.7138 341.593 9.91364C342.838 9.48688 344.163 9.2735 345.47 9.04233C347.248 8.74004 348.27 7.93097 348.11 5.9394C348.03 4.92584 348.217 3.87671 348.377 2.86315C348.617 1.3428 349.817 0.889362 351.009 1.26278C351.56 1.4406 351.862 2.60531 352.147 3.36993C352.289 3.75224 352.013 4.29458 352.156 4.67689C352.449 5.47708 352.885 6.22391 353.267 6.99742C354.138 6.45508 355.339 6.11722 355.792 5.33482C356.432 4.23235 356.352 2.73867 356.886 1.54729C357.206 0.844908 358.148 -0.0175113 358.788 0.000270504C359.402 0.0180523 360.442 1.01384 360.522 1.67176C360.806 3.97451 362.087 4.89028 364.203 5.43262C369.057 6.66846 370.133 10.047 367.057 14.1635C365.91 15.7016 364.523 17.0619 363.411 18.6267C362.745 19.5603 362.176 20.6894 361.971 21.8008C361.322 25.3572 362.665 26.5397 365.91 25.2149C369.573 23.7123 373.236 23.6323 376.979 24.6726C379.628 25.4105 380.482 26.8064 379.886 29.4737C378.846 34.1147 375.281 36.5064 371.493 38.6313C371.138 38.8269 370.089 38.4624 369.884 38.0801C369.662 37.6711 369.884 36.7642 370.24 36.373C371.467 34.9949 372.934 33.8302 374.125 32.4254C374.721 31.7231 374.907 30.6739 375.281 29.776C374.321 29.607 373.298 29.118 372.418 29.3136C369.617 29.9449 366.861 30.7895 364.105 31.6164C362.513 32.0965 362.042 33.2879 362.078 34.8882C362.096 35.9551 362.096 37.2265 361.562 38.0712C360.522 39.716 358.228 38.9869 357.197 36.9509C356.681 35.9285 355.845 34.337 355.107 34.3103C353.294 34.257 352.902 36.0529 352.796 37.5288C352.609 40.0272 352.636 42.5344 352.565 45.0417C352.538 45.8507 352.716 46.7576 352.405 47.4511C352.067 48.2335 351.249 49.3982 350.706 49.3626C349.799 49.3004 348.466 48.6158 348.164 47.8601C347.434 46.0463 347.186 44.0281 346.768 42.0899C346.59 41.2363 346.465 40.3828 346.225 39.0314ZM353.32 28.8157C354.129 28.6024 354.965 28.629 355.152 28.2912C355.632 27.4288 355.943 26.4152 356.041 25.4372C356.068 25.1438 355.161 24.7615 354.681 24.4236C354.227 25.1705 353.658 25.8817 353.356 26.6908C353.151 27.242 353.32 27.9355 353.32 28.8157ZM352.298 17.2486C354.814 17.3465 355.783 16.3507 355.436 14.6436C355.339 14.1635 354.138 13.9146 353.436 13.5589C353.054 14.7859 352.68 16.0217 352.298 17.2486ZM361.153 13.7723C363.456 13.6923 364.043 12.7054 363.634 11.2828C363.545 10.9628 362.754 10.8472 362.282 10.6338C361.909 11.674 361.527 12.7232 361.153 13.7723ZM345.621 29.9716C344.874 31.074 344.127 32.1765 343.38 33.2701C345.336 33.0567 346.599 32.3276 345.621 29.9716Z" fill="#262626"/>
<path d="M367.848 59.6049C367.617 64.2816 367.439 67.4467 367.306 70.6208C367.181 73.5726 366.435 76.2399 364.496 78.596C363.261 80.0896 363.643 80.9698 365.714 81.5566C368.622 82.3924 371.618 82.9169 374.525 83.7705C380.651 85.5664 386.564 87.8692 391.676 91.8345C393.063 92.9103 394.21 94.0484 393.81 96.0755C393.419 98.1115 392.209 99.1873 390.218 98.6183C387.524 97.8537 384.857 96.9379 382.287 95.8443C375.148 92.8125 368.044 89.6918 360.976 86.5C359.677 85.9132 358.895 86.1799 358.166 87.1846C357.037 88.7405 355.97 90.332 354.796 91.8612C353.898 93.0259 352.974 94.1906 351.925 95.2131C350.929 96.1822 349.702 96.8579 348.368 95.7732C347.061 94.7152 346.306 93.3193 347.168 91.6834C348.466 89.2028 349.871 86.7667 351.347 84.3839C352.405 82.6769 353.312 81.1476 351.631 79.2361C351.133 78.676 351.098 77.5468 351.151 76.6933C351.48 71.3143 351.845 65.9353 352.28 60.5652C352.591 56.7421 353.054 52.9368 353.401 49.1226C353.543 47.6289 353.97 46.4908 355.57 45.8863C356.495 45.5395 357.224 44.6682 358.059 44.0547C362.007 41.1474 365.812 42.3921 366.621 47.1932C367.395 51.7721 367.555 56.4487 367.848 59.6049ZM361.465 49.2026C359.615 49.9139 357.357 52.1633 357.215 53.6125C357.152 54.2348 357.837 55.5151 358.104 55.4885C359.366 55.3818 360.736 55.1506 361.776 54.5105C362.318 54.1726 362.496 52.8745 362.443 52.0299C362.38 51.1319 361.856 50.2606 361.465 49.2026ZM361.5 65.5174C361.616 63.9437 361.82 62.5567 361.776 61.1698C361.758 60.7252 361.127 59.9339 360.744 59.9161C357.73 59.7828 355.97 62.7879 357.393 65.5174C358.637 65.5174 359.882 65.5174 361.5 65.5174ZM356.557 71.9811C356.672 72.2834 356.788 72.5946 356.904 72.8969C358.353 72.6924 359.855 72.6301 361.216 72.1589C361.5 72.0611 361.26 70.4341 361.26 69.5183C361.02 69.4294 360.789 69.3405 360.549 69.2516C359.215 70.1585 357.89 71.0653 356.557 71.9811Z" fill="#262626"/>
<path d="M458.793 187.581C471.676 188.345 483.652 191.324 495.717 193.715C496.678 193.902 497.824 194.284 498.411 194.969C499.798 196.596 498.687 199.361 496.473 199.406C492.437 199.486 488.356 199.361 484.364 198.792C477.873 197.876 471.454 196.454 464.981 195.414C462.447 195.005 459.834 195.049 457.255 194.916C454.97 194.8 452.632 194.987 450.418 194.551C446.871 193.858 445.982 190.95 448.453 188.336C450.792 185.874 453.343 183.607 455.815 181.277C459.042 178.236 462.296 175.222 465.533 172.182C466.057 171.693 466.502 171.115 467.346 170.181C464.146 170.91 461.478 171.577 458.776 172.093C457.869 172.262 456.846 172.199 455.957 171.959C454.081 171.462 453.45 169.612 454.792 168.207C455.833 167.114 457.157 166.091 458.553 165.576C463.532 163.753 468.564 162.082 473.632 160.526C475.606 159.921 477.491 160.686 478.807 162.268C480.105 163.824 479.518 165.558 478.576 167.016C477.464 168.741 476.246 170.466 474.797 171.897C470.28 176.369 465.613 180.69 461.025 185.091C460.314 185.803 459.691 186.594 458.793 187.581Z" fill="#262626"/>
<path d="M171.884 53.0079C169.803 53.7458 168.105 54.4393 166.362 54.9372C164.62 55.4351 162.486 55.7641 161.632 53.8792C160.699 51.8254 162.842 50.9897 164.255 50.1539C166.033 49.1048 167.883 48.1623 169.768 47.2999C172.373 46.0997 174.062 44.3126 174.444 41.3519C174.666 39.6182 175.173 37.92 175.564 36.1863C172.479 35.8662 170.292 37.1109 169.03 39.8049C168.594 40.7384 168.443 41.9209 167.767 42.6055C167.1 43.2901 165.882 43.8858 165.011 43.7702C164.389 43.6902 163.384 42.3032 163.473 41.6186C164.095 36.5953 164.913 31.5897 165.767 26.593C166.06 24.8593 166.398 23.0722 167.109 21.4896C167.536 20.5383 168.736 19.9248 169.59 19.1691C170.301 20.1026 171.448 20.9561 171.635 21.9786C171.981 23.8368 171.741 25.8017 171.768 27.7221C171.777 28.1489 171.884 28.5846 171.946 29.0024C174.8 29.0291 176.338 27.6777 177.04 24.5125C177.28 23.4367 177.254 22.2631 177.672 21.2762C177.956 20.5827 178.73 19.7914 179.396 19.6759C179.877 19.5958 180.623 20.4849 181.077 21.0806C181.352 21.4451 181.379 22.0675 181.388 22.5743C181.424 25.0104 181.824 27.0642 184.793 27.6866C185.424 27.8199 186.18 29.278 186.162 30.1138C186.127 31.6964 185.798 33.3679 183.957 34.1058C181.939 34.9149 180.872 37.5199 181.85 39.4404C182.055 39.8405 182.864 40.0805 183.415 40.125C184.126 40.1783 184.953 39.716 185.576 39.9294C186.465 40.2405 187.576 40.7918 187.905 41.5475C188.145 42.0987 187.496 43.379 186.883 43.9036C185.371 45.1928 183.442 46.0196 182.073 47.4244C180.863 48.6602 179.77 50.3228 179.361 51.9677C177.476 59.5427 175.867 67.18 174.124 74.7906C173.857 75.9376 173.422 77.0489 172.986 78.1425C172.497 79.3517 171.839 80.4275 170.239 80.2052C168.541 79.974 167.785 78.7827 167.714 77.2979C167.607 75.0929 167.474 72.8169 167.883 70.6742C168.772 65.9709 169.981 61.3298 171.066 56.6621C171.306 55.524 171.564 54.4038 171.884 53.0079Z" fill="#262626"/>
<path d="M202.602 28.3979C203.677 27.9711 204.762 27.5622 205.829 27.1176C210.648 25.0994 215.653 23.9613 220.872 23.7124C224.242 23.5524 225.718 24.5926 226.198 27.9445C228.51 44.1615 227.016 59.9073 219.797 74.7996C218.676 77.1201 216.889 79.2629 214.987 81.0144C212.968 82.8815 210.185 82.6681 208.576 80.8899C207.989 80.2409 207.998 79.0673 207.732 78.1337C208.487 78.0448 209.261 78.0359 209.99 77.8492C210.621 77.6803 211.439 77.4758 211.768 77.0046C212.639 75.7332 213.368 74.3551 214.009 72.9503C218.827 62.3701 219.903 51.1142 220.037 39.6805C220.063 37.5378 220.117 35.3951 220.063 33.2524C220.001 30.6295 219.174 30.0605 216.605 30.4517C211.572 31.2252 206.522 31.8565 201.508 32.6922C200.69 32.8256 199.792 33.5724 199.285 34.2837C198.307 35.6529 197.765 37.36 196.689 38.6314C195.942 39.5204 194.537 40.534 193.568 40.4095C191.826 40.1873 191.435 38.3468 191.808 36.8798C192.813 32.9767 193.915 29.0825 195.293 25.3039C195.898 23.6235 197.116 22.1031 198.289 20.7162C199.57 19.2136 201.375 18.8313 203.073 19.9426C204.824 21.0807 204.255 22.7611 203.615 24.317C203.126 25.5173 202.61 26.7086 202.104 27.9089C202.273 28.0778 202.441 28.2379 202.602 28.3979Z" fill="#262626"/>
<path d="M46.7438 193.164C48.3798 193.333 49.8734 193.333 51.2782 193.689C52.4073 193.973 54.1589 194.507 54.3367 195.236C54.6301 196.463 54.31 198.285 53.5098 199.246C51.3493 201.851 48.1219 202.686 44.939 203.531C42.4673 204.18 40.0134 204.963 37.6484 205.914C34.3677 207.23 31.1936 208.821 27.9306 210.181C26.5881 210.742 25.5212 211.302 24.8988 212.795C24.5432 213.649 23.3074 214.787 22.605 214.698C21.6892 214.591 20.3556 213.498 20.1778 212.627C19.422 209.035 18.8708 205.38 18.5685 201.726C18.2929 198.348 18.3374 194.925 18.4174 191.528C18.5063 187.447 20.4089 185.598 24.4276 184.985C26.0547 184.736 27.6372 184.06 29.1932 183.447C31.8604 182.397 34.4032 180.921 37.1505 180.201C42.1739 178.877 46.646 182.575 46.7438 187.794C46.7616 189.483 46.7438 191.173 46.7438 193.164ZM25.8946 202.953C30.1267 201.282 34.1454 200.144 36.9727 196.943C38.1463 195.618 38.9109 193.849 39.5333 192.151C40.0312 190.79 39.56 189.315 37.8707 189.146C34.4477 188.79 31.0158 189.11 28.0996 191.066C27.0682 191.76 26.1436 193.244 26.0013 194.471C25.6724 197.076 25.8946 199.744 25.8946 202.953Z" fill="#262626"/>
<path d="M112.395 65.233C115.604 66.4955 118.298 67.6513 121.054 68.6204C129.625 71.6345 138.223 74.5596 146.794 77.5558C148.189 78.0448 149.514 78.6938 150.883 79.2629C152.155 79.7963 153.213 80.6676 152.733 82.0902C152.35 83.2104 151.595 84.5174 150.626 85.0775C147.656 86.7935 144.304 86.2333 141.343 85.2465C132.319 82.2413 123.41 78.8894 114.475 75.6176C110.456 74.1417 106.491 72.5324 102.517 70.9499C101.352 70.4875 100.125 70.043 99.1472 69.305C97.8669 68.3448 97.3601 66.9489 98.9427 65.8198C104.695 61.6855 110.501 57.6135 116.316 53.5681C117.569 52.6968 118.743 52.8746 119.836 54.1016C120.992 55.3996 120.699 56.5199 119.694 57.6046C118.129 59.2761 116.493 60.8764 114.893 62.5213C114.191 63.2681 113.506 64.0327 112.395 65.233Z" fill="#262626"/>
<path d="M110.892 39.9027C110.759 42.6767 110.537 44.6682 110.59 46.6598C110.661 49.3715 109.256 51.0964 107.149 52.43C104.9 53.8526 102.686 55.3462 100.33 56.5554C98.5605 57.4623 98.036 58.7248 97.8759 60.5919C97.4314 65.6508 96.9068 70.7186 96.1422 75.742C95.8666 77.5824 95.0753 79.4406 94.1151 81.0588C92.7014 83.4237 89.803 83.2015 89.0562 80.5787C88.3716 78.1692 88.1048 75.4664 88.3982 72.9769C89.3762 64.4861 90.621 56.0308 91.8924 47.5845C92.1591 45.7885 92.8348 44.0103 93.6083 42.3477C94.6752 40.045 96.1867 38.0534 96.6579 35.3683C97.1913 32.3276 103.086 28.9313 106.162 29.2781C108.501 29.5448 109.994 30.7984 110.403 33.3946C110.786 35.7951 110.777 38.249 110.892 39.9027ZM98.7295 50.4384C101.254 49.6116 103.993 46.1263 103.993 44.1259C100.303 44.5438 100.036 47.7267 98.7295 50.4384ZM98.9784 39.1203C99.094 39.387 99.2096 39.6538 99.3252 39.9294C100.997 39.467 102.686 39.067 104.322 38.4979C104.784 38.3379 105.069 37.6889 105.433 37.2621C104.838 37.022 104.091 36.4352 103.682 36.6131C102.055 37.3154 100.534 38.2668 98.9784 39.1203Z" fill="#262626"/>
<path d="M423.603 165.985C422.163 166.269 420.945 166.749 419.762 166.678C418.082 166.572 416.277 166.349 414.801 165.629C413.307 164.909 412.774 163.3 413.592 161.619C414.374 160.001 415.655 159.059 417.513 159.468C418.571 159.699 419.593 160.179 420.589 160.641C423.185 161.868 424.154 161.433 424.323 158.561C424.51 155.538 424.359 152.506 424.448 149.474C424.519 147.118 424.697 144.762 424.892 142.415C425.026 140.841 425.852 139.685 427.497 139.623C429.178 139.561 429.773 140.806 429.853 142.264C430.28 149.777 430.947 157.289 431.009 164.811C431.107 176.254 430.867 187.705 430.591 199.148C430.511 202.518 429.862 205.887 429.373 209.239C429.151 210.786 428.351 211.773 426.502 211.533C424.59 211.293 424.91 209.924 424.866 208.706C424.448 196.827 424.021 184.949 423.63 173.062C423.541 170.821 423.603 168.563 423.603 165.985Z" fill="#262626"/>
<path d="M134.942 194.338C134.578 194.16 134.444 194.044 134.32 194.044C132.764 193.964 131.013 194.116 130.443 192.213C129.839 190.186 131.377 189.137 132.746 188.088C133.804 187.278 134.907 186.523 135.885 185.625C136.436 185.127 136.765 184.389 136.889 184.193C135.876 183.215 134.827 182.655 134.516 181.811C133.964 180.335 134.667 179.028 136.116 178.334C137.85 177.498 139.69 177.072 141.308 178.494C143.149 180.104 143.984 182.495 142.953 184.513C141.45 187.439 141.041 190.506 140.304 193.573C139.841 195.485 138.819 197.263 138.027 199.094C137.512 200.295 137.743 201.095 139.139 201.344C139.352 201.379 139.557 201.477 139.779 201.54C141.797 202.073 144.42 201.753 145.3 204.153C146.376 207.07 146.332 210.235 144.758 212.964C141.842 218.014 138.019 222.309 132.026 223.589C127.429 224.576 122.726 225.109 118.05 225.572C116.511 225.723 114.84 225.163 113.311 224.674C111.621 224.14 110.981 222.789 111.15 221.011C111.328 219.197 112.591 218.832 114.066 218.575C119.232 217.685 124.398 216.752 129.554 215.836C133.458 215.143 136.756 213.213 139.77 210.75C140.961 209.781 141.993 208.581 141.29 206.936C140.588 205.274 138.961 205.647 137.592 205.709C136.196 205.78 134.809 206.109 133.422 206.145C130.844 206.207 129.626 204.385 130.728 202.011C131.537 200.277 132.64 198.686 133.582 197.014C134.071 196.143 134.489 195.236 134.942 194.338Z" fill="#262626"/>
<path d="M133.083 150.266C133.892 150.266 134.257 150.248 134.613 150.266C137.76 150.435 139.289 152.435 138.533 155.458C138.151 156.987 137.671 158.49 137.182 160.197C138.151 160.268 138.729 160.348 139.298 160.348C142.801 160.366 144.944 163.22 143.85 166.572C143.326 168.181 142.534 169.692 141.885 171.266C141.183 172.955 139.876 174.022 138.124 173.827C135.893 173.578 133.608 173.124 131.545 172.289C130.149 171.728 129.438 170.181 130.167 168.528C131.27 166.038 132.47 163.593 133.572 161.095C134.106 159.886 134.506 158.614 134.968 157.37C134.781 157.218 134.595 157.076 134.408 156.925C133.475 157.227 132.514 157.494 131.599 157.859C130.567 158.259 129.58 158.757 128.567 159.192C127.046 159.859 125.748 159.414 124.85 158.152C123.881 156.783 124.344 155.396 125.473 154.382C126.504 153.458 127.722 152.728 128.887 151.964C129.482 151.573 130.149 151.288 131.038 150.817C129.687 150.941 128.629 151.253 127.669 151.057C126.735 150.87 125.562 150.39 125.09 149.652C122.583 145.749 123.855 141.179 127.98 139.188C129.98 138.227 131.118 136.938 131.225 134.653C131.287 133.24 131.696 131.764 133.555 131.684C135.386 131.604 135.982 132.857 136.551 134.369C136.942 135.427 137.724 136.503 138.622 137.178C140.427 138.53 140.712 139.605 139.689 141.686C139.227 142.637 139.325 143.838 138.969 144.86C138.631 145.838 138.231 146.976 137.493 147.607C136.346 148.594 134.888 149.217 133.083 150.266ZM137.458 164.802C136.684 165.656 136.026 166.145 135.777 166.785C135.662 167.078 136.569 168.128 136.702 168.074C137.422 167.79 138.178 167.354 138.631 166.749C138.773 166.572 138.018 165.709 137.458 164.802Z" fill="#262626"/>
<path d="M297.085 61.3476C299.023 62.4323 300.526 63.3392 302.082 64.1394C306.803 66.5755 311.604 68.8515 316.236 71.4477C317.836 72.3457 319.321 73.8127 320.281 75.3775C320.868 76.3377 320.859 78.3559 320.21 79.1828C319.552 80.0185 317.534 80.6053 316.53 80.2141C312.706 78.7294 308.848 77.1201 305.371 74.9774C300.072 71.7144 294.738 68.647 288.852 66.5488C287.67 66.1309 286.309 65.3041 285.74 64.2816C284.807 62.6012 285.625 61.0098 287.198 59.8984C292.088 56.4576 296.978 53.0168 301.877 49.5938C302.482 49.1759 303.122 48.7758 303.798 48.4913C305.122 47.9312 306.581 47.4689 307.612 48.8825C308.599 50.234 308.092 51.6387 307.025 52.6967C305.185 54.5105 303.238 56.2087 301.29 57.9068C300.081 58.9826 298.801 59.9606 297.085 61.3476Z" fill="#262626"/>
<path d="M409.867 165.122C410.801 176.04 407.6 187.883 404.337 199.708C404.026 200.837 403.617 201.993 402.985 202.962C402.577 203.584 401.581 204.331 401.021 204.216C400.416 204.091 399.651 203.042 399.589 202.349C399.402 200.224 399.305 198.045 399.563 195.929C400.363 189.279 401.341 182.646 402.248 176.005C402.434 174.618 402.728 173.231 402.79 171.835C402.923 169.088 402.292 168.545 399.634 168.883C396.922 169.221 395.802 168.261 395.606 165.558C395.464 163.504 396.566 162.553 398.407 162.268C403.208 161.521 402.87 161.059 403.617 156.356C403.839 154.978 404.141 153.6 404.559 152.266C405.039 150.71 406.186 150.061 407.822 150.31C409.494 150.568 409.912 151.626 409.885 153.164C409.823 156.631 409.867 160.108 409.867 165.122Z" fill="#262626"/>
<path d="M101.575 13.0965C98.7829 16.4217 96.1512 19.8003 93.2528 22.9387C89.3497 27.1708 85.2687 31.2518 81.1967 35.3149C80.3876 36.124 79.294 36.853 78.2094 37.1375C77.3647 37.3509 76.0755 37.0842 75.4887 36.5152C75.0798 36.124 75.2042 34.6214 75.6399 34.0079C78.4672 30.0337 81.3301 26.0772 84.3974 22.2986C88.0338 17.8265 91.8036 13.4521 95.68 9.19338C98.4184 6.17936 100.232 6.27716 103.335 8.93555C104.1 9.59347 105.06 10.0736 105.993 10.4915C110.972 12.7409 115.978 14.9547 120.984 17.1508C122.442 17.7909 123.722 18.5822 123.233 20.4226C122.762 22.183 121.277 22.4231 119.703 22.4142C115.462 22.3875 111.781 20.7338 108.403 18.3688C106.091 16.7596 103.949 14.9458 101.575 13.0965Z" fill="#262626"/>
<path d="M215.52 38.8446C214.338 50.8029 210.71 62.5122 203.109 72.7635C201.775 74.5594 199.881 75.9909 198.067 77.369C196.663 78.4359 194.947 78.4625 193.569 77.1822C192.182 75.902 192.226 74.2127 193.08 72.7012C194.707 69.8117 196.529 67.0199 198.245 64.1748C202.94 56.3775 207.27 48.4023 209.652 39.5381C210.07 37.9733 210.381 36.3818 210.808 34.817C211.119 33.6434 211.608 32.2475 213.093 32.7721C213.991 33.0922 214.809 34.2035 215.218 35.146C215.6 36.0351 215.414 37.1731 215.52 38.8446Z" fill="#262626"/>
<path d="M385.826 163.993C383.852 163.993 382.75 164.082 381.665 163.975C380.056 163.815 378.749 163.211 378.971 161.228C379.176 159.45 380.082 158.756 381.985 158.925C385.621 159.254 386.182 158.73 386.724 155.156C386.991 153.413 387.035 151.608 387.524 149.937C387.755 149.145 388.787 148.061 389.445 148.07C390.12 148.078 391.329 149.208 391.383 149.919C391.783 155.049 392.334 160.215 392.094 165.336C391.641 175.053 388.671 184.291 385.701 193.484C385.168 195.147 384.377 196.792 383.381 198.223C382.919 198.89 381.656 199.343 380.811 199.263C380.394 199.228 379.7 197.708 379.816 196.961C380.536 192.391 381.478 187.856 382.305 183.304C383.488 177.027 384.608 170.732 385.826 163.993Z" fill="#262626"/>
<path d="M121.623 175.943C121.623 176.707 121.552 177.347 121.641 177.961C121.837 179.41 121.765 180.655 119.978 181.01C118.182 181.366 116.671 181.046 116.066 179.099C115.604 177.605 115.302 176.067 114.519 174.582C114.315 176.298 114.199 178.032 113.879 179.73C113.675 180.797 113.301 181.899 112.741 182.815C112.377 183.42 111.248 184.238 110.963 184.078C110.234 183.66 109.203 182.664 109.3 182.06C109.843 178.663 110.652 175.302 111.452 171.951C111.532 171.63 112.243 171.133 112.439 171.213C115.017 172.324 116.049 169.55 118.005 169.034C119.925 168.528 119.801 166.572 119.516 165.105C119.312 164.055 118.6 162.722 117.72 162.242C114.422 160.437 114.11 160.099 115.426 156.605C116.058 154.942 116.129 153.662 114.422 152.648C113.959 152.373 113.586 151.813 113.346 151.297C112.243 148.905 114.048 141.304 116.066 139.632C117.578 138.378 119.214 138.903 119.401 140.903C119.587 142.939 119.445 145.029 119.249 147.083C119.143 148.283 119.16 149.154 120.298 149.919C122.05 151.092 121.517 153.022 121.188 154.578C120.716 156.792 120.743 158.481 122.592 160.215C124.228 161.735 124.504 163.984 123.668 166.189C122.806 168.474 122.921 170.519 125.126 172.048C125.304 172.173 125.437 172.368 125.589 172.528C126.682 173.72 127.811 175.08 126.531 176.6C125.215 178.165 123.739 177.196 122.423 176.236C122.272 176.12 122.05 176.094 121.623 175.943Z" fill="#262626"/>
<path d="M516.078 154.791C516.407 152.453 516.407 150.008 517.172 147.83C517.723 146.247 519.003 144.335 520.444 143.74C528.712 140.299 537.301 138.921 546.138 141.401C549.828 142.433 551.553 145.145 551.002 148.496C550.486 151.626 548.361 152.622 545.774 150.773C541.862 147.972 537.656 146.265 532.766 146.665C530.339 146.86 527.93 147.198 525.502 147.385C523.751 147.527 523.102 148.532 522.933 150.123C522.737 151.955 522.551 153.795 522.186 155.6C521.617 158.454 520.701 159.326 518.808 159.13C516.861 158.925 516.176 157.787 516.078 154.791Z" fill="#262626"/>
<path d="M157.898 152.897C156.164 153.617 154.991 154.124 153.79 154.595C152.83 154.969 151.87 155.413 150.874 155.609C148.074 156.178 147.087 155.378 147.282 152.559C147.38 151.19 146.953 150.47 145.691 150.106C143.753 149.545 143.593 148.176 144.304 146.638C145.406 144.229 146.678 141.899 147.825 139.508C148.554 137.987 149.887 137.285 151.239 138.023C152.066 138.476 152.448 139.908 152.804 140.983C152.999 141.552 152.732 142.282 152.724 142.317C154.155 143.322 155.969 143.944 156.315 145.029C156.698 146.238 155.738 147.874 155.293 149.59C156.484 149.519 157.702 149.483 158.92 149.368C161.134 149.154 162.61 150.061 162.69 152.266C162.77 154.427 162.504 156.658 161.979 158.756C161.792 159.512 160.441 160.339 159.561 160.41C159.063 160.446 158.111 159.068 157.969 158.232C157.711 156.667 157.898 155.049 157.898 152.897Z" fill="#262626"/>
<path d="M208.71 35.9195C207.99 38.0888 207.598 40.0893 206.709 41.8319C203.411 48.2689 199.988 54.6437 196.502 60.983C196.005 61.8898 195.035 62.8234 194.093 63.1168C193.106 63.4191 191.612 63.2946 190.857 62.6989C190.261 62.2277 190.163 60.6984 190.368 59.756C190.661 58.4135 191.337 57.1243 192.013 55.9062C195.169 50.136 198.352 44.3836 201.588 38.6668C202.388 37.2531 203.286 35.875 204.344 34.6481C205.002 33.8834 206.042 33.4478 206.905 32.8699C207.501 33.8745 208.105 34.8881 208.71 35.9195Z" fill="#262626"/>
<path d="M106.82 187.421C109.914 187.43 111.248 189.092 110.207 191.288C109.443 192.898 108.322 194.525 106.944 195.636C101.948 199.672 96.7999 203.513 91.652 207.354C91.1275 207.745 89.9361 207.932 89.5004 207.612C88.9225 207.185 88.4424 206.127 88.5224 205.407C88.6291 204.438 89.1626 203.433 89.7583 202.624C93.7503 197.245 98.498 192.622 104.002 188.799C104.997 188.096 106.206 187.705 106.82 187.421Z" fill="#262626"/>
<path d="M244.789 68.647C244.292 68.1047 243.376 67.4556 242.976 66.5754C242.273 65.0373 242.558 63.4636 244.007 62.4322C245.323 61.4987 246.843 60.8586 248.168 59.9339C251.191 57.8268 254.143 55.6129 257.139 53.4702C257.975 52.8745 258.819 52.2521 259.753 51.8254C261.931 50.8118 264.065 52.3055 263.78 54.6971C263.665 55.6751 263.3 56.7687 262.696 57.5245C258.419 62.8234 253.014 66.4865 246.425 68.3625C246.061 68.4692 245.687 68.4958 244.789 68.647Z" fill="#262626"/>
<path d="M212.177 196.89C211.511 201.086 211.022 205.318 210.106 209.452C209.741 211.08 208.532 212.564 207.483 213.951C207.092 214.476 205.918 214.929 205.411 214.707C204.762 214.422 204.024 213.427 204.024 212.733C204.016 209.657 204.06 206.563 204.442 203.522C205.065 198.561 205.963 193.627 206.754 188.683C206.807 188.319 206.834 187.874 207.056 187.634C207.661 186.967 208.345 185.936 209.021 185.918C209.661 185.9 210.782 186.896 210.924 187.59C211.368 189.812 211.466 192.106 211.653 194.373C211.724 195.183 211.662 195.992 211.662 196.801C211.831 196.836 212 196.863 212.177 196.89Z" fill="#262626"/>
<path d="M95.8395 155.307C97.4844 156.036 99.4848 156.454 100.836 157.627C103.086 159.583 105.068 161.913 106.864 164.304C108.038 165.878 108.073 168.012 106.438 169.346C104.944 170.572 103.139 169.817 101.743 168.768C99.8227 167.318 98.1334 166.047 95.3861 165.843C93.3945 165.691 91.3141 163.664 89.7226 162.037C88.2734 160.561 89.118 157.841 91.1451 156.8C92.4788 156.125 94.0347 155.867 95.8395 155.307Z" fill="#262626"/>
<path d="M97.8491 184.505C95.2974 184.771 92.7546 185.074 90.2029 185.305C88.2291 185.483 86.4509 185.1 85.7752 182.931C85.2151 181.135 86.2198 179.517 88.647 178.628C93.5903 176.823 98.5604 176.138 103.148 179.552C103.948 180.148 104.926 181.864 104.651 182.264C103.913 183.349 102.641 184.265 101.388 184.745C100.365 185.145 99.0583 184.825 97.8758 184.825C97.8669 184.718 97.858 184.611 97.8491 184.505Z" fill="#262626"/>
<path d="M532.606 157.752C534.474 157.85 536.109 157.912 536.358 159.841C536.59 161.637 535.558 162.766 533.816 163.175C529.672 164.153 525.529 165.158 521.359 166.056C519.599 166.429 518.639 165.194 519.368 163.54C519.67 162.837 520.257 162.144 520.897 161.735C524.569 159.379 528.677 158.294 532.606 157.752Z" fill="#262626"/>
<path d="M255.982 33.439C253.671 33.03 251.332 32.7544 249.074 32.1854C247.545 31.8031 246.14 30.9762 246.318 28.9936C246.469 27.2243 247.821 26.6464 249.252 26.5575C252.017 26.3885 254.818 26.1929 257.556 26.5041C260.081 26.7886 261.121 28.5223 260.846 30.8607C260.606 32.8433 259.708 33.359 256.694 33.2256C256.471 33.2167 256.249 33.2079 256.027 33.199C256.009 33.2701 255.991 33.359 255.982 33.439Z" fill="#262626"/>
<path d="M146.198 176.849C143.699 176.921 141.957 174.662 142.801 172.991C144.437 169.781 146.269 166.652 148.234 163.629C148.625 163.024 150.003 163.06 150.928 162.802C151.008 163.593 151.31 164.438 151.123 165.158C150.314 168.279 149.496 171.417 148.376 174.44C147.985 175.525 146.722 176.298 146.198 176.849Z" fill="#262626"/>
<path d="M471.143 151.279C471.108 153.644 469.667 154.676 467.711 153.395C465.08 151.671 462.617 149.67 460.261 147.598C458.98 146.469 459.381 145.011 460.892 144.193C461.274 143.989 461.71 143.838 462.137 143.749C465.346 143.082 471.188 147.981 471.143 151.279Z" fill="#262626"/>
<path d="M374.179 183.429C373.912 183.767 373.495 184.789 372.774 185.109C369.947 186.354 367.057 187.483 364.123 188.434C362.603 188.923 361.038 188.461 360.496 186.763C359.927 184.967 361.145 184.078 362.683 183.509C365.315 182.54 367.92 181.473 370.569 180.566C372.597 179.881 374.152 180.939 374.179 183.429Z" fill="#262626"/>
<path d="M255.129 47.7177C253.876 47.7177 252.569 47.94 251.395 47.6377C250.568 47.4243 249.323 46.5086 249.314 45.904C249.314 44.9349 249.99 43.3434 250.728 43.1122C253.226 42.3387 255.876 41.7164 258.463 41.7519C259.432 41.7697 260.882 43.6546 261.139 44.8993C261.291 45.6284 259.699 47.0687 258.605 47.6022C257.654 48.0645 256.294 47.7 255.12 47.7C255.129 47.7089 255.129 47.7089 255.129 47.7177Z" fill="#262626"/>
<path d="M362.87 174.191C362.301 173.764 360.994 173.266 360.647 172.386C360.336 171.604 360.789 170.19 361.385 169.426C363.448 166.776 368.569 166.954 370.667 169.595C371.876 171.115 371.263 172.875 369.369 173.204C367.413 173.542 365.439 173.8 362.87 174.191Z" fill="#262626"/>
<path d="M161.063 163.691C161.739 163.549 162.477 163.175 163.09 163.309C166.513 164.082 169.963 164.793 173.288 165.896C175.057 166.483 175.76 168.11 174.8 170.386C169.945 168.785 165.153 167.247 160.921 164.411C160.965 164.18 161.01 163.94 161.063 163.691Z" fill="#262626"/>
<path d="M151.941 165.851C152.635 164.518 153.364 163.104 154.093 161.699C155.124 162.748 156.218 163.735 157.151 164.856C157.747 165.585 158.138 166.492 158.556 167.354C159.196 168.688 159.623 170.021 157.996 171.017C156.476 171.942 154.36 171.657 153.48 170.146C152.804 168.999 152.537 167.594 151.941 165.851Z" fill="#262626"/>
<path d="M102.064 27.3842C101.841 27.3842 101.619 27.3842 101.397 27.3842C99.8853 27.3842 98.1782 27.4465 98.0182 25.4282C97.867 23.4811 99.2451 22.2897 100.988 22.1919C102.828 22.0941 104.855 22.2364 106.518 22.9566C108.509 23.8101 108.252 25.9083 106.18 26.7174C104.9 27.2153 103.477 27.322 102.117 27.6065C102.09 27.5265 102.072 27.4554 102.064 27.3842Z" fill="#262626"/>
<path d="M365.964 150.772C367.751 152.008 369.413 152.853 370.622 154.115C371.165 154.693 371.183 156.32 370.756 157.094C370.436 157.681 368.969 158.001 368.115 157.841C366.782 157.592 365.341 157.076 364.31 156.231C363.572 155.627 362.914 154.124 363.163 153.324C363.456 152.391 364.79 151.777 365.964 150.772Z" fill="#262626"/>
<path d="M494.606 29.8115C491.361 22.9744 485.19 17.6576 478.362 14.5725C471.116 11.3006 463.15 10.2693 455.272 10.8205C455.264 10.7938 455.264 10.7583 455.255 10.7316C454.837 9.21126 453.263 8.39329 451.769 8.74893C436.166 12.492 423.79 25.6506 421.371 41.5742C420.136 49.6738 420.891 59.0093 425.612 65.962C430.165 72.6746 438.255 76.4444 445.901 78.427C460.26 82.1434 477.197 79.3962 487.68 68.2381C497.131 58.1913 500.634 42.49 494.606 29.8115ZM491.912 44.8727C491.823 46.5709 491.725 47.3355 491.414 48.9003C491.121 50.3851 490.721 51.861 490.232 53.2924C489.334 55.9064 488.018 58.5114 486.284 61.0275C482.968 65.8286 477.713 69.7762 472.103 71.8833C465.746 74.2661 459.149 74.8974 452.365 73.9727C446.195 73.1281 439.18 70.8609 434.068 66.8244C428.306 62.2811 426.457 54.7594 426.51 47.7356C426.573 40.4806 428.92 33.3323 433.205 27.4287C436.184 23.3211 440.389 19.7737 444.959 17.3464C445.599 17.7021 446.373 17.8088 447.137 17.6576C455.024 16.0306 463.337 15.6572 471.143 17.9066C477.331 19.6848 483.412 23.2945 487.226 28.5045C489.147 31.1363 490.276 33.4924 491.076 36.4619C491.841 39.3426 492.063 41.7076 491.912 44.8727Z" fill="#262626"/>
<path d="M460.732 48.4469C457.237 48.5713 453.583 49.4071 450.765 51.5587C447.893 53.7636 446.524 57.0355 445.261 60.3251C444.71 61.7566 445.866 63.437 447.244 63.8104C448.844 64.246 450.178 63.268 450.729 61.8277C451.529 59.7561 452.383 57.4 454.206 56.013C456.002 54.6438 458.518 54.1904 460.732 54.1104C463.123 54.0215 465.506 54.4394 467.551 55.7285C469.267 56.8132 470.476 58.4225 470.965 60.3963C471.836 63.9349 477.304 62.4412 476.433 58.8848C474.717 51.8877 467.542 48.1979 460.732 48.4469Z" fill="#262626"/>
<path d="M449.538 40.1872C451.512 40.1872 453.405 38.4446 453.316 36.4086C453.228 34.3637 451.654 32.6299 449.538 32.6299C447.564 32.6299 445.67 34.3726 445.759 36.4086C445.848 38.4535 447.413 40.1872 449.538 40.1872Z" fill="#262626"/>
<path d="M468.44 39.556C470.414 39.556 472.307 37.8133 472.219 35.7773C472.13 33.7324 470.556 31.9987 468.44 31.9987C466.466 31.9987 464.572 33.7413 464.661 35.7773C464.75 37.8222 466.315 39.556 468.44 39.556Z" fill="#262626"/>
<path fill-rule="evenodd" clip-rule="evenodd" d="M474.626 39.4728C475.283 38.992 476.182 39.0181 476.809 39.5361C478.998 41.3433 480.953 43.4059 482.522 45.6679C483.105 46.5092 483.794 47.5166 484.346 48.5915C484.897 49.6634 485.373 50.9154 485.444 52.2627C485.479 52.923 485.475 53.8239 485.078 54.6894C484.64 55.6459 483.849 56.3061 482.814 56.7108C481.884 57.0743 480.869 56.864 480.292 56.6934C479.661 56.5066 478.908 56.1699 478.387 55.6964C475.823 53.3681 475.213 50.5407 474.959 48.0323C474.898 47.4327 474.856 46.8325 474.817 46.2649C474.815 46.244 474.814 46.2231 474.812 46.2023C474.77 45.6062 474.73 45.0448 474.672 44.495C474.556 43.3942 474.376 42.4338 474.028 41.5731C473.724 40.8186 473.97 39.9536 474.626 39.4728ZM478.368 46.0733C478.407 46.6282 478.445 47.1544 478.497 47.6735C478.72 49.8693 479.187 51.6098 480.762 53.0494C480.769 53.0537 480.809 53.0815 480.893 53.1237C481.007 53.1809 481.151 53.2387 481.301 53.2831C481.44 53.3241 481.553 53.3445 481.629 53.3517C481.745 53.2973 481.801 53.2543 481.821 53.2361C481.84 53.2202 481.842 53.2148 481.844 53.2094C481.845 53.2089 481.845 53.2084 481.845 53.2079C481.868 53.1579 481.92 52.9811 481.892 52.4497C481.858 51.8024 481.617 51.0614 481.183 50.2167C480.75 49.3751 480.187 48.5424 479.599 47.6948C479.217 47.1432 478.806 46.6022 478.368 46.0733Z" fill="#262626"/>
</svg>
