<svg width="62" height="47" viewBox="0 0 62 47" fill="none" xmlns="http://www.w3.org/2000/svg">
<g filter="url(#filter0_d_248_201)">
<path d="M39.4275 12.7306C38.5283 11.7625 36.689 9.85334 36.1032 9.28465C35.1086 8.31653 33.9233 6.42092 34.843 5.2497C35.8035 4.03109 37.779 4.46437 39.1686 5.50696C42.2272 7.80201 45.3472 10.009 48.3445 12.3853C50.4085 14.0237 50.538 15.7568 48.7464 17.7269C45.9466 20.8073 35.2585 28.7418 32.9628 26.176C32.4179 25.5666 32.1113 24.2329 32.5132 23.3393C33.5419 21.0442 37.7653 19.3179 37.9765 18.7357C37.0092 18.6815 33.9233 19.1148 33.1536 19.0945C28.1876 18.9591 23.2148 18.8914 18.2556 18.6612C16.9477 18.6003 15.5989 18.2008 14.3999 17.6592C13.7119 17.3478 12.8809 16.4541 12.874 15.8178C12.8672 15.0595 14.3931 13.4753 15.0403 13.2384C17.0907 12.4869 17.9558 12.6358 20.1153 12.4937C24.6725 12.2025 28.8211 12.8254 33.392 12.7306C34.5092 12.7103 37.7653 12.8457 39.4275 12.7306Z" fill="white"/>
</g>
<defs>
<filter id="filter0_d_248_201" x="0.874023" y="0.511047" width="61.124" height="46.1678" filterUnits="userSpaceOnUse" color-interpolation-filters="sRGB">
<feFlood flood-opacity="0" result="BackgroundImageFix"/>
<feColorMatrix in="SourceAlpha" type="matrix" values="0 0 0 0 0 0 0 0 0 0 0 0 0 0 0 0 0 0 127 0" result="hardAlpha"/>
<feOffset dy="8"/>
<feGaussianBlur stdDeviation="6"/>
<feComposite in2="hardAlpha" operator="out"/>
<feColorMatrix type="matrix" values="0 0 0 0 0 0 0 0 0 0 0 0 0 0 0 0 0 0 0.25 0"/>
<feBlend mode="normal" in2="BackgroundImageFix" result="effect1_dropShadow_248_201"/>
<feBlend mode="normal" in="SourceGraphic" in2="effect1_dropShadow_248_201" result="shape"/>
</filter>
</defs>
</svg>
