<svg width="398" height="72" viewBox="0 0 398 72" fill="none" xmlns="http://www.w3.org/2000/svg">
<path d="M76.462 9.196C75.6489 9.77481 74.9047 10.2572 74.2225 10.8084C72.9133 11.8558 71.673 11.6628 70.5016 10.6361C69.3026 9.58187 69.0614 8.28644 70.157 6.97722C73.0304 3.55257 76.7927 1.51295 81.1889 0.906573C83.5111 0.589604 84.5998 2.50519 83.5386 4.65507C83.1321 5.46816 82.5119 6.1779 82.0985 6.99099C81.5541 8.05215 80.9615 9.12709 80.6721 10.2709C80.0933 12.5104 80.493 12.8411 82.7945 12.6895C84.0417 12.6069 85.3164 12.6206 86.5636 12.7585C87.7764 12.8894 88.7411 13.7231 88.6101 14.9014C88.5275 15.6594 87.7144 16.6379 86.984 16.9686C85.1166 17.8162 83.0839 18.2985 81.1752 19.0634C80.5412 19.3183 80.0795 20.0074 79.5421 20.4966C79.6937 20.6896 79.8384 20.8825 79.99 21.0686C81.3543 20.3037 82.6773 19.4493 84.0968 18.8084C85.1097 18.3536 86.2604 17.9195 87.3285 17.9678C88.2312 18.0091 89.7195 18.6086 89.8573 19.215C90.0916 20.221 89.7609 21.6749 89.1063 22.488C88.2036 23.5974 86.7841 24.3003 85.5645 25.1478C83.7798 26.3881 81.8918 27.4975 80.1967 28.8481C78.474 30.2193 77.8608 32.1418 78.1433 34.6155C79.5283 34.3881 80.7962 34.0712 82.0778 33.9954C83.6558 33.9058 85.2958 33.7749 86.8048 34.1125C88.7273 34.5397 89.0167 35.9454 87.7006 37.4683C86.4741 38.9015 85.1924 40.2865 83.9314 41.6922C81.6437 44.228 80.872 47.4597 79.5972 50.464C79.7281 50.5811 79.8659 50.6914 79.9969 50.8085C80.6997 50.2986 81.4439 49.8369 82.1054 49.2788C85.6954 46.24 89.2234 43.1323 92.8686 40.1625C94.0469 39.2047 95.4663 38.5019 96.8651 37.8679C98.1192 37.296 99.2148 37.7508 99.9866 38.9084C100.731 40.0316 100.366 41.0032 99.5111 41.83C96.5895 44.6621 93.6265 47.4597 90.7049 50.2917C90.1123 50.8636 89.6162 51.5251 88.8169 52.4416C90.1054 52.5932 91.0219 52.5794 91.8625 52.8137C97.9263 54.5019 103.976 56.2108 110.019 57.9679C112.879 58.8016 115.704 59.7594 118.55 60.6414C120.162 61.1376 121.134 62.4675 120.907 63.9352C120.534 66.3331 119.728 67.346 117.661 67.0015C113.161 66.2573 108.655 65.4029 104.266 64.1901C95.8798 61.8818 87.5697 59.2909 79.2251 56.824C79.1286 56.7965 79.0046 56.8447 78.8048 56.8654C78.4602 59.5045 78.1157 62.1574 77.7505 64.8172C77.6816 65.3202 77.6472 65.9197 77.3577 66.2918C76.9099 66.8637 76.2346 67.6699 75.6902 67.6492C75.0149 67.6216 73.9951 66.9739 73.7884 66.3676C73.3198 64.9825 72.9064 63.4184 73.0924 62.0058C73.7195 57.2513 74.4706 52.5036 75.4697 47.818C75.9107 45.7301 77.0546 43.7939 78.0399 41.4097C77.0821 41.7267 76.3379 41.8851 75.6764 42.2159C73.4714 43.3184 71.356 44.6001 69.1028 45.5923C67.6144 46.2469 65.9606 46.8602 64.4723 45.3787C63.3146 44.228 63.2113 43.1944 64.5136 42.1883C66.1398 40.9342 67.8762 39.7904 69.6678 38.7775C71.3422 37.8335 72.0382 36.6414 72.052 34.65C72.1002 26.7947 73.7746 19.2081 76.1795 11.7593C76.3724 11.1598 76.5102 10.5466 76.6411 9.93329C76.6687 9.78859 76.5722 9.61633 76.462 9.196Z" fill="#262626"/>
<path d="M370.912 37.2476C372.876 40.1278 374.667 42.7601 376.659 45.6817C378.368 43.9866 379.725 42.3397 381.386 41.0925C382.97 39.8936 384.872 39.1011 386.636 38.1364C386.374 36.4345 385.961 34.5395 385.837 32.6308C385.761 31.425 386.181 30.2742 387.601 29.8126C389.517 29.1855 390.151 29.6885 390.716 31.5766C391.349 33.6851 392.383 35.6696 393.244 37.7023C393.803 39.0116 394.512 40.2725 394.891 41.63C395.215 42.7945 395.188 44.0762 393.734 44.6688C392.252 45.2751 391.039 44.9099 390.13 43.5938C389.585 42.8014 389.062 41.9952 388.331 40.9065C387.835 41.6713 387.477 42.2019 387.139 42.7394C385.541 45.2958 383.894 47.8247 382.399 50.4362C382.082 50.9875 382.02 52.0624 382.35 52.5379C383.336 53.9298 384.493 55.2321 385.74 56.4035C388.924 59.3803 392.19 62.2674 395.422 65.1891C395.849 65.5749 396.435 65.8919 396.648 66.3742C397.103 67.4078 397.916 68.7653 397.572 69.5508C396.979 70.9152 395.374 71.6938 393.803 71.2528C392.411 70.86 390.922 70.2468 389.868 69.2959C386.292 66.078 382.86 62.6947 379.422 59.3251C376.583 56.5413 377.155 56.7825 374.543 59.1873C372.938 60.6619 371.374 62.1847 369.678 63.5491C367.921 64.9617 365.916 65.7059 363.587 65.0306C361.107 64.3071 360.321 61.8333 362.119 59.966C363.105 58.9461 364.345 58.1675 365.448 57.2579C366.04 56.7687 366.585 56.2312 367.28 55.5973C366.798 55.301 366.564 55.0392 366.343 55.0392C362.188 55.1356 358.736 53.1718 355.229 51.332C353.031 50.1744 353.024 50.2019 352.059 52.4345C350.695 55.5835 349.427 58.7808 347.904 61.854C347.298 63.0805 346.278 64.2657 345.148 65.0168C344.41 65.506 342.908 65.5405 342.164 65.0926C341.53 64.7067 341.303 63.3562 341.234 62.4121C341.179 61.6679 341.489 60.8066 341.889 60.1451C345.196 54.6464 347.339 48.686 348.986 42.5189C349.206 41.692 349.523 40.8927 349.847 40.1003C350.867 37.6334 352.273 36.9444 354.898 36.7928C357.082 36.6687 359.253 36.0486 361.403 35.5593C362.567 35.2975 362.926 34.4775 362.554 33.3268C362.326 32.617 362.099 31.9004 361.995 31.17C361.761 29.5576 362.65 28.2966 364.173 27.9728C365.806 27.6282 366.895 28.3173 367.384 30.0055C368.066 32.3621 368.149 32.3828 370.595 31.8591C371.539 31.6593 372.607 31.3216 373.454 31.5835C374.302 31.8384 375.267 32.6515 375.556 33.4439C375.742 33.9538 374.943 35.0701 374.309 35.5593C373.434 36.2346 372.304 36.5792 370.912 37.2476ZM371.601 51.1666C371.132 50.0021 370.877 49.003 370.367 48.1485C368.872 45.6541 367.315 43.1873 365.675 40.7893C365.372 40.3483 364.49 39.9142 364.021 40.0383C361.423 40.7066 358.764 41.3337 356.345 42.4431C355.318 42.9185 354.726 44.4965 354.195 45.6886C354.119 45.8539 355.463 46.922 356.262 47.1494C358.729 47.8453 361.272 48.2726 363.759 48.9134C366.226 49.5473 368.652 50.3122 371.601 51.1666Z" fill="#262626"/>
<path d="M146.925 58.4636C146.925 60.7858 147.015 62.7151 146.891 64.6307C146.829 65.5679 146.525 66.5601 146.05 67.3663C145.768 67.8487 144.906 68.2966 144.369 68.2277C143.893 68.1725 143.211 67.4214 143.142 66.9047C142.873 64.9408 142.784 62.9425 142.674 60.958C142.584 59.3663 142.625 57.7608 142.467 56.1828C142.405 55.5902 141.936 55.0321 141.433 54.0123C140.544 55.48 139.897 56.5205 139.283 57.5747C137.933 59.8969 136.686 62.2879 135.211 64.5343C134.653 65.3887 133.695 66.1949 132.744 66.5119C132.055 66.7462 130.898 66.3465 130.305 65.8297C129.947 65.5127 129.988 64.2793 130.312 63.7212C132.434 59.9865 134.681 56.3275 136.872 52.6342C137.478 51.6143 138.05 50.567 138.863 49.1406C137.333 49.3473 136.19 49.5058 135.046 49.6574C134.198 49.7745 133.309 50.0915 132.51 49.9399C131.656 49.7814 130.401 49.3404 130.195 48.7203C129.933 47.9485 130.25 46.5291 130.849 46.0054C132.255 44.7995 133.971 43.9657 135.576 43.0011C135.852 42.8357 136.19 42.7599 136.706 42.5669C136.01 41.6436 135.37 40.865 134.811 40.0312C133.978 38.7909 133.888 37.461 134.598 36.1311C135.273 34.8632 136.445 34.7805 137.705 34.8081C139.077 34.8425 139.594 35.6074 139.807 36.8339C140 37.964 140.317 39.0665 140.586 40.1828C140.841 40.1621 141.096 40.1346 141.351 40.1139C141.564 37.1854 141.785 34.2637 142.012 31.1629C139.387 32.0036 137.092 32.8649 134.729 33.4369C133.309 33.7814 131.759 33.8296 130.298 33.6849C129.63 33.616 128.748 32.8649 128.5 32.2172C128.3 31.6866 128.817 30.8046 129.175 30.1707C129.375 29.8193 129.892 29.6126 130.298 29.4058C137.513 25.7469 144.899 22.5152 152.686 20.2826C153.712 19.9863 154.953 20.1448 156.035 20.3722C157.571 20.6961 158.302 21.8124 158.24 23.4041C158.129 26.1535 157.826 28.9028 157.95 31.6384C158.357 40.796 162.126 48.0174 170.388 52.5584C171.228 53.02 172.117 53.5575 172.703 54.281C173.144 54.8185 173.475 55.8659 173.227 56.4102C172.999 56.9063 171.931 57.306 171.256 57.2784C168.582 57.1751 166.315 55.983 164.262 54.3224C160.348 51.1596 157.571 47.1285 155.304 42.7048C155.097 42.2982 154.911 41.8779 154.698 41.4713C154.65 41.3818 154.526 41.3335 154.222 41.1061C151.983 42.2017 149.613 43.3111 147.311 44.5377C146.925 44.7444 146.636 45.4955 146.643 45.9916C146.67 48.0519 146.643 50.1397 147.022 52.1449C147.166 52.896 148.262 53.8125 149.089 54.033C152.238 54.8667 155.463 55.4111 158.639 56.1415C160.134 56.486 161.616 56.9477 163.063 57.4852C164.365 57.9675 165.509 58.7944 165.137 60.3999C164.779 61.9503 163.566 62.5704 162.023 62.5291C157.426 62.412 153.12 61.1234 148.937 59.3318C148.42 59.132 147.911 58.8977 146.925 58.4636ZM145.513 36.1931C145.706 36.2413 145.892 36.2896 146.084 36.3447C146.498 35.2629 146.898 34.1742 147.318 33.0923C148.462 30.1225 149.027 29.8675 151.983 30.9356C152.059 30.9631 152.183 30.8666 152.451 30.7633C152.451 29.3921 152.451 27.9588 152.451 25.933C150.26 26.9872 148.441 27.8486 146.643 28.7443C146.47 28.827 146.319 29.0958 146.298 29.2956C146.016 31.5971 145.768 33.8985 145.513 36.1931ZM152.3 33.6849C151.859 34.8081 151.487 35.7521 151.094 36.7444C152.968 36.8684 153.333 35.9657 152.3 33.6849Z" fill="#262626"/>
<path d="M221.075 48.8516C220.641 49.6302 220.234 50.4295 219.766 51.1875C217.685 54.5432 215.7 57.9679 213.426 61.1858C212.441 62.5846 210.939 63.694 209.471 64.6311C208.899 64.9963 207.68 64.7482 206.977 64.3693C206.639 64.1832 206.605 62.9774 206.805 62.3572C207.204 61.1169 207.742 59.8904 208.431 58.781C210.098 56.1074 211.911 53.5303 213.619 50.8774C214.453 49.582 215.266 48.2521 215.928 46.8602C217.32 43.9316 216.92 43.3253 213.688 43.1392C211.304 43.0014 208.817 39.2736 209.802 37.0135C211.015 34.2365 212.469 31.563 213.895 28.8894C215.342 26.1745 216.886 23.5009 218.594 20.4415C217.54 20.2348 216.803 20.1314 216.086 19.9247C215.604 19.7869 214.846 19.5802 214.777 19.2701C214.653 18.7464 214.805 17.9747 215.142 17.5612C215.597 17.0169 216.334 16.6999 216.968 16.3209C219.277 14.9428 220.503 12.8549 221.137 10.3674C221.034 10.1813 220.93 9.9884 220.82 9.80236C219.807 10.2158 218.815 10.6981 217.781 11.0289C217.106 11.2494 216.355 11.2632 215.645 11.3665C215.838 10.6017 215.776 9.44405 216.259 9.12708C218.436 7.7145 220.675 6.29503 223.08 5.3579C224.837 4.66884 226.594 6.72225 226.298 8.93414C226.147 10.0435 225.657 11.1185 225.209 12.159C224.858 12.9858 224.334 13.7438 223.714 14.8325C225.154 14.7085 226.305 14.5638 227.456 14.5293C228.551 14.4949 229.812 14.4466 230.095 15.8523C230.412 17.3958 229.254 17.9747 228.021 18.3054C226.643 18.6706 225.258 19.0772 223.845 19.2287C222.281 19.401 221.337 20.0694 220.889 21.5991C220.386 23.3011 219.738 24.9549 219.18 26.6431C219.097 26.8911 219.139 27.1874 219.111 27.7869C219.814 27.4562 220.29 27.2081 220.786 27.0014C223.218 26.0091 225.63 24.9411 228.11 24.0797C229.936 23.4458 231.749 23.811 233.354 24.9204C234.732 25.8644 235.104 27.3528 234.408 28.855C233.65 30.4743 232.837 30.7912 230.936 30.2124C228.324 29.42 227.745 29.6818 226.822 32.1556C226.353 33.4165 225.933 34.6982 225.313 36.4967C226.677 36.2004 227.545 36.0832 228.372 35.8283C229.902 35.3459 231.377 34.6706 232.927 34.2986C234.14 34.0023 235.539 33.8438 236.159 35.4011C236.758 36.9032 236.048 38.116 234.774 38.7085C231.983 40.0178 229.075 41.0789 226.243 42.2917C225.23 42.7258 224.286 43.3115 223.315 43.8352C224.128 44.6 224.824 45.5647 225.761 46.1091C234.257 50.9877 242.849 55.6871 251.277 60.6828C253.096 61.7577 254.605 63.6389 255.756 65.4649C256.817 67.1462 255.762 68.7724 253.764 68.7655C252.338 68.7655 250.739 68.4692 249.506 67.7939C240.383 62.8189 231.59 57.3339 223.638 50.588C223.025 50.0712 222.384 49.5889 221.743 49.1065C221.613 49.0101 221.426 48.9825 221.075 48.8516ZM217.733 30.6603C217.072 32.0591 216.148 33.83 215.425 35.6905C215.225 36.2073 215.439 37.1582 215.824 37.5785C217.23 39.122 218.822 38.8808 219.842 37.041C220.992 34.96 222.067 32.8308 223.204 30.6672C221.633 30.6603 219.931 30.6603 217.733 30.6603Z" fill="#262626"/>
<path d="M38.067 38.2261C37.7569 38.9358 37.4261 39.6318 37.1367 40.3553C34.5183 46.9151 31.5415 53.289 27.4554 59.084C26.6079 60.283 25.5674 61.3924 24.4511 62.357C23.2452 63.4044 21.7913 63.5009 20.5165 62.4397C19.3176 61.4406 19.4278 60.1796 20.1169 58.8704C23.0592 53.3028 26.0153 47.7351 28.9024 42.1399C30.0807 39.8523 31.1143 37.4888 32.1893 35.1528C32.7543 33.9263 32.5545 32.9616 31.4589 31.9694C30.7836 31.363 30.439 30.2605 30.2116 29.3165C29.9222 28.1382 30.5217 27.3595 31.7689 27.1046C34.3667 26.5671 35.7379 24.7893 36.5097 22.3983C36.9162 21.1442 37.2056 19.8281 37.812 18.6773C38.1359 18.0572 39.1695 17.2441 39.6105 17.3819C40.2926 17.5955 40.7888 18.5189 41.2711 19.2079C41.4365 19.4422 41.3331 19.8763 41.3331 20.2208C41.2987 22.4879 41.6777 22.7566 43.9447 22.1089C48.7199 20.7445 50.3392 21.8057 50.8284 26.7945C51.3521 32.0589 49.7673 36.8824 47.3693 41.4509C46.3633 43.3734 42.8766 44.4759 40.9886 43.5112C40.2444 43.1322 39.7276 42.133 39.3417 41.2993C38.9007 40.3553 38.7354 39.2803 38.446 38.2674C38.3219 38.2398 38.1979 38.2329 38.067 38.2261ZM42.4839 37.0547C43.2694 34.1537 44.0067 31.5559 44.6406 28.9375C44.7578 28.462 44.5717 27.5249 44.3099 27.4422C43.7931 27.27 43.0696 27.4215 42.539 27.6627C42.1118 27.8557 41.7603 28.3311 41.4985 28.7583C40.1893 30.9496 40.4994 34.45 42.4839 37.0547Z" fill="#262626"/>
<path d="M338.912 18.064C340.862 18.2639 342.509 18.3397 344.108 18.636C345.313 18.8633 346.202 19.6489 346.195 21.0132C346.189 22.3913 345.878 23.7075 344.411 24.2449C343.288 24.6515 342.109 24.934 340.931 25.1476C339.725 25.3681 338.953 25.8642 338.788 27.1872C338.168 32.1692 338.423 32.3207 342.054 34.1743C343.784 35.0563 345.582 35.8763 347.146 37.0064C349.406 38.6463 349.386 41.2855 347.146 42.4638C346.382 42.8703 345.065 42.8703 344.287 42.4775C342.723 41.6851 341.365 40.4861 339.904 39.4801C339.284 39.0529 338.616 38.7015 337.796 38.2122C337.127 41.7678 336.583 44.9719 335.908 48.1485C335.412 50.4982 334.764 52.8204 334.137 55.1356C333.958 55.7902 333.751 56.4931 333.358 57.0237C333 57.506 332.297 58.1537 331.884 58.071C331.415 57.9746 330.781 57.1408 330.781 56.624C330.788 54.4603 330.94 52.2829 331.16 50.1261C331.498 46.7842 331.939 43.456 332.332 40.1278C332.159 40.0589 331.987 39.99 331.815 39.9211C330.94 40.9961 330.071 42.071 329.189 43.139C328.645 43.8005 328.204 44.6894 327.494 45.0477C326.674 45.4543 325.503 45.7092 324.71 45.4129C324.207 45.2269 323.787 43.8557 323.925 43.1253C324.18 41.8022 324.779 40.5206 325.4 39.3009C327.15 35.8901 329.017 32.5344 330.774 29.1235C331.084 28.5171 331.126 27.7798 331.291 27.0976C330.63 27.0701 329.968 27.0287 329.313 27.0287C328.914 27.0356 328.521 27.139 328.121 27.1597C327.06 27.2148 325.93 27.2355 325.572 25.9676C325.234 24.7686 325.255 23.4938 326.412 22.6945C327.439 21.9848 328.562 21.3853 329.713 20.8961C330.94 20.3724 331.677 19.6075 331.835 18.2501C331.918 17.5197 332.118 16.7824 332.38 16.0933C333.096 14.2053 336.28 13.2475 337.878 14.4809C338.271 14.7841 338.478 15.4111 338.602 15.9348C338.802 16.7066 338.843 17.5059 338.912 18.064Z" fill="#262626"/>
<path d="M18.1602 39.0668C20.4686 38.2743 22.5082 37.5439 24.5616 36.8824C25.2024 36.6757 26.0362 36.345 26.5461 36.5793C27.4488 36.9927 28.4548 37.6542 28.8682 38.488C29.1094 38.9841 28.4204 40.0866 27.9173 40.7481C27.5315 41.2649 26.8286 41.5819 26.2154 41.8781C19.8208 44.9789 13.447 48.1142 6.99738 51.0909C5.70194 51.6904 4.12399 51.8696 2.67006 51.8833C1.87075 51.8902 0.64422 51.3597 0.347923 50.7326C-0.168875 49.6232 -0.251562 47.873 1.099 47.3769C4.15844 46.2468 4.3376 43.9178 4.53743 41.2373C4.95775 35.587 5.62615 29.9505 6.20496 24.307C6.29454 23.4526 6.44613 22.6051 6.56327 21.7575C6.87335 19.4147 7.45216 17.4026 10.4014 17.1201C11.3385 17.0305 12.1998 16.1623 13.1094 15.6869C16.5891 13.8746 19.4143 15.2321 19.7313 19.1253C20.2687 25.7058 19.938 32.2657 18.1602 39.0668ZM14.1361 36.4139C13.447 36.4139 12.7097 36.3381 12 36.4346C11.2351 36.531 9.91901 36.6482 9.82943 36.9996C9.35398 38.9152 8.90609 40.8997 9.38154 42.9324C13.9638 41.8506 14.9767 40.4449 14.1361 36.4139ZM15.9139 25.6783C15.7278 23.6662 16.217 21.661 14.8045 19.9384C11.7588 20.9858 11.4832 23.742 10.2842 26.202C12.2274 26.0228 13.9018 25.8643 15.9139 25.6783ZM15.6382 28.9858C12.1516 28.7928 9.28507 31.0805 9.86388 33.7265C11.1042 33.2786 12.2963 32.7618 13.5435 32.4035C15.3695 31.8867 15.5349 30.5017 15.6382 28.9858Z" fill="#262626"/>
<path d="M292.228 60.483C287.701 59.8008 283.429 59.3598 279.26 58.4709C275.339 57.6303 273.699 55.5217 273.996 51.6078C274.444 45.6337 275.215 39.6733 275.973 33.7267C276.215 31.8386 277.041 30.3503 279.37 30.054C280.604 29.8955 281.727 28.9446 282.912 28.3726C287.054 26.3812 289.162 27.7387 288.645 32.2658C288.377 34.6224 287.743 36.979 286.971 39.2254C286.344 41.0583 284.828 42.1677 282.795 42.3331C281.224 42.464 280.328 43.2357 280.046 44.8344C279.736 46.5777 279.246 48.2797 278.888 50.0161C278.433 52.2211 279.143 53.4201 281.327 53.9782C282.65 54.3159 284.035 54.6604 285.379 54.6328C290.988 54.5088 296.597 54.3434 302.192 53.992C304.707 53.8335 306.912 52.6828 308.649 50.7672C309.069 50.2986 309.531 49.8714 309.992 49.4373C310.978 48.5002 311.998 47.5975 313.458 48.5277C314.664 49.2926 315.126 50.9946 314.389 52.5312C312.838 55.7491 310.296 58.1126 306.823 58.7465C301.937 59.6216 296.962 59.9455 292.228 60.483ZM282.754 38.0884C283.064 36.5932 283.284 35.532 283.539 34.2848C281.431 34.905 281.141 36.0901 282.754 38.0884Z" fill="#262626"/>
<path d="M284.028 16.8031C285.062 16.8513 285.93 16.6859 286.605 16.9684C287.398 17.2992 288.348 17.878 288.659 18.5946C289.113 19.6558 288.679 20.7927 287.439 21.2475C284.807 22.2053 282.14 23.0735 279.508 24.0244C273.237 26.2777 273.727 25.2648 271.852 32.307C270.309 38.1089 268.848 43.9315 267.249 49.7127C266.891 51.015 266.23 52.2622 265.52 53.4199C264.92 54.3915 263.962 54.9978 262.729 54.3983C261.496 53.7989 260.91 52.7859 261.303 51.4423C262.598 46.9358 263.873 42.4224 265.292 37.9504C266.312 34.7394 267.497 31.5697 268.731 28.4276C269.158 27.3388 269.034 26.6842 268.18 25.8987C266.781 24.6033 266.967 23.7281 268.662 22.9288C269.179 22.6877 269.716 22.4534 270.261 22.3087C274.464 21.22 276.8 18.2777 278.109 14.3707C278.309 13.7712 278.13 13.0477 278.123 12.3862C277.241 12.5722 276.062 12.4758 275.546 13.0132C274.664 13.9297 274.333 15.356 273.506 16.3552C272.927 17.058 271.949 17.7678 271.087 17.8504C269.11 18.0365 268.021 16.493 268.869 14.7083C270.088 12.1243 271.48 9.61614 272.948 7.16307C273.775 5.77806 274.829 5.84697 276.131 6.7841C276.724 7.21131 277.613 7.30778 278.385 7.38358C279.342 7.48005 280.39 7.15618 281.279 7.42492C284.91 8.51364 286.605 10.0158 284.938 14.0537C284.621 14.8668 284.386 15.735 284.028 16.8031Z" fill="#262626"/>
<path d="M359.17 18.8153C360.783 19.1047 362.182 19.3872 363.587 19.6077C364.897 19.8144 365.53 20.6137 364.986 21.7644C363.201 25.5336 361.355 29.2752 359.315 32.9066C358.991 33.4785 357.468 33.6921 356.6 33.5268C356.118 33.4372 355.546 32.2382 355.539 31.5285C355.518 30.1297 355.856 28.724 356.07 27.1805C355.077 27.1805 354.085 27.3527 353.189 27.1391C352.032 26.8635 350.557 26.5741 349.923 25.7472C349.034 24.5896 349.703 23.0943 350.612 21.978C351.591 20.7791 352.672 19.6697 353.692 18.5052C353.94 18.2227 354.106 17.8712 354.437 17.3613C353.313 17.4785 352.411 17.5405 351.522 17.6714C349.978 17.8919 349.027 17.2442 349.007 15.7145C348.993 14.7636 349.151 13.7644 349.455 12.8617C350.729 9.12702 352.101 5.41987 353.424 1.69893C353.906 0.334582 354.96 -0.147765 356.263 0.0382821C357.689 0.245001 358.847 1.08566 358.833 2.58781C358.826 3.85569 358.468 5.19248 357.958 6.36389C357.014 8.54822 355.842 10.643 354.533 13.2545C356.201 12.1727 357.406 11.2424 358.75 10.5878C359.474 10.2364 360.721 9.98146 361.196 10.3536C361.713 10.767 361.94 12.0624 361.706 12.7859C361.052 14.7773 360.094 16.6654 359.17 18.8153Z" fill="#262626"/>
<path d="M189.757 33.0786C188.269 34.3672 187.173 35.3594 186.036 36.3034C185.092 37.089 184.024 37.5093 182.894 36.7238C181.654 35.8624 181.881 34.6083 182.315 33.4714C182.674 32.5205 183.17 31.5765 183.797 30.7771C187.249 26.3465 190.736 21.9571 194.25 17.5747C195.001 16.6376 195.876 15.604 197.275 16.4998C198.619 17.3542 198.474 18.7874 197.936 19.8831C196.855 22.0812 195.538 24.1759 194.209 26.2362C193.271 27.6901 193.023 28.9029 193.836 30.6324C194.553 32.1622 194.663 34.0709 194.691 35.8211C194.822 43.766 193.175 51.5042 191.611 59.2354C191.459 59.9796 190.708 60.9305 190.026 61.1717C188.668 61.6541 187.697 60.6274 187.656 59.4077C187.545 56.3552 187.483 53.2682 187.8 50.2363C188.324 45.2475 189.185 40.2931 189.867 35.325C189.943 34.7324 189.812 34.1053 189.757 33.0786Z" fill="#262626"/>
<path d="M375.915 8.17618C380.056 7.45955 381.951 9.49918 380.842 13.2408C380.228 15.3011 379.305 17.2718 378.492 19.3597C378.905 19.6284 379.319 19.9316 379.753 20.1797C381.062 20.917 381.724 22.1228 381.331 23.4872C380.731 25.5406 379.96 27.5871 378.933 29.4544C378.568 30.1159 377.245 30.2538 376.363 30.6328C376.246 29.7439 375.88 28.7998 376.08 27.9867C376.411 26.6431 377.1 25.3821 377.638 24.0935C377.534 23.9557 377.431 23.8248 377.321 23.687C376.204 23.9971 375.081 24.2934 373.972 24.631C372.704 25.01 371.464 25.196 370.547 23.9488C369.644 22.7292 369.83 21.4751 370.582 20.2624C371.209 19.2563 371.87 18.271 372.304 17.0169C371.677 17.3269 371.064 17.6784 370.416 17.9333C369.038 18.4777 367.715 18.4157 366.592 17.3476C365.51 16.3209 365.751 15.1013 366.44 14.0608C368.549 10.8704 370.719 7.72141 372.959 4.62062C373.627 3.69728 374.647 2.80838 375.894 3.57324C377.059 4.28987 376.645 5.46128 376.294 6.52243C376.142 6.99789 376.066 7.49401 375.915 8.17618Z" fill="#262626"/>
<path d="M137.044 7.96248C141.323 7.10115 145.285 6.35697 149.227 5.50253C151.604 4.98574 152.824 5.20623 153.285 6.481C153.719 7.68686 152.755 8.9065 150.529 9.58179C146.078 10.9461 141.564 11.8557 136.851 11.1528C136.465 11.0977 135.714 11.7592 135.563 12.2278C134.86 14.3432 134.343 16.5207 133.695 18.6499C133.413 19.5732 133.027 20.4759 132.6 21.351C132.124 22.3363 131.408 23.0874 130.181 22.8462C128.892 22.5913 128.631 21.5232 128.7 20.4759C128.837 18.2571 128.906 16.0039 129.389 13.8471C130.181 10.2915 131.111 6.73595 132.303 3.29752C133.165 0.803114 134.674 -0.023756 136.176 0.493041C137.65 0.996057 138.243 2.92543 137.657 5.26824C137.471 6.01243 137.313 6.7704 137.044 7.96248Z" fill="#262626"/>
<path d="M140.166 19.6284C139.47 19.1392 138.464 18.7464 138.464 18.3605C138.471 17.258 138.664 16.0108 139.229 15.1012C139.573 14.55 140.731 14.4397 141.551 14.2675C143.081 13.9505 144.638 13.7507 146.174 13.4613C147.456 13.2201 148.724 12.724 150.006 12.7171C150.674 12.7102 151.832 13.4475 151.907 13.9712C152.004 14.6602 151.425 15.935 150.839 16.1486C147.367 17.4234 143.818 18.4708 140.166 19.6284Z" fill="#262626"/>
<path d="M205.041 31.0185C204.89 32.6584 204.821 34.326 204.552 35.9591C204.414 36.8342 204.132 37.8402 203.553 38.4466C203.057 38.9634 202.009 39.2528 201.279 39.1425C200.783 39.0667 200.128 38.1709 200.045 37.5715C199.508 33.8436 200.225 30.2674 201.761 26.8634C201.989 26.3604 202.857 25.7471 203.284 25.8436C203.856 25.9676 204.573 26.6705 204.71 27.2424C205 28.4483 204.945 29.7368 205.041 31.0185Z" fill="#262626"/>
</svg>
