<svg width="342" height="133" viewBox="0 0 342 133" fill="none" xmlns="http://www.w3.org/2000/svg">
<g filter="url(#filter0_d_689_5682)">
<path d="M28.3067 89.9446C28.5841 90.023 28.7364 90.0662 28.8888 90.1093C30.7054 90.6152 31.1312 92.1211 29.7873 93.4976C29.2013 94.0976 28.4747 94.5604 27.8183 95.0898C27.4941 95.3487 27.1776 95.6153 26.6893 96.0193C27.2909 96.3997 27.7363 96.7526 28.2403 96.9879C32.0181 98.7762 35.2294 101.376 38.3665 104.074C38.9486 104.576 39.4799 105.184 39.8901 105.835C40.3238 106.522 40.2417 107.294 39.6713 107.914C39.1166 108.518 38.4016 108.443 37.7844 108.098C37.0812 107.706 36.4131 107.223 35.7959 106.698C32.6978 104.059 29.6233 101.392 26.5369 98.737C25.4938 97.8389 25.2594 97.8311 24.4507 98.9252C23.5209 100.184 22.7396 101.553 21.7551 102.761C20.1338 104.753 18.4422 106.69 16.6959 108.569C16.1411 109.165 15.3676 109.635 14.6058 109.941C13.6174 110.337 12.7735 109.592 13.0548 108.576C13.2931 107.722 13.6916 106.839 14.2503 106.161C16.4459 103.498 18.7391 100.917 20.9894 98.3017C21.2121 98.0429 21.4191 97.7683 21.759 97.3409C20.9073 97.4624 20.2862 97.6075 19.6572 97.6311C18.1922 97.686 17.5437 97.333 17.3718 96.4781C17.1999 95.6153 17.696 95.0545 19.0556 94.5643C19.5751 94.3761 20.126 94.2388 20.5948 93.9682C20.8253 93.8349 21.048 93.4349 21.0324 93.1682C20.9386 91.5799 20.755 89.9956 20.6417 88.4073C20.5596 87.2465 20.3604 87.0504 19.2704 87.4778C18.5516 87.7602 17.8913 88.1994 17.2194 88.5916C16.6764 88.9093 16.1177 89.321 15.5473 88.7524C14.9379 88.1485 14.93 87.3602 15.3559 86.6817C15.6333 86.2425 16.1138 85.8621 16.5865 85.6307C17.6023 85.1248 18.6649 84.717 19.7236 84.2974C20.5128 83.9875 20.9894 83.462 21.2121 82.6306C21.4152 81.8816 21.6496 81.113 22.0286 80.4424C22.2239 80.0933 22.763 79.9404 23.1459 79.7012C23.2553 80.1051 23.3803 80.509 23.4701 80.9169C23.4936 81.0306 23.3959 81.1679 23.3881 81.2934C23.3569 81.8895 22.8138 82.5993 23.6616 83.0189C24.2984 83.3326 25.8025 82.8856 26.1072 82.2542C26.3963 81.6541 26.5252 80.9679 26.6932 80.3129C26.8377 79.7443 27.0135 79.2698 27.7441 79.2502C28.459 79.2306 28.7052 79.658 28.8614 80.2384C29.0294 80.858 29.0333 81.7012 29.4435 82.0228C29.8577 82.3522 30.6937 82.0973 31.3149 82.2267C31.7094 82.313 32.3306 82.6071 32.3579 82.8659C32.4165 83.3836 32.272 84.0346 31.9634 84.4464C31.6586 84.8542 31.0804 85.1091 30.5726 85.2974C29.299 85.7798 28.6622 86.6778 28.545 88.0112C28.4981 88.6347 28.3965 89.2426 28.3067 89.9446ZM23.7592 92.0741C24.0171 91.9407 24.146 91.9172 24.1695 91.8544C24.7555 90.2387 25.3415 88.6269 25.8806 86.9955C25.9314 86.8386 25.7322 86.47 25.5603 86.3837C24.5445 85.8817 23.1303 86.87 23.224 88.0112C23.2904 88.8191 23.4467 89.623 23.5561 90.4309C23.6225 90.9525 23.685 91.4701 23.7592 92.0741Z" fill="white"/>
<path d="M270.332 85.7328C271.414 85.5995 272.407 85.5015 273.391 85.3524C274.493 85.1877 275.489 85.3877 276.223 86.2583C276.962 87.1289 276.774 88.1251 276.282 89.0114C275.528 90.3722 274.68 91.6859 273.836 92.9958C273.633 93.3134 273.317 93.7213 273 93.7762C272.379 93.8821 271.633 93.9566 271.102 93.7017C270.43 93.3801 270.641 92.6193 270.93 92.0546C271.242 91.4506 271.653 90.8977 272.004 90.3094C272.211 89.9604 272.387 89.5918 272.586 89.2074C271.336 88.8663 270.617 89.2663 270.434 90.3643C270.223 91.6467 270.074 92.9409 269.867 94.2233C269.805 94.5997 269.727 95.0547 269.484 95.3057C269.133 95.6664 268.605 96.1096 268.183 96.0821C267.777 96.0547 267.211 95.537 267.066 95.1174C266.824 94.3997 266.836 93.588 266.793 92.8154C266.765 92.3095 266.828 91.7997 266.851 91.2899C265.48 91.2389 265.234 91.4075 265.234 92.5566C265.234 94.6076 265.179 96.6704 265.351 98.7097C265.585 101.51 266.918 102.753 269.715 103.055C273.336 103.447 276.907 103.02 280.458 102.325C281.88 102.047 282.767 101.235 283.22 99.8783C284.06 97.3606 284.646 94.7998 284.584 92.1212C284.568 91.3761 284.584 90.6192 284.697 89.882C284.807 89.1878 285.111 88.5408 285.982 88.5368C286.901 88.5329 287.158 89.278 287.194 89.929C287.287 91.5761 287.385 93.2468 287.194 94.8743C286.975 96.7371 286.518 98.5842 286.037 100.404C285.357 102.996 283.67 104.682 281.142 105.549C277.216 106.898 273.2 107.584 269.059 106.945C264.761 106.282 262.355 103.749 261.925 99.4038C261.726 97.3998 261.765 95.3723 261.73 93.3527C261.718 92.6428 261.644 92.0742 260.8 91.882C260.593 91.835 260.331 91.4153 260.343 91.18C260.354 90.9291 260.628 90.529 260.851 90.482C262.085 90.2153 262.265 89.3329 262.319 88.278C262.362 87.4701 262.484 86.6544 262.694 85.8779C262.796 85.5093 263.21 84.9406 263.448 84.9563C263.89 84.9877 264.48 85.2779 264.695 85.6466C265.05 86.2466 265.187 86.9838 265.355 87.678C265.554 88.4937 266.035 88.5957 266.488 88.0192C267.074 87.274 267.574 86.4309 267.937 85.5564C268.203 84.9171 267.867 83.9445 268.973 83.8622C270.156 83.7877 270.207 84.6975 270.332 85.7328Z" fill="white"/>
<path d="M108.309 100.365C107.793 101.031 107.426 101.517 107.047 101.996C106.422 102.788 105.851 103.635 105.144 104.345C104.707 104.784 104.097 105.149 103.503 105.306C102.601 105.545 102.109 104.929 102.48 104.07C102.8 103.329 103.23 102.627 103.679 101.953C104.492 100.733 105.32 99.5213 106.211 98.3566C106.652 97.7762 106.707 97.2664 106.32 96.6742C106.25 96.5644 106.207 96.4389 106.136 96.3291C104.14 93.2427 102.73 89.8936 101.792 86.3445C101.569 85.5092 101.136 85.1837 100.237 85.317C98.9207 85.5131 97.5924 85.6386 96.2641 85.6974C95.3148 85.7406 95.0843 86.2465 94.9983 87.07C94.7249 89.725 94.5061 92.3917 94.0763 95.0232C93.4278 98.9645 92.6231 102.878 91.8691 106.8C91.7831 107.243 91.662 107.71 91.4198 108.078C91.2596 108.322 90.8377 108.549 90.572 108.51C90.3025 108.471 90.0056 108.129 89.8727 107.847C89.7438 107.573 89.7829 107.208 89.8024 106.886C90.1267 100.839 90.5759 94.8036 91.8769 88.8661C92.0214 88.1995 92.2753 87.5485 92.373 86.8778C92.6816 84.7562 94.2287 83.6974 95.8734 82.7405C96.1821 82.5601 96.6899 82.4424 96.9829 82.5758C98.2175 83.1248 99.0848 82.4189 100.069 81.8973C99.8856 81.4698 99.6122 81.1169 99.6161 80.7639C99.62 80.3247 99.745 79.7757 100.03 79.4855C100.21 79.3012 100.784 79.4972 101.179 79.5443C101.265 79.5561 101.358 79.6345 101.413 79.709C102.21 80.7443 103.218 81.2502 104.566 81.2659C104.984 81.2698 105.609 81.8659 105.742 82.3091C105.859 82.6934 105.515 83.3366 105.191 83.7052C104.812 84.1366 104.378 84.3993 104.707 85.0856C105.992 87.7877 107.234 90.5132 108.512 93.2192C108.66 93.5329 108.898 93.8035 109.168 94.1918C109.57 93.8271 109.891 93.5212 110.227 93.2388C110.649 92.8819 111.039 92.4349 111.528 92.2231C111.946 92.0427 112.481 92.1447 112.965 92.1211C112.895 92.5368 112.926 93.0114 112.731 93.3565C112.204 94.2898 111.575 95.1683 110.989 96.0663C110.586 96.686 110.531 97.2938 110.883 97.988C112.196 100.608 113.493 103.235 114.747 105.882C115.556 107.584 116.282 109.326 117.036 111.055C117.321 111.71 117.333 112.333 116.653 112.777C115.966 113.228 115.356 112.933 114.919 112.416C114.227 111.6 113.508 110.769 113.016 109.828C111.594 107.118 110.281 104.353 108.926 101.608C108.742 101.263 108.578 100.917 108.309 100.365Z" fill="white"/>
<path d="M315.939 95.5176C316.634 95.0863 317.087 94.8549 317.482 94.549C318.74 93.5686 319.967 92.5489 321.221 91.5646C321.549 91.3058 321.92 91.0705 322.307 90.9253C322.991 90.6744 323.647 91.0783 323.565 91.792C323.487 92.4744 323.201 93.1568 322.885 93.7725C322.604 94.3137 322.151 94.7647 321.768 95.251C321.389 95.7294 321.006 96.2039 320.537 96.7843C321.404 97.4549 322.213 98.0432 322.983 98.6785C324.663 100.067 326.366 101.428 327.968 102.902C328.796 103.663 329.355 104.639 328.737 105.879C328.358 106.64 327.804 106.914 327.077 106.538C326.303 106.138 325.546 105.671 324.87 105.126C322.944 103.573 321.088 101.934 319.154 100.388C318.451 99.8276 317.654 99.3413 316.83 98.9805C315.872 98.5609 315.536 98.8393 315.509 99.906C315.447 102.483 315.454 105.059 315.318 107.632C315.232 109.216 314.958 110.793 314.712 112.365C314.646 112.8 314.439 113.244 314.204 113.624C313.739 114.389 312.946 114.389 312.505 113.601C312.29 113.22 312.126 112.738 312.138 112.31C312.263 108.24 312.423 104.169 312.591 100.098C312.735 96.6157 312.892 93.1293 313.056 89.6469C313.099 88.7527 312.708 88.388 311.825 88.4939C311.18 88.5684 310.532 88.6429 309.883 88.6625C308.754 88.6939 308.258 88.1998 308.239 87.086C308.219 86.0272 308.86 85.3095 309.864 85.2781C310.122 85.2703 310.384 85.3056 310.637 85.3448C312.325 85.5919 313.11 85.2115 313.857 83.6742C314.208 82.9526 314.614 82.3604 315.493 82.3682C316.154 82.3761 316.767 82.5486 316.74 83.3918C316.72 84.0193 317.072 84.0546 317.545 84.0585C318.244 84.0663 318.963 84.1016 319.119 85.0075C319.264 85.8507 318.842 86.4625 318.103 86.686C316.001 87.3292 315.411 88.7488 315.677 90.8077C315.876 92.2509 315.853 93.7215 315.939 95.5176Z" fill="white"/>
<path d="M67.827 81.3288C68.2684 84.9171 68.8114 88.4937 69.1201 92.0899C69.5108 96.5998 69.8584 101.121 69.9249 105.643C69.96 107.922 69.4482 110.232 68.9716 112.487C68.6161 114.161 67.616 114.808 66.2252 114.714C65.2524 114.651 64.8891 114.251 64.9711 113.263C65.0024 112.879 65.1548 112.506 65.2134 112.122C65.4595 110.522 65.9322 108.91 65.8775 107.318C65.7056 102.337 65.3657 97.3645 65.0297 92.3918C64.8188 89.2388 64.4906 86.0975 64.2328 82.9484C64.1273 81.6386 63.8772 81.368 62.6075 81.5798C60.6854 81.9013 58.7594 82.2347 56.8608 82.6778C56.2083 82.8308 55.5833 83.2543 55.0402 83.6779C54.4972 84.1053 54.0049 84.2073 53.4463 83.8308C52.8407 83.4229 52.6845 82.7759 53.04 82.2033C53.3877 81.6464 53.8799 81.0778 54.4464 80.7758C58.15 78.8228 62.0841 77.6855 66.2994 77.7365C67.616 77.7522 67.9754 78.1444 68.0301 79.4385C68.0574 80.0581 68.034 80.6778 68.034 81.2974C67.9715 81.3092 67.9012 81.3209 67.827 81.3288Z" fill="white"/>
<path d="M187.142 100.047C187.142 99.1798 187.15 98.5014 187.142 97.8269C187.127 96.7602 186.892 96.5602 185.826 96.7955C182.845 97.4465 179.868 98.1132 176.895 98.7955C175.688 99.074 175.066 98.8896 174.75 98.0779C174.441 97.2818 174.723 96.4425 175.735 96.0072C177.305 95.3288 178.942 94.7915 180.579 94.2738C182.247 93.7444 183.958 93.3365 185.63 92.8189C186.443 92.5679 187.173 92.2149 187.291 91.1482C187.326 90.8345 187.912 90.4031 188.279 90.3639C188.572 90.3325 189.127 90.7678 189.201 91.0855C189.396 91.9051 189.861 91.9796 190.549 91.9169C192.162 91.764 193.776 91.6267 195.393 91.5404C195.932 91.513 196.53 91.5522 197.014 91.7679C197.421 91.9483 197.96 92.4189 197.964 92.7679C197.968 93.1914 197.515 93.6542 197.182 94.0385C197.034 94.2111 196.718 94.2503 196.464 94.313C194.514 94.8072 192.569 95.3405 190.6 95.7601C189.893 95.9131 189.682 96.2033 189.728 96.87C189.9 99.274 190.107 101.678 190.182 104.09C190.236 105.972 190.166 107.862 190.033 109.741C189.982 110.463 189.682 111.2 189.361 111.866C188.916 112.796 187.791 113.219 186.978 112.882C186.271 112.592 186.119 111.992 186.748 111.565C187.584 110.992 187.81 110.215 187.818 109.298C187.83 107.862 187.822 106.431 187.841 104.996C187.849 104.262 187.521 103.913 186.794 103.721C185.232 103.302 183.661 102.862 182.169 102.251C181.509 101.98 180.852 101.372 180.497 100.745C179.926 99.7485 180.473 98.9524 181.61 99.0504C182.7 99.1446 183.775 99.4465 184.857 99.6504C185.56 99.772 186.279 99.8936 187.142 100.047Z" fill="white"/>
<path d="M151.673 94.7211C151.322 96.0271 150.997 97.3447 150.603 98.6389C150.396 99.3134 150.482 99.7644 151.177 100.035C154.478 101.317 157.119 103.612 159.889 105.718C161.311 106.8 162.8 107.792 164.241 108.855C164.894 109.333 165.558 109.824 166.105 110.412C166.663 111.008 166.761 111.882 166.292 112.49C165.995 112.879 165.237 113.059 164.683 113.063C163.218 113.071 162.003 112.329 160.905 111.431C158.666 109.596 156.482 107.69 154.213 105.894C152.837 104.808 151.337 103.878 149.9 102.874C149.38 102.514 149.075 102.631 148.774 103.212C147.903 104.886 146.973 106.529 146.051 108.176C145.86 108.514 145.665 108.906 145.364 109.11C144.922 109.408 144.297 109.831 143.899 109.714C143.18 109.498 142.625 108.808 142.797 107.972C142.949 107.223 143.262 106.482 143.645 105.816C144.547 104.231 145.563 102.714 146.473 101.133C147.259 99.7762 147.184 99.4428 146.153 98.2781C145.805 97.8899 145.391 97.533 145.157 97.082C144.977 96.733 145.028 96.2663 144.977 95.8506C145.454 95.7918 145.993 95.5721 146.391 95.7212C146.876 95.9016 147.247 96.3957 147.669 96.7526C148.446 97.4153 148.813 97.3173 149.056 96.3016C149.294 95.2859 149.403 94.2388 149.685 93.2387C149.794 92.8505 150.196 92.3015 150.517 92.2622C151.197 92.1799 151.392 92.8034 151.435 93.3956C151.466 93.8152 151.443 94.2427 151.443 94.6662C151.513 94.6819 151.591 94.7015 151.673 94.7211Z" fill="white"/>
<path d="M232.164 109.098C235.687 110.321 239.051 111.49 242.415 112.659C242.934 112.839 243.485 112.953 243.977 113.188C245.028 113.686 245.579 114.945 245.208 115.875C244.896 116.651 243.462 117.239 242.509 116.894C241.505 116.529 240.52 116.09 239.555 115.631C236.801 114.318 234.047 112.988 231.316 111.627C230.534 111.239 229.964 111.251 229.222 111.831C228.21 112.62 227.057 113.255 225.893 113.796C225.389 114.031 224.667 113.976 224.104 113.827C223.76 113.737 223.338 113.251 223.291 112.894C223.244 112.541 223.522 112.012 223.827 111.772C224.381 111.337 225.069 111.074 225.682 110.71C226.089 110.467 226.467 110.176 227.046 109.784C226.366 109.306 225.85 108.941 225.335 108.576C224.885 108.259 224.389 107.984 223.991 107.612C223.319 106.976 223.479 106.204 224.225 105.694C224.569 105.459 224.752 104.996 225.061 104.686C225.491 104.247 225.905 103.623 226.432 103.486C228.12 103.047 229.843 102.647 231.574 102.502C233.886 102.309 234.875 103.839 233.914 105.964C233.461 106.961 232.847 107.886 232.164 109.098ZM227.182 106.321C228.937 107.859 229.386 107.863 230.859 106.451C231.093 106.227 231.324 105.984 231.48 105.71C231.621 105.459 231.656 105.153 231.785 104.71C230.011 104.882 228.503 105.153 227.182 106.321Z" fill="white"/>
<path d="M228.436 91.8233C228.061 91.8703 227.678 91.984 227.319 91.9409C226.877 91.886 226.108 91.7448 226.08 91.5605C226.01 91.035 226.108 90.3683 226.409 89.9526C226.702 89.5487 227.319 89.3761 227.807 89.1291C228.327 88.8663 228.897 88.6859 229.374 88.3604C229.569 88.2271 229.577 87.8114 229.667 87.5251C229.397 87.5016 229.104 87.3918 228.866 87.4663C228.374 87.6192 227.924 87.9722 227.432 88.0467C226.987 88.1133 226.502 87.9173 226.034 87.8349C226.159 87.2663 226.108 86.5211 226.452 86.1682C226.944 85.6584 227.713 85.4035 228.389 85.0936C229.866 84.4191 229.847 84.4309 229.737 82.8308C229.702 82.2936 229.706 81.6661 229.952 81.2229C230.171 80.8269 230.714 80.4778 231.171 80.3798C231.796 80.2425 232.312 80.6151 232.452 81.2975C232.55 81.772 232.597 82.2622 232.613 82.7446C232.64 83.4858 232.925 83.772 233.718 83.6701C234.304 83.5956 234.945 83.6701 235.515 83.8426C235.808 83.9328 236.144 84.3564 236.183 84.6662C236.215 84.9172 235.894 85.3329 235.625 85.474C234.968 85.8192 234.226 86.0035 233.562 86.3407C233.261 86.4937 233.066 86.8506 232.824 87.1133C233.105 87.1878 233.386 87.3055 233.671 87.3329C234.332 87.3918 234.585 87.8976 234.164 88.5134C233.855 88.9643 233.413 89.3212 233.054 89.7408C232.093 90.8664 232.206 91.5448 233.449 92.2625C234.07 92.6233 234.042 93.4311 233.37 93.8272C233.038 94.0233 232.616 94.0978 232.331 94.341C232.093 94.5449 231.866 94.9175 231.874 95.2116C231.878 95.3998 232.292 95.6312 232.562 95.7489C232.82 95.8626 233.167 95.7998 233.413 95.9293C233.742 96.1018 234.234 96.3685 234.257 96.6273C234.289 96.9999 233.984 97.4195 233.773 97.792C233.71 97.9058 233.495 97.9646 233.339 97.9921C231.3 98.3646 229.264 98.7568 227.221 99.0784C226.534 99.1882 225.78 99.1137 225.639 98.196C225.502 97.2744 226.272 97.192 226.885 97.0077C227.588 96.7959 228.253 96.5842 228.382 95.6939C228.487 94.9763 228.311 94.5841 227.506 94.541C227.19 94.5214 226.893 94.2429 226.584 94.0821C226.795 93.686 226.928 93.1958 227.245 92.9135C227.612 92.5841 228.139 92.439 228.596 92.2154C228.542 92.0899 228.487 91.9566 228.436 91.8233Z" fill="white"/>
<path d="M133.417 88.96C132.12 88.8619 131.053 88.811 129.994 88.6855C129.334 88.607 128.647 88.3992 128.611 87.5756C128.572 86.7599 129.127 86.356 129.862 86.1913C132.131 85.6815 134.405 85.1756 136.679 84.6775C136.898 84.6304 137.155 84.603 137.355 84.6775C137.863 84.8697 138.601 85.003 138.781 85.3834C139.105 86.0697 138.968 86.9638 138.159 87.3207C136.503 88.0541 135.835 89.5208 135.003 90.9757C133.034 94.419 130.889 97.7563 128.822 101.145C128.248 102.09 127.732 103.074 127.131 103.996C126.514 104.941 125.701 105.282 125.006 104.886C124.189 104.419 124.084 103.643 124.24 102.764C124.634 100.513 125.799 98.6348 127.146 96.8739C128.869 94.6307 130.686 92.462 132.46 90.2541C132.753 89.8855 133.022 89.4933 133.417 88.96Z" fill="white"/>
<path d="M298.242 96.2544C297.413 96.3367 296.734 96.4622 296.062 96.4426C295.651 96.4309 294.999 96.2897 294.901 96.0348C294.765 95.6779 294.901 94.9955 295.179 94.7524C295.772 94.2347 296.55 93.9406 297.218 93.5014C297.62 93.2386 297.995 92.9092 298.308 92.5445C298.48 92.3405 298.515 92.0033 298.581 91.7209C299.081 89.5287 299.081 89.5326 296.933 88.8973C296.624 88.8071 296.198 88.7522 296.05 88.5326C295.761 88.0894 295.479 87.5482 295.464 87.0424C295.444 86.4031 296.062 86.4031 296.566 86.3874C298.12 86.3404 299.675 86.2659 301.234 86.2384C301.609 86.2306 302.031 86.2972 302.355 86.4698C303.207 86.9208 303.215 87.8385 302.465 88.4502C301.902 88.9091 301.222 89.3522 300.906 89.964C300.382 90.9876 300.886 91.7366 302.015 91.9013C302.652 91.9954 303.391 92.117 303.336 92.8896C303.297 93.4543 302.914 94.0543 302.539 94.5171C302.187 94.9485 301.375 95.1367 301.234 95.5838C300.902 96.6387 300.851 97.7799 300.652 99.1329C301.496 98.8623 302.094 98.6544 302.699 98.478C303.348 98.2897 304 98.0427 304.664 97.9995C305.004 97.976 305.574 98.2584 305.672 98.5368C305.793 98.878 305.649 99.4466 305.41 99.7525C305.106 100.145 304.633 100.502 304.164 100.647C301.633 101.435 299.093 102.211 296.523 102.851C295.858 103.015 295.042 102.753 294.35 102.521C294.057 102.423 293.733 101.894 293.745 101.568C293.753 101.251 294.108 100.811 294.421 100.67C294.905 100.447 295.483 100.407 296.023 100.325C297.445 100.105 297.847 99.7368 298.132 98.3172C298.191 98.0309 298.218 97.7368 298.234 97.4466C298.253 97.0858 298.242 96.7328 298.242 96.2544Z" fill="white"/>
<path d="M147.606 85.8113C146.133 85.6074 144.645 85.4937 143.196 85.176C141.813 84.8741 141.07 83.7407 141.465 82.3759C141.816 81.1563 142.453 79.9994 143.106 78.9013C143.512 78.215 144.266 78.0346 144.961 78.5915C145.618 79.121 145.801 79.8072 145.352 80.5837C145.286 80.6975 145.176 80.7916 145.141 80.9092C145.047 81.2269 144.828 81.7406 144.938 81.8348C145.2 82.0544 145.645 82.1838 145.985 82.1328C146.258 82.0936 146.606 81.7799 146.7 81.5093C146.876 80.9955 146.883 80.423 146.977 79.8778C147.184 78.6817 147.387 77.4464 148.509 76.7405C148.911 76.4856 149.595 76.3052 149.97 76.4777C150.642 76.7836 150.993 77.4738 150.747 78.2856C150.497 79.0935 150.165 79.8739 149.954 80.6896C149.853 81.0936 149.95 81.5446 149.962 81.9759C150.622 81.9171 151.318 81.9642 151.923 81.7485C152.212 81.6465 152.443 81.0543 152.486 80.6622C152.525 80.3131 152.275 79.9288 152.146 79.5602C151.861 78.7523 152.263 78.1013 153.087 78.2699C153.654 78.3876 154.427 78.7876 154.603 79.2504C155.056 80.4386 155.298 81.7249 155.486 82.9917C155.607 83.8074 154.994 84.3721 154.287 84.5799C152.927 84.976 151.54 85.2937 150.142 85.5211C149.317 85.6545 148.458 85.5447 147.614 85.5447C147.618 85.6388 147.614 85.7251 147.606 85.8113Z" fill="white"/>
<path d="M152.474 87.0542C153.103 87.1052 153.591 87.1091 154.072 87.1915C154.962 87.3444 155.236 88.0856 154.591 88.7248C154.216 89.0974 153.696 89.3994 153.185 89.5445C151.349 90.0739 149.508 90.5994 147.637 90.972C146.36 91.2269 145.598 91.8975 145.258 93.0975C144.43 96.0035 143.621 98.9134 142.805 101.819C142.41 103.231 142.043 104.647 141.609 106.047C141.461 106.533 141.25 107.078 140.894 107.404C140.593 107.674 139.996 107.835 139.617 107.729C139.324 107.647 138.941 107.047 138.984 106.729C139.191 105.161 139.39 103.564 139.843 102.055C140.742 99.0663 141.793 96.125 142.816 93.1759C143.078 92.423 143.25 91.7877 142.594 91.121C142.086 90.6072 142.281 90.0033 142.91 89.7915C146.094 88.7209 149.184 87.2817 152.474 87.0542Z" fill="white"/>
<path d="M229.839 75.1836C230.62 75.1326 231.226 75.0698 231.835 75.062C232.531 75.0502 233.058 75.3443 233.136 76.0973C233.21 76.8307 232.812 77.2738 232.109 77.4072C231.441 77.5326 230.761 77.666 230.085 77.6895C229.132 77.7209 228.608 78.2033 228.288 79.0543C227.932 79.9955 227.538 80.9288 227.12 81.8426C226.932 82.2504 226.729 82.7406 226.381 82.9642C226.026 83.1916 225.42 83.3093 225.061 83.1563C224.784 83.0387 224.526 82.3916 224.584 82.0387C224.737 81.1484 225.108 80.2974 225.323 79.4151C225.385 79.1641 225.213 78.8582 225.147 78.5797C224.92 78.768 224.584 78.917 224.487 79.1601C224.244 79.7602 224.123 80.4072 223.928 81.0269C223.74 81.619 223.319 82.074 222.709 81.8426C222.373 81.7132 222.127 81.1837 221.975 80.7837C221.779 80.2661 221.717 79.7013 221.6 79.1562C221.193 79.4935 220.767 79.8072 220.385 80.168C219.806 80.7092 219.291 80.6504 218.791 80.0778C217.802 78.9405 218.146 77.5679 219.553 77.0542C219.888 76.9326 220.228 76.8189 220.576 76.7444C221.389 76.5718 221.893 76.1052 222.088 75.2855C222.162 74.9757 222.256 74.5796 222.479 74.4149C222.819 74.1678 223.291 73.96 223.686 73.9953C223.944 74.0188 224.182 74.4855 224.393 74.7796C224.655 75.1404 224.959 75.8738 225.108 75.8385C225.592 75.7287 226.053 75.3875 226.444 75.0424C226.721 74.7914 226.854 74.3835 227.073 74.062C227.682 73.1639 228.554 72.7717 229.288 73.0737C230.269 73.4698 230.12 74.2541 229.839 75.1836Z" fill="white"/>
<path d="M256.526 95.2075C256.854 95.0624 257.166 94.8231 257.491 94.8075C258.108 94.7722 258.803 94.6976 259.335 94.9369C260.3 95.3761 260.378 96.2036 259.647 96.9957C259.342 97.3291 259.007 97.6703 258.62 97.8938C256.655 99.0311 254.67 100.145 252.678 101.235C252.314 101.435 251.881 101.608 251.478 101.608C251.045 101.608 250.611 101.388 250.177 101.263C250.361 100.855 250.447 100.345 250.752 100.063C251.513 99.3566 252.392 98.7801 253.182 98.1017C254.107 97.3056 254.279 96.2506 253.611 95.2192C253.447 94.9643 252.994 94.7761 252.666 94.7682C251.924 94.7486 251.174 94.8624 250.427 94.9094C249.873 94.9447 249.255 94.8506 249.24 94.2035C249.228 93.7015 249.443 93.0545 249.794 92.7133C250.213 92.3054 250.865 92.1172 251.439 91.9054C252.236 91.6113 252.76 91.1172 252.943 90.2701C253.014 89.9563 253.135 89.6465 253.283 89.3563C253.74 88.4622 254.549 88.3288 255.123 89.1289C255.51 89.6661 255.92 89.772 256.518 89.7289C257.061 89.6897 257.639 89.6936 258.159 89.8308C259.221 90.1171 259.467 91.0622 258.686 91.8387C258.252 92.2701 257.702 92.5799 257.209 92.9525C256.362 93.6035 256.205 94.0859 256.526 95.2075Z" fill="white"/>
<path d="M98.0771 94.2936C101.308 95.9211 101.859 98.3682 101.089 101.431C100.937 102.031 100.777 102.631 100.558 103.208C100.163 104.243 98.8936 104.847 97.9169 104.4C97.159 104.055 96.448 103.58 95.7799 103.082C95.5377 102.902 95.3267 102.478 95.3502 102.184C95.4713 100.529 95.5416 98.8545 95.8815 97.2427C96.0808 96.3094 96.7566 95.4819 97.2606 94.5211C96.9402 94.4779 96.5339 94.4975 96.2018 94.3524C95.8034 94.1799 95.1314 93.8034 95.1627 93.623C95.2525 93.121 95.5338 92.4622 95.944 92.2426C97.2176 91.5524 98.5732 91.0033 99.925 90.4739C100.515 90.2425 101.171 90.1053 101.804 90.0778C102.124 90.0621 102.667 90.3288 102.738 90.5719C102.828 90.8896 102.664 91.4778 102.406 91.6661C101.304 92.4622 100.132 93.1563 98.9756 93.874C98.7256 94.0269 98.4521 94.1211 98.0771 94.2936ZM97.8544 100.345C97.9911 100.384 98.1318 100.419 98.2685 100.458C98.456 99.8036 98.6436 99.1447 98.8311 98.4898C98.6709 98.4467 98.5068 98.4035 98.3467 98.3604C98.1826 99.0192 98.0185 99.682 97.8544 100.345Z" fill="white"/>
<path d="M192.854 86.7368C192.85 86.8191 192.85 87.0466 192.819 87.274C192.674 88.2897 191.885 88.6701 191.178 87.9446C190.182 86.9211 189.002 86.776 187.705 86.7877C186.017 86.8073 184.33 86.776 182.638 86.7838C181.388 86.7917 180.888 87.325 180.591 88.5407C180.282 89.7878 179.891 91.031 179.356 92.1957C179.173 92.5918 178.423 92.9761 177.973 92.9369C177.254 92.8742 176.77 92.231 176.86 91.4545C177.125 89.1211 177.969 86.9838 179.333 85.0818C179.528 84.8073 180.165 84.823 180.602 84.7641C181.048 84.7014 181.552 84.8347 181.939 84.67C183.642 83.9563 185.287 83.0465 187.197 83.0582C188.197 83.0661 189.209 83.1053 190.19 83.2857C192.205 83.6582 192.862 84.5328 192.854 86.7368Z" fill="white"/>
<path d="M131.303 102.051C131.682 100.274 131.995 98.4781 132.464 96.7251C132.788 95.5055 133.163 95.4035 134.397 95.7212C134.729 95.8074 135.124 95.8427 135.444 95.7486C138.202 94.9564 139.406 96.831 138.992 99.1252C138.531 101.666 136.96 103.561 134.636 104.667C132.792 105.545 131.596 104.714 131.487 102.67C131.475 102.474 131.487 102.278 131.487 102.086C131.424 102.074 131.362 102.063 131.303 102.051ZM134.097 100.788C134.296 100.866 134.491 100.949 134.69 101.027C135.061 100.274 135.464 99.533 135.78 98.7605C135.843 98.6114 135.636 98.231 135.464 98.1487C135.315 98.0781 134.897 98.235 134.843 98.384C134.554 99.1683 134.339 99.984 134.097 100.788Z" fill="white"/>
<path d="M47.5899 94.2348C47.5899 91.9916 47.5195 89.7445 47.6289 87.5052C47.668 86.7052 48.0626 85.8855 48.4572 85.1639C48.6212 84.8698 49.2151 84.709 49.6175 84.7012C49.762 84.6973 50.0394 85.3169 50.0511 85.6581C50.2074 89.7562 50.3715 93.8544 50.4261 97.9525C50.4457 99.4389 50.2152 100.933 50.0316 102.415C49.9612 102.957 49.887 103.588 49.0236 103.588C48.1642 103.588 48.0001 103.098 47.9532 102.415C47.7696 99.6899 47.5781 96.9682 47.3867 94.2426C47.4531 94.2387 47.5234 94.2348 47.5899 94.2348Z" fill="white"/>
<path d="M54.665 98.4622C54.9033 96.8583 55.0557 95.2347 55.3995 93.6582C55.6729 92.4111 56.1535 92.2621 57.3685 92.564C57.7865 92.6699 58.2709 92.6072 58.7085 92.5287C61.2088 92.0856 62.6035 93.6268 61.8612 96.0779C61.6698 96.7093 61.451 97.2112 62.0292 97.8348C62.4472 98.2858 62.162 99.023 61.5877 99.2034C59.6812 99.8035 57.7474 100.317 55.8019 100.772C55.5636 100.827 55.044 100.352 54.919 100.023C54.7393 99.5603 54.8057 98.9995 54.7705 98.4819C54.7353 98.4779 54.7002 98.4701 54.665 98.4622ZM57.4036 97.7054C57.5443 97.7485 57.681 97.7877 57.8216 97.8309C58.0795 97.1681 58.3764 96.5171 58.5718 95.8386C58.6304 95.6426 58.4037 95.3602 58.3061 95.121C58.056 95.2347 57.7045 95.2818 57.5716 95.4739C57.0911 96.1798 57.0286 96.9485 57.4036 97.7054Z" fill="white"/>
<path d="M220.49 100.474C220.767 98.392 221.037 96.392 221.291 94.3919C221.349 93.9409 221.377 93.4821 221.381 93.0272C221.384 92.133 220.947 91.882 220.154 92.3291C219.759 92.5526 219.412 92.8585 219.013 93.0742C218.486 93.3605 218.216 93.1174 218.181 92.5644C218.169 92.4036 218.165 92.2271 218.224 92.082C219.13 89.7918 220.552 87.8819 222.51 86.3995C223.158 85.9093 223.811 86.1485 224.322 86.7329C224.85 87.3329 224.697 87.9447 223.982 88.2976C223.521 88.5251 223.002 88.7133 222.662 89.0663C222.232 89.5133 221.736 90.0781 222.752 90.5761C223.06 90.7291 223.295 91.2389 223.377 91.6232C224.072 94.8233 224.197 98.0077 222.967 101.125C222.885 101.337 222.822 101.596 222.666 101.729C222.345 102 221.943 102.404 221.611 102.369C221.283 102.337 220.923 101.882 220.716 101.529C220.541 101.216 220.552 100.784 220.49 100.474Z" fill="white"/>
<path d="M207.403 107.577C207.281 106.016 207.824 104.698 208.77 103.498C209.071 103.118 209.317 102.694 209.571 102.279C210.016 101.549 210.461 101.494 211.157 102.043C211.559 102.361 211.989 102.679 212.454 102.886C213.407 103.314 213.708 104.059 213.849 105.043C214.239 107.824 213.048 109.706 210.669 110.938C210.168 111.196 209.571 111.342 209.004 111.389C208.211 111.455 207.723 111.051 207.664 110.196C207.594 109.322 207.488 108.447 207.403 107.577ZM210.075 107.706C210.219 107.745 210.36 107.785 210.504 107.824C210.813 107.071 211.161 106.326 211.395 105.549C211.454 105.357 211.133 105.055 210.985 104.8C210.836 104.894 210.586 104.961 210.563 105.079C210.375 105.949 210.235 106.832 210.075 107.706Z" fill="white"/>
<path d="M53.2857 91.2856C53.063 91.0582 52.6372 90.7915 52.4614 90.4111C52.0356 89.5013 52.3872 88.313 53.4303 87.8345C55.5751 86.8502 57.7707 85.9639 60.0092 85.2227C61.0836 84.8658 62.0642 85.5521 62.6736 86.4463C62.8885 86.7639 62.8416 87.5287 62.5994 87.8306C62.1931 88.3287 61.5758 88.7601 60.9625 88.9718C58.6966 89.7483 56.3994 90.4229 54.11 91.1288C53.9186 91.1837 53.7233 91.2033 53.2857 91.2856Z" fill="white"/>
<path d="M305.696 102.294C305.492 102.133 304.981 101.914 304.852 101.557C304.758 101.294 305.086 100.725 305.379 100.513C306.375 99.7919 307.469 99.1997 308.477 98.4938C309.391 97.8546 309.352 97.5683 308.454 96.9408C307.95 96.5879 307.426 96.2388 307.008 95.7957C306.227 94.9643 306.344 93.8192 307.235 93.1368C307.36 93.0388 307.622 92.9878 307.754 93.0505C308.919 93.6035 310.134 94.0898 311.196 94.7996C311.985 95.329 312.329 96.2624 311.86 97.2232C310.728 99.5448 308.852 101.086 306.555 102.157C306.383 102.239 306.172 102.223 305.696 102.294Z" fill="white"/>
<path d="M320.842 82.0857C320.928 80.721 321.006 79.3562 321.108 77.9954C321.131 77.6738 321.198 77.3483 321.288 77.0385C321.491 76.3483 321.971 75.7757 322.671 75.9522C323.096 76.0581 323.628 76.6817 323.69 77.1287C323.929 78.8307 324.018 80.5602 324.12 82.2779C324.175 83.1799 324.233 84.0976 324.136 84.9917C324.018 86.0545 323.472 86.5015 322.565 86.5055C321.631 86.5094 321.116 86.1094 320.987 85.0113C320.874 84.0505 320.963 83.0622 320.963 82.0857C320.924 82.0857 320.881 82.0857 320.842 82.0857Z" fill="white"/>
<path d="M211.348 84.6973C212.403 84.8581 213.219 84.8541 213.911 85.1404C214.313 85.3051 214.739 85.9287 214.759 86.364C214.774 86.6777 214.184 87.2267 213.782 87.3169C212.493 87.6072 211.168 87.7483 209.856 87.9091C209.176 87.9915 208.66 88.1366 208.348 88.8817C207.988 89.7445 206.762 89.6896 206.187 88.8621C205.437 87.7836 205.847 86.1718 207.176 85.7051C208.594 85.2071 210.106 84.9835 211.348 84.6973Z" fill="white"/>
<path d="M83.8088 103.376C82.8673 103.349 82.4375 102.564 82.836 101.804C83.0431 101.408 83.34 101.031 83.6721 100.729C85.2348 99.3094 86.7975 97.8859 88.4305 96.5525C88.7782 96.2662 89.5634 96.1015 89.8994 96.3015C90.5206 96.6741 90.2002 97.3604 89.8759 97.8584C88.4852 99.9879 86.6685 101.694 84.5628 103.094C84.305 103.262 83.969 103.317 83.8088 103.376Z" fill="white"/>
<path d="M86.4973 92.4661C86.8528 92.4661 87.2435 92.3719 87.5599 92.4896C87.974 92.6425 88.5601 92.8935 88.646 93.219C88.771 93.6779 88.6773 94.3838 88.3803 94.7328C87.4271 95.8622 84.2939 96.4073 82.9148 95.8269C82.3288 95.5799 81.8991 95.2387 81.9499 94.5328C82.0007 93.8386 82.2155 93.2465 82.9656 93.0347C83.622 92.8504 84.2783 92.6582 84.9463 92.5327C85.4542 92.4386 85.9777 92.4464 86.4973 92.4072C86.4973 92.4268 86.4973 92.4464 86.4973 92.4661Z" fill="white"/>
<path d="M182.486 82.7251C181.618 82.6036 180.864 82.631 180.235 82.3643C179.821 82.1918 179.466 81.6427 179.298 81.18C179.083 80.5878 179.524 80.1643 180.071 80.0388C181.442 79.7172 182.821 79.4152 184.212 79.2231C184.638 79.1642 185.232 79.3799 185.537 79.6858C185.904 80.0584 186.24 80.6623 186.224 81.1525C186.213 81.5212 185.685 82.0702 185.283 82.1957C184.341 82.4859 183.333 82.5761 182.486 82.7251Z" fill="white"/>
<path d="M87.5404 88.1052C86.5403 88.1052 85.5402 88.1131 84.54 88.1013C83.7001 88.0934 82.9773 87.313 82.8953 86.3718C82.8094 85.4267 83.4657 84.9679 84.1728 84.9561C85.423 84.9326 86.6927 85.0777 87.9194 85.3247C88.7046 85.4816 89.064 86.3993 88.8804 87.215C88.7202 87.9405 88.2671 88.2542 87.5404 88.1052Z" fill="white"/>
<path d="M208.293 93.6427C207.105 93.6114 206.672 93.2466 206.719 92.2701C206.746 91.7054 206.969 91.3485 207.582 91.3093C209.364 91.2034 211.145 91.0623 212.926 90.9838C213.52 90.9564 214.134 91.0583 214.208 91.8623C214.274 92.5917 213.856 92.98 213.208 93.0662C211.575 93.2859 209.93 93.4545 208.293 93.6427Z" fill="white"/>
<path d="M209.774 80.8814C209.86 80.1598 209.887 79.4422 210.044 78.7519C210.251 77.8421 210.977 77.497 211.915 77.7441C212.829 77.9872 212.766 78.6578 212.661 79.3676C212.477 80.5834 212.309 81.7991 212.126 83.0109C212.036 83.607 211.809 84.0619 211.083 84.0384C210.391 84.0148 210.106 83.5913 210.012 82.9952C209.907 82.2971 209.852 81.5873 209.774 80.8814Z" fill="white"/>
<path d="M108.43 78.3682C108.453 78.0427 108.418 77.7642 108.504 77.5329C108.578 77.3328 108.797 77.0309 108.941 77.0387C109.219 77.0505 109.629 77.176 109.738 77.3838C110.528 78.8976 111.242 80.4467 112.004 81.9722C112.508 82.9801 112.508 83.9095 111.895 84.137C110.961 84.486 110.43 83.8272 110.012 83.1526C109.09 81.6702 108.496 80.0702 108.43 78.3682Z" fill="white"/>
<path d="M156.568 94.8705C156.212 95.7058 155.896 96.7411 155.341 97.6196C155.06 98.0667 154.372 98.3882 153.814 98.4941C152.825 98.6863 152.247 97.9333 152.634 96.9882C153.126 95.7882 153.696 94.6156 154.294 93.4665C154.661 92.7646 155.744 92.8077 156.142 93.5254C156.326 93.8548 156.38 94.2548 156.568 94.8705Z" fill="white"/>
<path d="M211.13 95.5449C211.579 95.592 212.052 95.5684 212.47 95.7096C212.716 95.792 213.025 96.1175 213.04 96.3488C213.056 96.5841 212.786 97.0038 212.568 97.0665C210.692 97.5763 208.809 98.0509 206.911 98.4626C206.665 98.5175 206.211 98.2312 206.075 97.9803C205.938 97.7293 205.953 97.2273 206.125 97.0155C206.391 96.6861 206.813 96.3881 207.223 96.2822C208.501 95.9449 209.805 95.7057 211.095 95.4272C211.106 95.4665 211.118 95.5057 211.13 95.5449Z" fill="white"/>
<path d="M217.261 23.9741C217.656 23.8643 218.054 23.7663 218.445 23.6486C219.156 23.4368 219.871 23.3035 220.422 23.9623C220.961 24.6016 220.648 25.2683 220.34 25.884C219.847 26.8683 219.308 27.8291 218.906 28.986C219.238 28.8448 219.562 28.6919 219.898 28.5664C220.621 28.2919 221.332 27.9429 222.082 27.7899C223.484 27.4997 224.621 28.0566 224.981 29.4331C225.344 30.8253 225.477 32.3038 225.496 33.7469C225.512 34.7783 224.754 35.3509 223.867 35.3274C222.961 35.2999 222.598 34.8881 222.48 33.6842C222.414 33.0057 222.41 32.3194 222.348 31.641C222.289 31.0214 222 30.7233 221.371 31.0723C220.406 31.6057 219.418 32.1116 218.503 32.7273C218.265 32.8881 218.097 33.4607 218.183 33.7626C219.347 37.8529 219.566 42.0256 219.289 46.2336C219.183 47.8218 218.414 48.3591 217.163 47.9199C216.241 47.5983 215.913 47.061 216.198 46.112C216.976 43.5198 216.62 40.8726 216.636 38.2412C216.636 38.1 216.53 37.9588 216.39 37.6098C215.937 38.1 215.55 38.4647 215.222 38.8765C213.811 40.6256 212.471 42.4335 210.991 44.1198C210.366 44.8296 209.506 45.3786 208.662 45.8257C208.303 46.0179 207.568 45.9198 207.264 45.6532C207.041 45.461 207.143 44.7433 207.279 44.3198C207.443 43.806 207.74 43.3041 208.08 42.8766C209.662 40.8922 211.252 38.9157 212.889 36.9784C213.679 36.0411 214.624 35.3235 215.976 35.3666C216.73 35.3901 216.777 34.8803 216.558 34.0999C216.046 34.2881 215.558 34.4724 215.065 34.645C214.366 34.8881 213.577 35.3313 212.979 34.6489C212.397 33.9822 212.944 33.2803 213.323 32.6881C214.183 31.3429 215.105 30.0409 215.976 28.7037C216.206 28.3507 216.351 27.9389 216.601 27.4173C215.491 27.8605 214.616 28.2605 213.71 28.5625C212.96 28.8095 212.131 28.986 211.588 28.1703C211.061 27.3781 211.456 26.6722 211.979 26.0448C212.647 25.2447 213.354 24.48 214.011 23.6721C214.3 23.3153 214.507 22.8956 214.878 22.2996C213.925 22.2996 213.253 22.2721 212.581 22.3074C211.678 22.3584 211.163 21.8956 211.206 21.0564C211.295 19.4093 211.346 17.7308 211.713 16.1347C212.421 13.0758 214.792 11.6875 217.566 10.86C218.621 10.5463 219.703 10.3031 220.789 10.1188C222.109 9.8992 223.246 10.3188 224.039 11.4326C225.586 13.6052 225.809 15.9464 224.676 18.3504C224.445 18.8367 223.856 19.2446 223.34 19.4916C221.98 20.1426 220.547 20.6407 219.183 21.2838C218.101 21.7897 217.613 22.8172 217.089 23.7859C217.156 23.8368 217.206 23.9035 217.261 23.9741ZM219.742 18.3073C220.554 17.9896 221.387 17.719 222.152 17.3269C222.336 17.2327 222.406 16.7151 222.351 16.4249C222.32 16.2562 221.871 15.9856 221.726 16.0445C220.902 16.3817 220.097 16.7817 219.32 17.2249C219.175 17.3073 219.109 17.6955 219.156 17.9073C219.187 18.0524 219.48 18.1386 219.742 18.3073ZM216.503 14.7621C216.425 14.668 216.347 14.5738 216.269 14.4797C215.671 14.9503 215.058 15.4052 214.483 15.9033C214.39 15.9856 214.401 16.268 214.46 16.421C214.491 16.4994 214.737 16.5347 214.878 16.519C215.581 16.4366 216.382 15.5582 216.503 14.7621ZM214.202 19.4014C214.253 19.5701 214.304 19.7387 214.354 19.9073C214.804 19.8054 215.315 19.8014 215.679 19.5701C215.972 19.3818 216.085 18.9151 216.277 18.57C216.167 18.4759 216.058 18.3779 215.948 18.2838C215.366 18.6524 214.784 19.0289 214.202 19.4014ZM218.777 13.8052C218.812 13.9425 218.847 14.0797 218.882 14.217C219.554 14.0444 220.226 13.8719 220.898 13.6993C220.863 13.5581 220.824 13.4209 220.789 13.2797C220.121 13.4562 219.449 13.6326 218.777 13.8052Z" fill="white"/>
<path d="M246.441 30.4332C246.206 30.794 245.964 31.1508 245.738 31.5195C245.195 32.4058 244.694 33.3235 244.105 34.1823C243.733 34.7235 243.101 35.1353 242.538 34.6529C242.276 34.4294 242.261 33.5901 242.46 33.2019C243.378 31.4058 244.421 29.6763 245.402 27.9115C245.632 27.4998 245.788 27.0488 246.062 26.4291C245.421 26.5076 244.96 26.6801 244.562 26.5821C244.05 26.4527 243.405 26.2213 243.159 25.8252C242.776 25.2134 243.339 24.7467 243.858 24.433C244.413 24.0957 244.976 23.7546 245.57 23.4997C246.867 22.9428 247.332 21.8525 247.562 20.5819C247.679 19.9427 247.425 19.7701 246.874 20.0211C246.308 20.276 245.683 20.7349 245.304 19.9035C244.968 19.1623 245.312 18.4524 245.956 18.0328C247.433 17.0681 249.082 16.7544 250.797 17.1269C251.156 17.2054 251.66 17.7779 251.652 18.1113C251.645 18.5544 251.289 19.1074 250.914 19.3937C250.363 19.8133 249.57 19.9152 249.492 20.8251C249.441 21.4094 249.582 21.6839 250.222 21.8251C252.688 22.378 254.914 21.5898 257.114 20.6839C257.512 20.5192 257.778 20.0329 258.102 19.6917C258.044 19.578 257.985 19.4642 257.923 19.3466C257.489 19.3466 257.032 19.4407 256.633 19.3191C256.219 19.1936 255.692 18.9427 255.528 18.5976C255.27 18.0564 255.551 17.5034 256.149 17.2485C256.715 17.0053 257.309 16.8367 257.876 16.5975C258.239 16.4445 258.575 16.221 258.927 16.0289C258.915 15.9151 258.899 15.8014 258.888 15.6837C258.309 15.621 257.731 15.5465 257.149 15.5033C256.532 15.4563 255.985 15.3661 255.864 14.5935C255.754 13.8719 255.856 13.3386 256.649 13.0523C257.411 12.7739 258.141 12.4052 258.856 12.0209C260.286 11.2601 261.763 11.4248 263.205 11.8719C263.611 11.9974 264.103 12.5189 264.154 12.9111C264.205 13.3072 263.837 13.8562 263.501 14.1739C263.048 14.6014 262.447 14.872 261.911 15.2092C261.947 15.2916 261.982 15.37 262.017 15.4524C262.482 15.3073 262.943 15.1582 263.408 15.0131C264.052 14.8131 264.697 14.8053 264.986 15.519C265.263 16.2014 264.904 16.7112 264.263 17.0171C263.646 17.3073 263.013 17.574 262.415 17.8995C261.798 18.2328 261.302 18.6799 261.314 19.5309C262.208 19.5309 263.072 19.5427 263.931 19.527C264.384 19.5191 264.888 19.3309 265.279 19.4721C265.834 19.676 266.478 20.0172 266.744 20.4878C266.877 20.7231 266.361 21.6133 265.947 21.8133C264.791 22.3741 263.568 22.8957 262.318 23.1349C259.931 23.5859 257.509 23.8448 255.094 24.1467C254.594 24.2095 254.071 24.131 253.559 24.084C253.078 24.0408 252.59 23.8604 252.121 23.9075C250.355 24.0761 249.551 25.1664 249.992 26.8762C250.058 27.1311 250.738 27.3507 251.141 27.3586C251.777 27.3664 252.414 27.0958 253.051 27.1037C253.754 27.1076 254.317 27.4488 254.313 28.288C254.309 29.1077 253.746 29.3116 253.078 29.3665C252.399 29.4214 251.715 29.4881 251.035 29.4959C250.269 29.5037 250.004 29.841 249.898 30.6097C249.519 33.4097 249.082 36.2059 248.586 38.9903C248.453 39.7393 248.152 40.5197 247.714 41.1315C247.433 41.5198 246.757 41.7747 246.253 41.7825C246.042 41.7864 245.616 40.9747 245.644 40.555C245.777 38.5432 246.023 36.5392 246.245 34.5353C246.394 33.2019 246.562 31.8685 246.722 30.5391C246.632 30.4998 246.535 30.4646 246.441 30.4332Z" fill="white"/>
<path d="M180.76 27.28C180.725 27.9781 180.678 28.4565 180.678 28.9311C180.671 32.2841 180.729 35.645 179.913 38.9353C179.788 39.4412 179.678 39.9628 179.459 40.4255C179.331 40.7 178.955 41.0883 178.768 41.0491C178.459 40.9863 178.073 40.6608 177.979 40.3628C177.783 39.751 177.705 39.0882 177.678 38.4411C177.506 34.1626 177.764 29.9115 178.588 25.7074C178.682 25.2368 178.862 24.7702 179.073 24.3349C179.413 23.6407 180.049 23.2446 180.749 23.5466C181.116 23.7035 181.272 24.3466 181.534 24.7859C182.182 24.3074 183.1 23.778 183.8 23.0407C184.14 22.6838 184.167 21.9387 184.159 21.3701C184.147 20.6446 184.015 19.9034 183.812 19.2092C183.718 18.8876 183.37 18.4759 183.073 18.4131C182.589 18.3112 182.05 18.4523 181.534 18.5151C180.924 18.5896 180.307 18.6288 180.092 17.8915C179.893 17.2052 180.374 16.8641 180.921 16.6562C181.952 16.268 182.999 15.915 184.042 15.5503C184.554 15.3738 184.835 15.1699 184.671 14.4875C184.554 13.9973 184.714 13.3816 184.913 12.8914C185.241 12.0796 186.148 11.8835 186.867 12.3933C187.023 12.5032 187.203 12.6404 187.273 12.8051C188.011 14.5385 189.375 15.0013 191.137 14.9111C191.777 14.8758 192.5 15.1424 193.067 15.4719C193.395 15.664 193.676 16.268 193.645 16.6562C193.621 16.9621 193.098 17.2405 192.774 17.5072C192.688 17.5778 192.524 17.566 192.395 17.5856C190.578 17.8445 189.3 19.6132 189.558 21.5662C190.808 21.5112 192.063 21.4171 193.32 21.4054C196.555 21.3701 197.462 22.0368 197.622 25.3035C197.934 31.7115 198.067 38.1274 198.204 44.5433C198.231 45.8061 198.032 47.1355 196.813 47.912C196.446 48.1473 195.817 48.3473 195.504 48.1826C195.211 48.0296 194.985 47.3277 195.071 46.9473C196.434 40.8765 195.567 34.7312 195.735 28.6252C195.77 27.3036 195.551 25.9624 195.352 24.6447C195.188 23.5309 194.879 23.4525 193.77 23.6093C191.91 23.876 190.023 23.9623 188.171 24.2564C186.898 24.4604 185.616 24.7702 184.425 25.2565C183.663 25.5663 182.964 26.1977 182.421 26.8408C181.975 27.3781 181.659 27.8016 180.76 27.28ZM186.999 21.8132C187.152 21.8289 187.3 21.8485 187.453 21.8642C187.589 20.672 187.742 19.4798 187.843 18.2837C187.855 18.1347 187.593 17.9621 187.456 17.7974C187.304 17.9347 187.027 18.0641 187.023 18.2053C186.984 19.4092 186.999 20.6093 186.999 21.8132Z" fill="white"/>
<path d="M114.366 12.4599C113.139 15.0521 112.022 17.4208 110.904 19.7895C110.971 19.8876 111.037 19.9817 111.1 20.0797C111.67 19.8719 112.244 19.6758 112.803 19.4523C113.041 19.3581 113.241 19.1307 113.483 19.0797C113.92 18.9856 114.374 18.9817 114.823 18.9424C114.702 19.4719 114.757 20.2092 114.428 20.4837C113.698 21.0994 112.78 21.4955 111.928 21.9582C111.471 22.2053 110.901 22.3112 110.549 22.6563C110.26 22.9386 110.065 23.4994 110.119 23.8955C110.158 24.17 110.662 24.4799 111.014 24.5857C111.432 24.7112 111.924 24.5701 112.362 24.6524C113.163 24.8054 113.319 25.3152 112.713 25.8721C112.241 26.3074 111.639 26.6054 111.139 27.0172C110.74 27.3505 110.408 27.7662 110.049 28.1427C110.108 28.2329 110.166 28.327 110.225 28.4172C110.537 28.3388 110.85 28.2408 111.166 28.178C112.428 27.927 113.682 27.5819 114.956 27.4956C115.428 27.4643 116.143 27.9427 116.386 28.3859C116.765 29.0761 116.296 29.7114 115.636 30.0683C112.057 31.9977 108.432 33.8252 104.49 34.9076C103.88 35.0762 103.224 35.1625 102.892 34.4174C102.583 33.7154 102.861 33.1272 103.415 32.6919C104.412 31.9075 105.451 31.1781 106.447 30.3938C107.017 29.9428 107.49 29.3976 107.213 28.4564C106.775 28.4917 106.33 28.5898 105.9 28.5427C105.533 28.5035 104.888 28.327 104.876 28.1662C104.837 27.7349 104.955 27.1741 105.228 26.8603C105.623 26.4093 106.228 26.1544 106.72 25.7779C107.361 25.2877 107.541 24.6642 107.205 23.8367C106.931 23.9191 106.705 23.9426 106.521 24.0485C105.962 24.3661 105.521 24.2406 105.177 23.7308C104.79 23.1622 104.958 22.6602 105.459 22.2759C105.947 21.9033 106.49 21.5974 106.998 21.2445C107.127 21.1582 107.213 21.0131 107.224 21.0053C106.451 19.8248 105.724 18.7071 104.966 17.5503C104.841 18.7738 104.716 20.0444 104.576 21.3111C104.544 21.6013 104.548 21.9425 104.392 22.1582C104.134 22.519 103.755 23.0445 103.435 23.0445C103.029 23.0406 102.415 22.6602 102.263 22.2916C101.962 21.5543 101.778 20.7111 101.802 19.9189C101.841 18.4326 101.97 16.9345 102.232 15.4718C102.443 14.3031 103.079 13.9894 104.244 13.8835C104.732 13.8403 105.298 13.5972 105.65 13.2599C107.174 11.8128 108.701 10.3697 110.904 10.1265C111.994 10.0089 113.135 9.91866 114.202 10.1147C114.882 10.2402 115.636 10.7814 116.05 11.3579C117.144 12.8756 117.022 14.6129 116.468 16.311C116.382 16.5738 115.987 16.7345 115.737 16.9385C115.6 16.6796 115.397 16.4326 115.346 16.1581C115.182 15.3306 115.116 14.4835 114.936 13.6599C114.858 13.2913 114.604 12.9462 114.366 12.4599ZM109.533 17.4444C109.697 17.4836 109.865 17.5267 110.029 17.5659C111.205 16.0286 112.084 14.3188 112.702 12.4678C112.741 12.354 112.502 12.0207 112.487 12.0285C111.584 12.3815 110.69 12.758 109.795 13.1344C109.709 14.5698 109.619 16.009 109.533 17.4444ZM107.412 18.3189C107.525 18.2993 107.642 18.2758 107.756 18.2562C108.17 16.6757 107.947 15.1188 107.404 13.4717C106.869 13.9698 106.103 14.6051 106.185 15.0953C106.369 16.209 106.978 17.2483 107.412 18.3189Z" fill="white"/>
<path d="M259.883 39.998C257.457 39.5941 257.387 39.5902 257.508 37.245C257.684 33.8959 257.965 30.5546 258.227 27.2134C258.293 26.3427 258.793 25.9623 259.61 26.2604C260.352 26.531 260.84 26.2761 261.38 25.8525C261.758 25.5545 262.176 25.2761 262.622 25.1035C264.11 24.5192 265.329 25.0682 265.716 26.6055C265.997 27.731 266.161 28.9114 266.169 30.0683C266.189 32.539 266.064 35.0097 266.025 37.4803C266.009 38.3745 265.685 38.9862 264.528 39.198C265.013 39.5353 265.321 39.7745 265.657 39.9745C267.552 41.1079 269.466 42.2099 271.346 43.3707C271.889 43.7079 272.393 44.1629 272.787 44.6648C272.998 44.9354 273.111 45.5276 272.955 45.7825C272.787 46.0531 272.221 46.261 271.885 46.1943C271.369 46.0963 270.849 45.806 270.42 45.4845C268.775 44.2609 267.185 42.9707 265.54 41.7471C263.583 40.2922 263.47 40.3431 261.813 42.1393C260.868 43.1668 259.879 44.1668 258.848 45.1041C258.406 45.5041 257.824 45.8453 257.254 45.9747C256.828 46.0727 256.07 45.9315 255.898 45.6374C255.68 45.2688 255.719 44.4844 255.98 44.1433C256.75 43.1432 257.684 42.2726 258.559 41.3549C258.953 40.9471 259.356 40.5392 259.883 39.998ZM259.758 37.4293C261.063 36.9038 262.309 36.4411 263.513 35.8842C263.774 35.7626 263.884 35.2999 264.06 34.9901C263.747 34.8253 263.431 34.5195 263.118 34.5234C262.579 34.5273 262.044 34.7508 261.497 34.8332C260.079 35.0528 259.516 35.8607 259.758 37.4293ZM263.661 30.1272C262.622 30.5821 261.59 31.037 260.559 31.4919C260.555 31.6096 260.547 31.7272 260.543 31.8449C261.126 31.99 261.7 32.2096 262.294 32.2684C263.856 32.4174 264.302 31.7429 263.661 30.1272ZM260.379 28.6369C260.434 28.7389 260.489 28.8369 260.54 28.9389C261.508 28.8134 262.485 28.7193 263.438 28.5232C263.579 28.4958 263.759 27.9546 263.684 27.731C263.595 27.4604 263.134 27.0408 263.04 27.0918C262.13 27.5585 261.258 28.1075 260.379 28.6369Z" fill="white"/>
<path d="M119.913 40.1468C120.21 38.0566 120.362 35.9349 120.835 33.8839C121.491 31.0368 122.476 30.1936 125.953 30.0407C127.016 29.9936 127.75 30.5387 128.168 31.4917C128.793 32.9113 128.969 34.3584 128.434 35.8565C128.203 36.4997 127.996 37.1507 127.816 37.8095C127.625 38.5115 127.922 38.7742 128.629 38.6644C129.813 38.484 130.996 38.2997 132.188 38.186C132.626 38.1428 133.087 38.288 133.532 38.3664C134.204 38.484 134.661 38.939 134.559 39.5703C134.473 40.1037 134.11 40.6449 133.731 41.0606C133.505 41.3116 133.016 41.3273 132.641 41.4371C130.746 41.9939 128.863 42.6018 126.945 43.0802C125.566 43.4254 124.148 43.6881 122.734 43.8136C120.816 43.9822 120.124 43.2763 120.065 41.3469C120.054 40.9547 120.065 40.5625 120.065 40.1743C120.019 40.1625 119.968 40.1547 119.913 40.1468ZM122.757 38.9939C122.98 38.8291 123.093 38.7938 123.124 38.7193C123.859 36.9938 124.632 35.2839 125.285 33.527C125.543 32.8368 124.839 32.6839 124.476 32.9388C123.816 33.4015 123.038 33.9663 122.765 34.6682C122.241 36.0055 122.409 37.4644 122.757 38.9939Z" fill="white"/>
<path d="M150.12 31.6564C147.054 31.4015 143.983 31.1819 140.924 30.8642C140.252 30.7936 139.494 30.4956 138.998 30.0485C138.584 29.6759 138.256 28.8955 138.345 28.3779C138.424 27.9269 139.088 27.3347 139.58 27.2367C141.389 26.8719 143.229 26.5974 145.069 26.4523C149.433 26.1072 153.804 25.8445 158.176 25.5739C158.782 25.5386 159.418 25.5935 160.008 25.7347C161.063 25.9856 161.497 27.2759 161.102 28.7975C160.801 29.9622 159.934 30.5622 158.852 30.6838C156.082 30.9975 153.3 31.1936 150.527 31.4329C150.398 31.4446 150.265 31.4329 150.136 31.4329C150.132 31.5074 150.124 31.5819 150.12 31.6564Z" fill="white"/>
<path d="M80.5962 31.6567C77.5334 31.4018 74.4627 31.1822 71.4076 30.8567C70.7357 30.7861 69.9778 30.4723 69.4933 30.0214C69.0948 29.6449 68.8253 28.8605 68.9073 28.3233C68.9698 27.8997 69.6144 27.335 70.0793 27.2448C71.9233 26.8879 73.7907 26.6017 75.662 26.4526C79.9907 26.1075 84.3311 25.8487 88.6675 25.582C89.277 25.5428 89.9138 25.5859 90.4959 25.7389C90.8631 25.833 91.2655 26.1428 91.4608 26.4683C92.2812 27.8644 91.6015 29.99 90.0622 30.4527C88.648 30.8802 87.1478 31.0292 85.675 31.2332C84.8428 31.3508 83.9912 31.3508 83.1473 31.3743C82.3035 31.3979 81.4596 31.3783 80.6158 31.3783C80.6119 31.4685 80.604 31.5626 80.5962 31.6567Z" fill="white"/>
<path d="M185.882 29.8332C185.21 30.2097 184.691 30.3665 184.366 30.7116C183.874 31.2411 183.409 31.5195 182.78 31.045C182.272 30.6646 182.151 29.5273 182.706 29.1116C183.593 28.4449 184.613 27.9586 185.589 27.4174C186.218 27.0645 186.957 26.8527 187.492 26.3978C188.539 25.5076 189.242 25.4056 190.344 26.2056C190.816 26.5507 191.344 26.8174 191.801 27.1821C192.602 27.8253 192.453 28.6724 191.496 29.0528C191.375 29.0998 191.25 29.1351 191.125 29.1704C189 29.7901 188.718 30.1626 188.476 32.4411C188.41 33.0607 188.633 33.3156 189.187 33.3039C190.996 33.2686 191.856 34.3157 191.262 36.6373C190.953 37.853 190.625 39.0687 190.254 40.2688C190.183 40.4962 189.906 40.7551 189.672 40.8257C188.457 41.1825 187.234 41.5041 185.999 41.7865C185.292 41.9512 184.769 41.661 184.624 40.9159C184.214 38.7825 184.511 36.7471 185.335 34.7274C185.831 33.5157 186.081 32.1901 186.359 30.8999C186.421 30.6371 186.105 30.2999 185.882 29.8332ZM187.128 38.7589C187.238 38.8021 187.347 38.8452 187.46 38.8883C188.347 38.0609 188.949 37.0373 189.269 35.849C189.308 35.7 189.062 35.3706 188.871 35.2804C188.175 34.9549 187.222 35.4216 187.148 36.1745C187.062 37.0256 187.128 37.8962 187.128 38.7589Z" fill="white"/>
<path d="M125.125 19.4562C126.324 19.515 127.223 19.5267 128.114 19.613C129.001 19.6993 129.434 20.2876 129.446 21.1386C129.462 21.97 128.915 22.3386 128.161 22.4719C127.746 22.5464 127.332 22.6327 126.922 22.7308C125.422 23.0916 124.184 23.6288 124.101 25.5348C124.066 26.3701 123.648 27.2407 123.215 27.9858C122.988 28.378 122.343 28.7466 121.906 28.727C121.586 28.7113 121.05 28.0564 121.031 27.6682C120.953 25.7897 120.875 23.8916 121.07 22.0288C121.281 20.0013 121.742 17.9934 122.203 15.9972C122.379 15.2247 122.785 14.4795 123.203 13.7972C123.601 13.1462 124.305 12.9893 125.016 13.2364C125.77 13.503 125.711 14.1658 125.641 14.8011C125.469 16.3463 125.301 17.8836 125.125 19.4562Z" fill="white"/>
<path d="M235.728 44.4568C235.536 44.4019 235.107 44.3391 234.735 44.1587C230.36 42.0332 225.988 39.8959 221.628 37.7389C221.148 37.5036 220.452 37.1546 220.839 36.535C221.066 36.1703 221.816 35.931 222.304 35.9703C223.129 36.0369 223.965 36.2918 224.742 36.6056C228.344 38.0723 231.938 39.5547 235.497 41.1194C236.13 41.3979 236.712 42.0136 237.079 42.6175C237.662 43.5783 237.068 44.4529 235.728 44.4568Z" fill="white"/>
<path d="M100.001 45.4846C100.235 43.4531 100.435 41.4178 100.72 39.3942C100.927 37.9353 101.864 36.9275 103.095 36.2412C103.415 36.0608 103.927 36.2216 104.349 36.2255C104.298 36.5981 104.373 37.0608 104.181 37.3236C103.279 38.5667 103.31 40.0138 103.158 41.4256C102.982 43.0374 102.786 44.6493 102.579 46.2571C102.536 46.5748 102.423 46.8885 102.29 47.1827C101.997 47.8297 101.489 48.367 100.79 48.069C100.45 47.9239 100.274 47.2376 100.153 46.763C100.052 46.367 100.134 45.9238 100.134 45.5003C100.087 45.4963 100.044 45.4885 100.001 45.4846Z" fill="white"/>
<path d="M175.197 30.5076C176.412 30.6448 176.752 31.1939 176.08 32.1586C174.654 34.2096 172.845 35.8881 170.778 37.2764C170.196 37.6686 169.544 37.7509 169.001 37.1862C168.438 36.6019 168.587 35.9195 169.056 35.4214C170.431 33.9586 171.821 32.5037 173.314 31.1625C173.767 30.7507 174.56 30.7154 175.197 30.5076Z" fill="white"/>
<path d="M104.88 41.4528C105.005 40.2645 105.076 39.2214 105.232 38.1939C105.322 37.5978 105.584 37.0644 106.334 37.0291C107.107 36.9939 107.467 37.4801 107.631 38.1155C108.182 40.2292 108.279 42.3587 107.654 44.4764C107.471 45.1 107.15 45.6294 106.392 45.6372C105.584 45.6451 105.345 45.0215 105.236 44.4137C105.056 43.3901 104.982 42.3469 104.88 41.4528Z" fill="white"/>
<path d="M109.119 38.8098C109.119 38.1902 109.018 37.551 109.154 36.9627C109.244 36.5862 109.662 36.0568 109.979 36.0254C110.295 35.9941 110.928 36.4568 110.967 36.7627C111.229 38.7863 111.377 40.8256 111.526 42.8649C111.538 43.0531 111.252 43.4453 111.155 43.4296C110.737 43.359 110.115 43.2884 109.967 43.01C109.572 42.2531 109.311 41.4021 109.127 40.5589C109.006 40.002 109.104 39.3942 109.104 38.8098C109.108 38.8098 109.111 38.8098 109.119 38.8098Z" fill="white"/>
<path d="M173.225 23.2091C172.232 22.7071 171.256 22.2914 170.377 21.7267C170.099 21.5502 169.873 20.8913 169.986 20.5933C170.146 20.1815 170.619 19.6717 171.013 19.6168C172.342 19.4325 173.521 19.9501 174.35 20.9894C174.611 21.3188 174.666 22.0247 174.494 22.4208C174.354 22.762 173.752 22.9032 173.225 23.2091Z" fill="white"/>
<path d="M113.616 35.0491C115.186 35.2765 117.077 36.8727 117.308 38.3433C117.362 38.6923 117.21 39.257 116.956 39.4217C116.718 39.5747 116.14 39.4374 115.858 39.2296C114.897 38.5198 113.971 37.7511 113.088 36.9393C112.78 36.653 112.37 36.0648 112.479 35.8295C112.647 35.4726 113.217 35.3001 113.616 35.0491Z" fill="white"/>
<path d="M172.255 27.3193C172.619 27.386 173.099 27.3938 173.494 27.5821C173.755 27.7076 174.045 28.0958 174.048 28.3703C174.048 28.637 173.744 29.0762 173.498 29.139C172.689 29.339 171.849 29.4763 171.017 29.488C170.427 29.4959 169.982 29.1194 170.001 28.4252C170.017 27.7703 170.439 27.5311 171.009 27.4566C171.392 27.4056 171.779 27.3703 172.255 27.3193Z" fill="white"/>
</g>
<defs>
<filter id="filter0_d_689_5682" x="0" y="0" width="342" height="132.995" filterUnits="userSpaceOnUse" color-interpolation-filters="sRGB">
<feFlood flood-opacity="0" result="BackgroundImageFix"/>
<feColorMatrix in="SourceAlpha" type="matrix" values="0 0 0 0 0 0 0 0 0 0 0 0 0 0 0 0 0 0 127 0" result="hardAlpha"/>
<feOffset dy="3"/>
<feGaussianBlur stdDeviation="6.5"/>
<feComposite in2="hardAlpha" operator="out"/>
<feColorMatrix type="matrix" values="0 0 0 0 0 0 0 0 0 0 0 0 0 0 0 0 0 0 0.15 0"/>
<feBlend mode="normal" in2="BackgroundImageFix" result="effect1_dropShadow_689_5682"/>
<feBlend mode="normal" in="SourceGraphic" in2="effect1_dropShadow_689_5682" result="shape"/>
</filter>
</defs>
</svg>
