<svg width="310" height="99" viewBox="0 0 310 99" fill="none" xmlns="http://www.w3.org/2000/svg">
<path d="M38.1934 35.4744C43.2856 37.7767 48.3777 38.9868 52.0582 41.9614C59.7888 48.1795 61.1837 57.3218 55.7554 65.5735C45.2518 81.5053 30.4796 92.0425 12.3126 97.8405C11.0185 98.2606 9.55642 98.1766 8.16154 98.2606C3.17024 98.5127 0.918265 97.1347 0.195618 93.471C-0.695087 88.9166 1.48966 85.0345 6.06082 83.9253C17.7912 81.0684 27.5554 74.7494 36.412 66.9011C38.664 64.9012 40.6303 62.3972 42.0924 59.7755C44.63 55.2379 43.1847 52.4986 37.9413 52.2129C34.2273 52.0112 30.4796 52.8851 26.7319 53.1876C23.1523 53.4733 19.4382 54.3136 15.9762 53.7254C8.96822 52.549 6.36333 46.0284 10.9009 40.5665C16.2283 34.1467 22.3624 28.3823 28.0596 22.265C29.8074 20.3828 31.3031 18.2821 32.9164 16.2822C32.7316 15.8957 32.5467 15.5259 32.3786 15.1394C30.1267 15.2402 27.8579 15.2402 25.6227 15.4923C23.1355 15.778 20.6818 16.4166 18.2114 16.7191C14.6486 17.1561 11.8252 16.2318 10.8505 12.2824C9.84212 8.21543 11.3378 4.14844 14.8838 2.75356C17.3039 1.79563 19.976 1.30827 22.5809 1.08979C28.8326 0.568814 35.1012 0.316728 41.3697 0.0142244C42.294 -0.0361929 43.3864 0.0310301 44.1259 0.484785C50.949 4.68622 53.3522 13.7949 49.2012 20.6685C47.0501 24.2313 44.2771 27.4076 41.773 30.7519C40.479 32.4829 39.1682 34.1971 38.1934 35.4744Z" fill="white"/>
<path d="M138.522 46.2634C137.312 61.1869 133.128 74.6147 123.548 86.0762C114.826 96.5294 100.726 96.2101 93.5333 84.6982C90.273 79.4716 87.9538 72.9678 87.3992 66.8505C86.122 53.1034 87.9538 39.3731 91.1637 25.9453C93.2476 17.2567 94.9282 16.4332 104.071 16.4332C109.146 16.4332 114.221 15.1056 119.297 15.2232C126.943 15.3745 132.287 19.6599 134.439 26.8192C136.338 33.1381 137.195 39.7764 138.522 46.2634ZM99.97 62.0272C100.659 65.2707 100.844 68.447 102.087 71.1359C103.129 73.4047 105.045 76.0096 107.213 76.8835C110.339 78.1271 112.776 75.5054 114.221 72.8837C119.818 62.6994 123.212 51.9102 121.683 40.1125C120.742 32.9028 114.776 29.861 108.759 33.8776C106.457 35.4069 104.558 38.516 103.869 41.2385C102.121 48.0952 101.197 55.1537 99.97 62.0272Z" fill="white"/>
<path d="M224.301 46.5331C223.579 61.423 219.108 74.7331 209.613 86.2115C201.261 96.2949 187.211 96.1941 180.102 85.2535C176.674 79.9765 174.254 73.3551 173.615 67.1201C172.254 53.6587 174.22 40.2141 176.976 26.9544C177.43 24.8032 178.22 22.6689 179.128 20.6522C180.825 16.8877 183.833 15.4761 187.967 15.9466C190.102 16.1819 192.387 16.1147 194.488 15.6609C209.496 12.367 219.848 18.0305 222.217 32.181C223.041 36.937 223.629 41.7434 224.301 46.5331ZM186.22 61.8431C186.858 65.137 186.909 68.2293 188.085 70.7838C189.194 73.187 191.127 75.9768 193.396 76.8843C196.69 78.1783 199.143 75.3381 200.622 72.5484C205.95 62.4145 209.412 51.8101 207.882 40.1301C206.924 32.8868 200.437 29.7105 194.555 34.0464C192.303 35.7102 190.522 38.8192 189.85 41.5922C188.219 48.3313 187.346 55.2721 186.22 61.8431Z" fill="white"/>
<path d="M258.685 59.4735C260.13 48.7178 261.508 37.9621 263.121 27.2232C263.491 24.8032 264.499 22.4 265.592 20.1648C267.239 16.77 270.129 15.56 273.894 15.8961C276.179 16.0978 278.583 16.0642 280.818 15.5936C295.321 12.4678 305.774 17.7952 308.581 32.3322C312.396 52.1125 308.614 69.9939 296.094 85.7913C287.49 96.631 273.524 96.0596 265.625 84.6989C260.365 77.1699 259.138 68.5318 258.685 59.4735ZM272.364 61.6918C273.02 65.0362 273.188 68.4813 274.432 71.4896C275.322 73.6575 277.305 76.0943 279.389 76.901C282.498 78.111 285.002 75.7246 286.464 73.0525C292.262 62.5153 295.758 51.4067 293.993 39.1889C293.204 33.7439 290.464 32.0465 284.952 32.5843C279.339 33.1388 276.969 36.9033 275.91 41.5585C274.432 48.18 273.541 54.9191 272.364 61.6918Z" fill="white"/>
</svg>
