<?xml version="1.0" encoding="utf-8"?>
<!-- Generator: Adobe Illustrator 26.0.2, SVG Export Plug-In . SVG Version: 6.00 Build 0)  -->
<svg version="1.1" id="圖層_1" xmlns="http://www.w3.org/2000/svg" xmlns:xlink="http://www.w3.org/1999/xlink" x="0px" y="0px"
	 viewBox="0 0 1034 228" style="enable-background:new 0 0 1034 228;" xml:space="preserve">
<style type="text/css">
	<!-- .st0{fill:#FFFFFF;}
	.st1{fill-rule:evenodd;clip-rule:evenodd;fill:#FFFFFF;} -->
</style>
<path class="st0" d="M100.8,40.8c-1.8,0.4-3.2,0.7-4.6,1c-1.5,0.3-3,1.2-4.3,1c-1.5-0.3-3.3-1.2-4-2.5c-0.4-0.6,1-3,2.1-3.6
	c2.9-1.6,6.2-2.6,9.3-3.9c2.1-0.8,3.8-1.9,2.2-5.5c-0.6,1-1.1,2.4-2,3c-1,0.7-2.7,1.4-3.5,1c-0.9-0.5-1.5-2.2-1.6-3.4
	c-0.1-1.1,0.4-2.7,1.2-3.4c4.9-4.2,9.7-8.6,15.1-12.2c3.3-2.2,7.1-0.2,8.3,4.2c-4.4-1.9-6.4,1.3-9.2,3.4c-4.1,3.2,0.1,6.4-0.8,10.6
	c4.7-1,8.7-1.8,12.7-2.9c0.6-0.2,1.2-2.4,0.8-3.4c-1.1-3,0.2-4.5,2.8-4.9c2.9-0.5,3.2,1.6,2.9,3.9c-0.1,0.8,0.3,1.7,0.6,2.9
	c2.5-0.6,4.7-1.5,7-1.5c1.5,0,3,1.4,4.4,2.2c-1.1,1.1-2,2.6-3.3,3.4c-1.3,0.8-3,1-5,1.5c1.5,2.6,2.9,4.9,4.6,7.8
	c1.5-1.8,2.6-3.2,3.8-4.6c1.6-1.9,3-4,4.8-5.8c1.7-1.7,3.9-1.8,5.6,0.1c1.6,1.8,1.2,3.5-0.3,5.3c-1.8,2.1-3.2,4.5-4.9,6.6
	c-5.1,6-4.2,11.8,0.2,17.6c2.8,3.7,5.5,7.4,8.3,11.1c1.1,1.5,2.4,2.9,3.3,4.5c0.5,0.8,0.6,2.4,0.1,3c-0.5,0.7-2.3,1.2-2.9,0.8
	c-2.5-1.4-5.2-2.8-6.9-4.9c-2.9-3.6-5.1-7.7-7.5-11.6c-0.9-1.4-1.7-2.8-4-5.4c-0.7,1.3-1.2,2.8-2,4c-1.5,2-2.9,4.3-4.8,5.7
	c-1.4,1.1-3.7,1.1-5.6,1.6c-0.2-1.8-0.9-3.9-0.4-5.5c0.9-2.7,2.2-5.5,4.1-7.5c5.7-5.9,4.8-11.4,0.7-17.7c-2-3-3.7-4.3-7.2-3
	c-1.9,0.7-3.9,1-5.8,1.5c-5.9,1.6-6.7,3-5.2,9.9c1.3-0.6,2.5-1.1,3.6-1.7c2-1.1,3.8-2.5,5.9-3.3c1-0.4,2.4,0.2,3.6,0.3
	c-0.3,1.1-0.3,2.7-1.1,3.3c-2.7,2.2-5.7,4.1-8.6,6c-2.5,1.6-3.4,3.8-4.1,6.7c-1.3,5.3-3.1,10.5-5.4,15.5c-0.8,1.7-3.5,3.2-5.5,3.3
	c-1.1,0.1-2.8-2.7-3.4-4.5c-1.6-4.8-0.7-9.4,2.6-13.4C101.4,52.8,101.3,47.1,100.8,40.8z M98.4,70.2c0.5,0.1,1,0.1,1.5,0.2
	c0.3-2.7,0.6-5.4,1-8c-0.4-0.1-0.9-0.1-1.3-0.2C97,64.6,97.3,67.4,98.4,70.2z"/>
<path class="st0" d="M419.8,193.1c1.2,0.2,2.2,0.1,2.9,0.5c1.2,0.6,3,1.4,3.2,2.3c0.2,1.1-0.9,2.6-1.8,3.7c-0.6,0.7-1.7,1.1-2.7,1.2
	c-5.2,0.4-7.5,3.9-9.7,8.1c-2.3,4.4-5.2,8.5-8.1,12.6c-1.2,1.7-2.9,3.2-4.5,4.4c-1.9,1.4-3.9,1.7-5.6-0.5c-1.8-2.3-0.4-3.8,1.4-5.3
	c5.7-4.8,9.1-11.1,12.9-18.2c-3.1-0.8-5.7-1.5-8.2-2.2c-3.8-1.1-7.8-1.9-11.5-3.3c-4.4-1.6-5.6-3.8-4.7-8.4c0.5-2.7-0.6-3.4-2.9-3.3
	c-3,0.2-6,0.5-9,0.5c-1.7,0-3.6-0.1-5.1-0.7c-1-0.4-2.1-1.9-2.1-2.9c-0.1-0.8,1.3-2.2,2.2-2.4c2.8-0.5,5.8-1,8.5-0.6
	c8.6,1.3,14.8-1.2,18.1-9.7c1.4-3.5,3.2-6.8,5.5-9.8c1.3-1.7,3.8-3.3,6-3.6c10.1-1.3,17.2,3.9,19.2,13.9c0.6,3.1,1.7,4,4.9,3.7
	c5.8-0.5,11.7-0.4,17.6-0.5c1.2,0,2.6,0.2,3.6,0.7c0.9,0.5,2.3,1.9,2.1,2.5c-0.3,1.1-1.5,2.4-2.5,2.6c-3.1,0.6-6.2,0.7-9.3,0.8
	c-3.9,0.1-7.8,0.1-11.6,0.1c-3.1,0-5.2,1.3-5.8,4.6C421.8,186.9,420.8,189.8,419.8,193.1z M394.8,176.1c8.9,1,9.3,0.6,8.4-6.9
	c-0.5-4.2,2-6.2,5.9-4.6c2.7,1.2,4.1,3.1,3.3,6.3c-0.2,0.9,0.3,2.8,0.7,2.9c1.2,0.2,2.8,0,3.8-0.6c0.6-0.3,0.7-2,0.5-2.9
	c-0.4-1.7-1-3.4-1.9-4.9c-2.5-4.4-9.9-6.4-12.4-3.1C400.2,166.5,397.8,171.2,394.8,176.1z M404.2,182c-4.9,0-9.2-0.4-12.7,2
	c-1.5,1-3.1,4.5-2.6,5.2c1.3,1.7,3.8,3,6.1,3.5c1.4,0.3,3.7-0.7,4.6-1.9C401.4,188.4,402.5,185.4,404.2,182z M417.1,181.1
	c-4.5-1.3-7.8-0.3-8.4,2.4c-0.7,3.2-1.1,6.6-1.9,11c2.3-0.9,4.6-1.1,5.3-2.2C414.1,188.7,415.5,184.9,417.1,181.1z"/>
<path class="st0" d="M813.1,50.7c3.1,4,6.1,7.6,9,11.3c1.5,2,1.9,4.3-0.4,5.9c-2.5,1.7-4.6,0.3-6.1-1.8c-1.5-2.2-2.5-4.6-3.8-6.9
	c-0.8-1.4-1.6-2.7-3-5c-3.3,6.4-6.2,12.1-9.1,17.7c-0.6,1.2-0.9,2.8-1.8,3.7c-1.1,1-2.8,1.5-4.3,2.1c-0.4-1.4-1.6-3.1-1.2-4.2
	c1.9-5.1,4.3-10.1,6.6-15.1c0.4-0.9,1-1.7,1.1-3.3c-2.2,0.9-4.4,2-6.6,2.8c-1.3,0.5-2.6,1.2-3.9,1.1c-1.4-0.1-3.8-1-3.8-1.7
	c-0.1-1.4,0.6-3.6,1.8-4.2c3.8-2.1,7.9-3.6,11.9-5.5c2.7-1.3,5.3-2.7,7.9-4.1c-0.1-0.5-0.2-0.9-0.4-1.3c-1.7,0.4-3.6,0.5-5,1.3
	c-3.7,2.2-5.8,1.7-6.4-2.7c-0.8-5.1-0.9-10.2-1.1-15.3c-0.1-3.1,0-5.8-4.4-5.4c-0.9,0.1-2.5-1.5-2.6-2.4c-0.1-1,0.9-2.5,1.8-3.2
	c1.2-0.8,2.8-1,4.2-1.5c2.9-0.9,6.3-1.2,6.7-5.4c0-0.3,2.8-0.8,3-0.4c2.2,4,4.6,2.4,7,0.4c3.1-2.7,4.5-2.3,5.6,1.7
	c0.4,1.6,0.4,3.5,0.3,5.2c-0.1,7.4-0.3,14.8-0.4,22.1c0,1,0.5,2.5,1.3,3.1c2.6,2.1,2.9,4.1,0.6,6.7
	C816.2,48.1,814.4,49.5,813.1,50.7z M806.9,25.5c2.9,0.6,3.9-0.8,3.7-3.7c-0.2-2.2,0.1-4.6-3.3-4c-2.3,0.4-5.5-0.4-5.5,3.8
	C801.9,25.1,803.9,25.8,806.9,25.5z M806.4,38.3c1.8-2.1,2.9-3.4,4-4.7c-1-0.8-2-2.4-2.9-2.3c-1.9,0.2-3.7,1.3-5.5,2
	C803.3,34.8,804.5,36.1,806.4,38.3z"/>
<path class="st0" d="M201.9,163c3.7-1.3,4.8-4.1,5.7-7.1c0.3-1.1,1.2-2.1,1.8-3.2c0.9,0.8,1.7,1.8,2.7,2.5c0.8,0.6,1.9,1.4,2.8,1.4
	c2.2,0.1,4.5-0.5,6.7-0.4c3.7,0.2,6,3.2,4.4,6.5c-1.8,3.9-4.2,7.6-6.8,11.1c-0.7,0.9-3.1,0.6-4.7,0.9c0-1.5-0.5-3.1-0.1-4.3
	c0.8-2,2.1-3.8,3.5-6.1c-3.4-0.5-5.2,0.5-5.6,3.4c-0.4,2.8-0.5,5.8-1.3,8.5c-0.4,1.4-2,2.5-3.1,3.7c-1.1-1.3-2.7-2.5-3.1-4
	c-0.5-2.1-0.1-4.4-0.1-6.6c-0.3-0.3-0.7-0.5-1-0.8c-1,1-2.7,2-2.7,3.1c-0.1,5.4,0,10.8,0.5,16.1c0.5,4.5,3.5,7,7.9,7.8
	c9.1,1.5,18,0.5,26.8-1.7c2-0.5,4.5-2.9,5-4.8c1.6-5.5,2.3-11.2,3.3-16.8c0.4-2.1,0.2-4.3,0.7-6.3c0.3-1,1.6-2.3,2.4-2.3
	c0.8,0,2.3,1.4,2.4,2.3c0.4,2.8,0.8,5.8,0.3,8.6c-0.9,5.9-1.9,11.9-3.8,17.5c-0.9,2.8-3.4,5.9-6,7.2c-10.3,5.4-21.4,7-32.7,4.6
	c-7.9-1.7-12.7-6.9-13.7-15c-0.6-4.7-0.4-9.5-0.8-14.2c-0.1-1.4-0.9-2.9-1.9-3.9c-1.4-1.3-1.6-2.4,0.2-3c2.7-0.9,3.1-3,3.2-5.3
	c0.1-1.2,0-2.6,0.5-3.7c0.4-1.2,1.3-2.2,2-3.2c1.1,1,2.4,1.9,3.2,3.1C201.2,159.6,201.4,161.3,201.9,163z"/>
<path class="st0" d="M851.5,40.2c-3.7-0.2-6.6-0.4-9.9-0.6c-0.2,1.7-0.3,3.3-0.5,5c-0.5,5.7-0.7,11.5-1.5,17.1
	c-0.2,1.4-2.1,2.5-3.2,3.8c-0.8-1.5-2.2-3.1-2.2-4.5c0.6-14.7,1.3-29.5,2.2-44.2c0.5-7.9,6-11.7,12.5-14.4c3.2-1.3,5.4,1,6.3,3.8
	c1.1,3.5,2,7.3,2.1,11c0.8,16.9,1.4,33.7,1.7,50.6c0.1,3.9-0.9,8-1.9,11.8c-1.1,3.9-4.4,5.6-7.8,4.5c-0.9-0.3-2.1-1.2-2.3-2
	c-0.2-0.8,0.7-1.9,1.2-2.7c1.1-1.7,3.1-3.4,3.1-5.1C851.6,62.9,851.5,51.6,851.5,40.2z M847.5,26.1c-5.1,0.3-5.9,1.2-5.8,5
	c0.2,2.9,2.3,3.1,4.2,3.1c3.8,0,5.1-1.7,5.1-5.3C851.1,25.9,849.6,25.5,847.5,26.1z M852.1,16.6c-1-3.1-0.8-6.1-4.2-5.9
	c-2.2,0.2-4.9,0.5-4.7,4c0.2,3.8,1.2,5,5.5,4.6C849.9,19.3,851,17.6,852.1,16.6z"/>
<path class="st0" d="M370.1,12.2c1.6,0.2,4.3,0,4.8,0.9c1.4,2.6-1.7,3.2-3,4.8c-0.9,1.1-1.5,2.6-2.8,4.7c1.9-0.2,2.7-0.4,3.5-0.4
	c1.5,0,3,0.1,4.5,0.2c-0.5,1.4-0.6,3.4-1.6,4.1c-4.1,3-2.9,6.9-2.7,11.4c1.4-1.2,2.1-2.3,3.2-2.6c1.6-0.6,3.9-1.4,4.8-0.7
	c2.1,1.6,0.7,3.6-0.8,5.1c-1.8,1.8-3.5,3.7-5.6,5c-3.1,2-2.9,5-2.3,7.6c0.3,1.3,2.8,2.5,4.4,3.1c13.6,5,27.2,9.8,40.9,14.7
	c0.7,0.3,1.4,0.7,2,1c2.5,1.2,3.8,3.1,2.7,5.7c-1.1,2.5-3.4,2.2-5.5,1.3c-15.9-6.8-32-13.3-47.8-20.4c-8.9-4-8.7-4.4-14.1,3.9
	c-0.8,1.2-1.4,2.5-2.5,3.2c-1.1,0.8-2.5,0.9-3.8,1.3c-0.1-1.3-0.7-2.8-0.3-3.8c1.8-3.8,3.8-7.6,6-11.3c1.7-2.8,3.5-5.5,5.6-8
	c0.7-0.8,2.2-1,3.3-1.4c0.2,1.3,0.5,2.6,0.6,3.8c0,1.2-0.3,2.5,0,3.7c2.3-2,3.7-9.6,3.3-16.1c-1.8,1-3.2,2.1-4.9,2.6
	c-1.5,0.4-3.1-0.1-4.7-0.2c0.6-1.2,0.9-2.6,1.7-3.6c1.1-1.3,3-2,3.9-3.4c1-1.6,1.3-3.8,1.9-5.7c-1.3-0.3-2.6-0.5-3.9-0.9
	c-1-0.4-1.9-1.1-2.9-1.6c0.7-1,1.3-2.6,2.2-2.8c2.4-0.6,4-1.4,4.6-4.2c0.4-1.7,1.7-3.2,2.6-4.8C368.3,9.7,369.2,11,370.1,12.2z"/>
<path class="st0" d="M14.3,50.4c-0.7,1.2-1.5,2.4-2.2,3.7c-1.4,2.5-2.6,5.1-4,7.6c-1.2,2.1-3.1,3.8-5.5,2.6
	c-2.5-1.2-2.4-3.9-1.4-6.3c0.8-2,1.8-3.9,2.9-5.7c3.2-5.2,6.6-10.3,9.8-15.5c0.8-1.2,1.4-2.5,2.6-4.7c-2.5,0.3-4.1,0.5-5.8,0.6
	c-1.4,0.1-2.8,0.2-4.1-0.2c-0.9-0.3-2.1-1.3-2.3-2.1c-0.1-0.7,0.9-2,1.8-2.4c2.5-1.2,5.1-2,7.5-3.3c1.1-0.6,2.2-2,2.5-3.2
	c0.4-2.2-0.5-3.5-3-2.2c-0.4,0.2-0.9,0.7-1.3,0.6c-2-0.3-3.9-0.7-5.9-1.1c0.4-2,0.2-4.6,1.4-6C9.8,9.7,21.2,7.7,25,9.2
	c3,1.2,3.4,4,0.9,6.2c-0.6,0.5-1.2,0.9-1.8,1.4c-1.7,1.7-1.7,3.1,0.9,3.6c0.7,0.2,1.6,0,2.2,0.3c1,0.5,2.5,1.2,2.7,2
	c0.2,0.9-0.6,2.4-1.3,3.1c-1.6,1.5-4.6,2.5-5,4.1c-0.8,3.4-0.2,7.2-0.2,11.1c3.7,0.3,7.4,0.4,11.1,0.8c2.1,0.2,4.3,0.5,6.2,1.3
	c1,0.4,2.3,2.1,2.1,3c-0.2,1.2-1.5,2.9-2.5,3.1c-2.4,0.3-4.9,0-7.3-0.5c-1.9-0.4-3.8-1.4-5.7-1.9c-3.8-1-4.5-0.6-4.7,3.4
	c-0.3,6.1-0.4,12.3-0.6,18.4c0,1.4,0,2.9-0.5,4c-0.6,1.2-1.9,2.1-2.9,3.1c-0.9-1.1-2.4-2.2-2.5-3.4c-0.5-6.2-0.5-12.5-0.8-18.8
	c0-1-0.1-2-0.2-3C14.8,50.7,14.6,50.5,14.3,50.4z"/>
<path class="st0" d="M654.4,202.9c-2,0.1-3.3,0.2-4.6,0.2c-2.4,0-4-1-3.5-3.6c1.5-7.7,2.9-15.4,4.6-23.1c0.9-4.6,9.8-9.6,14.2-7.9
	c1.4,0.5,3.1,2.3,3.1,3.7c0.6,8.1,0.9,16.2,0.8,24.2c0,2.4,0.1,3.8,2.3,5.1c5.3,3.1,10.5,6.5,13.8,11.9c0.7,1.2,1.7,2.3,1.9,3.6
	c0.2,1.3,0.1,3.2-0.7,3.9c-0.8,0.6-3,0.5-3.9-0.2c-3.5-2.8-6.7-6-10-9.1c-2.2-2-4.4-4-6.8-5.9c-2.2-1.7-3.8-1.3-5.5,1.1
	c-3.1,4.5-6.5,8.8-9.9,13.1c-1,1.2-2.2,2.5-3.6,3.2c-1.2,0.5-2.8,0.2-4.2,0.3c0.1-1.4-0.2-3.1,0.5-4c3.1-4.4,6.4-8.6,9.6-13
	C653,205.5,653.5,204.5,654.4,202.9z M652.8,196.9c3.7-2.4,8.8-2,10.4-7.4C654.4,188.5,652.5,189.8,652.8,196.9z M655,177
	c0.3,0.5,0.5,0.9,0.8,1.4c2-0.4,4.1-0.7,6-1.4c0.7-0.3,1.1-1.6,1.6-2.4c-0.8-0.3-1.8-1.2-2.4-0.9C658.9,174.6,657,175.8,655,177z
	 M663.8,185.5c-1.7-3.7-6.1-3.5-8.9,0C657.8,185.5,660.6,185.5,663.8,185.5z"/>
<path class="st0" d="M321.1,153.1c-0.2,0,0.5-0.1,1,0.1c1,0.5,2.8,1.3,2.7,1.8c-0.2,1.3-0.9,3.2-1.9,3.5c-5.5,1.8-6.2,5.8-5.6,10.7
	c0.3,2.9,0.5,5.9,0.8,9.8c2.7-2,4.8-3.5,6.9-5c1.9-1.4,3.6-3.1,5.6-4.3c1.1-0.6,2.6-0.5,3.9-0.7c0,1.4,0.4,3.1-0.2,4.1
	c-1.7,2.9-3.8,5.5-6,8.4c4.6,3.7,9.1,7.2,13.5,10.8c1.7,1.4,3.6,3,4.4,5c0.6,1.5-0.2,3.6-0.4,5.4c-1.5-0.2-3.3,0.2-4.3-0.6
	c-4.2-3.1-8.2-6.5-12.3-9.8c-2.4-1.9-4.9-3.9-7.6-5.5c-3.5-2-4.6-1.2-4.8,2.8c-0.3,7.7-0.6,15.5-1.1,23.2c-0.1,1.6-0.5,3.3-1.1,4.7
	c-0.4,1-1.6,1.6-2.4,2.4c-0.8-1-1.9-1.9-2.3-3c-0.4-1.2-0.2-2.7-0.2-4.1c0.6-14.7,1.2-29.5,1.8-44.2c0.2-5.9,0.1-5.9-5.7-5.8
	c-1.5,0-3.3-0.4-4.3-1.3c-0.7-0.6-0.6-2.8,0-3.7c0.5-0.9,2.2-1.9,3.3-1.7c4.3,0.5,7.6-0.5,9.4-4.9c0.4-0.9,2.4-1.9,3.3-1.6
	C318.8,150,319.6,151.5,321.1,153.1z"/>
<path class="st0" d="M626.2,11.6c-0.5,1-0.9,1.9-1.5,3.2c2.4-0.3,4.6-0.7,6.8-0.6c1,0,2.7,0.8,2.9,1.5c0.3,0.9-0.5,2.5-1.3,3.1
	c-2.4,1.6-5,2.7-7.5,4.2c-0.9,0.5-2.1,1.4-2.1,2.2c0,4.6,0.3,9.1,0.5,14.2c5.4-1,8.3-4,11.2-7.3c0.8-1,2.3-1.4,3.4-2.1
	c0.4,1.3,1.3,2.8,1,3.9c-0.7,2.6-2.1,5-3.3,7.7c2.1,2,4.4,4.2,6.8,6.5c-0.2,0.4-0.5,0.7-0.7,1.1c-6.3,1.3-10.7-5-17.7-4.8
	c0,2,0.1,4.1,0,6.1c-0.2,5.1-0.2,10.3-1,15.3c-0.3,1.7-2.4,3.8-4.2,4.4c-2.8,1-3.8-1.7-4.6-3.8c-1.2-3.3-2.4-6.7-3.6-10.1
	c-0.7,0.2-0.8,0.3-0.9,0.3c-1.6,0.7-2.7,4.1-4.8,1.5c-2-2.4,0.4-4.1,2.1-5.5c1.5-1.4,3.3-2.5,4.9-3.8c-0.1-0.4-0.2-0.7-0.3-1.1
	c-1.6,0-3.4,0.3-4.9-0.1c-1.2-0.3-2.2-1.6-3.2-2.4c0.8-1.1,1.5-2.5,2.6-3.1c1.4-0.7,3.2-0.9,4.8-0.8c4.1,0.4,5.2-2,5.5-5.4
	c0.1-1.4,0.4-2.7,0.6-4.1c1-6.2,1-6.1-5.3-6.5c-1.2-0.1-3.4-1.3-3.3-1.9c0.1-1.5,0.9-3.1,2-4.2c0.9-0.9,2.5-1.1,3.8-1.3
	c3.3-0.4,5.5-1.9,7.1-4.8c0.6-1.1,2.1-1.8,3.2-2.7C625.6,10.9,625.9,11.2,626.2,11.6z M616,51c-3.2,3.3-3.1,4.3,0.5,7.5
	C616.4,56,616.2,54,616,51z"/>
<path class="st0" d="M246.1,30.7c-3.1,2.2-6.2,4.4-9.3,6.5c-0.9,0.6-2.1,1.5-3.1,1.5c-0.7-0.1-1.8-1.6-1.8-2.5
	c-0.1-7.2-0.3-14.5,0.4-21.7c0.2-2.3,3.1-4.5,5.2-6.3c1.2-1,3.2-1.3,4.9-1.6c8.9-1.4,9.4-0.5,9.7,8.3c0.4,13.3,1.4,26.5,2.4,39.7
	c0.6,8.5,0.4,16.8-3.8,24.4c-0.2,0.4-0.4,0.9-0.7,1.3c-1.6,2.4-3.3,5.6-6.6,4.1c-2.9-1.4-1-4.5-0.2-6.7c4.3-10.7,3.8-22.1,4.4-33.3
	c0.2-4.3-0.3-8.7-0.5-13C246.8,31.3,246.5,31,246.1,30.7z M236.4,19.4c3.8-0.9,6.4-1.4,8.8-2.3c0.9-0.3,1.7-1.6,1.9-2.7
	c0.2-0.7-0.7-2.5-0.9-2.4c-2.9,0.5-5.8,0.9-8.4,2C236.9,14.4,236.9,16.9,236.4,19.4z M238.4,29.6c2.6-1.3,5-2.3,7.1-3.8
	c0.8-0.6,1-2.1,1.2-3.3c0-0.2-1.1-0.9-1.7-1C240.4,21,237.4,24.4,238.4,29.6z"/>
<path class="st0" d="M657.1,52.1c-2.2,2.1-4,4.3-6.3,5.8c-1.3,0.9-3.4,0.6-5.1,0.9c-0.1-1.7-1-4.1-0.2-5c4-4.6,3.8-8.2-1.2-11.9
	c-1.1-0.8-1.3-2.9-1.9-4.4c0.4-0.4,0.8-0.8,1.2-1.2c2.9,1.6,5.8,3.2,9.4,5.3c1.7-4,3.4-7.8,5.1-11.7c-0.3-0.2-0.5-0.3-0.8-0.5
	c-0.5,0.7-0.9,1.6-1.5,2.1c-1,0.8-2.1,1.3-3.2,2c-0.5-1.2-1.5-2.6-1.2-3.6c1.2-4.3,2.6-8.5,4.3-12.6c0.4-1.1,2.2-1.6,3.3-2.4
	c0.3,1.2,0.5,2.5,0.8,3.7c0.1,0.4,0.1,0.7,0.1,1.4c2,0,3.9-0.1,5.9,0.1c0.9,0.1,2.1,0.6,2.4,1.3c0.3,0.6-0.3,2.1-0.9,2.5
	c-3.1,2.2-3.3,5.2-3.6,8.6c-0.4,3.7-1.4,7.4-2.7,10.8c-1.1,2.8-0.8,4.8,1.6,6.5c6.2,4.2,12.4,8.5,18.6,12.7c2.8,1.9,5.8,3.5,8.4,5.7
	c1,0.8,1.7,3.5,1.1,4.3c-0.9,1.2-3.1,2.3-4.6,2.1c-2.1-0.3-4.4-1.4-6.1-2.7c-6.3-5.1-12.3-10.5-18.5-15.8
	C659.8,54.6,658.4,53.3,657.1,52.1z"/>
<path class="st0" d="M741.6,24.9c-1.2-1.3-3.2-2.4-3.4-3.9c-0.5-2.8,1.8-4.4,4.3-4.7c4.2-0.5,8.5-1.2,12.6-0.8c6.1,0.7,9,5,8.6,11.1
	c-0.5,7.9-3.4,11.5-11,13.4c-2.1,0.5-2.9,1.5-3,3.5c-0.1,6.6-0.1,13.3-0.5,19.9c-0.4,5.7-1.2,11.4-2.2,17.1
	c-0.2,1.3-2.1,2.3-3.2,3.5c-0.7-1.4-2-2.8-2-4.2c0.1-17,0.4-34,0.6-51c0-1.5,0-2.9,0-4.4C742.2,24.5,741.9,24.7,741.6,24.9z
	 M751.6,32.1c0.3,0,0.7,0.1,1,0.1c0.8-2,1.7-4,2.2-6.1c0.2-1,0-2.9-0.6-3.2c-1.1-0.5-2.8-0.5-3.8,0.1c-0.7,0.4-1,2.2-0.8,3.2
	C750,28.2,750.9,30.2,751.6,32.1z"/>
<path class="st0" d="M574.6,194.5c-2.8,4-5,7.7-7.7,10.9c-3.1,3.7-6.6,7.1-10.1,10.5c-0.9,0.9-2.2,1.7-3.5,2.1
	c-1,0.3-2.3-0.2-3.4-0.4c0.2-1,0.1-2.2,0.6-3c0.7-1.1,1.8-2,2.9-2.9c9.5-8.7,18.4-22.6,20.6-32.4c-2.2-0.3-4.4-0.4-6.5-0.9
	c-0.8-0.2-1.4-1.4-2.1-2.2c0.8-0.7,1.4-1.8,2.3-1.9c6.4-0.8,12.9-1.7,19.3-2c1.7-0.1,4.7,1.6,5.2,3.1c2.9,8.4,2.6,16.8-3.1,24.1
	c-1.2,1.6-3.6,2.7-5.7,3.2c-3.4,0.8-6.2-0.3-7.1-4.2C576,197.3,575.4,196.3,574.6,194.5z M586.9,176.7c-2.8,1.4-5.8,1.9-6.7,3.5
	c-2.3,4.5,0,8.7,2.1,13.4C587,188.8,587.2,183.5,586.9,176.7z"/>
<path class="st0" d="M710.6,53.1c1.8-2.7,2.9-4.6,4.3-6.4c1.9-2.6,4.5-2.9,6.1-0.2c2.4,4.2,4.2,8.7,6,13.2c0.3,0.7-0.8,2.9-1.4,2.9
	c-1.7,0.1-4,0.2-5.1-0.9c-1.9-1.9-3-4.5-4.7-7.2c-1.5,2.1-2.9,4.2-4.4,6.2c-1.4,1.9-3.2,4-5.5,2.6c-1.3-0.8-2.2-3.6-2.1-5.3
	c1.1-11.5,2.4-22.9,3.9-34.3c0.6-4.9,2.2-5.4,6.2-2.8c1,0.7,2.8,0.6,4.1,0.4c0.4-0.1,1-2.3,0.5-2.9c-0.7-1-2.1-1.9-3.4-2.2
	c-0.9-0.3-2.1,0.6-3.2,0.7c-1.1,0.1-2.3-0.2-3.5-0.3c0.4-1.4,0.4-3.8,1.3-4.2c3.8-1.7,7.9-2.5,11.8,0.1c3.5,2.3,3.2,5.7,2.7,9.1
	c-0.3,2.1-0.8,4.2-0.9,6.3c-0.3,3.4-2,5.6-4.9,7C711,38.8,710.1,40,710.6,53.1z M713.2,32.2c1.7-1.7,3.4-3.3,5.7-5.5
	C712.9,25.6,712,26.5,713.2,32.2z"/>
<path class="st0" d="M753.2,192.9c-2.6,2.9-5.2,5.9-7.8,8.9c-1.8,2.1-3.1,4.6-5.1,6.4c-0.8,0.8-2.8,0.5-4.2,0.6
	c0.1-1.3-0.3-3,0.3-3.8c2.7-3.3,5.5-6.4,8.6-9.3c1.6-1.5,3.7-2.7,5.8-3.4c4.8-1.5,5.6-2.4,5.7-8.3c-1.8,0.2-3.7,0.7-5.4,0.5
	c-1.3-0.2-3.4-1.2-3.6-2c-0.7-4.4-1.7-8.9-1-13.2c1.5-9.2,6-11.9,15.2-10.6c2.6,0.4,4.4,1.7,4.9,4.4c0.7,3.7,0.9,7.2-1.4,10.8
	c-4,6.5-6.8,13.4-5.7,21.5c0.5,4.2-0.2,8.5-0.4,12.7c-0.1,1.4-0.3,2.9-1,3.9c-0.8,1.2-2.3,1.9-3.4,2.8c-0.8-1.3-2.1-2.5-2.2-3.9
	c-0.2-2.1,0.2-4.2,0.5-6.3c0.5-3.7,1.1-7.3,1.7-10.9C754.2,193.4,753.7,193.2,753.2,192.9z M760.2,171.2c-5.8-0.3-8.3,1.8-7.8,6.6
	C758.5,176.5,759.3,175.9,760.2,171.2z M761.2,166.5c0.1-0.4,0.2-0.9,0.3-1.3c-1.2-0.5-2.5-1.6-3.7-1.5c-2.2,0.2-4.4,1-4.5,4.7
	C756.1,167.7,758.7,167.1,761.2,166.5z"/>
<path class="st0" d="M200.7,75.1c-0.5-1.5-1.2-2.9-1.3-4.4c-1.5-14.8-0.4-29.5,1.6-44.1c0.8-5.7,3.8-9.6,9.4-11.4
	c5.2-1.7,9,0.4,9.3,5.7c0.3,4.8,0.1,9.7-0.3,14.6c-0.2,2.9-1.5,4.9-5.2,5c-6.1,0.1-7,1.6-7.4,7.7c-0.5,7.2-1.3,14.4-2.3,21.6
	c-0.3,1.9-1.5,3.7-2.3,5.6C201.7,75.2,201.2,75.2,200.7,75.1z M207.8,37c4.8-0.9,5.2-1.6,4.5-6.4C208.1,30.5,206.8,32.3,207.8,37z
	 M207.7,26.3c2.1-0.4,4.8,0.6,5-2.8c0-0.6-1.5-2-2.3-1.9C207.8,21.8,207,23.5,207.7,26.3z"/>
<path class="st0" d="M978.7,21.6c6.7-0.6,5.3-6.2,7.3-9.7c0.8,0.6,1.6,0.8,1.7,1.2c0.7,3.1,0.7,6.6,4.8,7.5c-0.5,1.7-0.5,4.4-1.6,5
	c-2.3,1.3-2.8,3.1-2.1,4.9c0.3,0.9,2.4,1.1,3.7,1.7c0.9,0.4,1.7,0.8,3.5,1.6c-2.2,1.7-3.7,3.1-5.4,4.2c-2.6,1.6-3.9,3.8-4.5,6.9
	c-1.5,7.7-3.4,15.4-5.4,23c-0.3,1.3-2.1,2.3-3.2,3.4c-0.7-1.4-2.2-3-2-4.3c0.7-5.6,1.9-11.1,2.9-16.6c0.3-1.8,0.8-3.5,1.2-5.4
	c-3.5,0.7-6.6,1.2-9.7,1.8c-0.2-0.4-0.4-0.8-0.6-1.2c0.6-0.9,1.1-2,1.9-2.7c1.3-1,2.7-1.9,4.2-2.4c6.3-2,7.2-7.2,7.8-12.8
	c-4,0.1-6.2,1.9-7.6,5.3c-0.4,1.1-1.8,1.7-2.7,2.6c-0.6-1.2-1.7-2.6-1.5-3.7c0.9-5.9,2.1-11.8,3.4-17.6c0.2-0.9,1.6-1.5,2.4-2.3
	c0.5,0.9,1.4,1.8,1.5,2.7C978.9,16.9,978.7,19.1,978.7,21.6z"/>
<path class="st1" d="M425.3,40.5c-5.1,5.2-11.5,6.2-18.3,5.9c-0.5,0-1,0-1.5,0c-1.3,0-2.5,0-3.8-0.1c-3.2-0.2-5.8-1.4-6.8-4.8
	c-0.9-3,0.9-4.5,2.7-6c0.2-0.1,0.3-0.3,0.5-0.4c0.4-0.4,0.8-0.7,1.3-1.1c2-1.7,4.1-3.4,5.2-5.5c1-2,1.1-5.5-0.1-7.2
	c-1-1.4-4.4-1.5-6.7-1.4c-3.2,0.2-5.5,2.1-6.4,5.4c-0.4,1.6-1,3.1-1.5,4.6c-0.5,1.5-1.1,3.1-1.5,4.6c-2.9,10.3,0.6,17.5,9.9,19.6
	c9.1,2.1,17.9,0.4,26.1-4.1c2.1-1.1,3.9-3.3,5-5.4c0.6-1.1-0.3-3.2-1-4.6C428.2,39.8,425.9,39.9,425.3,40.5z M396,26.5l1.5-1.5h3.5
	l-2.5,3l-3.5,2L396,26.5z"/>
<path class="st0" d="M185.5,30.2c-2.3,2.1-4,3.7-5.7,5.2c-1.9,1.7-4.1,3.1-6.3,1.3c-2.3-1.9-1-4.5,0.4-6.4c2.3-3.1,5.1-5.9,7.6-8.8
	c3.5-4.1,7-8.2,10.4-12.3c1.3-1.6,2.5-3.5,4.9-2.1c2.4,1.4,1.9,3.5,1,5.6c-0.4,0.9-0.8,1.9-1.4,2.6c-5.3,5.7-5.5,12.4-5.4,19.7
	c0.3,10.8-0.8,21.7-1.4,32.6c0,1-0.2,2.2-0.8,2.8c-1,1.1-2.4,2.5-3.5,2.4c-1-0.1-2.5-2.2-2.4-3.3c0.1-5.9,0.7-11.7,1.2-17.6
	c0.5-6.2,1.2-12.4,1.7-18.7C185.8,32.6,185.6,31.9,185.5,30.2z"/>
<path class="st0" d="M1008.7,20.8c4.9-1.4,9.2-2.7,13.5-3.8c1.7-0.4,3.5-0.4,5.2-0.6c3.4-0.4,4.8,1.4,5.2,4.5
	c2.1,15.3,0.7,30.2-6,44.4c-1.3,2.7-3.3,5.4-5.6,7.3c-2.6,2.2-4.8,1.1-6.4-2.6c4.5,0.9,5.3-2.6,6.5-5.4c5.6-12.6,5.9-26,5.6-39.4
	c0-2.4-1.4-3-3.5-2.7c-5.1,0.7-10.2,1.3-15.2,2.3c-1.1,0.2-1.9,2-2.9,2.9c-1.6,1.5-3.2,3-4.8,4.6c-0.3-2.2-1.2-4.5-0.7-6.5
	c1-3.7,2.5-7.4,4.4-10.7c0.8-1.4,3.7-2.9,5-2.4c2.7,0.8,1.2,3.2,0.5,5C1009.4,18.4,1009.2,19.3,1008.7,20.8z"/>
<path class="st0" d="M50.6,53c-3.1-0.3-5.2-1.7-5.3-4.7c-0.2-8-0.1-15.9,0.2-23.9c0-0.9,1.2-2.4,2.1-2.7c2.9-1,6-1.6,9-2.1
	c3.1-0.5,5.3,1.1,6.5,3.9c1.6,4.1,2,8.2,0.6,12.5c-0.8,2.5-1.9,5.4,2.4,6.3c0.8,0.2,1.8,2.4,1.5,3.4c-0.4,1.4-1.7,3.3-3,3.7
	C60.1,50.8,55.3,51.8,50.6,53z M56.3,27.1c-2.9,2.3-4,12.3-1.7,16.3C57.9,40.3,58.9,30.4,56.3,27.1z"/>
<path class="st0" d="M491.8,183.1c-5.8-0.5-11.7-0.9-17.5-1.4c-1.2-0.1-2.7-0.3-3.5-1.1c-1.2-1.1-2.8-2.7-2.7-4
	c0.1-1.1,2.1-2.9,3.4-3.1c10-1.2,20.1-2.2,30.1-3.1c4-0.4,8-0.5,12-0.5c2.4,0,4.8,0.4,5.2,3.6c0.4,3.3-0.4,6.2-3.9,7.1
	c-3.7,0.9-7.6,1.4-11.4,1.7c-3.8,0.3-7.7,0.1-11.6,0.1C491.8,182.6,491.8,182.9,491.8,183.1z"/>
<path class="st0" d="M298,46.3c-5.3-0.4-11.1-0.8-16.9-1.4c-1.2-0.1-2.7-0.3-3.5-1c-1.3-1.1-2.7-2.8-2.8-4.2
	c-0.1-0.9,2.1-2.6,3.5-2.9c5.4-0.9,10.9-1.6,16.3-2.1c8-0.6,15.9-1.1,23.9-1.5c2.9-0.1,6.3-0.4,7,3.8c0.6,3.8-1.2,6.3-5.6,7.4
	c-0.6,0.2-1.2,0.3-1.8,0.4C311.5,45.3,305,45.8,298,46.3z"/>
<path class="st0" d="M917.5,57.4c2.8,1.1,5.5,2.3,8.3,3.3c9.1,3.2,18.2,6.3,27.2,9.6c1.7,0.6,4.6,1.2,3.5,3.8
	c-0.6,1.5-3.3,3.1-4.9,2.9c-4.4-0.4-9-1.1-13.1-2.6c-10.7-3.9-21.2-8.2-31.8-12.3c-4-1.6-4.3-3-0.8-5.6c4.7-3.5,9.5-6.9,14.5-10.1
	c0.9-0.6,2.6-0.2,3.9-0.2c-0.3,1.4-0.2,3.2-1,4c-2,2-4.4,3.7-6.6,5.5C916.9,56.2,917.2,56.8,917.5,57.4z"/>
<path class="st0" d="M915.2,33.6c1.8,6.7-2.1,10.8-8.2,13.5c-3.2,1.4-4.4,3.6-4.6,7.2c-0.3,5.2-1.2,10.4-2.3,15.5
	c-0.3,1.5-2.5,2.6-3.8,3.8c-0.9-1.6-2.6-3.3-2.5-4.9c0.5-7.3,1.9-14.6,2.3-21.9c0.4-7.1,3.2-13.3,6.1-19.4c1.3-2.6,5.2-4.5,8.3-5.5
	c2.5-0.8,4.3,1.7,4.6,4.3C915.4,28.5,915.2,30.8,915.2,33.6z M903.1,41.8c0.5,0.4,1.1,0.8,1.6,1.2c1.7-2.2,3.4-4.4,5.1-6.6
	c-0.5-0.4-1.1-0.8-1.6-1.2C906.5,37.4,904.8,39.6,903.1,41.8z M911.3,30.2c-2.8-2.6-5.5-1.6-7.3,2.2C906.5,31.7,908.6,31,911.3,30.2
	z"/>
<path class="st0" d="M127.9,165.6c2.8-0.5,4.6-0.8,6.4-1.2c1.4-0.2,2.8-0.9,4-0.7c1.4,0.2,2.6,1.3,3.8,1.9c-0.9,1.2-1.6,3.2-2.7,3.4
	c-6.3,1.4-12.7,2.7-19.1,3.3c-3.6,0.4-7.4-0.5-11.6-0.8c1.9-5.3,7.1-2.8,10.3-5.2c-2.6-3.9-5.3-7.8-7.8-11.7
	c-0.4-0.6-0.6-1.7-0.4-2.5c0.5-2.4,7.7-5.6,9.9-4.6c2.3,1.1,4.4,2,5.8-1.3c0.2-0.5,1.9-0.5,2.9-0.5c0.3,0,0.7,0.7,1,1
	c1.6,1.7,4.3,3.3,4.6,5.2c0.2,1.7-2.4,3.6-3.5,5.6C130.4,160,129.5,162.3,127.9,165.6z M122.6,162.7c0.5,0.1,1.1,0.2,1.6,0.2
	c0.3-1.7,0.6-3.5,0.7-5.2c0-0.1-1.5-0.3-2.3-0.4C122.6,159.1,122.6,160.9,122.6,162.7z"/>
<path class="st0" d="M14.9,185c2.6-0.6,5.2-1.5,7.9-1.8c1.4-0.1,3,0.8,4.5,1.2c-1.1,1.1-2,2.9-3.3,3.2c-5.8,1.5-11.7,2.7-17.6,3.7
	c-1.4,0.2-2.9-0.6-4.4-1c1-1.1,1.9-2.5,3.2-3.1c2.8-1.4,4.3-3.2,4.2-6.8c-1.7-0.1-3.4-0.2-5.1-0.4c-2.2-0.2-3.5-1.4-3.2-3.7
	c0.3-2.3,1.8-2.6,3.8-2.4c3.9,0.5,5.6-0.9,6-4.8c0.2-2.2,0.4-4.5,0.6-6.7c0-0.2-0.2-0.4-0.4-1.1c-1.9,0-4.1,0.2-6.1-0.1
	c-1.2-0.2-3-1.3-3-2.1c0-1.2,1-3.2,2-3.4c5.9-1.6,11.9-2.9,17.9-3.9c1.1-0.2,2.5,1.5,3.8,2.3c-0.8,1.1-1.5,2.4-2.5,3.4
	c-0.8,0.7-2,1.2-3,1.4c-4.3,0.8-5.1,3.8-4.8,7.6c0.1,2.2,0.4,3.8,3.1,4.3c2.6,0.5,2.6,2.2,1.1,4.2c-2,2.8-3.7,5.8-5.6,8.7
	C14.1,184.1,14.5,184.5,14.9,185z"/>
<path class="st0" d="M116.2,181.6c3.1,3.8,6.5,0.9,9.9,0.1c8.1-2,11.7,1.3,10.6,9.6c-0.4,2.6-1.1,5,1.2,7.3c0.5,0.5-0.2,3.1-1,3.7
	c-5.5,3.4-11.6,5.3-18.1,4.8c-1.1-0.1-3-1.7-3-2.6c-0.4-7.3-0.4-14.6-0.5-21.9C115.3,182.3,115.6,182.2,116.2,181.6z M130.9,193.8
	c-4.9,0.6-9.7,3.5-10.8,6.5C126,200.2,130.6,197.5,130.9,193.8z M119.7,192.3c3.5-1.7,6.9-3.4,10.2-5
	C123.4,185.7,119.4,187.8,119.7,192.3z"/>
<path class="st0" d="M90.3,175.3c-0.4,1.6-0.5,3.2-1.1,4.4c-0.5,1.1-1.7,2.5-2.6,2.5c-0.9,0-2.7-1.5-2.7-2.3
	c0-6.2,0.3-12.5,0.6-18.7c0-0.4,1-0.8,1.6-1.2c0.6,1,1.7,1.9,1.7,2.9c0.2,2.2-0.2,4.2,3,4.6c4.8,0.6,4.9,0.6,5.9-4.5
	c0.3-1.6,1.4-3,2.2-4.5c0.6,1.6,1.8,3.3,1.7,4.9c0,3.7-0.2,7,4.5,8.1c0.8,0.2,1.6,2.2,1.5,3.3c-0.1,0.9-1.4,2.2-2.3,2.3
	c-3.4,0.4-4.3,2.5-4.6,5.3c-0.7,7.1-1.2,14.2-2,21.3c-0.3,2.3-1.1,4.5-1.7,6.8c-0.6,0-1.1,0-1.7-0.1c-0.4-1.5-1.1-3.1-1-4.6
	c0.3-6.2,0.8-12.5,1.2-18.7c0.2-2.4,0.2-4.8,0.4-7.1C95.2,177,93.8,175.5,90.3,175.3z"/>
<path class="st0" d="M62.5,176.6c-0.2,1.7,0,3.7-0.8,5.1c-6.6,11.5-13,23.1-20.3,34.1c-2.4,3.6-6.9,5.9-10.8,8.2
	c-1.2,0.7-4-0.2-5.1-1.4c-0.7-0.7,0.1-3.5,1-4.9c1.6-2.4,3.8-4.3,5.7-6.5c8.9-10.8,17.7-21.6,26.5-32.5c0.8-0.9,1.5-1.8,2.3-2.7
	C61.5,176.3,62,176.4,62.5,176.6z"/>
<path class="st0" d="M284,186.7c2.6-0.8,4.8-1.8,7-2.2c1.2-0.2,2.6,0.5,3.9,0.9c-0.6,1.2-1,3.2-1.9,3.5c-6.4,2.2-13,4.2-19.6,6
	c-1.1,0.3-2.5-0.3-3.6-0.8c-0.6-0.3-1.3-1.3-1.3-2c0-0.7,0.8-1.4,1.4-1.9c0.4-0.3,1.2-0.4,1.8-0.4c5.6-0.6,6.9-1.6,6.6-9.6
	c-1.6,0.1-3.2,0.3-4.7,0.3c-0.9,0-2.5-0.5-2.5-0.9c-0.1-1,0.4-2.1,1-2.9c0.5-0.7,1.3-1.3,2.1-1.5c5.8-1.2,5.2-5.8,5.8-10.2
	c-1.9-0.6-3.8-0.8-5.4-1.7c-1.1-0.6-1.5-2.2-2.3-3.3c1-0.5,2-1.4,3-1.5c3.2-0.3,6.5-0.5,9.7-0.3c1.2,0.1,2.4,1.2,3.7,1.9
	c-0.6,1.1-1.3,2.1-1.9,3.2c-0.9,1.6-2.4,3.2-2.6,4.9c-0.1,0.8,2.2,2.1,3.6,2.7c2.2,1.1,2.6,3.3,0.6,5
	C284.1,179.7,284.1,179.7,284,186.7z"/>
<path class="st0" d="M543.3,74c0.3-1.9,0.2-3.9,0.9-5.6c2.2-5.4,4.8-10.7,7.1-16.1c1.9-4.2,3.8-8.4,5.5-12.7
	c0.7-1.8,1.4-4.2,0.8-5.8c-1.4-3.8,0.3-5.3,3.3-6.5c1.7-0.7,3.4-1.6,5.2-2.2c4.5-1.6,7.1,0,7.5,4.7c0.7,8.1-3.2,18.8-13.1,19.9
	c-1,0.1-2.1,1.6-2.7,2.7c-3.4,6.2-6.7,12.6-10.1,18.8c-0.7,1.3-2,2.3-3,3.5C544.2,74.4,543.7,74.2,543.3,74z M560.8,44.5
	c4.8-1,6.7-3.1,6.8-7.6C564.7,39,560.5,39.3,560.8,44.5z M561.1,34.9c7.4-1,8.5-2,7.7-6.2C565.6,29.6,562.8,30.9,561.1,34.9z"/>
<path class="st0" d="M530.9,19.1c0.7,1.7,1.1,2.3,1.2,2.9c0.2,2.2,1.3,2.7,3.3,2.2c1.5-0.4,3.2-0.7,4.8-0.5c0.9,0.1,2.2,1.1,2.3,1.8
	c0.2,0.8-0.5,2.2-1.3,2.8c-0.9,0.8-2.2,1.1-3.3,1.6c-5.1,2-6.5,5.6-3.4,10.2c1.3,2,1,3.2,0.3,5.3c-1.3,4.4-1.7,9-2.6,13.6
	c-0.6,3.1-1,6.2-2,9.1c-0.4,1.1-2,2.2-3.2,2.6c-0.6,0.2-1.9-1.3-2.5-2.2c-1.7-2.5-3.4-4.9-4.8-7.6c-0.5-0.8-0.2-2-0.3-3.1
	c1,0.2,2.1,0.2,3,0.6c1.4,0.7,2.6,1.7,4.8,3.1c0.5-4,0.9-7.1,1.5-11.3c-2.5,1-3.8,1.7-5.1,2.1c-0.9,0.3-2,0.1-3,0.1
	c0.2-1.2-0.1-2.6,0.5-3.4c1.1-1.3,2.6-2.2,4.1-3.2c3.7-2.6,5.5-7.6,3.7-11.5c-0.5-1.1-2.4-1.8-3.8-2.2c-2.1-0.7-2.9-2-1.3-3.5
	c1.5-1.4,4-1.7,5.3-3.2C530.1,24.2,530.2,21.9,530.9,19.1z"/>
<path class="st0" d="M831.5,149.1c-2.9,8.8-5.5,17.5-8.5,26c-0.9,2.5-4.2,2.5-5.6,0.1c-0.5-0.7-0.9-1.6-0.8-2.5
	c0.1-9.3,0-18.7,0.7-28c0.4-5.1,6.9-7.6,10.4-4.2C829.5,142.6,830.1,146,831.5,149.1z"/>
<path class="st0" d="M573.2,135.1c0.6,0.4,1.3,0.7,1.9,1.1c1.2,1,2.5,2.1,3.6,3.3c8.5,9.7,18.4,17.6,29.3,24.4
	c2.1,1.3,3.9,3.1,5.3,5.1c0.7,1,0.1,2.9,0.1,4.5c-1.4,0-3.1,0.5-4.1-0.2c-13.4-9.6-27.9-17.9-37.6-31.7c-0.8-1.1-1.1-2.9-1-4.3
	c0-1,0.9-2,1.5-3C572.5,134.5,572.8,134.8,573.2,135.1z"/>
<path class="st0" d="M378.9,159.2c0.6-2.5,1.2-4.9,1.9-7.4c2-6.4,4-12.8,6.2-19.2c0.3-1,1.4-1.8,2.1-2.7c0.7,1,1.6,2,1.9,3.1
	c0.5,1.8,0.5,3.7,0.8,6.2c3.1-0.7,5.8-1.3,8.6-2c4.1-1,8.2-2.3,12.3-3.1c2.4-0.5,5.1-0.1,5.8,2.8c0.7,3.1-1.9,4.2-4.2,4.8
	c-7.4,1.9-14.7,3.8-22.2,5.2c-2.4,0.5-3.8,1.4-4.8,3.4c-1.2,2.2-2.4,4.4-3.8,6.5c-0.8,1.2-2.1,2.2-3.1,3.3
	C379.8,159.7,379.3,159.4,378.9,159.2z"/>
<path class="st0" d="M181.5,178c1.2-0.5,2.4-1.4,3.4-1.2c1.5,0.2,3,1,4.1,2c0.4,0.4-0.1,2.7-0.8,3.1c-5.8,3.5-11.8,6.9-17.8,10.2
	c-0.6,0.3-1.9-0.5-2.9-0.8c0.4-0.8,0.7-1.8,1.4-2.4c1.7-1.5,3.5-2.8,5.3-4.2c2-1.7,2.7-4,1.2-6c-0.8-1.1-3-1.3-4.6-1.6
	c-0.9-0.2-2,0.3-3,0.1c-0.8-0.2-2-0.8-2.2-1.4c-0.2-0.9,0.2-2.2,0.8-2.9c0.5-0.7,1.6-1.1,2.6-1.4c2.7-0.9,4.4-2.4,5.2-5.3
	c0.7-2.6,2.2-3.4,4.6-1.1c0.9,0.9,2.9,0.5,4.4,1c1.4,0.5,2.7,1.4,4.1,2c-0.8,1.2-1.3,2.6-2.3,3.5C180.9,174.5,180.8,174.5,181.5,178
	z"/>
<path class="st0" d="M906.8,5.1c-5.8,6.4-11.2,12.6-16.8,18.6c-1.7,1.8-3.7,3.4-5.7,4.8c-0.7,0.5-2,0.1-3,0.2
	c0.1-0.9-0.2-2.1,0.3-2.7C888.3,17.5,895,9.2,902,1c0.8-0.9,3.2-1.3,4.4-0.8c6.1,2.8,12.1,5.8,18,9c1.3,0.7,2.1,2.3,3.2,3.4
	c-1.5,0.5-3.1,1.5-4.5,1.4c-5.8-0.4-10.1-3.9-14.3-7.5C908.1,6.1,907.5,5.6,906.8,5.1z"/>
<path class="st0" d="M1022,28.6c-0.9,12.7-4.4,23.3-10.4,33c-1.4,2.3-3.3,4.5-5.5,6c-1.3,0.9-3.5,0.6-5.3,0.9c0-1.7-0.5-3.7,0.2-5.1
	c2.7-5.2,6.2-10,8.8-15.2c2.9-6.2,5-12.7,7.6-19c0.6-1.4,1.6-2.7,2.5-4C1020.8,26.7,1021.7,28.1,1022,28.6z"/>
<path class="st0" d="M744.3,147.5c0,1.9,0.3,3.9,0,5.7c-1.9,10.9-3.9,21.9-5.9,32.8c-0.6,3.4-0.9,6.9-2,10.2
	c-0.5,1.4-2.5,2.3-3.9,3.4c-0.9-1.5-2.4-3-2.7-4.7c-0.3-1.9,0.2-4,0.7-5.9c2.5-10.2,4.9-20.4,7.6-30.5c1-3.9,2.8-7.6,4.2-11.4
	C743,147.3,743.7,147.4,744.3,147.5z"/>
<path class="st0" d="M564.2,63.3c0.4-3.5,0.5-6,0.9-8.4c0.4-2.2,1.5-2.8,3.8-1.5c1.2,0.7,3,0.9,4.4,0.6c6.3-0.9,9.7,2.9,7.8,8.9
	c-1.5,4.8-4.3,8.8-8.6,11.4c-4.2,2.6-7.3,1-7.9-3.8C564.2,67.8,564.2,65.1,564.2,63.3z M576.2,59.6c-5.5,0.5-6.7,3.1-4.2,8.3
	C573.5,65,574.7,62.7,576.2,59.6z"/>
<path class="st0" d="M567.9,15.5c0.3,5.9-4.8,5.1-8.1,6.5c-1.1,0.5-2.9-0.8-4.4-1.2c-0.2-0.5-0.3-0.9-0.4-1.4
	c-1.1,1.4-2.1,2.8-3.3,4c-0.5,0.5-1.9,0.8-2.2,0.5c-0.6-0.6-1.1-1.9-0.8-2.5c3.1-5.1,6.3-10.2,9.7-15c0.4-0.6,2.5-0.4,3.6,0
	c3.3,1,6.5,2.3,9.7,3.5c1,0.4,2.2,0.8,2.9,1.6c0.7,0.9,1.3,2.3,1.1,3.2c-0.2,0.7-1.8,1.4-2.9,1.5C571.3,16.2,569.7,15.8,567.9,15.5z
	 M557.8,17c3.1-0.9,5.4-1.6,8.1-2.4c-2-1.2-3.5-2.1-5.3-3.1C559.6,13.4,558.8,14.8,557.8,17z"/>
<path class="st0" d="M545.9,178.2c-1.7-1-3.4-1.4-3.8-2.4c-0.4-0.9,0-3,0.8-3.6c7-6,14.1-11.8,21.3-17.6c0.5-0.4,1.1-0.8,1.7-0.7
	c1.5,0,3,0.2,4.6,0.4c-0.7,1.3-1.1,2.8-2.1,3.8c-4.6,4.8-9.2,9.5-14,14C551.8,174.3,548.8,176.1,545.9,178.2z"/>
<path class="st0" d="M47.2,145c3.4,0.4,7.4,0.9,11.3,1.5c1.4,0.2,2.8,0.3,4,1c1,0.6,1.7,1.8,2.5,2.8c-1.2,0.7-2.4,2-3.5,1.9
	c-3.8-0.5-7.6-1.3-11.4-2.3c-7.3-1.9-7.2-1.9-11.4,4.3c-1.4,2-2.5,5.7-5.7,3.9c-3.1-1.7-0.9-4.7,0.3-6.8c1.6-3.1,3.5-6.1,5.7-8.7
	c1.2-1.4,3.5-2.4,5.3-2.4C45.1,140.1,46,142.8,47.2,145z"/>
<path class="st0" d="M666.1,150.6c-0.6,2.2-1.2,4.4-1.8,6.9c3.2,0,6.1,0,9,0c3.4,0.1,6.8-0.1,10,0.5c1.3,0.2,2.2,2.3,3.4,3.6
	c-1.4,0.7-2.8,2.1-4.1,2c-6.1-0.3-12.2-0.9-18.3-1.6c-2.8-0.3-4.8,0.6-6.3,3c-0.7,1.1-1.8,2.1-3,2.5c-1.9,0.7-3.3-0.6-2.4-2.3
	c2.9-6,7.1-11.2,12.2-15.4C665.3,150.1,665.7,150.3,666.1,150.6z"/>
<path class="st0" d="M479.5,33.9c-0.9,4.8-1.4,8.4-2.4,11.9c-0.4,1.5-1.6,3.3-3,4c-1.1,0.7-3,0.1-4.5,0.1c0-1.3-0.3-2.8,0.2-3.8
	c1.2-2.5,1.5-4.5-1.1-6.5c-2.4-1.9-2.1-5.7,0.1-8.8c1.8-2.6,5.7-4.1,7.8-2.4C478.3,29.9,478.9,32.6,479.5,33.9z"/>
<path class="st0" d="M661.7,129.8c1.4,0.9,3.1,1.6,3.9,2.8c1.1,1.7,2,2.3,4.1,2.2c2.2-0.1,5.4,0.3,6.3,1.7c0.9,1.5-0.1,4.4-0.6,6.6
	c-0.3,1.3-1.1,2.6-2.1,3.5c-0.9,0.9-2.4,1.2-3.6,1.8c-0.1-1.3-0.5-2.5-0.3-3.8c0.1-1.1,0.7-2,1.1-3.1c-0.2-0.3-0.5-0.7-0.7-1
	c-1.8,1-3.8,1.7-5.4,3c-1.9,1.7-3.8,1.7-5.2-0.1c-0.6-0.8,0.2-2.7,0.4-4.1C660.3,136.6,660.9,133.8,661.7,129.8z"/>
<path class="st0" d="M1014.6,25c-0.2,2.5,0.2,4.8-0.5,6.4c-3.4,7.1-7,14-10.7,20.9c-0.5,1-1.7,1.9-2.8,2.2c-2.1,0.6-4-0.5-2.9-2.7
	c4.7-8.8,9.7-17.3,14.7-26C1012.6,25.6,1013.3,25.6,1014.6,25z"/>
<path class="st0" d="M763.2,191c3.1,0.5,5.4,0.5,7.3,1.4c4.8,2.2,9.5,4.8,14.1,7.4c1.1,0.6,2.1,1.8,2.8,3c1.4,2.3,0.4,3.8-2.4,3.8
	c-0.5,0-1.1,0-1.5-0.2c-6.4-4-12.8-8.1-19.1-12.2C764,193.8,763.9,192.9,763.2,191z"/>
<path class="st0" d="M303.5,183.8c-7.1-7.2-7.1-7.2-4.5-10.5c4.1,0.9,8.5,1.9,9.8,6.4c1.2,4.4-2.8,6.9-5.6,9.5
	c-1.7,1.6-3.8,2.8-6,3.8c-1,0.4-2.4-0.2-3.7-0.4c0.5-1.1,0.8-2.5,1.7-3.1C297.9,187.4,300.7,185.7,303.5,183.8z"/>
<path class="st0" d="M329.2,147.7c0.3-3.2,0.4-6.5,1.1-9.7c0.2-1.1,1.8-2,2.7-3c0.8,1,2.2,2,2.4,3.1c0.6,4.9,1,9.9,1.2,14.9
	c0.1,2.4-0.4,5.2-3.6,5.1c-3.2-0.1-3.5-2.7-3.5-5.2c-0.1-1.7,0-3.5,0-5.2C329.3,147.7,329.3,147.7,329.2,147.7z"/>
<path class="st0" d="M56.4,165.7c0.1,1.3,0.4,2.2,0.2,3c-2.2,6.6-5.8,12.4-11.1,17c-0.8,0.7-3.1,1-3.6,0.4c-0.8-0.9-1.3-3.1-0.7-3.9
	c4.1-5.4,8.6-10.7,13-15.9C54.5,165.9,55.3,166,56.4,165.7z"/>
<path class="st0" d="M34.1,180.5c0-2-0.5-3.5,0.1-4.5c3.1-5.9,6.3-11.8,9.7-17.5c0.4-0.7,1.8-0.9,2.8-1.3c0.3,0.9,1,1.9,0.8,2.7
	c-1.7,7.2-4.9,13.8-10.1,19.2C36.8,179.5,35.8,179.7,34.1,180.5z"/>
<path class="st0" d="M712.4,197.4c-0.5-0.4-2.2-1.2-2.5-2.3c-0.3-1.1,0.4-3.2,1.3-3.8c4.1-2.4,8.3-4.5,12.6-6.4c0.8-0.4,2.3,0,3,0.6
	c0.5,0.4,0.7,1.9,0.5,2.7C726.5,190.9,716.3,197.6,712.4,197.4z"/>
<path class="st0" d="M740.6,146.1c-1.2-0.9-2.7-1.5-2.9-2.4c-0.2-1.3,0-3.6,0.8-4c4.3-2.3,8.7-5.1,14-3.9c1.1,0.3,2.6,1.4,2.7,2.3
	c0.2,1-0.7,2.9-1.6,3.3C749.4,143.2,745.1,144.6,740.6,146.1z"/>
<path class="st0" d="M762.3,151.7c-0.9,0.9-1.8,1.9-2.9,2.5c-2.7,1.5-5.4,3-8.4,3.9c-1.2,0.4-3.2-0.3-4.1-1.2
	c-0.8-0.8-1-2.8-0.5-3.9c1.5-3.2,9.5-6.2,12.9-5c1.4,0.5,2.6,1.4,3.9,2.1C762.9,150.6,762.6,151.2,762.3,151.7z"/>
<path class="st0" d="M823,195.4c0,0.8,0,1.4-0.1,2c-0.6,4.1-2.5,6.3-5.3,6c-4.2-0.5-3.5-3.8-3.6-6.6c-0.1-1.2,0.1-2.5,0.3-3.7
	c0.4-2.4,1.4-4.3,4.3-4.2c2.8,0.1,3.8,1.9,4.3,4.3C823.1,194,823,194.8,823,195.4z"/>
<path class="st0" d="M636.1,164.7c-1.5-1.2-2.9-1.8-3.2-2.8c-0.2-0.6,0.9-2.2,1.7-2.7c3.5-1.9,7.1-3.6,10.8-5.1
	c1-0.4,2.3,0.3,3.5,0.5c-0.4,1.1-0.4,2.6-1.2,3.1C644.1,160.1,640.2,162.3,636.1,164.7z"/>
<path class="st0" d="M642.5,145.2c1,0.7,2.9,1.3,3.5,2.6c1.1,2.4-1.1,3-2.9,3.7c-1.3,0.5-2.5,1.7-3.7,1.7c-1.6,0-3.8-0.5-4.7-1.6
	c-1.3-1.8-0.3-3.9,1.8-4.8C638.2,146.1,639.9,145.9,642.5,145.2z"/>
<path class="st0" d="M131.3,12.2c4.5,2.3,9,4.4,13.3,6.9c0.7,0.4,0.9,2.1,0.9,3.2c0,0.3-1.9,1.1-2.4,0.8c-4.1-2.3-8.1-4.8-12-7.4
	c-0.5-0.3-0.5-1.5-0.8-2.3C130.6,13,130.9,12.6,131.3,12.2z"/>
<path class="st0" d="M637.3,12.8c0.3-1.7,0.4-3.5,1.1-5c0.4-0.9,2.1-1.9,2.8-1.6c1,0.3,2.4,1.7,2.4,2.7c0.1,3-0.2,6-0.8,8.9
	c-0.2,1-1.3,1.8-2,2.7c-0.8-0.8-2.1-1.4-2.5-2.4C637.7,16.5,637.6,14.7,637.3,12.8z"/>
<path class="st0" d="M716.7,179.9c-0.6-0.1-1.7,0.1-2.3-0.3c-1-0.7-2.4-1.8-2.3-2.6c0.1-1,1.5-2.3,2.5-2.6c1.7-0.4,3.7-0.3,5.5,0.2
	c1.1,0.3,1.9,1.7,2.8,2.5c-1,0.8-1.8,1.7-2.9,2.3C719,179.8,717.9,179.7,716.7,179.9z"/>
<path class="st0" d="M717.4,165.6c-2.2-1-4.1-1.8-5.8-2.8c-0.3-0.2,0-2.2,0.2-2.2c2-0.3,4.2-0.7,6.1-0.3c1.4,0.3,2.5,1.9,3.7,2.8
	C720.3,163.9,718.9,164.7,717.4,165.6z"/>
<path class="st0" d="M907.1,20.3c-1.5-1.2-2.6-2.1-3.6-3c1.5-1,3-2.5,4.6-2.7c1.3-0.1,2.8,1.4,4.2,2.2
	C910.7,17.9,909.2,18.9,907.1,20.3z"/>
</svg>
