<svg width="566" height="209" viewBox="0 0 566 209" fill="none" xmlns="http://www.w3.org/2000/svg">
<path d="M36.571 161.515C37.721 163.499 38.7781 165.326 40.0138 167.453C40.7996 166.561 41.421 165.904 41.9924 165.19C43.5496 163.249 44.9496 161.158 46.6567 159.36C48.521 157.391 51.3424 157.997 52.3567 160.366C52.9853 161.829 52.5424 162.971 51.4495 164.042C48.2424 167.167 46.2781 171.106 44.521 175.131C44.1853 175.909 44.4496 177.137 44.8138 178C47.0567 183.231 50.271 187.834 54.0424 192.087C55.2567 193.45 56.4067 194.927 57.2781 196.519C58.2995 198.374 57.1281 200.087 55.071 199.594C53.3138 199.173 51.271 198.346 50.1995 197.018C47.471 193.614 45.1924 189.846 42.771 186.2C41.9996 185.029 41.3567 183.773 40.6567 182.56C40.3781 182.396 40.0996 182.225 39.8281 182.061C39.5424 182.653 39.3424 183.302 38.9567 183.816C37.6638 185.522 36.3496 187.213 34.9567 188.826C34.271 189.625 33.471 190.417 32.5638 190.917C30.2496 192.187 28.021 190.795 28.4353 188.241C28.721 186.478 29.4496 184.701 30.3424 183.138C31.8996 180.412 33.7138 177.829 35.471 175.224C36.2353 174.089 36.4638 173.019 35.771 171.756C34.3781 169.208 33.0424 166.625 31.6924 164.056C31.171 163.064 30.3996 162.793 29.321 163.071C26.3853 163.827 23.4496 164.562 20.4996 165.255C18.7853 165.661 17.9996 166.682 18.0638 168.437C18.1138 169.672 18.071 170.914 18.071 172.512C18.9924 172.098 19.6781 171.856 20.3067 171.499C22.271 170.386 24.1996 169.215 26.1638 168.109C27.3496 167.438 28.3924 167.51 29.2353 168.766C30.1281 170.1 29.3281 170.935 28.3924 171.599C26.0281 173.29 23.6353 174.953 21.171 176.501C19.0924 177.807 18.0924 179.506 17.8496 182.004C17.3996 186.664 15.7067 190.981 13.2638 194.977C12.7567 195.812 12.0067 196.583 11.1996 197.132C9.5567 198.253 7.43527 197.796 6.62812 196.005C4.94955 192.251 4.33527 188.398 6.54241 184.587C6.92812 183.923 7.31384 183.231 7.82098 182.66C10.9781 179.099 11.0138 174.774 10.9281 170.407C10.9067 169.222 10.2067 168.987 9.2567 169.258C7.71384 169.693 6.22098 170.314 4.66384 170.65C3.78527 170.842 2.64241 170.935 1.93527 170.521C1.07812 170.015 0.135268 168.994 0.0138393 168.095C-0.0933036 167.303 0.685268 165.954 1.43527 165.576C3.97098 164.306 6.64955 163.314 9.29955 162.293C10.7424 161.737 12.0424 161.109 12.2781 159.367C12.3067 159.146 12.2496 158.918 12.2067 158.283C11.4567 159.139 10.9496 159.76 10.3924 160.331C9.4067 161.344 8.24955 162.322 6.81384 161.501C5.4567 160.723 5.04241 159.289 5.52098 157.783C5.83527 156.791 6.17812 155.692 6.84241 154.936C10.1138 151.203 13.9424 148.106 18.2781 145.673C20.3424 144.517 22.3924 144.709 24.3567 145.908C24.8924 146.237 25.4138 146.729 25.6996 147.271C25.9067 147.664 25.8638 148.363 25.6353 148.749C25.4781 149.013 24.7424 149.184 24.3924 149.055C22.4567 148.356 21.221 149.426 19.9924 150.611C16.4567 154.015 16.2424 154.857 18.0638 159.26C18.2138 159.624 19.0353 160.002 19.4638 159.924C22.2638 159.424 25.071 158.911 27.8138 158.168C29.5996 157.69 28.7067 156.27 28.4138 155.207C27.7924 152.945 28.1853 152.11 30.3924 151.282C32.271 150.583 33.6853 151.639 33.5638 153.658C33.5353 154.072 33.4853 154.486 33.4924 154.9C33.521 156.606 33.8424 156.82 35.5496 156.391C37.0924 155.999 38.6353 155.485 40.2067 155.335C41.5924 155.2 43.0138 155.571 43.321 157.312C43.6353 159.096 42.5567 159.931 41.0353 160.359C39.6567 160.759 38.2781 161.08 36.571 161.515ZM10.471 186.428C8.2067 187.491 7.74241 190.624 9.52812 193.122C10.6853 190.91 10.7567 188.747 10.471 186.428Z" fill="white"/>
<path d="M375.756 153.166C378.142 152.93 380.564 152.581 381.914 150.975C382.942 149.755 382.814 147.55 383.171 145.78C383.542 143.932 383.699 142.019 384.263 140.235C384.842 138.415 386.921 137.837 388.506 138.829C389.621 139.521 390.149 140.606 389.378 141.698C387.849 143.839 388.914 146.015 388.806 148.192C391.742 148.071 392.414 147.457 392.906 144.788C393.056 143.981 393.156 143.061 393.614 142.433C394.149 141.698 395.035 140.784 395.799 140.756C396.685 140.72 398.099 141.334 398.428 142.048C400.135 145.816 400.499 149.819 399.499 153.844C399.128 155.35 397.335 155.799 396.014 154.672C394.392 153.28 393.178 153.758 391.599 154.757C389.564 156.042 388.621 157.49 388.656 160.038C388.735 165.612 388.464 171.192 388.214 176.766C388.142 178.357 388.621 178.842 390.199 178.757C394.985 178.507 399.542 177.529 403.985 175.267C403.478 174.375 403.128 173.633 402.664 172.962C401.792 171.692 400.842 170.471 399.956 169.208C398.499 167.132 398.506 165.804 399.921 164.677C401.406 163.499 403.285 163.735 404.706 165.661C406.285 167.795 407.692 170.086 408.949 172.434C411.628 177.458 414.421 182.453 416.664 187.67C418.064 190.931 418.649 194.556 419.406 198.067C419.749 199.644 418.542 201.143 416.985 201.528C415.335 201.935 414.328 201.207 413.585 199.716C411.264 195.013 409.335 190.217 408.842 184.922C408.706 183.509 408.035 182.139 407.571 180.612C407.021 180.897 406.721 180.976 406.535 181.161C402.728 185.001 397.814 186.071 392.721 186.556C386.821 187.12 380.892 187.413 374.999 188.019C373.085 188.219 371.256 189.14 369.356 189.547C367.349 189.975 365.271 190.531 363.256 190.41C360.278 190.232 359.035 187.755 360.442 185.144C362.685 180.983 365.614 177.315 369.164 174.196C369.792 173.647 370.906 173.647 371.799 173.39C371.956 174.318 372.406 175.317 372.221 176.173C371.871 177.757 371.142 179.256 370.435 181.176C371.556 181.069 372.335 181.033 373.099 180.912C375.442 180.541 377.763 180.077 380.113 179.763C381.599 179.563 382.614 179.22 382.599 177.358C382.564 172.141 382.706 166.925 382.735 161.708C382.735 161.087 382.478 160.459 382.364 159.974C379.785 160.174 377.378 160.502 374.971 160.523C370.185 160.566 367.821 157.376 369.385 152.916C370.342 150.183 371.606 147.557 372.764 144.895C373.349 143.539 374.306 142.768 375.864 143.282C377.485 143.817 377.599 145.173 377.306 146.493C376.899 148.335 376.256 150.133 375.742 151.953C375.692 152.224 375.756 152.531 375.756 153.166Z" fill="white"/>
<path d="M465.271 172.02C463.378 170.835 461.7 169.665 459.9 168.709C458.935 168.195 457.843 167.717 458.357 166.582C458.6 166.04 459.957 165.647 460.721 165.761C462.285 165.997 463.814 166.561 465.314 167.117C466.6 167.595 467.364 167.388 467.964 166.04C469.207 163.221 470.614 160.473 471.936 157.683C472.207 157.112 472.393 156.499 472.621 155.899C472.521 155.756 472.421 155.621 472.314 155.478C471.414 155.885 470.421 156.17 469.628 156.727C468.371 157.612 467.307 158.782 466.028 159.631C465.428 160.031 464.393 160.245 463.778 159.995C463.285 159.795 462.771 158.668 462.907 158.104C463.7 154.843 464.528 151.567 465.664 148.413C466.25 146.779 468.707 146.9 469.55 148.477C469.993 149.298 470.221 150.233 470.664 151.417C472.028 150.818 473.321 150.162 474.671 149.669C476.435 149.027 478.221 148.327 480.057 148.013C481.514 147.764 482.364 149.284 481.371 150.326C477.214 154.707 476.121 160.473 474.264 165.861C472.393 171.299 472.521 171.456 477.528 174.439C483.85 178.214 490.286 181.804 496.643 185.515C498.128 186.378 499.507 187.427 500.957 188.355C501.993 189.019 502.757 189.825 502.314 191.124C501.85 192.465 500.836 193.472 499.4 193.3C496.771 192.986 494.064 192.708 491.6 191.837C483.7 189.04 476.893 184.416 470.864 178.635C470.393 178.186 469.9 177.757 469.243 177.165C468.571 178 467.964 178.785 467.336 179.549C465.45 181.839 463.614 184.173 461.635 186.385C460.264 187.912 458.55 189.033 456.4 189.097C455.607 189.118 454.728 188.969 454.014 188.626C452.664 187.977 452.528 186.999 453.528 185.914C453.964 185.443 454.493 185.029 455.035 184.673C459.714 181.647 462.164 176.865 465.271 172.02Z" fill="white"/>
<path d="M240.306 171.035C239.328 172.162 238.471 173.055 237.735 174.032C235.406 177.108 233.235 180.319 230.771 183.274C229.471 184.822 227.764 186.085 226.071 187.234C224.928 188.012 223.314 187.941 222.506 186.785C221.985 186.035 221.992 184.608 222.306 183.666C222.806 182.175 223.649 180.762 224.564 179.456C227.085 175.859 229.685 172.319 232.321 168.801C233.156 167.688 233.156 167.167 231.792 166.425C227.814 164.255 224.678 161.237 223.535 156.67C222.849 153.944 224.721 151.032 227.185 150.654C228.835 150.404 229.285 150.932 229.135 152.559C229.064 153.323 229.164 154.329 229.606 154.871C231.435 157.105 233.371 159.267 235.392 161.33C236.556 162.521 237.778 162.15 238.664 160.816C240.906 157.447 243.056 154.036 243.428 149.854C243.471 149.383 243.499 148.805 243.771 148.491C244.371 147.799 245.149 146.743 245.821 146.764C246.656 146.793 248.042 147.671 248.156 148.356C248.514 150.532 248.849 152.895 248.342 154.978C247.635 157.876 246.278 160.637 244.971 163.349C244.314 164.712 244.356 165.64 245.499 166.575C250.778 170.892 256.042 175.231 261.335 179.534C262.256 180.276 263.349 180.805 264.278 181.54C266.164 183.031 266.471 184.565 265.421 186.713C264.206 189.197 262.306 190.017 260.085 188.398C256.164 185.536 252.421 182.41 248.771 179.213C245.906 176.73 243.299 173.954 240.306 171.035Z" fill="white"/>
<path d="M321.614 175.831C319.578 178.393 317.664 180.869 315.671 183.288C314.885 184.244 313.985 185.129 313.028 185.914C312.057 186.714 310.878 187.099 309.778 186.193C308.635 185.251 308.642 183.995 309.364 182.817C311.321 179.634 313.342 176.494 315.335 173.333C318.049 169.023 318.028 168.973 314.749 165.034C313.885 163.992 313.042 162.886 312.435 161.68C311.957 160.73 311.492 159.574 312.714 158.647C313.971 157.697 315.242 157.248 316.557 158.454C317.514 159.339 318.385 160.317 319.292 161.251C319.692 161.665 320.085 162.079 320.799 162.821C322.507 159.146 324.078 155.771 325.642 152.395C325.421 152.231 325.207 152.067 324.985 151.903C324.157 152.724 323.249 153.487 322.528 154.393C321.714 155.407 321.121 156.599 320.328 157.626C319.307 158.953 317.878 158.896 316.949 157.519C315.971 156.078 315.507 154.472 316.135 152.788C317.192 149.962 318.306 147.157 319.521 144.395C319.949 143.411 320.521 142.219 321.999 142.583C323.442 142.94 323.157 144.16 323.192 145.202C323.199 145.43 323.271 145.651 323.357 146.101C324.392 145.573 325.271 144.952 326.257 144.667C327.535 144.303 328.949 143.853 330.192 144.074C332.699 144.517 334.014 148.192 331.985 149.826C328.771 152.424 328.499 155.749 327.892 159.31C327.392 162.243 326.114 165.055 325.056 167.881C324.678 168.88 324.728 169.565 325.335 170.471C329.435 176.53 334.199 181.882 340.571 185.7C342.906 187.099 345.006 188.883 347.185 190.531C347.742 190.953 348.306 191.459 348.642 192.059C349.342 193.286 349.735 194.671 348.706 195.884C347.728 197.033 346.364 196.733 345.242 196.183C343.385 195.27 341.428 194.392 339.878 193.072C334.635 188.626 329.514 184.03 324.421 179.413C323.349 178.457 322.607 177.122 321.614 175.831Z" fill="white"/>
<path d="M127.142 160.987C124.171 162.55 121.328 163.892 119.092 166.282C118.485 166.925 117.428 167.603 116.671 167.51C116.021 167.431 115.442 166.318 114.957 165.576C114.721 165.212 114.699 164.662 114.699 164.191C114.692 159.325 114.564 154.45 114.749 149.591C114.935 144.816 117.564 142.019 122.571 141.084C124.592 140.706 126.699 140.635 128.771 140.649C131.278 140.663 132.214 142.283 132.107 144.788C131.899 149.405 131.971 154.037 132.042 158.654C132.071 160.659 132.421 162.657 132.578 164.67C133.014 170.165 133.371 175.659 133.849 181.147C134.449 188.019 133.878 194.685 130.307 200.758C129.464 202.192 128.249 203.505 126.935 204.533C126.321 205.018 124.871 205.025 124.164 204.618C123.599 204.297 123.385 203.02 123.378 202.164C123.364 201.25 123.657 200.28 124.021 199.43C126.435 193.814 126.792 187.848 127.371 181.868C127.999 175.338 127.757 168.851 127.392 162.343C127.364 162.008 127.264 161.672 127.142 160.987ZM118.564 148.913C119.321 149.748 119.928 150.875 120.364 150.811C122.342 150.518 124.314 149.99 126.221 149.355C127.685 148.863 127.464 147.407 127.228 146.337C127.128 145.88 125.921 145.28 125.349 145.395C123.621 145.737 121.921 146.301 120.292 146.979C119.685 147.229 119.314 148.042 118.564 148.913ZM120.328 159.61C122.449 158.454 124.478 157.526 126.271 156.263C126.814 155.878 126.714 154.579 126.914 153.701C126.199 153.594 125.378 153.209 124.778 153.423C120.135 155.1 119.899 154.729 120.328 159.61Z" fill="white"/>
<path d="M174.75 148.135C171.785 148.82 169.214 149.469 166.621 150.005C162.921 150.761 159.207 150.882 155.521 149.862C155.121 149.748 154.621 149.733 154.35 149.484C153.628 148.799 152.471 147.978 152.5 147.257C152.528 146.494 153.607 145.387 154.45 145.109C156.928 144.303 159.521 143.882 162.057 143.239C168.178 141.677 174.35 140.599 180.714 140.934C181.985 140.999 183.335 140.884 183.664 142.526C183.985 144.146 182.735 144.652 181.592 145.202C180.578 145.68 179.157 145.923 178.671 146.722C178.221 147.464 178.764 148.806 178.892 149.883C179.735 157.119 180.764 164.341 181.4 171.599C182.292 181.832 180.364 191.445 174.15 199.909C173.728 200.479 173.264 201.029 172.757 201.521C171.928 202.328 171.021 203.127 169.814 202.192C168.65 201.279 168.478 200.223 169.014 198.738C170.492 194.628 171.971 190.489 173.028 186.257C173.735 183.417 173.978 180.398 173.992 177.458C174.021 171.827 173.585 166.204 173.635 160.573C173.664 157.105 174.235 153.637 174.564 150.169C174.6 149.605 174.657 149.034 174.75 148.135Z" fill="white"/>
<path d="M527.664 179.777C529.121 179.163 530.578 178.543 532.042 177.929C534.171 177.03 536.257 175.988 538.442 175.267C540.757 174.503 542.485 175.31 543.207 177.13C543.792 178.6 543.421 179.799 541.899 180.255C540.249 180.755 539.492 181.797 539.15 183.352C538.985 184.102 538.792 184.872 538.435 185.543C537.242 187.77 538.142 189.226 539.892 190.688C546.385 196.105 552.9 201.443 561.007 204.354C562.257 204.804 563.35 205.539 563.028 207.066C562.678 208.715 561.292 209.114 559.842 208.972C555.621 208.558 551.635 207.081 548.257 204.704C543.664 201.479 539.428 197.732 535.192 194.035C533.978 192.972 533.292 192.879 532.107 193.878C529.428 196.133 526.692 198.331 523.907 200.451C522.885 201.229 521.699 201.857 520.492 202.292C519.892 202.506 519.085 202.128 518.364 202.021C518.464 201.364 518.357 200.551 518.707 200.087C519.807 198.624 521.035 197.247 522.299 195.912C524.264 193.843 526.264 191.816 528.314 189.832C529.349 188.826 529.599 187.97 528.449 186.878C527.678 186.15 527.014 185.293 526.349 184.459C525.557 183.467 524.885 183.381 524.164 184.544C523.892 184.979 523.471 185.543 523.057 185.607C522.292 185.715 521.349 185.707 520.728 185.336C520.335 185.101 520.099 184.023 520.278 183.488C521.585 179.549 523.649 176.023 526.714 173.197C527.442 172.527 528.621 172.284 529.642 172.013C530.071 171.899 530.621 172.213 531.114 172.334C530.978 172.805 530.95 173.347 530.685 173.726C529.742 175.089 528.671 176.366 527.742 177.736C527.442 178.179 527.414 178.807 527.264 179.356C527.392 179.492 527.528 179.634 527.664 179.777Z" fill="white"/>
<path d="M87.3496 182.111C88.1853 173.626 88.9568 165.126 89.8782 156.648C90.421 151.667 93.5853 148.927 98.221 147.607C102.05 146.515 105.235 148.449 105.407 152.417C105.585 156.484 105.428 160.595 105.071 164.655C104.785 167.924 103.921 168.338 100.664 168.687C99.0425 168.859 97.4425 169.451 95.9068 170.05C95.4782 170.222 95.1568 171.092 95.0996 171.67C94.7139 175.681 94.4425 179.699 94.071 183.709C93.7925 186.714 93.4853 189.725 93.0425 192.715C92.8853 193.793 92.4068 194.877 91.8425 195.827C91.5425 196.34 90.7067 196.897 90.1925 196.826C89.671 196.754 88.9496 195.991 88.8496 195.441C88.421 193.058 88.0996 190.646 87.921 188.226C87.7782 186.221 87.8925 184.194 87.8925 182.175C87.7139 182.146 87.5353 182.132 87.3496 182.111ZM98.9996 160.623C96.1353 160.445 94.4782 162.914 95.4996 165.697C98.8139 165.283 99.5996 164.184 98.9996 160.623ZM97.9639 152.745C96.9425 153.63 96.0639 154.194 95.4925 154.979C95.1996 155.378 95.4496 156.177 95.4568 156.791C96.3068 156.727 97.1568 156.67 98.0068 156.598C98.1782 156.584 98.4496 156.541 98.4925 156.434C98.7925 155.735 99.2282 155.021 99.2496 154.308C99.2639 153.894 98.5853 153.459 97.9639 152.745Z" fill="white"/>
<path d="M442.178 181.219C444.385 179.17 446.592 177.122 448.807 175.081C449.707 174.254 450.649 173.783 451.814 174.682C452.671 175.345 453.085 176.08 452.471 177.122C449.699 181.861 446.471 186.25 442.285 189.846C440.664 191.238 438.649 191.752 436.628 190.71C434.635 189.682 434.085 187.713 434.256 185.7C434.499 182.867 435.106 180.077 435.435 177.251C435.814 174.082 436.064 170.9 436.356 167.717C436.414 167.124 436.385 166.525 436.456 165.94C436.742 163.421 438.542 162.315 440.742 163.599C442.264 164.491 443.285 164.17 444.035 162.943C445.978 159.774 447.799 156.52 449.614 153.273C450.221 152.195 449.499 151.896 448.571 151.896C446.914 151.896 445.242 152.06 443.606 151.896C442.178 151.753 440.721 151.339 440.621 149.455C440.521 147.642 441.514 146.315 443.514 146.015C446.149 145.623 448.806 145.345 451.464 145.209C453.635 145.095 454.835 146.536 455.178 149.141C455.514 151.682 454.656 153.937 453.642 156.163C453.228 157.062 452.942 157.776 453.771 158.739C454.092 159.11 453.799 160.509 453.328 160.987C452.221 162.115 450.835 162.978 449.549 163.942C449.171 164.227 448.757 164.47 448.357 164.727C442.671 168.38 442.656 168.38 442.092 175.053C441.928 177.044 441.856 179.035 441.742 181.033C441.892 181.083 442.035 181.147 442.178 181.219Z" fill="white"/>
<path d="M76.8421 161.001C76.3921 161.372 75.9278 161.729 75.4993 162.115C74.4421 163.071 73.435 164.084 72.3564 165.012C70.6993 166.439 68.5278 166.739 67.2993 165.79C66.185 164.919 66.0421 162.479 67.3064 160.695C68.7421 158.668 70.3421 156.734 72.0421 154.921C75.8207 150.904 79.9921 147.243 82.8421 142.411C83.6564 141.034 85.035 140.499 86.535 141.177C88.0921 141.883 88.4921 143.425 87.885 144.809C86.8993 147.071 85.7921 149.362 84.2993 151.31C82.2207 154.029 81.8493 156.805 81.885 160.202C81.9778 170.036 81.4636 179.877 81.0993 189.711C81.0493 190.981 80.5636 192.258 80.1493 193.486C79.5993 195.113 78.2921 195.569 76.7207 195.27C75.1921 194.977 74.7493 193.785 74.8421 192.458C75.2064 187.206 75.6064 181.953 76.0564 176.708C76.5064 171.542 77.0278 166.382 77.5207 161.223C77.2921 161.151 77.0636 161.08 76.8421 161.001Z" fill="white"/>
<path d="M305.599 153.444C306.728 153.259 307.414 153.095 308.106 153.045C309.321 152.959 310.156 153.509 310.542 154.686C310.942 155.913 310.649 156.905 309.549 157.619C309.249 157.812 308.928 157.983 308.599 158.097C306.606 158.782 305.378 159.853 305.671 162.272C305.799 163.307 305.178 164.434 304.856 165.512C304.549 166.539 304.606 167.303 305.785 167.788C308.556 168.93 309.399 171.114 309.556 174.025C309.792 178.428 308.328 181.911 305.028 184.723C303.542 185.993 301.835 187.249 299.892 186.471C297.999 185.715 297.271 183.631 297.214 181.754C297.128 178.871 297.464 175.966 297.728 173.083C298.064 169.43 298.578 165.79 298.871 162.136C299.028 160.145 298.535 159.874 296.735 160.645C295.949 160.98 294.935 161.808 294.506 160.581C294.285 159.967 294.878 158.497 295.456 158.254C298.878 156.827 300.506 154.208 301.256 150.761C301.414 150.047 302.092 149.141 302.735 148.913C303.578 148.606 304.899 148.542 305.521 149.013C306.064 149.427 305.985 150.733 306.042 151.653C306.078 152.138 305.814 152.631 305.599 153.444ZM301.685 179.192C302.028 179.242 302.371 179.299 302.714 179.349C302.935 177.294 303.156 175.239 303.378 173.176C303.078 173.14 302.771 173.105 302.471 173.062C302.206 175.11 301.949 177.151 301.685 179.192Z" fill="white"/>
<path d="M156.528 164.334C157.585 163.499 158.628 162.636 159.714 161.829C161.678 160.374 163.757 159.125 166.257 160.481C168.228 161.544 169.471 164.727 168.849 167.41C167.599 172.769 164.649 177.03 160.014 180.055C159.285 180.533 158.414 180.862 157.564 181.09C154.849 181.832 153.049 180.969 152.314 178.314C150.964 173.44 150.714 168.509 152.257 163.606C153.078 161.009 154.921 159.303 157.299 158.154C157.749 157.94 158.399 158.14 158.957 158.147C158.835 158.689 158.835 159.296 158.571 159.753C158.157 160.459 157.492 161.023 157.057 161.722C156.621 162.429 156.335 163.228 155.978 163.992C156.164 164.106 156.342 164.22 156.528 164.334ZM162.735 166.182C162.499 166.061 162.271 165.947 162.035 165.826C160.078 167.139 158.821 169.08 157.778 171.171C157.542 171.649 157.721 172.334 157.714 172.926C158.549 172.819 159.907 172.99 160.121 172.569C161.164 170.521 161.892 168.323 162.735 166.182Z" fill="white"/>
<path d="M282.65 169.108C281.957 169.986 281.386 171.028 280.521 171.692C279.928 172.148 278.943 172.084 278.128 172.255C278 171.449 277.593 170.564 277.8 169.858C278.178 168.566 278.8 167.31 279.521 166.168C282.871 160.852 286.271 155.571 289.7 150.311C290.307 149.376 291.028 148.413 291.928 147.806C292.7 147.286 294.271 146.743 294.664 147.107C295.4 147.792 295.936 149.148 295.843 150.161C295.721 151.446 295.036 152.752 294.321 153.879C292.993 155.978 291.321 157.869 290.064 160.01C289.328 161.273 288.843 162.828 288.728 164.284C288.207 171.014 287.878 177.765 287.436 184.501C287.378 185.315 287.1 186.121 286.843 186.906C286.471 188.012 285.657 188.526 284.493 188.276C283.378 188.041 282.736 187.406 282.8 186.164C282.993 182.496 283.178 178.828 283.307 175.16C283.371 173.29 283.321 171.42 283.321 169.551C283.086 169.401 282.871 169.251 282.65 169.108Z" fill="white"/>
<path d="M513.828 167.274C513.571 167.824 513.271 168.359 513.071 168.923C512.349 170.928 511.678 172.955 510.935 174.946C510.714 175.545 510.442 176.295 509.957 176.594C509.328 176.994 508.449 177.165 507.699 177.115C507.457 177.101 507.028 176.052 507.114 175.545C507.328 174.282 507.642 172.99 508.164 171.827C509.321 169.23 510.614 166.689 511.885 164.134C512.242 163.406 512.528 162.814 511.735 162.115C510.542 161.073 510.878 160.067 512.021 159.16C513.185 158.24 514.364 157.326 515.442 156.32C516.014 155.785 516.407 155.057 516.885 154.415C516.814 154.229 516.749 154.036 516.678 153.851C515.228 153.851 513.785 153.865 512.335 153.851C510.499 153.837 509.921 153.087 510.721 151.41C511.864 149.005 513.171 146.672 514.485 144.353C515.092 143.275 516.235 142.497 517.271 143.261C517.814 143.66 517.914 145.202 517.635 146.044C517.157 147.528 516.235 148.87 515.321 150.604C516.149 150.547 516.642 150.554 517.121 150.468C518.585 150.197 519.664 150.775 520.485 151.924C521.299 153.073 520.985 154.158 520.264 155.221C519.707 156.035 519.185 156.877 518.599 157.783C519.021 158.033 519.249 158.225 519.514 158.304C522.114 159.082 522.957 161.808 521.135 163.87C520.857 164.184 519.828 164.241 519.442 163.977C518.835 163.563 518.528 162.293 517.999 162.243C516.635 162.1 515.228 162.429 513.835 162.564C513.799 162.778 513.764 162.985 513.721 163.199C514.228 163.385 514.764 163.77 515.242 163.706C516.571 163.521 517.478 164.084 518.071 165.119C518.849 166.468 520.064 166.818 521.464 167.025C522.628 167.196 523.792 167.474 524.921 167.809C526.049 168.145 526.728 169.065 526.221 170.115C525.899 170.778 524.907 171.363 524.128 171.499C523.321 171.642 522.399 171.242 521.542 171.007C520.349 170.678 519.435 170.871 518.971 172.155C518.871 172.434 518.757 172.769 518.535 172.919C517.907 173.354 517.207 174.039 516.571 174.004C516.057 173.975 515.378 173.119 515.164 172.498C514.821 171.506 514.821 170.4 514.649 169.351C514.542 168.68 514.392 168.009 514.264 167.339C514.135 167.317 513.978 167.296 513.828 167.274Z" fill="white"/>
<path d="M212.078 170.664C213.921 169.18 215.749 167.674 217.621 166.225C218.699 165.39 219.878 164.705 221.099 165.976C222.271 167.189 221.792 168.381 220.842 169.444C216.107 174.746 210.728 179.292 204.678 183.038C203.378 183.845 202.007 183.945 200.978 182.682C199.907 181.369 200.678 180.091 201.707 179.249C203.607 177.679 203.957 175.631 204.435 173.376C205.371 168.987 206.714 164.684 208.085 160.402C208.485 159.161 209.371 157.962 210.314 157.034C211.857 155.521 213.392 156.099 213.649 158.24C214.064 161.701 213.542 165.091 212.471 168.395C212.242 169.108 211.985 169.815 211.735 170.521C211.849 170.571 211.964 170.621 212.078 170.664Z" fill="white"/>
<path d="M546.685 147.628C547.935 147.378 548.843 147.086 549.771 147.029C551.793 146.907 552.478 147.999 551.557 149.826C551.243 150.454 550.778 151.011 550.35 151.582C549.935 152.131 549.478 152.652 548.835 153.437C550.257 153.259 551.335 153.102 552.428 152.995C553.871 152.859 554.5 153.601 554.478 154.986C554.471 155.521 554.585 156.085 554.443 156.577C554.278 157.148 553.885 157.655 553.585 158.19C553.121 157.805 552.45 157.519 552.235 157.027C551.685 155.764 550.893 155.714 549.807 156.199C548.785 156.663 547.764 157.312 546.693 157.448C545.828 157.555 544.885 157.027 543.978 156.777C544.207 156.021 544.285 155.164 544.7 154.529C545.357 153.501 546.235 152.624 546.828 151.303C545.428 151.56 544.035 151.939 542.621 152.038C541.764 152.096 540.335 151.967 540.121 151.496C539.793 150.761 539.964 149.405 540.478 148.77C541.807 147.129 543.35 145.623 545.007 144.317C545.6 143.853 547.114 143.725 547.607 144.146C548.485 144.895 548.2 146.087 547.307 146.957C547.15 147.114 547 147.293 546.685 147.628Z" fill="white"/>
<path d="M534.036 151.546C535.036 151.867 535.657 152.003 536.228 152.26C537.636 152.888 537.9 154.336 536.636 155.2C534.278 156.82 531.6 157.633 528.743 157.298C527.914 157.198 526.836 156.449 526.514 155.714C526.321 155.271 527.343 154.265 527.878 153.566C528.114 153.259 528.514 153.066 528.986 152.709C528.578 152.424 528.243 152.245 527.978 151.996C526.671 150.804 526.743 148.741 528.407 147.964C530.571 146.957 532.914 146.272 535.243 145.68C536.593 145.337 537.657 146.094 538.071 147.5C538.464 148.849 537.736 149.619 536.628 150.183C535.907 150.561 535.186 150.947 534.036 151.546Z" fill="white"/>
<path d="M527.75 145.423C527.093 145.159 525.864 144.966 525.071 144.274C523.835 143.189 524.143 141.655 525.635 140.934C526.85 140.349 528.171 139.892 529.493 139.65C530.921 139.393 531.543 138.636 531.714 137.302C531.786 136.774 531.814 136.189 532.085 135.761C532.364 135.311 532.928 134.697 533.321 134.733C533.836 134.776 534.678 135.34 534.728 135.753C535 138.094 536.471 139.15 538.471 139.978C539.921 140.585 539.985 142.397 538.65 143.275C537.835 143.81 536.828 144.167 535.857 144.331C533.35 144.752 530.821 145.023 527.75 145.423Z" fill="white"/>
<path d="M544.685 163.364C543.914 165.091 543.321 166.432 542.714 167.759C542.392 168.459 542.178 169.315 541.642 169.772C541.014 170.3 539.985 170.849 539.307 170.678C538.771 170.543 538.014 169.165 538.2 168.637C539.428 165.112 540.9 161.629 544.428 159.724C546.235 158.746 547.885 159.182 549.142 160.844C549.878 161.822 550.478 162.943 550.935 164.077C551.357 165.126 551.607 166.432 550.292 167.039C549 167.638 547.592 167.588 546.607 166.304C546 165.519 545.514 164.648 544.685 163.364Z" fill="white"/>
<path d="M529.014 163.385C529.078 162.971 529.085 162.55 529.221 162.172C530.099 159.66 534.906 157.662 537.299 158.797C538.692 159.46 539.221 161.023 538.521 162.757C537.571 165.112 535.878 166.818 533.571 167.838C531.328 168.823 530.178 168.224 529.507 165.826C529.285 165.027 529.178 164.206 529.014 163.385Z" fill="white"/>
<path d="M555.471 160.545C558.321 161.473 561.214 162.3 563.999 163.385C564.821 163.706 565.664 164.67 565.921 165.512C566.149 166.254 565.856 167.588 565.292 168.038C564.649 168.552 563.335 168.73 562.521 168.445C559.335 167.324 556.199 166.04 553.128 164.634C552.414 164.306 552.028 163.264 551.492 162.55C552.178 162.079 552.828 161.523 553.571 161.18C554.078 160.945 554.728 161.002 555.314 160.93C555.371 160.795 555.421 160.666 555.471 160.545Z" fill="white"/>
<path d="M46.2782 155C45.6068 154.807 45.2282 154.779 44.9425 154.6C41.8853 152.788 38.8139 150.989 35.8068 149.091C35.3282 148.791 34.9996 148.063 34.8496 147.471C34.5568 146.336 35.1782 145.552 36.2711 146.03C39.8853 147.621 43.4711 149.305 46.9496 151.182C47.5068 151.482 47.6353 152.945 47.5853 153.844C47.5496 154.293 46.6568 154.686 46.2782 155Z" fill="white"/>
<path d="M314.557 35.3816C317.871 33.5618 319.528 31.2354 319.893 27.8528C320.007 26.8252 320.607 25.4622 321.407 25.0197C322.1 24.6415 323.657 25.0625 324.35 25.6691C325.007 26.2471 325.036 27.5317 325.478 28.9375C327.478 28.7092 329.628 28.388 331.8 28.2453C333.178 28.1597 334.636 28.0954 335.943 28.4451C339.043 29.2801 340.75 32.1274 339.343 34.9891C337.343 39.0639 334.743 42.8604 332.243 46.664C331.75 47.4133 330.55 47.9985 329.614 48.0984C326.714 48.4195 325.214 46.2002 326.478 43.5026C327.128 42.1039 328.086 40.848 328.886 39.5206C329.364 38.7213 329.821 37.9078 330.314 37.0515C327.45 36.2736 325.921 37.1442 325.5 39.7133C325.028 42.6249 324.714 45.565 324.214 48.4766C324.043 49.4686 323.75 50.6389 323.086 51.3026C322.336 52.0519 321.071 52.737 320.086 52.6656C319.25 52.6014 318.021 51.5595 317.793 50.7246C317.278 48.8477 317.228 46.8353 317.093 44.8728C317.028 43.8595 317.2 42.8318 317.257 41.8185C314.228 41.533 313.678 41.9469 313.671 44.7301C313.65 49.1688 313.486 53.6219 313.814 58.0321C314.307 64.6902 317.271 67.6518 323.814 68.344C331.986 69.2075 340.064 68.2941 348.093 66.7241C351.521 66.0533 353.593 64.1336 354.628 60.8581C356.478 54.9778 357.907 49.0547 357.614 42.8033C357.528 40.9907 357.757 39.071 358.336 37.3726C358.628 36.502 360.007 35.4815 360.893 35.4815C361.743 35.4815 363.157 36.6019 363.328 37.4368C363.886 40.0772 364.464 42.8747 364.15 45.5151C363.5 50.9886 362.478 56.4407 361.257 61.8215C359.814 68.1727 355.714 72.2404 349.507 74.3028C340.886 77.1644 332.086 78.7701 323.036 77.4499C310.536 75.6301 306.021 67.9729 305.614 57.2471C305.471 53.5505 305.536 49.8468 305.543 46.1431C305.543 44.6801 305.25 43.5954 303.543 43.1887C302.978 43.0531 302.243 42.0968 302.257 41.5259C302.271 40.9193 302.993 39.906 303.55 39.7989C306.293 39.2494 306.736 37.344 306.878 35.0319C306.993 33.1907 307.178 31.3282 307.65 29.5584C307.893 28.6521 308.978 27.1963 309.443 27.2819C310.578 27.4889 311.75 28.2881 312.571 29.1659C313.164 29.801 313.228 30.9357 313.507 31.8563C313.836 32.8839 314.128 33.9329 314.557 35.3816Z" fill="white"/>
<path d="M439.807 54.1929C441.836 55.7272 443.707 57.0474 445.471 58.4961C449.243 61.6003 453.071 64.6547 456.664 67.9516C458.464 69.6001 459.864 71.7124 458.636 74.4742C457.657 76.6793 456.364 77.4072 454.25 76.2225C451.936 74.9309 449.786 73.3181 447.707 71.6625C443.6 68.3798 439.628 64.9116 435.514 61.6431C434.2 60.6012 432.657 59.7592 431.093 59.1455C429.064 58.3462 428.386 58.8885 428.328 61.0865C428.178 66.7884 428.2 72.4903 427.907 78.185C427.721 81.7888 427.107 85.3712 426.65 88.9537C426.564 89.6031 426.378 90.2667 426.114 90.8662C425.521 92.1935 425.114 93.8848 423.157 93.6208C421.121 93.3496 420.614 91.5869 420.564 89.9884C420.443 85.9921 420.45 81.9887 420.636 77.9923C421.236 65.0614 421.957 52.1305 422.578 39.1996C422.764 35.4102 422.336 35.0748 418.593 35.4388C417.707 35.5244 416.828 35.7171 415.943 35.7599C412.85 35.9312 411.643 34.9035 411.621 32.1204C411.6 29.3016 413.228 27.8029 416.15 27.9813C416.664 28.0099 417.178 28.1312 417.693 28.1954C420.9 28.6093 422.714 27.6674 424.228 24.7914C424.4 24.4632 424.586 24.142 424.721 23.7995C425.493 21.8442 427.007 21.1519 428.986 21.3874C431.014 21.6301 431.343 23.1144 431.207 25.0127C432.143 25.084 433.093 24.9413 433.836 25.2624C434.814 25.6906 436.264 26.39 436.378 27.1535C436.55 28.2454 436.021 29.8011 435.221 30.6146C434.236 31.6208 432.686 32.0847 431.357 32.7412C429.593 33.6119 428.636 34.9321 428.721 36.9659C428.893 41.4618 429.021 45.9576 429.186 51.0815C430.621 50.2679 431.614 49.8469 432.436 49.2118C435.25 47.0423 438 44.7801 440.8 42.5822C441.557 41.9899 442.343 41.4047 443.193 40.9765C445.257 39.9417 447.071 41.105 446.728 43.3957C446.521 44.7944 445.878 46.2359 445.078 47.4134C443.536 49.6685 441.736 51.7451 439.807 54.1929Z" fill="white"/>
<path d="M135.392 61.4433C135.392 59.5735 135.407 58.1035 135.385 56.6334C135.35 54.1072 134.907 53.7218 132.464 54.257C125.6 55.7771 118.742 57.3113 111.892 58.8813C108.485 59.6592 106.064 57.7467 107.164 54.8422C107.628 53.629 108.978 52.3873 110.214 51.9021C114.057 50.3963 118.021 49.1974 121.971 47.97C125.428 46.8924 128.95 45.9932 132.407 44.9085C133.964 44.4161 135.442 43.7239 135.542 41.6686C135.614 40.2128 136.485 39.3779 137.985 39.3279C139.435 39.2851 140.1 40.1486 140.4 41.4474C140.514 41.947 140.728 42.4179 140.992 43.1601C143.535 42.9032 146.085 42.5107 148.65 42.4251C151.664 42.3323 154.685 42.4394 157.7 42.6035C159.135 42.682 160.242 43.4028 160.371 45.0441C160.507 46.7497 159.535 47.7487 158.071 48.1484C153.285 49.4614 148.507 50.8245 143.657 51.8236C141.7 52.2303 141.3 52.9868 141.4 54.7637C141.878 62.9561 142.457 71.1486 142.557 79.3482C142.592 82.2812 141.607 85.2998 140.671 88.1472C139.964 90.3023 137.564 91.4441 135.664 90.9089C134.914 90.6948 134.035 90.0454 133.757 89.3746C133.571 88.9322 134.178 87.8332 134.728 87.4692C136.45 86.3417 136.864 84.679 136.9 82.8663C136.964 79.4623 136.9 76.0583 136.95 72.6543C136.971 71.013 136.142 70.385 134.635 69.964C130.942 68.9292 127.264 67.7945 123.664 66.4886C121.75 65.7964 120.171 64.4904 119.935 62.1997C119.707 60.0017 120.457 58.9527 122.628 59.2096C125.842 59.595 129 60.4085 132.192 61.0079C133.121 61.1935 134.064 61.2648 135.392 61.4433Z" fill="white"/>
<path d="M226.421 83.6086C224.043 82.0244 222.021 80.904 220.307 79.441C219.414 78.6775 218.957 77.3358 218.521 76.1726C218.386 75.8158 218.893 74.8381 219.257 74.7454C221.064 74.2815 221.493 72.7972 222.207 71.4127C222.579 70.692 223.3 69.7928 224 69.6501C228.75 68.6867 233.507 67.552 238.314 67.1809C241.793 66.9097 243.55 69.4931 242.786 72.9399C242.414 74.6312 241.521 76.2226 240.729 77.7926C240.079 79.0914 239.221 80.2903 238.3 81.796C240.014 82.4597 241.486 83.0877 242.993 83.6086C249.836 85.9779 256.686 88.3186 263.536 90.6735C264.093 90.8662 264.657 91.0732 265.179 91.3372C267.536 92.5361 268.8 95.2907 268 97.453C267.307 99.3156 263.964 100.757 261.721 99.865C258.214 98.4735 254.779 96.9106 251.364 95.305C246.207 92.8786 241.071 90.4095 235.993 87.8404C234.329 86.9983 233.114 87.0055 231.643 88.2972C230.043 89.703 228.264 91.0375 226.329 91.8796C224.5 92.6788 222.379 93.0856 220.386 93.0856C219.486 93.0856 218.114 91.8296 217.829 90.8733C217.6 90.1169 218.457 88.6825 219.236 88.0474C220.471 87.034 222.064 86.4703 223.471 85.6425C224.343 85.1286 225.143 84.4935 226.421 83.6086ZM237.064 72.2905C233.236 72.526 229.871 73.3324 226.986 76.0442C228.671 77.1289 230.321 78.1779 232.107 78.4776C233.414 78.6917 236.736 74.36 237.064 72.2905Z" fill="white"/>
<path d="M229.679 42.982C228.85 43.089 227.993 43.3673 227.193 43.2603C226.114 43.1176 224.179 42.6822 224.179 42.354C224.171 41.0052 224.379 39.3353 225.2 38.3862C226.086 37.3657 227.757 37.0232 229.071 36.3666C230.057 35.8742 231.1 35.4461 231.971 34.7967C232.321 34.5326 232.293 33.7619 232.436 33.2195C231.9 33.1339 231.293 32.8556 230.836 33.0055C229.714 33.3694 228.686 34.0117 227.571 34.3899C226.343 34.8038 224.843 35.5174 224.093 33.819C223.407 32.2704 223.771 30.6576 225.3 29.7156C226.807 28.7951 228.421 28.0101 230.071 27.3749C232.207 26.5471 233.036 25.2198 232.629 22.9148C232.414 21.7159 232.536 20.3957 232.793 19.1896C233.107 17.7053 234.021 16.7205 235.764 16.7633C237.471 16.8061 238.643 17.4769 238.95 19.2182C239.143 20.3029 239.221 21.409 239.271 22.508C239.336 24.0209 239.957 24.499 241.543 24.3492C243.029 24.2136 244.671 24.3063 246.064 24.7987C248 25.4838 248.079 27.4891 246.257 28.4882C244.779 29.3017 243.079 29.7085 241.557 30.4507C240.843 30.8004 240.314 31.5354 239.7 32.092C240.379 32.249 241.043 32.4917 241.729 32.5487C243.071 32.6629 243.736 33.8119 242.943 35.1392C242.35 36.1383 241.307 36.859 240.657 37.8296C239.936 38.9 239.264 40.0632 238.879 41.2835C238.55 42.3326 238.921 43.1746 240.257 43.6028C241.029 43.8526 242.057 44.9159 242.043 45.5938C242.029 46.3503 241.021 47.1567 240.321 47.8061C239.914 48.1843 239.136 48.17 238.743 48.5483C238.207 49.0692 237.514 49.8328 237.564 50.4465C237.607 50.9389 238.6 51.417 239.236 51.781C239.6 51.9879 240.093 51.9737 240.536 52.0379C241.714 52.202 242.979 52.1949 243.121 53.8577C243.264 55.5418 242.429 56.6122 240.893 56.9762C237.65 57.7469 234.393 58.4391 231.114 59.0243C229.379 59.3312 227.564 59.5809 225.836 59.3811C224.907 59.2812 223.679 58.3606 223.321 57.5043C222.729 56.0699 223.85 55.2635 225.229 54.8567C226.286 54.5427 227.6 54.3643 228.257 53.6364C228.993 52.8158 229.279 51.467 229.386 50.3109C229.414 50.0041 228.093 49.5616 227.386 49.1905C226.693 48.8266 225.357 48.327 225.4 48.1486C225.636 47.171 225.993 46.022 226.714 45.4012C227.586 44.6447 228.857 44.3593 229.957 43.8669C229.864 43.5671 229.771 43.2746 229.679 42.982Z" fill="white"/>
<path d="M388.985 53.0154C386.95 53.2224 385.407 53.5221 383.878 53.4864C382.935 53.465 381.464 53.1724 381.207 52.573C380.864 51.7808 381.114 50.1966 381.728 49.6328C383.042 48.4268 384.664 47.3278 386.35 46.7997C387.835 46.3359 388.65 45.6222 389.092 44.2735C389.235 43.8524 389.321 43.4171 389.428 42.9889C390.735 37.8294 390.735 37.8366 385.678 36.288C384.978 36.0739 384 35.9312 383.685 35.4245C383.042 34.3969 382.435 33.1266 382.485 31.9848C382.507 31.4425 384.057 30.6075 384.957 30.5361C388.492 30.265 392.042 30.2293 395.592 30.1437C396.321 30.1294 397.228 30.0652 397.742 30.4434C398.571 31.0642 399.521 31.9563 399.685 32.8697C399.814 33.6047 398.971 34.6252 398.35 35.346C397.235 36.6448 395.557 37.6296 394.871 39.0925C393.9 41.1621 395.064 42.6821 397.342 43.0032C398.857 43.2173 400.385 43.3672 400.635 45.294C400.871 47.1066 400.157 48.5338 398.457 49.2403C396.314 50.1324 395.185 51.5025 395.214 53.9503C395.235 55.5916 394.757 57.2401 394.421 59.4309C396.378 58.7744 397.8 58.2534 399.25 57.8181C400.585 57.4185 401.95 56.8404 403.3 56.8404C404.228 56.8404 405.642 57.497 405.942 58.2249C406.25 58.9742 405.757 60.4514 405.1 61.1151C404.092 62.1284 402.75 63.0205 401.392 63.4415C396.042 65.0971 390.664 66.6956 385.221 67.9802C383.621 68.3584 381.692 67.8089 380.05 67.2737C379.307 67.031 378.428 65.7893 378.45 65.0186C378.464 64.2622 379.4 63.1917 380.185 62.8635C381.521 62.3068 383.035 62.1427 384.5 61.9714C386.957 61.686 388.164 60.2587 388.471 57.9394C388.664 56.4337 388.785 54.9065 388.985 53.0154Z" fill="white"/>
<path d="M232.864 5.03828C234.671 4.9241 236.057 4.78851 237.45 4.7671C239.157 4.73856 240.35 5.51641 240.471 7.31475C240.579 8.96323 239.643 9.96231 238.05 10.2549C236.593 10.5261 235.129 10.7901 233.657 10.8543C231.471 10.9471 230.093 11.8677 229.357 13.98C228.629 16.0638 227.693 18.0834 226.793 20.1101C226.436 20.9165 226.121 21.9584 225.464 22.358C224.45 22.9717 223 23.6211 222.029 23.3143C221.35 23.1002 220.721 21.2662 220.857 20.2599C221.107 18.3902 221.993 16.6133 222.464 14.7579C222.607 14.187 222.264 13.5019 222.143 12.8668C221.643 13.3164 220.914 13.6732 220.693 14.2369C220.15 15.6 219.864 17.0629 219.429 18.4687C219 19.8318 218.086 20.5597 216.6 20.4098C214.964 20.2385 215.021 18.9326 214.829 17.7765C214.636 16.5776 214.4 15.3859 214.179 14.187C213.257 14.9292 212.279 15.6142 211.414 16.4135C210.043 17.6909 208.843 17.6838 207.614 16.285C205.321 13.6803 206.143 10.4618 209.407 9.28436C210.171 9.00605 210.943 8.72773 211.736 8.57787C213.614 8.21392 214.729 7.12921 215.157 5.27378C215.293 4.70287 215.4 3.95357 215.8 3.66098C216.629 3.04726 217.664 2.29081 218.579 2.33363C219.271 2.36218 219.979 3.48971 220.543 4.23188C221.121 4.98119 221.543 5.85895 222.029 6.67962C223.043 6.05877 224.186 5.56636 225.036 4.7671C225.771 4.08202 226.129 3.01871 226.736 2.18377C228.064 0.349748 230.136 -0.449514 231.721 0.271249C233.821 1.22751 233.721 2.92594 232.864 5.03828Z" fill="white"/>
<path d="M293.721 50.5462C294.456 50.2108 295.178 49.8968 295.892 49.5542C297.521 48.7835 299.049 49.0047 300.485 50.0181C302.328 51.324 302.671 52.9439 301.021 54.4568C299.021 56.2909 296.821 57.9893 294.485 59.3737C291.249 61.2934 287.828 62.9133 284.435 64.5404C283.464 65.0042 282.299 65.2255 281.221 65.2326C280.542 65.2397 279.406 64.783 279.278 64.312C279.092 63.6555 279.414 62.5208 279.935 62.057C281.914 60.28 284.192 58.8314 286.092 56.9759C286.985 56.1053 287.735 54.5924 287.714 53.3935C287.642 49.9039 286.785 49.3473 283.321 49.7184C282.142 49.8397 280.956 49.8825 279.778 49.9895C278.349 50.118 277.035 49.6827 276.964 48.1983C276.914 47.1208 277.392 45.6792 278.164 44.9799C279.214 44.0307 280.728 43.5455 282.106 43.0388C283.921 42.368 285.114 41.269 285.542 39.3422C285.714 38.5572 286.006 37.7722 286.392 37.0657C287.414 35.2175 289.299 34.932 290.492 36.6304C291.414 37.9506 292.421 38.179 293.849 38.0506C294.942 37.9506 296.092 37.9649 297.164 38.2004C299.899 38.7999 300.606 41.1691 298.606 43.0959C297.606 44.0593 296.349 44.7586 295.228 45.6079C293.378 47.0208 293.049 48.0842 293.721 50.5462Z" fill="white"/>
<path d="M148.485 30.9071C148.485 31.4994 148.549 32.0989 148.471 32.6769C148.192 34.8107 146.271 35.8169 144.856 34.304C142.228 31.4994 138.992 31.5351 135.635 31.5423C132.149 31.5565 128.671 31.4994 125.185 31.5209C122.328 31.5351 121.221 32.7269 120.556 35.5457C119.899 38.3146 118.985 41.0478 117.906 43.6882C117.342 45.0726 116.085 46.1716 114.328 45.5294C112.721 44.937 111.749 43.7025 111.971 41.9255C112.621 36.7161 114.471 31.9205 117.442 27.5959C118.221 26.4612 119.321 26.1686 120.764 26.7966C121.492 27.1178 122.614 26.9893 123.385 26.661C127.264 25.034 131.006 22.886 135.364 22.9359C138.149 22.9716 140.992 23.1215 143.692 23.7494C147.328 24.6058 148.535 26.7039 148.485 30.9071Z" fill="white"/>
<path d="M213.606 43.2603C211.906 43.981 210.742 44.5305 209.542 44.9658C208.585 45.3155 207.578 45.5296 206.592 45.8008C206.571 44.7375 206.185 43.51 206.585 42.6394C208.706 38.0222 211.664 33.9831 215.656 30.7718C217.042 29.6585 218.478 29.6228 219.885 30.8217C221.699 32.3703 221.478 34.1758 219.256 34.9965C217.342 35.7029 215.828 36.7092 215.356 39.0284C219.142 40.7911 218.649 44.5591 219.092 47.7775C219.849 53.2582 219.364 58.6817 217.299 63.8912C217.056 64.5049 216.864 65.24 216.406 65.6539C215.756 66.2533 214.799 67.0669 214.121 66.9455C213.314 66.8028 212.271 65.8965 212.021 65.1044C211.606 63.8199 211.556 62.3284 211.699 60.9653C212.142 56.7764 212.778 52.6159 213.285 48.4341C213.471 47.0068 213.478 45.5367 213.606 43.2603Z" fill="white"/>
<path d="M181.657 79.0771C181.378 75.4305 182.436 72.2406 184.7 69.386C185.378 68.5297 185.943 67.5734 186.5 66.6243C187.478 64.9687 188.621 64.7617 190.121 65.8964C191.171 66.6885 192.35 67.3022 193.4 68.0944C194.264 68.7438 195.464 69.386 195.743 70.2709C196.864 73.7891 197.164 77.4928 195.314 80.7969C193.543 83.9654 190.614 86.0921 187.114 87.1982C184.178 88.1259 182.671 87.1339 182.193 84.1224C181.936 82.4526 181.836 80.7613 181.657 79.0771ZM187.857 78.863C188.2 78.9701 188.55 79.0842 188.893 79.1913C189.514 77.2431 190.193 75.3091 190.693 73.3395C190.757 73.0898 189.914 72.6188 189.15 71.9408C188.65 74.6098 188.25 76.7364 187.857 78.863Z" fill="white"/>
<path d="M414.106 56.1055C412.335 54.7852 410.792 53.779 409.413 52.5801C408.035 51.3741 406.985 49.9183 407.963 47.9202C409.313 45.1584 409.442 45.03 412.292 46.2217C414.321 47.0709 416.356 48.0557 418.142 49.3189C420.642 51.0887 421.128 53.5364 419.571 56.1483C416.935 60.5799 413.185 63.8911 408.535 66.1319C407.828 66.4745 406.863 66.7885 406.199 66.5744C405.256 66.2675 404.292 65.5896 403.728 64.7903C403.521 64.4906 404.242 63.1632 404.849 62.7422C406.963 61.2507 409.242 59.9876 411.392 58.5389C412.321 57.8967 413.092 57.026 414.106 56.1055Z" fill="white"/>
<path d="M448.378 25.5694C448.185 26.3972 448.028 27.7389 447.571 28.9663C446.964 30.5934 445.457 31.2356 443.949 30.8003C442.842 30.4792 441.449 29.5729 441.092 28.5952C440.485 26.9182 440.392 24.9771 440.428 23.1502C440.499 19.1611 440.764 15.1719 440.992 11.1827C441.035 10.4548 441.049 9.51996 441.485 9.06324C442.378 8.12839 443.449 7.01513 444.614 6.76536C446.271 6.41568 446.878 8.08557 447.021 9.37724C447.457 13.2665 447.671 17.1843 447.985 21.0879C448.092 22.4295 448.214 23.7497 448.378 25.5694Z" fill="white"/>
<path d="M190.321 26.647C192.864 26.9967 194.636 27.118 196.336 27.5176C197.843 27.8673 199.007 29.0519 198.607 30.5505C198.357 31.4782 197.071 32.5487 196.079 32.7699C193.143 33.4264 190.129 33.7119 187.136 34.0901C185.686 34.2757 184.564 34.5896 183.921 36.2381C183.129 38.272 180.179 38.1792 178.836 36.2381C177.186 33.8617 177.964 30.1937 180.793 29.1375C184.057 27.9172 187.557 27.3392 190.321 26.647Z" fill="white"/>
<path d="M124.907 22.2936C122.885 22.0224 121.15 22.1081 119.728 21.4801C118.721 21.0376 117.721 19.7174 117.521 18.6327C117.385 17.9048 118.5 16.3777 119.314 16.1493C122.471 15.2787 125.721 14.6864 128.971 14.2368C129.871 14.1083 131.157 14.5722 131.793 15.2216C132.635 16.0851 133.5 17.4267 133.45 18.5185C133.407 19.4391 132.214 20.7665 131.257 21.0805C129.114 21.7941 126.8 21.9654 124.907 22.2936Z" fill="white"/>
<path d="M183.871 47.0782C180.864 47.0282 180.042 46.3574 180.064 43.9739C180.078 42.5538 180.614 41.7474 182.121 41.6617C186.192 41.4334 190.257 41.1194 194.328 40.9267C195.721 40.8625 197.071 41.1551 197.278 42.9248C197.478 44.6804 196.464 45.6081 194.885 45.815C191.221 46.3003 187.542 46.6643 183.871 47.0782Z" fill="white"/>
<path d="M187.035 17.9623C187.242 16.3423 187.299 14.7081 187.678 13.1453C188.178 11.0829 189.835 10.2765 191.949 10.8403C193.699 11.3041 194.178 12.5102 193.778 14.701C193.278 17.4485 192.949 20.2245 192.521 22.9862C192.314 24.3421 191.778 25.3626 190.121 25.3198C188.571 25.2769 187.821 24.4135 187.607 23.0219C187.357 21.352 187.221 19.6607 187.035 17.9623Z" fill="white"/>
<path d="M189.778 51.2244C191.199 51.3671 192.292 51.2886 193.235 51.6383C193.849 51.8595 194.542 52.6445 194.642 53.2653C194.721 53.7506 194.035 54.7354 193.528 54.871C189.242 56.0342 184.928 57.1332 180.585 58.0324C179.964 58.1608 178.628 57.2688 178.478 56.6479C178.285 55.8487 178.678 54.4 179.307 54.0075C180.714 53.1297 182.378 52.566 184.014 52.1664C186.007 51.6739 188.085 51.4884 189.778 51.2244Z" fill="white"/>
</svg>
