<svg width="510" height="482" viewBox="0 0 510 482" fill="none" xmlns="http://www.w3.org/2000/svg">
<path d="M451.186 246.758C451.212 248.745 451.199 250.745 451.148 252.732C451.135 253.458 451.123 254.184 451.097 254.898C451.084 255.968 451.033 257.025 450.995 258.07C450.957 258.719 450.918 259.356 450.88 259.993C450.829 261.203 450.752 262.401 450.663 263.611C449.527 278.884 446.604 294.26 441.78 309.508C419.074 380.971 359.979 430.842 291.325 445.186C291.286 445.199 291.261 445.198 291.223 445.211C277.336 448.116 263.054 449.542 248.606 449.415C231.72 449.262 214.63 446.982 197.654 442.358C197.654 442.358 197.641 442.358 197.629 442.345C194.961 441.644 192.281 440.855 189.626 440.001C178.956 436.625 168.758 432.447 159.083 427.53C159.07 427.517 159.058 427.517 159.058 427.517C134.335 414.97 113.046 397.722 95.9937 377.239C95.9682 377.213 95.9426 377.2 95.9299 377.175L95.9171 377.162C73.1472 349.787 57.9205 316.692 52.0748 281.381C51.4494 277.623 50.9261 273.814 50.5305 270.018C49.9689 264.694 49.6115 259.356 49.4711 253.981C49.4073 251.076 49.3945 248.159 49.4456 245.229C49.7902 226.593 52.7768 207.689 58.648 189.027L58.8522 188.365C59.1458 187.447 59.4521 186.492 59.7712 185.575L59.9498 185.04C86.7913 105.233 159.351 53.1834 239.135 48.7376C239.569 48.7122 239.978 48.6867 240.399 48.6867C240.399 48.6867 240.399 48.6867 240.399 48.6739C251.49 48.1262 262.696 48.4956 273.941 49.8331C286.309 51.2981 298.689 53.9604 310.993 57.8329C323.259 61.7309 334.899 66.6607 345.812 72.5332C370.739 85.9468 392.002 104.227 408.761 125.729C414.121 132.608 419.035 139.831 423.451 147.359C429.004 156.748 433.752 166.594 437.695 176.76C438.027 177.626 438.359 178.492 438.665 179.371C439.316 181.091 439.929 182.823 440.529 184.581C440.784 185.358 441.039 186.123 441.307 186.9C441.627 187.88 441.933 188.849 442.239 189.842C442.469 190.606 442.711 191.358 442.941 192.148C442.98 192.313 443.056 192.492 443.094 192.67C443.337 193.536 443.605 194.403 443.847 195.282C444.588 197.906 445.264 200.53 445.864 203.179C446.068 204.084 446.272 204.976 446.489 205.88C446.681 206.772 446.885 207.689 447.064 208.593C447.242 209.485 447.434 210.389 447.6 211.294C447.779 212.198 447.944 213.115 448.11 214.007C448.723 217.421 449.246 220.835 449.668 224.262C449.808 225.408 449.936 226.555 450.05 227.701C450.267 229.535 450.459 231.357 450.574 233.191C450.701 234.796 450.816 236.389 450.893 237.994C450.918 238.414 450.931 238.822 450.957 239.229C450.995 239.956 451.033 240.694 451.059 241.42V241.599C451.135 243.318 451.186 245.038 451.186 246.758Z" fill="#5D99C5"/>
<path d="M273.941 49.8331C273.226 50.8394 272.307 51.7694 271.414 52.5337C263.986 58.9284 251.095 64.8263 252.243 76.3292C252.779 81.6921 254.783 87.2716 252.754 92.2651C251.529 95.2714 248.925 97.7427 248.516 100.966C247.968 105.284 251.49 108.902 253.354 112.825C257.821 122.213 250.788 134.99 240.45 136.251C237.731 136.582 234.387 136.557 233.085 138.965C232.562 139.933 232.537 141.092 232.537 142.2C232.537 147.601 232.83 153.066 231.707 158.353C230.584 163.639 227.789 168.849 223.079 171.499C209.779 178.976 196.123 170.836 188.924 188.122C184.393 198.988 182.785 210.02 169.307 212.644C151.91 216.033 128.655 213.854 118.368 231.535C116.721 234.376 115.611 237.497 113.786 240.21C110.978 244.388 106.677 247.255 102.478 250.019C86.0127 260.91 69.4969 271.827 52.0876 281.101C51.4494 277.343 50.9389 273.534 50.5305 269.725C49.9816 264.503 49.6242 259.254 49.4711 253.968C49.4073 251.063 49.3945 248.159 49.4456 245.216C49.7902 226.58 52.7768 207.676 58.648 189.014L58.8522 188.339C59.1458 187.422 59.4521 186.479 59.7712 185.562L59.9498 185.027C86.7913 105.233 159.338 53.1706 239.135 48.7249C239.556 48.6994 239.978 48.6739 240.399 48.6612C251.49 48.1134 262.696 48.4828 273.941 49.8331Z" fill="#A6D55D"/>
<path d="M428.34 276.884C421.971 281.7 419.214 289.317 411.403 293.024C408.697 294.298 405.647 295.139 403.579 297.292C402.098 298.833 401.282 300.897 400.031 302.629C396.087 308.056 388.442 309.571 384.038 314.616C379.558 319.75 379.38 327.278 376.661 333.533C373.24 341.367 366.029 346.768 359.111 351.812C356.201 353.927 353.291 356.042 350.381 358.169C343.144 363.43 335.729 368.793 327.139 371.302C325.518 371.774 323.795 372.181 322.557 373.328C320.923 374.856 320.579 377.264 320.145 379.455C318.396 388.499 313.635 396.945 306.794 403.123C305.722 404.079 304.548 405.034 303.118 405.301C300.527 405.786 297.975 403.722 297.056 401.251C296.124 398.767 296.443 396.028 296.877 393.416C300.31 373.315 310.725 353.863 307.968 333.673C307.279 328.501 305.709 323.329 306.577 318.195C307.152 314.832 308.76 311.635 308.785 308.221C308.836 301.164 302.212 295.865 295.652 293.253C289.079 290.629 281.74 289.419 276.2 285.037C270.61 280.604 265.99 274.477 260.731 269.611C257.042 266.197 251.337 262.031 249.244 257.458C244.483 247.025 256.825 239.433 266.334 240.72C271.72 241.446 276.545 244.325 281.114 247.267C282.569 248.223 284.228 249.216 285.939 248.86C287.611 248.529 288.747 247.013 290.1 245.968C292.371 244.197 297.145 243.14 300.004 243.204C303.45 243.293 307.79 246.771 311.134 245.089C312.359 244.452 313.15 243.242 313.878 242.057C315.167 240.006 316.507 237.892 318.498 236.503C320.502 235.102 323.336 234.618 325.327 236.007C325.863 236.363 326.335 236.847 326.948 236.962C327.905 237.153 328.798 236.44 329.487 235.752C332.512 232.809 336.061 229.306 340.209 230.07C341.319 230.274 342.353 230.796 343.476 230.962C348.492 231.675 352.564 226.274 357.299 225.243C363.004 224.007 368.237 226.784 373.662 228.605C377.312 229.828 381.23 231.077 384.919 229.981C387.421 229.242 389.756 226.86 389.118 224.364C388.773 223.039 387.714 222.032 386.616 221.204C383.54 218.81 380.005 217.039 376.24 216.007C374.261 215.472 372.092 215.052 370.662 213.574C369.782 212.67 369.271 211.434 368.275 210.644C367.012 209.651 365.136 209.561 364.064 208.351C363.272 207.447 363.119 206.147 362.519 205.103C361.179 202.81 357.912 202.428 355.397 203.294C352.883 204.173 350.815 205.956 348.505 207.256C336.967 213.65 325.799 205.74 313.686 208.224C307.7 209.447 304.178 211.408 297.86 210.109C290.572 208.619 283.999 209.549 287.828 200.874C289.436 197.205 292.588 192.734 295.741 190.148C296.673 189.396 297.681 188.696 298.498 187.779C299.43 186.721 300.03 185.409 300.515 184.084C302.021 180.072 302.684 175.741 302.442 171.461C302.301 168.645 301.765 165.843 301.995 163.028C303.195 148.735 321.906 147.856 327.867 137.41C333.763 127.054 323.565 113.577 327.701 102.405C328.058 101.424 328.556 100.443 329.398 99.8573C330.317 99.2204 331.491 99.1057 332.563 98.749C336.635 97.3605 338.345 92.66 339.468 88.5073C340.936 83.0807 342.379 77.4757 345.646 72.8771C345.697 72.8262 345.735 72.7497 345.774 72.686C370.701 86.0997 391.977 104.367 408.723 125.869C414.083 132.761 418.997 139.971 423.413 147.499C428.965 156.888 433.713 166.735 437.657 176.913C437.989 177.779 438.321 178.632 438.64 179.511C439.291 181.244 439.904 182.976 440.504 184.734C440.759 185.511 441.027 186.275 441.282 187.052C441.601 188.033 441.92 189.001 442.227 189.995C442.456 190.759 442.686 191.524 442.916 192.301C442.967 192.466 443.031 192.632 443.069 192.823C443.324 193.689 443.58 194.568 443.822 195.434C444.55 198.046 445.226 200.695 445.851 203.332C446.056 204.237 446.26 205.128 446.464 206.033C446.655 206.925 446.86 207.842 447.038 208.746C447.217 209.638 447.409 210.542 447.574 211.447C447.753 212.351 447.906 213.268 448.085 214.16C448.698 217.561 449.208 220.975 449.642 224.402C449.783 225.548 449.91 226.695 450.038 227.841C450.229 229.676 450.395 231.51 450.548 233.344C450.676 234.949 450.791 236.542 450.867 238.147C450.893 238.554 450.906 238.962 450.944 239.382C450.97 240.108 451.008 240.847 451.046 241.573C451.033 241.637 451.046 241.701 451.046 241.764C451.11 243.484 451.148 245.191 451.174 246.911C451.199 248.911 451.187 250.898 451.148 252.885C451.135 253.611 451.123 254.337 451.097 255.051C451.072 256.121 451.021 257.191 450.982 258.235C450.957 258.872 450.918 259.509 450.88 260.159C450.829 261.369 450.753 262.566 450.65 263.764C450.255 269.088 431.952 274.158 428.34 276.884Z" fill="#A6D55D"/>
<path opacity="0.4302" d="M451.173 246.745C451.199 248.732 451.186 250.732 451.148 252.719C451.135 253.446 451.122 254.172 451.097 254.885C451.084 255.955 451.033 257.012 450.982 258.07C450.956 258.719 450.918 259.343 450.867 259.993C450.816 261.203 450.739 262.401 450.65 263.611C449.527 278.884 446.604 294.26 441.767 309.508C419.061 380.984 359.966 430.842 291.325 445.186C277.4 448.103 263.092 449.542 248.593 449.415C231.719 449.262 214.617 446.969 197.641 442.358C197.641 442.358 197.628 442.358 197.616 442.345C194.948 441.644 192.268 440.855 189.626 440.001C178.956 436.625 168.745 432.447 159.083 427.53C159.07 427.517 159.057 427.517 159.057 427.517C134.309 414.957 113.007 397.696 95.9296 377.187L95.9169 377.175C79.7711 357.761 67.4034 335.469 59.5156 311.546C73.9383 325.8 90.6839 337.991 109.395 347.481C109.395 347.481 109.408 347.481 109.421 347.494C119.095 352.411 129.293 356.589 139.963 359.965C142.618 360.818 145.286 361.608 147.953 362.309C147.966 362.322 147.979 362.322 147.979 362.322C164.954 366.946 182.057 369.226 198.93 369.379C213.417 369.506 227.725 368.067 241.662 365.137C310.304 350.793 369.398 300.935 392.104 229.459C396.942 214.211 399.865 198.835 400.988 183.562C401.09 182.352 401.154 181.154 401.205 179.944C401.243 179.295 401.281 178.67 401.32 178.021C401.358 176.963 401.422 175.906 401.434 174.836C401.46 174.123 401.473 173.397 401.485 172.671C401.524 170.683 401.536 168.683 401.511 166.696C401.511 164.977 401.473 163.257 401.383 161.537V161.359C401.358 160.633 401.32 159.894 401.281 159.168C401.256 158.76 401.243 158.365 401.217 157.932C401.141 156.327 401.026 154.735 400.898 153.13C400.771 151.295 400.579 149.474 400.375 147.627C400.247 146.48 400.133 145.334 399.992 144.187C399.571 140.761 399.048 137.347 398.422 133.933C398.256 133.041 398.09 132.124 397.912 131.219C397.746 130.315 397.554 129.411 397.376 128.519C397.197 127.614 396.993 126.697 396.801 125.806C396.597 124.901 396.393 124.009 396.189 123.105C395.589 120.455 394.912 117.831 394.172 115.207C393.93 114.328 393.661 113.462 393.419 112.583C393.381 112.405 393.304 112.226 393.266 112.061C393.036 111.284 392.794 110.519 392.564 109.755C392.258 108.774 391.951 107.793 391.632 106.812C391.568 106.621 391.504 106.443 391.441 106.252C397.644 112.366 403.413 118.863 408.735 125.691C414.108 132.57 419.01 139.792 423.426 147.321C428.978 156.709 433.726 166.556 437.67 176.721C438.002 177.588 438.333 178.454 438.64 179.32C439.291 181.053 439.903 182.772 440.49 184.53C440.746 185.307 441.014 186.084 441.269 186.849C441.588 187.829 441.894 188.81 442.201 189.791C442.43 190.555 442.673 191.307 442.903 192.097C442.941 192.262 443.018 192.441 443.056 192.619C443.298 193.498 443.566 194.364 443.809 195.243C444.549 197.867 445.226 200.491 445.826 203.141C446.03 204.046 446.234 204.937 446.438 205.842C446.63 206.733 446.834 207.651 447.013 208.555C447.191 209.447 447.383 210.351 447.549 211.256C447.727 212.16 447.893 213.077 448.059 213.969C448.672 217.383 449.195 220.797 449.629 224.223C449.769 225.37 449.884 226.516 450.012 227.663C450.216 229.497 450.408 231.319 450.535 233.153C450.663 234.758 450.765 236.35 450.854 237.955C450.88 238.376 450.893 238.783 450.918 239.191C450.944 239.917 450.982 240.656 451.02 241.382V241.56C451.135 243.306 451.173 245.038 451.173 246.745Z" fill="#5D99C5"/>
<path opacity="0.4302" d="M451.174 246.745C451.199 248.732 451.187 250.732 451.148 252.719C451.136 253.445 451.123 254.172 451.097 254.885C451.085 255.955 451.034 257.012 450.982 258.07C450.957 258.719 450.919 259.343 450.868 259.993C450.817 261.203 450.74 262.401 450.651 263.611C449.527 278.884 446.605 294.26 441.767 309.508C419.061 380.984 359.967 430.842 291.325 445.186C277.4 448.103 263.092 449.542 248.593 449.415C231.72 449.262 214.617 446.969 197.642 442.358C197.642 442.358 197.629 442.358 197.616 442.345C194.949 441.644 192.268 440.855 189.626 440.001C178.956 436.625 168.745 432.447 159.083 427.53C159.071 427.517 159.058 427.517 159.058 427.517C134.31 414.957 113.008 397.696 95.9302 377.187L95.9174 377.175C86.23 365.532 77.921 352.87 71.1309 339.443C71.4882 339.902 71.8584 340.36 72.2413 340.819L72.254 340.832C89.3315 361.341 110.621 378.614 135.382 391.162C135.382 391.162 135.395 391.162 135.407 391.174C145.082 396.091 155.28 400.282 165.95 403.645C168.605 404.499 171.285 405.289 173.94 405.989C173.953 406.002 173.966 406.002 173.966 406.002C190.941 410.626 208.044 412.906 224.917 413.059C239.404 413.186 253.711 411.747 267.649 408.83C336.291 394.486 395.385 344.628 418.091 273.152C422.929 257.904 425.851 242.529 426.975 227.255C427.077 226.045 427.14 224.848 427.191 223.637C427.23 222.988 427.268 222.364 427.306 221.714C427.345 220.657 427.408 219.599 427.421 218.529C427.447 217.816 427.46 217.09 427.472 216.364C427.511 214.376 427.523 212.377 427.498 210.389C427.498 208.67 427.46 206.95 427.37 205.23V205.052C427.345 204.326 427.306 203.587 427.268 202.861C427.243 202.453 427.23 202.058 427.204 201.625C427.128 200.02 427.013 198.428 426.885 196.823C426.758 194.988 426.566 193.167 426.362 191.32C426.234 190.173 426.119 189.027 425.979 187.88C425.558 184.454 425.034 181.04 424.409 177.626C424.243 176.734 424.077 175.817 423.899 174.913C423.733 174.008 423.541 173.104 423.362 172.212C423.184 171.308 422.98 170.39 422.788 169.499C422.584 168.594 422.38 167.703 422.175 166.798C421.576 164.148 420.899 161.524 420.159 158.9C419.916 158.021 419.648 157.155 419.406 156.276C419.368 156.098 419.291 155.919 419.253 155.754C419.023 154.977 418.78 154.212 418.551 153.448C418.244 152.467 417.938 151.486 417.619 150.506C417.364 149.741 417.096 148.964 416.84 148.187C416.253 146.429 415.628 144.71 414.99 142.977C414.671 142.098 414.339 141.232 414.02 140.378C411.607 134.149 408.889 128.048 405.864 122.099C406.847 123.296 407.817 124.493 408.761 125.716C414.135 132.595 419.036 139.818 423.452 147.346C429.004 156.735 433.752 166.582 437.696 176.747C438.028 177.613 438.359 178.479 438.666 179.346C439.317 181.078 439.929 182.798 440.516 184.556C440.772 185.333 441.04 186.11 441.295 186.874C441.614 187.855 441.92 188.836 442.227 189.817C442.457 190.581 442.699 191.332 442.929 192.122C442.967 192.288 443.044 192.466 443.082 192.645C443.324 193.523 443.592 194.39 443.835 195.269C444.575 197.893 445.252 200.517 445.852 203.167C446.056 204.071 446.26 204.963 446.464 205.867C446.656 206.759 446.86 207.676 447.039 208.58C447.217 209.472 447.409 210.377 447.575 211.281C447.753 212.185 447.919 213.103 448.085 213.994C448.698 217.408 449.221 220.822 449.655 224.249C449.795 225.395 449.91 226.542 450.038 227.688C450.242 229.523 450.434 231.344 450.561 233.179C450.689 234.784 450.791 236.376 450.88 237.981C450.906 238.401 450.919 238.809 450.944 239.217C450.97 239.943 451.008 240.681 451.046 241.408V241.586C451.136 243.306 451.174 245.038 451.174 246.745Z" fill="#5D99C5"/>
<path d="M291.223 445.211C277.337 448.116 263.054 449.542 248.606 449.415C231.72 449.262 214.63 446.982 197.655 442.358C197.655 442.358 197.642 442.358 197.629 442.345C194.962 441.644 192.281 440.855 189.626 440.001C178.956 436.625 168.758 432.447 159.084 427.53C159.071 427.517 159.058 427.517 159.058 427.517C134.335 414.97 113.046 397.722 95.9941 377.238C97.6661 376.067 133.544 368.474 136.556 366.691C151.336 357.952 161.062 342.666 176.11 334.131C180.411 331.686 185.287 329.711 188.222 325.686C189.831 323.482 190.711 320.794 192.511 318.743C201.509 308.463 213.966 316.909 213.494 328.616C212.741 347.367 208.657 369.914 219.684 386.703C220.986 388.69 222.531 390.639 224.649 391.735C226.577 392.716 228.797 392.92 230.967 393.123C242.122 394.168 253.214 395.849 264.165 398.13C266.092 398.537 268.058 398.983 269.691 400.079C272.933 402.27 274.018 406.435 274.886 410.257C275.92 414.944 276.979 419.632 278.026 424.307C278.715 427.339 279.417 430.447 280.961 433.161C282.11 435.148 283.654 436.855 285.199 438.562C287.203 440.778 289.207 442.995 291.223 445.211Z" fill="#A6D55D"/>
<g opacity="0.6">
<path opacity="0.6" d="M95.8532 213.752C95.7893 212.975 95.7511 212.186 95.7 211.408C95.6234 210.3 95.7638 213.166 95.7255 212.045C95.7128 211.701 95.7 211.345 95.6872 211.001C95.6362 209.345 95.6234 207.689 95.6617 206.046C95.7128 203.09 95.9042 200.135 96.2105 197.192C96.5424 194.071 97.0019 190.976 97.6018 187.906C97.7294 187.218 97.8826 186.543 98.0229 185.855C98.1251 185.384 98.4441 184.39 97.8953 186.403C97.9847 186.072 98.0485 185.728 98.1378 185.384C98.508 183.855 98.9036 182.339 99.3376 180.836C101.022 174.976 103.192 169.257 105.821 163.754C106.166 163.053 106.511 162.34 106.855 161.639C107.008 161.333 107.353 160.289 106.97 161.41C106.536 162.671 107.098 161.18 107.213 160.964C107.953 159.588 108.731 158.225 109.536 156.875C111.054 154.327 112.675 151.856 114.398 149.448C116.428 146.62 118.585 143.882 120.882 141.27C121.112 141.003 121.354 140.748 121.571 140.493C120.053 142.277 121.265 140.85 121.571 140.519C122.171 139.882 122.771 139.257 123.384 138.633C124.609 137.385 125.86 136.188 127.149 135.003C130.314 132.086 131.157 126.736 128.042 123.398C125.081 120.239 119.81 119.385 116.415 122.506C96.3765 140.964 83.4854 166.403 80.0648 193.383C79.0821 201.128 79.0565 208.912 79.6564 216.682C79.9883 220.988 85.1957 224.223 89.2417 223.306C93.9514 222.236 96.2105 218.364 95.8532 213.752Z" fill="white"/>
</g>
<g opacity="0.6">
<path opacity="0.6" d="M138.738 116.787C138.968 116.787 139.198 116.787 139.44 116.787C140.576 116.825 141.636 116.596 142.618 116.073C143.64 115.742 144.52 115.169 145.273 114.379C146.077 113.64 146.639 112.749 146.971 111.73C147.481 110.749 147.724 109.691 147.686 108.558C147.583 107.832 147.494 107.105 147.392 106.367C146.996 104.978 146.294 103.768 145.273 102.736C144.712 102.303 144.163 101.883 143.601 101.45C142.312 100.711 140.934 100.329 139.44 100.329C139.211 100.329 138.981 100.329 138.738 100.329C137.602 100.29 136.543 100.52 135.56 101.042C134.539 101.373 133.659 101.946 132.906 102.736C132.101 103.475 131.54 104.367 131.195 105.386C130.685 106.367 130.442 107.424 130.48 108.558C130.583 109.284 130.672 110.01 130.774 110.749C131.17 112.137 131.872 113.347 132.893 114.379C133.454 114.812 134.003 115.233 134.565 115.666C135.854 116.405 137.245 116.774 138.738 116.787Z" fill="white"/>
</g>
<path d="M364.982 254.694C370.713 243.752 374.274 231.816 375.525 219.536C375.691 217.88 378.231 218.44 378.065 220.083C376.801 232.58 373.113 244.771 367.292 255.904C366.514 257.382 364.204 256.184 364.982 254.694Z" fill="#C5FF61"/>
<path d="M375.933 235.115C380.924 230.669 384.242 224.414 385.123 217.803C385.378 215.854 385.429 213.829 384.74 211.982C384.051 210.135 382.519 208.517 380.579 208.186C378.422 207.816 376.24 209.115 375.001 210.924C373.763 212.72 373.278 214.937 372.972 217.09C372.015 223.701 372.296 230.491 373.814 237" fill="#C5FF61"/>
<path d="M371.479 240.681C371.709 236.338 370.267 231.917 367.51 228.542C366.68 227.535 365.455 226.529 364.204 226.886C362.825 227.281 362.392 229.013 362.417 230.44C362.481 235.777 365.799 240.949 370.624 243.267" fill="#C5FF61"/>
<path d="M369.144 248.35C371.735 246.032 374.657 244.07 377.784 242.567C379.176 241.892 380.746 241.306 382.239 241.675C384.217 242.172 385.506 244.529 384.83 246.465C384.217 248.223 382.366 249.255 380.58 249.802C377.019 250.885 373.075 250.669 369.654 249.204" fill="#C5FF61"/>
<path d="M149.523 187.957C151.36 213.676 157.449 240.681 173.007 261.713C176.517 266.464 181.112 270.337 184.775 274.821C185.745 276.018 187.8 274.591 186.587 273.241C168.31 252.809 161.278 238.35 154.896 211.829C152.816 203.179 152.65 196.441 151.909 188.135C151.769 186.479 149.408 186.415 149.523 187.957C149.395 187.944 149.523 187.957 149.523 187.957Z" fill="#C5FF61"/>
<path d="M153.722 207.268C153.811 199.358 154.334 193.702 161.444 189.167C162.146 188.721 163.371 189.039 163.652 189.727C166.842 197.613 162.465 205.714 154.066 207.714" fill="#C5FF61"/>
<path d="M159.108 231.943C158.84 224.058 159.21 218.3 166.141 213.549C166.817 213.077 168.055 213.357 168.361 214.045C171.782 221.79 167.838 230.134 159.465 232.376" fill="#C5FF61"/>
<path d="M168.975 254.91C165.414 247.93 164.214 242.834 168.49 235.854C168.911 235.166 170.123 234.86 170.685 235.37C177.003 241.076 176.033 249.828 169.498 255.127" fill="#C5FF61"/>
<path d="M151.284 200.925C145.209 195.944 140.537 192.81 132.573 195.472C131.794 195.74 131.271 196.899 131.628 197.536C135.687 204.772 144.724 206.873 151.399 201.472" fill="#C5FF61"/>
<path d="M162.069 236.669C155.853 231.905 151.016 229.153 143.268 232.185C142.502 232.478 142.03 233.675 142.413 234.312C146.791 241.497 155.802 243.089 162.184 237.216" fill="#C5FF61"/>
<path d="M179.274 265.955C172.139 262.783 166.804 260.515 159.746 265.012C159.057 265.458 158.802 266.719 159.312 267.28C164.954 273.611 174.156 273.088 179.542 266.452" fill="#C5FF61"/>
<path d="M151.322 195.447C143.396 186.798 137.576 176.416 138.559 164.543C138.878 160.594 140.575 157.741 143.817 156.047C146.166 154.824 148.897 155.563 151.016 156.977C153.134 158.391 154.781 160.212 155.878 162.734C160.933 174.339 159.312 185.167 151.526 195.18" fill="#C5FF61"/>
<path d="M321.995 411.709C302.888 426.549 292.907 432.192 268.465 432.562C262.938 432.651 260.13 432.842 255.229 432.817C253.927 432.804 254.004 431.097 255.204 431.059C273.379 430.575 290.533 431.033 306.462 421.135C311.656 417.913 315.894 413.938 320.654 410.524C321.625 409.849 323.143 410.817 321.995 411.709C322.148 411.722 321.995 411.709 321.995 411.709Z" fill="#C5FF61"/>
<path d="M309.372 419.314C313.38 415.135 316.405 412.027 315.256 405.926C315.141 405.327 314.337 404.83 313.814 405.034C307.84 407.289 305.888 413.798 308.976 419.39" fill="#C5FF61"/>
<path d="M293.315 428.753C297.999 425.339 300.96 422.486 300.577 416.358C300.539 415.76 299.837 415.212 299.301 415.339C293.213 416.83 290.456 422.932 292.907 428.728" fill="#C5FF61"/>
<path d="M274.285 431.772C280.156 431.504 284.202 430.549 286.487 424.715C286.717 424.142 286.308 423.288 285.798 423.174C279.99 421.798 274.655 425.517 273.928 431.543" fill="#C5FF61"/>
<path d="M313.928 417.225C319.671 417.823 323.602 418.855 326.193 424.384C326.449 424.931 326.091 425.785 325.568 425.912C319.748 427.339 313.966 423.696 313.57 417.454" fill="#C5FF61"/>
<path d="M285.516 430.918C291.094 432.689 295.025 434.154 296.876 440.103C297.055 440.689 296.595 441.491 296.046 441.555C289.83 442.179 284.649 437.492 285.121 431.071" fill="#C5FF61"/>
<path d="M302.568 425.212C308.235 425.721 312.243 426.014 314.821 431.645C315.077 432.192 314.668 433.11 314.17 433.262C308.478 434.918 302.173 431.963 302.198 425.428" fill="#C5FF61"/>
<path d="M262.861 431.339C268.171 433.543 271.898 435.619 272.881 441.644C272.983 442.23 272.409 442.969 271.847 442.969C265.606 442.956 261.355 437.67 262.453 431.466" fill="#C5FF61"/>
<path d="M316.902 414.435C325.76 414.384 334.401 412.524 340.387 405.798C342.378 403.556 342.978 401.289 342.276 398.677C341.765 396.792 339.991 395.735 338.179 395.314C336.367 394.894 334.554 394.958 332.665 395.646C323.973 398.817 318.651 405.072 316.953 414.193" fill="#C5FF61"/>
<path d="M103.6 194.25C99.1583 179.409 97.6266 163.843 99.0306 148.417C99.2221 146.327 95.9546 146.429 95.7632 148.493C94.3337 164.187 95.9546 180.084 100.473 195.18C101.073 197.192 104.2 196.262 103.6 194.25Z" fill="#519E80"/>
<path d="M95.1505 160.671C91.2576 155.575 89.2793 149.066 89.6494 142.671C89.7643 140.786 90.0834 138.863 91.0662 137.245C92.049 135.627 93.7975 134.391 95.6865 134.43C97.7925 134.481 99.6049 136.098 100.447 138.022C101.29 139.945 101.328 142.111 101.239 144.213C100.932 150.62 99.4134 156.977 96.7969 162.836" fill="#519E80"/>
<path d="M98.9541 175.435C99.7071 170.021 102.541 164.926 106.753 161.423C108.016 160.378 109.765 159.435 111.22 160.174C112.815 160.989 112.943 163.219 112.573 164.977C111.207 171.537 105.897 177.129 99.4008 178.823" fill="#519E80"/>
<path d="M96.6698 167.995C94.0405 164.518 90.9007 161.41 87.4036 158.811C85.8464 157.652 84.0723 156.544 82.1323 156.645C79.5668 156.773 77.4226 159.384 77.7927 161.919C78.1373 164.238 80.1539 165.945 82.2216 167.04C86.3442 169.231 91.2581 169.893 95.8274 168.9" fill="#519E80"/>
<path d="M101.06 186.658C98.4312 183.18 95.2914 180.072 91.7942 177.473C90.237 176.314 88.4629 175.206 86.5229 175.308C83.9575 175.435 81.8132 178.046 82.1833 180.581C82.528 182.9 84.5446 184.607 86.6122 185.702C90.7348 187.893 95.6487 188.556 100.218 187.562" fill="#519E80"/>
<path d="M372.028 319.826C377.082 308.552 384.255 298.362 393.138 289.776C394.338 288.617 392.321 286.973 391.134 288.133C382.098 296.871 374.797 307.317 369.666 318.782C368.964 320.297 371.338 321.355 372.028 319.826Z" fill="#C5FF61"/>
<path d="M380.643 299.113C381.039 292.451 383.898 285.967 388.557 281.177C389.922 279.763 391.492 278.464 393.369 277.865C395.245 277.254 397.466 277.458 398.933 278.77C400.554 280.235 400.886 282.744 400.248 284.833C399.61 286.922 398.168 288.668 396.662 290.247C392.054 295.1 386.54 299.088 380.478 301.928" fill="#C5FF61"/>
<path d="M379.022 306.056C382.289 303.177 386.667 301.572 391.032 301.635C392.347 301.661 393.891 301.992 394.376 303.202C394.912 304.527 393.827 305.941 392.691 306.807C388.454 310.068 382.327 310.68 377.516 308.336" fill="#C5FF61"/>
<path d="M374.44 312.629C374.657 309.164 374.389 305.661 373.623 302.272C373.291 300.769 372.781 299.177 371.568 298.234C369.947 296.986 367.293 297.444 366.195 299.177C365.187 300.756 365.531 302.833 366.208 304.565C367.561 308.03 370.177 310.985 373.457 312.743" fill="#C5FF61"/>
<path d="M340.285 281.458C343.246 269.471 343.872 257.025 342.149 244.809C341.919 243.153 344.522 243.102 344.752 244.745C346.501 257.178 345.824 269.891 342.812 282.095C342.417 283.7 339.889 283.076 340.285 281.458Z" fill="#519E80"/>
<path d="M346.258 259.828C350.048 254.325 351.784 247.459 351.069 240.834C350.853 238.885 350.419 236.898 349.321 235.268C348.223 233.637 346.334 232.427 344.369 232.567C342.186 232.72 340.374 234.503 339.595 236.542C338.817 238.58 338.88 240.847 339.085 243.013C339.723 249.662 341.625 256.197 344.649 262.159" fill="#519E80"/>
<path d="M343.259 266.299C342.455 262.019 339.991 258.07 336.507 255.446C335.46 254.656 334.031 253.981 332.895 254.63C331.657 255.344 331.644 257.127 332.001 258.503C333.342 263.675 337.783 267.917 343.016 269.012" fill="#519E80"/>
<path d="M342.825 274.299C344.791 271.432 347.165 268.834 349.845 266.63C351.045 265.649 352.41 264.707 353.968 264.707C356.01 264.719 357.822 266.706 357.618 268.745C357.439 270.604 355.895 272.031 354.287 272.987C351.083 274.885 347.203 275.611 343.527 274.987" fill="#519E80"/>
<path d="M217.374 418.18C211.592 407.263 207.967 395.34 206.665 383.073C206.486 381.417 203.947 381.99 204.125 383.633C205.453 396.117 209.192 408.295 215.076 419.39C215.855 420.868 218.152 419.658 217.374 418.18Z" fill="#C5FF61"/>
<path d="M206.32 398.639C201.317 394.219 197.96 387.977 197.042 381.366C196.773 379.417 196.71 377.391 197.386 375.544C198.063 373.697 199.594 372.067 201.534 371.735C203.691 371.353 205.874 372.653 207.125 374.436C208.375 376.232 208.86 378.436 209.192 380.601C210.188 387.213 209.933 394.002 208.439 400.525" fill="#C5FF61"/>
<path d="M210.814 404.193C210.558 399.849 211.975 395.416 214.719 392.028C215.549 391.009 216.761 390.003 218.025 390.359C219.403 390.754 219.837 392.474 219.837 393.901C219.799 399.238 216.519 404.435 211.694 406.766" fill="#C5FF61"/>
<path d="M213.175 411.849C210.571 409.543 207.648 407.594 204.496 406.104C203.105 405.442 201.535 404.856 200.029 405.238C198.05 405.735 196.774 408.117 197.463 410.04C198.089 411.798 199.939 412.817 201.726 413.352C205.287 414.422 209.244 414.18 212.652 412.69" fill="#C5FF61"/>
<path d="M231.515 429.951C237.284 419.034 240.896 407.11 242.186 394.83C242.364 393.174 244.891 393.748 244.725 395.391C243.411 407.875 239.684 420.053 233.813 431.161C233.034 432.638 230.724 431.428 231.515 429.951Z" fill="#519E80"/>
<path d="M242.53 410.397C247.534 405.977 250.878 399.722 251.797 393.111C252.065 391.162 252.116 389.136 251.439 387.289C250.763 385.442 249.231 383.824 247.291 383.48C245.134 383.098 242.952 384.398 241.701 386.194C240.45 387.99 239.965 390.194 239.646 392.359C238.663 398.97 238.918 405.76 240.424 412.269" fill="#519E80"/>
<path d="M238.063 415.951C238.318 411.607 236.889 407.174 234.132 403.798C233.302 402.779 232.09 401.773 230.826 402.13C229.448 402.524 229.014 404.244 229.027 405.671C229.078 411.008 232.358 416.193 237.182 418.524" fill="#519E80"/>
<path d="M235.702 423.607C238.306 421.288 241.229 419.352 244.368 417.849C245.76 417.186 247.33 416.6 248.823 416.97C250.801 417.467 252.078 419.836 251.401 421.759C250.776 423.517 248.938 424.536 247.138 425.071C243.577 426.141 239.633 425.912 236.213 424.422" fill="#519E80"/>
<path d="M214.616 141.117C214.616 141.117 175.981 104.723 163.001 154.085" stroke="white" stroke-miterlimit="10" stroke-linecap="round" stroke-linejoin="round" stroke-dasharray="2 2"/>
<path d="M212.102 145.69C212.102 145.69 167.519 116.557 168.694 198.581" stroke="white" stroke-miterlimit="10" stroke-linecap="round" stroke-linejoin="round" stroke-dasharray="2 2"/>
<path d="M211.962 149.907C211.962 149.907 177.232 137.308 186.728 229.382" stroke="white" stroke-miterlimit="10" stroke-linecap="round" stroke-linejoin="round" stroke-dasharray="2 2"/>
<path d="M471.147 174.441C460.196 181.269 449.692 189.001 437.503 193.294C436.086 193.804 434.631 194.301 433.125 194.262C431.415 194.211 429.807 193.434 428.288 192.619C420.681 188.517 413.942 182.836 408.607 176.034C407.139 174.161 405.722 172.148 403.705 170.862C403.501 178.352 402.761 185.83 401.485 193.218C400.834 197.027 400.03 200.797 399.098 204.542C398.332 207.587 396.775 210.593 397.745 213.701C400.961 223.943 404.241 245.038 407.024 255.407C408.683 261.573 410.7 267.522 407.854 268.018C403.935 268.719 401.357 272.604 398.102 274.91C397.426 275.381 396.698 275.878 395.869 275.98C393.431 276.273 395.435 271.776 394.324 269.573C383.412 247.93 378.766 235.37 373.188 216.058C371.58 210.466 371.771 193.702 370.508 146.34L391.504 111.195C398.383 111.984 403.948 112.316 409.819 116.43C409.934 116.519 410.062 116.596 410.176 116.685C423.884 126.468 430.177 143.168 437.388 157.601C437.924 158.658 438.575 159.805 439.685 160.2C440.604 160.518 441.613 160.263 442.544 160.009C454.619 156.722 466.897 154.187 479.29 152.455C479.482 152.416 479.673 152.391 479.865 152.365C480.49 152.276 481.179 152.2 481.703 152.544C482.188 152.85 482.417 153.41 482.57 153.958C484.868 161.881 477.325 170.582 471.147 174.441Z" fill="#4F2B2B"/>
<g opacity="0.1567">
<path opacity="0.1567" d="M481.333 160.48C480.988 160.9 480.401 161.002 479.865 161.091C470.599 162.633 461.409 164.709 452.501 167.677C446.795 169.562 441.039 171.843 435.027 171.69C434.147 171.664 433.228 171.588 432.449 171.167C430.892 170.339 430.267 168.48 429.769 166.785C425.136 151.257 418.371 135.385 405.353 125.691L410.79 117.194C424.498 126.978 430.79 143.678 438.001 158.11C438.537 159.168 439.188 160.314 440.299 160.709C441.218 161.028 442.226 160.773 443.158 160.518C455.232 157.231 467.51 154.697 479.904 152.964C480.516 154.773 481.052 156.607 481.499 158.454C481.665 159.142 481.793 159.945 481.333 160.48Z" fill="#4F2B2B"/>
</g>
<path d="M439.098 74.4057C441.472 72.5331 444.216 70.9663 447.229 70.6605C450.241 70.3548 453.534 71.5268 455.116 74.1127C456.635 76.6094 456.252 79.9724 454.593 82.38C452.934 84.7876 450.19 86.2907 447.343 86.9404C444.497 87.6028 441.523 87.4881 438.613 87.1951" fill="#F1C797"/>
<path d="M356.928 69.0938C372.359 73.5268 388.364 76.2528 404.42 76.6732C412.5 76.8897 420.604 76.5076 428.594 75.3484C430.522 75.0681 432.436 74.7497 434.338 74.3675C435.423 74.1509 438.128 72.8898 439.162 73.2083C442.583 74.2528 444.344 84.5583 443.591 87.5264C442.34 92.4817 431.389 94.074 427.152 95.2587C413.38 99.1312 398.983 101.819 384.701 102.825" fill="#F0C230"/>
<path d="M253.825 131.36C252.74 137.895 246.525 142.315 239.951 141.232C233.366 140.149 228.924 133.958 230.009 127.423C231.094 120.889 237.309 116.468 243.883 117.551C250.456 118.634 254.91 124.812 253.825 131.36Z" fill="#345A63"/>
<path d="M259.16 129.665C260.654 127.895 263.13 128.532 264.674 129.895C266.614 131.602 267.929 134.086 269.205 136.302C270.405 138.404 271.86 140.684 272.383 143.079C272.689 144.506 272.141 147.538 269.996 146.939C268.248 146.442 267.405 149.13 269.167 149.627C272.09 150.455 274.821 148.098 275.268 145.257C275.778 141.907 273.698 138.544 272.128 135.754C270.443 132.735 268.605 129.232 265.733 127.169C263.257 125.385 259.339 125.118 257.233 127.627C256.084 128.99 257.999 131.067 259.16 129.665Z" fill="#406A75"/>
<path d="M239.479 154.531C239.045 154.365 238.611 154.213 238.177 154.047C235.548 153.066 232.932 152.073 230.302 151.092C228.707 150.493 225.567 148.633 223.806 149.283C223.308 149.461 222.861 149.78 222.44 150.098C221.585 150.722 220.755 151.385 220.015 152.136C219.313 152.837 218.649 153.805 218.956 154.748C219.07 155.092 219.3 155.372 219.555 155.614C220.385 156.378 221.764 156.697 222.785 157.232C223.78 157.754 224.788 158.276 225.784 158.798C228.528 160.225 231.26 161.652 234.004 163.079C237.794 165.053 241.585 167.028 245.376 169.002L240.832 156.111C240.679 155.372 240.168 154.786 239.479 154.531Z" fill="#406A75"/>
<path opacity="0.4195" d="M245.389 168.989C241.585 167.002 237.807 165.04 234.004 163.066C231.26 161.639 228.515 160.212 225.784 158.786C224.801 158.263 223.793 157.741 222.797 157.219C221.764 156.684 220.398 156.365 219.555 155.614C219.3 155.372 219.058 155.092 218.956 154.748C218.649 153.792 219.313 152.837 220.015 152.136C220.385 151.754 220.794 151.397 221.189 151.066C221.738 151.295 222.3 151.499 222.797 151.754C223.793 152.276 224.801 152.799 225.797 153.308C228.541 154.735 231.285 156.162 234.016 157.588C237.003 159.155 240.015 160.709 243.015 162.276L245.389 168.989Z" fill="#C5CDEA"/>
<path d="M269.537 158.824L251.094 168.518C247.763 170.263 243.64 168.989 241.892 165.664L229.294 141.792C227.545 138.468 228.822 134.353 232.153 132.608L250.596 122.914C253.927 121.169 258.05 122.443 259.799 125.767L272.396 149.639C274.145 152.964 272.856 157.079 269.537 158.824Z" fill="#DADFFB"/>
<path d="M269.537 158.824L251.094 168.518C247.763 170.263 243.64 168.989 241.892 165.664L229.294 141.792C227.545 138.468 228.822 134.353 232.153 132.608L250.596 122.914C253.927 121.169 258.05 122.443 259.799 125.767L272.396 149.639C274.145 152.964 272.856 157.079 269.537 158.824Z" fill="#DADFFB"/>
<path d="M269.537 158.824L251.094 168.518C247.763 170.263 243.64 168.989 241.892 165.664L229.294 141.792C227.545 138.468 228.822 134.353 232.153 132.608L250.596 122.914C253.927 121.169 258.05 122.443 259.799 125.767L272.396 149.639C274.145 152.964 272.856 157.079 269.537 158.824Z" fill="#406A75"/>
<path opacity="0.4195" d="M269.805 158.684L250.813 168.658C248.171 171.295 242.773 168.212 241.841 165.461C247.406 163.473 250.316 159.537 254.017 154.977C255.74 152.862 257.438 150.646 258.28 148.047C259.008 145.805 259.046 143.398 258.893 141.041C258.637 137.054 257.833 133.105 256.532 129.334C255.957 127.691 255.396 125.971 254.349 124.57C253.749 123.755 252.868 123.258 252.486 122.341C254.974 120.952 258.472 123.271 259.646 125.487L272.524 149.894C274.196 153.079 272.984 157.015 269.805 158.684Z" fill="#C5CDEA"/>
<path d="M413.559 117.729C411.555 125.118 403.412 133.41 398.319 137.054C392.512 141.206 386.092 144.378 379.583 147.334C377.885 148.111 376.188 148.862 374.49 149.614C373.763 149.932 373.01 150.251 372.231 150.416C371.58 150.557 370.929 150.582 370.278 150.391C369.295 150.085 368.53 149.334 367.802 148.595C363.297 144.009 358.804 139.423 354.299 134.837C351.095 131.576 347.879 128.302 345.071 124.685C342.748 121.678 338.689 114.838 335.498 107.246C330.533 95.4115 327.712 81.7558 337.004 78.0744C344.075 75.2719 352.575 73.3866 360.119 75.2337C367.726 77.0935 368.236 82.5583 373.099 87.59C376.047 90.6345 378.996 92.6472 382.084 94.4816C385.135 96.2904 388.339 97.9337 391.848 100.239C396.954 103.615 413.125 114.57 413.546 117.462C413.585 117.564 413.585 117.653 413.559 117.729Z" fill="#F0C230"/>
<path d="M350.509 33.5405L305.875 42.2409C307.917 50.47 309.334 54.4572 311.606 60.5844C313.878 66.7116 317.834 72.9153 324.127 74.7114C326.526 75.3993 329.845 75.2592 333.099 74.8006C333.508 76.9789 333.61 77.7559 334.082 80.2017C334.312 81.3737 342.34 77.6031 342.391 77.5776C345.059 75.8834 348.505 75.9725 346.909 72.9662C346.475 72.151 345.965 71.7433 345.454 71.4758C348.237 70.0873 350.483 68.1256 352.027 65.0684C353.495 62.1895 353.814 58.9284 354.095 55.7183C354.708 48.6866 353.751 42.674 350.509 33.5405Z" fill="#F1C797"/>
<g opacity="0.2532">
<path opacity="0.2532" d="M342.455 77.5266C342.429 77.5394 342.417 77.5521 342.391 77.5649C342.34 77.5903 334.312 81.3609 334.095 80.189C333.623 77.7559 333.521 76.9789 333.112 74.7879C329.845 75.2464 326.526 75.3866 324.127 74.6987C317.834 72.9026 313.865 66.6862 311.606 60.5589C309.334 54.4317 307.904 50.4573 305.875 42.2282L312.793 40.8779C314.656 48.2535 316.047 52.1133 318.204 57.9221C320.464 64.0493 324.433 70.253 330.725 72.0491C333.125 72.737 336.443 72.6096 339.711 72.151C340.119 74.3293 340.209 75.1063 340.694 77.5521C340.757 77.8833 341.472 77.8196 342.455 77.5266Z" fill="#F1C797"/>
</g>
<path d="M408.99 84.813C407.842 85.2079 406.616 85.2971 405.48 85.7175C402.826 86.6983 401.154 89.246 399.226 91.3351C388.594 102.749 377.286 82.9405 366.782 81.4883C356.686 80.0743 346.603 83.9213 343.182 71.565C342.723 69.909 342.225 68.3167 341.676 66.7243C341.229 65.4632 340.808 63.8327 341.74 62.6735C342.187 62.1257 342.838 61.8327 343.412 61.4251C344.995 60.3041 345.914 58.2914 345.709 56.3552C345.582 55.1195 344.905 53.833 343.744 53.3998C342.901 53.0814 341.957 53.247 341.089 53.4763C340.604 53.5909 340.119 53.7438 339.685 53.9986C339.481 54.1132 339.277 54.2406 339.085 54.4062C338.945 54.5208 338.804 54.8138 338.689 54.903C338.166 55.2087 338.153 54.4317 338.077 54.0368C338 53.5909 337.783 53.1196 337.579 52.7247C337.171 51.8967 336.52 51.2598 335.55 51.2725C334.618 51.2852 333.839 51.9477 333.023 52.4062C330.763 53.6674 327.662 53.247 325.837 51.4126C324.267 49.8331 323.603 47.4255 321.803 46.1261C318.906 44.0116 314.924 45.7058 311.337 45.8714C303.692 46.1898 296.928 37.6678 301.114 30.6361C301.842 29.4005 302.773 28.2922 303.743 27.2349C304.496 26.3942 305.275 25.5789 306.002 24.7127C308.695 21.5281 311.018 18.0759 314.273 15.3881C316.328 13.7066 318.408 11.9997 320.782 10.815C327.215 7.61761 335.588 8.95515 340.719 13.9614C342.787 15.9996 344.459 18.611 347.126 19.7956C350.878 21.4644 355.563 19.7829 359.175 21.7191C364.165 24.407 363.948 32.0119 368.211 35.7443C372.717 39.6805 380.209 37.6805 385.123 41.1199C387.471 42.7632 388.862 45.4383 390.177 47.986C393.47 54.4444 396.546 58.8392 403.693 61.4251C407.012 62.6353 410.739 63.5652 412.947 66.3422C413.611 67.1702 414.07 68.1128 414.402 69.1192C414.951 70.8134 415.078 72.686 414.989 74.4948C414.772 78.7113 412.985 83.4118 408.99 84.813Z" fill="#4F2B2B"/>
<path d="M359.072 81.3226C359.021 81.3099 358.97 81.3099 358.906 81.3099L359.264 81.0042C359.213 81.1188 359.149 81.2207 359.072 81.3226Z" fill="#F0C230"/>
<g opacity="0.3471">
<path opacity="0.3471" d="M408.99 84.813C407.842 85.2079 406.616 85.297 405.48 85.7174C402.826 86.6983 401.154 89.246 399.226 91.3351C388.594 102.749 377.286 82.9404 366.782 81.4882C356.686 80.0742 346.603 83.9213 343.182 71.5649C342.723 69.9089 342.225 68.3166 341.676 66.7243C341.229 65.4632 340.808 63.8326 341.74 62.6734C342.187 62.1257 342.838 61.8327 343.412 61.425C344.995 60.3041 345.914 58.2914 345.709 56.3551C345.582 55.1195 344.905 53.8329 343.744 53.3998C342.901 53.0813 341.957 53.2469 341.089 53.4762C340.604 53.5909 340.119 53.7437 339.685 53.9985C339.481 54.1131 339.277 54.2405 339.085 54.4061C338.945 54.5208 338.804 54.8138 338.689 54.9029C338.166 55.2086 338.153 54.4316 338.077 54.0367C338 53.5909 337.783 53.1195 337.579 52.7246C337.171 51.8966 336.52 51.2597 335.55 51.2724C334.618 51.2852 333.839 51.9476 333.023 52.4062C330.763 53.6673 327.662 53.2469 325.837 51.4126C324.267 49.833 323.603 47.4254 321.803 46.1261C318.906 44.0115 314.924 45.7057 311.337 45.8713C303.692 46.1898 296.928 37.6677 301.114 30.636C301.842 29.4004 302.773 28.2922 303.743 27.2349C304.42 29.4131 306.156 31.3749 308.185 32.5213C311.35 34.2793 315.077 34.585 318.676 35.0563C322.263 35.5022 326.028 36.241 328.759 38.6104C330.648 40.2409 331.963 42.5848 334.235 43.6166C336.354 44.572 338.792 44.1771 341.102 44.4573C344.063 44.8268 346.769 46.3426 349.36 47.8203C351.58 49.0687 353.916 50.4444 355.18 52.6609C357.273 56.3424 355.882 61.3868 358.371 64.8262C361.638 69.3484 368.786 67.8835 373.789 70.3547C378.23 72.5458 380.579 77.6794 384.931 80.0615C387.777 81.6156 391.185 81.8194 394.389 81.4245C402.43 80.4691 409.731 75.7177 414.389 69.1318C414.938 70.8261 415.066 72.6986 414.976 74.5075C414.772 78.7112 412.985 83.4117 408.99 84.813Z" fill="#4F2B2B"/>
</g>
<path d="M290.125 112.634C297.872 106.991 322.837 79.2209 334.669 80.0234C335.499 80.0744 347.751 80.4056 348.313 81.017C348.849 81.6157 348.926 82.4819 348.938 83.2845C349.219 93.7683 342.672 100.265 334.937 106.392C326.475 113.08 317.847 119.666 308.262 124.608C298.676 129.563 288.019 132.85 277.234 132.519C276.098 132.481 274.936 132.404 273.928 131.882C272.92 131.372 272.103 130.315 272.205 129.194C272.269 128.506 272.652 127.882 273.035 127.309C277.31 120.952 284.011 117.08 290.125 112.634Z" fill="#F0C230"/>
<path d="M269.946 137.691C271.771 138.71 273.966 139.168 275.83 138.914C280.348 138.264 284.496 135.36 286.64 131.334C285.428 130.634 284.547 129.5 283.692 128.392C282.211 126.455 280.718 124.532 279.238 122.596C278.97 122.239 278.625 121.844 278.178 121.844C277.936 121.844 277.719 121.959 277.502 122.073C276.366 122.685 275.204 123.5 274.005 123.946C273.149 124.264 272.256 124.188 271.401 124.545C269.41 125.385 267.853 127.092 266.908 128.978C266.193 130.519 265.913 132.341 266.512 133.946C267.087 135.538 268.389 136.824 269.946 137.691Z" fill="#F1C797"/>
<path d="M388.326 291.062C388.377 291.075 388.415 291.075 388.466 291.088C389.985 291.317 391.53 290.96 392.972 290.464C399.302 288.285 404.318 283.496 409.118 278.846C409.973 278.018 410.841 277.152 411.249 276.044C411.619 275.024 411.555 273.903 411.44 272.821C411.006 268.337 410.662 263.381 408.518 259.331C408.403 259.114 408.25 258.872 408.02 258.808C407.624 258.694 407.28 259.089 407.037 259.433C405.531 261.662 403.782 263.751 401.664 265.42C400.017 266.719 398.115 267.738 396.086 268.286C395.716 268.388 394.81 268.375 394.529 268.592C394.172 268.859 394.223 269.381 394.069 269.827C393.814 270.528 388.683 278.922 386.45 282.476C385.288 284.324 384.088 286.54 384.893 288.565C385.454 289.916 386.858 290.807 388.326 291.062Z" fill="#F0C230"/>
<path d="M499.113 175.447C499.125 175.396 499.138 175.358 499.138 175.307C499.444 173.83 499.189 172.301 498.781 170.849C497.007 164.518 492.59 159.346 488.302 154.378C487.536 153.499 486.745 152.595 485.673 152.136C484.69 151.716 483.592 151.728 482.533 151.767C480.733 151.843 478.921 151.881 477.121 152.06C476.126 152.161 471.799 152.365 471.327 153.193C471.135 153.524 471.212 153.958 471.39 154.289C471.569 154.62 471.863 154.875 472.131 155.155C473.113 156.212 473.726 157.563 474.326 158.887C474.76 159.843 475.194 160.811 475.628 161.766C476.075 162.76 476.534 163.766 476.891 164.798C477.185 165.652 477.185 166.836 477.581 167.613C478.295 169.014 480.427 170.25 481.678 171.142C484.562 173.18 487.715 174.785 490.587 176.823C492.335 178.059 494.441 179.371 496.471 178.683C497.823 178.199 498.781 176.874 499.113 175.447Z" fill="#F0C230"/>
<path d="M115.598 258.63C116.134 255.229 118.252 252.133 121.201 250.197C122.809 249.14 124.736 248.401 126.676 248.605C129.676 248.911 132.126 251.535 132.535 254.426C132.943 257.305 131.552 260.248 129.331 262.21C127.11 264.171 124.149 265.229 121.175 265.649" fill="#F1C797"/>
<path d="M122.516 292.425C125.413 290.425 129.204 289.725 132.714 290.413C134.628 290.782 136.53 291.597 137.742 293.075C139.631 295.355 139.389 298.871 137.525 301.151C135.675 303.444 132.509 304.527 129.497 304.361C126.485 304.196 123.626 302.896 121.214 301.139" fill="#F1C797"/>
<path d="M186.932 441.504C192.982 438.332 198.892 434.919 204.661 431.275C205.695 430.626 206.728 429.951 207.481 429.008C208.222 428.065 208.617 426.779 208.209 425.67C207.137 422.817 200.793 423.39 198.19 423.123C194.169 422.702 190.149 422.282 186.116 421.862C185.567 421.811 185.005 421.747 184.469 421.874C183.588 422.091 182.937 422.766 182.299 423.377C180.091 425.518 177.5 427.301 174.692 428.638C174.092 428.919 173.416 429.263 173.25 429.887C173.135 430.307 173.301 430.753 173.467 431.161C174.769 434.333 176.607 437.313 178.866 439.938C179.823 441.046 180.831 442.498 182.338 442.778C183.895 443.084 185.631 442.18 186.932 441.504Z" fill="#4F2B2B"/>
<path d="M148.923 454.421C155.828 454.37 162.72 454.039 169.6 453.44C170.825 453.338 172.076 453.211 173.199 452.714C174.322 452.218 175.292 451.275 175.471 450.103C175.918 447.109 170.021 444.74 167.864 443.326C164.507 441.135 161.163 438.944 157.806 436.753C157.347 436.46 156.887 436.154 156.351 436.027C155.471 435.823 154.564 436.116 153.696 436.371C150.697 437.25 147.532 437.657 144.392 437.555C143.715 437.53 142.95 437.53 142.503 438.001C142.197 438.32 142.12 438.791 142.069 439.224C141.673 442.613 141.839 446.065 142.554 449.402C142.86 450.816 143.039 452.549 144.239 453.479C145.464 454.434 147.442 454.434 148.923 454.421Z" fill="#4F2B2B"/>
<path d="M163.997 438.001C161.406 441.415 140.308 445.186 139.44 441.02C138.061 434.422 129.153 402.83 127.021 390.678C113.326 392.869 91.9856 395.327 78.2777 397.429C68.5264 398.92 63.0127 400.435 55.3418 393.671C43.9058 383.582 36.184 361.634 37.3327 346.768C37.4859 344.832 33.0059 334.858 34.2439 333.329C36.5158 330.501 40.8809 330.45 44.5568 330.921C49.7642 331.584 54.8951 332.807 59.8218 334.565C66.2546 336.845 71.8832 340.526 77.9203 343.596C84.1871 346.768 88.616 350.284 95.5593 349.953C105.221 349.507 115.177 350.73 124.788 351.52C132.28 352.131 135.713 353.443 143.397 357.073C143.448 357.086 165.056 436.6 163.997 438.001Z" fill="#27385E"/>
<path d="M190.008 419.747C189.243 420.791 187.392 423.696 186.205 424.295C185.618 424.588 184.763 425.084 183.754 425.683C180.155 427.798 174.628 431.199 172.318 431.594C168.604 432.231 146.255 404.97 136.619 396.308C134.705 394.576 132.713 392.805 130.263 391.939C127.085 390.805 123.549 391.327 120.218 391.85C106.523 394.041 92.8278 396.308 79.12 398.41C69.3687 399.9 56.9754 399.926 49.6365 392.818C41.6849 385.111 36.1711 366.857 30.6701 345.838C30.4276 344.921 29.4065 342.08 28.5513 339.239C27.6579 336.22 26.9559 333.189 27.5941 332.399C29.8532 329.571 34.2183 329.52 37.9069 329.979C43.1016 330.654 48.2453 331.877 53.172 333.622C59.6047 335.902 65.2334 339.596 71.2705 342.641C77.5245 345.813 81.9662 349.328 88.9095 349.01C95.6869 348.704 128.119 351.074 136.759 352.551C138.483 352.844 140.218 353.15 141.75 353.94C143.128 354.64 144.252 355.685 145.349 356.768C145.515 356.933 145.694 357.124 145.86 357.29C161.942 373.761 175.867 392.168 187.188 411.964C188.694 414.651 191.821 417.276 190.008 419.747Z" fill="#2C3C67"/>
<g opacity="0.3378">
<path opacity="0.3378" d="M190.008 419.747C189.243 420.791 187.392 423.696 186.205 424.294C185.618 424.587 184.763 425.084 183.754 425.683C182.746 423.658 181.827 421.81 181.61 421.454C170.276 401.658 156.364 383.251 140.282 366.78C140.116 366.614 139.938 366.436 139.772 366.258C138.687 365.175 137.551 364.13 136.172 363.43C134.628 362.64 132.905 362.334 131.182 362.041C122.554 360.564 90.122 358.182 83.3319 358.5C76.3886 358.831 71.9469 355.328 65.6928 352.144C59.6558 349.074 54.0271 345.392 47.5943 343.112C42.6549 341.367 37.524 340.144 32.3293 339.469C31.104 339.316 29.8149 339.214 28.5513 339.252C27.6579 336.233 26.9559 333.201 27.5941 332.412C29.8532 329.584 34.2183 329.533 37.9069 329.991C43.1016 330.666 48.2453 331.889 53.172 333.634C59.6047 335.915 65.2334 339.609 71.2705 342.653C77.5245 345.825 81.9662 349.341 88.9095 349.023C95.6869 348.717 128.119 351.086 136.759 352.564C138.483 352.857 140.218 353.163 141.75 353.952C143.128 354.653 144.252 355.698 145.349 356.78C145.515 356.946 145.694 357.137 145.86 357.303C161.942 373.774 175.867 392.181 187.188 411.976C188.694 414.651 191.821 417.276 190.008 419.747Z" fill="#2C3C67"/>
</g>
<path d="M52.0742 276.923C71.0406 274.107 91.143 271.853 107.161 260.936C108.808 259.815 110.48 258.235 112.292 257.394C116.376 255.484 120.907 262.923 122.962 265.942C124.43 268.095 120.882 270.541 119.452 271.84C102.107 287.597 78.7114 295.355 56.0947 302.667" fill="#505EB2"/>
<g opacity="0.3257">
<path opacity="0.3257" d="M119.452 271.853C102.106 287.598 78.7238 295.355 56.0943 302.68L55.0732 296.171C76.8348 289.113 99.0559 281.356 115.687 266.235C116.937 265.101 119.835 263.076 119.516 261.127C120.932 262.859 122.145 264.757 122.949 265.955C124.417 268.095 120.869 270.553 119.452 271.853Z" fill="#505EB2"/>
</g>
<path d="M56.8993 281.114C56.7716 281.241 56.644 281.343 56.4781 281.432C55.7888 281.814 54.8699 281.802 54.0403 281.751C52.8916 281.674 51.7173 281.598 50.5559 281.534C49.6497 281.47 48.7307 281.419 47.8245 281.368C46.8672 281.305 45.7951 281.177 45.1952 280.439C44.6847 279.789 44.7485 278.91 44.8251 278.095C44.8761 277.585 44.9655 276.923 45.0548 276.171C45.2973 274.184 45.6547 271.509 45.9227 269.292C46.0759 268.006 46.2163 266.872 46.3056 266.095L49.6879 266.936L49.9049 266.999L50.8366 267.229L56.7972 268.719C56.8099 268.897 56.8227 269.076 56.8354 269.254C57.0269 272.375 57.2566 275.483 57.4481 278.591C57.4991 279.47 57.5247 280.464 56.8993 281.114Z" fill="#F1C797"/>
<path d="M74.2568 250.681C73.5931 257.012 71.2829 263.815 65.6032 267.025C63.4334 268.248 60.1532 268.923 56.8475 269.254C54.882 269.471 52.9036 269.56 51.1423 269.585C50.9636 269.585 50.7849 269.585 50.6062 269.585C50.3254 269.598 50.0446 269.598 49.7511 269.585C49.3937 269.585 49.0491 269.585 48.7172 269.585C47.7728 269.573 46.841 269.458 45.9476 269.292C41.8378 268.515 38.0598 266.235 35.2774 263.191C33.1076 260.821 32.5971 259.267 31.4994 256.286C29.9933 252.185 29.202 248.312 29.0488 243.637C28.9595 240.936 29.0744 237.956 29.3935 234.504L38.1491 234.019L72.7763 232.147L73.8484 232.096L75.2141 232.02C75.2268 233.867 75.2396 235.51 75.2013 237.013C75.112 242.21 74.7546 245.764 74.2568 250.681Z" fill="#F1C797"/>
<path d="M71.4618 236.121C71.2066 236.274 70.9513 236.401 70.696 236.542C65.0546 239.484 58.5708 240.682 52.1125 240.911C51.4616 240.924 50.9255 241.446 50.9128 242.083L50.8234 254.911C50.8107 256.032 49.3429 256.541 48.6281 255.675C47.0072 253.713 46.1393 251.064 43.6504 251.051C42.7314 251.038 41.7869 251.114 41.0339 251.624C40.0128 252.312 39.681 253.688 39.8597 254.885C40.1405 256.758 41.5444 258.439 43.3951 259.114C44.0461 259.356 44.7736 259.484 45.3479 259.891C46.0882 260.426 46.6243 261.05 46.5987 261.955C46.5349 264.248 46.4583 266.541 46.3945 268.821C46.3945 268.872 46.3945 268.936 46.369 268.987C46.369 268.999 46.369 269.012 46.369 269.012C46.3435 269.19 46.2924 269.369 46.1393 269.458C46.1393 269.471 46.1137 269.483 46.1137 269.483C45.9478 269.56 45.7564 269.496 45.5777 269.445C44.1992 268.999 42.8208 268.553 41.4423 268.108C41.4168 268.095 41.3913 268.095 41.3657 268.082C37.4601 266.796 33.5801 263.101 30.7083 259.879C28.6279 257.535 26.2666 253.777 24.684 250.312C24.033 248.936 23.5097 247.611 23.1779 246.427C21.0081 238.847 21.5314 232.822 24.7095 225.816C28.781 216.797 39.681 214.453 48.9472 214.16C51.4744 214.071 54.0653 214.058 56.5797 214.211C58.8388 214.364 61.0341 215.179 63.3443 215.319C66.6118 215.498 69.9175 215.103 73.0062 214.122C74.0911 213.765 75.1377 213.358 76.2609 213.141C77.2181 212.95 78.2265 212.912 79.2092 212.988C79.8346 213.052 80.46 213.154 81.0089 213.434C81.2131 213.536 81.3918 213.65 81.5705 213.791C82.4256 214.428 82.9489 215.472 83.1276 216.504C84.5316 224.72 78.5072 232.172 71.4618 236.121Z" fill="#4F2B2B"/>
<g opacity="0.2532">
<path opacity="0.2532" d="M74.2064 250.618C73.5428 256.949 71.2326 263.751 65.5529 266.961C63.3831 268.184 60.1029 268.846 56.7972 269.19C56.9886 272.311 57.2184 275.419 57.4098 278.528C57.4609 279.407 57.4864 280.4 56.861 281.05C56.7334 281.177 56.6057 281.279 56.4398 281.368C55.7506 281.75 54.8316 281.738 54.002 281.687C52.8533 281.61 51.679 281.534 50.5176 281.47C51.4748 278.579 49.7901 263.84 51.4748 263.662C64.9657 262.222 66.5612 258.044 68.4884 253.165C70.4285 248.274 69.9562 239.242 69.752 232.261L72.7259 232.07L73.798 232.019L75.1637 231.943C75.1765 233.79 75.1892 235.433 75.1509 236.936C75.0616 242.146 74.7042 245.713 74.2064 250.618Z" fill="#F1C797"/>
</g>
<path d="M89.9173 349.443C85.5139 350.666 81.1233 351.889 76.7327 353.124C75.4692 353.481 74.2183 353.825 72.942 354.182C70.7467 354.793 68.5386 355.405 66.3433 356.016C59.2979 357.991 34.9836 363.175 30.6824 360.398C28.9466 359.277 25.2069 329.227 25.36 318.272C25.5515 304.336 26.8406 275.916 42.5268 274.54C54.2053 273.521 66.8283 278.872 69.9809 291.101C71.0403 295.228 72.8782 300.578 75.0224 306.336C82.1061 325.227 92.5338 348.717 89.9173 349.443Z" fill="#616BC8"/>
<path d="M56.1583 277.521C70.3512 282.846 85.5141 289.279 100.894 290.515C104.417 290.795 107.927 290.668 111.437 290.387C113.313 290.235 115.176 290.043 117.052 289.865C118.125 289.763 119.21 289.7 120.294 289.585C121.864 289.419 123.434 288.426 123.855 290.515C124.404 293.241 124.889 295.98 125.31 298.718C125.451 299.699 125.591 300.68 125.553 301.661C125.527 302.107 125.464 302.565 125.208 302.922C124.749 303.559 122.592 304.043 121.826 304.336C120.345 304.909 118.788 305.304 117.244 305.661C94.0018 310.896 69.6747 306.298 46.2539 301.699" fill="#616BC8"/>
<g opacity="0.3471">
<path opacity="0.3471" d="M71.4615 236.121C71.2062 236.274 70.9509 236.401 70.6956 236.542C65.0542 239.484 58.5704 240.682 52.1121 240.911C51.4612 240.924 50.9251 241.446 50.9124 242.083L50.823 254.91C50.8103 256.031 49.3425 256.541 48.6277 255.675C47.0068 253.713 46.1389 251.063 43.65 251.051C42.731 251.038 41.7866 251.114 41.0335 251.624C40.0124 252.312 39.6806 253.688 39.8593 254.885C40.1401 256.758 41.544 258.439 43.3947 259.114C44.0457 259.356 44.7732 259.484 45.3475 259.891C46.0878 260.426 46.6239 261.05 46.5983 261.955C46.5345 264.248 46.458 266.541 46.3941 268.821C46.3941 268.872 46.3941 268.936 46.3686 268.987C46.3686 268.999 46.3686 269.012 46.3686 269.012C46.3048 269.139 46.2537 269.279 46.1772 269.394C46.1644 269.42 46.1516 269.445 46.1389 269.458C46.1389 269.471 46.1133 269.483 46.1133 269.483C45.9474 269.56 45.756 269.496 45.5773 269.445C44.1988 268.999 42.8204 268.553 41.4419 268.108C41.4164 268.095 41.3909 268.095 41.3654 268.082C37.4598 266.795 33.5797 263.101 30.7079 259.878C28.6275 257.535 26.2663 253.777 24.6836 250.312C25.6664 250.49 26.6364 250.872 27.5936 251.153C29.6996 251.79 32.0736 251.968 34.0519 251.025C35.073 250.554 35.9154 249.739 36.4259 248.77C36.9237 247.802 36.528 246.834 36.8471 245.968C37.4598 244.274 40.2167 242.924 41.8631 242.414C42.7949 242.134 43.8287 241.917 44.403 241.153C45.2199 240.045 44.5307 238.529 44.3775 237.166C44.1223 234.771 45.7049 232.491 47.7726 231.153C49.8275 229.803 52.3036 229.204 54.7031 228.567C59.8595 227.217 67.5303 226.618 72.1507 224.071C75.3926 222.274 78.9153 217.854 81.5701 213.791C82.4252 214.427 82.9485 215.472 83.1272 216.504C84.5312 224.72 78.5069 232.172 71.4615 236.121Z" fill="#4F2B2B"/>
</g>
<path opacity="0.3257" d="M89.9179 349.443C85.5145 350.666 81.1239 351.889 76.7333 353.124C75.4697 353.481 74.2189 353.825 72.9425 354.182C64.8633 332.131 63.9443 302.616 63.9443 302.616C63.9443 302.616 71.1557 305.138 75.023 306.336C82.1067 325.227 92.5344 348.717 89.9179 349.443Z" fill="#505EB2"/>
<path d="M94.7175 76.4566C94.7175 79.9215 91.8968 82.7367 88.4252 82.7367C84.9535 82.7367 82.1328 79.9215 82.1328 76.4566C82.1328 72.9917 84.9535 70.1765 88.4252 70.1765C91.8968 70.1765 94.7175 72.9917 94.7175 76.4566Z" stroke="#F2F0D5" stroke-width="2" stroke-miterlimit="10"/>
<path d="M438.908 438.231C438.908 440.727 436.878 442.74 434.389 442.74C431.888 442.74 429.871 440.715 429.871 438.231C429.871 435.734 431.9 433.721 434.389 433.721C436.878 433.721 438.908 435.734 438.908 438.231Z" stroke="#F2F0D5" stroke-width="2" stroke-miterlimit="10"/>
<path d="M451.327 352.08C451.327 355.545 448.506 358.36 445.035 358.36C441.563 358.36 438.742 355.545 438.742 352.08C438.742 348.615 441.563 345.8 445.035 345.8C448.506 345.813 451.327 348.615 451.327 352.08Z" stroke="#F2F0D5" stroke-width="2" stroke-miterlimit="10"/>
<path d="M48.2966 146.939C48.2966 150.404 45.4759 153.219 42.0043 153.219C38.5326 153.219 35.7119 150.404 35.7119 146.939C35.7119 143.474 38.5326 140.659 42.0043 140.659C45.4887 140.671 48.2966 143.474 48.2966 146.939Z" stroke="#F2F0D5" stroke-width="2" stroke-miterlimit="10"/>
<path d="M447.817 386.168C447.817 389.633 444.996 392.448 441.525 392.448C438.053 392.448 435.232 389.633 435.232 386.168C435.232 382.703 438.053 379.888 441.525 379.888C444.996 379.888 447.817 382.703 447.817 386.168Z" stroke="#F2F0D5" stroke-width="2" stroke-miterlimit="10"/>
<path d="M16.2732 227.777C16.2732 231.242 13.4525 234.058 9.98083 234.058C6.50919 234.058 3.68848 231.242 3.68848 227.777C3.68848 224.313 6.50919 221.497 9.98083 221.497C13.4525 221.497 16.2732 224.313 16.2732 227.777Z" stroke="#F2F0D5" stroke-width="2" stroke-miterlimit="10"/>
<path d="M502.444 319.036C505.919 319.036 508.736 316.225 508.736 312.756C508.736 309.288 505.919 306.476 502.444 306.476C498.969 306.476 496.151 309.288 496.151 312.756C496.151 316.225 498.969 319.036 502.444 319.036Z" stroke="#F2F0D5" stroke-width="2" stroke-miterlimit="10"/>
<path d="M445.111 123.678C448.586 123.678 451.403 120.867 451.403 117.398C451.403 113.93 448.586 111.118 445.111 111.118C441.636 111.118 438.818 113.93 438.818 117.398C438.818 120.867 441.636 123.678 445.111 123.678Z" fill="#F2F0D5" stroke="#F2F0D5" stroke-width="2" stroke-miterlimit="10"/>
<path d="M187.839 19.1333C192.78 19.1333 196.786 15.1354 196.786 10.2036C196.786 5.27189 192.78 1.27393 187.839 1.27393C182.897 1.27393 178.892 5.27189 178.892 10.2036C178.892 15.1354 182.897 19.1333 187.839 19.1333Z" stroke="#F2F0D5" stroke-width="2" stroke-miterlimit="10"/>
<path d="M331.772 471.796C331.772 476.726 327.765 480.726 322.825 480.726C317.886 480.726 313.878 476.726 313.878 471.796C313.878 466.867 317.886 462.867 322.825 462.867C327.765 462.867 331.772 466.867 331.772 471.796Z" stroke="#F2F0D5" stroke-width="2" stroke-miterlimit="10"/>
<path d="M19.1707 140.468C19.1707 145.398 15.1629 149.397 10.2235 149.397C5.28408 149.397 1.27637 145.398 1.27637 140.468C1.27637 135.538 5.28408 131.538 10.2235 131.538C15.1629 131.538 19.1707 135.538 19.1707 140.468Z" stroke="#F2F0D5" stroke-width="2" stroke-miterlimit="10"/>
<path d="M274.58 149.525C274.58 153.538 271.325 156.786 267.304 156.786C263.284 156.786 260.029 153.538 260.029 149.525C260.029 145.512 263.284 142.264 267.304 142.264C271.312 142.264 274.58 145.525 274.58 149.525Z" fill="#A6D55D"/>
<path d="M267.201 92.3799C269.253 92.3799 270.916 90.7203 270.916 88.673C270.916 86.6257 269.253 84.9661 267.201 84.9661C265.15 84.9661 263.487 86.6257 263.487 88.673C263.487 90.7203 265.15 92.3799 267.201 92.3799Z" fill="#A6D55D"/>
<path d="M392.104 444.179C392.104 446.23 390.445 447.886 388.39 447.886C386.335 447.886 384.676 446.23 384.676 444.179C384.676 442.128 386.335 440.472 388.39 440.472C390.445 440.46 392.104 442.128 392.104 444.179Z" fill="#F2C53D"/>
<path d="M41.3277 187.893C41.3277 189.944 39.6685 191.6 37.6136 191.6C35.5587 191.6 33.8994 189.944 33.8994 187.893C33.8994 185.842 35.5587 184.186 37.6136 184.186C39.6557 184.186 41.3277 185.855 41.3277 187.893Z" fill="#A6D55D"/>
<path d="M52.2659 171.397C54.3172 171.397 55.9801 169.737 55.9801 167.69C55.9801 165.643 54.3172 163.983 52.2659 163.983C50.2146 163.983 48.5518 165.643 48.5518 167.69C48.5518 169.737 50.2146 171.397 52.2659 171.397Z" fill="#A6D55D"/>
<path d="M434.579 66.5206C434.579 68.2908 433.141 69.7275 431.365 69.7275C429.588 69.7275 428.15 68.2908 428.15 66.5206C428.15 64.7504 429.588 63.3137 431.365 63.3137C433.141 63.3137 434.579 64.7504 434.579 66.5206Z" fill="#F2F0D5" stroke="#F2F0D5"/>
<path d="M489.337 340.806C489.337 342.857 487.677 344.513 485.622 344.513C483.567 344.513 481.908 342.857 481.908 340.806C481.908 338.755 483.567 337.099 485.622 337.099C487.665 337.087 489.337 338.755 489.337 340.806Z" fill="#F2C53D"/>
<path d="M390.254 425.454C392.305 425.454 393.968 423.794 393.968 421.747C393.968 419.7 392.305 418.04 390.254 418.04C388.203 418.04 386.54 419.7 386.54 421.747C386.54 423.794 388.203 425.454 390.254 425.454Z" fill="#A6D55D"/>
<path d="M473.242 359.086C473.242 361.137 471.583 362.793 469.528 362.793C467.473 362.793 465.813 361.137 465.813 359.086C465.813 357.035 467.473 355.379 469.528 355.379C471.583 355.366 473.242 357.035 473.242 359.086Z" fill="#A6D55D"/>
<path d="M361.205 446.077C361.205 448.128 359.545 449.784 357.491 449.784C355.436 449.784 353.776 448.128 353.776 446.077C353.776 444.026 355.436 442.37 357.491 442.37C359.533 442.358 361.205 444.026 361.205 446.077Z" fill="#A6D55D"/>
<path d="M66.1907 68.8008C68.242 68.8008 69.9049 67.1411 69.9049 65.0939C69.9049 63.0466 68.242 61.387 66.1907 61.387C64.1394 61.387 62.4766 63.0466 62.4766 65.0939C62.4766 67.1411 64.1394 68.8008 66.1907 68.8008Z" fill="#F2C53D"/>
<g opacity="0.2787">
<path opacity="0.2787" d="M223.755 118.545C223.755 118.787 223.742 119.029 223.73 119.271C223.717 119.462 223.704 119.653 223.679 119.844C223.653 120.061 223.628 120.277 223.564 120.506C223.526 120.723 223.487 120.94 223.411 121.156C223.423 121.169 223.411 121.169 223.411 121.182C223.372 121.36 223.309 121.526 223.257 121.691C223.053 122.366 222.747 123.016 222.364 123.678C222.224 123.908 222.07 124.162 221.905 124.392C221.777 124.583 221.649 124.774 221.483 124.965C220.692 125.997 219.645 127.003 218.293 127.933C218.101 128.086 217.897 128.226 217.68 128.353C217.374 128.557 217.042 128.761 216.71 128.939C215.689 129.474 214.553 129.742 213.404 129.767C213.111 129.767 212.791 129.78 212.434 129.793C212.141 129.793 211.847 129.806 211.515 129.806C211.273 129.806 211.005 129.806 210.749 129.818C209.69 129.831 208.465 129.856 207.112 129.869C205.555 129.895 203.844 129.92 201.981 129.946C200.232 129.958 198.382 129.984 196.416 130.009H196.11C184.521 130.137 169.702 130.226 157.526 130.048H157.283C153.569 129.984 150.11 129.895 147.086 129.793H146.792C146.001 129.755 145.235 129.729 144.507 129.678H144.265C142.72 129.602 141.329 129.5 140.117 129.398H139.964C139.402 129.347 138.879 129.283 138.394 129.245C138.33 129.232 138.266 129.232 138.202 129.22C137.487 129.143 136.875 129.054 136.364 128.965C135.969 128.901 135.637 128.812 135.381 128.736C135.139 128.659 134.973 128.583 134.858 128.493C134.807 128.455 134.756 128.417 134.743 128.366C134.616 128.086 134.514 127.818 134.411 127.525C134.297 127.245 134.207 126.965 134.118 126.672C134.016 126.379 133.939 126.086 133.875 125.793C133.735 125.245 133.633 124.697 133.531 124.15C133.467 123.729 133.416 123.309 133.39 122.889C133.365 122.685 133.352 122.481 133.352 122.277C133.339 122.035 133.327 121.78 133.327 121.538C133.301 117.602 134.526 113.653 136.888 110.519C140.666 105.513 148.247 104.29 154.476 105.08C152.816 98.0229 155.739 90.0868 161.585 85.7685C167.443 81.4629 175.892 81.845 182.172 85.5265C188.464 89.1951 192.204 95.9466 191.298 103.157C193.391 99.8063 198.101 98.4051 201.7 100.036C205.287 101.666 207.303 106.137 206.155 109.908C208.184 106.086 213.634 104.685 217.374 106.787C217.705 106.965 218.024 107.169 218.318 107.411C220.36 109.067 223.755 113.589 223.755 118.545Z" fill="#5D99C5"/>
</g>
<path d="M218.803 112.978C218.803 113.22 218.79 113.462 218.778 113.704C218.765 113.895 218.752 114.086 218.727 114.277C218.701 114.494 218.676 114.71 218.612 114.94C218.573 115.156 218.535 115.373 218.459 115.589C218.471 115.602 218.459 115.602 218.459 115.615C218.42 115.793 218.356 115.959 218.305 116.124C218.101 116.8 217.795 117.449 217.412 118.112C217.272 118.341 217.118 118.596 216.952 118.825C216.825 119.016 216.697 119.207 216.531 119.398C215.74 120.43 214.693 121.436 213.34 122.366C213.149 122.519 212.945 122.659 212.728 122.787C212.421 122.991 212.09 123.194 211.758 123.373C210.737 123.908 209.601 124.175 208.452 124.201C208.159 124.201 207.839 124.213 207.482 124.226C207.188 124.226 206.895 124.239 206.563 124.239C206.321 124.239 206.053 124.239 205.797 124.252C204.738 124.264 203.513 124.29 202.16 124.303C200.603 124.328 198.892 124.354 197.029 124.379C195.28 124.392 193.43 124.417 191.464 124.443H191.158C179.568 124.57 164.75 124.659 152.574 124.481H152.331C148.617 124.417 145.158 124.328 142.121 124.226H141.827C141.036 124.188 140.27 124.162 139.542 124.112H139.3C137.756 124.035 136.364 123.933 135.152 123.831H134.999C134.437 123.78 133.914 123.717 133.429 123.678C133.365 123.666 133.301 123.666 133.237 123.653C132.523 123.577 131.91 123.487 131.399 123.398C131.004 123.334 130.672 123.245 130.417 123.169C130.174 123.092 130.008 123.016 129.893 122.927C129.842 122.889 129.791 122.85 129.778 122.799C129.651 122.519 129.549 122.252 129.447 121.959C129.332 121.678 129.242 121.398 129.153 121.105C129.051 120.812 128.974 120.519 128.911 120.226C128.77 119.679 128.668 119.131 128.566 118.583C128.502 118.163 128.451 117.742 128.426 117.322C128.4 117.118 128.387 116.914 128.387 116.71C128.374 116.468 128.362 116.214 128.362 115.972C128.336 112.035 129.561 108.086 131.923 104.953C135.701 99.9465 143.282 98.7237 149.511 99.5134C147.851 92.4563 150.774 84.5202 156.62 80.2018C162.478 75.8962 170.928 76.2784 177.207 79.9598C183.5 83.6285 187.239 90.3799 186.32 97.5899C188.414 94.2397 193.123 92.8385 196.722 94.469C200.309 96.0995 202.326 100.571 201.177 104.341C203.206 100.52 208.656 99.1185 212.396 101.22C212.728 101.399 213.047 101.603 213.34 101.845C215.421 103.513 218.803 108.036 218.803 112.978Z" fill="white"/>
<path d="M218.803 112.978C218.803 113.22 218.79 113.462 218.777 113.704C218.764 113.895 218.752 114.086 218.726 114.277C218.701 114.494 218.675 114.71 218.611 114.94C218.573 115.156 218.535 115.373 218.458 115.589C218.471 115.602 218.458 115.602 218.458 115.615C218.42 115.793 218.356 115.959 218.305 116.124C218.101 116.8 217.794 117.449 217.412 118.112C217.271 118.341 217.118 118.596 216.952 118.825C216.824 119.016 216.697 119.207 216.531 119.398C215.74 120.43 214.693 121.436 213.34 122.366C213.149 122.519 212.944 122.659 212.727 122.787C212.421 122.99 212.089 123.194 211.757 123.373C210.736 123.908 209.6 124.175 208.452 124.201C208.158 124.201 207.839 124.213 207.482 124.226C207.188 124.226 206.895 124.239 206.563 124.239C206.32 124.239 206.052 124.239 205.797 124.252C204.738 124.264 203.512 124.29 202.159 124.303C200.602 124.328 198.892 124.353 197.028 124.379C195.28 124.404 193.416 124.417 191.464 124.443H191.157C179.581 124.583 164.763 124.659 152.573 124.481H152.331C148.617 124.43 145.158 124.341 142.12 124.226H141.827C141.048 124.201 140.27 124.162 139.542 124.111H139.3C137.755 124.035 136.364 123.946 135.151 123.831H134.998C134.437 123.793 133.913 123.729 133.428 123.678C133.365 123.666 133.301 123.666 133.237 123.653C132.522 123.589 131.91 123.487 131.399 123.398C131.003 123.334 130.672 123.245 130.416 123.169C130.289 123.131 130.186 123.092 130.097 123.041C130.008 123.003 129.931 122.952 129.893 122.914C129.842 122.876 129.791 122.838 129.778 122.787C129.65 122.506 129.548 122.239 129.446 121.946C129.331 121.666 129.242 121.385 129.153 121.092C129.051 120.799 128.974 120.506 128.91 120.213C128.77 119.666 128.668 119.118 128.566 118.57C128.502 118.15 128.451 117.729 128.425 117.309C128.4 117.105 128.387 116.901 128.387 116.698C128.374 116.456 128.361 116.201 128.361 115.959C145.03 117.564 204.61 116.354 204.61 116.354C213.302 112.023 214.029 105.972 212.396 101.182C212.727 101.36 213.046 101.564 213.34 101.806C215.42 103.513 218.803 108.035 218.803 112.978Z" fill="#E8E8E8"/>
<g opacity="0.2787">
<path opacity="0.2787" d="M502.252 239.612C502.252 239.854 502.24 240.096 502.227 240.338C502.214 240.529 502.201 240.72 502.176 240.911C502.15 241.127 502.125 241.344 502.061 241.573C502.023 241.79 501.984 242.006 501.908 242.223C501.921 242.236 501.908 242.236 501.908 242.248C501.87 242.427 501.806 242.592 501.755 242.758C501.55 243.433 501.244 244.083 500.861 244.745C500.721 244.974 500.568 245.229 500.402 245.459C500.274 245.65 500.146 245.841 499.981 246.032C499.189 247.064 498.143 248.07 496.79 249C496.598 249.153 496.394 249.293 496.177 249.42C495.871 249.624 495.552 249.828 495.207 250.006C494.186 250.541 493.05 250.809 491.901 250.834C491.608 250.834 491.289 250.847 490.931 250.86C490.638 250.86 490.344 250.872 490.012 250.872C489.77 250.872 489.502 250.872 489.247 250.885C488.187 250.898 486.962 250.923 485.609 250.936C484.052 250.962 482.342 250.987 480.478 251.013C478.729 251.025 476.879 251.051 474.913 251.076H474.607C463.018 251.204 448.199 251.293 436.023 251.114H435.781C432.066 251.051 428.608 250.962 425.57 250.86H425.276C424.485 250.821 423.719 250.796 422.992 250.745H422.749C421.205 250.669 419.814 250.567 418.601 250.465H418.448C417.886 250.414 417.363 250.35 416.878 250.312C416.814 250.299 416.75 250.299 416.687 250.286C415.972 250.21 415.359 250.121 414.849 250.032C414.453 249.968 414.121 249.879 413.866 249.802C413.623 249.726 413.457 249.65 413.343 249.56C413.292 249.522 413.24 249.484 413.228 249.433C413.1 249.153 412.998 248.885 412.896 248.592C412.781 248.312 412.692 248.032 412.602 247.739C412.5 247.446 412.424 247.153 412.36 246.86C412.219 246.312 412.117 245.764 412.015 245.217C411.951 244.796 411.9 244.376 411.875 243.955C411.849 243.752 411.836 243.548 411.836 243.344C411.824 243.102 411.811 242.847 411.811 242.605C411.785 238.669 413.011 234.72 415.372 231.586C419.15 226.58 426.731 225.357 432.96 226.147C431.301 219.09 434.223 211.154 440.069 206.835C445.928 202.53 454.377 202.912 460.657 206.593C466.949 210.262 470.689 217.013 469.782 224.223C471.876 220.873 476.585 219.472 480.185 221.103C483.771 222.733 485.788 227.204 484.639 230.975C486.668 227.153 492.118 225.752 495.858 227.854C496.19 228.032 496.509 228.236 496.802 228.491C498.87 230.134 502.252 234.656 502.252 239.612Z" fill="#5D99C5"/>
</g>
<path d="M497.313 234.045C497.313 234.287 497.3 234.529 497.287 234.771C497.275 234.962 497.262 235.153 497.236 235.344C497.211 235.561 497.185 235.777 497.121 236.007C497.083 236.223 497.045 236.44 496.968 236.656C496.981 236.669 496.968 236.669 496.968 236.682C496.93 236.86 496.866 237.026 496.815 237.191C496.611 237.866 496.305 238.516 495.922 239.179C495.781 239.408 495.628 239.663 495.462 239.892C495.335 240.083 495.207 240.274 495.041 240.465C494.25 241.497 493.203 242.503 491.85 243.446C491.659 243.599 491.455 243.739 491.238 243.866C490.931 244.07 490.612 244.274 490.268 244.452C489.246 244.987 488.111 245.255 486.962 245.28C486.668 245.28 486.349 245.293 485.992 245.306C485.698 245.306 485.405 245.318 485.073 245.318C484.83 245.318 484.562 245.318 484.307 245.331C483.248 245.344 482.022 245.369 480.669 245.382C479.112 245.408 477.402 245.433 475.539 245.459C473.79 245.471 471.939 245.497 469.974 245.522H469.667C458.078 245.65 443.26 245.739 431.084 245.561H430.841C427.127 245.497 423.668 245.408 420.63 245.306H420.337C419.546 245.268 418.78 245.242 418.052 245.191H417.81C416.265 245.115 414.874 245.013 413.662 244.911H413.508C412.947 244.86 412.424 244.796 411.939 244.758C411.875 244.745 411.811 244.745 411.747 244.733C411.032 244.656 410.42 244.567 409.909 244.478C409.514 244.414 409.182 244.325 408.926 244.248C408.684 244.172 408.518 244.096 408.403 244.006C408.352 243.968 408.301 243.93 408.288 243.879C408.161 243.599 408.058 243.331 407.956 243.038C407.842 242.758 407.752 242.478 407.663 242.185C407.561 241.892 407.484 241.599 407.42 241.306C407.28 240.758 407.178 240.21 407.076 239.663C407.012 239.242 406.961 238.822 406.935 238.401C406.91 238.198 406.897 237.994 406.897 237.79C406.884 237.548 406.871 237.293 406.871 237.051C406.846 233.115 408.071 229.166 410.432 226.032C414.21 221.026 421.792 219.803 428.02 220.593C426.361 213.536 429.284 205.6 435.13 201.281C440.988 196.976 449.437 197.358 455.717 201.039C462.009 204.708 465.749 211.46 464.843 218.67C466.936 215.319 471.646 213.918 475.245 215.549C478.832 217.179 480.848 221.65 479.699 225.421C481.729 221.599 487.179 220.198 490.918 222.3C491.25 222.478 491.569 222.682 491.863 222.937C493.918 224.58 497.313 229.102 497.313 234.045Z" fill="white"/>
<path d="M497.313 234.045C497.313 234.287 497.3 234.529 497.287 234.771C497.274 234.962 497.261 235.153 497.236 235.344C497.21 235.561 497.185 235.777 497.121 236.007C497.083 236.223 497.045 236.44 496.968 236.656C496.981 236.669 496.968 236.669 496.968 236.682C496.93 236.86 496.866 237.026 496.815 237.191C496.611 237.866 496.304 238.516 495.921 239.178C495.781 239.408 495.628 239.663 495.462 239.892C495.334 240.083 495.207 240.274 495.041 240.465C494.249 241.497 493.203 242.503 491.85 243.446C491.658 243.599 491.454 243.739 491.237 243.866C490.931 244.07 490.612 244.274 490.267 244.452C489.246 244.987 488.11 245.255 486.961 245.28C486.668 245.28 486.349 245.293 485.991 245.306C485.698 245.306 485.404 245.318 485.072 245.318C484.83 245.318 484.562 245.318 484.307 245.331C483.247 245.344 482.022 245.369 480.669 245.382C479.112 245.408 477.402 245.433 475.538 245.459C473.79 245.484 471.926 245.497 469.973 245.522H469.667C458.091 245.662 443.272 245.739 431.083 245.56H430.841C427.127 245.51 423.668 245.42 420.63 245.306H420.336C419.558 245.28 418.779 245.242 418.052 245.191H417.809C416.265 245.115 414.874 245.025 413.661 244.911H413.508C412.946 244.873 412.423 244.809 411.938 244.758C411.874 244.745 411.811 244.745 411.747 244.732C411.032 244.669 410.419 244.567 409.909 244.478C409.513 244.414 409.181 244.325 408.926 244.248C408.798 244.21 408.696 244.172 408.607 244.121C408.518 244.083 408.441 244.032 408.403 243.994C408.352 243.955 408.301 243.917 408.288 243.866C408.16 243.586 408.058 243.318 407.956 243.026C407.841 242.745 407.752 242.465 407.662 242.172C407.56 241.879 407.484 241.586 407.42 241.293C407.28 240.745 407.177 240.198 407.075 239.65C407.011 239.229 406.96 238.809 406.935 238.389C406.909 238.185 406.897 237.981 406.897 237.777C406.884 237.535 406.871 237.28 406.871 237.038C423.54 238.643 483.12 237.433 483.12 237.433C491.812 233.102 492.539 227.051 490.905 222.262C491.237 222.44 491.556 222.644 491.85 222.899C493.917 224.58 497.313 229.102 497.313 234.045Z" fill="#E8E8E8"/>
<g opacity="0.2787">
<g opacity="0.2787">
<path opacity="0.2787" d="M31.5897 431.008C18.9028 424.677 25.7568 414.167 28.9604 411.607C32.164 409.047 37.6012 410.168 39.5285 413.785C38.533 410.511 40.2815 406.626 43.4086 405.212C46.5356 403.798 50.6199 405.021 52.4323 407.926C51.641 401.671 54.8956 395.811 60.3456 392.614C65.7956 389.429 73.1473 389.085 78.2271 392.83C83.3197 396.576 85.8469 403.467 84.4046 409.607C89.8163 408.932 96.4022 409.976 99.6952 414.333C102.184 417.632 103.243 422.002 102.618 426.091C102.005 430.078 98.5209 430.664 95.0748 430.88C82.3625 431.67 69.5608 431.441 56.8357 431.352C48.4118 431.288 40.0007 431.186 31.5897 431.008Z" fill="#5D99C5"/>
</g>
</g>
<path d="M27.199 426.473C14.5122 420.142 21.3662 409.633 24.5698 407.072C27.7734 404.512 33.2106 405.633 35.1379 409.25C34.1423 405.977 35.8909 402.091 39.0179 400.677C42.145 399.263 46.2293 400.486 48.0417 403.391C47.2503 397.136 50.505 391.276 55.955 388.079C61.405 384.894 68.7567 384.55 73.8365 388.296C78.9291 392.041 81.4563 398.932 80.014 405.072C85.4257 404.397 92.0116 405.442 95.3045 409.798C97.7934 413.097 98.8528 417.467 98.2274 421.556C97.6147 425.543 94.1303 426.129 90.6842 426.345C77.9719 427.135 65.1702 426.906 52.445 426.817C44.0212 426.74 35.6101 426.638 27.199 426.473Z" fill="white"/>
<g opacity="0.2827">
<g opacity="0.2827">
<path opacity="0.2827" d="M98.2274 421.543C97.6148 425.53 94.1304 426.116 90.6715 426.333C77.9592 427.123 65.1575 426.893 52.4324 426.791C44.0213 426.728 35.6102 426.639 27.1991 426.46C22.2341 424.002 20.2686 420.881 19.8984 417.849C20.0771 417.951 20.2686 418.053 20.46 418.142C28.8711 418.308 37.2822 418.41 45.6933 418.473C58.4056 418.562 71.2073 418.792 83.9324 418.002C87.3785 417.785 90.863 417.199 91.4756 413.212C91.8202 410.957 91.6543 408.626 91.0161 406.435C92.7136 407.212 94.1942 408.308 95.3046 409.786C97.7935 413.098 98.8401 417.467 98.2274 421.543Z" fill="#E8E8E8"/>
</g>
</g>
<g opacity="0.2787">
<g opacity="0.2787">
<path opacity="0.2787" d="M398.423 314.935C385.736 308.603 392.59 298.094 395.793 295.534C398.997 292.973 404.434 294.094 406.362 297.712C405.366 294.438 407.115 290.553 410.242 289.139C413.369 287.725 417.453 288.948 419.265 291.852C418.474 285.598 421.729 279.738 427.179 276.541C432.629 273.356 439.98 273.012 445.06 276.757C450.153 280.502 452.68 287.394 451.238 293.534C456.649 292.859 463.235 293.903 466.528 298.26C469.017 301.559 470.076 305.928 469.451 310.017C468.838 314.005 465.354 314.591 461.908 314.807C449.195 315.597 436.394 315.368 423.669 315.278C415.245 315.202 406.834 315.1 398.423 314.935Z" fill="#5D99C5"/>
</g>
</g>
<path d="M394.032 310.387C381.345 304.056 388.199 293.547 391.403 290.986C394.606 288.426 400.044 289.547 401.971 293.164C400.975 289.891 402.724 286.005 405.851 284.591C408.978 283.177 413.062 284.4 414.875 287.305C414.083 281.05 417.338 275.19 422.788 271.993C428.238 268.808 435.59 268.464 440.669 272.21C445.762 275.955 448.289 282.846 446.847 288.986C452.259 288.311 458.845 289.356 462.137 293.712C464.626 297.011 465.686 301.381 465.06 305.47C464.448 309.457 460.963 310.043 457.517 310.26C444.805 311.049 432.003 310.82 419.278 310.731C410.854 310.667 402.443 310.565 394.032 310.387Z" fill="white"/>
<g opacity="0.2827">
<g opacity="0.2827">
<path opacity="0.2827" d="M465.06 305.47C464.448 309.457 460.963 310.043 457.505 310.26C444.792 311.049 431.99 310.82 419.265 310.718C410.854 310.655 402.443 310.565 394.032 310.387C389.067 307.928 387.102 304.808 386.731 301.776C386.91 301.878 387.102 301.98 387.293 302.069C395.704 302.234 404.115 302.336 412.526 302.4C425.239 302.489 438.04 302.718 450.765 301.929C454.212 301.712 457.696 301.126 458.309 297.139C458.653 294.884 458.487 292.553 457.849 290.362C459.547 291.139 461.027 292.235 462.138 293.712C464.626 297.012 465.673 301.394 465.06 305.47Z" fill="#E8E8E8"/>
</g>
</g>
</svg>
