<svg width="323" height="38" viewBox="0 0 323 38" fill="none" xmlns="http://www.w3.org/2000/svg">
<path d="M162.901 24.6188C163.38 24.689 163.743 24.6597 164.024 24.8001C164.491 25.0399 165.205 25.3382 165.257 25.695C165.321 26.1337 164.889 26.7186 164.538 27.128C164.31 27.3912 163.86 27.5726 163.497 27.6018C161.457 27.7539 160.568 29.1284 159.709 30.7545C158.809 32.4682 157.68 34.0709 156.564 35.6618C156.102 36.3228 155.453 36.8901 154.798 37.3756C154.073 37.9137 153.267 38.0307 152.606 37.1943C151.893 36.2818 152.442 35.7028 153.132 35.1237C155.348 33.2696 156.681 30.8013 158.142 28.0346C156.944 27.7188 155.938 27.4614 154.939 27.1924C153.442 26.7829 151.91 26.4554 150.46 25.9231C148.747 25.2973 148.297 24.4492 148.642 22.6418C148.847 21.5773 148.42 21.3141 147.502 21.3726C146.339 21.4486 145.169 21.5597 144.006 21.5773C143.334 21.5831 142.609 21.5422 142.007 21.2907C141.615 21.1269 141.206 20.5654 141.177 20.1501C141.153 19.8518 141.691 19.2786 142.048 19.2201C143.141 19.0271 144.293 18.8282 145.368 18.9861C148.712 19.4833 151.109 18.5241 152.407 15.1959C152.933 13.8506 153.658 12.5346 154.535 11.3999C155.055 10.7214 156.014 10.1072 156.85 9.99611C160.773 9.48724 163.55 11.511 164.316 15.3831C164.556 16.5822 164.994 16.939 166.233 16.8337C168.508 16.6465 170.799 16.6699 173.085 16.6465C173.559 16.6407 174.091 16.705 174.494 16.9273C174.862 17.1261 175.383 17.6584 175.318 17.9158C175.213 18.3252 174.728 18.8516 174.33 18.9218C173.144 19.1382 171.916 19.1909 170.706 19.2376C169.197 19.2961 167.689 19.2727 166.181 19.2903C164.971 19.3078 164.176 19.7933 163.907 21.0801C163.673 22.2031 163.281 23.3086 162.901 24.6188ZM153.191 18.0035C156.651 18.3837 156.821 18.2199 156.447 15.3363C156.236 13.7044 157.242 12.9089 158.756 13.5582C159.803 14.0086 160.364 14.7456 160.054 15.9914C159.966 16.3424 160.177 17.091 160.34 17.1144C160.82 17.1905 161.416 17.1203 161.825 16.8688C162.048 16.7342 162.106 16.0967 162.024 15.734C161.872 15.079 161.627 14.4239 161.293 13.8389C160.323 12.1193 157.441 11.3472 156.47 12.6457C155.272 14.2601 154.354 16.0791 153.191 18.0035ZM156.85 20.2788C154.944 20.2788 153.284 20.1267 151.91 21.0626C151.337 21.4544 150.7 22.8114 150.916 23.0922C151.437 23.7648 152.401 24.2503 153.272 24.4433C153.804 24.5603 154.722 24.1743 155.061 23.718C155.751 22.7763 156.172 21.6299 156.85 20.2788ZM161.855 19.9337C160.089 19.419 158.826 19.805 158.587 20.852C158.3 22.1095 158.142 23.4022 157.85 25.1218C158.744 24.7767 159.656 24.7124 159.914 24.2678C160.691 22.905 161.217 21.4018 161.855 19.9337Z" fill="white"/>
<path d="M78.1776 12.8972C79.6157 12.4059 80.0425 11.318 80.3816 10.1189C80.5102 9.67438 80.8551 9.29419 81.1007 8.88475C81.4456 9.2123 81.7613 9.57494 82.1471 9.84985C82.4745 10.0897 82.8721 10.3763 83.2462 10.3821C84.1173 10.4055 84.9943 10.1832 85.8595 10.23C87.3035 10.3061 88.1746 11.4642 87.59 12.751C86.8943 14.2834 85.9472 15.7223 84.9299 17.0676C84.6552 17.4303 83.7315 17.3016 83.1059 17.401C83.0884 16.8336 82.9013 16.2019 83.0825 15.7106C83.3749 14.9268 83.9127 14.2367 84.4389 13.3534C83.1118 13.178 82.4336 13.5406 82.2758 14.6753C82.1238 15.7808 82.077 16.9214 81.7671 17.9859C81.6093 18.5299 80.9779 18.9393 80.557 19.4072C80.136 18.8925 79.4988 18.4363 79.3527 17.8514C79.1422 17.0442 79.3 16.1435 79.3 15.2836C79.1656 15.1842 79.0311 15.0906 78.8966 14.9912C78.5225 15.3889 77.8385 15.7808 77.8326 16.1902C77.7976 18.2725 77.8268 20.3723 78.0431 22.4488C78.2243 24.1976 79.4053 25.1861 81.1299 25.4727C84.6493 26.0635 88.1337 25.6716 91.5362 24.7942C92.3196 24.5895 93.2725 23.6829 93.4947 22.9108C94.1085 20.7818 94.395 18.5591 94.7692 16.3716C94.9095 15.5644 94.8393 14.7104 95.0381 13.9267C95.1375 13.5465 95.6461 13.02 95.9676 13.0259C96.295 13.0317 96.8504 13.564 96.8972 13.9267C97.055 15.0204 97.1895 16.1727 97.02 17.2548C96.6575 19.5476 96.2775 21.8638 95.5409 24.0572C95.1725 25.151 94.2079 26.3384 93.1907 26.8707C89.1977 28.9588 84.8832 29.608 80.4576 28.678C77.3942 28.0346 75.5117 26.005 75.12 22.8582C74.892 21.0333 74.9797 19.1674 74.8218 17.325C74.7751 16.7985 74.471 16.1785 74.0852 15.8218C73.524 15.307 73.4538 14.9034 74.1495 14.6578C75.196 14.2893 75.3421 13.4997 75.4123 12.5872C75.4474 12.1017 75.4298 11.5929 75.5877 11.1425C75.7455 10.6921 76.0963 10.3061 76.3594 9.89079C76.7803 10.2827 77.3123 10.6161 77.5988 11.0899C77.9028 11.5929 77.9788 12.2421 78.1776 12.8972Z" fill="white"/>
<path d="M254.143 28.4206C253.36 28.4616 252.857 28.5142 252.348 28.5084C251.425 28.5025 250.805 28.1282 251.004 27.0929C251.571 24.0923 252.15 21.0976 252.775 18.1087C253.144 16.3306 256.587 14.3712 258.294 15.0321C258.826 15.2368 259.481 15.9446 259.516 16.4593C259.732 19.5944 259.878 22.7412 259.832 25.8763C259.82 26.8238 259.867 27.3444 260.726 27.8533C262.778 29.064 264.795 30.3625 266.087 32.4741C266.368 32.9303 266.742 33.3807 266.83 33.8778C266.917 34.375 266.865 35.1354 266.555 35.3927C266.251 35.6384 265.38 35.5799 265.046 35.3109C263.69 34.2112 262.451 32.9654 261.159 31.7897C260.293 31.0059 259.434 30.2222 258.522 29.4969C257.68 28.8301 257.031 28.9763 256.377 29.9356C255.172 31.6961 253.839 33.3748 252.512 35.0476C252.126 35.5331 251.641 36.0244 251.097 36.276C250.63 36.4865 250.01 36.3578 249.455 36.3754C249.507 35.8431 249.373 35.188 249.636 34.8078C250.823 33.0882 252.126 31.4505 253.366 29.7718C253.605 29.4325 253.781 29.0523 254.143 28.4206ZM253.506 26.081C254.927 25.151 256.938 25.3206 257.563 23.2208C254.155 22.8114 253.407 23.3144 253.506 26.081ZM254.377 18.3485C254.476 18.524 254.582 18.6995 254.681 18.875C255.465 18.7112 256.271 18.6176 257.014 18.3427C257.3 18.2374 257.435 17.7227 257.633 17.3951C257.318 17.2665 256.92 16.9448 256.71 17.0442C255.897 17.401 255.149 17.8982 254.377 18.3485ZM257.803 21.665C257.16 20.2378 255.412 20.3197 254.33 21.665C255.476 21.665 256.558 21.665 257.803 21.665Z" fill="white"/>
<path d="M124.544 9.03681C124.45 9.03097 124.719 8.98417 124.918 9.08361C125.31 9.27663 125.994 9.60417 125.965 9.7855C125.889 10.2827 125.602 11.0314 125.228 11.1542C123.082 11.8619 122.831 13.4236 123.059 15.3246C123.194 16.4651 123.24 17.6233 123.357 19.1206C124.415 18.3485 125.228 17.7695 126.023 17.167C126.76 16.6114 127.432 15.9504 128.215 15.4825C128.631 15.2368 129.233 15.2953 129.747 15.2193C129.735 15.7574 129.911 16.4125 129.671 16.8161C129.011 17.9333 128.175 18.9451 127.344 20.0857C129.127 21.507 130.893 22.8699 132.6 24.297C133.261 24.8527 133.992 25.4786 134.319 26.2331C134.57 26.8063 134.243 27.631 134.173 28.3446C133.6 28.2803 132.887 28.4089 132.483 28.1165C130.835 26.9174 129.291 25.578 127.683 24.3204C126.731 23.5718 125.783 22.788 124.743 22.1855C123.386 21.3959 122.942 21.7059 122.872 23.2676C122.743 26.2799 122.626 29.2863 122.457 32.2986C122.422 32.9186 122.276 33.5678 122.024 34.1293C121.855 34.5095 121.399 34.7669 121.077 35.0769C120.767 34.6909 120.335 34.3458 120.183 33.9012C120.019 33.4158 120.095 32.8425 120.118 32.3103C120.352 26.5782 120.604 20.8402 120.82 15.1082C120.908 12.7978 120.878 12.8329 118.61 12.8387C118.037 12.8387 117.336 12.6866 116.944 12.3298C116.687 12.0959 116.71 11.2595 116.932 10.8851C117.143 10.5225 117.797 10.1598 118.213 10.2066C119.902 10.388 121.159 10.0136 121.878 8.30568C122.024 7.96059 122.808 7.58624 123.153 7.69738C123.626 7.83775 123.959 8.43436 124.544 9.03681Z" fill="white"/>
<path d="M223.123 25.1568C222.024 26.7244 221.164 28.134 220.118 29.3799C218.908 30.8246 217.54 32.1406 216.201 33.4684C215.833 33.831 215.33 34.141 214.839 34.2755C214.441 34.3808 213.962 34.182 213.518 34.1176C213.588 33.7199 213.553 33.252 213.751 32.9361C214.032 32.4974 214.471 32.1582 214.868 31.7955C218.551 28.4206 222.012 23.0044 222.866 19.1849C222.012 19.0797 221.147 19.0446 220.328 18.834C220.001 18.7521 219.773 18.2783 219.504 17.98C219.796 17.7227 220.065 17.2723 220.387 17.2314C222.883 16.9038 225.385 16.5529 227.893 16.4476C228.572 16.4183 229.712 17.0734 229.91 17.6642C231.033 20.9397 230.939 24.1976 228.712 27.0519C228.227 27.6719 227.309 28.1106 226.514 28.2919C225.198 28.5961 224.111 28.1808 223.748 26.6601C223.643 26.2389 223.415 25.8587 223.123 25.1568ZM227.905 18.2432C226.824 18.7814 225.631 18.9744 225.298 19.6178C224.386 21.3667 225.298 23.0161 226.134 24.8235C227.911 22.9401 227.993 20.887 227.905 18.2432Z" fill="white"/>
<path d="M292.565 24.5427C291.553 25.6891 290.524 26.818 289.542 27.9878C288.858 28.8066 288.326 29.7659 287.56 30.4853C287.233 30.7953 286.485 30.6608 285.923 30.731C285.953 30.228 285.795 29.5612 286.052 29.2453C287.093 27.9702 288.209 26.7419 289.414 25.6189C290.033 25.0398 290.846 24.5719 291.653 24.3146C293.535 23.718 293.839 23.3904 293.851 21.0859C293.132 21.1678 292.419 21.3666 291.74 21.2789C291.232 21.2146 290.407 20.8285 290.349 20.4893C290.086 18.793 289.694 17.0091 289.975 15.3596C290.577 11.7917 292.307 10.7272 295.874 11.2302C296.891 11.3706 297.598 11.9028 297.785 12.944C298.048 14.3887 298.119 15.734 297.253 17.1319C295.687 19.6528 294.623 22.3434 295.02 25.4785C295.225 27.0929 294.956 28.7716 294.851 30.421C294.815 30.9474 294.739 31.544 294.459 31.9534C294.149 32.4097 293.576 32.6904 293.12 33.0472C292.816 32.5501 292.307 32.0763 292.249 31.5499C292.155 30.7485 292.343 29.9121 292.459 29.0991C292.658 27.6778 292.898 26.2565 293.12 24.841C292.939 24.7298 292.752 24.6363 292.565 24.5427ZM295.283 16.1083C293.021 15.9913 292.074 16.8219 292.231 18.6702C294.628 18.173 294.927 17.9332 295.283 16.1083ZM295.669 14.2775C295.704 14.1138 295.745 13.9442 295.78 13.7804C295.295 13.5757 294.798 13.1662 294.336 13.2013C293.471 13.2715 292.623 13.5932 292.588 15.0145C293.693 14.7513 294.681 14.5115 295.669 14.2775Z" fill="white"/>
<path d="M190.905 20.7174C188.636 20.5361 186.368 20.3665 184.1 20.1559C183.626 20.1091 183.065 20.0272 182.726 19.7465C182.252 19.337 181.638 18.7112 181.662 18.2082C181.685 17.7753 182.48 17.0851 183.001 17.0208C186.9 16.547 190.811 16.1785 194.722 15.8276C196.266 15.6872 197.827 15.6229 199.376 15.6287C200.305 15.6287 201.258 15.7691 201.399 17.0383C201.539 18.3368 201.241 19.4657 199.879 19.7991C198.429 20.1559 196.92 20.3372 195.43 20.4425C193.933 20.5478 192.419 20.4659 190.916 20.4659C190.911 20.5419 190.911 20.6297 190.905 20.7174Z" fill="white"/>
<path d="M49.4139 13.8974C50.513 13.6986 51.2146 13.5757 51.9161 13.447C52.4423 13.3535 52.986 13.1078 53.4771 13.1897C54.0032 13.2833 54.4709 13.681 54.9679 13.9442C54.6229 14.4063 54.3423 15.1842 53.9155 15.2778C51.4601 15.8159 48.9813 16.3131 46.485 16.5763C45.0702 16.7225 43.6086 16.395 41.9775 16.2663C42.7142 14.2133 44.7428 15.1784 45.9822 14.2601C44.9591 12.7452 43.9243 11.2419 42.9305 9.70364C42.7668 9.45213 42.7142 9.0427 42.7843 8.7444C42.9889 7.82609 45.7776 6.551 46.6487 6.95458C47.5431 7.36987 48.3675 7.72666 48.917 6.44571C48.9989 6.25269 49.6478 6.27024 50.0336 6.27024C50.1681 6.27024 50.2909 6.53344 50.4253 6.66797C51.0626 7.34062 52.1149 7.94892 52.2201 8.6976C52.3137 9.34685 51.2789 10.1131 50.8404 10.8852C50.3727 11.7274 50.0161 12.6223 49.4139 13.8974ZM47.3444 12.792C47.5548 12.8212 47.7653 12.8504 47.9758 12.8797C48.0752 12.2012 48.1921 11.5227 48.2388 10.8442C48.2388 10.8091 47.6601 10.7389 47.3502 10.6804C47.3444 11.3882 47.3444 12.0901 47.3444 12.792Z" fill="white"/>
<path d="M5.45642 21.4544C6.47366 21.2087 7.47921 20.8578 8.51399 20.7525C9.06939 20.694 9.6657 21.0567 10.2445 21.2321C9.82355 21.665 9.46693 22.361 8.96415 22.4897C6.70751 23.0688 4.42164 23.5367 2.12407 23.9286C1.59206 24.0222 0.978207 23.6771 0.405276 23.5308C0.808666 23.1155 1.1419 22.554 1.63298 22.3142C2.70869 21.7878 3.31085 21.0567 3.25824 19.6529C2.58007 19.6061 1.9253 19.5769 1.27636 19.5067C0.422815 19.4189 -0.091653 18.9627 0.0135791 18.0619C0.112965 17.1729 0.697588 17.0501 1.49852 17.1436C3.02439 17.325 3.67916 16.7752 3.84286 15.2895C3.9364 14.418 4.00655 13.5465 4.07086 12.675C4.07671 12.5931 4.0124 12.5053 3.92471 12.248C3.17054 12.248 2.34038 12.3416 1.54529 12.2129C1.09513 12.1368 0.364353 11.6982 0.364353 11.4116C0.358507 10.9553 0.767743 10.1832 1.1419 10.0838C3.43362 9.46966 5.75458 8.94909 8.09307 8.55721C8.52569 8.48702 9.08108 9.13626 9.57801 9.45796C9.26231 9.90249 9.00508 10.4055 8.61338 10.7623C8.30938 11.0431 7.85337 11.2244 7.43244 11.3063C5.75458 11.6338 5.45642 12.7685 5.54996 14.2425C5.60257 15.0965 5.69027 15.7106 6.73674 15.9095C7.74229 16.1025 7.73645 16.7459 7.17521 17.5355C6.40351 18.6293 5.7195 19.7874 5.00041 20.9163C5.15241 21.0976 5.30442 21.2731 5.45642 21.4544Z" fill="white"/>
<path d="M44.8539 20.1384C46.0582 21.6065 47.3795 20.501 48.7066 20.1793C51.8577 19.4189 53.2549 20.6706 52.8106 23.911C52.6703 24.9171 52.3955 25.8705 53.2725 26.7654C53.4595 26.9525 53.214 27.9878 52.8925 28.1867C50.7527 29.5144 48.3967 30.2456 45.8536 30.035C45.421 29.9999 44.7019 29.3916 44.6844 29.0173C44.5382 26.1746 44.5382 23.3261 44.5031 20.4835C44.4973 20.4191 44.6259 20.3548 44.8539 20.1384ZM50.5657 24.8761C48.6481 25.1159 46.8124 26.2448 46.3505 27.4146C48.6539 27.3795 50.4546 26.3384 50.5657 24.8761ZM46.2044 24.2854C47.5841 23.6127 48.8761 22.981 50.1681 22.3552C47.6425 21.741 46.0699 22.5423 46.2044 24.2854Z" fill="white"/>
<path d="M34.7694 17.6876C34.6291 18.3135 34.594 18.9159 34.3543 19.4073C34.1497 19.8225 33.7054 20.384 33.3604 20.384C32.9921 20.384 32.3081 19.8108 32.3081 19.4833C32.3081 17.0618 32.425 14.6403 32.5536 12.2187C32.5653 12.055 32.957 11.9087 33.1675 11.7508C33.4072 12.1252 33.8106 12.4819 33.8457 12.8738C33.9217 13.7161 33.7697 14.494 35.0032 14.652C36.874 14.8918 36.8974 14.8918 37.3125 12.8914C37.4411 12.2714 37.862 11.7157 38.1543 11.1367C38.394 11.7742 38.8383 12.4118 38.8325 13.0435C38.8208 14.4765 38.7623 15.7633 40.5981 16.1786C40.8962 16.2429 41.2119 17.0325 41.1827 17.4654C41.1593 17.7988 40.6331 18.3252 40.2882 18.3603C38.9786 18.5006 38.5986 19.3254 38.4934 20.4308C38.2303 23.1916 38.014 25.9524 37.6983 28.7073C37.5989 29.6022 37.2657 30.4737 37.0435 31.3569C36.8214 31.3511 36.5992 31.3452 36.3771 31.3335C36.2368 30.7369 35.9561 30.1286 35.9795 29.5378C36.0848 27.1105 36.2835 24.689 36.4414 22.2616C36.4998 21.3374 36.5232 20.4133 36.5934 19.495C36.6694 18.3544 36.1315 17.7754 34.7694 17.6876Z" fill="white"/>
<path d="M23.9656 18.1965C23.8721 18.8574 23.9598 19.6236 23.6499 20.1617C21.0893 24.6187 18.5929 29.1284 15.7751 33.4157C14.8572 34.8078 13.1033 35.7086 11.5892 36.6035C11.139 36.8667 10.0165 36.5216 9.58975 36.0771C9.32667 35.808 9.62482 34.7084 9.96975 34.1878C10.5836 33.2695 11.4664 32.5325 12.1738 31.6669C15.6231 27.4672 19.0548 23.2501 22.4924 19.0387C22.7847 18.6819 23.0887 18.3427 23.3868 17.9976C23.5798 18.0678 23.7727 18.1321 23.9656 18.1965Z" fill="white"/>
<path d="M110.08 22.1212C111.092 21.7995 111.939 21.431 112.816 21.2848C113.296 21.2029 113.834 21.4953 114.348 21.624C114.103 22.0919 113.962 22.864 113.594 22.9869C111.086 23.8467 108.537 24.6012 105.976 25.3089C105.567 25.4201 105.006 25.192 104.579 24.9931C104.328 24.8761 104.059 24.4901 104.065 24.2327C104.07 23.9754 104.369 23.677 104.608 23.484C104.778 23.3495 105.07 23.3436 105.31 23.3203C107.502 23.1038 107.987 22.712 107.894 19.571C107.28 19.6119 106.66 19.6997 106.052 19.6704C105.701 19.6529 105.088 19.4657 105.076 19.3136C105.047 18.9393 105.228 18.5006 105.45 18.1731C105.625 17.9099 105.965 17.6584 106.269 17.5999C108.531 17.1495 108.274 15.3421 108.508 13.6283C107.765 13.4061 107.017 13.3125 106.421 12.9615C106.011 12.7217 105.818 12.1193 105.532 11.6806C105.918 11.4759 106.292 11.1249 106.69 11.0898C107.946 10.9787 109.215 10.9144 110.472 10.9904C110.957 11.0197 111.419 11.4642 111.893 11.7215C111.641 12.1368 111.384 12.5521 111.138 12.9732C110.77 13.5991 110.209 14.2074 110.139 14.8683C110.11 15.1783 110.992 15.6697 111.536 15.9329C112.395 16.3482 112.547 17.2021 111.787 17.8923C110.145 19.4072 110.145 19.4072 110.08 22.1212Z" fill="white"/>
<path d="M323 7.51607C321.889 10.9495 320.855 14.3127 319.691 17.635C319.346 18.6118 318.072 18.5942 317.505 17.6935C317.329 17.4127 317.172 17.0618 317.177 16.7401C317.224 13.1078 317.16 9.46966 317.435 5.85493C317.587 3.87794 320.101 2.8836 321.474 4.20549C322.246 4.95417 322.457 6.28191 323 7.51607Z" fill="white"/>
<path d="M222.544 2.05302C222.79 2.19924 223.065 2.31038 223.287 2.4917C223.772 2.89528 224.275 3.29887 224.684 3.77265C227.976 7.5453 231.828 10.6278 236.09 13.2423C236.891 13.7336 237.622 14.4589 238.154 15.2368C238.429 15.6346 238.195 16.3833 238.189 16.9682C237.651 16.9506 236.967 17.1495 236.605 16.8921C231.396 13.1721 225.772 9.93173 221.977 4.55058C221.668 4.11189 221.568 3.43925 221.574 2.88359C221.58 2.4917 221.942 2.10566 222.141 1.71962C222.281 1.83075 222.416 1.94188 222.544 2.05302Z" fill="white"/>
<path d="M146.994 11.4232C147.239 10.4698 147.444 9.49885 147.736 8.55715C148.508 6.0596 149.297 3.57374 150.133 1.09958C150.268 0.701845 150.671 0.397692 150.946 0.052597C151.203 0.450334 151.577 0.824675 151.694 1.26336C151.875 1.9477 151.881 2.68468 151.992 3.66147C153.202 3.38072 154.266 3.14676 155.325 2.8777C156.921 2.47411 158.499 1.98279 160.107 1.65524C161.048 1.46222 162.1 1.62015 162.358 2.73147C162.632 3.91884 161.609 4.34582 160.715 4.57978C157.85 5.31676 154.98 6.05375 152.074 6.60941C151.133 6.79073 150.612 7.14167 150.203 7.92545C149.753 8.78526 149.28 9.63923 148.742 10.4406C148.42 10.9202 147.941 11.3004 147.537 11.7273C147.356 11.6221 147.175 11.5226 146.994 11.4232Z" fill="white"/>
<path d="M70.2268 18.7463C70.6828 18.565 71.1447 18.2082 71.5539 18.2667C72.121 18.3427 72.7232 18.641 73.1441 19.027C73.2961 19.1674 73.109 20.0623 72.8401 20.2261C70.5776 21.6065 68.2683 22.9167 65.9357 24.1801C65.6902 24.3146 65.1932 23.9812 64.8132 23.8584C64.9828 23.5425 65.088 23.1448 65.3394 22.9167C65.9883 22.3318 66.7191 21.8463 67.3914 21.2848C68.1573 20.6414 68.4379 19.7348 67.8474 18.9569C67.5259 18.5299 66.684 18.4597 66.0585 18.3252C65.696 18.2433 65.2692 18.4421 64.9068 18.3603C64.5852 18.2901 64.1117 18.0503 64.0532 17.8046C63.9714 17.4536 64.1234 16.9623 64.3455 16.664C64.556 16.3833 64.9828 16.2195 65.3394 16.1025C66.38 15.7574 67.0465 15.1608 67.3505 14.0319C67.6194 13.0317 68.2099 12.7159 69.157 13.5991C69.5253 13.9442 70.3028 13.8097 70.8582 14.0027C71.4078 14.1957 71.9105 14.5291 72.4367 14.7982C72.1386 15.2602 71.9339 15.8276 71.5247 16.161C70.0047 17.3893 69.9813 17.3601 70.2268 18.7463Z" fill="white"/>
<path d="M289.115 6.87272C289.115 7.61555 289.221 8.37593 289.098 9.10122C288.361 13.3535 287.572 17.5999 286.794 21.8464C286.549 23.1799 286.426 24.5486 286.005 25.8237C285.824 26.3677 285.023 26.7069 284.503 27.1398C284.14 26.5373 283.573 25.9641 283.462 25.3149C283.333 24.5896 283.556 23.7707 283.737 23.022C284.696 19.068 285.643 15.1082 286.701 11.1776C287.104 9.66273 287.788 8.2297 288.344 6.75574C288.601 6.79668 288.858 6.83763 289.115 6.87272Z" fill="white"/>
<path d="M211.945 18.8165C211.285 18.4246 210.641 18.255 210.472 17.8748C210.308 17.5063 210.472 16.7225 210.776 16.4593C213.494 14.1314 216.277 11.8736 219.048 9.61005C219.23 9.46382 219.487 9.31759 219.703 9.32344C220.294 9.32929 220.884 9.41703 221.475 9.47552C221.206 9.97854 221.03 10.5693 220.644 10.967C218.861 12.8153 217.066 14.6578 215.184 16.4008C214.219 17.3016 213.062 17.9976 211.945 18.8165Z" fill="white"/>
<path d="M18.0317 5.90171C19.3588 6.07133 20.9022 6.25265 22.4339 6.46907C22.9601 6.5451 23.533 6.5919 23.9773 6.84341C24.3807 7.07152 24.6321 7.55699 24.9478 7.93133C24.4918 8.19454 24.0007 8.72096 23.5856 8.67416C22.1007 8.49284 20.6216 8.1653 19.1659 7.79096C16.3305 7.07152 16.3655 7.05982 14.7227 9.45794C14.1907 10.2359 13.7523 11.6747 12.5012 10.9846C11.2793 10.3119 12.1621 9.14794 12.6064 8.32322C13.2437 7.13001 13.9569 5.9485 14.8397 4.93661C15.3074 4.39849 16.1901 4.0183 16.9034 3.99491C17.2132 3.98321 17.5523 5.05359 18.0317 5.90171Z" fill="white"/>
<path d="M258.704 8.07173C258.481 8.92569 258.253 9.78551 258.002 10.7448C259.241 10.7448 260.381 10.7272 261.516 10.7506C262.819 10.7799 264.152 10.7097 265.421 10.9495C265.924 11.0431 266.292 11.8619 266.725 12.3533C266.193 12.634 265.649 13.1721 265.129 13.1429C262.755 13.0259 260.393 12.7744 258.031 12.5229C256.938 12.4059 256.178 12.7627 255.576 13.6868C255.307 14.1021 254.857 14.5116 254.401 14.6753C253.664 14.9385 253.132 14.4531 253.465 13.7687C254.605 11.4174 256.225 9.42286 258.224 7.77342C258.382 7.87871 258.54 7.97229 258.704 8.07173Z" fill="white"/>
<path d="M256.991 0C257.517 0.356793 258.195 0.608301 258.522 1.09377C258.955 1.73717 259.306 1.98283 260.136 1.94774C260.978 1.91264 262.223 2.07642 262.574 2.61453C262.942 3.18189 262.527 4.32246 262.322 5.17643C262.2 5.6736 261.896 6.20001 261.516 6.54511C261.147 6.88435 260.58 7.01888 260.101 7.24115C260.054 6.74983 259.925 6.25266 259.978 5.77888C260.019 5.36945 260.264 4.98341 260.416 4.58567C260.329 4.45114 260.235 4.32246 260.148 4.18793C259.446 4.56812 258.657 4.84303 258.066 5.3519C257.312 5.99529 256.587 6.02454 256.061 5.3168C255.827 5.00095 256.131 4.27567 256.231 3.73756C256.441 2.64963 256.675 1.56755 256.991 0Z" fill="white"/>
<path d="M296.429 23.7823C297.634 23.987 298.54 23.9695 299.276 24.3087C301.153 25.1744 302.971 26.1746 304.772 27.1923C305.21 27.438 305.579 27.9059 305.842 28.3505C306.374 29.2454 305.982 29.8303 304.918 29.8303C304.725 29.8303 304.497 29.842 304.351 29.7484C301.866 28.1808 299.382 26.6074 296.92 25.0048C296.739 24.882 296.716 24.5135 296.429 23.7823Z" fill="white"/>
<path d="M117.681 20.9865C114.933 18.1731 114.933 18.1731 115.939 16.8922C117.517 17.2606 119.259 17.6467 119.733 19.3956C120.201 21.1152 118.645 22.0744 117.57 23.0805C116.909 23.7005 116.085 24.1859 115.255 24.5544C114.88 24.7241 114.313 24.4608 113.828 24.3907C114.039 23.9754 114.15 23.4256 114.483 23.1682C115.488 22.3903 116.582 21.7293 117.681 20.9865Z" fill="white"/>
<path d="M127.672 6.94873C127.795 5.69117 127.83 4.41607 128.081 3.18777C128.175 2.74324 128.777 2.39814 129.145 2.00626C129.467 2.40984 130.016 2.78418 130.075 3.22286C130.314 5.14721 130.472 7.08911 130.537 9.02515C130.566 9.94346 130.396 11.0431 129.133 11.0138C127.9 10.9904 127.783 9.95515 127.754 8.99005C127.73 8.31156 127.748 7.62722 127.748 6.94873C127.719 6.95458 127.695 6.94873 127.672 6.94873Z" fill="white"/>
<path d="M21.6095 13.9384C21.6387 14.4531 21.7615 14.8099 21.668 15.1024C20.8203 17.6818 19.4172 19.9278 17.3535 21.706C17.0378 21.975 16.1374 22.0803 15.9679 21.8756C15.6697 21.5188 15.471 20.6648 15.6931 20.3724C17.3067 18.255 19.0255 16.2254 20.7384 14.184C20.8553 14.0437 21.1652 14.0554 21.6095 13.9384Z" fill="white"/>
<path d="M12.9337 19.7289C12.9337 18.9393 12.7583 18.3485 12.963 17.9625C14.1614 15.658 15.4301 13.3885 16.7396 11.1425C16.9033 10.8617 17.447 10.7974 17.8153 10.6336C17.9264 10.9787 18.1953 11.3648 18.1252 11.6689C17.4529 14.4882 16.2368 17.0325 14.1848 19.1265C13.9627 19.337 13.5944 19.4131 12.9337 19.7289Z" fill="white"/>
<path d="M276.71 26.2974C276.505 26.1278 275.856 25.8412 275.727 25.4025C275.605 24.9814 275.874 24.1508 276.23 23.9403C277.815 23.0103 279.475 22.2089 281.147 21.4427C281.463 21.3023 282.041 21.431 282.328 21.6591C282.538 21.8229 282.608 22.3844 282.509 22.7002C282.182 23.7706 278.195 26.3559 276.71 26.2974Z" fill="white"/>
<path d="M287.642 6.3521C287.169 5.98361 286.59 5.74964 286.531 5.42209C286.444 4.91907 286.543 4.03586 286.859 3.86624C288.543 2.95963 290.238 1.86585 292.302 2.34548C292.728 2.44491 293.307 2.88945 293.366 3.25794C293.436 3.64982 293.091 4.39265 292.74 4.53888C291.097 5.21737 289.396 5.74379 287.642 6.3521Z" fill="white"/>
<path d="M296.102 8.51622C295.734 8.84961 295.406 9.27075 294.98 9.49886C293.927 10.0662 292.863 10.6511 291.729 11.0138C291.267 11.16 290.478 10.9085 290.121 10.5517C289.823 10.2534 289.724 9.44622 289.911 9.03093C290.478 7.77338 293.594 6.61527 294.927 7.08904C295.465 7.28206 295.95 7.62131 296.459 7.89037C296.342 8.10093 296.219 8.30565 296.102 8.51622Z" fill="white"/>
<path d="M319.714 25.4961C319.697 25.8003 319.697 26.046 319.662 26.2799C319.422 27.8826 318.697 28.7482 317.61 28.6313C315.973 28.4558 316.265 27.1456 316.218 26.0752C316.195 25.5956 316.242 25.1101 316.318 24.6363C316.476 23.7063 316.85 22.981 317.984 23.022C319.071 23.0629 319.469 23.7765 319.656 24.689C319.72 24.9697 319.697 25.268 319.714 25.4961Z" fill="white"/>
<path d="M247.023 13.5582C246.444 13.0902 245.9 12.8563 245.766 12.4702C245.678 12.2187 246.099 11.6046 246.438 11.4233C247.8 10.6921 249.203 10.0253 250.641 9.44627C251.016 9.2942 251.553 9.5574 252.015 9.63344C251.875 10.0487 251.857 10.657 251.565 10.85C250.133 11.7859 248.624 12.6165 247.023 13.5582Z" fill="white"/>
<path d="M249.525 6.00113C249.899 6.26434 250.665 6.51585 250.893 7.01887C251.314 7.94888 250.448 8.19454 249.747 8.4519C249.25 8.63322 248.788 9.11284 248.32 9.10115C247.695 9.0836 246.83 8.90227 246.508 8.46359C245.994 7.75001 246.374 6.93699 247.21 6.58019C247.829 6.32868 248.513 6.24679 249.525 6.00113Z" fill="white"/>
<path d="M278.358 19.4715C278.107 19.4423 277.704 19.5008 277.458 19.337C277.072 19.0797 276.523 18.6351 276.546 18.3193C276.581 17.9449 277.113 17.4068 277.511 17.3191C278.189 17.1729 278.966 17.2138 279.639 17.401C280.06 17.518 280.364 18.0444 280.72 18.3895C280.346 18.6936 280.001 19.068 279.58 19.2785C279.253 19.4481 278.826 19.4072 278.358 19.4715Z" fill="white"/>
<path d="M278.633 13.9033C277.774 13.4997 277.043 13.2014 276.377 12.7978C276.265 12.7276 276.388 11.9497 276.464 11.938C277.248 11.8327 278.084 11.6631 278.826 11.8269C279.364 11.9439 279.797 12.5463 280.282 12.9324C279.756 13.2482 279.229 13.5524 278.633 13.9033Z" fill="white"/>
</svg>
