<svg width="1058" height="252" viewBox="0 0 1058 252" fill="none" xmlns="http://www.w3.org/2000/svg">
<g filter="url(#filter0_d_909_7827)">
<path d="M112.784 44.8316C111.01 45.2076 109.582 45.4934 108.184 45.8243C106.726 46.1703 105.207 47.0427 103.854 46.802C102.351 46.5313 100.577 45.5686 99.8102 44.3503C99.4343 43.7487 100.772 41.312 101.885 40.7104C104.831 39.116 108.079 38.0631 111.206 36.8298C113.326 35.9875 115.054 34.9346 113.446 31.3398C112.814 32.3776 112.393 33.7012 111.491 34.363C110.529 35.07 108.8 35.7468 107.974 35.3257C107.056 34.8443 106.425 33.1447 106.35 31.9264C106.275 30.7983 106.756 29.219 107.568 28.5271C112.484 24.3156 117.309 19.9537 122.662 16.3739C125.999 14.1478 129.788 16.1784 130.945 20.5704C126.54 18.6601 124.496 21.8639 121.775 23.9847C117.67 27.2035 121.88 30.3621 121.023 34.6338C125.683 33.611 129.772 32.8439 133.741 31.6857C134.328 31.5203 134.899 29.2491 134.553 28.2864C133.501 25.3233 134.749 23.8192 137.365 23.4282C140.296 22.9769 140.522 25.0075 140.281 27.2937C140.191 28.0909 140.597 28.9482 140.867 30.1515C143.318 29.595 145.588 28.6625 147.843 28.6925C149.331 28.7076 150.805 30.0914 152.293 30.8585C151.211 32.0016 150.294 33.4305 149.001 34.2126C147.678 35.0098 145.979 35.1752 144.024 35.7318C145.543 38.3339 146.911 40.6803 148.58 43.523C150.038 41.7482 151.196 40.3644 152.338 38.9656C153.917 37.0403 155.36 34.9496 157.119 33.2049C158.863 31.4601 160.983 31.3999 162.727 33.3402C164.35 35.1301 163.929 36.8599 162.396 38.6648C160.622 40.7405 159.239 43.1621 157.465 45.2528C152.398 51.209 153.3 57.0299 157.645 62.8508C160.411 66.5509 163.193 70.2511 165.974 73.9512C167.101 75.4553 168.379 76.8541 169.266 78.4936C169.717 79.3208 169.837 80.87 169.341 81.4867C168.815 82.1485 167.086 82.6449 166.425 82.2689C163.974 80.8851 161.268 79.5164 159.569 77.4106C156.698 73.8308 154.518 69.6945 152.053 65.7688C151.196 64.4001 150.399 63.0013 148.008 60.3691C147.347 61.6927 146.836 63.1366 145.979 64.3249C144.521 66.3554 143.122 68.5815 141.183 70.0555C139.755 71.1385 137.5 71.1686 135.621 71.6649C135.455 69.8149 134.704 67.7843 135.26 66.1749C136.177 63.4976 137.47 60.6699 139.394 58.6845C145.077 52.8184 144.16 47.2683 140.071 40.9961C138.101 37.9729 136.327 36.7245 132.884 38.018C131.02 38.7099 129.006 38.9957 127.081 39.5071C121.173 41.0714 120.346 42.5454 121.88 49.4492C123.143 48.8326 124.33 48.3212 125.458 47.7045C127.427 46.6215 129.276 45.2528 131.336 44.4255C132.328 44.0344 133.711 44.606 134.914 44.7414C134.568 45.8845 134.568 47.4638 133.802 48.0805C131.08 50.2615 128.134 52.1867 125.187 54.0668C122.677 55.6612 121.744 57.8572 121.038 60.7601C119.76 66.0546 117.941 71.2738 115.671 76.2224C114.904 77.907 112.138 79.4111 110.183 79.5314C109.116 79.6066 107.357 76.7939 106.771 74.989C105.192 70.1758 106.079 65.6184 109.402 61.6325C113.431 56.7742 113.265 51.0887 112.784 44.8316ZM110.379 74.2369C110.86 74.3121 111.356 74.3723 111.837 74.4475C112.153 71.7702 112.484 69.0778 112.799 66.4005C112.363 66.3404 111.912 66.2952 111.476 66.2351C108.951 68.5815 109.312 71.3641 110.379 74.2369Z" fill="white"/>
<path d="M431.786 197.123C433.019 197.303 433.951 197.228 434.672 197.589C435.875 198.206 437.709 198.973 437.844 199.89C438.01 201.018 436.897 202.522 435.995 203.575C435.409 204.252 434.251 204.718 433.319 204.794C428.072 205.185 425.787 208.719 423.577 212.901C421.262 217.308 418.361 221.429 415.489 225.52C414.302 227.22 412.633 228.679 410.949 229.927C409.085 231.311 407.01 231.612 405.311 229.461C403.477 227.115 404.89 225.625 406.664 224.136C412.362 219.368 415.79 213.021 419.548 205.907C416.466 205.094 413.881 204.433 411.31 203.741C407.461 202.688 403.522 201.845 399.794 200.477C395.389 198.867 394.231 196.686 395.118 192.039C395.645 189.301 394.547 188.624 392.187 188.775C389.195 188.97 386.188 189.256 383.197 189.301C381.468 189.316 379.604 189.211 378.055 188.564C377.048 188.143 375.995 186.699 375.92 185.631C375.86 184.864 377.243 183.39 378.16 183.24C380.972 182.743 383.933 182.232 386.699 182.638C395.299 183.917 401.463 181.45 404.8 172.891C406.153 169.432 408.017 166.048 410.272 163.13C411.61 161.385 414.076 159.806 416.226 159.52C426.313 158.211 433.455 163.416 435.424 173.373C436.04 176.456 437.168 177.374 440.355 177.103C446.203 176.622 452.096 176.682 457.975 176.622C459.192 176.607 460.56 176.772 461.598 177.344C462.545 177.855 463.883 179.224 463.717 179.885C463.447 180.938 462.199 182.292 461.177 182.473C458.125 183.029 454.968 183.164 451.856 183.285C447.977 183.435 444.098 183.375 440.22 183.42C437.108 183.465 435.063 184.714 434.372 188.023C433.77 190.911 432.763 193.753 431.786 197.123ZM406.815 180.111C415.715 181.089 416.151 180.668 415.188 173.252C414.647 169.056 417.233 167.01 421.127 168.68C423.818 169.838 425.261 171.733 424.464 174.937C424.239 175.839 424.78 177.765 425.201 177.825C426.434 178.02 427.967 177.84 429.02 177.193C429.591 176.847 429.741 175.208 429.531 174.275C429.14 172.591 428.508 170.906 427.651 169.402C425.156 164.98 417.744 162.994 415.249 166.333C412.167 170.485 409.806 175.163 406.815 180.111ZM416.226 185.962C411.325 185.962 407.055 185.571 403.522 187.978C402.049 188.985 400.41 192.475 400.967 193.197C402.305 194.927 404.785 196.175 407.025 196.671C408.393 196.972 410.754 195.979 411.625 194.806C413.399 192.385 414.482 189.437 416.226 185.962ZM429.095 185.075C424.555 183.751 421.307 184.744 420.691 187.436C419.954 190.67 419.548 193.994 418.797 198.416C421.097 197.529 423.442 197.363 424.104 196.22C426.103 192.716 427.456 188.85 429.095 185.075Z" fill="white"/>
<path d="M825.084 54.7287C828.226 58.6845 831.188 62.3244 834.044 66.0395C835.593 68.055 835.983 70.3413 833.668 71.9657C831.173 73.7105 829.038 72.3117 827.61 70.2059C826.151 68.055 825.114 65.6033 823.851 63.3021C823.085 61.9333 822.228 60.6247 820.814 58.3385C817.492 64.7761 814.575 70.4015 811.704 76.0419C811.073 77.2602 810.847 78.8545 809.915 79.7119C808.772 80.7497 807.089 81.1709 805.63 81.8477C805.194 80.4339 804.052 78.7493 804.473 77.6513C806.412 72.5373 808.772 67.5737 811.027 62.5651C811.418 61.6776 812.05 60.9105 812.11 59.3011C809.915 60.2487 807.75 61.2565 805.54 62.1439C804.277 62.6553 802.894 63.3622 801.616 63.2569C800.233 63.1366 797.858 62.2793 797.798 61.5723C797.662 60.1886 798.444 57.9625 799.557 57.3458C803.36 55.225 807.495 53.7059 811.463 51.8408C814.139 50.5773 816.74 49.1334 819.356 47.7797C819.236 47.3284 819.116 46.8922 818.98 46.441C817.312 46.8622 815.417 46.9073 814.019 47.7646C810.321 50.0057 808.246 49.4643 807.585 45.0422C806.833 39.9884 806.638 34.8443 806.517 29.7304C806.442 26.5868 806.517 23.9696 802.128 24.3156C801.271 24.3908 799.632 22.8416 799.512 21.8789C799.376 20.8712 800.399 19.352 801.346 18.6902C802.518 17.863 804.127 17.6674 805.555 17.2162C808.487 16.2836 811.869 15.9678 812.275 11.7713C812.305 11.5156 815.102 11.0193 815.297 11.3652C817.522 15.3361 819.897 13.7718 822.288 11.7262C825.4 9.06393 826.813 9.37979 827.895 13.3807C828.331 15.0202 828.256 16.8402 828.226 18.5699C828.106 25.9551 827.88 33.3252 827.835 40.7104C827.835 41.7482 828.376 43.1621 829.158 43.7787C831.744 45.8544 832.105 47.8699 829.714 50.472C828.211 52.1265 826.437 53.4953 825.084 54.7287ZM818.875 29.4897C821.807 30.1214 822.814 28.6925 822.603 25.8047C822.438 23.6237 822.664 21.2171 819.326 21.8037C816.981 22.2098 813.794 21.3675 813.854 25.5941C813.929 29.1438 815.853 29.8206 818.875 29.4897ZM818.409 42.3498C820.258 40.214 821.356 38.9355 822.453 37.657C821.491 36.8448 820.439 35.2805 819.582 35.3858C817.702 35.6114 815.929 36.6794 814.109 37.4013C815.282 38.755 816.455 40.1087 818.409 42.3498Z" fill="white"/>
<path d="M213.916 166.98C217.615 165.717 218.712 162.919 219.584 159.836C219.915 158.693 220.802 157.715 221.433 156.662C222.32 157.504 223.132 158.437 224.124 159.144C224.966 159.761 225.989 160.498 226.951 160.513C229.191 160.573 231.446 160.001 233.671 160.122C237.384 160.317 239.624 163.295 238.121 166.604C236.332 170.545 233.896 174.245 231.28 177.705C230.574 178.637 228.199 178.306 226.59 178.562C226.545 177.103 226.064 175.478 226.53 174.215C227.281 172.199 228.665 170.425 230.018 168.153C226.605 167.702 224.861 168.635 224.455 171.553C224.064 174.395 223.944 177.329 223.147 180.066C222.741 181.465 221.118 182.518 220.035 183.721C218.953 182.397 217.314 181.224 216.938 179.72C216.397 177.644 216.803 175.328 216.803 173.117C216.457 172.861 216.111 172.621 215.766 172.365C214.803 173.388 213.044 174.395 213.029 175.448C212.939 180.803 213.014 186.203 213.571 191.542C214.037 196.04 217.074 198.582 221.508 199.319C230.559 200.838 239.519 199.83 248.269 197.574C250.283 197.047 252.734 194.716 253.305 192.731C254.883 187.256 255.62 181.54 256.582 175.915C256.943 173.839 256.763 171.643 257.274 169.627C257.529 168.65 258.837 167.296 259.664 167.311C260.506 167.326 261.934 168.695 262.055 169.627C262.46 172.44 262.806 175.403 262.37 178.186C261.438 184.082 260.461 190.038 258.567 195.679C257.62 198.491 255.139 201.545 252.523 202.913C242.255 208.283 231.16 209.953 219.78 207.561C211.902 205.907 207.061 200.687 206.054 192.595C205.467 187.902 205.693 183.104 205.287 178.366C205.167 177.013 204.385 175.418 203.393 174.501C201.95 173.177 201.769 172.139 203.558 171.508C206.249 170.56 206.625 168.529 206.805 166.183C206.896 164.935 206.851 163.626 207.256 162.468C207.662 161.31 208.564 160.317 209.241 159.249C210.323 160.257 211.691 161.114 212.428 162.333C213.21 163.626 213.405 165.296 213.916 166.98Z" fill="white"/>
<path d="M863.45 44.1548C859.722 43.9291 856.865 43.7487 853.513 43.5531C853.348 45.2076 853.167 46.8622 853.032 48.5317C852.581 54.2473 852.325 59.993 851.559 65.6786C851.378 67.0623 849.484 68.2055 848.386 69.4689C847.62 67.9648 846.146 66.4156 846.191 64.9415C846.763 50.2163 847.484 35.4911 848.356 20.7809C848.822 12.8994 854.4 9.03384 860.895 6.38661C864.142 5.06299 866.322 7.4094 867.179 10.1619C868.291 13.7116 869.163 17.4568 869.328 21.1419C870.08 38.003 870.681 54.8791 870.982 71.7551C871.057 75.6809 870.125 79.7119 869.058 83.5323C867.975 87.428 864.683 89.1126 861.24 87.9995C860.308 87.6987 859.151 86.7962 858.94 85.9539C858.745 85.1868 859.647 84.1039 860.173 83.2315C861.225 81.5018 863.255 79.8473 863.285 78.1175C863.586 66.8818 863.45 55.6462 863.45 44.1548ZM859.526 30.0613C854.43 30.4072 853.588 31.2495 853.769 35.085C853.919 37.9879 856.024 38.1534 857.993 38.1383C861.767 38.1082 863.074 36.4236 863.074 32.8589C863.074 29.8657 861.556 29.5499 859.526 30.0613ZM864.142 20.5854C863.104 17.4719 863.39 14.4637 859.932 14.7043C857.752 14.8547 855.046 15.1556 855.242 18.7353C855.452 22.5558 856.399 23.729 860.699 23.368C861.917 23.2627 862.999 21.5631 864.142 20.5854Z" fill="white"/>
<path d="M382.084 16.1934C383.648 16.4341 386.354 16.1633 386.85 17.0808C388.248 19.6679 385.121 20.3297 383.858 21.8489C382.911 22.992 382.31 24.4058 381.077 26.5417C383.001 26.3161 383.798 26.1356 384.58 26.1356C386.083 26.1356 387.571 26.2559 389.075 26.3161C388.579 27.7299 388.504 29.7154 387.511 30.4524C383.437 33.4455 384.625 37.3713 384.79 41.8535C386.143 40.6803 386.94 39.5823 387.977 39.2063C389.541 38.6498 391.886 37.7924 392.818 38.4993C394.908 40.0636 393.54 42.1242 392.067 43.5983C390.308 45.3581 388.549 47.2533 386.459 48.5618C383.332 50.5322 383.542 53.5555 384.144 56.1726C384.444 57.4812 386.895 58.6243 388.579 59.241C402.169 64.2196 415.82 69.0478 429.44 73.9512C430.147 74.2069 430.794 74.613 431.47 74.9288C433.966 76.102 435.259 78.0424 434.131 80.6745C433.034 83.2165 430.748 82.9006 428.644 82.0132C412.708 75.2447 396.637 68.6868 380.821 61.5724C371.951 57.5714 372.147 57.1503 366.765 65.468C366.013 66.6262 365.337 67.9498 364.269 68.7169C363.217 69.4689 361.728 69.6193 360.436 70.0405C360.315 68.777 359.714 67.2729 360.18 66.2802C361.969 62.4447 363.968 58.6845 366.133 55.0295C367.787 52.2469 369.666 49.5545 371.726 47.0577C372.402 46.2305 373.921 46.0951 375.063 45.6439C375.259 46.9223 375.605 48.2008 375.62 49.4793C375.635 50.7127 375.334 51.9461 375.574 53.2246C377.905 51.2542 379.273 43.6283 378.837 37.1005C377.078 38.0631 375.605 39.2364 373.936 39.6725C372.478 40.0486 370.794 39.5973 369.215 39.5221C369.771 38.3038 370.117 36.8749 370.959 35.8972C372.087 34.5887 373.981 33.8516 374.853 32.4528C375.875 30.8133 376.131 28.6926 376.717 26.7823C375.409 26.4815 374.071 26.286 372.823 25.8348C371.801 25.4587 370.884 24.7668 369.922 24.2254C370.658 23.2477 371.23 21.6383 372.162 21.4127C374.582 20.8261 376.146 19.9838 376.717 17.2613C377.078 15.5617 378.446 14.0726 379.363 12.4783C380.28 13.7267 381.227 15.0052 382.084 16.1934Z" fill="white"/>
<path d="M26.265 54.4128C25.5284 55.6311 24.7616 56.8344 24.0851 58.0828C22.717 60.6097 21.4993 63.2269 20.0711 65.7087C18.8684 67.7994 16.9441 69.514 14.5537 68.3408C12.013 67.0924 12.1934 64.4001 13.1556 62.0687C13.9524 60.1134 14.9596 58.2182 16.0721 56.4133C19.3044 51.194 22.6419 46.065 25.9042 40.8758C26.6709 39.6575 27.2873 38.3339 28.4599 36.183C25.9343 36.4387 24.3106 36.6794 22.687 36.7546C21.3189 36.8298 19.8757 36.9802 18.6128 36.6042C17.6807 36.3334 16.478 35.3407 16.3427 34.5134C16.2225 33.8065 17.2899 32.5431 18.1317 32.1219C20.5822 30.8735 23.2733 30.1214 25.6637 28.7828C26.7762 28.1661 27.8887 26.7522 28.1142 25.5339C28.5201 23.383 27.588 22.0293 25.1074 23.353C24.6714 23.5936 24.1904 24.0599 23.7844 23.9997C21.815 23.729 19.8456 23.3078 17.8912 22.9469C18.3121 20.9013 18.1317 18.3894 19.2743 16.9003C21.7699 13.6665 33.1655 11.651 37.0142 13.2454C39.9758 14.4787 40.3967 17.2463 37.9312 19.4122C37.375 19.9086 36.6834 20.2695 36.1572 20.796C34.4584 22.5107 34.4434 23.8493 37.1044 24.4209C37.841 24.5713 38.6829 24.4359 39.3143 24.7518C40.3366 25.2782 41.7799 25.94 41.9753 26.7974C42.1858 27.6998 41.419 29.1739 40.6373 29.9259C39.0738 31.4451 36.052 32.3776 35.6761 34.0321C34.8944 37.4615 35.4356 41.1917 35.4356 45.1776C39.1189 45.4483 42.8322 45.6138 46.5155 46.0048C48.6052 46.2304 50.77 46.5313 52.6793 47.3284C53.7016 47.7496 54.9494 49.4041 54.8141 50.3367C54.6488 51.4948 53.2957 53.2697 52.2734 53.39C49.8831 53.6758 47.3724 53.3449 44.967 52.8937C43.0277 52.5327 41.2086 51.54 39.2843 51.0286C35.4506 50.0208 34.7892 50.472 34.6238 54.3827C34.3682 60.5195 34.2329 66.6412 34.0074 72.778C33.9623 74.1467 34.0525 75.6658 33.4812 76.824C32.8799 78.0423 31.5569 78.9147 30.5346 79.9526C29.6626 78.8245 28.1292 77.7415 28.039 76.5533C27.588 70.3112 27.4978 64.0541 27.2873 57.797C27.2572 56.8043 27.1821 55.8116 27.137 54.834C26.8363 54.6835 26.5507 54.5482 26.265 54.4128Z" fill="white"/>
<path d="M666.418 206.899C664.403 207.005 663.11 207.14 661.802 207.125C659.427 207.11 657.833 206.147 658.345 203.485C659.803 195.769 661.291 188.068 662.9 180.382C663.847 175.809 672.702 170.771 677.092 172.47C678.46 172.997 680.144 174.817 680.234 176.14C680.79 184.202 681.166 192.294 681.046 200.356C681.016 202.793 681.136 204.132 683.346 205.44C688.623 208.554 693.809 211.893 697.132 217.323C697.853 218.496 698.815 219.654 699.041 220.933C699.267 222.211 699.131 224.166 698.334 224.828C697.553 225.46 695.313 225.31 694.456 224.618C690.968 221.79 687.781 218.586 684.458 215.563C682.233 213.547 680.023 211.532 677.678 209.667C675.513 207.952 673.844 208.328 672.161 210.795C669.064 215.322 665.636 219.639 662.223 223.941C661.231 225.189 659.983 226.453 658.585 227.099C657.383 227.641 655.789 227.31 654.361 227.355C654.496 225.986 654.15 224.302 654.827 223.324C657.879 218.902 661.231 214.691 664.418 210.374C665.035 209.501 665.486 208.524 666.418 206.899ZM664.779 200.883C668.432 198.491 673.604 198.928 675.213 193.528C666.448 192.475 664.524 193.768 664.779 200.883ZM667.019 180.999C667.275 181.45 667.545 181.901 667.801 182.352C669.815 181.931 671.89 181.69 673.799 180.984C674.536 180.713 674.882 179.389 675.393 178.547C674.581 178.216 673.559 177.389 673.018 177.644C670.928 178.562 669.004 179.84 667.019 180.999ZM675.829 189.527C674.175 185.857 669.68 186.067 666.899 189.527C669.845 189.527 672.627 189.527 675.829 189.527Z" fill="white"/>
<path d="M333.149 157.053C332.909 157.038 333.6 156.918 334.111 157.173C335.119 157.67 336.878 158.512 336.802 158.978C336.607 160.257 335.87 162.182 334.908 162.498C329.391 164.318 328.744 168.334 329.331 173.222C329.676 176.155 329.797 179.133 330.097 182.984C332.818 180.999 334.908 179.509 336.953 177.96C338.847 176.531 340.576 174.832 342.59 173.628C343.658 172.997 345.206 173.147 346.529 172.952C346.499 174.335 346.95 176.02 346.334 177.058C344.635 179.931 342.485 182.533 340.35 185.466C344.936 189.121 349.476 192.625 353.866 196.295C355.565 197.724 357.444 199.334 358.286 201.274C358.932 202.748 358.09 204.869 357.91 206.704C356.437 206.538 354.602 206.869 353.565 206.117C349.326 203.034 345.357 199.589 341.222 196.355C338.772 194.43 336.336 192.415 333.66 190.865C330.173 188.835 329.03 189.632 328.85 193.648C328.519 201.394 328.218 209.125 327.782 216.872C327.692 218.466 327.316 220.135 326.67 221.579C326.234 222.557 325.061 223.219 324.234 224.016C323.437 223.023 322.325 222.136 321.934 220.993C321.513 219.744 321.709 218.27 321.769 216.902C322.37 202.161 323.016 187.406 323.573 172.666C323.798 166.725 323.723 166.815 317.89 166.83C316.417 166.83 314.613 166.439 313.605 165.521C312.944 164.92 313.004 162.769 313.575 161.806C314.117 160.874 315.8 159.941 316.868 160.061C321.212 160.528 324.445 159.565 326.294 155.173C326.67 154.286 328.684 153.323 329.571 153.609C330.789 153.97 331.646 155.504 333.149 157.053Z" fill="white"/>
<path d="M638.214 15.6068C637.763 16.5694 637.312 17.5321 636.711 18.8256C639.131 18.5699 641.311 18.1337 643.476 18.1788C644.514 18.2089 646.167 18.9459 646.408 19.713C646.663 20.5704 645.912 22.2399 645.085 22.8115C642.709 24.4058 640.049 25.549 637.583 27.023C636.726 27.5344 635.493 28.4519 635.493 29.1889C635.478 33.7614 635.779 38.3339 635.989 43.3726C641.356 42.41 644.333 39.4018 647.22 36.1078C648.062 35.1452 649.475 34.6939 650.617 34.0171C650.993 35.3407 651.955 36.8298 651.64 37.9428C650.903 40.5299 649.55 42.9364 648.317 45.6739C650.422 47.6744 652.752 49.9155 655.082 52.1416C654.857 52.5026 654.631 52.8636 654.406 53.2245C648.077 54.5632 643.672 48.2159 636.741 48.4565C636.741 50.472 636.816 52.5176 636.726 54.5482C636.501 59.6621 636.546 64.8212 635.764 69.8449C635.508 71.5295 633.343 73.6203 631.584 74.2369C628.833 75.2146 627.766 72.5824 626.969 70.4466C625.721 67.1075 624.579 63.7232 623.406 60.3841C622.73 60.6097 622.609 60.6398 622.504 60.6849C620.941 61.4219 619.783 64.746 617.693 62.2041C615.739 59.8426 618.129 58.1129 619.783 56.6689C621.331 55.3153 623.06 54.1571 624.699 52.9087C624.609 52.5477 624.519 52.1717 624.443 51.8107C622.805 51.8107 621.076 52.1265 619.557 51.7054C618.355 51.3745 617.393 50.1411 616.325 49.2988C617.167 48.2309 617.798 46.7569 618.896 46.2154C620.294 45.5386 622.083 45.2979 623.662 45.4333C627.751 45.7943 628.833 43.4178 629.119 40.0636C629.239 38.6949 629.495 37.3412 629.705 35.9724C630.682 29.7454 630.682 29.8507 624.398 29.4446C623.196 29.3694 621.031 28.1059 621.076 27.5193C621.181 26.0604 622.023 24.3757 623.105 23.3379C623.992 22.4806 625.616 22.2098 626.954 22.0594C630.216 21.6834 632.456 20.1191 634.08 17.2613C634.727 16.1182 636.17 15.4263 637.252 14.5389C637.583 14.8698 637.899 15.2308 638.214 15.6068ZM628.036 55.0144C624.804 58.2934 624.955 59.2861 628.533 62.55C628.367 60.0382 628.232 57.9775 628.036 55.0144Z" fill="white"/>
<path d="M258.101 34.709C255.004 36.8899 251.922 39.101 248.795 41.2368C247.848 41.8836 246.705 42.786 245.743 42.6958C245.036 42.6206 243.939 41.1014 243.924 40.229C243.849 32.9792 243.578 25.6994 244.315 18.5248C244.555 16.2385 247.457 14.0125 249.562 12.2376C250.779 11.2148 252.794 10.9441 254.493 10.6733C263.393 9.27451 263.934 10.2071 264.204 18.991C264.595 32.2422 265.587 45.4784 266.58 58.6845C267.226 67.1827 266.986 75.4402 262.746 83.1262C262.506 83.5624 262.34 84.0437 262.07 84.4649C260.476 86.8865 258.732 90.1053 255.47 88.541C252.568 87.1422 254.432 83.9986 255.289 81.8628C259.634 71.1234 259.138 59.7825 259.709 48.5768C259.935 44.2601 259.379 39.8981 259.183 35.5663C258.837 35.2956 258.461 34.9948 258.101 34.709ZM248.359 23.3981C252.177 22.4505 254.763 21.9993 257.169 21.0968C258.056 20.7659 258.852 19.4573 259.108 18.4345C259.288 17.7276 258.371 15.9828 258.161 16.028C255.304 16.5093 252.343 16.9003 249.727 18.0585C248.87 18.4345 248.93 20.9163 248.359 23.3981ZM250.403 33.5508C252.989 32.2122 255.38 31.2044 257.469 29.7605C258.266 29.2039 258.446 27.6397 258.642 26.4965C258.687 26.2559 257.59 25.579 256.973 25.5038C252.388 24.9624 249.366 28.4068 250.403 33.5508Z" fill="white"/>
<path d="M669.064 56.1125C666.824 58.2332 665.02 60.3992 662.765 61.8882C661.457 62.7456 659.412 62.4899 657.713 62.7456C657.623 61.0459 656.751 58.6694 657.548 57.767C661.592 53.1794 661.351 49.5395 656.39 45.8544C655.278 45.0272 655.082 42.9515 654.466 41.4474C654.857 41.0563 655.233 40.6653 655.624 40.2742C658.495 41.8836 661.381 43.508 664.99 45.5386C666.718 41.5828 668.402 37.7022 670.086 33.8216C669.815 33.6712 669.545 33.5208 669.274 33.3703C668.763 34.0923 668.387 34.9497 667.726 35.4911C666.748 36.2733 665.591 36.8298 664.508 37.4766C664.057 36.2733 662.99 34.9196 663.261 33.9118C664.433 29.6251 665.846 25.3986 667.53 21.2924C667.966 20.2244 669.695 19.683 670.823 18.9008C671.078 20.1492 671.334 21.3976 671.574 22.646C671.65 23.007 671.635 23.3831 671.695 24.0599C673.664 24.0599 675.618 23.9245 677.558 24.1201C678.445 24.2103 679.693 24.7217 679.978 25.3986C680.249 26.0152 679.723 27.4742 679.091 27.9104C676.024 30.0613 675.814 33.1146 675.453 36.4838C675.062 40.1388 674.1 43.8389 672.747 47.2533C671.619 50.096 671.905 52.0363 674.341 53.7059C680.534 57.9475 686.713 62.174 692.922 66.3855C695.719 68.2807 698.74 69.8751 701.281 72.056C702.273 72.8983 702.965 75.5606 702.379 76.4029C701.522 77.6362 699.297 78.6891 697.823 78.5086C695.703 78.2379 693.433 77.1549 691.75 75.7711C685.481 70.6421 679.407 65.2424 673.273 59.9479C671.815 58.5942 670.372 57.2706 669.064 56.1125Z" fill="white"/>
<path d="M753.568 28.873C752.381 27.5946 750.396 26.4514 750.156 25.0075C749.69 22.2098 751.915 20.6456 754.47 20.3447C758.665 19.8484 762.965 19.0963 767.084 19.5626C773.142 20.2695 776.089 24.6014 775.698 30.6479C775.172 38.5595 772.346 42.1844 764.739 44.0796C762.619 44.606 761.822 45.5536 761.777 47.5992C761.657 54.2323 761.702 60.8654 761.251 67.4835C760.86 73.1991 760.063 78.8997 759.041 84.5401C758.8 85.8487 756.966 86.8564 755.854 87.9995C755.162 86.6158 753.869 85.2169 753.884 83.8332C753.989 66.8217 754.275 49.8102 754.516 32.7837C754.531 31.3097 754.516 29.8357 754.516 28.3466C754.215 28.5271 753.899 28.6926 753.568 28.873ZM763.596 36.1228C763.927 36.1529 764.257 36.183 764.603 36.2131C765.37 34.1825 766.317 32.1971 766.828 30.0914C767.069 29.0836 766.798 27.1734 766.212 26.9177C765.114 26.4364 763.416 26.4665 762.363 27.038C761.702 27.399 761.386 29.1889 761.612 30.1967C762.017 32.2272 762.904 34.1525 763.596 36.1228Z" fill="white"/>
<path d="M586.649 198.506C583.822 202.537 581.612 206.162 578.921 209.366C575.809 213.081 572.291 216.465 568.849 219.88C567.901 220.812 566.609 221.609 565.346 221.955C564.323 222.226 563.091 221.715 561.948 221.549C562.129 220.527 562.038 219.323 562.549 218.511C563.271 217.383 564.399 216.511 565.421 215.578C574.892 206.899 583.792 192.971 585.987 183.149C583.792 182.879 581.567 182.788 579.462 182.247C578.62 182.036 578.034 180.818 577.343 180.051C578.094 179.389 578.786 178.231 579.613 178.126C586.032 177.283 592.467 176.381 598.916 176.11C600.66 176.035 603.592 177.72 604.103 179.239C606.989 187.662 606.749 196.04 601.021 203.38C599.773 204.974 597.413 206.102 595.368 206.568C591.986 207.351 589.189 206.283 588.257 202.372C587.987 201.289 587.4 200.311 586.649 198.506ZM598.946 180.728C596.165 182.112 593.098 182.608 592.241 184.262C589.896 188.76 592.241 193.001 594.391 197.649C598.961 192.806 599.172 187.526 598.946 180.728Z" fill="white"/>
<path d="M722.569 57.1352C724.358 54.4579 725.5 52.5477 726.823 50.7729C728.748 48.1708 731.288 47.8699 732.882 50.6225C735.302 54.8039 737.121 59.3613 738.91 63.8586C739.196 64.5806 738.114 66.7164 737.557 66.7465C735.859 66.8819 733.513 66.9119 732.476 65.8891C730.582 64.009 729.439 61.3618 727.74 58.6394C726.252 60.7451 724.809 62.8208 723.305 64.8664C721.922 66.7314 720.118 68.9124 717.833 67.4985C716.51 66.6863 715.593 63.9338 715.759 62.174C716.841 50.7127 718.164 39.2815 719.637 27.8653C720.269 22.9168 721.817 22.4656 725.846 25.0977C726.883 25.7746 728.597 25.7445 729.905 25.5339C730.281 25.4738 730.867 23.2176 730.446 22.616C729.71 21.5781 728.357 20.7208 727.094 20.3748C726.162 20.1191 724.974 20.9765 723.892 21.0517C722.749 21.1269 721.577 20.8411 720.419 20.7208C720.84 19.2768 720.855 16.9605 721.742 16.5544C725.576 14.8247 729.635 14.0726 733.543 16.6447C737.001 18.9309 736.716 22.3001 736.234 25.7295C735.934 27.8352 735.453 29.9259 735.287 32.0317C735.032 35.3858 733.258 37.627 730.401 39.0709C723.05 42.8011 722.133 44.0345 722.569 57.1352ZM725.2 36.1981C726.914 34.5435 728.627 32.874 730.882 30.7081C724.944 29.595 723.952 30.4824 725.2 36.1981Z" fill="white"/>
<path d="M765.22 196.927C762.619 199.875 759.973 202.778 757.447 205.786C755.688 207.892 754.32 210.359 752.351 212.209C751.509 213.006 749.584 212.66 748.141 212.84C748.216 211.547 747.81 209.832 748.472 209.02C751.148 205.741 754.019 202.583 757.116 199.695C758.71 198.206 760.8 197.002 762.874 196.34C767.715 194.806 768.497 193.964 768.527 188.038C766.678 188.248 764.844 188.76 763.1 188.534C761.792 188.369 759.672 187.376 759.522 186.504C758.845 182.142 757.838 177.554 758.56 173.313C760.108 164.137 764.558 161.4 773.729 162.694C776.345 163.055 778.164 164.423 778.645 167.101C779.321 170.816 779.502 174.275 777.277 177.87C773.248 184.353 770.512 191.272 771.534 199.334C772.06 203.485 771.368 207.802 771.098 212.043C771.008 213.397 770.812 214.931 770.091 215.984C769.294 217.157 767.82 217.879 766.648 218.797C765.866 217.518 764.558 216.3 764.408 214.946C764.167 212.886 764.648 210.735 764.949 208.644C765.46 204.989 766.077 201.334 766.648 197.694C766.182 197.408 765.701 197.168 765.22 196.927ZM772.21 175.238C766.392 174.937 763.957 177.073 764.363 181.826C770.526 180.547 771.293 179.931 772.21 175.238ZM773.203 170.53C773.293 170.109 773.398 169.673 773.488 169.251C772.24 168.725 770.963 167.672 769.775 167.762C767.55 167.943 765.37 168.77 765.28 172.425C768.121 171.748 770.662 171.132 773.203 170.53Z" fill="white"/>
<path d="M212.654 79.1102C212.203 77.6362 211.496 76.1923 211.346 74.7032C209.857 59.9329 210.91 45.2528 212.984 30.6028C213.796 24.8871 216.743 20.9765 222.35 19.1565C227.522 17.4719 231.326 19.5325 231.686 24.9022C232.017 29.7304 231.777 34.6338 231.416 39.477C231.205 42.3799 229.942 44.3804 226.184 44.4405C220.08 44.5458 219.193 46.0349 218.757 52.0965C218.246 59.3162 217.449 66.5359 216.502 73.7105C216.247 75.6207 215.029 77.4106 214.247 79.2607C213.736 79.2005 213.195 79.1554 212.654 79.1102ZM219.765 41.0413C224.53 40.0937 224.996 39.4319 224.245 34.6789C220.14 34.5134 218.848 36.3484 219.765 41.0413ZM219.719 30.332C221.854 29.9409 224.515 30.8885 224.726 27.5344C224.756 26.9026 223.177 25.564 222.441 25.6242C219.825 25.8347 219.013 27.5344 219.719 30.332Z" fill="white"/>
<path d="M990.696 25.6091C997.356 25.0526 996.033 19.4423 998.017 15.9377C998.859 16.4942 999.656 16.7349 999.746 17.126C1000.42 20.2244 1000.45 23.6839 1004.5 24.6465C1004 26.3762 1004 29.0385 1002.89 29.6552C1000.56 30.9337 1000.14 32.7236 1000.74 34.5586C1001.02 35.431 1003.14 35.6867 1004.44 36.2432C1005.31 36.6192 1006.15 37.0103 1007.91 37.8074C1005.7 39.5221 1004.18 40.8909 1002.48 41.9588C999.882 43.5983 998.559 45.7491 997.942 48.8626C996.424 56.5787 994.56 64.2346 992.545 71.8454C992.199 73.169 990.456 74.1166 989.343 75.2297C988.621 73.7857 987.148 72.2515 987.313 70.9279C988.005 65.3627 989.163 59.8727 990.2 54.3526C990.531 52.5778 991.012 50.833 991.448 48.9679C987.9 49.6297 984.848 50.2163 981.796 50.7879C981.586 50.3968 981.36 50.0058 981.15 49.6147C981.766 48.6972 982.217 47.5691 983.044 46.9223C984.307 45.9447 985.765 45.0272 987.283 44.5459C993.628 42.5454 994.485 37.3863 995.086 31.7008C991.102 31.7609 988.892 33.626 987.524 36.9802C987.088 38.0331 985.765 38.7099 984.848 39.5673C984.292 38.3339 983.134 37.0103 983.299 35.8972C984.232 29.9861 985.419 24.09 986.742 18.254C986.953 17.3516 988.321 16.7198 989.148 15.9678C989.674 16.8703 990.561 17.7426 990.651 18.6752C990.861 20.8712 990.696 23.0973 990.696 25.6091Z" fill="white"/>
<path fill-rule="evenodd" clip-rule="evenodd" d="M437.273 44.5308C432.177 49.735 425.772 50.6977 418.962 50.457C418.465 50.457 417.966 50.4643 417.467 50.4717C416.215 50.4901 414.957 50.5086 413.7 50.4119C410.453 50.2163 407.912 48.9679 406.875 45.5837C405.964 42.6157 407.738 41.13 409.617 39.5569C409.785 39.4161 409.954 39.2745 410.122 39.1311C410.53 38.7803 410.95 38.4308 411.373 38.0792C413.379 36.4105 415.444 34.6923 416.587 32.5431C417.624 30.5877 417.684 27.038 416.527 25.3534C415.564 23.9697 412.137 23.8192 409.852 23.9396C406.634 24.1201 404.394 26.0152 403.462 29.3544C403.026 30.9186 402.477 32.4491 401.929 33.9795C401.38 35.5099 400.831 37.0404 400.395 38.6046C397.509 48.8626 401.042 56.0974 410.272 58.1881C419.413 60.2638 428.208 58.5641 436.341 54.112C438.416 52.9839 440.22 50.8481 441.377 48.7574C441.964 47.6744 441.047 45.5837 440.385 44.1397C440.25 43.8389 437.874 43.9141 437.273 44.5308ZM408 30.5L409.5 29H413L410.5 32L407 34L408 30.5Z" fill="white"/>
<path d="M197.47 34.2126C195.199 36.3033 193.516 37.8676 191.817 39.4168C189.953 41.1014 187.713 42.5604 185.488 40.6953C183.172 38.755 184.465 36.198 185.909 34.3029C188.254 31.2345 190.96 28.4368 193.486 25.4888C196.973 21.4127 200.476 17.3365 203.904 13.2153C205.212 11.651 206.43 9.74078 208.79 11.0794C211.21 12.4331 210.669 14.6141 209.782 16.6898C209.391 17.6073 209.015 18.615 208.354 19.3069C203.047 24.9624 202.837 31.6857 203.002 39.0559C203.258 49.9005 202.19 60.7752 201.619 71.6198C201.574 72.5975 201.408 73.8008 200.822 74.4475C199.845 75.5154 198.387 76.9594 197.289 76.839C196.327 76.7338 194.824 74.6731 194.854 73.515C195.004 67.6489 195.515 61.798 196.011 55.9319C196.537 49.7049 197.199 43.493 197.755 37.266C197.8 36.5891 197.62 35.8822 197.47 34.2126Z" fill="white"/>
<path d="M1020.72 24.7668C1025.65 23.353 1029.92 22.0444 1034.23 20.9314C1035.9 20.4952 1037.71 20.5403 1039.44 20.3448C1042.82 19.9386 1044.19 21.7586 1044.61 24.827C1046.7 40.1689 1045.28 55.0746 1038.62 69.1832C1037.35 71.9056 1035.35 74.5378 1033.05 76.463C1030.46 78.6289 1028.24 77.546 1026.67 73.8459C1031.17 74.7333 1031.95 71.2438 1033.21 68.416C1038.86 55.8267 1039.07 42.4401 1038.86 28.9934C1038.82 26.5868 1037.44 26.0303 1035.38 26.3161C1030.29 27.023 1025.2 27.5946 1020.18 28.5722C1019.08 28.7828 1018.31 30.5276 1017.32 31.5052C1015.76 33.0545 1014.15 34.5435 1012.57 36.0627C1012.3 33.8817 1011.37 31.5203 1011.88 29.5499C1012.86 25.8498 1014.33 22.1798 1016.28 18.8858C1017.11 17.4869 1019.97 16.028 1021.32 16.4491C1024.01 17.2764 1022.51 19.6679 1021.79 21.4879C1021.42 22.3903 1021.17 23.3379 1020.72 24.7668Z" fill="white"/>
<path d="M62.5715 56.9848C59.4596 56.6539 57.3699 55.2401 57.3097 52.292C57.1444 44.3353 57.2496 36.3635 57.4601 28.3917C57.4901 27.4441 58.6477 26.0002 59.5798 25.6843C62.5114 24.7217 65.5633 24.0599 68.6151 23.5485C71.7572 23.0221 73.9521 24.6014 75.0796 27.4742C76.6732 31.5353 77.0942 35.6415 75.681 39.9282C74.8391 42.4702 73.7567 45.328 78.1014 46.2455C78.8681 46.4109 79.9355 48.6671 79.6499 49.5997C79.2139 51.0436 77.9661 52.8937 76.6582 53.3298C72.0579 54.849 67.2771 55.8267 62.5715 56.9848ZM68.2543 31.069C65.3077 33.3403 64.2704 43.4027 66.5705 47.3886C69.878 44.3202 70.9003 34.3781 68.2543 31.069Z" fill="white"/>
<path d="M503.797 187.09C497.964 186.624 492.131 186.188 486.298 185.646C485.08 185.526 483.637 185.315 482.765 184.593C481.547 183.54 479.969 181.931 480.029 180.638C480.089 179.525 482.134 177.75 483.472 177.584C493.499 176.366 503.557 175.418 513.615 174.516C517.583 174.155 521.597 173.989 525.581 174.004C527.972 174.004 530.422 174.365 530.783 177.629C531.144 180.968 530.377 183.871 526.874 184.729C523.146 185.646 519.267 186.113 515.434 186.383C511.585 186.654 507.691 186.443 503.828 186.443C503.813 186.639 503.812 186.865 503.797 187.09Z" fill="white"/>
<path d="M309.952 50.2615C304.69 49.8403 298.857 49.4192 293.024 48.8927C291.806 48.7874 290.318 48.622 289.491 47.885C288.228 46.7569 286.785 45.1325 286.695 43.6434C286.635 42.7108 288.83 40.9962 290.213 40.7555C295.61 39.8079 301.067 39.1311 306.524 38.6798C314.477 38.0331 322.46 37.5668 330.443 37.2209C333.36 37.1005 336.742 36.7847 337.419 41.0262C338.035 44.8467 336.171 47.2984 331.796 48.4265C331.195 48.5769 330.594 48.7724 329.977 48.8175C323.513 49.2989 317.048 49.7501 309.952 50.2615Z" fill="white"/>
<path d="M929.539 61.3919C932.29 62.4899 935.011 63.6781 937.792 64.6708C946.858 67.8896 955.968 71.0031 965.018 74.2821C966.747 74.9138 969.664 75.4553 968.536 78.0574C967.89 79.5314 965.259 81.1258 963.665 81.0054C959.23 80.6294 954.69 79.8773 950.526 78.3732C939.822 74.5227 929.283 70.221 918.714 66.0245C914.715 64.4302 914.46 63.0013 917.872 60.4593C922.578 56.9397 927.404 53.5705 932.335 50.3818C933.282 49.7651 934.921 50.2314 936.244 50.1863C935.943 51.555 936.078 53.3449 935.252 54.2173C933.282 56.2629 930.862 57.8873 928.622 59.6772C928.922 60.2187 929.223 60.8053 929.539 61.3919Z" fill="white"/>
<path d="M927.193 37.5969C928.952 44.2902 925.074 48.3813 919.03 51.0737C915.798 52.5176 914.64 54.7136 914.46 58.3084C914.204 63.5127 913.287 68.7169 912.13 73.8008C911.784 75.2898 909.664 76.3728 908.371 77.6362C907.484 76.0118 905.74 74.3272 905.861 72.7629C906.387 65.4379 907.8 58.158 908.176 50.818C908.537 43.7336 911.363 37.4765 914.294 31.415C915.572 28.7978 919.481 26.9177 922.578 25.925C925.104 25.1128 926.833 27.6698 927.148 30.2719C927.404 32.4979 927.193 34.7691 927.193 37.5969ZM915.121 45.8243C915.648 46.2305 916.174 46.6366 916.715 47.0427C918.414 44.8467 920.113 42.6356 921.811 40.4396C921.27 40.0335 920.744 39.6274 920.203 39.2213C918.504 41.4324 916.82 43.6283 915.121 45.8243ZM923.315 34.2277C920.534 31.6556 917.782 32.6333 916.038 36.4237C918.489 35.6716 920.639 35.0248 923.315 34.2277Z" fill="white"/>
<path d="M139.95 169.552C142.777 169.041 144.581 168.725 146.385 168.394C147.738 168.153 149.136 167.522 150.399 167.732C151.752 167.973 152.955 168.996 154.232 169.673C153.345 170.861 152.624 172.861 151.526 173.102C145.212 174.486 138.838 175.764 132.418 176.441C128.78 176.817 125.022 175.975 120.827 175.644C122.722 170.364 127.938 172.846 131.126 170.485C128.495 166.589 125.834 162.724 123.278 158.768C122.857 158.121 122.722 157.068 122.902 156.301C123.428 153.94 130.599 150.661 132.839 151.699C135.14 152.766 137.259 153.684 138.672 150.39C138.883 149.894 140.552 149.939 141.544 149.939C141.89 149.939 142.205 150.616 142.551 150.961C144.19 152.691 146.896 154.255 147.167 156.181C147.407 157.85 144.746 159.821 143.619 161.806C142.416 163.972 141.499 166.273 139.95 169.552ZM134.628 166.709C135.17 166.785 135.711 166.86 136.252 166.935C136.508 165.19 136.808 163.446 136.929 161.701C136.929 161.611 135.44 161.43 134.643 161.28C134.628 163.1 134.628 164.905 134.628 166.709Z" fill="white"/>
<path d="M26.9115 188.985C29.5274 188.354 32.1132 187.451 34.7741 187.18C36.2023 187.03 37.7358 187.963 39.2241 188.414C38.1417 189.527 37.2246 191.317 35.9317 191.648C30.1287 193.137 24.2505 194.34 18.3422 195.348C16.9742 195.588 15.3956 194.701 13.9223 194.325C14.9596 193.257 15.8166 191.813 17.0794 191.196C19.8456 189.843 21.3941 187.963 21.2588 184.353C19.5149 184.232 17.8311 184.157 16.1623 183.977C13.9674 183.751 12.6444 182.578 12.915 180.262C13.1706 177.975 14.674 177.659 16.7336 177.9C20.6574 178.366 22.3412 176.952 22.7622 173.132C23.0027 170.891 23.1831 168.65 23.3485 166.409C23.3635 166.198 23.1981 165.972 22.9726 165.311C21.0333 165.311 18.8985 165.551 16.8539 165.22C15.6963 165.025 13.8171 163.897 13.8171 163.16C13.802 161.987 14.8544 160.001 15.8166 159.745C21.7098 158.166 27.6782 156.827 33.6917 155.82C34.8042 155.639 36.2324 157.309 37.5103 158.136C36.6985 159.279 36.037 160.573 35.0297 161.49C34.248 162.212 33.0753 162.678 31.9929 162.889C27.6782 163.731 26.9115 166.649 27.152 170.44C27.2873 172.636 27.5128 174.215 30.2039 174.726C32.7897 175.223 32.7746 176.877 31.3314 178.908C29.347 181.72 27.588 184.699 25.7388 187.602C26.1297 188.068 26.5206 188.519 26.9115 188.985Z" fill="white"/>
<path d="M128.224 185.601C131.321 189.376 134.719 186.534 138.131 185.706C146.234 183.751 149.827 186.97 148.685 195.303C148.324 197.89 147.618 200.341 149.873 202.643C150.354 203.124 149.722 205.786 148.895 206.298C143.393 209.712 137.334 211.592 130.795 211.051C129.682 210.96 127.833 209.396 127.788 208.433C127.412 201.124 127.412 193.799 127.322 186.489C127.307 186.323 127.638 186.158 128.224 185.601ZM142.912 197.784C137.981 198.401 133.26 201.304 132.073 204.312C137.996 204.222 142.626 201.545 142.912 197.784ZM131.697 196.265C135.245 194.536 138.567 192.911 141.89 191.302C135.395 189.722 131.351 191.783 131.697 196.265Z" fill="white"/>
<path d="M102.291 179.299C101.93 180.908 101.84 182.458 101.223 183.721C100.697 184.789 99.5546 186.233 98.6676 186.233C97.7205 186.233 95.9615 184.759 95.9615 183.917C95.9615 177.69 96.2622 171.462 96.593 165.235C96.623 164.814 97.6303 164.438 98.1715 164.032C98.7879 164.995 99.8252 165.912 99.9154 166.92C100.111 169.086 99.72 171.086 102.892 171.493C107.703 172.109 107.763 172.109 108.83 166.965C109.161 165.371 110.244 163.942 110.995 162.453C111.612 164.092 112.754 165.732 112.739 167.356C112.709 171.041 112.559 174.35 117.279 175.418C118.046 175.584 118.858 177.614 118.783 178.727C118.723 179.585 117.37 180.938 116.483 181.029C113.115 181.39 112.138 183.51 111.867 186.353C111.191 193.453 110.634 200.552 109.823 207.636C109.567 209.938 108.71 212.179 108.139 214.45C107.568 214.435 106.996 214.42 106.425 214.39C106.064 212.856 105.343 211.291 105.403 209.772C105.673 203.53 106.185 197.303 106.59 191.061C106.741 188.685 106.801 186.308 106.981 183.947C107.177 181.014 105.794 179.525 102.291 179.299Z" fill="white"/>
<path d="M74.5084 180.607C74.2678 182.307 74.4933 184.277 73.6965 185.661C67.1117 197.123 60.6923 208.719 53.4461 219.744C51.0858 223.324 46.5756 225.64 42.6819 227.942C41.5243 228.619 38.6378 227.731 37.5403 226.588C36.8638 225.896 37.6305 223.068 38.5175 221.73C40.0961 219.368 42.3662 217.473 44.1853 215.247C53.0552 204.448 61.88 193.603 70.7198 182.773C71.4715 181.856 72.2533 180.983 73.02 180.096C73.5161 180.277 74.0122 180.442 74.5084 180.607Z" fill="white"/>
<path d="M295.956 190.7C298.557 189.873 300.736 188.925 302.992 188.549C304.224 188.339 305.607 189.091 306.93 189.422C306.299 190.625 305.938 192.61 304.991 192.926C298.542 195.137 291.987 197.077 285.402 198.897C284.35 199.183 282.906 198.597 281.809 198.085C281.162 197.784 280.471 196.792 280.486 196.13C280.501 195.468 281.268 194.701 281.884 194.205C282.32 193.859 283.072 193.844 283.688 193.783C289.326 193.227 290.574 192.219 290.333 184.142C288.755 184.247 287.161 184.473 285.597 184.398C284.695 184.353 283.117 183.871 283.087 183.48C283.012 182.518 283.478 181.39 284.049 180.547C284.5 179.87 285.372 179.224 286.154 179.073C291.972 177.915 291.31 173.267 291.912 168.86C290.002 168.289 288.078 168.048 286.545 167.146C285.492 166.529 284.996 164.98 284.259 163.852C285.252 163.325 286.214 162.423 287.236 162.333C290.468 162.047 293.731 161.881 296.963 162.077C298.211 162.152 299.398 163.295 300.616 163.957C299.97 165.025 299.308 166.093 298.677 167.176C297.73 168.785 296.286 170.349 296.106 172.049C296.031 172.846 298.301 174.11 299.699 174.787C301.909 175.854 302.3 178.05 300.346 179.825C296.121 183.721 296.121 183.721 295.956 190.7Z" fill="white"/>
<path d="M555.288 77.9671C555.559 76.087 555.453 74.0564 556.16 72.3418C558.37 66.9119 560.911 61.6175 563.286 56.2478C565.15 52.0213 567.105 47.8248 568.743 43.5231C569.435 41.7031 570.172 39.3266 569.57 37.7172C568.142 33.9268 569.871 32.4378 572.908 31.2495C574.652 30.5727 576.305 29.6552 578.064 29.0235C582.574 27.399 585.13 29.0535 585.536 33.7464C586.228 41.8385 582.289 52.5176 572.442 53.6006C571.449 53.7059 570.382 55.2401 569.781 56.3381C566.338 62.5801 563.091 68.9274 559.633 75.1544C558.896 76.4781 557.633 77.5009 556.626 78.6741C556.175 78.4484 555.739 78.2078 555.288 77.9671ZM572.757 48.4866C577.538 47.524 579.447 45.4032 579.583 40.8909C576.696 42.9665 572.472 43.2523 572.757 48.4866ZM573.148 38.8904C580.515 37.8526 581.627 36.9351 580.861 32.6935C577.583 33.611 574.817 34.9346 573.148 38.8904Z" fill="white"/>
<path d="M542.945 23.0672C543.637 24.7217 544.073 25.3233 544.118 25.9551C544.298 28.1811 545.381 28.6624 547.425 28.1511C548.974 27.76 550.613 27.4592 552.176 27.6096C553.048 27.6998 554.356 28.6775 554.506 29.4446C554.672 30.2869 553.965 31.5955 553.228 32.2422C552.341 33.0244 551.049 33.3853 549.891 33.8516C544.795 35.8671 543.426 39.477 546.463 44.0796C547.756 46.0499 547.44 47.3134 546.809 49.4041C545.486 53.7811 545.08 58.4287 544.238 62.9561C543.667 66.0245 543.246 69.138 542.284 72.071C541.908 73.2141 540.315 74.2821 539.067 74.6581C538.495 74.8386 537.202 73.3946 536.556 72.4771C534.827 70.0254 533.173 67.5286 531.715 64.9115C531.249 64.0842 531.52 62.8659 531.445 61.813C532.437 62.0085 533.534 62.0236 534.421 62.4598C535.819 63.1516 537.067 64.1293 539.232 65.5432C539.758 61.5723 540.179 58.4287 540.735 54.2774C538.27 55.3152 536.977 55.9921 535.609 56.3681C534.662 56.6238 533.609 56.4584 532.587 56.4734C532.737 55.3152 532.497 53.8412 533.128 53.0591C534.196 51.7355 535.774 50.833 537.202 49.8102C540.886 47.1931 542.69 42.2596 540.856 38.3339C540.33 37.2208 538.435 36.559 537.037 36.0927C534.932 35.4009 534.166 34.1073 535.759 32.6183C537.233 31.2345 539.773 30.9036 541.051 29.4145C542.149 28.1511 542.164 25.8949 542.945 23.0672Z" fill="white"/>
<path d="M843.485 153.142C840.629 161.972 837.968 170.62 834.976 179.164C834.089 181.675 830.812 181.63 829.354 179.314C828.903 178.592 828.497 177.689 828.512 176.862C828.632 167.522 828.467 158.166 829.173 148.871C829.564 143.787 836.029 141.23 839.562 144.629C841.546 146.554 842.087 149.969 843.485 153.142Z" fill="white"/>
<path d="M585.16 139.094C585.792 139.47 586.498 139.756 587.07 140.222C588.317 141.26 589.61 142.298 590.663 143.516C599.127 153.218 609.034 161.144 619.993 167.868C622.053 169.131 623.932 170.996 625.3 172.997C626.007 174.02 625.406 175.945 625.391 177.449C624.007 177.404 622.248 177.915 621.316 177.253C607.921 167.687 593.459 159.354 583.702 145.517C582.905 144.389 582.65 142.659 582.665 141.23C582.68 140.222 583.612 139.229 584.123 138.237C584.484 138.523 584.829 138.808 585.16 139.094Z" fill="white"/>
<path d="M390.879 163.19C391.51 160.738 392.036 158.241 392.788 155.82C394.773 149.397 396.802 143.005 398.952 136.642C399.298 135.62 400.335 134.837 401.042 133.95C401.703 134.973 402.665 135.935 402.966 137.064C403.432 138.823 403.447 140.719 403.733 143.23C406.845 142.508 409.581 141.907 412.302 141.215C416.406 140.177 420.465 138.914 424.6 138.071C427.02 137.575 429.726 137.981 430.388 140.839C431.094 143.892 428.463 144.99 426.163 145.592C418.797 147.487 411.415 149.382 403.943 150.811C401.523 151.277 400.185 152.18 399.132 154.195C397.975 156.406 396.757 158.602 395.374 160.663C394.547 161.896 393.314 162.874 392.277 163.972C391.811 163.701 391.345 163.446 390.879 163.19Z" fill="white"/>
<path d="M193.471 182.021C194.643 181.555 195.831 180.638 196.883 180.788C198.341 180.984 199.89 181.751 200.972 182.743C201.363 183.104 200.882 185.406 200.191 185.827C194.373 189.376 188.434 192.746 182.436 195.995C181.804 196.34 180.526 195.483 179.549 195.167C179.985 194.355 180.256 193.332 180.902 192.746C182.571 191.242 184.45 189.993 186.179 188.549C188.149 186.895 188.87 184.563 187.352 182.563C186.525 181.465 184.36 181.284 182.751 180.938C181.819 180.728 180.722 181.239 179.79 181.029C178.963 180.848 177.745 180.231 177.595 179.6C177.384 178.697 177.775 177.434 178.347 176.667C178.888 175.945 179.985 175.524 180.902 175.223C183.578 174.335 185.292 172.801 186.074 169.898C186.765 167.326 188.284 166.514 190.719 168.785C191.666 169.673 193.666 169.327 195.094 169.823C196.507 170.319 197.8 171.177 199.153 171.869C198.387 173.057 197.86 174.516 196.808 175.373C192.899 178.532 192.839 178.457 193.471 182.021Z" fill="white"/>
<path d="M918.85 9.07897C913.092 15.4714 907.634 21.6383 902.042 27.6698C900.358 29.4747 898.359 31.039 896.314 32.4378C895.592 32.9341 894.299 32.5731 893.277 32.6032C893.352 31.6857 893.082 30.4975 893.548 29.8958C900.268 21.533 907.018 13.2002 913.994 5.03292C914.76 4.13046 917.211 3.70931 918.354 4.22071C924.442 7.00331 930.411 10.0566 936.304 13.2454C937.597 13.9372 938.424 15.5166 939.461 16.6747C937.943 17.1711 936.394 18.1939 934.921 18.0886C929.103 17.7126 924.818 14.1629 920.624 10.553C920.067 10.0867 919.481 9.60541 918.85 9.07897Z" fill="white"/>
<path d="M1034.04 32.6483C1033.09 45.3581 1029.68 55.947 1023.64 65.6334C1022.21 67.9197 1020.31 70.1006 1018.15 71.68C1016.85 72.6275 1014.63 72.2966 1012.83 72.5373C1012.87 70.8376 1012.34 68.8221 1013.07 67.4684C1015.8 62.2943 1019.32 57.5112 1021.82 52.2469C1024.75 46.0951 1026.87 39.5522 1029.45 33.2349C1030.04 31.806 1031.09 30.5727 1031.93 29.2491C1032.84 30.678 1033.72 32.1219 1034.04 32.6483Z" fill="white"/>
<path d="M756.35 151.488C756.35 153.398 756.62 155.353 756.305 157.219C754.41 168.153 752.381 179.073 750.381 189.993C749.75 193.422 749.434 196.942 748.352 200.221C747.886 201.62 745.826 202.492 744.488 203.605C743.556 202.056 742.098 200.582 741.812 198.912C741.481 197.047 742.053 194.942 742.519 193.016C744.984 182.849 747.42 172.666 750.141 162.558C751.178 158.663 752.937 154.977 754.365 151.187C755.027 151.292 755.688 151.398 756.35 151.488Z" fill="white"/>
<path d="M576.155 67.3331C576.531 63.8586 576.636 61.3467 577.102 58.9101C577.508 56.7442 578.636 56.0673 580.876 57.3608C582.093 58.0678 583.882 58.2182 585.311 58.0076C591.58 57.1202 594.992 60.8654 593.113 66.957C591.625 71.7551 588.859 75.7561 584.514 78.3883C580.274 80.9453 577.192 79.4111 576.591 74.5678C576.245 71.8454 576.245 69.0929 576.155 67.3331ZM588.242 63.633C582.71 64.1444 581.522 66.7314 584.018 71.9507C585.476 69.0478 586.664 66.7314 588.242 63.633Z" fill="white"/>
<path d="M579.913 19.4874C580.214 25.3685 575.088 24.6164 571.855 25.9551C570.743 26.4063 568.954 25.203 567.481 24.7518C567.33 24.2855 567.195 23.8343 567.044 23.368C565.962 24.7217 564.985 26.1656 563.752 27.3689C563.271 27.8502 561.843 28.136 561.527 27.8352C560.971 27.2787 560.43 25.8949 560.73 25.3835C563.812 20.2846 566.984 15.2308 570.397 10.3424C570.803 9.75582 572.893 9.9664 574.035 10.3274C577.328 11.3502 580.56 12.6136 583.777 13.847C584.814 14.2381 586.017 14.6592 586.664 15.4564C587.355 16.3137 588.002 17.7727 587.716 18.6752C587.49 19.4122 585.882 20.089 584.86 20.1492C583.296 20.2395 581.687 19.7581 579.913 19.4874ZM569.751 20.9614C572.818 20.0439 575.103 19.352 577.869 18.5248C575.914 17.3516 574.381 16.4491 572.607 15.3812C571.6 17.3516 570.833 18.8256 569.751 20.9614Z" fill="white"/>
<path d="M557.904 182.202C556.205 181.194 554.551 180.758 554.115 179.78C553.695 178.833 554.116 176.817 554.897 176.14C561.888 170.154 569.044 164.348 576.17 158.527C576.636 158.151 577.298 157.775 577.854 157.79C579.372 157.805 580.891 158.031 582.409 158.181C581.718 159.475 581.267 160.994 580.274 162.017C575.689 166.77 571.074 171.508 566.233 175.99C563.752 178.306 560.775 180.096 557.904 182.202Z" fill="white"/>
<path d="M59.2491 148.991C62.6618 149.427 66.6307 149.894 70.5695 150.45C71.9226 150.646 73.3959 150.766 74.5384 151.413C75.5758 151.999 76.2222 153.248 77.034 154.21C75.8614 154.887 74.5986 156.241 73.5312 156.121C69.7126 155.654 65.9091 154.812 62.1656 153.849C54.8743 151.999 54.9645 151.969 50.74 158.136C49.3719 160.137 48.2444 163.837 45.0272 162.062C41.8851 160.332 44.1552 157.339 45.2978 155.218C46.9364 152.15 48.7706 149.111 51.0407 146.509C52.2434 145.126 54.5135 144.148 56.3476 144.088C57.1444 144.058 58.0163 146.81 59.2491 148.991Z" fill="white"/>
<path d="M678.144 154.571C677.573 156.767 676.986 158.978 676.34 161.445C679.527 161.445 682.459 161.4 685.375 161.46C688.728 161.535 692.156 161.355 695.418 161.972C696.711 162.212 697.658 164.318 698.77 165.581C697.402 166.303 696.004 167.687 694.666 167.612C688.562 167.311 682.489 166.664 676.415 166.018C673.604 165.717 671.649 166.634 670.101 169.011C669.409 170.079 668.252 171.132 667.079 171.553C665.185 172.23 663.817 170.981 664.674 169.221C667.605 163.175 671.77 158.046 676.911 153.804C677.317 154.075 677.723 154.316 678.144 154.571Z" fill="white"/>
<path d="M491.545 37.9428C490.613 42.786 490.132 46.3809 489.14 49.8253C488.704 51.3745 487.516 53.0892 486.163 53.8713C485.02 54.5331 483.156 53.9917 481.623 53.9766C481.653 52.6981 481.307 51.2241 481.803 50.1712C482.991 47.6293 483.337 45.7191 480.706 43.6735C478.33 41.8234 478.616 37.9879 480.796 34.8444C482.57 32.2723 486.464 30.7081 488.598 32.4829C490.282 33.8516 490.853 36.5741 491.545 37.9428Z" fill="white"/>
<path d="M673.739 133.815C675.092 134.732 676.836 135.379 677.678 136.627C678.79 138.282 679.693 138.914 681.827 138.823C683.992 138.733 687.194 139.154 688.096 140.538C689.044 141.997 687.976 144.93 687.45 147.126C687.134 148.405 686.352 149.758 685.375 150.646C684.428 151.518 682.97 151.864 681.737 152.436C681.617 151.172 681.286 149.894 681.421 148.675C681.527 147.622 682.158 146.63 682.549 145.607C682.323 145.261 682.083 144.93 681.857 144.584C680.053 145.562 678.024 146.269 676.505 147.577C674.566 149.232 672.702 149.307 671.349 147.487C670.747 146.675 671.529 144.81 671.785 143.426C672.326 140.628 672.927 137.846 673.739 133.815Z" fill="white"/>
<path d="M1026.64 29.0084C1026.46 31.5504 1026.87 33.7764 1026.09 35.431C1022.72 42.5153 1019.06 49.4493 1015.37 56.3682C1014.84 57.3458 1013.65 58.2934 1012.59 58.5942C1010.48 59.1808 1008.57 58.0678 1009.73 55.9019C1014.42 47.1329 1019.47 38.5595 1024.43 29.941C1024.61 29.6401 1025.26 29.58 1026.64 29.0084Z" fill="white"/>
<path d="M775.157 194.972C778.254 195.498 780.584 195.453 782.478 196.325C787.304 198.551 791.98 201.123 796.61 203.741C797.738 204.372 798.685 205.576 799.361 206.719C800.729 209.02 799.722 210.524 796.986 210.524C796.49 210.524 795.904 210.554 795.528 210.314C789.138 206.283 782.749 202.237 776.42 198.115C775.954 197.799 775.894 196.852 775.157 194.972Z" fill="white"/>
<path d="M315.5 187.782C308.434 180.547 308.434 180.547 311.02 177.253C315.079 178.201 319.559 179.194 320.776 183.691C321.979 188.113 317.98 190.58 315.214 193.167C313.515 194.761 311.395 196.01 309.261 196.957C308.298 197.393 306.84 196.716 305.592 196.536C306.134 195.468 306.419 194.054 307.276 193.392C309.862 191.392 312.673 189.692 315.5 187.782Z" fill="white"/>
<path d="M341.192 151.683C341.508 148.45 341.598 145.171 342.245 142.012C342.485 140.869 344.034 139.982 344.981 138.974C345.808 140.012 347.221 140.974 347.371 142.102C347.988 147.051 348.393 152.044 348.559 157.023C348.634 159.385 348.198 162.212 344.951 162.137C341.779 162.077 341.478 159.415 341.403 156.933C341.343 155.188 341.388 153.428 341.388 151.683C341.313 151.699 341.252 151.683 341.192 151.683Z" fill="white"/>
<path d="M68.4497 169.658C68.5249 170.981 68.8406 171.899 68.6001 172.651C66.4202 179.284 62.8121 185.06 57.5052 189.632C56.6933 190.324 54.3781 190.595 53.9422 190.068C53.1754 189.151 52.6643 186.955 53.2356 186.203C57.3849 180.758 61.8048 175.539 66.2097 170.289C66.5104 169.928 67.3072 169.958 68.4497 169.658Z" fill="white"/>
<path d="M46.1397 184.548C46.1397 182.518 45.6887 180.999 46.2149 180.006C49.2968 174.08 52.5591 168.244 55.9267 162.468C56.3476 161.746 57.7457 161.581 58.6929 161.159C58.9785 162.047 59.6701 163.039 59.4897 163.822C57.7608 171.071 54.6338 177.614 49.3569 182.999C48.7856 183.54 47.8385 183.736 46.1397 184.548Z" fill="white"/>
<path d="M724.448 201.439C723.922 201.003 722.253 200.266 721.922 199.138C721.607 198.055 722.298 195.919 723.215 195.378C727.289 192.986 731.559 190.926 735.859 188.955C736.67 188.594 738.159 188.925 738.895 189.512C739.437 189.933 739.617 191.377 739.362 192.189C738.52 194.942 728.267 201.59 724.448 201.439Z" fill="white"/>
<path d="M752.561 150.149C751.343 149.202 749.855 148.6 749.705 147.758C749.479 146.464 749.735 144.193 750.547 143.757C754.876 141.425 759.236 138.613 764.543 139.846C765.641 140.102 767.129 141.245 767.279 142.193C767.46 143.2 766.573 145.111 765.671 145.487C761.446 147.231 757.071 148.585 752.561 150.149Z" fill="white"/>
<path d="M774.315 155.714C773.368 156.572 772.526 157.655 771.429 158.241C768.723 159.7 765.986 161.204 763.07 162.137C761.882 162.513 759.853 161.866 758.936 160.949C758.169 160.182 757.913 158.106 758.394 157.038C759.853 153.804 767.866 150.826 771.293 152.044C772.676 152.541 773.924 153.413 775.232 154.105C774.931 154.647 774.616 155.173 774.315 155.714Z" fill="white"/>
<path d="M835.036 199.379C834.991 200.161 834.991 200.793 834.901 201.394C834.285 205.516 832.421 207.742 829.624 207.441C825.415 206.99 826.167 203.62 826.046 200.868C825.986 199.634 826.106 198.386 826.302 197.168C826.708 194.776 827.67 192.911 830.586 193.016C833.383 193.122 834.405 194.957 834.886 197.303C835.051 198.025 834.991 198.792 835.036 199.379Z" fill="white"/>
<path d="M648.107 168.68C646.618 167.477 645.22 166.875 644.874 165.882C644.649 165.235 645.731 163.656 646.603 163.19C650.106 161.31 653.714 159.595 657.412 158.106C658.375 157.715 659.758 158.392 660.945 158.587C660.585 159.655 660.539 161.22 659.788 161.716C656.104 164.122 652.226 166.258 648.107 168.68Z" fill="white"/>
<path d="M654.541 149.247C655.503 149.924 657.473 150.57 658.059 151.864C659.141 154.255 656.916 154.887 655.112 155.549C653.834 156.015 652.647 157.249 651.444 157.219C649.836 157.173 647.61 156.707 646.784 155.579C645.461 153.744 646.438 151.653 648.588 150.736C650.181 150.089 651.94 149.879 654.541 149.247Z" fill="white"/>
<path d="M143.258 16.1633C147.723 18.4195 152.233 20.5854 156.593 23.0371C157.314 23.4432 157.525 25.1128 157.525 26.2108C157.525 26.5116 155.631 27.3389 155.104 27.038C151.015 24.7217 147.016 22.2399 143.077 19.6679C142.551 19.322 142.536 18.1638 142.296 17.3666C142.626 16.9755 142.942 16.5694 143.258 16.1633Z" fill="white"/>
<path d="M649.294 16.8251C649.61 15.1706 649.67 13.3356 650.362 11.8014C650.753 10.9441 652.436 9.93631 653.143 10.1619C654.165 10.4928 655.503 11.8916 655.518 12.8693C655.608 15.8324 655.278 18.8256 654.767 21.7586C654.601 22.7513 653.444 23.5786 652.752 24.481C651.91 23.6839 650.692 23.0371 650.302 22.0594C649.7 20.4801 649.625 18.6752 649.294 16.8251Z" fill="white"/>
<path d="M728.688 183.886C728.041 183.811 727.004 183.962 726.372 183.54C725.38 182.879 723.967 181.736 724.027 180.923C724.117 179.961 725.485 178.577 726.508 178.351C728.252 177.975 730.251 178.081 731.98 178.562C733.062 178.863 733.844 180.216 734.761 181.104C733.799 181.886 732.912 182.849 731.83 183.39C730.988 183.826 729.89 183.721 728.688 183.886Z" fill="white"/>
<path d="M729.394 169.567C727.184 168.529 725.305 167.762 723.591 166.725C723.305 166.544 723.621 164.544 723.817 164.514C725.831 164.243 727.981 163.807 729.89 164.228C731.273 164.529 732.386 166.078 733.634 167.07C732.281 167.883 730.927 168.665 729.394 169.567Z" fill="white"/>
<path d="M919.105 24.3006C917.587 23.0521 916.535 22.1798 915.497 21.3074C917.031 20.3448 918.489 18.7805 920.098 18.615C921.42 18.4797 922.909 20.0138 924.322 20.811C922.728 21.8639 921.15 22.9318 919.105 24.3006Z" fill="white"/>
</g>
<g filter="url(#filter1_d_909_7827)">
<path d="M946.706 164.009C945.991 164.551 945.412 164.835 945.044 165.282C940.602 170.732 936.713 176.5 935.03 183.44C934.424 185.958 934.213 188.531 935.139 191.069C935.813 192.924 936.645 193.459 938.3 192.498C940.33 191.32 942.203 189.858 944.09 188.443C944.54 188.111 944.771 187.495 945.412 186.554C943.947 186.662 942.98 186.716 942.012 186.804C939.86 187.001 938.715 186.445 938.484 185.071C938.211 183.412 939.192 182.025 941.134 181.564C943.436 181.023 945.752 180.522 948.089 180.176C951.399 179.682 952.735 180.86 952.707 184.211C952.687 186.96 952.578 189.715 952.387 192.464C952.019 197.785 951.665 203.107 951.086 208.408C950.909 210.026 950.173 211.63 949.444 213.119C948.75 214.534 947.476 215.333 945.8 214.846C944.192 214.379 943.518 213.072 943.736 211.576C944.233 208.15 944.942 204.758 945.555 201.346C945.902 199.397 946.229 197.447 946.638 195.064C944.901 196.364 943.722 197.535 942.299 198.239C940.623 199.078 938.77 199.918 936.937 200.053C931.958 200.432 928.695 197.068 928.129 191.455C927.469 184.922 929.431 178.917 931.89 173.027C933.436 169.317 935.514 165.905 938.416 163.062C940.514 161.01 943.027 159.853 946.038 160.015C948.198 160.13 949.908 161.417 950.316 163.217C950.35 163.38 950.412 163.542 950.412 163.705C950.371 164.937 949.983 165.892 948.586 166.149C947.122 166.42 946.863 165.479 946.706 164.009Z" fill="white"/>
<path d="M962.721 188.524C963.307 185.518 963.695 182.444 964.54 179.506C965.93 174.665 968.872 173.007 973.443 174.11C978.164 175.241 980.964 178.931 979.894 183.412C978.968 187.312 977.626 191.164 976.005 194.834C974.343 198.598 971.304 199.545 967.251 198.543C965.644 198.151 964.479 197.129 964.084 195.551C963.525 193.283 963.184 190.961 962.721 188.524ZM973.627 184.401C973.593 184.157 973.627 183.446 973.389 182.837C973.157 182.234 972.66 181.293 972.272 181.287C971.556 181.28 970.385 181.686 970.18 182.207C969.056 185.186 968.178 188.26 968.859 191.496C968.954 191.956 969.397 192.532 969.813 192.681C970.092 192.782 970.746 192.322 971.005 191.956C972.531 189.83 973.661 187.535 973.627 184.401Z" fill="white"/>
</g>
<defs>
<filter id="filter0_d_909_7827" x="0.5" y="0" width="1057" height="251.02" filterUnits="userSpaceOnUse" color-interpolation-filters="sRGB">
<feFlood flood-opacity="0" result="BackgroundImageFix"/>
<feColorMatrix in="SourceAlpha" type="matrix" values="0 0 0 0 0 0 0 0 0 0 0 0 0 0 0 0 0 0 127 0" result="hardAlpha"/>
<feOffset dy="8"/>
<feGaussianBlur stdDeviation="6"/>
<feComposite in2="hardAlpha" operator="out"/>
<feColorMatrix type="matrix" values="0 0 0 0 0 0 0 0 0 0 0 0 0 0 0 0 0 0 0.25 0"/>
<feBlend mode="normal" in2="BackgroundImageFix" result="effect1_dropShadow_909_7827"/>
<feBlend mode="normal" in="SourceGraphic" in2="effect1_dropShadow_909_7827" result="shape"/>
</filter>
<filter id="filter1_d_909_7827" x="916" y="156" width="76.1216" height="78.9893" filterUnits="userSpaceOnUse" color-interpolation-filters="sRGB">
<feFlood flood-opacity="0" result="BackgroundImageFix"/>
<feColorMatrix in="SourceAlpha" type="matrix" values="0 0 0 0 0 0 0 0 0 0 0 0 0 0 0 0 0 0 127 0" result="hardAlpha"/>
<feOffset dy="8"/>
<feGaussianBlur stdDeviation="6"/>
<feComposite in2="hardAlpha" operator="out"/>
<feColorMatrix type="matrix" values="0 0 0 0 0 0 0 0 0 0 0 0 0 0 0 0 0 0 0.25 0"/>
<feBlend mode="normal" in2="BackgroundImageFix" result="effect1_dropShadow_909_7827"/>
<feBlend mode="normal" in="SourceGraphic" in2="effect1_dropShadow_909_7827" result="shape"/>
</filter>
</defs>
</svg>
