<svg width="1440" height="1050" viewBox="0 0 1440 1050" fill="none" xmlns="http://www.w3.org/2000/svg">
<path d="M0 324H1440V1050H0V324Z" fill="#668C4A"/>
<path d="M1406.35 23.5164C1417.52 24.9659 1428.75 25.8555 1440 26.597V324H0V8.99998C3.50299 8.55711 7.00641 8.11473 10.5101 7.67259L20.6123 6.39842C33.6895 4.74925 46.7686 3.09959 59.8416 1.43748C75.2483 -0.507097 90.8998 -0.939225 105.284 5.08202C125.558 13.552 145.702 22.6702 164.881 33.3584C197.005 51.2637 201.55 52.293 237 40.9998C249.93 36.88 263.537 34.244 277.029 32.6451C299.433 29.9947 335.13 56.9066 355 66.2122C392.091 83.5843 444.045 58.1456 485.14 54.9046C498.545 53.8387 512.886 54.7029 525.73 58.3904C546.104 64.2532 565.888 72.5648 585.384 81.0491C612.901 93.034 640.474 97.2545 669.085 85.6876C670.794 84.9976 672.505 84.3121 674.217 83.6263L674.219 83.6255C682.3 80.389 690.389 77.1495 698.242 73.429C722.562 61.9053 747.458 57.7711 773.62 66.2122C776.327 67.0836 779.048 67.918 781.77 68.7525L781.773 68.7532C788.231 70.7335 794.69 72.7139 800.949 75.1863C833.217 87.9058 865.038 86.7247 896.946 73.7315C927.688 61.2139 959.135 54.6597 992.468 62.4959C1019.71 68.8914 1047.04 70.3609 1073.73 59.3411C1107 45.6095 1113 29.4998 1158 21.4998C1164 21.4998 1169.17 22.6553 1173.42 23.1363C1183.49 24.2767 1193.57 25.418 1203.17 28.1836C1236.02 37.6475 1268.62 40.1541 1301.65 30.085C1336.04 19.5984 1370.88 18.8926 1406.35 23.5164Z" fill="#668C4A"/>
</svg>
