<svg width="63" height="77" viewBox="0 0 63 77" fill="none" xmlns="http://www.w3.org/2000/svg">
<path d="M62.2501 31.1251C62.2501 55.3335 31.125 76.0835 31.125 76.0835C31.125 76.0835 0 55.3335 0 31.1251C1.23007e-07 22.8702 3.27923 14.9534 9.11631 9.11632C14.9534 3.27924 22.8702 0 31.125 0C39.3799 0 47.2967 3.27924 53.1338 9.11632C58.9708 14.9534 62.2501 22.8702 62.2501 31.1251Z" fill="#668C4A"/>
<path d="M30.4098 46.49C35.3448 46.49 39.5098 43.725 39.5098 38.965C39.5098 35.57 37.2698 33.4 34.3648 32.595V32.42C37.0948 31.335 38.6698 29.305 38.6698 26.505C38.6698 22.095 35.2748 19.61 30.2698 19.61C27.2248 19.61 24.7398 20.835 22.4998 22.795L25.1248 25.945C26.6648 24.51 28.1698 23.67 30.0248 23.67C32.2298 23.67 33.4898 24.86 33.4898 26.89C33.4898 29.2 31.9498 30.845 27.1898 30.845V34.52C32.8248 34.52 34.3298 36.13 34.3298 38.65C34.3298 40.995 32.5448 42.29 29.9198 42.29C27.5748 42.29 25.6848 41.135 24.1448 39.63L21.7298 42.885C23.5498 44.95 26.3148 46.49 30.4098 46.49Z" fill="#F2F0D5"/>
</svg>
