<svg width="63" height="77" viewBox="0 0 63 77" fill="none" xmlns="http://www.w3.org/2000/svg">
<path d="M62.25 31.1251C62.25 55.3335 31.125 76.0835 31.125 76.0835C31.125 76.0835 0 55.3335 0 31.1251C1.23007e-07 22.8702 3.27923 14.9534 9.1163 9.11632C14.9534 3.27924 22.8701 0 31.125 0C39.3799 0 47.2966 3.27924 53.1337 9.11632C58.9708 14.9534 62.25 22.8702 62.25 31.1251Z" fill="#668C4A"/>
<path d="M22.3248 46H39.6848V41.66H34.0848C32.8598 41.66 31.1448 41.8 29.8498 41.94C34.5748 37.32 38.4598 32.28 38.4598 27.59C38.4598 22.76 35.2048 19.61 30.3048 19.61C26.7698 19.61 24.4598 20.975 22.0798 23.53L24.8798 26.33C26.2098 24.895 27.7498 23.67 29.6398 23.67C32.1248 23.67 33.5248 25.245 33.5248 27.87C33.5248 31.86 29.3598 36.725 22.3248 43.025V46Z" fill="#F2F0D5"/>
</svg>
