<svg width="261" height="75" viewBox="0 0 261 75" fill="none" xmlns="http://www.w3.org/2000/svg">
<path d="M45.9054 69.625C39.834 69.625 33.7559 69.6449 27.6844 69.6051C26.8284 69.5984 25.8928 69.4325 25.1364 69.0609C24.5923 68.7955 24.0017 68.0855 23.9553 67.5282C23.9221 67.0836 24.5923 66.3139 25.0966 66.148C26.3374 65.7432 27.6579 65.4911 28.9651 65.3915C32.6478 65.1062 36.3437 64.9536 40.033 64.7081C41.327 64.6218 42.6076 64.4493 42.8 62.7307C43.0721 60.2689 42.3223 59.4329 39.8539 59.7182C38.5467 59.8708 37.2661 60.249 35.9721 60.5078C34.008 60.9059 33.1321 60.5344 32.7606 59.1608C32.3226 57.555 33.0061 56.3938 34.9237 55.9227C36.576 55.5179 38.2746 55.2923 39.9667 55.0933C42.2493 54.8212 43.5366 52.2732 42.1763 50.4285C41.9042 50.057 41.0416 49.9773 40.4643 50.0105C40.0198 50.037 39.615 50.475 39.1771 50.7072C37.7239 51.4836 36.4565 51.0523 36.2176 49.3868C35.9323 47.4492 36.065 45.4519 36.0119 43.4812C35.9655 41.8422 36.1181 40.1635 35.7863 38.5842C35.4015 36.7396 35.9058 35.3262 37.3523 34.4105C41.0085 32.0881 45.0362 31.2122 49.3559 31.7961C51.3266 32.0616 52.4347 33.3223 52.74 35.1603C53.2708 38.4183 53.085 41.683 51.9304 44.7818C51.5456 45.8235 50.6233 46.8255 49.6877 47.4691C48.3606 48.3782 47.6041 49.3735 47.8629 51.0058C47.8961 51.2182 47.8695 51.4438 47.8695 51.6694C47.8695 55.1198 47.8695 55.1198 51.0612 56.1948C51.4792 56.3341 51.9835 56.4137 52.2622 56.6991C52.6404 57.0906 53.1182 57.701 53.0452 58.139C52.9788 58.5703 52.3352 59.0878 51.8508 59.2338C51.1873 59.4329 50.4308 59.3002 49.7142 59.3466C47.8297 59.4793 46.4761 61.5297 47.3719 63.1487C47.6638 63.6729 48.7388 64.0114 49.462 64.018C53.6026 64.0313 57.7431 63.8322 61.8836 63.8786C64.1264 63.8985 66.3825 64.1308 68.5921 64.5156C69.9391 64.7479 71.0937 65.5972 70.9212 67.2561C70.7486 68.9017 69.4216 69.3529 68.0812 69.5453C66.5019 69.7709 64.8962 69.8904 63.297 69.897C57.4976 69.9368 51.6982 69.9103 45.8988 69.9103C45.9054 69.824 45.9054 69.7245 45.9054 69.625ZM41.5459 46.3676C42.1365 45.4188 42.5811 44.9476 42.7071 44.4035C42.7735 44.1116 42.2957 43.6935 42.0635 43.3352C41.6455 43.74 41.0748 44.0718 40.8757 44.5628C40.743 44.8813 41.1677 45.4188 41.5459 46.3676ZM49.0042 36.8988C48.3141 36.3547 47.9558 35.8637 47.5444 35.8172C47.2259 35.7774 46.841 36.295 46.4894 36.567C46.8344 36.9121 47.1264 37.4164 47.5444 37.5557C47.8231 37.6486 48.2809 37.2439 49.0042 36.8988ZM47.7169 44.6225C47.916 44.6225 48.1217 44.6225 48.3207 44.6291C48.3207 43.8063 48.3274 42.9835 48.2876 42.1674C48.2876 42.1342 47.8297 42.1276 47.5842 42.1077C47.5842 42.9106 47.5908 43.7201 47.5975 44.523C47.6041 44.5561 47.6771 44.5893 47.7169 44.6225Z" fill="#262626"/>
<path d="M9.59622 45.5644C8.64071 46.6659 7.67193 47.7607 6.72969 48.8689C5.66802 50.123 4.53335 51.1647 2.69533 51.0586C0.372911 50.9325 -0.741849 49.1277 0.538798 47.1901C1.62702 45.5445 2.99392 44.0714 4.2613 42.5453C5.814 40.6741 7.39324 38.836 8.94594 36.9648C9.36398 36.4539 9.855 35.9297 10.0474 35.3259C10.4124 34.1713 10.5915 32.957 10.8503 31.7693C9.70239 31.5967 8.55445 31.3645 7.39988 31.2716C6.19886 31.1787 4.95139 31.4043 3.79682 31.1455C3.06692 30.9796 2.07823 30.2829 1.93225 29.6525C1.77964 28.9956 2.33701 27.9937 2.87449 27.4031C3.47832 26.7329 4.41392 26.3614 5.1969 25.8438C5.63484 25.5518 6.05288 25.2333 6.73633 24.7357C4.71251 24.0323 4.12859 22.6654 4.52008 21.0397C4.71251 20.2434 5.37606 19.1287 6.0197 18.9761C6.76287 18.8035 7.9838 19.2946 8.53454 19.9117C9.46351 20.9468 10.0209 22.3071 10.7375 23.528C10.9034 23.5214 11.0627 23.5081 11.2285 23.5015C11.3745 22.254 11.5072 20.9999 11.6731 19.7524C11.8191 18.6642 11.8257 17.5163 12.2239 16.5209C12.4495 15.9569 13.2988 15.3929 13.9159 15.3199C14.2809 15.2801 15.0174 16.1494 15.1368 16.7067C15.4686 18.2329 15.5615 19.8055 15.7473 21.3582C15.9198 21.3847 16.099 21.4047 16.2715 21.4312C16.517 20.6548 16.6232 19.7856 17.0479 19.1221C17.4991 18.4121 18.2489 17.8879 18.866 17.2774C19.4101 17.9409 20.0272 18.558 20.4585 19.2879C20.6841 19.6728 20.6177 20.2567 20.6111 20.7477C20.5912 22.0549 21.1287 22.8446 22.3828 23.3953C23.0463 23.6873 23.9222 24.656 23.8426 25.1869C23.7364 25.9035 22.9136 26.7329 22.1903 27.0979C21.0756 27.6553 19.7817 27.8676 18.5607 28.206C16.955 28.6506 16.4573 29.4203 17.008 31.0062C17.6716 32.9172 18.4479 34.795 19.284 36.6463C19.4698 37.0577 20.0604 37.3497 20.5315 37.562C22.3828 38.4114 24.2938 39.1346 26.1053 40.057C27.3926 40.7139 28.4277 41.7424 27.8438 43.3813C27.2798 44.9672 25.8598 45.2857 24.4331 45.0269C22.8207 44.735 21.2614 44.1643 19.6821 43.6866C16.9085 42.8439 16.3511 43.2287 16.1322 46.0687C15.88 49.4196 15.6212 52.7639 15.2762 56.1082C15.1899 56.9575 14.8714 57.8334 14.4667 58.5965C13.6505 60.1425 12.0182 60.189 11.2883 58.5965C10.6645 57.2296 10.2133 55.6835 10.1204 54.1905C9.94126 51.397 10.0673 48.5835 10.0673 45.7767C9.90145 45.7237 9.74883 45.644 9.59622 45.5644Z" fill="#262626"/>
<path d="M174.74 22.4798C173.845 22.7718 173.44 23.0306 173.068 22.9974C172.259 22.9111 171.217 22.9111 170.739 22.4201C170.394 22.0684 170.527 20.675 170.951 20.2702C172.61 18.6843 174.355 17.1184 176.3 15.9107C177.74 15.0149 178.277 14.0727 178.098 12.4603C177.972 11.3256 177.959 10.1379 178.151 9.01646C178.37 7.77563 179.193 6.95947 180.599 7.01919C181.96 7.07227 182.039 8.17376 182.278 9.12263C182.358 9.44113 182.358 9.77954 182.411 10.1047C182.749 12.0223 182.995 12.1882 184.946 11.7901C187.215 11.3322 189.498 12.5996 189.657 14.5571C189.75 15.7515 189.564 16.979 189.391 18.1734C188.881 21.7168 188.363 25.2601 187.739 28.7835C187.54 29.9049 187.195 31.086 186.585 32.0283C186.147 32.7051 185.178 33.0568 184.421 33.5213C183.665 33.9857 182.577 34.2246 182.185 34.8882C181.017 36.8655 179.816 38.9159 179.173 41.0923C176.97 48.5373 174.999 56.0421 172.929 63.5269C172.71 64.3231 172.597 65.2123 172.152 65.8692C171.748 66.4597 170.918 67.1631 170.341 67.11C169.77 67.0569 168.848 66.1213 168.835 65.5573C168.788 62.7572 168.689 59.9039 169.16 57.1634C170.155 51.364 171.502 45.631 172.657 39.8581C172.796 39.1614 172.59 38.405 172.584 37.6751C172.577 36.7594 172.458 35.7972 172.67 34.928C173.214 32.6918 174.15 30.5486 172.69 28.2461C172.391 27.7749 172.909 26.7 173.188 25.9568C173.572 24.9018 174.09 23.9065 174.74 22.4798ZM177.866 21.9291C179.16 21.7964 180.507 21.8495 181.708 21.4646C182.418 21.2324 182.942 20.3299 183.433 19.6465C183.532 19.5071 183.194 18.7772 182.948 18.7175C181.721 18.399 178.304 20.6086 177.866 21.9291ZM182.238 26.9123C180.327 26.2886 179.067 26.6867 178.27 27.6489C177.72 28.3124 177.74 29.4537 177.507 30.3827C177.713 30.4756 177.919 30.5751 178.124 30.668C179.392 29.5134 180.659 28.3589 182.238 26.9123Z" fill="#262626"/>
<path d="M224.38 29.6525C222.894 30.3426 221.56 30.9796 220.22 31.5835C217.924 32.612 216.232 31.4972 216.663 29.0089C216.915 27.5624 217.625 26.0428 218.548 24.8883C220.127 22.9175 222.018 21.1923 223.81 19.3941C225.011 18.1864 225.74 14.8753 224.951 13.4155C224.758 13.0572 224.128 12.8051 223.67 12.7453C223.146 12.6856 222.582 12.9975 222.044 12.9776C220.91 12.9245 219.636 13.0307 219.317 11.4514C218.939 9.58023 219.364 8.53846 220.95 7.98108C221.978 7.61613 223.08 7.43033 224.155 7.22463C225.349 6.99903 226.012 6.43501 225.966 5.11455C225.933 4.29839 225.906 3.36942 226.258 2.67934C226.55 2.10205 227.399 1.80345 227.996 1.38542C228.308 1.90299 228.693 2.39401 228.906 2.94475C229.032 3.27653 228.786 3.74101 228.892 4.08606C229.071 4.65671 229.443 5.65203 229.655 5.63212C230.339 5.56577 231.268 5.29371 231.573 4.78278C232.091 3.92017 232.097 2.77223 232.515 1.82336C232.754 1.27262 233.292 0.628974 233.829 0.476358C234.804 0.197669 235.189 0.974019 235.236 1.84327C235.322 3.52204 236.351 4.15241 237.844 4.5439C241.553 5.51932 242.349 8.0408 239.974 11.1396C239.137 12.2344 238.142 13.2165 237.359 14.3445C236.842 15.0943 236.384 15.9835 236.218 16.8726C235.753 19.3609 236.855 20.3231 239.137 19.3808C241.865 18.2594 244.598 18.1599 247.405 18.923C249.442 19.4804 250.093 20.5752 249.575 22.6388C248.752 25.9367 246.224 27.7017 243.484 29.2345C243.205 29.3937 242.362 29.1814 242.349 29.0752C242.289 28.5975 242.269 27.9406 242.548 27.6221C243.444 26.5803 244.545 25.7111 245.435 24.6627C245.872 24.1385 246.012 23.3555 246.284 22.6919C245.567 22.5526 244.791 22.1744 244.141 22.3203C241.997 22.8047 239.854 23.3687 237.804 24.1517C237.18 24.3906 236.735 25.3793 236.437 26.1158C236.224 26.64 236.55 27.3832 236.337 27.9008C236.092 28.4847 235.568 29.2544 235.063 29.3407C234.453 29.4402 233.67 29.0023 233.106 28.5909C232.767 28.3453 232.774 27.6619 232.495 27.2704C232.144 26.7794 231.48 25.9499 231.248 26.0362C230.611 26.2817 229.821 26.8391 229.649 27.4363C229.297 28.624 229.264 29.9246 229.204 31.1787C229.138 32.612 229.317 34.0651 229.131 35.4718C229.038 36.1487 228.468 37.0975 227.89 37.3099C226.888 37.6682 226.085 36.9516 225.847 35.8965C225.475 34.2376 225.203 32.5589 224.871 30.8934C224.805 30.5616 224.632 30.2696 224.38 29.6525ZM229.808 21.8691C231.308 21.962 232.17 21.398 232.057 20.051C232.018 19.56 231.155 18.6642 230.903 18.7438C229.304 19.2149 229.888 20.5885 229.808 21.8691ZM229.138 10.1641C229.224 11.75 229.277 12.6856 229.337 13.7075C231.029 13.4753 231.805 12.6591 231.427 11.3386C231.294 10.8675 230.186 10.6751 229.138 10.1641ZM235.554 10.6618C235.773 10.7746 235.992 10.8874 236.211 10.9936C237.24 10.8277 237.85 10.2305 237.658 9.12901C237.598 8.80388 237.021 8.57164 236.682 8.29958C236.304 9.0892 235.933 9.87882 235.554 10.6618ZM222.396 25.2864C224.606 24.802 224.851 24.384 224.108 22.7052C223.484 23.6541 222.94 24.4702 222.396 25.2864Z" fill="#262626"/>
<path d="M240.617 46.0221C240.451 48.6631 240.252 51.304 240.132 53.9449C240.053 55.7763 239.482 57.3555 238.347 58.8087C237.206 60.2685 237.471 60.9785 239.316 61.4894C241.864 62.1994 244.485 62.6573 247 63.4602C251.32 64.8403 255.493 66.5589 259.023 69.5582C260.291 70.6331 260.231 71.8341 259.687 73.1081C259.123 74.422 257.922 74.3556 256.854 73.9309C252.852 72.365 248.865 70.7592 244.903 69.1069C241.745 67.7931 238.606 66.4328 235.507 64.9996C234.539 64.5484 233.955 64.7939 233.411 65.5437C232.634 66.612 231.904 67.7201 231.095 68.7685C230.358 69.724 229.602 70.6796 228.752 71.5355C228.009 72.2853 227.08 72.7233 226.098 71.9005C225.183 71.1308 224.678 70.1222 225.256 68.9742C226.072 67.3552 227.014 65.7958 227.943 64.2365C228.859 62.6971 230.093 61.2705 228.507 59.3727C228.129 58.9215 228.215 57.9859 228.261 57.2825C228.62 52.2794 229.024 47.2762 229.416 42.2731C229.462 41.6693 229.635 41.0455 229.549 40.4616C228.971 36.5201 231.34 34.43 234.366 32.7844C236.496 31.6232 238.692 32.4061 239.389 34.7219C239.92 36.4936 240.066 38.3847 240.371 40.2294C240.418 40.5014 240.404 40.7801 240.404 41.0588C240.404 42.711 240.404 44.3699 240.404 46.0221C240.484 46.0221 240.55 46.0221 240.617 46.0221ZM235.395 36.8121C234.452 38.0264 233.576 39.0483 232.846 40.163C232.634 40.4815 232.654 41.238 232.893 41.5034C233.192 41.8351 233.855 42.074 234.313 42.0077C237.06 41.6361 237.604 39.7317 235.395 36.8121ZM232.734 49.4659C233.497 49.4659 234.339 49.5986 235.103 49.4129C235.514 49.3133 236.058 48.683 236.078 48.2716C236.118 47.2431 235.892 46.2013 235.74 45.1728C235.733 45.1396 235.328 45.133 235.122 45.1662C232.866 45.551 231.964 47.0904 232.734 49.4659ZM232.203 54.2236C232.322 54.4625 232.435 54.7013 232.555 54.9402C233.636 54.7743 234.764 54.7345 235.773 54.3563C236.005 54.27 235.806 53.0425 235.806 52.3457C235.647 52.2595 235.487 52.1732 235.328 52.087C234.28 52.797 233.245 53.5136 232.203 54.2236Z" fill="#262626"/>
<path d="M110.521 49.1875C112.18 49.8842 113.653 50.5942 115.186 51.1317C122.153 53.5868 129.147 55.9888 136.121 58.4373C137.163 58.8023 138.251 59.154 139.14 59.7644C139.764 60.1957 140.494 61.0849 140.454 61.7219C140.401 62.4916 139.751 63.4936 139.067 63.8917C136.798 65.2122 134.27 64.7941 131.98 64.0775C126.679 62.4186 121.43 60.5541 116.215 58.6298C111.769 56.9908 107.396 55.1528 102.99 53.401C102.632 53.2617 102.267 53.129 101.915 52.9763C99.1747 51.7687 98.949 50.5876 101.358 48.8159C105.133 46.0423 108.989 43.3615 112.89 40.7671C113.534 40.3358 114.748 40.1964 115.432 40.5083C116.706 41.0922 116.832 42.2733 115.85 43.3881C114.463 44.9541 112.923 46.3873 111.464 47.8936C111.158 48.1988 110.953 48.5837 110.521 49.1875Z" fill="#262626"/>
<path d="M109.228 30.3892C109.109 32.3732 108.916 34.0188 108.929 35.671C108.943 37.3764 108.06 38.4911 106.773 39.3405C105.074 40.4685 103.375 41.6231 101.557 42.5321C99.9847 43.3217 99.5932 44.4564 99.4672 46.0887C99.1686 49.8112 98.6975 53.5205 98.1733 57.223C98.014 58.3444 97.6159 59.5189 96.9988 60.4479C96.5144 61.1712 95.4925 62.0139 94.7626 61.9608C94.0526 61.9143 93.0308 60.9057 92.8251 60.1427C92.4402 58.6895 92.2876 57.0704 92.4734 55.5774C93.3095 48.8624 94.2583 42.1605 95.2736 35.4653C95.4726 34.1382 96.1428 32.8709 96.6405 31.5969C97.231 30.0906 97.9609 28.6374 98.4652 27.1046C99.2416 24.7291 103.555 22.0086 106.023 22.4134C107.695 22.6854 108.578 23.7803 108.817 25.2799C109.095 27.0715 109.115 28.8962 109.228 30.3892ZM104.59 33.2889C101.763 33.9458 100.655 35.2994 100.363 38.511C102.347 37.0977 103.515 35.4123 104.59 33.2889ZM100.317 29.6659C100.429 29.8849 100.535 30.1039 100.648 30.3162C101.949 29.9513 103.269 29.6261 104.543 29.1948C104.835 29.0953 104.995 28.6043 105.213 28.299C104.842 28.0801 104.344 27.589 104.112 27.6886C102.805 28.2725 101.571 28.9891 100.317 29.6659Z" fill="#262626"/>
<path d="M187.825 46.2877C189.357 47.1437 190.532 47.8404 191.739 48.4641C195.21 50.2623 198.747 51.9411 202.157 53.8521C203.312 54.4958 204.393 55.5375 205.077 56.6589C205.521 57.3888 205.581 58.8685 205.117 59.4989C204.652 60.1293 203.318 60.3217 202.363 60.335C201.533 60.3483 200.651 59.9369 199.875 59.5454C197.804 58.5102 195.694 57.5215 193.763 56.2608C190.014 53.799 186.132 51.6492 181.866 50.2159C181.401 50.0566 180.957 49.8111 180.539 49.559C178.853 48.5504 178.535 46.7721 180.094 45.6241C184.221 42.5917 188.448 39.6987 192.695 36.8321C193.604 36.215 194.838 35.8833 195.674 36.998C196.484 38.073 195.96 39.1479 195.104 39.9442C193.372 41.5566 191.56 43.0894 189.782 44.6487C189.245 45.1132 188.7 45.5578 187.825 46.2877Z" fill="#262626"/>
<path d="M33.9282 16.3416C34.1273 13.2893 34.3728 9.93841 34.5586 6.58087C34.6316 5.2405 35.242 4.27836 36.5293 4.08593C39.5684 3.62808 42.6207 3.13706 45.6796 3.06406C46.8077 3.03752 48.2343 3.91341 49.0505 4.80256C51.7577 7.74207 51.6715 13.5813 49.0969 16.6137C47.73 18.2261 46.0114 18.8499 43.9279 18.4783C43.1117 18.3323 42.2955 18.1996 41.4927 18.0337C39.6347 17.6488 37.9161 17.3901 36.9938 19.739C36.808 20.2101 35.5738 20.5087 34.8705 20.4357C34.5055 20.3959 34.1074 19.4072 33.9614 18.7901C33.8021 18.1067 33.9282 17.3635 33.9282 16.3416ZM38.7721 13.7074C40.1058 14.9084 44.9232 15.207 45.9384 14.2581C46.4892 13.7405 47.0067 12.8315 45.8455 12.6656C43.5165 12.3338 41.1476 12.4068 38.7721 13.7074ZM46.4626 7.96768C44.6578 6.00358 40.2916 6.64722 39.1702 8.95636C41.632 8.61796 43.8814 8.31272 46.4626 7.96768Z" fill="#262626"/>
<path d="M102.241 10.2568C100.184 12.7053 98.1998 15.2068 96.0631 17.5691C93.4753 20.429 90.8012 23.2225 88.0608 25.943C87.1451 26.8587 85.9839 27.5886 84.8094 28.1526C84.3184 28.3915 83.2633 28.1858 82.9183 27.7877C82.5998 27.4227 82.6993 26.4274 82.9714 25.8899C83.4823 24.8681 84.1989 23.9258 84.9222 23.0301C88.7774 18.2724 92.6459 13.5347 96.5409 8.81024C97.2376 7.9609 98.0272 7.17128 98.8766 6.47455C100.091 5.48587 102.002 5.30007 103.163 6.71343C103.76 7.4367 104.716 7.93436 105.598 8.33912C109.308 10.0378 113.043 11.6768 116.772 13.3157C117.808 13.7669 118.683 14.3177 118.398 15.6315C118.119 16.9188 117.084 17.1311 115.97 17.1444C113.229 17.1709 110.728 16.3216 108.491 14.8352C106.395 13.4484 104.417 11.8626 102.241 10.2568Z" fill="#262626"/>
<path d="M51.7244 22.7515C52.7396 22.9107 53.7349 22.8908 54.5644 23.2491C55.1616 23.5013 55.5398 24.2577 56.0175 24.7886C55.4867 25.2464 55.0023 26.0228 54.4118 26.1156C50.7622 26.6996 47.0928 27.184 43.4234 27.602C39.4819 28.0532 35.5206 28.3983 31.5725 28.8097C29.3695 29.0419 28.4803 28.6769 28.3808 27.4626C28.2746 26.1156 29.1306 25.5384 31.2805 25.2796C35.7661 24.7355 40.245 24.0985 44.724 23.5345C47.0729 23.2425 49.4352 23.0102 51.7244 22.7515Z" fill="#262626"/>
<path d="M163.287 40.9793C162.842 41.948 162.623 42.8571 162.093 43.5074C158.967 47.2896 155.072 49.977 150.348 51.3969C149.206 51.742 148.165 51.7354 147.594 50.3817C147.03 49.0414 147.189 47.8536 148.397 47.0109C152.06 44.4695 155.729 41.9414 159.478 39.5394C160.122 39.128 161.25 39.1611 162.039 39.3801C162.55 39.5261 162.856 40.3887 163.287 40.9793Z" fill="#262626"/>
<path d="M155.45 19.8521C156.552 20.0047 157.66 20.0644 158.722 20.3232C160.235 20.6948 161.183 22.1479 160.699 23.6011C160.473 24.2646 159.564 25.1737 158.994 25.1604C156.645 25.1007 154.283 24.822 151.967 24.4173C150.885 24.2248 149.89 23.5679 149.996 22.1479C150.102 20.7877 151.124 20.5023 152.179 20.3099C153.254 20.1108 154.349 20.0047 155.45 19.8521Z" fill="#262626"/>
<path d="M156.525 36.0424C155.59 36.0424 154.608 36.215 153.738 35.9827C153.141 35.8235 152.299 35.1135 152.272 34.6224C152.239 33.9655 152.776 32.8375 153.294 32.6849C155.172 32.1341 157.149 31.6763 159.08 31.6829C159.77 31.6896 160.878 33.0631 160.998 33.9257C161.084 34.5362 159.943 35.5713 159.126 35.9694C158.423 36.3145 157.408 36.0424 156.525 36.0424Z" fill="#262626"/>
<path d="M102.612 21.0663C101.338 20.8407 99.8451 21.1459 99.6527 19.3211C99.5133 18.014 100.834 16.9456 102.678 16.9855C103.833 17.012 105.087 17.2177 106.102 17.7353C107.323 18.359 107.197 19.7325 105.917 20.27C104.888 20.6947 103.72 20.8075 102.612 21.0663Z" fill="#262626"/>
</svg>
