<svg width="284" height="47" viewBox="0 0 284 47" fill="none" xmlns="http://www.w3.org/2000/svg">
<path d="M161.833 28.4786C163.564 30.6587 165.196 32.6647 166.771 34.7121C167.624 35.8229 167.839 37.0828 166.563 37.978C165.188 38.9396 164.012 38.1687 163.225 37.0082C162.421 35.8228 161.849 34.4717 161.153 33.2035C160.731 32.4491 160.258 31.728 159.48 30.468C157.649 34.0158 156.041 37.116 154.459 40.2244C154.111 40.8959 153.987 41.7745 153.473 42.247C152.843 42.819 151.915 43.051 151.112 43.4241C150.871 42.6449 150.242 41.7165 150.474 41.1114C151.542 38.293 152.843 35.5576 154.086 32.7973C154.301 32.3082 154.649 31.8855 154.683 30.9985C153.473 31.5207 152.28 32.0761 151.062 32.5652C150.366 32.847 149.604 33.2366 148.899 33.1786C148.137 33.1123 146.828 32.6398 146.795 32.2502C146.72 31.4876 147.151 30.2608 147.764 29.9209C149.861 28.7521 152.139 27.9149 154.326 26.8871C155.801 26.1908 157.234 25.395 158.676 24.649C158.61 24.4003 158.543 24.1599 158.469 23.9112C157.549 24.1433 156.505 24.1682 155.735 24.6407C153.697 25.8758 152.553 25.5774 152.189 23.1403C151.774 20.3552 151.667 17.5203 151.6 14.7019C151.559 12.9695 151.6 11.5272 149.181 11.7178C148.709 11.7592 147.806 10.9055 147.74 10.3749C147.665 9.81957 148.228 8.98236 148.75 8.61763C149.397 8.16173 150.283 8.05397 151.07 7.80529C152.686 7.29136 154.55 7.11729 154.774 4.80459C154.79 4.66368 156.331 4.39013 156.439 4.58078C157.665 6.76914 158.974 5.90706 160.292 4.77973C162.007 3.31253 162.785 3.48661 163.382 5.69154C163.622 6.59507 163.581 7.59806 163.564 8.55132C163.498 12.6213 163.374 16.683 163.349 20.7531C163.349 21.325 163.647 22.1042 164.078 22.4441C165.503 23.588 165.702 24.6987 164.384 26.1328C163.556 27.0446 162.578 27.7989 161.833 28.4786ZM158.411 14.5693C160.026 14.9174 160.582 14.13 160.466 12.5384C160.374 11.3365 160.499 10.0102 158.659 10.3335C157.367 10.5573 155.61 10.0931 155.644 12.4224C155.685 14.3786 156.746 14.7517 158.411 14.5693ZM158.154 21.6566C159.173 20.4795 159.778 19.7749 160.383 19.0703C159.852 18.6227 159.272 17.7606 158.8 17.8187C157.765 17.943 156.787 18.5315 155.784 18.9294C156.431 19.6755 157.077 20.4215 158.154 21.6566Z" fill="white"/>
<path d="M182.976 22.6512C180.922 22.5269 179.347 22.4274 177.5 22.3197C177.409 23.2315 177.309 24.1433 177.235 25.0634C176.986 28.2133 176.845 31.3798 176.423 34.5131C176.323 35.2757 175.279 35.9057 174.675 36.602C174.252 35.7731 173.44 34.9193 173.465 34.1069C173.78 25.9918 174.177 17.8767 174.658 9.7698C174.915 5.42625 177.989 3.29592 181.568 1.83702C183.357 1.10757 184.559 2.40069 185.031 3.91761C185.644 5.87387 186.125 7.93788 186.216 9.96874C186.63 19.261 186.961 28.5615 187.127 37.862C187.169 40.0255 186.655 42.247 186.067 44.3524C185.47 46.4993 183.656 47.4277 181.758 46.8143C181.245 46.6485 180.607 46.1512 180.491 45.687C180.383 45.2642 180.88 44.6674 181.17 44.1866C181.75 43.2334 182.869 42.3216 182.885 41.3683C183.051 35.1763 182.976 28.9842 182.976 22.6512ZM180.814 14.8842C178.005 15.0749 177.541 15.5391 177.641 17.6528C177.724 19.2527 178.883 19.3439 179.969 19.3356C182.048 19.319 182.769 18.3906 182.769 16.426C182.769 14.7765 181.932 14.6024 180.814 14.8842ZM183.357 9.66204C182.786 7.94617 182.943 6.28833 181.038 6.42096C179.836 6.50385 178.345 6.66963 178.453 8.64247C178.569 10.7479 179.091 11.3945 181.46 11.1955C182.131 11.1375 182.728 10.2008 183.357 9.66204Z" fill="white"/>
<path d="M58.8479 6.91831C58.5994 7.44882 58.3508 7.97933 58.0194 8.6922C59.3533 8.55128 60.5547 8.3109 61.7477 8.33576C62.3194 8.35234 63.2308 8.75851 63.3634 9.18126C63.5042 9.65375 63.0899 10.5739 62.6343 10.8888C61.3252 11.7675 59.8587 12.3975 58.4999 13.2098C58.0277 13.4917 57.3483 13.9973 57.3483 14.4035C57.34 16.9234 57.5057 19.4433 57.6217 22.2202C60.5795 21.6897 62.22 20.0319 63.8108 18.2165C64.2747 17.686 65.0535 17.4373 65.6832 17.0643C65.8903 17.7938 66.4206 18.6144 66.2466 19.2278C65.8406 20.6535 65.0949 21.9798 64.4156 23.4885C65.5755 24.5909 66.8597 25.826 68.1439 27.0528C68.0196 27.2518 67.8954 27.4507 67.7711 27.6496C64.283 28.3874 61.8555 24.8893 58.036 25.022C58.036 26.1327 58.0774 27.2601 58.0277 28.3791C57.9034 31.1974 57.9283 34.0406 57.4974 36.8092C57.3566 37.7376 56.1635 38.8898 55.1941 39.2297C53.6779 39.7685 53.0897 38.3179 52.6506 37.1408C51.9629 35.3006 51.3332 33.4355 50.687 31.5953C50.3142 31.7197 50.2479 31.7362 50.1899 31.7611C49.3282 32.1673 48.6903 33.9992 47.5386 32.5983C46.4615 31.2969 47.7789 30.3436 48.6903 29.5479C49.5437 28.8018 50.4964 28.1636 51.3995 27.4756C51.3498 27.2766 51.3001 27.0694 51.2587 26.8705C50.3556 26.8705 49.4028 27.0445 48.566 26.8124C47.9032 26.6301 47.3729 25.9504 46.7847 25.4862C47.2486 24.8976 47.5966 24.0853 48.2014 23.7869C48.972 23.4139 49.9579 23.2812 50.8278 23.3558C53.0814 23.5548 53.678 22.2451 53.8354 20.3966C53.9017 19.6423 54.0425 18.8962 54.1585 18.1419C54.697 14.7102 54.697 14.7682 51.2338 14.5444C50.571 14.5029 49.3779 13.8066 49.4028 13.4834C49.4608 12.6793 49.9248 11.7509 50.5213 11.179C51.0101 10.7065 51.9049 10.5573 52.6423 10.4744C54.4402 10.2672 55.6747 9.40507 56.5695 7.83012C56.9257 7.20014 57.7211 6.81884 58.3177 6.32977C58.4999 6.51214 58.6739 6.71108 58.8479 6.91831ZM53.2388 28.6361C51.4575 30.4431 51.5404 30.9902 53.5122 32.789C53.4211 31.4047 53.3465 30.269 53.2388 28.6361Z" fill="white"/>
<path d="M75.8486 29.2412C74.6142 30.4099 73.6199 31.6036 72.3772 32.4242C71.6563 32.8967 70.5295 32.7558 69.5933 32.8967C69.5436 31.96 69.0631 30.6503 69.5022 30.153C71.7309 27.6248 71.5983 25.6188 68.8642 23.5879C68.2511 23.132 68.1434 21.9881 67.8037 21.1592C68.0191 20.9436 68.2263 20.7281 68.4417 20.5126C70.0242 21.3996 71.6149 22.2948 73.6033 23.4138C74.5561 21.2338 75.4841 19.0952 76.412 16.9565C76.2629 16.8736 76.1138 16.7907 75.9646 16.7079C75.6829 17.1057 75.4758 17.5782 75.1113 17.8766C74.5727 18.3077 73.9348 18.6144 73.3382 18.9708C73.0897 18.3077 72.5014 17.5616 72.6506 17.0063C73.2968 14.6438 74.0756 12.3146 75.0035 10.0516C75.2438 9.46308 76.1966 9.16467 76.818 8.73363C76.9588 9.42163 77.0997 10.1096 77.2323 10.7976C77.2737 10.9966 77.2654 11.2038 77.2986 11.5768C78.3839 11.5768 79.461 11.5022 80.5298 11.61C81.0186 11.6597 81.7063 11.9416 81.8637 12.3146C82.0128 12.6544 81.7228 13.4585 81.3749 13.6989C79.6847 14.8842 79.5687 16.5669 79.3699 18.4237C79.1544 20.438 78.6242 22.4772 77.8785 24.3588C77.2571 25.9255 77.4145 26.9948 78.7567 27.9149C82.1702 30.2524 85.5755 32.5817 88.9972 34.9027C90.5383 35.9471 92.2036 36.8258 93.6038 38.0277C94.1506 38.4919 94.5318 39.9591 94.2086 40.4233C93.7364 41.103 92.5101 41.6833 91.6982 41.5838C90.53 41.4346 89.2789 40.8378 88.351 40.0752C84.8961 37.2485 81.5488 34.2727 78.1685 31.3549C77.3648 30.6089 76.5695 29.8794 75.8486 29.2412Z" fill="white"/>
<path d="M122.42 14.2294C121.765 13.5248 120.672 12.8948 120.539 12.0991C120.282 10.5573 121.509 9.6952 122.917 9.52942C125.229 9.25588 127.598 8.84142 129.868 9.09838C133.207 9.48797 134.831 11.8753 134.616 15.2075C134.326 19.5677 132.768 21.5654 128.576 22.6098C127.408 22.8999 126.968 23.4222 126.944 24.5495C126.877 28.205 126.902 31.8606 126.654 35.5078C126.438 38.6577 125.999 41.7994 125.436 44.9078C125.303 45.629 124.292 46.1843 123.679 46.8143C123.298 46.0517 122.586 45.2808 122.594 44.5182C122.652 35.1431 122.809 25.768 122.942 16.3846C122.95 15.5723 122.942 14.7599 122.942 13.9393C122.776 14.0388 122.602 14.1299 122.42 14.2294ZM127.946 18.2248C128.128 18.2414 128.311 18.258 128.501 18.2745C128.924 17.1555 129.446 16.0613 129.727 14.9008C129.86 14.3455 129.711 13.2927 129.388 13.1518C128.783 12.8866 127.847 12.9031 127.267 13.2181C126.902 13.4171 126.728 14.4035 126.852 14.9589C127.076 16.0779 127.565 17.1389 127.946 18.2248Z" fill="white"/>
<path d="M105.336 29.8048C106.322 28.3294 106.951 27.2766 107.68 26.2985C108.741 24.8645 110.141 24.6987 111.019 26.2156C112.353 28.52 113.356 31.0316 114.342 33.5101C114.499 33.908 113.902 35.0851 113.596 35.1016C112.66 35.1762 111.367 35.1928 110.796 34.6292C109.752 33.593 109.122 32.1341 108.186 30.6338C107.365 31.7942 106.57 32.9382 105.742 34.0655C104.979 35.0934 103.985 36.2953 102.726 35.5161C101.997 35.0685 101.491 33.5516 101.582 32.5817C102.179 26.2653 102.908 19.9655 103.72 13.674C104.068 10.9469 104.921 10.6982 107.142 12.1488C107.713 12.5218 108.658 12.5052 109.379 12.3892C109.586 12.356 109.909 11.1126 109.677 10.7811C109.271 10.2091 108.525 9.73664 107.829 9.54598C107.316 9.40507 106.661 9.87755 106.065 9.919C105.435 9.96045 104.789 9.80295 104.151 9.73664C104.383 8.94087 104.391 7.66433 104.88 7.44052C106.993 6.48726 109.23 6.0728 111.384 7.49026C113.289 8.75022 113.132 10.607 112.867 12.4969C112.701 13.6574 112.436 14.8096 112.345 15.9701C112.204 17.8186 111.226 19.0537 109.652 19.8495C105.601 21.9052 105.095 22.5849 105.336 29.8048ZM106.785 18.2662C107.73 17.3544 108.675 16.4343 109.917 15.2407C106.645 14.6273 106.098 15.1163 106.785 18.2662Z" fill="white"/>
<path d="M253.102 12.4307C256.773 12.124 256.044 9.03208 257.137 7.10069C257.601 7.40739 258.04 7.54002 258.09 7.75554C258.463 9.46312 258.479 11.3696 260.708 11.9002C260.435 12.8534 260.435 14.3206 259.822 14.6605C258.537 15.365 258.305 16.3515 258.637 17.3627C258.794 17.8435 259.963 17.9844 260.675 18.2911C261.156 18.4984 261.62 18.7139 262.589 19.1532C261.371 20.0982 260.534 20.8525 259.598 21.441C258.165 22.3446 257.436 23.5299 257.096 25.2458C256.259 29.4982 255.232 33.7174 254.121 37.9117C253.931 38.6412 252.97 39.1634 252.357 39.7768C251.959 38.981 251.147 38.1355 251.238 37.4061C251.619 34.3391 252.257 31.3135 252.829 28.2714C253.011 27.2932 253.276 26.3317 253.517 25.3038C251.561 25.6685 249.879 25.9918 248.198 26.3068C248.082 26.0913 247.957 25.8758 247.841 25.6603C248.181 25.1546 248.43 24.5329 248.885 24.1765C249.581 23.6377 250.385 23.132 251.222 22.8668C254.718 21.7643 255.19 18.9211 255.522 15.7878C253.326 15.821 252.108 16.8488 251.354 18.6973C251.114 19.2776 250.385 19.6506 249.879 20.1231C249.573 19.4433 248.935 18.7139 249.026 18.1005C249.54 14.8428 250.194 11.5935 250.923 8.37723C251.039 7.87988 251.793 7.53173 252.249 7.11727C252.539 7.61462 253.028 8.0954 253.078 8.60933C253.194 9.81956 253.102 11.0464 253.102 12.4307Z" fill="white"/>
<path d="M269.648 11.9665C272.365 11.1873 274.718 10.4661 277.096 9.85273C278.016 9.61235 279.01 9.63721 279.963 9.52945C281.827 9.30564 282.581 10.3086 282.813 11.9996C283.964 20.4546 283.186 28.6693 279.515 36.4446C278.811 37.9449 277.709 39.3955 276.441 40.4565C275.016 41.6502 273.79 41.0534 272.928 39.0142C275.406 39.5033 275.837 37.5802 276.533 36.0218C279.648 29.0837 279.764 21.7063 279.648 14.2958C279.623 12.9695 278.861 12.6628 277.726 12.8203C274.925 13.2099 272.117 13.5249 269.349 14.0637C268.744 14.1797 268.322 15.1413 267.775 15.6801C266.913 16.5338 266.027 17.3545 265.157 18.1917C265.008 16.9898 264.494 15.6883 264.776 14.6025C265.314 12.5633 266.126 10.5407 267.203 8.7254C267.659 7.9545 269.233 7.15045 269.979 7.38255C271.462 7.83845 270.633 9.15644 270.236 10.1594C270.037 10.6568 269.896 11.179 269.648 11.9665Z" fill="white"/>
<path d="M219.398 32.1507C220.914 32.7558 222.414 33.4107 223.947 33.9578C228.943 35.7317 233.963 37.4475 238.951 39.2546C239.904 39.6027 241.511 39.9011 240.89 41.3352C240.534 42.1475 239.084 43.0262 238.205 42.9599C235.761 42.7526 233.259 42.3382 230.964 41.5092C225.065 39.3872 219.257 37.0165 213.433 34.7038C211.229 33.8251 211.088 33.0377 212.969 31.6368C215.562 29.6971 218.222 27.8403 220.939 26.083C221.461 25.7432 222.364 26.0001 223.093 25.9753C222.928 26.7296 223.002 27.716 222.546 28.1968C221.461 29.3241 220.127 30.2193 218.893 31.2057C219.058 31.5042 219.224 31.8274 219.398 32.1507Z" fill="white"/>
<path d="M218.106 19.0372C219.075 22.7259 216.937 24.9805 213.607 26.4643C211.825 27.2601 211.188 28.4703 211.088 30.4514C210.947 33.3195 210.442 36.1876 209.804 38.9893C209.613 39.81 208.445 40.4068 207.733 41.1031C207.244 40.2078 206.283 39.2795 206.349 38.4174C206.639 34.3805 207.418 30.3685 207.625 26.3234C207.824 22.4192 209.381 18.9709 210.997 15.6303C211.701 14.188 213.855 13.1518 215.562 12.6047C216.954 12.1571 217.907 13.5663 218.081 15.0003C218.222 16.2271 218.106 17.4788 218.106 19.0372ZM211.453 23.5714C211.743 23.7952 212.033 24.019 212.331 24.2428C213.267 23.0326 214.203 21.8141 215.14 20.6038C214.841 20.38 214.551 20.1562 214.253 19.9324C213.317 21.1509 212.389 22.3612 211.453 23.5714ZM215.968 17.1804C214.435 15.7629 212.919 16.3017 211.958 18.3906C213.309 17.9762 214.493 17.6197 215.968 17.1804Z" fill="white"/>
<path d="M13.1465 41.2855C13.2956 40.2493 13.2376 39.1303 13.627 38.1853C14.845 35.1929 16.2452 32.2751 17.5542 29.3158C18.5816 26.9866 19.6587 24.6739 20.5617 22.3031C20.9429 21.3002 21.3488 19.9905 21.0174 19.1035C20.2303 17.0146 21.1831 16.194 22.8567 15.5391C23.8178 15.1661 24.7292 14.6605 25.6986 14.3123C28.1841 13.4171 29.5926 14.3289 29.8163 16.9152C30.1974 21.3748 28.0267 27.2601 22.5999 27.8569C22.0531 27.9149 21.4648 28.7604 21.1334 29.3656C19.2361 32.8056 17.4465 36.3036 15.5409 39.7354C15.1349 40.4648 14.439 41.0285 13.8839 41.6751C13.6353 41.5507 13.395 41.4181 13.1465 41.2855ZM22.7739 25.0386C25.4086 24.5081 26.4608 23.3393 26.5354 20.8525C24.9446 21.9964 22.6165 22.1539 22.7739 25.0386ZM22.9893 19.7501C27.0491 19.1781 27.6622 18.6725 27.2396 16.3349C25.4334 16.8406 23.909 17.57 22.9893 19.7501Z" fill="white"/>
<path d="M6.34438 11.0298C6.7255 11.9416 6.96576 12.2732 6.99062 12.6213C7.09004 13.8481 7.68659 14.1134 8.81337 13.8315C9.66674 13.616 10.5698 13.4502 11.4315 13.5331C11.912 13.5829 12.6328 14.1217 12.7157 14.5444C12.8068 15.0086 12.4174 15.7298 12.0114 16.0862C11.5226 16.5172 10.8101 16.7162 10.1721 16.9732C7.36345 18.0839 6.6095 20.0733 8.28311 22.6098C8.99563 23.6957 8.82165 24.392 8.47367 25.5442C7.74458 27.9564 7.52089 30.5177 7.05692 33.0128C6.74208 34.7038 6.51008 36.4197 5.97983 38.0361C5.7727 38.666 4.89448 39.2546 4.20681 39.4618C3.89197 39.5613 3.17944 38.7655 2.82317 38.2599C1.87038 36.9087 0.959007 35.5327 0.155344 34.0904C-0.101497 33.6345 0.0476428 32.9631 0.00621692 32.3828C0.553039 32.4906 1.15787 32.4989 1.64669 32.7393C2.41721 33.1206 3.10487 33.6594 4.29794 34.4385C4.58792 32.2502 4.8199 30.5177 5.12645 28.2299C3.76768 28.8019 3.05516 29.1749 2.3012 29.3821C1.77924 29.523 1.19929 29.4319 0.635899 29.4401C0.718751 28.8019 0.586176 27.9895 0.934153 27.5585C1.5224 26.829 2.39234 26.3317 3.17943 25.768C5.2093 24.3257 6.20354 21.6068 5.19275 19.4433C4.90277 18.8299 3.85883 18.4652 3.08831 18.2082C1.92838 17.8269 1.50583 17.1141 2.38406 16.2934C3.19601 15.5308 4.5962 15.3485 5.30044 14.5278C5.90525 13.8315 5.91355 12.5882 6.34438 11.0298Z" fill="white"/>
<path d="M213.508 3.32081C210.334 6.84373 207.327 10.2423 204.245 13.5663C203.317 14.561 202.215 15.4231 201.088 16.194C200.69 16.4675 199.978 16.2686 199.414 16.2851C199.456 15.7795 199.307 15.1247 199.564 14.7931C203.267 10.1843 206.987 5.59206 210.831 1.09101C211.254 0.593656 212.604 0.361558 213.234 0.643391C216.59 2.1769 219.879 3.85961 223.127 5.61692C223.839 5.99823 224.295 6.8686 224.867 7.50687C224.03 7.78041 223.176 8.34408 222.364 8.28605C219.158 8.07882 216.797 6.12257 214.485 4.13315C214.179 3.87619 213.855 3.61093 213.508 3.32081Z" fill="white"/>
<path d="M276.989 16.31C276.467 23.3144 274.586 29.15 271.255 34.4883C270.468 35.7482 269.424 36.9502 268.231 37.8205C267.519 38.3427 266.292 38.1604 265.298 38.293C265.323 37.3563 265.033 36.2456 265.431 35.4995C266.939 32.648 268.877 30.0121 270.253 27.1108C271.868 23.7206 273.037 20.1147 274.462 16.6333C274.785 15.8458 275.365 15.1661 275.829 14.4366C276.326 15.2241 276.815 16.0199 276.989 16.31Z" fill="white"/>
<path d="M24.6465 35.425C24.8536 33.5102 24.9116 32.1259 25.1685 30.783C25.3922 29.5894 26.0136 29.2163 27.248 29.9292C27.9191 30.3188 28.9051 30.4017 29.6922 30.2856C33.1471 29.7966 35.0278 31.8606 33.9922 35.2177C33.1719 37.862 31.6475 40.0669 29.2531 41.5175C26.9166 42.9267 25.2182 42.0812 24.8868 39.4121C24.6962 37.9117 24.6962 36.3948 24.6465 35.425ZM31.3078 33.3858C28.2588 33.6676 27.6043 35.0934 28.9797 37.9698C29.7833 36.3699 30.4378 35.0934 31.3078 33.3858Z" fill="white"/>
<path d="M26.7174 9.05697C26.8831 12.2981 24.0579 11.8836 22.2766 12.6213C21.6635 12.87 20.6775 12.2069 19.8656 11.9582C19.7827 11.7012 19.7082 11.4526 19.6253 11.1956C19.0288 11.9416 18.4902 12.7374 17.8108 13.4005C17.5457 13.6658 16.7586 13.8233 16.5847 13.6575C16.2781 13.3508 15.9798 12.5882 16.1455 12.3063C17.844 9.4963 19.5922 6.71112 21.4729 4.01712C21.6966 3.69385 22.8482 3.80989 23.4779 4.00884C25.2924 4.5725 27.0737 5.2688 28.8467 5.94851C29.4184 6.16403 30.0812 6.39613 30.4375 6.83546C30.8186 7.30795 31.1749 8.112 31.0175 8.60935C30.8932 9.01553 30.0067 9.38854 29.4433 9.4217C28.5816 9.47143 27.6951 9.20618 26.7174 9.05697ZM21.1167 9.86932C22.8068 9.36367 24.0662 8.98237 25.5907 8.52646C24.5136 7.8799 23.6685 7.38255 22.6908 6.79401C22.1357 7.8799 21.7132 8.69225 21.1167 9.86932Z" fill="white"/>
<path d="M272.912 14.304C272.813 15.7049 273.037 16.9317 272.606 17.8435C270.75 21.7477 268.737 25.5691 266.698 29.3821C266.408 29.9209 265.754 30.4431 265.166 30.6089C264.006 30.9322 262.953 30.3188 263.591 29.1251C266.176 24.2925 268.96 19.5677 271.694 14.8179C271.794 14.6521 272.15 14.619 272.912 14.304Z" fill="white"/>
<path d="M64.9536 7.58972C65.1276 6.67791 65.1608 5.66662 65.5419 4.82112C65.7573 4.34863 66.6853 3.79326 67.0747 3.91759C67.6381 4.09996 68.3755 4.87085 68.3837 5.40965C68.4335 7.04263 68.2512 8.69219 67.9695 10.3086C67.8783 10.8557 67.2404 11.3116 66.8592 11.8089C66.3953 11.3696 65.7242 11.0132 65.5087 10.4744C65.1773 9.604 65.1359 8.60929 64.9536 7.58972Z" fill="white"/>
<path d="M213.648 11.7095C212.811 11.0215 212.231 10.5407 211.66 10.0599C212.505 9.52942 213.308 8.66734 214.195 8.57616C214.924 8.50156 215.744 9.34706 216.523 9.78639C215.645 10.3666 214.775 10.9552 213.648 11.7095Z" fill="white"/>
</svg>
