<svg width="237" height="45" viewBox="0 0 237 45" fill="none" xmlns="http://www.w3.org/2000/svg">
<path d="M55.2668 19.7309C54.2891 19.9382 53.5021 20.0957 52.7315 20.278C51.9279 20.4687 51.0911 20.9494 50.3454 20.8168C49.5169 20.6676 48.5392 20.1371 48.1167 19.4657C47.9096 19.1341 48.6469 17.7913 49.26 17.4597C50.8839 16.581 52.6735 16.0008 54.3969 15.3211C55.5651 14.8569 56.5179 14.2766 55.6313 12.2955C55.2834 12.8675 55.0514 13.5969 54.5543 13.9616C54.024 14.3512 53.0712 14.7242 52.6155 14.4921C52.1101 14.2269 51.7622 13.2902 51.7207 12.6188C51.6793 11.9971 51.9444 11.1267 52.3918 10.7454C55.1011 8.42444 57.7606 6.02056 60.7102 4.04773C62.5495 2.82092 64.6373 3.93997 65.2753 6.36042C62.8477 5.30769 61.721 7.07329 60.2213 8.24207C57.9595 10.016 60.2793 11.7567 59.8071 14.1108C62.3755 13.5472 64.6291 13.1244 66.8164 12.4862C67.1395 12.395 67.4543 11.1433 67.2638 10.6128C66.6838 8.97981 67.3715 8.15089 68.8131 7.93537C70.4287 7.6867 70.553 8.80574 70.4204 10.0657C70.3707 10.505 70.5944 10.9775 70.7435 11.6407C72.094 11.334 73.3451 10.82 74.5879 10.8366C75.4081 10.8449 76.22 11.6075 77.0403 12.0302C76.4437 12.6602 75.9383 13.4477 75.2258 13.8787C74.4967 14.3181 73.5605 14.4093 72.4834 14.716C73.3202 16.15 74.0742 17.4431 74.9938 19.0098C75.7975 18.0316 76.4355 17.269 77.0651 16.4981C77.9351 15.4371 78.7304 14.2849 79.6998 13.3234C80.6609 12.3618 81.8291 12.3287 82.7902 13.398C83.685 14.3844 83.453 15.3376 82.6079 16.3324C81.6303 17.4763 80.868 18.8108 79.8904 19.963C77.0983 23.2456 77.5954 26.4535 79.9898 29.6614C81.5143 31.7006 83.047 33.7397 84.5798 35.7789C85.2012 36.6078 85.9054 37.3787 86.3942 38.2822C86.6428 38.7381 86.7091 39.5919 86.4357 39.9318C86.1457 40.2965 85.1929 40.57 84.8283 40.3628C83.4779 39.6002 81.9865 38.8459 81.0503 37.6854C79.4678 35.7125 78.2665 33.433 76.9077 31.2695C76.4355 30.5152 75.9963 29.7443 74.679 28.2937C74.3144 29.0231 74.0328 29.8189 73.5605 30.4738C72.7568 31.5928 71.9863 32.8196 70.9175 33.632C70.1304 34.2288 68.8876 34.2454 67.852 34.5189C67.7609 33.4993 67.3466 32.3803 67.6532 31.4933C68.1586 30.0179 68.8711 28.4595 69.9316 27.3653C73.0634 24.1325 72.558 21.0738 70.3044 17.6172C69.2191 15.951 68.2414 15.263 66.3441 15.9759C65.3167 16.3572 64.2065 16.5147 63.146 16.7965C59.8899 17.6586 59.4342 18.471 60.2793 22.2757C60.9753 21.9359 61.6298 21.654 62.2512 21.3142C63.3366 20.7173 64.3557 19.963 65.4907 19.5071C66.0375 19.2916 66.7998 19.6066 67.4626 19.6812C67.272 20.3112 67.272 21.1815 66.8495 21.5214C65.3499 22.7233 63.726 23.7844 62.1021 24.8205C60.7185 25.6992 60.2048 26.9094 59.8154 28.5092C59.1111 31.427 58.1086 34.3034 56.8576 37.0305C56.435 37.9589 54.9105 38.7878 53.8335 38.8542C53.2452 38.8956 52.2758 37.3455 51.9527 36.3508C51.0828 33.6983 51.5716 31.1866 53.4026 28.99C55.6231 26.3126 55.5319 23.1792 55.2668 19.7309ZM53.9412 35.9364C54.2063 35.9778 54.4797 36.011 54.7448 36.0524C54.9188 34.5769 55.1011 33.0932 55.2751 31.6177C55.0348 31.5845 54.7863 31.5596 54.546 31.5265C53.1541 32.8196 53.3529 34.3531 53.9412 35.9364Z" fill="white"/>
<path d="M203.68 3.94819C204.542 4.08082 206.033 3.93162 206.306 4.43726C207.077 5.863 205.354 6.22773 204.658 7.06494C204.136 7.69492 203.804 8.47411 203.125 9.65118C204.185 9.52684 204.624 9.42737 205.055 9.42737C205.884 9.42737 206.704 9.49368 207.533 9.52684C207.259 10.306 207.218 11.4002 206.671 11.8064C204.426 13.4559 205.08 15.6194 205.171 18.0896C205.917 17.443 206.356 16.8379 206.928 16.6307C207.789 16.324 209.082 15.8515 209.596 16.2411C210.747 17.1032 209.993 18.2388 209.181 19.0512C208.212 20.021 207.243 21.0654 206.091 21.7866C204.368 22.8725 204.484 24.5386 204.815 25.9809C204.981 26.7021 206.331 27.3321 207.259 27.6719C214.749 30.4157 222.272 33.0765 229.778 35.7788C230.168 35.9197 230.524 36.1435 230.897 36.3176C232.272 36.9642 232.985 38.0335 232.363 39.4841C231.758 40.885 230.499 40.7109 229.339 40.2218C220.557 36.4917 211.7 32.8776 202.984 28.9568C198.096 26.7518 198.203 26.5197 195.237 31.1037C194.823 31.7419 194.45 32.4714 193.862 32.8941C193.282 33.3086 192.462 33.3915 191.749 33.6236C191.683 32.9273 191.352 32.0984 191.608 31.5513C192.594 29.4375 193.696 27.3652 194.889 25.351C195.801 23.8175 196.836 22.3337 197.971 20.9577C198.344 20.5018 199.181 20.4272 199.811 20.1785C199.918 20.8831 200.109 21.5877 200.117 22.2922C200.126 22.972 199.96 23.6517 200.092 24.3563C201.377 23.2704 202.131 19.0677 201.89 15.4702C200.921 16.0007 200.109 16.6473 199.189 16.8877C198.386 17.0949 197.458 16.8462 196.588 16.8048C196.894 16.1333 197.085 15.3459 197.549 14.8071C198.17 14.0859 199.214 13.6797 199.695 12.9088C200.258 12.0053 200.399 10.8365 200.722 9.7838C200.001 9.61802 199.264 9.51026 198.576 9.26158C198.013 9.05435 197.507 8.67305 196.977 8.37464C197.383 7.83584 197.698 6.94889 198.212 6.82455C199.546 6.50127 200.407 6.03708 200.722 4.53673C200.921 3.60005 201.675 2.77941 202.18 1.90076C202.686 2.58876 203.208 3.29335 203.68 3.94819Z" fill="white"/>
<path d="M7.58597 25.0112C7.18 25.6826 6.75745 26.3457 6.38462 27.0337C5.63067 28.4263 4.95957 29.8686 4.17247 31.2364C3.50966 32.3886 2.44915 33.3335 1.13181 32.687C-0.268388 31.999 -0.168965 30.5152 0.361287 29.2304C0.800402 28.1528 1.35551 27.1083 1.96861 26.1136C3.74993 23.2373 5.58924 20.4106 7.38713 17.5509C7.80967 16.8794 8.14936 16.15 8.79561 14.9646C7.4037 15.1055 6.5089 15.2382 5.6141 15.2796C4.86014 15.3211 4.06477 15.404 3.36881 15.1967C2.85513 15.0475 2.19231 14.5004 2.11775 14.0445C2.05146 13.6549 2.63971 12.9586 3.10368 12.7265C4.45417 12.0385 5.93722 11.6241 7.25456 10.8863C7.86767 10.5465 8.48077 9.76728 8.60505 9.09586C8.82875 7.9105 8.31507 7.16447 6.94801 7.89392C6.70774 8.02655 6.44261 8.28351 6.21891 8.25036C5.13355 8.10115 4.04819 7.86905 2.97112 7.67011C3.20311 6.54278 3.10368 5.15848 3.73336 4.33784C5.1087 2.55566 11.3889 1.4449 13.5099 2.32356C15.1421 3.00328 15.374 4.52849 14.0153 5.72214C13.7087 5.99569 13.3276 6.19463 13.0376 6.48475C12.1014 7.42972 12.0931 8.16746 13.5596 8.48245C13.9656 8.56535 14.4295 8.49074 14.7775 8.66482C15.3409 8.95494 16.1363 9.31966 16.244 9.79215C16.36 10.2895 15.9374 11.1018 15.5066 11.5163C14.6449 12.3535 12.9796 12.8675 12.7725 13.7793C12.3417 15.6692 12.6399 17.7249 12.6399 19.9216C14.6698 20.0708 16.7162 20.162 18.7461 20.3775C19.8978 20.5018 21.0908 20.6676 22.143 21.1069C22.7064 21.339 23.3941 22.2508 23.3195 22.7648C23.2284 23.4031 22.4827 24.3812 21.9193 24.4475C20.602 24.605 19.2184 24.4226 17.8927 24.1739C16.824 23.975 15.8214 23.4279 14.7609 23.1461C12.6482 22.5907 12.2837 22.8394 12.1925 24.9946C12.0517 28.3766 11.9771 31.7503 11.8528 35.1323C11.828 35.8866 11.8777 36.7238 11.5629 37.3621C11.2315 38.0335 10.5024 38.5143 9.93896 39.0863C9.45842 38.4646 8.61333 37.8677 8.56362 37.2129C8.31507 33.7729 8.26535 30.3245 8.14936 26.8762C8.13279 26.3291 8.09137 25.7821 8.06651 25.2433C7.90081 25.1604 7.74339 25.0858 7.58597 25.0112Z" fill="white"/>
<path d="M135.352 14.1522C133.645 15.3542 131.947 16.5727 130.223 17.7498C129.701 18.1062 129.072 18.6035 128.542 18.5538C128.152 18.5124 127.547 17.6752 127.539 17.1944C127.498 13.199 127.348 9.187 127.754 5.23304C127.887 3.97308 129.486 2.74627 130.646 1.76815C131.317 1.20448 132.427 1.05527 133.364 0.906068C138.268 0.13517 138.567 0.649102 138.716 5.49001C138.931 12.7928 139.478 20.0873 140.025 27.3653C140.381 32.0487 140.249 36.5994 137.912 40.8352C137.78 41.0756 137.688 41.3409 137.539 41.573C136.661 42.9075 135.7 44.6814 133.902 43.8194C132.303 43.0485 133.33 41.316 133.803 40.1389C136.197 34.2204 135.924 27.9704 136.239 21.7949C136.363 19.4159 136.056 17.012 135.949 14.6247C135.758 14.4755 135.551 14.3097 135.352 14.1522ZM129.983 7.91875C132.088 7.39653 133.513 7.14785 134.838 6.6505C135.327 6.46813 135.766 5.74697 135.907 5.1833C136.007 4.79371 135.501 3.83216 135.385 3.85703C133.811 4.12228 132.179 4.3378 130.737 4.97607C130.265 5.1833 130.298 6.55103 129.983 7.91875ZM131.11 13.514C132.535 12.7762 133.852 12.2209 135.004 11.4251C135.443 11.1184 135.543 10.2563 135.65 9.62633C135.675 9.4937 135.07 9.12068 134.731 9.07924C132.204 8.78083 130.538 10.6791 131.11 13.514Z" fill="white"/>
<path d="M110.306 38.622C110.057 37.8097 109.668 37.0139 109.585 36.1933C108.765 28.0533 109.345 19.963 110.488 11.8893C110.935 8.7394 112.559 6.58421 115.65 5.58121C118.5 4.65282 120.596 5.78844 120.795 8.74769C120.977 11.4085 120.845 14.1108 120.646 16.7799C120.53 18.3798 119.834 19.4822 117.762 19.5154C114.399 19.5734 113.91 20.394 113.67 23.7346C113.388 27.7134 112.949 31.6923 112.427 35.6462C112.286 36.6989 111.615 37.6854 111.184 38.7049C110.902 38.6718 110.604 38.6469 110.306 38.622ZM114.225 17.642C116.851 17.1198 117.108 16.7551 116.694 14.1357C114.432 14.0445 113.719 15.0558 114.225 17.642ZM114.2 11.7401C115.376 11.5246 116.843 12.0468 116.959 10.1983C116.975 9.85016 116.105 9.11242 115.699 9.14558C114.258 9.26162 113.81 10.1983 114.2 11.7401Z" fill="white"/>
<path fill-rule="evenodd" clip-rule="evenodd" d="M234.095 19.5651C231.286 22.4332 227.756 22.9637 224.003 22.8311C223.729 22.8311 223.454 22.8351 223.179 22.8392C222.489 22.8493 221.796 22.8595 221.103 22.8062C219.314 22.6985 217.914 22.0105 217.342 20.1454C216.84 18.5097 217.818 17.691 218.853 16.824C218.946 16.7464 219.039 16.6683 219.132 16.5893C219.357 16.396 219.588 16.2034 219.821 16.0096C220.926 15.09 222.065 14.1431 222.694 12.9586C223.266 11.881 223.299 9.92477 222.661 8.99638C222.131 8.23377 220.242 8.15088 218.982 8.21719C217.209 8.31666 215.975 9.3611 215.461 11.2013C215.221 12.0634 214.919 12.9068 214.616 13.7502C214.314 14.5937 214.011 15.4371 213.771 16.2992C212.18 21.9524 214.127 25.9395 219.214 27.0917C224.252 28.2357 229.099 27.299 233.581 24.8454C234.724 24.2237 235.719 23.0466 236.356 21.8944C236.68 21.2976 236.174 20.1454 235.81 19.3496C235.735 19.1838 234.426 19.2253 234.095 19.5651ZM217.962 11.8327L218.789 11.006H220.718L219.34 12.6593L217.411 13.7615L217.962 11.8327Z" fill="white"/>
<path d="M101.938 13.8787C100.687 15.0309 99.7587 15.8929 98.8225 16.7467C97.7951 17.6751 96.5606 18.4792 95.3344 17.4513C94.0585 16.382 94.771 14.9728 95.5664 13.9284C96.8589 12.2374 98.3502 10.6956 99.7421 9.07092C101.664 6.82454 103.595 4.57816 105.484 2.30691C106.205 1.44484 106.876 0.392105 108.176 1.12985C109.51 1.87587 109.212 3.07781 108.723 4.22172C108.508 4.72737 108.301 5.28274 107.936 5.66405C105.012 8.7808 104.896 12.4861 104.987 16.5478C105.128 22.5243 104.539 28.5174 104.224 34.494C104.2 35.0328 104.108 35.6959 103.785 36.0523C103.247 36.6409 102.443 37.4366 101.838 37.3703C101.308 37.3123 100.48 36.1767 100.496 35.5384C100.579 32.3056 100.861 29.0811 101.134 25.8483C101.424 22.4166 101.789 18.9931 102.095 15.5614C102.12 15.1884 102.021 14.7988 101.938 13.8787Z" fill="white"/>
<path d="M27.5945 26.4286C25.8795 26.2462 24.7279 25.467 24.6947 23.8424C24.6036 19.4574 24.6616 15.0641 24.7776 10.6708C24.7941 10.1486 25.4321 9.3528 25.9458 9.17872C27.5614 8.64821 29.2433 8.28349 30.9252 8.00166C32.6568 7.71153 33.8664 8.5819 34.4878 10.1651C35.3661 12.4032 35.598 14.6662 34.8192 17.0286C34.3553 18.4295 33.7587 20.0044 36.1531 20.5101C36.5757 20.6013 37.1639 21.8447 37.0065 22.3586C36.7662 23.1543 36.0786 24.1739 35.3578 24.4143C32.8225 25.2515 30.1878 25.7903 27.5945 26.4286ZM30.7263 12.1463C29.1024 13.3979 28.5308 18.9434 29.7984 21.1401C31.6211 19.4491 32.1845 13.9699 30.7263 12.1463Z" fill="white"/>
<path d="M163.928 22.7233C161.028 22.4912 157.813 22.2591 154.599 21.969C153.928 21.911 153.107 21.8198 152.652 21.4136C151.956 20.7919 151.16 19.8967 151.111 19.0761C151.077 18.5621 152.287 17.6172 153.049 17.4845C156.024 16.9623 159.031 16.5893 162.039 16.3406C166.422 15.9842 170.821 15.7272 175.22 15.5366C176.828 15.4702 178.692 15.2962 179.065 17.6337C179.404 19.7392 178.377 21.0903 175.966 21.712C175.635 21.7949 175.303 21.9027 174.964 21.9276C171.401 22.1928 167.838 22.4415 163.928 22.7233Z" fill="white"/>
<path d="M72.061 3.93167C74.5217 5.17505 77.0073 6.3687 79.41 7.71984C79.8077 7.94365 79.9237 8.86376 79.9237 9.46887C79.9237 9.63465 78.8797 10.0906 78.5897 9.92478C76.3362 8.64824 74.1323 7.28052 71.9616 5.86306C71.6716 5.67241 71.6633 5.03414 71.5308 4.59481C71.713 4.37929 71.887 4.15548 72.061 3.93167Z" fill="white"/>
</svg>
