<svg width="505" height="233" viewBox="0 0 505 233" fill="none" xmlns="http://www.w3.org/2000/svg">
<path d="M465.288 202.008C465.629 208.812 465.646 215.557 462.142 221.704C461.476 222.877 460.136 223.958 458.87 224.424C457.372 224.973 456.34 224.141 456.373 222.262C456.457 217.687 456.565 213.104 456.373 208.537C456.082 201.725 455.558 194.929 455.1 188.125C454.933 185.663 454.043 185.23 452.062 186.395C446.527 189.656 440.991 192.908 435.39 196.052C433.908 196.884 433.142 197.815 433.034 199.579C432.734 204.545 432.252 209.494 431.802 214.443C431.736 215.15 431.644 215.99 431.236 216.497C430.695 217.171 429.846 217.953 429.08 218.003C428.473 218.044 427.357 217.146 427.233 216.522C426.775 214.26 426.517 211.947 426.425 209.635C426.3 206.666 426.409 203.688 426.425 200.718C426.433 199.071 425.651 198.398 424.011 198.606C422.58 198.789 421.123 199.046 419.691 198.955C418.792 198.897 417.253 198.356 417.186 197.874C417.044 196.842 417.336 195.312 418.06 194.696C419.567 193.424 421.381 192.409 423.229 191.677C426.567 190.354 427.799 187.867 427.873 184.532C427.923 182.527 428.065 180.514 428.057 178.51C428.048 175.998 426.883 174.875 424.419 175.307C421.814 175.765 419.267 176.555 416.703 177.245C415.355 177.611 414.78 178.468 414.93 179.94C415.846 188.774 415.247 197.583 414.123 206.358C413.757 209.203 413.116 212.031 412.408 214.817C412.025 216.314 411.559 218.236 409.428 217.961C407.248 217.678 406.707 215.765 406.715 213.96C406.74 210.109 407.031 206.258 407.156 202.407C407.422 193.748 407.68 185.089 407.897 176.422C407.997 172.571 407.897 168.711 408.055 164.86C408.313 158.364 412.442 154.513 417.935 152.45C422.538 150.72 427.516 149.738 432.41 149.089C437.654 148.399 442.989 148.391 448.3 148.283C453.743 148.166 457.83 150.695 459.312 155.91C461.085 162.123 462.616 168.487 463.374 174.883C464.439 183.875 464.689 192.966 465.288 202.008ZM453.826 180.83C454.018 180.697 454.201 180.556 454.392 180.423C454.109 177.212 453.901 173.993 453.46 170.807C453.402 170.383 452.095 169.726 451.521 169.851C446.377 171.024 441.266 172.321 436.172 173.677C435.506 173.852 434.574 174.509 434.482 175.066C433.833 178.751 433.825 182.444 434.824 186.686C437.695 185.072 440.201 183.708 442.673 182.278C446.135 180.248 449.531 177.828 453.826 180.83ZM452.295 162.564C452.819 158.896 450.93 155.752 447.384 155.802C443.239 155.868 439.094 156.484 434.957 156.966C434.441 157.025 433.617 157.757 433.608 158.172C433.592 159.919 433.675 161.708 434.091 163.388C434.241 163.987 435.473 164.802 436.122 164.727C441.416 164.128 446.676 163.346 452.295 162.564ZM428.131 161.99C428.223 157.989 427.474 157.324 424.219 158.264C422.23 158.838 420.257 159.578 418.418 160.501C414.805 162.315 414.098 164.427 415.838 168.096C416.104 168.661 417.377 169.235 417.968 169.069C420.191 168.437 422.28 167.33 424.511 166.707C427.316 165.908 428.448 164.203 428.131 161.99Z" fill="white"/>
<path d="M447.95 71.2508C451.312 70.6603 454.076 70.1695 456.848 69.6787C457.122 69.6288 457.389 69.554 457.663 69.5207C462.166 68.9135 462.216 68.9135 462.258 64.4052C462.308 59.2149 462.308 54.0245 462.241 48.8425C462.208 46.1974 461.958 46.264 459.386 46.5135C456.531 46.788 453.535 47.1124 450.771 46.5468C446.643 45.7067 445.136 42.6291 446.535 38.7113C447.733 35.3343 449.215 32.0487 450.638 28.7549C451.271 27.2826 452.345 26.4009 454.101 26.9C455.94 27.424 456.132 28.8713 455.874 30.3768C455.599 31.9323 455.033 33.4295 454.642 34.96C454.376 35.9914 454.184 37.0478 453.893 38.4535C456.906 38.2289 459.644 37.7465 461.284 35.9082C462.424 34.619 462.3 32.1818 462.674 30.2438C463.09 28.0811 463.282 25.8602 463.864 23.7475C464.422 21.7346 465.995 20.9278 467.835 21.3021C470.016 21.7429 471.006 23.6227 469.741 25.436C468.059 27.8482 469.741 30.2438 469.108 32.6227C472.529 32.6476 473.636 31.7243 474.136 28.7965C474.302 27.8482 474.36 26.7669 474.868 26.0183C475.476 25.1366 476.508 23.997 477.365 23.9887C478.464 23.9804 480.187 24.729 480.561 25.6107C482.426 29.936 482.992 34.5191 481.768 39.1439C481.294 40.9405 479.288 41.5061 477.74 40.1836C475.859 38.5699 474.477 39.1189 472.596 40.2335C469.974 41.789 469.033 43.6937 469.092 46.763C469.216 53.1844 468.908 59.6225 468.659 66.0522C468.592 67.7989 469.133 68.3479 470.865 68.273C475.9 68.0568 480.711 67.0004 485.356 65.054C486.729 64.4801 487.037 63.7731 486.188 62.5753C484.79 60.604 483.35 58.6576 481.985 56.653C480.578 54.5985 480.686 53.1179 482.218 51.8952C483.741 50.6807 485.739 50.7639 487.245 52.4025C488.544 53.8166 489.759 55.3887 490.658 57.0689C494.562 64.3886 498.582 71.6667 502.036 79.1944C503.643 82.6962 504.175 86.7304 504.933 90.5732C505.332 92.6028 503.934 94.3662 502.078 94.7904C500.122 95.2312 499.04 94.283 498.183 92.5612C495.494 87.1379 493.238 81.6232 492.681 75.5012C492.531 73.846 491.79 72.2407 491.274 70.419C490.566 70.7684 490.142 70.8599 489.876 71.1177C485.481 75.5262 479.804 76.7489 473.953 77.3229C467.077 77.9966 460.169 78.321 453.302 79.0363C451.004 79.2776 448.807 80.3672 446.518 80.8663C444.246 81.357 441.89 81.9559 439.61 81.8395C436.23 81.6648 434.699 78.9116 436.23 75.9171C438.869 70.7517 442.523 66.3266 446.934 62.5587C447.5 62.0762 448.74 61.7685 449.29 62.0762C449.814 62.3673 450.147 63.5901 450.047 64.3304C449.864 65.6695 449.29 66.9588 448.882 68.2647C448.607 69.0799 448.366 69.9116 447.95 71.2508Z" fill="white"/>
<path d="M153.994 194.031C153.187 195.087 152.33 196.11 151.589 197.208C149.417 200.394 147.344 203.646 145.113 206.79C144.339 207.88 143.374 209.103 142.208 209.577C141.018 210.059 139.27 210.118 138.18 209.552C137.397 209.144 136.706 207.24 136.998 206.325C137.897 203.463 138.871 200.461 140.577 198.04C143.615 193.715 147.177 189.747 150.59 185.688C152.038 183.966 153.628 182.361 155.21 180.764C156.816 179.15 156.575 177.195 156.042 175.366C155.884 174.808 154.561 174.268 153.778 174.276C150.407 174.326 147.044 174.642 143.673 174.717C142.491 174.742 141.135 174.634 140.169 174.068C139.287 173.552 138.363 172.346 138.321 171.406C138.288 170.666 139.445 169.368 140.277 169.177C142.766 168.603 145.338 168.329 147.893 168.146C157.99 167.439 156.317 167.239 156.383 158.464C156.4 156.717 155.493 155.918 153.628 155.943C151.472 155.968 149.292 155.819 147.161 155.502C145.604 155.278 144.231 154.579 144.223 152.591C144.214 150.653 145.488 149.863 147.036 149.497C149.142 148.998 151.289 148.59 153.445 148.382C155.876 148.141 156.716 146.76 156.866 144.548C156.974 143.042 156.991 141.412 157.599 140.089C158.048 139.116 159.288 138.226 160.354 137.91C161.095 137.686 162.801 138.334 162.926 138.867C163.184 139.94 162.684 141.204 162.443 142.377C162.31 143.017 161.727 143.982 161.944 144.19C162.426 144.664 163.275 144.939 163.991 144.98C165.831 145.089 167.703 144.856 169.518 145.08C171.466 145.33 173.347 145.954 173.572 148.441C173.796 150.878 172.514 152.2 170.35 152.857C168.81 153.323 167.271 153.856 165.697 154.08C163.675 154.363 162.959 155.461 163.009 157.349C163.051 158.796 162.992 160.244 163.017 161.691C163.067 164.552 163.525 164.893 166.38 164.053C168.927 163.305 171.432 162.44 173.979 161.708C174.729 161.491 175.578 161.375 176.352 161.483C178.025 161.716 179.473 162.406 179.839 164.294C180.214 166.216 179.431 167.73 177.667 168.395C174.67 169.543 171.591 170.458 168.536 171.448C167.47 171.797 166.363 172.013 165.306 172.388C162.934 173.22 162.393 175.515 164.299 177.129C165.872 178.468 165.955 179.491 164.241 180.739C163.101 181.571 162.351 186.204 163.2 187.235C163.575 187.693 164.432 187.95 165.073 187.959C177.226 188.1 187.871 192.825 198.143 198.705C199.175 199.296 200.232 200.045 200.915 200.985C201.497 201.783 202.03 203.164 201.714 203.912C201.381 204.703 199.949 205.559 199.083 205.476C196.878 205.26 194.639 204.753 192.558 203.979C183.826 200.743 175.145 197.366 166.438 194.039C165.914 193.839 165.34 193.756 164.84 193.515C163.026 192.642 162.318 193.507 162.135 195.187C161.644 199.729 161.211 204.278 160.687 208.82C159.888 215.674 159.039 222.528 158.181 229.382C158.09 230.089 157.998 230.904 157.59 231.445C157.066 232.135 156.242 233.017 155.534 233.025C154.835 233.033 153.645 232.16 153.503 231.494C153.004 229.165 152.521 226.737 152.646 224.374C153.062 216.522 153.77 208.695 154.327 200.851C154.486 198.656 154.536 196.451 154.635 194.255C154.436 194.164 154.211 194.097 153.994 194.031Z" fill="white"/>
<path d="M257.531 167.014C256.974 170.599 256.491 174.193 255.858 177.769C254.335 186.287 252.745 194.796 251.155 203.297C251.006 204.079 250.872 205.143 250.34 205.501C249.241 206.241 247.876 206.982 246.636 206.957C246.011 206.948 244.846 205.243 244.904 204.362C245.121 201.018 245.612 197.674 246.211 194.372C247.951 184.831 249.824 175.316 251.58 165.775C251.988 163.579 253.028 161.924 254.876 160.709C258.871 158.098 260.286 154.097 260.661 149.622C260.819 147.734 261.543 146.561 263.524 146.444C265.497 146.336 266.421 147.476 266.812 149.264C267.603 152.882 267.603 152.741 271.24 152.392C276.359 151.901 279.506 155.527 277.375 159.961C275.885 163.047 274.045 166 272.056 168.794C271.448 169.651 269.576 170.441 268.71 170.117C267.02 169.485 266.746 167.696 267.486 166.025C268.277 164.22 269.201 162.473 270.058 160.701C269.842 160.485 269.625 160.26 269.409 160.044C268.593 160.668 267.353 161.134 267.045 161.949C265.464 166.124 265.197 170.408 267.145 174.55C267.411 175.124 268.668 175.665 269.359 175.557C275.535 174.55 278.657 177.345 277.599 183.6C276.975 187.285 275.61 190.853 274.528 194.463C273.612 197.499 274.004 197.657 276.725 199.238C284 203.463 291.117 207.972 298.25 212.422C299.873 213.436 300.589 214.992 300.273 216.972C299.923 219.192 298.583 220.116 296.519 219.184C294.405 218.228 292.365 217.063 290.36 215.882C284.125 212.205 277.899 208.529 271.731 204.744C270.258 203.838 269.492 204.087 268.327 205.302C266.221 207.481 263.965 209.61 261.452 211.274C259.87 212.322 257.723 212.713 255.775 212.946C254.793 213.062 253.062 212.388 252.795 211.665C252.462 210.758 252.978 209.153 253.686 208.338C255.517 206.216 257.64 204.345 259.679 202.399C263.391 198.847 263.399 198.864 259.554 195.295C258.497 194.314 257.49 193.266 256.433 192.276C255.484 191.386 255.417 190.496 256.358 189.589C259.862 186.204 260.12 182.02 259.504 177.537C259.021 174.068 258.78 170.566 258.43 167.073C258.122 167.056 257.831 167.031 257.531 167.014ZM269.975 184.465C269.709 184.316 269.451 184.158 269.184 184.008C266.696 185.231 264.998 187.31 263.841 189.755C263.591 190.279 264.423 191.56 265.064 192.151C265.314 192.384 266.829 191.877 267.078 191.369C268.177 189.132 269.026 186.778 269.975 184.465Z" fill="white"/>
<path d="M229.547 97.6767C221.923 97.6767 214.307 97.6933 206.682 97.6517C205.667 97.6434 204.552 97.5103 203.669 97.0612C202.92 96.6785 202.063 95.7968 201.98 95.0482C201.913 94.5076 202.929 93.4928 203.636 93.2765C205.267 92.7775 207.007 92.5113 208.713 92.3865C213.266 92.0455 217.836 91.8459 222.397 91.5298C224.07 91.4133 225.535 90.9891 225.627 88.8182C225.76 85.7239 225.036 84.8921 221.915 85.2581C220.142 85.4661 218.402 86.015 216.637 86.3145C215.048 86.5807 213.516 86.5557 213.05 84.5261C212.592 82.5715 213.216 81.2572 215.256 80.7332C217.586 80.1343 219.992 79.8182 222.381 79.4689C225.003 79.0863 226.543 75.6343 224.795 73.6048C224.362 73.1057 222.83 73.0309 222.106 73.3802C218.585 75.0771 217.137 74.3617 216.945 70.4523C216.862 68.7305 217.12 67.0004 217.104 65.2703C217.079 63.0744 217.112 60.8535 216.796 58.6825C216.471 56.4284 216.995 54.5985 218.902 53.4672C223.488 50.739 228.449 49.5246 233.809 50.2815C236.373 50.6475 237.821 52.2944 238.137 54.6733C238.678 58.7408 238.603 62.8664 236.997 66.7093C236.456 68.0069 235.266 69.1797 234.1 70.0281C232.677 71.0595 231.753 72.1159 232.044 73.9458C232.086 74.212 232.053 74.4948 232.053 74.7776C232.053 79.5022 232.044 79.5188 236.398 81.041C237.555 81.4485 238.97 81.9393 238.487 83.3117C238.229 84.0437 236.706 84.6676 235.715 84.7341C232.261 84.9753 231.387 85.4993 231.245 88.028C231.121 90.2405 231.52 90.7479 233.817 90.7313C239.361 90.6897 244.904 90.4817 250.448 90.5067C252.845 90.515 255.292 90.7146 257.631 91.2137C260.162 91.7544 261.035 93.0187 260.836 94.8403C260.653 96.4456 259.163 97.5686 256.782 97.6351C249.441 97.8514 242.099 98.0011 234.758 98.1508C233.027 98.1841 231.295 98.1591 229.556 98.1591C229.547 98.0011 229.547 97.843 229.547 97.6767ZM226.143 65.8276C225.302 65.2786 224.595 64.6714 224.478 64.7712C223.904 65.2537 223.338 65.8609 223.097 66.5429C223.005 66.8091 223.754 67.3747 224.12 67.8072C224.695 67.2416 225.269 66.676 226.143 65.8276ZM231.878 58.0005C232.327 57.3267 232.993 56.7029 232.868 56.4534C232.619 55.9293 231.953 55.2889 231.453 55.2805C231.029 55.2722 230.588 56.0874 230.163 56.5365C230.654 56.9524 231.145 57.3766 231.878 58.0005ZM231.587 66.4597C231.811 66.4597 232.044 66.4681 232.269 66.4681C232.502 65.7278 232.86 64.9958 232.91 64.2389C232.935 63.8479 232.394 63.432 232.111 63.0245C231.82 63.3988 231.312 63.7648 231.287 64.1557C231.237 64.9126 231.47 65.6862 231.587 66.4597ZM223.138 57.8175C223.405 58.1003 223.679 58.3831 223.946 58.6659C224.595 58.1336 225.236 57.6095 225.885 57.0772C225.535 56.7445 224.928 56.0874 224.886 56.129C224.262 56.6364 223.713 57.2436 223.138 57.8175Z" fill="white"/>
<path d="M76.3513 202.29C78.8817 195.453 78.3573 188.791 79.0898 182.286C79.5559 178.152 79.9388 173.943 81.0874 169.984C81.8033 167.513 83.7343 165.318 85.4407 163.255C86.0067 162.573 87.7297 162.315 88.6203 162.647C89.2029 162.864 89.5276 164.527 89.4776 165.517C89.2279 170.866 88.8117 176.206 88.4788 181.546C88.4538 181.92 88.612 182.311 88.7618 183.101C90.3766 182.552 91.8415 182.028 93.3231 181.571C94.6965 181.146 96.1032 180.473 97.4849 180.506C98.5503 180.531 100.198 181.271 100.481 182.078C100.781 182.926 100.032 184.515 99.2578 185.28C98.2756 186.262 96.8024 186.753 95.5289 187.435C93.9058 188.308 92.2577 189.148 90.6263 190.022C88.4372 191.186 87.1054 192.783 86.914 195.478C86.7891 197.258 85.8236 198.98 85.2243 200.718C84.2837 203.463 84.5001 204.445 87.2303 205.368C94.2221 207.73 101.297 209.851 108.339 212.064C113.158 213.578 117.994 215.067 122.814 216.597C123.729 216.888 124.62 217.288 125.477 217.712C127.458 218.685 128.782 220.149 128.141 222.503C127.541 224.74 125.569 225.131 123.696 224.94C120.117 224.566 116.496 224.191 113.025 223.301C98.6918 219.625 84.625 215.166 71.3655 208.421C65.2227 205.293 65.0063 205.484 62.7339 212.056C61.6103 215.316 60.3534 218.527 59.1049 221.738C58.7886 222.553 58.4307 223.551 57.7731 223.983C56.6744 224.707 55.0762 225.714 54.1523 225.364C53.2617 225.031 52.3461 223.052 52.5043 221.946C52.9621 218.718 53.8444 215.532 54.7516 212.38C56.6577 205.767 58.5722 199.155 60.7196 192.617C61.3273 190.77 62.5924 189.057 63.8576 187.535C64.6151 186.62 65.8969 185.854 67.0539 185.63C67.9612 185.455 69.0515 186.212 70.067 186.561C69.6508 187.418 69.4344 188.483 68.7935 189.098C65.9801 191.777 66.4546 195.395 65.847 198.697C65.8053 198.938 66.2132 199.446 66.4962 199.529C69.784 200.494 73.0802 201.384 76.3513 202.29Z" fill="white"/>
<path d="M180.604 41.398C177.716 40.6494 177.267 38.8444 177.7 36.923C177.933 35.875 178.798 34.4443 179.647 34.2114C180.521 33.9785 182.028 34.7437 182.735 35.5422C183.842 36.7982 184.508 38.4369 185.357 39.9174C185.565 39.9008 185.765 39.8842 185.973 39.8675C186.14 38.4369 186.289 36.9979 186.489 35.5755C186.697 34.0783 186.764 32.5145 187.272 31.1255C187.53 30.4351 188.628 29.7447 189.402 29.6698C189.852 29.6282 190.709 30.7511 190.867 31.4665C191.275 33.3713 191.4 35.3343 191.633 37.2807C191.85 37.2973 192.074 37.3139 192.291 37.3306C192.59 36.3907 192.89 35.4507 193.198 34.5191C193.606 33.3047 194.08 32.0321 195.653 32.1569C197.302 32.2816 197.335 33.7539 197.593 34.9434C197.726 35.5506 197.776 36.1744 197.776 36.7982C197.776 38.3121 198.558 39.0856 199.898 39.7428C200.756 40.1587 202.004 41.3814 201.863 41.922C201.597 42.9119 200.589 43.9599 199.615 44.4507C198.225 45.1577 196.594 45.3906 195.062 45.8148C193.165 46.3388 192.499 47.3453 193.148 49.1835C194.022 51.6456 195.004 54.0744 196.103 56.4367C196.361 57.0023 197.243 57.335 197.901 57.6511C200.273 58.7657 202.729 59.7223 205.034 60.9533C206.391 61.677 207.515 62.8498 206.882 64.688C206.258 66.4764 204.818 67.0836 203.095 66.8923C201.605 66.7259 200.14 66.3017 198.675 65.9191C197.543 65.6196 196.453 65.1372 195.312 64.8877C193.09 64.3969 192.341 65.0956 192.158 67.3997C191.808 71.9412 191.425 76.4828 190.959 81.016C190.859 82.0225 190.485 83.0539 190.01 83.9522C189.045 85.7738 186.972 85.8986 186.148 84.0354C185.332 82.1888 184.816 80.1094 184.65 78.0964C184.425 75.4181 184.666 72.7065 184.683 70.0115C184.683 69.2878 184.575 68.5558 184.517 67.8322C184.317 67.7324 184.125 67.6326 183.926 67.5327C182.694 68.9551 181.445 70.3608 180.23 71.7998C178.94 73.322 177.533 74.5364 175.327 74.4283C172.397 74.2868 171.049 72.0826 172.639 69.5873C173.821 67.7324 175.344 66.0938 176.751 64.3886C179.006 61.677 181.37 59.0485 183.526 56.262C184.433 55.0892 185.149 53.6669 185.574 52.2445C186.156 50.3231 185.44 49.4913 183.426 49.4913C181.836 49.4913 180.247 49.849 178.673 49.7658C177.017 49.6826 174.911 49.9321 174.328 47.7861C173.721 45.5902 175.535 44.6503 177.075 43.6771C178.107 43.02 179.115 42.3629 180.604 41.398Z" fill="white"/>
<path d="M144.78 21.6764C143.199 25.0617 141.734 28.1643 140.327 31.2835C140.177 31.6245 140.31 32.0903 140.31 32.7142C140.818 32.5062 141.251 32.3981 141.609 32.1818C146.52 29.1624 152.072 30.6264 154.244 36.0247C155.584 39.3601 156.492 43.0616 156.633 46.6383C157.082 57.9007 156.999 69.188 155.06 80.3423C154.585 83.0872 153.545 85.7738 152.446 88.3524C151.589 90.357 149.758 91.4799 147.552 91.7876C145.496 92.0704 144.489 91.1139 144.722 89.0843C144.814 88.2775 145.047 87.4374 145.421 86.7221C149.025 79.8016 149.4 72.2823 149.558 64.7296C149.575 64.0309 148.875 63.0411 148.235 62.6585C144.439 60.396 140.602 58.1835 136.69 56.129C134.334 54.8896 132.678 53.4506 133.136 50.5061C133.202 50.0486 132.969 49.3083 132.619 49.0754C130.181 47.4451 130.281 45.0496 130.855 42.7455C132.47 36.2576 135 30.1356 139.145 24.8122C140.51 23.0405 142.033 21.2937 144.78 21.6764ZM149.45 48.6179C148.792 45.6734 148.368 42.654 147.352 39.8343C146.928 38.6531 145.388 37.5136 144.114 37.0977C142.533 36.5903 141.251 37.813 140.477 39.2437C139.22 41.5477 138.055 43.9017 136.781 46.1891C136.04 47.5117 136.257 48.3684 137.697 48.9257C140.144 49.8739 142.55 50.9469 145.022 51.812C148.942 53.1844 149.275 52.885 149.45 48.6179Z" fill="white"/>
<path d="M380.712 62.0346C385.29 62.0513 385.19 62.0013 386.863 58.5162C387.271 57.6594 388.503 56.9275 389.485 56.6946C390.875 56.3618 391.349 57.5014 391.474 58.7324C391.591 59.9552 392.398 60.1631 393.405 59.9468C394.288 59.7555 395.137 59.3812 396.019 59.298C397.034 59.1982 398.333 58.616 398.799 60.213C399.215 61.6187 398.965 62.8997 397.6 63.6233C396.385 64.2638 395.02 64.6132 393.796 65.237C393.072 65.6113 392.498 66.2684 391.849 66.8008C392.631 67.2416 393.372 67.8654 394.213 68.0817C395.053 68.298 396.052 67.907 396.884 68.1316C397.717 68.3562 398.932 68.9052 399.082 69.5207C399.265 70.3192 398.824 71.6417 398.175 72.1741C397.034 73.1223 395.611 73.8626 394.179 74.3201C390.592 75.468 389.693 78.2295 389.31 81.7563C390.217 81.8145 391 81.9226 391.79 81.906C398.791 81.7895 405.782 81.5151 412.774 81.5899C415.571 81.6149 418.434 82.1306 421.123 82.9041C423.537 83.5945 423.836 86.0982 421.872 87.5289C421.331 87.9281 420.465 88.0196 419.749 88.0279C412.266 88.1278 404.784 88.1527 397.301 88.2442C389.102 88.344 381.053 89.5751 373.037 91.2303C371.364 91.5797 369.6 91.6961 367.893 91.6213C367.178 91.588 366.079 90.881 365.912 90.2654C365.729 89.6 366.195 88.3939 366.786 87.9531C367.977 87.0631 369.375 86.2812 370.798 85.8986C374.536 84.8921 378.331 84.1102 382.118 83.2784C383.9 82.8875 385.564 80.5751 385.09 78.8783C384.965 78.4208 384.308 77.8552 383.85 77.8136C382.984 77.7304 382.077 77.98 381.195 78.1131C379.33 78.4042 377.74 77.4643 377.341 75.784C376.9 73.9458 377.757 72.9061 379.455 72.3488C380.703 71.9412 381.985 71.5752 383.151 70.9846C383.908 70.602 384.699 69.9699 385.082 69.2462C385.856 67.7656 385.231 66.8756 383.567 66.9338C382.052 66.9838 380.512 67.0503 379.039 67.3747C378.489 67.4995 378.115 68.3895 377.632 68.9052C376.791 69.8035 375.926 70.6769 375.068 71.5669C374.794 70.3858 374.236 69.1963 374.294 68.0401C374.561 62.725 377.823 59.2065 381.819 56.2371C382.243 55.921 383.076 56.1373 383.717 56.1123C383.692 56.7528 383.891 57.5347 383.6 58.0171C382.818 59.323 381.819 60.5374 380.712 62.0346Z" fill="white"/>
<path d="M51.8809 74.0955C50.5158 74.1454 49.1507 74.1454 47.794 74.2702C46.5621 74.3866 45.3635 74.7027 44.1316 74.8191C40.7606 75.1435 39.4288 74.4199 39.0626 72.1741C38.6797 69.7952 40.2445 67.9486 43.1911 67.6658C47.1281 67.2832 51.0901 67.0669 55.0438 66.8257C56.9916 66.7092 58.8394 66.5346 60.3293 68.2148C61.994 70.1029 63.6671 71.9245 62.9263 74.3617C62.5184 75.7175 61.6777 77.0483 60.7122 78.2045C58.9476 80.3256 56.9416 82.3136 54.7525 84.6758C56.026 84.9087 56.8667 85.0834 57.7157 85.2082C65.9144 86.3893 70.0845 93.002 65.7396 98.7996C59.6468 106.918 50.599 112.083 39.6369 114.936C38.946 115.119 38.1553 115.053 37.4145 115.069C34.4263 115.152 33.1611 114.462 32.8282 112.591C32.4453 110.453 33.6606 108.656 36.1243 108.165C43.1827 106.768 49.0592 103.632 54.3363 99.6896C55.8845 98.5334 57.0831 96.9696 58.0903 95.4225C59.139 93.8172 58.0486 92.6027 56.0593 92.5029C53.5289 92.3865 50.9736 92.6776 48.4266 92.844C46.6953 92.9521 44.9723 93.2931 43.2493 93.2682C41.0602 93.2349 39.1874 92.4697 38.2219 90.7312C37.3063 89.076 38.0804 87.5788 39.4288 86.3727C42.7416 83.3949 46.1959 80.5252 49.5336 77.564C50.5491 76.6574 51.3648 75.5927 52.2721 74.6029C52.1472 74.4449 52.0141 74.2702 51.8809 74.0955Z" fill="white"/>
<path d="M119.901 57.2852C119.369 62.0014 119.102 65.7943 118.461 69.5207C118.003 72.1908 116.472 74.37 113.95 75.6593C112.543 76.3747 111.186 76.541 110.013 75.1519C109.721 74.8109 109.13 74.3285 108.864 74.4283C106.717 75.2268 104.611 76.1667 102.488 77.0234C101.473 77.431 100.341 78.2129 99.4418 78.0216C98.6511 77.8469 97.6273 76.5826 97.5524 75.7342C97.3277 73.0059 97.5607 70.2444 97.4941 67.4912C97.311 60.1382 98.9591 53.1512 101.573 46.3472C103.121 42.3213 105.909 39.7927 110.329 39.46C114.408 39.1522 117.146 40.9073 118.003 44.8749C118.944 49.2418 119.377 53.7085 119.901 57.2852ZM114.15 58.6659C111.744 59.2814 109.522 59.714 107.399 60.4127C104.12 61.494 102.805 64.1723 103.687 67.5577C103.953 68.5808 104.469 69.2047 105.601 68.5975C107.674 67.4995 109.838 66.5263 111.761 65.2121C113.758 63.8479 114.707 61.8184 114.15 58.6659ZM104.536 53.5588C106.633 53.0514 108.448 52.4192 110.304 52.2113C113.717 51.8453 114.166 51.2214 112.776 48.044C112.61 47.6614 112.435 47.2871 112.219 46.9377C111.02 44.983 109.197 44.6087 107.541 46.1475C105.485 48.069 104.727 50.5726 104.536 53.5588Z" fill="white"/>
<path d="M310.403 71.9995C312.567 72.9227 314.415 73.8211 316.338 74.4948C325.069 77.5724 333.834 80.5835 342.574 83.6445C343.872 84.102 345.237 84.5428 346.361 85.2997C347.152 85.8321 348.117 86.9467 348.034 87.7036C347.926 88.7267 347.11 90.0326 346.211 90.5483C343.431 92.1537 340.343 91.5631 337.521 90.723C331.77 89.0095 326.076 87.0714 320.449 84.9837C313.907 82.5548 307.465 79.8682 300.972 77.2896C300.781 77.2148 300.589 77.1233 300.398 77.0484C296.136 75.2933 295.878 73.9375 299.549 71.2259C303.886 68.0235 308.355 65.0041 312.783 61.9182C313.291 61.5689 313.866 61.3027 314.415 61.0199C315.697 60.3628 316.604 60.8618 317.47 61.8849C318.327 62.908 318.111 63.8147 317.345 64.6465C315.797 66.3184 314.165 67.9237 312.584 69.5623C311.943 70.2527 311.327 70.9764 310.403 71.9995Z" fill="white"/>
<path d="M353.369 200.985C355.924 202.066 358.063 203.097 360.303 203.887C370.374 207.439 380.471 210.908 390.55 214.434C392.14 214.992 393.788 215.532 395.178 216.447C396.094 217.055 397.168 218.336 397.118 219.259C397.059 220.373 396.127 221.846 395.137 222.428C391.841 224.366 388.17 223.734 384.824 222.711C377.474 220.448 370.199 217.911 362.983 215.25C356.057 212.696 349.24 209.843 342.382 207.115C342.082 206.998 341.791 206.865 341.491 206.74C336.822 204.777 336.522 203.23 340.567 200.236C345.661 196.46 350.922 192.908 356.124 189.281C356.715 188.874 357.373 188.558 358.014 188.225C359.362 187.543 360.436 187.859 361.41 189.015C362.417 190.213 362.425 191.377 361.418 192.459C359.612 194.397 357.714 196.243 355.874 198.156C355.125 198.93 354.434 199.778 353.369 200.985Z" fill="white"/>
<path d="M351.612 173.785C351.421 176.647 351.504 179.342 350.971 181.903C350.647 183.475 349.706 185.264 348.474 186.245C345.977 188.233 343.197 189.938 340.342 191.386C338.011 192.567 337.579 194.322 337.37 196.618C336.879 202.033 336.247 207.439 335.464 212.821C335.215 214.526 334.574 216.306 333.633 217.728C332.992 218.693 331.502 219.65 330.429 219.608C329.521 219.575 328.073 218.219 327.898 217.254C327.407 214.609 327.058 211.814 327.374 209.169C328.489 199.853 329.821 190.562 331.269 181.288C331.594 179.208 332.684 177.237 333.467 175.232C334.291 173.111 335.34 171.057 335.997 168.878C337.096 165.251 343.771 161.292 347.484 162.198C349.581 162.706 350.655 164.203 350.963 166.083C351.379 168.695 351.429 171.356 351.612 173.785ZM344.92 177.853C340.259 178.435 339.843 181.962 338.785 184.981C341.632 183.509 343.355 181.055 344.92 177.853ZM338.686 172.596C338.835 172.92 338.994 173.253 339.143 173.577C341.025 173.062 342.939 172.612 344.778 171.972C345.228 171.814 345.461 171.032 345.794 170.533C345.236 170.242 344.504 169.568 344.146 169.726C342.273 170.566 340.492 171.614 338.686 172.596Z" fill="white"/>
<path d="M308.555 49.1752C308.555 51.1798 308.555 53.1845 308.555 55.1891C308.555 57.1687 307.589 58.616 305.975 59.6474C303.819 61.0199 301.721 62.5337 299.432 63.6483C297.268 64.6964 296.785 66.31 296.636 68.4561C296.353 72.5235 295.978 76.5826 295.387 80.6168C295.104 82.5631 294.455 84.5428 293.548 86.2896C293.081 87.1879 291.658 88.1028 290.693 88.0696C289.885 88.0446 288.603 86.7637 288.437 85.8653C288.012 83.5946 287.771 81.1907 288.037 78.9033C288.895 71.5004 289.81 64.0892 291.125 56.7528C291.658 53.7833 293.273 51.0052 294.397 48.1438C294.696 47.3869 295.204 46.6716 295.32 45.8897C295.853 42.2381 300.639 38.2373 304.31 38.4702C306.724 38.6199 308.272 40.009 308.563 42.7539C308.788 44.8749 308.605 47.0292 308.605 49.1752C308.58 49.1752 308.563 49.1752 308.555 49.1752ZM297.876 58.1918C300.306 56.8693 301.946 54.9063 303.028 52.1614C299.066 52.5856 298.8 55.6549 297.876 58.1918ZM297.751 47.6032C297.867 47.886 297.984 48.1688 298.101 48.4516C299.724 48.0024 301.372 47.6198 302.962 47.0708C303.378 46.9294 303.611 46.2806 303.927 45.8647C303.378 45.6152 302.679 45.008 302.312 45.166C300.747 45.8564 299.266 46.7714 297.751 47.6032Z" fill="white"/>
<path d="M385.581 32.9637C386.929 33.1966 387.862 33.3214 388.794 33.5127C391.973 34.1698 395.17 34.7271 398.308 35.5506C400.264 36.058 401.262 37.838 400.771 39.252C400.264 40.716 398.607 41.2566 396.618 40.899C392.614 40.1836 388.594 39.5764 384.574 38.9858C382.135 38.6282 380.121 39.5182 378.373 41.215C377.44 42.13 376.492 43.1864 375.343 43.6771C374.444 44.0597 372.921 44.0348 372.213 43.4941C371.689 43.0866 371.864 41.5394 372.03 40.5496C372.163 39.7844 372.771 39.1023 373.129 38.4618C373.054 38.204 373.054 38.0293 372.962 37.9544C370.332 35.7086 370.515 35.2761 373.736 33.7872C375.817 32.8223 377.715 31.4083 379.605 30.0774C380.146 29.6948 380.37 28.8713 380.986 27.8233C378.756 27.9397 376.999 28.1477 375.243 28.0894C373.828 28.0395 372.346 27.8898 371.056 27.3741C370.357 27.0913 369.658 25.9601 369.616 25.1865C369.583 24.5294 370.365 23.498 371.031 23.1985C373.179 22.2586 375.434 21.5682 377.665 20.8196C379.305 20.2707 380.462 19.5387 380.262 17.4592C380.146 16.2448 380.462 14.889 382.077 14.6145C383.675 14.3483 385.007 14.7226 385.531 16.4528C386.172 18.5655 387.77 17.9916 389.268 17.9084C390.617 17.8335 392.073 17.6672 393.297 18.0831C394.212 18.3991 395.353 19.522 395.453 20.3871C395.577 21.4934 394.945 22.8409 394.279 23.839C393.838 24.5044 392.822 24.937 391.982 25.1532C388.07 26.1514 387.246 29.5617 385.581 32.9637Z" fill="white"/>
<path d="M234.791 175.931C235.782 175.291 236.73 174.575 237.771 174.043C238.903 173.469 240.102 172.737 241.3 172.687C242.324 172.646 243.714 173.211 244.313 173.985C244.663 174.434 244.03 176.139 243.364 176.763C240.559 179.391 237.579 181.82 234.425 184.532C235.39 184.881 236.189 185.189 237.005 185.447C238.695 185.979 239.144 187.26 239.044 188.832C238.945 190.479 237.838 190.978 236.398 190.978C234.117 190.978 233.301 192.151 233.384 194.339C233.551 198.755 233.651 203.172 233.709 207.589C233.726 208.862 233.726 210.209 233.343 211.399C233.076 212.247 232.161 213.486 231.528 213.486C230.529 213.495 229.248 212.838 228.59 212.047C227.932 211.265 227.674 209.968 227.624 208.887C227.433 204.162 227.391 199.429 227.267 194.705C227.225 193.232 227.1 191.752 226.975 189.523C225.685 190.571 224.919 191.061 224.32 191.71C222.963 193.191 221.723 194.779 220.366 196.26C219.775 196.9 219.068 197.624 218.285 197.824C217.37 198.057 216.321 197.749 215.339 197.682C215.447 196.801 215.264 195.744 215.697 195.079C217.753 191.918 219.992 188.865 222.139 185.763C223.929 183.184 225.735 180.622 227.441 178.002C228.315 176.663 229.164 175.257 229.697 173.76C230.055 172.737 229.839 171.514 229.88 170.383C228.756 170.766 227.566 171.007 226.542 171.564C225.652 172.055 225.028 173.028 224.154 173.561C222.58 174.517 220.749 174.317 219.842 172.895C219.234 171.939 219.168 169.884 219.8 169.011C222.206 165.708 225.635 163.712 229.772 163.388C232.768 163.155 234.824 165.259 235.041 168.453C235.124 169.651 235.099 170.866 234.958 172.063C234.824 173.236 234.491 174.384 234.25 175.54C234.425 175.673 234.608 175.798 234.791 175.931Z" fill="white"/>
<path d="M368.401 53.8499C369.883 53.3092 370.99 52.9931 372.014 52.5024C379.105 49.1503 386.613 47.4867 394.396 46.8961C395.211 46.8296 396.052 46.946 396.876 46.9959C398.108 47.0708 398.999 47.5532 399.148 48.9257C399.307 50.3397 398.849 51.4709 397.434 51.8536C394.113 52.7519 390.767 53.5837 387.404 54.3406C383.5 55.214 379.571 56.0125 375.643 56.7777C373.886 57.1188 372.089 57.4265 370.307 57.4764C368.393 57.5264 367.386 58.3498 366.945 60.1548C365.696 65.2453 364.422 70.3276 363.107 75.4014C362.783 76.6658 362.317 77.9051 361.767 79.0863C361.268 80.1759 360.427 81.4153 359.112 80.6916C358.196 80.1925 357.223 78.9282 357.156 77.955C357.039 76.1334 357.397 74.2369 357.855 72.4403C359.67 65.3701 361.543 58.3082 363.515 51.2796C363.973 49.641 364.839 48.0939 365.679 46.5967C366.32 45.4571 367.169 44.2178 368.792 44.9165C370.499 45.6568 369.849 47.0625 369.508 48.3018C369.25 49.2334 368.834 50.1151 368.618 51.0551C368.451 51.812 368.493 52.6105 368.401 53.8499Z" fill="white"/>
<path d="M7.75684 42.288C10.1124 33.5044 12.4264 24.7207 14.8569 15.9537C15.889 12.2356 17.1292 8.55909 18.3361 4.88259C18.6441 3.95099 19.0519 3.01939 19.6346 2.1876C20.9331 0.349353 23.4052 -0.440844 25.278 0.266174C27.2007 0.989829 28.7489 3.94267 27.6252 5.50643C24.4456 9.93153 24.5455 14.9306 23.3552 19.7133C21.241 28.1976 18.9354 36.6485 16.6464 45.0995C16.1637 46.8712 14.8152 48.0523 12.4264 48.2603C9.87935 48.4765 8.49764 47.5948 8.29787 45.532C8.19799 44.5006 8.28122 43.4525 8.28122 42.4128C8.10643 42.3629 7.93163 42.3213 7.75684 42.288Z" fill="white"/>
<path d="M0.873522 80.0012C3.68689 76.4329 5.94258 73.1972 8.41469 70.5189C18.8275 59.2232 29.2736 47.9858 39.7863 36.9646C43.69 32.8722 47.7686 29.1541 51.8471 25.7771C55.0184 23.1486 57.2575 23.9222 57.2158 27.0497C57.2075 28.0562 56.55 29.8029 55.8508 30.8177C54.6522 32.5561 53.2122 34.0118 51.8388 35.5339C39.3035 49.4414 26.8015 63.4154 14.2079 77.1732C11.1698 80.492 7.86533 83.187 4.6441 85.9236C2.7713 87.5123 0.623814 88.3274 0.0911052 86.2313C-0.283456 84.7591 0.573873 82.114 0.873522 80.0012Z" fill="white"/>
<path d="M214.614 30.5349C214.823 26.7419 215.072 22.9573 215.239 19.1643C215.33 16.9767 216.362 15.5877 218.518 15.2965C222.006 14.8307 225.502 14.3649 229.006 14.2152C231.387 14.1154 233.268 15.4296 234.3 17.6089C236.339 21.9009 236.747 26.2345 234.092 30.4434C232.452 33.0302 230.055 34.1199 226.983 33.5459C225.826 33.3297 224.653 33.2132 223.512 32.9387C221.29 32.3981 219.517 32.5228 218.418 35.0099C218.135 35.6503 216.695 36.0746 215.813 36.033C215.347 36.008 214.706 34.8019 214.565 34.045C214.356 32.9138 214.506 31.7077 214.506 30.5349C214.54 30.5349 214.581 30.5349 214.614 30.5349ZM220.741 27.6319C220.791 27.8565 220.849 28.0728 220.899 28.2973C223.521 29.229 226.226 29.2456 228.923 28.6467C229.439 28.5302 229.763 27.5654 230.18 26.9914C229.639 26.6837 229.089 26.1098 228.565 26.1264C226.575 26.1929 224.578 26.3926 222.605 26.6837C221.948 26.7752 221.357 27.2992 220.741 27.6319ZM220.99 21.6763C224.22 21.2272 227.058 20.8279 230.246 20.3871C227.966 17.9499 222.697 18.6736 220.99 21.6763Z" fill="white"/>
<path d="M341.641 144.282C337.271 149.339 333.134 154.346 328.748 159.129C325.668 162.498 322.297 165.609 318.959 168.736C318.11 169.526 316.97 170.175 315.846 170.45C315.064 170.641 313.757 170.375 313.316 169.817C312.891 169.285 313.008 167.971 313.374 167.247C314.132 165.758 315.122 164.361 316.188 163.063C322.23 155.669 328.298 148.299 334.424 140.963C335.282 139.94 336.364 139.008 337.521 138.343C339.26 137.345 340.95 137.461 342.557 138.991C343.689 140.065 345.07 140.988 346.494 141.645C351.804 144.107 357.173 146.461 362.542 148.807C364.156 149.514 365.455 150.379 364.922 152.375C364.423 154.23 362.825 154.38 361.243 154.371C356.282 154.338 352.054 152.275 348.167 149.439C345.969 147.842 343.897 146.07 341.641 144.282Z" fill="white"/>
<path d="M300.306 23.2151C296.586 27.5321 293.032 31.8574 289.261 35.9831C286.606 38.886 283.709 41.581 280.813 44.251C279.989 45.0079 278.823 45.507 277.725 45.7981C277.167 45.9479 276.21 45.5237 275.81 45.0412C275.511 44.6669 275.577 43.6688 275.868 43.1947C277.075 41.2649 278.324 39.3352 279.764 37.5718C284.533 31.7326 289.378 25.9517 294.247 20.1958C294.988 19.3224 295.962 18.5571 296.969 18.0165C298.417 17.2346 299.815 17.3926 301.131 18.632C302.113 19.5553 303.286 20.3621 304.518 20.9277C309.163 23.0821 313.857 25.1199 318.535 27.1911C319.759 27.7317 320.791 28.4138 320.474 29.9609C320.142 31.5829 318.86 31.8824 317.461 31.899C313.416 31.9323 309.887 30.4018 306.666 28.1227C304.518 26.6005 302.504 24.9203 300.306 23.2151Z" fill="white"/>
<path d="M43.0827 181.587C41.7176 182.477 40.7271 183.226 39.6534 183.808C37.9803 184.723 36.3323 185.888 34.5344 186.304C31.3881 187.027 29.4071 184.865 30.4059 181.804C30.8886 180.306 31.979 178.734 33.2359 177.794C37.7306 174.442 42.808 172.213 48.3848 171.373C49.5168 171.198 51.2398 171.489 51.8225 172.238C52.2969 172.845 51.4645 174.459 51.2148 175.632C50.3242 179.832 49.2005 183.999 48.6012 188.25C47.6856 194.68 47.1696 201.168 46.4038 207.622C46.254 208.878 45.8378 210.134 45.3301 211.299C44.6142 212.946 43.4073 214.277 41.418 213.719C39.6118 213.212 38.6379 211.731 38.8626 209.843C39.4952 204.528 40.1611 199.213 40.9935 193.931C41.5262 190.529 42.4002 187.177 43.0827 183.792C43.1659 183.268 43.0827 182.71 43.0827 181.587Z" fill="white"/>
<path d="M63.9412 165.833C62.7343 167.547 61.6273 169.194 60.4287 170.782C59.7628 171.672 59.1052 172.804 58.173 173.211C57.0327 173.702 55.3846 174.01 54.4024 173.511C53.6949 173.153 53.2455 171.215 53.5201 170.217C54.2193 167.688 55.2265 165.209 56.4084 162.855C58.5143 158.622 60.8282 154.496 63.0756 150.337C63.4585 149.638 63.9413 148.981 64.4323 148.357C66.2053 146.095 68.2612 145.463 70.0175 146.611C71.807 147.775 72.6394 150.853 71.0912 152.841C68.6108 156.043 68.0365 158.705 71.3576 161.691C72.3314 162.564 72.989 164.22 73.0722 165.559C73.1471 166.79 72.5312 168.379 71.6655 169.244C71.0912 169.818 69.3183 169.768 68.436 169.318C66.9044 168.512 65.6559 167.197 63.9412 165.833Z" fill="white"/>
<path d="M90.9179 151.102C93.0821 150.495 94.7468 150.021 96.4115 149.563C98.534 148.981 100.24 149.688 101.464 151.41C102.846 153.34 102.13 155.328 99.9324 156.093C94.6303 157.931 89.3281 159.753 84.051 161.649C82.1449 162.331 80.5301 161.699 79.6312 160.235C79.0568 159.295 78.9153 157.474 79.4564 156.575C81.7204 152.807 84.2924 149.214 86.8144 145.596C87.2056 145.03 87.8632 144.44 88.4875 144.307C89.5279 144.082 90.9596 143.816 91.6338 144.34C92.258 144.822 92.3246 146.328 92.2247 147.343C92.1249 148.424 91.5256 149.447 90.9179 151.102Z" fill="white"/>
<path d="M235.315 38.9526C237.055 39.1439 238.745 39.1522 240.309 39.5847C241.025 39.7844 241.516 40.8241 242.107 41.4729C241.45 42.0468 240.85 43.0366 240.126 43.1448C234.308 43.9932 228.473 44.7169 222.63 45.4072C218.993 45.8314 215.339 46.1392 211.693 46.4802C211.002 46.5468 210.22 46.7714 209.645 46.5301C208.888 46.2057 207.947 45.6235 207.698 44.9331C207.273 43.7437 207.947 42.7289 209.279 42.5376C212.084 42.1383 214.898 41.8805 217.703 41.4895C223.596 40.6744 229.472 39.801 235.315 38.9526Z" fill="white"/>
<path d="M53.2538 156.625C52.9375 157.066 52.4797 158.148 51.6723 158.755C47.8268 161.658 43.923 164.477 39.9693 167.231C38.9372 167.946 37.697 168.437 36.4817 168.778C34.4758 169.343 32.7944 168.636 31.729 166.856C30.6386 165.018 30.3056 163.088 31.9204 161.317C32.5114 160.668 33.1273 159.928 33.8848 159.562C38.4794 157.324 43.0241 154.937 47.7685 153.09C50.6318 151.976 53.1955 153.664 53.2538 156.625Z" fill="white"/>
<path d="M94.4974 38.0459C94.5889 37.7382 94.7054 36.8066 95.1383 36.058C98.2263 30.7345 102.58 26.8834 108.489 24.9453C110.096 24.4213 111.802 24.3215 112.543 26.193C113.275 28.0395 112.252 29.1292 110.603 30.144C107.391 32.1319 104.303 34.3528 101.306 36.6568C100.207 37.5053 99.4499 38.8528 98.6591 40.0422C98.1348 40.8324 98.1597 42.4793 96.753 41.8306C95.8042 41.398 95.2298 40.142 94.514 39.2271C94.4141 39.1106 94.4974 38.8444 94.4974 38.0459Z" fill="white"/>
<path d="M226.734 153.806C226.734 153.082 226.701 152.358 226.743 151.635C226.859 149.655 228.441 148.515 230.397 148.956C232.436 149.422 234.275 152.383 233.726 154.396C233.285 156.018 232.752 157.623 232.278 159.237C231.87 160.626 231.063 161.508 229.498 161.333C228.024 161.175 227.167 160.427 227.142 158.83C227.126 157.956 226.892 157.083 226.826 156.201C226.768 155.403 226.818 154.596 226.818 153.797C226.784 153.806 226.759 153.806 226.734 153.806Z" fill="white"/>
<path d="M301.322 36.6652C299.174 36.4489 297.226 37.0311 297.027 34.6356C296.877 32.9387 298.433 31.6578 300.822 31.7243C302.27 31.7576 303.852 32.0571 305.117 32.7225C306.574 33.4794 306.424 35.1014 304.892 35.7668C303.594 36.3158 302.121 36.4738 301.322 36.6652Z" fill="white"/>
<path d="M342.049 159.811C341.891 159.811 341.724 159.811 341.566 159.811C339.96 159.786 338.17 160.002 337.762 157.823C337.446 156.135 338.969 154.396 341.2 154.238C342.906 154.113 344.729 154.288 346.344 154.804C347.143 155.062 348.05 156.384 348.067 157.249C348.083 157.915 346.91 158.904 346.061 159.229C344.829 159.711 343.414 159.736 342.074 159.953C342.066 159.911 342.057 159.861 342.049 159.811Z" fill="white"/>
</svg>
