<svg width="77" height="79" viewBox="0 0 77 79" fill="none" xmlns="http://www.w3.org/2000/svg">
<g filter="url(#filter0_d_711_5706)">
<path d="M30.706 8.00944C29.9907 8.55104 29.4117 8.83538 29.0438 9.28221C24.6024 14.7321 20.7127 20.5002 19.0301 27.4395C18.4238 29.958 18.2127 32.5306 19.1391 35.0694C19.8135 36.9244 20.6446 37.4592 22.2999 36.4979C24.3299 35.3199 26.2032 33.8575 28.0902 32.4426C28.5397 32.1109 28.7714 31.4948 29.4117 30.5538C27.9471 30.6621 26.9798 30.7162 26.0125 30.8042C23.8599 31.0006 22.7154 30.4454 22.4838 29.0711C22.2113 27.4124 23.1923 26.0246 25.1337 25.5642C27.4362 25.0226 29.7523 24.5216 32.0888 24.1764C35.3995 23.6821 36.7347 24.8601 36.7074 28.2113C36.687 30.96 36.578 33.7154 36.3872 36.464C36.0194 41.7853 35.6652 47.1066 35.0861 52.4075C34.909 54.0256 34.1733 55.6301 33.4444 57.1195C32.7496 58.5344 31.4757 59.3333 29.8 58.8458C28.1923 58.3787 27.5179 57.0721 27.7359 55.5759C28.2332 52.1503 28.9417 48.7585 29.5547 45.3463C29.9022 43.3966 30.2291 41.4468 30.6379 39.0637C28.9008 40.3636 27.7223 41.5348 26.2986 42.2389C24.6228 43.0784 22.7699 43.9179 20.9375 44.0533C15.9579 44.4324 12.6949 41.0677 12.1295 35.4553C11.4687 28.9222 13.4306 22.9171 15.8897 17.0272C17.4361 13.3172 19.5138 9.90506 22.4157 7.06163C24.5138 5.0103 27.0275 3.85262 30.0384 4.0151C32.1978 4.13019 33.9077 5.4165 34.3164 7.21734C34.3504 7.37982 34.4118 7.5423 34.4118 7.70478C34.3709 8.93694 33.9826 9.89152 32.5861 10.1488C31.1215 10.4196 30.8627 9.47854 30.706 8.00944Z" fill="white"/>
<path d="M46.7212 32.5238C47.307 29.5179 47.6953 26.4443 48.54 23.5061C49.9297 18.6655 52.8725 17.0068 57.4434 18.1103C62.1642 19.2409 64.9639 22.9306 63.8944 27.4124C62.968 31.312 61.626 35.1641 60.0047 38.8335C58.3426 42.5977 55.3044 43.5455 51.2512 42.5435C49.6436 42.1508 48.4787 41.1286 48.0836 39.5511C47.525 37.2832 47.1844 34.961 46.7212 32.5238ZM57.6273 28.4008C57.5933 28.1571 57.6273 27.4463 57.3889 26.837C57.1573 26.2344 56.66 25.2934 56.2717 25.2866C55.5565 25.2798 54.3848 25.686 54.1804 26.2073C53.0564 29.1862 52.1777 32.2598 52.8589 35.4959C52.9542 35.9562 53.397 36.5317 53.8126 36.6806C54.0919 36.7822 54.7458 36.3218 55.0047 35.9562C56.5306 33.8304 57.6614 31.5354 57.6273 28.4008Z" fill="white"/>
</g>
<defs>
<filter id="filter0_d_711_5706" x="0" y="0" width="76.1216" height="78.9893" filterUnits="userSpaceOnUse" color-interpolation-filters="sRGB">
<feFlood flood-opacity="0" result="BackgroundImageFix"/>
<feColorMatrix in="SourceAlpha" type="matrix" values="0 0 0 0 0 0 0 0 0 0 0 0 0 0 0 0 0 0 127 0" result="hardAlpha"/>
<feOffset dy="8"/>
<feGaussianBlur stdDeviation="6"/>
<feComposite in2="hardAlpha" operator="out"/>
<feColorMatrix type="matrix" values="0 0 0 0 0 0 0 0 0 0 0 0 0 0 0 0 0 0 0.25 0"/>
<feBlend mode="normal" in2="BackgroundImageFix" result="effect1_dropShadow_711_5706"/>
<feBlend mode="normal" in="SourceGraphic" in2="effect1_dropShadow_711_5706" result="shape"/>
</filter>
</defs>
</svg>
