<svg width="1163" height="806" viewBox="0 0 1163 806" fill="none" xmlns="http://www.w3.org/2000/svg">
<g clip-path="url(#clip0_248_100)">
<path d="M1094.87 781.957C1083.56 779.611 1073.56 774.964 1064.77 765.654C1064.77 775.942 1064.77 786.23 1064.77 798.748L1080.67 802.158L1095.46 804.201L1095.82 789.252C1095.82 788.331 1095.82 785.654 1095.82 782.978C1095.5 782.633 1095.18 782.287 1094.87 781.957Z" fill="#668C4A"/> 

<!-- <animateMotion path="M1094.87 781.957C1083.56 779.611 1073.56 774.964 1064.77 765.654C1064.77 775.942 1064.77 786.23 1064.77 798.748L1080.67 802.158L1095.46 804.201L1095.82 789.252C1095.82 788.331 1095.82 785.654 1095.82 782.978C1095.5 782.633 1095.18 782.287 1094.87 781.957Z"
           begin="0s" dur="6s" fill="freeze" /> -->
           
<path d="M0.0141244 222.364C21.2341 220.536 38.7712 229.026 54.6682 242.004C66.7241 251.846 78.6216 261.89 90.807 271.573C110.171 286.955 131.708 289.53 154.467 280.796C168.091 275.559 181.47 269.588 194.648 263.314C218.343 252.019 240.627 254.062 261.747 269.357C273.198 277.645 284.348 286.336 295.771 294.638C315.725 309.142 336.959 311.732 359.431 300.84C369.774 295.833 380.104 290.753 390.448 285.732C415.725 273.487 440.858 273.919 465.761 286.782C474.062 291.07 482.564 295.099 490.39 300.164C514.66 315.862 539.635 316.178 565.919 305.804C589.657 296.423 614.186 288.955 640.009 290.638C657.345 291.761 675.184 293.458 691.585 298.696C724.328 309.171 756.899 310.408 790.161 303.703C806.82 300.351 823.652 297.473 839.981 292.869C871.156 284.077 902.202 283.444 933.809 290.163C966.323 297.07 999.023 295.933 1031.71 290.653C1050.57 287.602 1069.42 287.286 1087.8 293.905C1096.55 297.056 1103.91 301.631 1109.11 309.948C1115.55 320.265 1122.03 320.063 1134.01 310.452C1133.91 316.178 1136.03 320.121 1140.84 323.991C1144.18 326.682 1144.76 332.826 1146.57 337.43C1141.52 346.121 1133.52 350.611 1123.98 351.719C1116.76 352.567 1109.35 351.906 1102.03 351.906C1093.79 348.812 1084.84 346.682 1081.16 337.143C1079.92 329.56 1083.92 324.466 1089.97 321.387C1095.96 318.351 1095.37 314.322 1093.51 309.488C1089.76 299.703 1080.18 294.451 1066.78 295.991C1055.14 297.329 1043.46 299.07 1032.07 301.79C993.657 310.912 955.159 311.358 916.503 303.948C892.75 299.401 869.329 300.739 845.98 306.667C818.818 313.56 791.484 319.819 764.366 326.884C737.535 333.876 711.035 333.718 684.104 326.984C655.072 319.718 625.724 318.078 597.08 329.157C586.837 333.114 577.097 338.395 567.228 343.272C560.567 346.567 554.108 350.251 547.548 353.704C525.493 365.316 503.41 364.712 481.255 353.92C473.501 350.15 465.689 346.495 457.891 342.797C432.586 330.754 408.589 334.236 385.484 348.826C371.932 357.402 358.567 366.323 344.685 374.338C320.371 388.367 295.886 387.288 271.342 374.208C260.164 368.251 248.713 362.625 236.973 357.906C223.32 352.409 209.164 352.812 195.569 358.51C182.765 363.877 169.803 369.143 157.733 375.906C119.062 397.575 79.3266 397.863 38.2101 384.295C25.7802 380.194 12.7461 377.964 -0.0146484 374.884C0.0141244 324.049 0.0141244 273.213 0.0141244 222.364Z" fill="#262626"/>
<path d="M1094.87 781.956C1083.56 779.611 1073.56 774.964 1064.77 765.654C1064.77 775.942 1064.77 786.23 1064.77 798.748C1057.46 795.899 1051.49 794.705 1046.82 791.554C1029.84 780.129 1012.24 777.956 992.823 784.46C980.264 788.662 967.546 786.849 956.066 780.086C940.701 771.035 924.646 767.582 907.152 772.043C887.399 777.079 869.344 771.553 850.814 762.345C852.843 762.086 854.109 761.639 855.245 761.841C869.272 764.229 880.422 758.172 890.794 749.841C901.584 741.179 913.654 738.33 927.178 741.395C938.241 743.898 949.16 743.164 959.562 738.574C972.38 732.905 985.486 730.646 999.455 733.164C1009.87 735.049 1020.03 733.164 1029.55 728.632C1041.09 723.15 1052.74 719.351 1066.17 724.704C1066.6 719.236 1066.97 714.545 1067.43 708.675C1074.74 719.668 1084.52 724.891 1096.23 726.891C1096.51 727.035 1096.69 727.25 1096.78 727.553C1096.15 745.682 1095.51 763.812 1094.87 781.956Z" fill="#C0CFB4"/>
<path d="M1094.87 781.956C1095.5 763.827 1096.15 745.682 1096.78 727.553C1104.59 728.013 1112.49 729.366 1120.21 728.747C1136.02 727.481 1150.81 723.38 1159.79 708.416C1160.34 721.97 1160.87 735.51 1161.42 749.064V748.963C1161.42 754.157 1161.42 759.337 1161.42 764.517C1155.75 772.733 1147.69 777.539 1138.38 780.575C1124.4 785.136 1110.16 784.69 1095.83 782.978C1095.5 782.633 1095.18 782.287 1094.87 781.956Z" fill="#FCFBFB"/>
<path d="M1156.35 607.162C1156.79 625.709 1157.23 644.256 1157.66 662.803C1151.22 670.674 1142.84 676.041 1132.98 677.278C1121.31 678.732 1109.42 678.415 1097.64 678.861C1097.17 678.717 1096.78 678.473 1096.45 678.099C1096.85 673.825 1097.47 669.566 1097.6 665.293C1097.97 651.94 1098.16 638.573 1098.42 625.22C1100.55 625.537 1102.66 626.011 1104.79 626.141C1124.69 627.249 1143.69 625.824 1156.35 607.162Z" fill="#FCFCFC"/>
<path d="M1097.64 678.861C1109.43 678.415 1121.31 678.732 1132.98 677.278C1142.85 676.055 1151.22 670.688 1157.66 662.803C1158.38 678.012 1159.09 693.207 1159.81 708.401C1150.83 723.365 1136.04 727.481 1120.23 728.732C1112.49 729.351 1104.61 727.999 1096.79 727.538C1096.71 727.236 1096.54 727.02 1096.26 726.876C1096.71 710.876 1097.17 694.861 1097.64 678.861Z" fill="#F2C53D"/>
<path d="M1099.69 527.204C1117.74 533.405 1141.59 526.643 1152.56 512.211C1153.3 529.779 1154.05 547.348 1154.8 564.917C1149.23 568.845 1144.1 573.694 1138.01 576.485C1126.47 581.766 1113.99 581.78 1101.54 580.154C1101.18 579.751 1100.78 579.665 1100.29 579.895C1099.94 579.953 1099.66 579.838 1099.45 579.55C1099.33 562.255 1099.2 544.945 1099.07 527.65C1099.28 527.506 1099.48 527.362 1099.69 527.204Z" fill="#FCFBFB"/>
<path d="M1101.54 580.154C1114 581.766 1126.47 581.766 1138.01 576.485C1144.1 573.694 1149.23 568.845 1154.8 564.917C1155.32 579.003 1155.84 593.09 1156.35 607.176C1143.71 625.839 1124.7 627.263 1104.79 626.141C1102.66 626.026 1100.55 625.536 1098.42 625.22C1098.32 624.903 1098.12 624.659 1097.82 624.5C1098.07 609.651 1098.33 594.802 1098.59 579.953C1098.95 579.967 1099.24 579.838 1099.47 579.564C1099.69 579.852 1099.96 579.967 1100.3 579.91C1100.71 579.982 1101.12 580.068 1101.54 580.154Z" fill="#F2C53D"/>
<path d="M1097.8 624.501C1098.1 624.659 1098.29 624.903 1098.4 625.22C1098.15 638.573 1097.96 651.94 1097.58 665.293C1097.47 669.566 1096.84 673.825 1096.43 678.099C1092.81 676.904 1089.08 675.955 1085.59 674.473C1071.55 668.559 1068.86 664.055 1069.1 649.091C1069.33 635.58 1069.14 622.054 1070.22 608.299C1077.75 617.637 1086.92 622.5 1097.8 624.501Z" fill="#C0CFB4"/>
<path d="M1099.46 579.55C1099.23 579.823 1098.94 579.953 1098.58 579.938C1092.87 577.564 1086.9 575.665 1081.5 572.701C1075.11 569.176 1070.9 564.082 1072.51 555.765C1073.27 551.837 1074.22 522.412 1074.9 511.808C1080.03 521.534 1089.49 524.686 1099.05 527.65C1099.2 544.959 1099.33 562.255 1099.46 579.55Z" fill="#C0CFB4"/>
<path d="M1095.83 782.964C1110.16 784.69 1124.4 785.122 1138.38 780.561C1147.69 777.525 1155.75 772.719 1161.42 764.503C1162.04 773.05 1163.04 781.582 1163 790.115C1162.99 792.043 1156.43 797.798 1154.6 798.575C1142.6 803.583 1140.33 804.187 1127.58 805.712C1119.93 806.216 1105.9 806.187 1095.47 804.187C1095.47 803.266 1095.83 785.64 1095.83 782.964Z" fill="#F2C53D"/>
<path d="M1101.09 435.044C1118.98 438.67 1135.31 436.511 1149.43 421.72C1149.84 429.849 1150.27 437.504 1150.57 445.159C1150.83 451.634 1150.38 458.181 1151.25 464.555C1152.35 472.771 1147.97 477.116 1141.72 480.483C1128.7 487.505 1114.76 488.239 1100.48 486.181C1099.87 485.721 1099.28 485.275 1098.68 484.814C1099.3 481.606 1100.39 478.411 1100.45 475.203C1100.65 461.951 1100.53 448.684 1100.53 435.432L1101.09 435.044Z" fill="#FCFBFB"/>
<path d="M1102.03 351.92C1109.35 351.92 1116.76 352.582 1123.98 351.733C1133.52 350.611 1141.52 346.121 1146.57 337.445C1147.06 350.308 1147.02 363.215 1148.22 376.007C1149.09 385.072 1144.94 390.712 1137.46 393.014C1128.53 395.762 1119.01 396.683 1109.7 398.137C1107.17 398.525 1104.48 397.978 1101.86 397.849C1101.44 397.388 1101.02 396.928 1100.61 396.467C1101.08 381.604 1101.55 366.755 1102.03 351.92Z" fill="#FBFBFB"/>
<path d="M1098.66 484.814C1099.27 485.275 1099.86 485.721 1100.46 486.181C1100.2 499.851 1099.94 513.52 1099.69 527.204C1099.48 527.362 1099.27 527.506 1099.07 527.65C1089.49 524.686 1080.05 521.535 1074.91 511.808C1075.43 498.8 1075.96 485.793 1076.48 472.785C1082.39 479.519 1089.59 483.922 1098.66 484.814Z" fill="#668C4A"/>
<path d="M1100.61 396.453C1101.02 396.914 1101.44 397.374 1101.86 397.834C1101.6 410.238 1101.35 422.641 1101.09 435.044L1100.5 435.418C1091.63 432.396 1082.58 429.634 1078.09 420.166C1078.57 408.353 1079.03 396.54 1079.5 384.741C1084.88 391.619 1092 395.388 1100.61 396.453Z" fill="#668C4A"/>
<path d="M1078.11 420.166C1082.59 429.648 1091.64 432.396 1100.52 435.418C1100.52 448.684 1100.64 461.936 1100.43 475.188C1100.39 478.397 1099.28 481.606 1098.66 484.8C1089.57 483.908 1082.39 479.505 1076.47 472.771C1077.01 455.246 1077.56 437.706 1078.11 420.166Z" fill="#C0CFB4"/>
<path d="M1100.61 396.453C1092 395.388 1084.88 391.619 1079.52 384.741C1080.06 368.884 1080.61 353.014 1081.16 337.157C1084.85 346.697 1093.79 348.826 1102.03 351.92C1101.56 366.755 1101.08 381.604 1100.61 396.453Z" fill="#C0CFB4"/>
<path d="M1101.54 580.154C1101.12 580.068 1100.71 579.981 1100.29 579.895C1100.76 579.665 1101.18 579.751 1101.54 580.154Z" fill="#BCC0E6"/>
<path d="M1137.46 393C1128.53 395.748 1119.01 396.669 1109.7 398.122C1107.17 398.511 1104.48 397.964 1101.86 397.834C1101.6 410.238 1101.35 422.641 1101.1 435.058C1118.98 438.684 1135.31 436.526 1149.43 421.734L1148.31 379.287C1147.97 386.424 1143.98 390.985 1137.46 393Z" fill="#F2C53D"/>
<path d="M1151.38 468.037C1150.97 474.066 1147.03 477.634 1141.72 480.498C1128.7 487.519 1114.76 488.253 1100.46 486.196C1100.2 499.865 1099.94 513.534 1099.69 527.218C1117.73 533.42 1141.59 526.657 1152.54 512.225L1151.52 472.814L1151.38 468.037Z" fill="#F2C53D"/>
<path d="M1081.5 572.701C1076.57 569.981 1072.94 566.312 1072.28 560.959L1070.22 608.313C1077.73 617.637 1086.91 622.5 1097.79 624.5C1098.05 609.651 1098.3 594.802 1098.56 579.953C1092.87 577.579 1086.9 575.665 1081.5 572.701Z" fill="#668C4A"/>
<path d="M1096.45 678.099C1092.82 676.904 1089.1 675.955 1085.6 674.473C1071.56 668.559 1068.87 664.055 1069.11 649.091L1067.45 708.66C1074.75 719.653 1084.54 724.876 1096.25 726.877C1096.71 710.862 1097.17 694.862 1097.64 678.847C1097.17 678.717 1096.77 678.473 1096.45 678.099Z" fill="#668C4A"/>
<path d="M1115.25 278.221C1094.49 260.897 1069.62 256.148 1043.49 255.084C1028.43 254.479 1013.27 254.019 998.376 251.947C972.71 248.379 950.296 236.062 928.659 222.666C903.871 207.313 877.947 202.651 849.563 210.536C838.327 213.659 826.587 215.702 814.963 216.464C788.78 218.162 765.69 207.917 745.721 192.608C716.79 170.435 686.176 163.197 650.109 170.075C609.036 177.902 569.631 170.579 533.521 148.046C514.689 136.29 494.534 127.11 471.933 125.887C448.512 124.621 424.904 122.419 401.598 123.988C361.042 126.722 331.794 104.865 302.13 82.7785C302.13 82.7785 247.231 44.0152 205.942 42.9936C164.653 41.972 92.2603 59.3104 29.5641 17.4967C18.4578 10.1153 8.64625 4.40296 0 0V82.7641L0.0143864 82.7929C0.0143864 129.47 0.0143864 175.917 0.0143864 222.378C21.2344 220.551 38.7715 229.04 54.6685 242.019C66.7243 251.861 78.6219 261.904 90.8072 271.588C110.171 286.969 131.708 289.545 154.467 280.811C168.091 275.573 181.471 269.602 194.649 263.328C218.343 252.033 240.628 254.077 261.747 269.372C273.199 277.66 284.348 286.35 295.785 294.653C315.739 309.157 336.974 311.747 359.445 300.854C369.789 295.847 380.119 290.768 390.462 285.746C415.739 273.501 440.873 273.933 465.775 286.797C474.076 291.084 482.579 295.113 490.405 300.178C514.675 315.876 539.65 316.193 565.934 305.818C589.671 296.437 614.2 288.969 640.024 290.653C657.36 291.775 675.199 293.473 691.599 298.71C724.343 309.185 756.914 310.423 790.175 303.718C806.835 300.365 823.667 297.487 839.996 292.883C871.171 284.091 902.217 283.458 933.824 290.178C966.337 297.084 999.038 295.948 1031.72 290.667C1050.58 287.617 1069.44 287.3 1087.82 293.919C1096.56 297.07 1103.93 301.646 1109.12 309.962C1115.57 320.279 1122.04 320.078 1134.03 310.466C1134.43 295.833 1125.31 286.609 1115.25 278.221Z" fill="#B1B1AC"/>

</g>
<defs>
<clipPath id="clip0_248_100">
<rect width="1163" height="806" fill="white"/> 
   
</clipPath>
</defs>
</svg>
