<svg width="1118" height="112" viewBox="0 0 1118 112" fill="none" xmlns="http://www.w3.org/2000/svg">
<g filter="url(#filter0_d_689_5584)">
<path d="M455.403 46.0566C454.702 49.3988 454.207 52.7944 453.247 56.0601C452.401 58.951 450.633 59.9223 447.982 59.624C446.291 59.4405 445.643 58.5303 446.154 56.8708C446.451 55.9071 446.923 54.997 447.357 54.0869C447.952 52.8403 447.875 51.8767 446.634 50.9666C444.081 49.0928 443.655 45.9496 445.384 42.8445C446.9 40.1295 450.306 38.7682 453.041 40.0071C453.833 40.3666 454.603 41.3532 454.862 42.2021C455.228 43.3799 455.098 44.7029 455.174 45.9648C455.258 46.0031 455.327 46.026 455.403 46.0566Z" fill="white"/>
<path d="M518.6 43.0973C519.141 43.2503 519.439 43.3344 519.736 43.4185C523.278 44.4051 524.109 47.3419 521.488 50.0263C520.345 51.1965 518.928 52.0989 517.648 53.1314C517.016 53.6361 516.399 54.1562 515.446 54.9439C516.62 55.6858 517.488 56.3741 518.471 56.833C525.838 60.3204 532.101 65.391 538.219 70.6527C539.354 71.6316 540.39 72.8171 541.19 74.0866C542.036 75.425 541.876 76.9316 540.763 78.14C539.682 79.3178 538.287 79.1725 537.084 78.4995C535.712 77.7347 534.409 76.794 533.206 75.7692C527.164 70.6221 521.168 65.4216 515.149 60.2439C513.115 58.4926 512.658 58.4773 511.081 60.611C509.268 63.066 507.744 65.7351 505.824 68.0907C502.662 71.9758 499.363 75.7539 495.958 79.4172C494.876 80.5797 493.367 81.4974 491.882 82.094C489.954 82.8664 488.308 81.4133 488.857 79.4325C489.322 77.7653 490.099 76.0445 491.188 74.7214C495.47 69.5285 499.942 64.4962 504.331 59.395C504.765 58.8902 505.169 58.3549 505.831 57.5213C504.171 57.7584 502.959 58.0413 501.733 58.0872C498.876 58.1943 497.611 57.506 497.276 55.8387C496.94 54.1562 497.908 53.0625 500.559 52.1066C501.573 51.7395 502.647 51.4718 503.561 50.9441C504.011 50.684 504.445 49.904 504.414 49.3839C504.232 46.2865 503.873 43.1968 503.653 40.0993C503.493 37.8356 503.104 37.4532 500.978 38.2868C499.576 38.8374 498.289 39.694 496.978 40.4588C495.919 41.0783 494.83 41.8813 493.718 40.7724C492.529 39.5946 492.514 38.0574 493.344 36.7343C493.885 35.8777 494.822 35.1359 495.744 34.6846C497.725 33.6981 499.797 32.9027 501.862 32.0843C503.401 31.4802 504.331 30.4553 504.765 28.834C505.161 27.3732 505.618 25.8743 506.357 24.5665C506.738 23.8858 507.789 23.5875 508.536 23.121C508.749 23.9087 508.993 24.6965 509.168 25.4919C509.214 25.7136 509.024 25.9813 509.008 26.2261C508.948 27.3885 507.889 28.7728 509.542 29.5911C510.784 30.203 513.717 29.3311 514.311 28.0998C514.875 26.9297 515.126 25.5913 515.454 24.3141C515.736 23.2051 516.079 22.2797 517.503 22.2415C518.898 22.2033 519.378 23.0369 519.682 24.1688C520.01 25.3771 520.018 27.0214 520.818 27.6486C521.625 28.291 523.256 27.7939 524.467 28.0463C525.236 28.2145 526.448 28.7881 526.501 29.2929C526.615 30.3024 526.333 31.5719 525.732 32.375C525.137 33.1704 524.01 33.6675 523.019 34.0346C520.536 34.9753 519.294 36.7266 519.065 39.3269C518.974 40.5429 518.776 41.7284 518.6 43.0973ZM509.732 47.2501C510.235 46.9901 510.487 46.9442 510.532 46.8219C511.675 43.6709 512.818 40.5276 513.869 37.3461C513.968 37.0402 513.58 36.3213 513.245 36.153C511.264 35.1741 508.506 37.1014 508.688 39.3269C508.818 40.9024 509.123 42.4702 509.336 44.0457C509.466 45.0628 509.587 46.0724 509.732 47.2501Z" fill="white"/>
<path d="M990.589 34.8834C992.7 34.6234 994.635 34.4322 996.555 34.1416C998.703 33.8204 1000.65 34.2104 1002.08 35.9083C1003.52 37.6061 1003.15 39.5487 1002.19 41.2771C1000.72 43.9309 999.069 46.493 997.423 49.0474C997.027 49.6668 996.41 50.4622 995.793 50.5693C994.581 50.7758 993.126 50.9211 992.09 50.424C990.78 49.7969 991.191 48.3132 991.755 47.2119C992.364 46.0341 993.164 44.9557 993.85 43.8085C994.254 43.1279 994.597 42.409 994.985 41.6595C992.547 40.9941 991.145 41.7742 990.787 43.9156C990.376 46.4165 990.086 48.9403 989.683 51.4412C989.561 52.1754 989.408 53.0625 988.936 53.552C988.25 54.2556 987.222 55.1198 986.399 55.0663C985.607 55.0127 984.502 54.0032 984.22 53.1849C983.748 51.7853 983.77 50.2022 983.687 48.6956C983.633 47.709 983.755 46.7147 983.801 45.7205C981.127 45.6211 980.647 45.95 980.647 48.1908C980.647 52.1906 980.54 56.2134 980.875 60.1904C981.332 65.651 983.93 68.0753 989.386 68.6642C996.448 69.429 1003.41 68.5954 1010.34 67.2417C1013.11 66.6987 1014.84 65.1156 1015.72 62.4694C1017.36 57.5595 1018.5 52.5654 1018.38 47.3419C1018.35 45.8888 1018.38 44.4127 1018.6 42.9749C1018.82 41.6212 1019.41 40.3593 1021.11 40.3517C1022.9 40.344 1023.4 41.7971 1023.47 43.0667C1023.65 46.2788 1023.85 49.5368 1023.47 52.7107C1023.05 56.3435 1022.15 59.9456 1021.22 63.4943C1019.89 68.5495 1016.6 71.8381 1011.67 73.5283C1004.01 76.1592 996.181 77.4976 988.106 76.251C979.725 74.9585 975.032 70.0179 974.194 61.544C973.805 57.636 973.881 53.682 973.813 49.7433C973.79 48.3591 973.645 47.2501 971.999 46.8754C971.596 46.7836 971.085 45.9653 971.108 45.5064C971.131 45.0169 971.664 44.2368 972.099 44.1451C974.506 43.625 974.857 41.9042 974.963 39.8469C975.047 38.2715 975.283 36.6807 975.695 35.1664C975.893 34.4475 976.7 33.3386 977.165 33.3692C978.026 33.4303 979.176 33.9963 979.595 34.7152C980.289 35.8853 980.555 37.3231 980.883 38.6768C981.272 40.2676 982.209 40.4664 983.092 39.3422C984.235 37.8891 985.21 36.2448 985.919 34.5393C986.437 33.2927 985.782 31.396 987.938 31.2354C990.246 31.0901 990.345 32.8644 990.589 34.8834Z" fill="white"/>
<path d="M674.617 63.4179C673.611 64.7181 672.895 65.6664 672.156 66.5995C670.937 68.1443 669.824 69.7963 668.445 71.1805C667.592 72.0371 666.404 72.7484 665.245 73.0543C663.486 73.5208 662.526 72.3201 663.249 70.6452C663.874 69.1997 664.712 67.8308 665.588 66.5153C667.173 64.1368 668.788 61.7736 670.525 59.5022C671.386 58.3703 671.493 57.3761 670.739 56.2213C670.601 56.0071 670.518 55.7624 670.381 55.5482C666.487 49.5293 663.737 42.998 661.908 36.0767C661.474 34.4477 660.629 33.8129 658.876 34.0729C656.309 34.4553 653.718 34.7001 651.128 34.8148C649.277 34.8989 648.827 35.8855 648.66 37.4915C648.126 42.6692 647.7 47.8697 646.861 53.0015C645.597 60.6876 644.027 68.3202 642.557 75.9681C642.389 76.8324 642.153 77.7425 641.681 78.4614C641.368 78.9355 640.546 79.3791 640.027 79.3026C639.502 79.2261 638.923 78.5608 638.664 78.0101C638.412 77.4748 638.489 76.7635 638.527 76.1364C639.159 64.3433 640.035 52.5732 642.572 40.9943C642.854 39.6941 643.349 38.4246 643.54 37.1168C644.142 32.9793 647.159 30.9143 650.366 29.0483C650.968 28.6964 651.958 28.467 652.53 28.727C654.937 29.7977 656.629 28.4211 658.549 27.404C658.191 26.5703 657.657 25.882 657.665 25.1937C657.672 24.3371 657.916 23.2664 658.472 22.7005C658.823 22.341 659.943 22.7234 660.712 22.8152C660.88 22.8382 661.063 22.9911 661.169 23.1364C662.724 25.1555 664.689 26.142 667.318 26.1726C668.133 26.1803 669.352 27.3428 669.611 28.207C669.84 28.9565 669.169 30.2107 668.537 30.9296C667.798 31.7709 666.952 32.2833 667.592 33.6217C670.099 38.8911 672.521 44.2064 675.013 49.4835C675.302 50.0953 675.767 50.623 676.293 51.3801C677.077 50.6689 677.702 50.0723 678.357 49.5217C679.18 48.8257 679.942 47.9539 680.894 47.5409C681.71 47.1891 682.753 47.3879 683.698 47.342C683.561 48.1527 683.622 49.0781 683.241 49.7511C682.212 51.5713 680.986 53.2845 679.843 55.0358C679.058 56.2442 678.952 57.4296 679.637 58.7833C682.197 63.8921 684.727 69.0162 687.172 74.1785C688.749 77.4977 690.166 80.8934 691.637 84.2661C692.193 85.5433 692.216 86.7593 690.89 87.6235C689.549 88.5031 688.361 87.9295 687.507 86.9199C686.159 85.3292 684.757 83.7078 683.797 81.8723C681.024 76.5876 678.464 71.1958 675.82 65.8423C675.462 65.1693 675.142 64.4963 674.617 63.4179Z" fill="white"/>
<path d="M1079.53 53.9649C1080.89 53.1236 1081.77 52.6724 1082.54 52.0758C1084.99 50.1639 1087.38 48.1754 1089.83 46.2558C1090.47 45.751 1091.19 45.2921 1091.95 45.0092C1093.28 44.5197 1094.56 45.3074 1094.4 46.6993C1094.25 48.0301 1093.69 49.3608 1093.08 50.5615C1092.53 51.617 1091.64 52.4965 1090.9 53.4448C1090.16 54.3778 1089.41 55.3032 1088.5 56.4351C1090.19 57.7429 1091.77 58.8901 1093.27 60.1291C1096.54 62.8364 1099.86 65.4902 1102.99 68.3659C1104.6 69.8495 1105.69 71.7539 1104.49 74.1706C1103.75 75.6543 1102.67 76.1897 1101.25 75.4555C1099.74 74.6754 1098.26 73.7653 1096.95 72.7022C1093.19 69.6737 1089.57 66.4768 1085.8 63.4636C1084.43 62.3699 1082.87 61.4216 1081.27 60.718C1079.4 59.8996 1078.74 60.4426 1078.69 62.5229C1078.57 67.5475 1078.58 72.5722 1078.32 77.5892C1078.15 80.679 1077.62 83.7534 1077.14 86.8202C1077.01 87.6692 1076.6 88.5334 1076.15 89.2752C1075.24 90.7666 1073.69 90.7666 1072.83 89.2293C1072.41 88.4875 1072.09 87.5468 1072.12 86.7132C1072.36 78.7747 1072.67 70.8361 1073 62.8976C1073.28 56.1063 1073.59 49.3073 1073.91 42.5159C1073.99 40.7722 1073.23 40.061 1071.51 40.2675C1070.25 40.4128 1068.99 40.5581 1067.72 40.5963C1065.52 40.6575 1064.55 39.6939 1064.51 37.5219C1064.47 35.4569 1065.72 34.0574 1067.68 33.9962C1068.19 33.9809 1068.7 34.0497 1069.19 34.1262C1072.48 34.608 1074.01 33.8662 1075.47 30.8682C1076.15 29.461 1076.95 28.3061 1078.66 28.3214C1079.95 28.3367 1081.14 28.6732 1081.09 30.3175C1081.05 31.5412 1081.74 31.61 1082.66 31.6177C1084.02 31.633 1085.43 31.7018 1085.73 33.4685C1086.01 35.1128 1085.19 36.3059 1083.75 36.7418C1079.65 37.996 1078.5 40.7646 1079.02 44.7797C1079.41 47.5942 1079.36 50.4621 1079.53 53.9649Z" fill="white"/>
<path d="M595.671 26.2948C596.532 33.2927 597.591 40.2675 598.193 47.2807C598.955 56.0758 599.633 64.8938 599.762 73.7118C599.831 78.1553 598.833 82.6599 597.904 87.0574C597.21 90.3231 595.26 91.585 592.548 91.4014C590.65 91.2791 589.942 90.499 590.102 88.5717C590.163 87.8222 590.46 87.0956 590.574 86.3462C591.054 83.2258 591.976 80.0825 591.869 76.9775C591.534 67.2646 590.871 57.5671 590.216 47.8696C589.805 41.7206 589.165 35.5947 588.662 29.4534C588.456 26.899 587.969 26.3713 585.493 26.7843C581.744 27.4114 577.988 28.0615 574.285 28.9257C573.013 29.224 571.794 30.0499 570.735 30.8759C569.676 31.7095 568.716 31.9084 567.627 31.1742C566.446 30.3788 566.141 29.1169 566.834 28.0003C567.512 26.9143 568.472 25.8054 569.577 25.2165C576.8 21.4078 584.472 19.1899 592.692 19.2893C595.26 19.3199 595.961 20.0847 596.067 22.6085C596.121 23.8169 596.075 25.0253 596.075 26.2336C595.953 26.2566 595.816 26.2795 595.671 26.2948Z" fill="white"/>
<path d="M828.355 62.7979C828.355 61.1077 828.37 59.7846 828.355 58.4692C828.325 56.389 827.867 55.9989 825.788 56.4578C819.974 57.7274 814.169 59.0275 808.371 60.3582C806.017 60.9012 804.806 60.5418 804.189 58.9587C803.587 57.4061 804.135 55.7695 806.108 54.9206C809.171 53.5975 812.363 52.5497 815.556 51.5402C818.809 50.5077 822.146 49.7124 825.407 48.7028C826.991 48.2134 828.416 47.525 828.645 45.4448C828.713 44.833 829.856 43.9917 830.572 43.9152C831.144 43.8541 832.225 44.703 832.37 45.3225C832.751 46.9209 833.658 47.0662 834.999 46.9438C838.145 46.6455 841.292 46.3779 844.446 46.2096C845.497 46.1561 846.663 46.2326 847.608 46.6532C848.4 47.005 849.451 47.9227 849.459 48.6034C849.467 49.4294 848.583 50.3318 847.935 51.0813C847.646 51.4178 847.029 51.4943 846.533 51.6167C842.732 52.5803 838.938 53.6204 835.098 54.4388C833.719 54.737 833.307 55.303 833.399 56.6031C833.734 61.2913 834.138 65.9794 834.282 70.6829C834.389 74.3539 834.252 78.0402 833.993 81.7035C833.894 83.1107 833.307 84.5485 832.683 85.8487C831.814 87.6612 829.62 88.4872 828.035 87.8295C826.656 87.2636 826.359 86.0934 827.586 85.2598C829.216 84.1432 829.658 82.6289 829.673 80.8393C829.696 78.0402 829.681 75.2487 829.719 72.4496C829.734 71.0194 829.094 70.3387 827.677 69.964C824.63 69.1457 821.567 68.2891 818.656 67.096C817.369 66.5683 816.089 65.3829 815.396 64.1592C814.283 62.2167 815.35 60.6641 817.567 60.8553C819.693 61.0389 821.788 61.6278 823.898 62.0255C825.27 62.2626 826.671 62.4996 828.355 62.7979Z" fill="white"/>
<path d="M759.185 52.4121C758.499 54.9589 757.867 57.5286 757.097 60.0524C756.693 61.3678 756.861 62.2473 758.217 62.775C764.655 65.2759 769.805 69.7499 775.207 73.8568C777.98 75.9677 780.883 77.9026 783.694 79.9752C784.966 80.9082 786.262 81.8642 787.328 83.0114C788.418 84.1739 788.608 85.8793 787.694 87.0648C787.115 87.8219 785.637 88.1737 784.555 88.1814C781.698 88.1967 779.329 86.7512 777.188 84.9998C772.822 81.4206 768.563 77.7037 764.137 74.201C761.455 72.0825 758.529 70.27 755.726 68.3121C754.712 67.6085 754.118 67.8379 753.532 68.9698C751.833 72.2355 750.019 75.44 748.221 78.6521C747.848 79.3098 747.467 80.0746 746.88 80.4723C746.019 81.0535 744.801 81.8795 744.023 81.6501C742.622 81.2294 741.54 79.8834 741.875 78.2544C742.172 76.7936 742.782 75.3482 743.528 74.048C745.288 70.9583 747.269 67.9986 749.044 64.9165C750.576 62.2703 750.431 61.6202 748.419 59.3488C747.741 58.5916 746.934 57.8957 746.477 57.0162C746.126 56.3355 746.225 55.4254 746.126 54.6147C747.056 54.5 748.107 54.0717 748.884 54.3623C749.829 54.7141 750.553 55.6778 751.375 56.3737C752.892 57.6662 753.608 57.475 754.08 55.4942C754.545 53.5134 754.758 51.4714 755.307 49.5212C755.52 48.7641 756.305 47.6934 756.93 47.6169C758.255 47.4563 758.636 48.6723 758.72 49.8271C758.781 50.6455 758.735 51.4791 758.735 52.3051C758.872 52.3356 759.025 52.3739 759.185 52.4121Z" fill="white"/>
<path d="M916.154 80.4492C923.026 82.8354 929.586 85.1145 936.146 87.3935C937.159 87.7453 938.233 87.9671 939.193 88.426C941.243 89.3973 942.317 91.8523 941.593 93.6648C940.984 95.1791 938.188 96.3263 936.329 95.6533C934.371 94.942 932.451 94.0855 930.569 93.1907C925.198 90.6286 919.826 88.036 914.501 85.3821C912.977 84.625 911.865 84.6479 910.417 85.7798C908.444 87.3171 906.196 88.556 903.926 89.6114C902.943 90.0703 901.534 89.9632 900.437 89.6726C899.766 89.4967 898.943 88.5484 898.852 87.8524C898.761 87.1641 899.301 86.1316 899.896 85.6651C900.978 84.8162 902.318 84.3038 903.515 83.5925C904.307 83.1184 905.046 82.5524 906.174 81.7876C904.848 80.8546 903.842 80.1433 902.837 79.4321C901.96 78.8126 900.993 78.2772 900.216 77.5507C898.905 76.3117 899.218 74.8051 900.673 73.8109C901.343 73.352 901.701 72.4495 902.303 71.8454C903.141 70.9888 903.949 69.7728 904.977 69.5051C908.269 68.6485 911.629 67.8684 915.004 67.5855C919.514 67.2107 921.442 70.1934 919.567 74.3386C918.684 76.2811 917.487 78.086 916.154 80.4492ZM906.44 75.0345C909.861 78.0325 910.737 78.0402 913.609 75.2869C914.067 74.851 914.516 74.3768 914.821 73.8415C915.095 73.352 915.164 72.7555 915.415 71.8912C911.956 72.2277 909.015 72.7555 906.44 75.0345Z" fill="white"/>
<path d="M908.885 46.7608C908.153 46.8526 907.407 47.0744 906.706 46.9902C905.845 46.8832 904.344 46.6078 904.29 46.2484C904.153 45.2236 904.344 43.9234 904.93 43.1127C905.502 42.325 906.706 41.9885 907.658 41.5067C908.671 40.9943 909.784 40.6425 910.713 40.0077C911.094 39.7477 911.109 38.937 911.285 38.3787C910.759 38.3328 910.187 38.1187 909.723 38.264C908.763 38.5622 907.887 39.2505 906.927 39.3959C906.058 39.5259 905.113 39.1435 904.199 38.9829C904.443 37.8739 904.344 36.4208 905.014 35.7325C905.974 34.7383 907.475 34.2412 908.793 33.637C911.673 32.3215 911.635 32.3445 911.422 29.2241C911.353 28.1764 911.361 26.9527 911.841 26.0885C912.267 25.3161 913.326 24.6354 914.218 24.4442C915.437 24.1765 916.442 24.9031 916.717 26.2338C916.907 27.1592 916.999 28.1152 917.029 29.0559C917.082 30.5013 917.639 31.0596 919.185 30.8608C920.328 30.7155 921.577 30.8608 922.69 31.1973C923.261 31.3732 923.916 32.1992 923.993 32.8034C924.054 33.2928 923.429 34.1035 922.903 34.3788C921.623 35.0518 920.176 35.4113 918.88 36.069C918.294 36.3673 917.913 37.0632 917.44 37.5757C917.989 37.721 918.538 37.9504 919.094 38.0039C920.381 38.1187 920.877 39.1052 920.054 40.306C919.452 41.1855 918.591 41.8814 917.89 42.6997C916.016 44.8947 916.237 46.2178 918.659 47.6174C919.871 48.321 919.818 49.8964 918.507 50.6689C917.86 51.0513 917.037 51.1966 916.481 51.6707C916.016 52.0684 915.574 52.795 915.589 53.3686C915.597 53.7357 916.404 54.1869 916.93 54.4163C917.433 54.6381 918.111 54.5158 918.591 54.7681C919.231 55.1047 920.191 55.6247 920.237 56.1295C920.298 56.856 919.703 57.6743 919.292 58.4009C919.17 58.6227 918.751 58.7374 918.446 58.7909C914.469 59.5175 910.5 60.2823 906.515 60.9094C905.174 61.1236 903.704 60.9782 903.43 59.1886C903.163 57.3914 904.664 57.2308 905.86 56.8713C907.231 56.4583 908.527 56.0453 908.778 54.3093C908.984 52.9097 908.641 52.1449 907.071 52.0608C906.454 52.0225 905.875 51.4795 905.273 51.166C905.685 50.3935 905.944 49.4376 906.561 48.8869C907.277 48.2445 908.306 47.9615 909.197 47.5256C909.09 47.2808 908.984 47.0208 908.885 46.7608Z" fill="white"/>
<path d="M723.582 41.1774C721.053 40.9862 718.973 40.8867 716.908 40.642C715.62 40.489 714.28 40.0837 714.211 38.4777C714.135 36.8869 715.217 36.0992 716.649 35.7779C721.075 34.7837 725.51 33.7971 729.944 32.8259C730.37 32.7341 730.873 32.6805 731.262 32.8259C732.252 33.2006 733.692 33.4606 734.043 34.2025C734.675 35.5409 734.408 37.2846 732.831 37.9805C729.601 39.4107 728.298 42.271 726.675 45.1084C722.835 51.8232 718.653 58.3316 714.622 64.9394C713.502 66.7825 712.497 68.7022 711.323 70.4994C710.12 72.3426 708.535 73.0079 707.179 72.2355C705.587 71.3254 705.381 69.8111 705.686 68.098C706.455 63.7081 708.725 60.0447 711.354 56.6108C714.714 52.2362 718.256 48.0069 721.715 43.7012C722.287 42.9823 722.812 42.2175 723.582 41.1774Z" fill="white"/>
<path d="M1045.02 55.4026C1043.4 55.5632 1042.08 55.8079 1040.77 55.7697C1039.97 55.7467 1038.69 55.4714 1038.5 54.9743C1038.24 54.2784 1038.5 52.9476 1039.04 52.4734C1040.2 51.4639 1041.72 50.8903 1043.02 50.0338C1043.81 49.5214 1044.54 48.8789 1045.15 48.1677C1045.48 47.77 1045.55 47.1123 1045.68 46.5616C1046.65 42.2864 1046.65 42.2941 1042.46 41.0551C1041.86 40.8792 1041.03 40.7722 1040.74 40.3439C1040.18 39.4797 1039.63 38.4243 1039.6 37.4377C1039.56 36.1911 1040.77 36.1911 1041.75 36.1605C1044.78 36.0687 1047.81 35.9234 1050.85 35.8699C1051.58 35.8546 1052.41 35.9846 1053.04 36.3211C1054.7 37.2006 1054.72 38.9902 1053.25 40.1833C1052.16 41.0781 1050.83 41.9423 1050.21 43.1354C1049.19 45.1315 1050.17 46.5922 1052.38 46.9134C1053.62 47.097 1055.06 47.3341 1054.95 48.8407C1054.88 49.942 1054.13 51.1121 1053.4 52.0146C1052.71 52.8558 1051.13 53.2229 1050.85 54.0948C1050.21 56.1521 1050.11 58.3776 1049.72 61.0162C1051.36 60.4885 1052.53 60.0831 1053.71 59.739C1054.97 59.3719 1056.25 58.89 1057.54 58.8059C1058.2 58.76 1059.32 59.3107 1059.51 59.8537C1059.74 60.519 1059.46 61.628 1059 62.2245C1058.4 62.9893 1057.48 63.6853 1056.57 63.9682C1051.63 65.5055 1046.68 67.0198 1041.66 68.2664C1040.37 68.5876 1038.78 68.0752 1037.43 67.6239C1036.86 67.4327 1036.22 66.4003 1036.25 65.7655C1036.26 65.146 1036.96 64.2895 1037.57 64.0141C1038.51 63.5782 1039.64 63.5017 1040.69 63.3411C1043.46 62.9128 1044.25 62.1939 1044.8 59.4254C1044.92 58.8671 1044.97 58.2935 1045 57.7276C1045.04 57.0239 1045.02 56.3356 1045.02 55.4026Z" fill="white"/>
<path d="M751.254 35.0364C748.381 34.6387 745.479 34.4169 742.652 33.7975C739.955 33.2086 738.507 30.9983 739.277 28.3369C739.963 25.9584 741.204 23.7022 742.477 21.5608C743.269 20.2224 744.74 19.8706 746.096 20.9566C747.376 21.9891 747.734 23.3275 746.858 24.8418C746.728 25.0636 746.515 25.2471 746.446 25.4765C746.263 26.096 745.837 27.0979 746.05 27.2814C746.56 27.7097 747.429 27.9621 748.092 27.8627C748.625 27.7862 749.303 27.1744 749.486 26.6467C749.829 25.6448 749.844 24.5282 750.027 23.4651C750.431 21.1325 750.827 18.7234 753.013 17.3468C753.798 16.8497 755.131 16.4979 755.863 16.8344C757.173 17.4309 757.859 18.777 757.379 20.3601C756.891 21.9356 756.244 23.4575 755.832 25.0483C755.634 25.836 755.825 26.7155 755.848 27.5568C757.135 27.4421 758.491 27.5338 759.672 27.1132C760.236 26.9143 760.685 25.7595 760.769 24.9947C760.845 24.3141 760.358 23.5646 760.106 22.8457C759.55 21.2702 760.335 20.0006 761.943 20.3295C763.047 20.5589 764.556 21.339 764.899 22.2415C765.782 24.5588 766.255 27.0673 766.62 29.5376C766.857 31.1283 765.661 32.2296 764.282 32.635C761.63 33.4074 758.926 34.0269 756.198 34.4705C754.591 34.7305 752.914 34.5164 751.269 34.5164C751.276 34.6999 751.269 34.8682 751.254 35.0364Z" fill="white"/>
<path d="M760.747 37.4604C761.973 37.5599 762.925 37.5675 763.863 37.7281C765.6 38.0264 766.133 39.4718 764.876 40.7185C764.144 41.445 763.131 42.0339 762.133 42.3169C758.552 43.3493 754.964 44.3742 751.315 45.1007C748.823 45.5978 747.338 46.9056 746.675 49.2459C745.06 54.913 743.483 60.5877 741.89 66.2548C741.121 69.008 740.405 71.7689 739.559 74.4992C739.269 75.4476 738.858 76.5106 738.165 77.1454C737.578 77.6731 736.412 77.9867 735.673 77.7802C735.102 77.6196 734.355 76.4495 734.439 75.83C734.843 72.7708 735.231 69.6581 736.115 66.7137C737.868 60.886 739.917 55.15 741.913 49.3988C742.424 47.9304 742.759 46.6915 741.479 45.3913C740.488 44.3894 740.869 43.2117 742.096 42.7987C748.305 40.7108 754.332 37.904 760.747 37.4604Z" fill="white"/>
<path d="M911.62 14.3107C913.143 14.2112 914.324 14.0889 915.513 14.0736C916.869 14.0506 917.897 14.6242 918.05 16.0926C918.195 17.5228 917.417 18.387 916.046 18.647C914.743 18.8918 913.418 19.1518 912.1 19.1977C910.241 19.2589 909.22 20.1995 908.595 21.8591C907.902 23.6946 907.132 25.5148 906.317 27.2968C905.951 28.0922 905.555 29.0482 904.877 29.4841C904.184 29.9277 903.003 30.1571 902.302 29.8589C901.761 29.6294 901.258 28.3675 901.372 27.6792C901.669 25.9431 902.393 24.2835 902.812 22.5628C902.934 22.0733 902.599 21.4767 902.469 20.9337C902.028 21.3008 901.372 21.5915 901.182 22.0656C900.71 23.2358 900.473 24.4977 900.092 25.706C899.727 26.8609 898.904 27.748 897.715 27.2968C897.06 27.0444 896.58 26.012 896.283 25.2319C895.902 24.2223 895.78 23.121 895.552 22.058C894.759 22.7157 893.929 23.3275 893.182 24.0311C892.055 25.0866 891.049 24.9718 890.074 23.8552C888.146 21.6374 888.817 18.9606 891.559 17.9587C892.215 17.7216 892.877 17.4998 893.556 17.3545C895.14 17.018 896.123 16.1079 896.504 14.5095C896.649 13.9053 896.832 13.1329 897.266 12.8117C897.929 12.3299 898.851 11.9245 899.62 11.9934C900.123 12.0392 900.588 12.9493 900.999 13.5229C901.509 14.2265 902.104 15.6567 902.393 15.5879C903.338 15.3737 904.237 14.7084 904.999 14.0353C905.54 13.5459 905.799 12.7505 906.225 12.1234C907.414 10.372 909.113 9.6072 910.545 10.1961C912.458 10.9685 912.168 12.4981 911.62 14.3107Z" fill="white"/>
<path d="M963.664 53.361C964.304 53.078 964.913 52.6115 965.546 52.5809C966.75 52.5121 968.106 52.3668 969.142 52.8333C971.024 53.6899 971.176 55.3036 969.751 56.8484C969.157 57.4985 968.502 58.1639 967.748 58.5998C963.915 60.8177 960.045 62.9897 956.159 65.1158C955.451 65.5059 954.605 65.8424 953.821 65.8424C952.975 65.8424 952.129 65.4141 951.284 65.1694C951.642 64.374 951.809 63.3798 952.403 62.8291C953.889 61.4525 955.603 60.3282 957.142 59.0052C958.948 57.4526 959.283 55.3953 957.98 53.3839C957.66 52.8868 956.777 52.5197 956.137 52.5044C954.689 52.4662 953.226 52.688 951.771 52.7798C950.689 52.8486 949.485 52.665 949.455 51.4031C949.432 50.4242 949.851 49.1623 950.537 48.4969C951.352 47.7016 952.624 47.3345 953.744 46.9215C955.299 46.3479 956.319 45.3842 956.678 43.7323C956.815 43.1205 957.051 42.5163 957.34 41.9503C958.232 40.2066 959.809 39.9466 960.929 41.5068C961.683 42.5545 962.483 42.761 963.649 42.6769C964.708 42.6004 965.835 42.6081 966.849 42.8757C968.921 43.434 969.401 45.2772 967.877 46.7915C967.031 47.6327 965.957 48.2369 964.997 48.9635C963.344 50.233 963.039 51.1737 963.664 53.361Z" fill="white"/>
<path d="M654.663 51.5787C660.964 54.7526 662.038 59.5249 660.537 65.4979C660.24 66.6681 659.928 67.8382 659.501 68.9624C658.732 70.9815 656.255 72.1593 654.351 71.2874C652.873 70.6144 651.486 69.689 650.183 68.7177C649.711 68.3659 649.3 67.5399 649.345 66.9663C649.581 63.7389 649.719 60.4733 650.381 57.33C650.77 55.5098 652.088 53.8961 653.071 52.0223C652.446 51.9382 651.654 51.9764 651.006 51.6935C650.229 51.357 648.919 50.6228 648.98 50.2709C649.155 49.292 649.703 48.0072 650.503 47.5789C652.987 46.2329 655.631 45.1622 658.267 44.1297C659.417 43.6785 660.697 43.4108 661.931 43.3572C662.556 43.3267 663.615 43.8467 663.752 44.3209C663.928 44.9404 663.608 46.0875 663.105 46.4546C660.956 48.0072 658.671 49.3608 656.415 50.7604C655.928 51.0587 655.395 51.2422 654.663 51.5787ZM654.229 63.3795C654.496 63.4559 654.77 63.5248 655.036 63.6012C655.402 62.324 655.768 61.0392 656.134 59.762C655.821 59.6779 655.501 59.5937 655.189 59.5096C654.869 60.7945 654.549 62.087 654.229 63.3795Z" fill="white"/>
<path d="M839.494 36.8414C839.487 37.002 839.487 37.4456 839.426 37.8892C839.144 39.87 837.605 40.6118 836.226 39.197C834.283 37.2009 831.982 36.9179 829.453 36.9409C826.161 36.9791 822.87 36.9179 819.571 36.9332C817.133 36.9485 816.158 37.9886 815.579 40.3595C814.977 42.7915 814.215 45.2159 813.172 47.4873C812.813 48.2597 811.351 49.0092 810.474 48.9328C809.073 48.8104 808.128 47.5561 808.303 46.0419C808.821 41.4914 810.467 37.3232 813.126 33.614C813.507 33.0787 814.749 33.1093 815.602 32.9945C816.47 32.8722 817.453 33.1322 818.207 32.811C821.529 31.4191 824.737 29.6448 828.462 29.6677C830.413 29.683 832.386 29.7595 834.298 30.1113C838.23 30.8378 839.51 32.5433 839.494 36.8414Z" fill="white"/>
<path d="M719.461 66.7064C720.2 63.2419 720.809 59.7392 721.724 56.3206C722.356 53.9421 723.087 53.7432 725.495 54.3627C726.143 54.531 726.912 54.5998 727.537 54.4162C732.916 52.8714 735.262 56.5271 734.455 61.0011C733.556 65.9569 730.493 69.6509 725.96 71.8076C722.364 73.5207 720.032 71.8994 719.819 67.9148C719.796 67.5324 719.819 67.15 719.819 66.7753C719.697 66.7523 719.575 66.7294 719.461 66.7064ZM724.908 64.2438C725.297 64.3968 725.678 64.5574 726.066 64.7103C726.79 63.2419 727.575 61.7965 728.192 60.2898C728.314 59.9992 727.91 59.2574 727.575 59.0968C727.285 58.9591 726.47 59.265 726.364 59.5556C725.8 61.0852 725.381 62.676 724.908 64.2438Z" fill="white"/>
<path d="M556.206 51.4642C556.206 47.0896 556.069 42.7073 556.282 38.3404C556.358 36.7802 557.128 35.1818 557.897 33.7746C558.217 33.201 559.375 32.8874 560.16 32.8721C560.442 32.8645 560.983 34.0728 561.006 34.7382C561.31 42.7303 561.63 50.7223 561.737 58.7144C561.775 61.6129 561.326 64.5268 560.967 67.4177C560.83 68.4731 560.686 69.7044 559.002 69.7044C557.326 69.7044 557.006 68.7484 556.914 67.4177C556.556 62.1024 556.183 56.7947 555.81 51.4795C555.939 51.4718 556.076 51.4642 556.206 51.4642Z" fill="white"/>
<path d="M570.003 59.7084C570.468 56.5804 570.765 53.4141 571.435 50.3397C571.969 47.9076 572.906 47.617 575.275 48.2059C576.09 48.4124 577.035 48.29 577.888 48.1371C582.764 47.2729 585.484 50.2785 584.037 55.0584C583.663 56.2897 583.237 57.2687 584.364 58.4847C585.179 59.3642 584.623 60.802 583.503 61.1538C579.785 62.3239 576.014 63.3258 572.22 64.213C571.755 64.32 570.742 63.3946 570.498 62.7522C570.148 61.8498 570.277 60.7561 570.209 59.7466C570.14 59.7389 570.071 59.7236 570.003 59.7084ZM575.344 58.2323C575.618 58.3164 575.885 58.3929 576.159 58.477C576.662 57.1845 577.241 55.915 577.622 54.5919C577.736 54.2095 577.294 53.6589 577.104 53.1923C576.616 53.4141 575.93 53.5059 575.671 53.8807C574.734 55.2573 574.612 56.7563 575.344 58.2323Z" fill="white"/>
<path d="M893.389 63.6317C893.93 59.5707 894.455 55.6702 894.95 51.7698C895.065 50.8903 895.118 49.9955 895.126 49.1083C895.133 47.3646 894.28 46.8751 892.733 47.747C891.964 48.1829 891.286 48.7795 890.509 49.2001C889.48 49.7584 888.954 49.2842 888.886 48.2059C888.863 47.8923 888.855 47.5482 888.97 47.2652C890.737 42.7988 893.51 39.0743 897.327 36.1834C898.592 35.2274 899.865 35.6939 900.863 36.8334C901.891 38.0036 901.594 39.1966 900.2 39.885C899.301 40.3285 898.287 40.6956 897.625 41.3839C896.787 42.2558 895.819 43.3571 897.8 44.3284C898.402 44.6267 898.859 45.6209 899.019 46.3704C900.375 52.6111 900.619 58.8212 898.219 64.9012C898.059 65.3142 897.937 65.819 897.632 66.079C897.007 66.6067 896.223 67.3945 895.575 67.3256C894.935 67.2645 894.234 66.3773 893.83 65.689C893.488 65.0771 893.511 64.2359 893.389 63.6317Z" fill="white"/>
<path d="M867.866 77.4824C867.63 74.4385 868.689 71.8689 870.532 69.5286C871.119 68.7867 871.599 67.9608 872.094 67.1501C872.963 65.7276 873.831 65.6205 875.187 66.6912C875.972 67.3107 876.81 67.9302 877.717 68.3355C879.576 69.1691 880.162 70.6222 880.437 72.5419C881.198 77.9642 878.875 81.6352 874.235 84.0367C873.26 84.5414 872.094 84.8244 870.989 84.9162C869.443 85.0462 868.49 84.2585 868.376 82.5912C868.239 80.8857 868.033 79.1802 867.866 77.4824ZM873.077 77.7348C873.359 77.8113 873.633 77.8877 873.915 77.9642C874.517 76.4958 875.195 75.0427 875.652 73.5284C875.766 73.1537 875.141 72.5648 874.852 72.0677C874.562 72.2512 874.075 72.3813 874.029 72.6107C873.663 74.3085 873.389 76.0293 873.077 77.7348Z" fill="white"/>
<path d="M567.314 45.7125C566.879 45.2689 566.049 44.7489 565.706 44.007C564.876 42.2327 565.561 39.9154 567.595 38.9824C571.778 37.0627 576.06 35.3343 580.425 33.8889C582.521 33.1929 584.433 34.5313 585.621 36.275C586.04 36.8945 585.949 38.3858 585.477 38.9747C584.684 39.946 583.481 40.7873 582.284 41.2003C577.866 42.7145 573.386 44.03 568.921 45.4066C568.548 45.5137 568.167 45.5519 567.314 45.7125Z" fill="white"/>
<path d="M1059.55 67.1805C1059.16 66.8669 1058.16 66.4386 1057.91 65.7427C1057.72 65.2302 1058.36 64.1213 1058.94 63.7083C1060.88 62.3011 1063.01 61.1463 1064.98 59.7696C1066.76 58.523 1066.68 57.9647 1064.93 56.7411C1063.95 56.0528 1062.93 55.3721 1062.11 54.5079C1060.59 52.8865 1060.82 50.6533 1062.55 49.3226C1062.8 49.1314 1063.31 49.032 1063.57 49.1543C1065.84 50.2327 1068.21 51.181 1070.28 52.5653C1071.82 53.5978 1072.49 55.418 1071.58 57.2917C1069.37 61.8193 1065.71 64.8249 1061.23 66.9128C1060.89 67.0734 1060.48 67.0428 1059.55 67.1805Z" fill="white"/>
<path d="M1089.09 27.7709C1089.26 25.1094 1089.41 22.448 1089.61 19.7941C1089.66 19.167 1089.78 18.5322 1089.96 17.928C1090.36 16.582 1091.29 15.4654 1092.66 15.8096C1093.49 16.0161 1094.52 17.2321 1094.65 18.1039C1095.11 21.4231 1095.29 24.7959 1095.48 28.1456C1095.59 29.9047 1095.7 31.6943 1095.51 33.438C1095.29 35.5106 1094.22 36.3824 1092.45 36.3901C1090.63 36.3977 1089.62 35.6176 1089.37 33.4762C1089.15 31.6025 1089.33 29.6752 1089.33 27.7709C1089.25 27.7709 1089.17 27.7709 1089.09 27.7709Z" fill="white"/>
<path d="M875.561 32.8643C877.618 33.1778 879.21 33.1702 880.559 33.7285C881.343 34.0497 882.174 35.2657 882.212 36.1146C882.243 36.7264 881.092 37.7972 880.307 37.9731C877.793 38.539 875.21 38.8143 872.651 39.1279C871.325 39.2885 870.319 39.5715 869.71 41.0246C869.009 42.7071 866.617 42.6 865.497 40.9863C864.034 38.8832 864.834 35.7399 867.424 34.8298C870.19 33.8585 873.138 33.4226 875.561 32.8643Z" fill="white"/>
<path d="M626.839 69.2909C625.003 69.2374 624.165 67.7078 624.942 66.2241C625.346 65.4517 625.925 64.7175 626.572 64.1286C629.62 61.3601 632.667 58.5839 635.852 55.9836C636.53 55.4253 638.062 55.1041 638.717 55.4941C639.928 56.2207 639.303 57.559 638.671 58.5303C635.959 62.6831 632.416 66.01 628.309 68.7403C627.807 69.0691 627.151 69.1762 626.839 69.2909Z" fill="white"/>
<path d="M632.081 48.0146C632.775 48.0146 633.536 47.8311 634.154 48.0605C634.961 48.3588 636.104 48.8482 636.272 49.483C636.515 50.3778 636.332 51.7544 635.753 52.4351C633.894 54.6377 627.784 55.7008 625.095 54.5689C623.952 54.0871 623.114 53.4217 623.213 52.0451C623.312 50.6914 623.731 49.5366 625.194 49.1236C626.474 48.7641 627.754 48.3894 629.057 48.1446C630.047 47.9611 631.068 47.9764 632.081 47.8999C632.081 47.9381 632.081 47.9764 632.081 48.0146Z" fill="white"/>
<path d="M819.273 29.0174C817.582 28.7803 816.112 28.8339 814.885 28.3138C814.077 27.9773 813.384 26.9066 813.056 26.0042C812.637 24.8493 813.498 24.0233 814.565 23.7786C817.239 23.1515 819.928 22.5626 822.641 22.1879C823.471 22.0731 824.629 22.4938 825.224 23.0903C825.94 23.8169 826.595 24.9946 826.564 25.9506C826.542 26.6695 825.513 27.7402 824.728 27.985C822.892 28.5509 820.927 28.7268 819.273 29.0174Z" fill="white"/>
<path d="M634.116 39.5104C632.165 39.5104 630.215 39.5257 628.264 39.5027C626.626 39.4874 625.217 37.9655 625.057 36.13C624.889 34.2869 626.169 33.392 627.548 33.3691C629.986 33.3232 632.462 33.6062 634.855 34.088C636.386 34.3939 637.087 36.1835 636.729 37.7743C636.416 39.1892 635.533 39.801 634.116 39.5104Z" fill="white"/>
<path d="M869.602 50.309C867.286 50.2478 866.441 49.5366 866.532 47.6322C866.585 46.5309 867.02 45.835 868.216 45.7585C871.69 45.552 875.164 45.2767 878.638 45.1237C879.796 45.0702 880.992 45.269 881.137 46.8368C881.267 48.2594 880.451 49.0165 879.187 49.1848C876.002 49.613 872.795 49.9419 869.602 50.309Z" fill="white"/>
<path d="M872.49 25.4229C872.658 24.0157 872.711 22.6161 873.016 21.2701C873.42 19.4958 874.837 18.8228 876.665 19.3046C878.448 19.7787 878.326 21.0865 878.121 22.4708C877.762 24.8417 877.435 27.2125 877.077 29.5757C876.902 30.7382 876.46 31.6253 875.043 31.5795C873.694 31.5336 873.138 30.7076 872.955 29.5451C872.749 28.1838 872.643 26.7995 872.49 25.4229Z" fill="white"/>
<path d="M674.854 20.5207C674.899 19.8859 674.831 19.3429 674.998 18.8917C675.143 18.5016 675.57 17.9127 675.852 17.928C676.392 17.951 677.192 18.1957 677.406 18.601C678.945 21.5531 680.339 24.5741 681.825 27.5491C682.807 29.5146 682.807 31.3272 681.611 31.7707C679.79 32.4514 678.754 31.1665 677.939 29.8511C676.141 26.9602 674.983 23.8399 674.854 20.5207Z" fill="white"/>
<path d="M768.731 52.703C768.037 54.332 767.42 56.3511 766.338 58.0642C765.79 58.9361 764.449 59.5632 763.359 59.7697C761.432 60.1444 760.304 58.6761 761.059 56.8329C762.019 54.4926 763.131 52.2059 764.297 49.9651C765.013 48.5961 767.123 48.6802 767.9 50.0798C768.258 50.7222 768.365 51.5023 768.731 52.703Z" fill="white"/>
<path d="M875.135 54.0185C876.011 54.1103 876.933 54.0644 877.748 54.3397C878.228 54.5003 878.83 55.1351 878.861 55.5863C878.891 56.0452 878.365 56.8635 877.939 56.9859C874.282 57.9801 870.61 58.9055 866.907 59.7085C866.427 59.8156 865.543 59.2573 865.276 58.7679C865.01 58.2784 865.04 57.2995 865.375 56.8865C865.894 56.244 866.716 55.6628 867.516 55.4563C870.008 54.7986 872.552 54.3321 875.066 53.7891C875.089 53.8655 875.112 53.942 875.135 54.0185Z" fill="white"/>
<path d="M302.342 41.1391C303.112 40.925 303.889 40.7338 304.651 40.5044C306.038 40.0914 307.432 39.8313 308.506 41.1162C309.557 42.3628 308.948 43.6629 308.346 44.8637C307.386 46.7833 306.335 48.657 305.55 50.9132C306.198 50.6378 306.83 50.3396 307.485 50.0948C308.895 49.5595 310.281 48.8788 311.744 48.5805C314.479 48.0146 316.696 49.1006 317.397 51.785C318.106 54.5 318.365 57.3833 318.403 60.1977C318.433 62.2091 316.955 63.3257 315.226 63.2798C313.458 63.2263 312.75 62.4233 312.521 60.0753C312.392 58.7523 312.384 57.4139 312.262 56.0908C312.148 54.8824 311.584 54.3012 310.357 54.9818C308.476 56.022 306.548 57.0085 304.765 58.2093C304.3 58.5228 303.973 59.6394 304.14 60.2283C306.411 68.2051 306.838 76.3424 306.297 84.5486C306.091 87.646 304.59 88.6938 302.152 87.8372C300.354 87.2101 299.714 86.1623 300.27 84.3115C301.786 79.2563 301.093 74.0939 301.123 68.9622C301.123 68.6869 300.918 68.4116 300.643 67.7309C299.76 68.6869 299.005 69.3981 298.365 70.2012C295.615 73.6121 293.002 77.1378 290.114 80.4264C288.895 81.8107 287.219 82.8814 285.574 83.7533C284.873 84.128 283.44 83.9368 282.846 83.4167C282.412 83.042 282.61 81.6424 282.877 80.8165C283.197 79.8146 283.776 78.8356 284.438 78.002C287.524 74.1322 290.625 70.2776 293.817 66.4996C295.356 64.6717 297.2 63.2722 299.836 63.3563C301.306 63.4022 301.398 62.408 300.971 60.886C299.973 61.2531 299.021 61.6126 298.061 61.9491C296.697 62.4232 295.158 63.2875 293.992 61.9567C292.857 60.6566 293.924 59.2876 294.663 58.1328C296.339 55.5095 298.137 52.9704 299.836 50.3625C300.285 49.6742 300.567 48.8712 301.055 47.854C298.891 48.7182 297.185 49.4983 295.417 50.0872C293.954 50.569 292.339 50.9132 291.28 49.3224C290.252 47.7775 291.021 46.4009 292.042 45.1772C293.345 43.6171 294.724 42.1257 296.004 40.5502C296.567 39.8543 296.971 39.036 297.695 37.8735C295.836 37.8735 294.526 37.8199 293.215 37.8888C291.455 37.9882 290.45 37.0857 290.533 35.4491C290.709 32.237 290.808 28.9637 291.524 25.851C292.903 19.8856 297.527 17.1783 302.937 15.5645C304.994 14.9527 307.104 14.4785 309.222 14.1191C311.797 13.6908 314.014 14.5091 315.561 16.6811C318.578 20.9181 319.012 25.4839 316.803 30.172C316.353 31.1204 315.203 31.9158 314.197 32.3976C311.546 33.6671 308.75 34.6384 306.091 35.8927C303.98 36.8793 303.028 38.883 302.007 40.772C302.137 40.8715 302.236 41.0015 302.342 41.1391ZM307.18 30.0879C308.765 29.4684 310.388 28.9407 311.881 28.1759C312.239 27.9924 312.376 26.9829 312.27 26.4169C312.209 26.0881 311.333 25.5604 311.051 25.6751C309.443 26.3328 307.874 27.1129 306.358 27.9771C306.076 28.1377 305.946 28.8948 306.038 29.3078C306.099 29.5908 306.67 29.7591 307.18 30.0879ZM300.864 23.1742C300.712 22.9907 300.56 22.8071 300.407 22.6236C299.242 23.5413 298.046 24.4285 296.926 25.3998C296.743 25.5604 296.766 26.111 296.88 26.4093C296.941 26.5622 297.421 26.6311 297.695 26.6005C299.066 26.4399 300.628 24.7267 300.864 23.1742ZM296.377 32.2217C296.476 32.5505 296.575 32.8794 296.674 33.2083C297.55 33.0094 298.548 33.0018 299.257 32.5505C299.828 32.1834 300.049 31.2733 300.423 30.6003C300.209 30.4168 299.996 30.2256 299.783 30.042C298.647 30.7609 297.512 31.4951 296.377 32.2217ZM305.299 21.3081C305.367 21.5758 305.436 21.8435 305.504 22.1112C306.815 21.7746 308.125 21.4381 309.436 21.1016C309.367 20.8263 309.291 20.5586 309.222 20.2833C307.919 20.6275 306.609 20.9716 305.299 21.3081Z" fill="white"/>
<path d="M359.247 53.7354C358.79 54.439 358.317 55.135 357.875 55.8539C356.816 57.5823 355.841 59.3719 354.691 61.0468C353.967 62.1022 352.733 62.9052 351.636 61.9645C351.125 61.5286 351.095 59.8919 351.483 59.1348C353.274 55.6321 355.308 52.2593 357.22 48.8178C357.67 48.0148 357.974 47.1352 358.508 45.9269C357.258 46.0798 356.359 46.4163 355.582 46.2251C354.584 45.9728 353.327 45.5215 352.847 44.7491C352.1 43.556 353.197 42.6459 354.211 42.0341C355.293 41.3764 356.39 40.711 357.548 40.2139C360.077 39.1279 360.984 37.0018 361.433 34.5239C361.662 33.2772 361.167 32.9407 360.092 33.4302C358.988 33.9273 357.769 34.8221 357.03 33.2008C356.374 31.7553 357.045 30.371 358.302 29.5527C361.182 27.6713 364.397 27.0595 367.742 27.7861C368.442 27.939 369.425 29.0556 369.41 29.7057C369.395 30.5699 368.702 31.6482 367.97 32.2065C366.896 33.0249 365.349 33.2237 365.197 34.998C365.098 36.1376 365.372 36.6729 366.622 36.9482C371.429 38.0266 375.772 36.4894 380.061 34.7227C380.838 34.4015 381.356 33.4531 381.989 32.7878C381.874 32.566 381.76 32.3442 381.638 32.1148C380.792 32.1148 379.901 32.2983 379.124 32.0612C378.316 31.8165 377.288 31.327 376.968 30.654C376.465 29.5986 377.014 28.5203 378.179 28.0231C379.284 27.549 380.442 27.2201 381.547 26.7536C382.255 26.4553 382.911 26.0194 383.596 25.6446C383.573 25.4229 383.543 25.2011 383.52 24.9716C382.392 24.8493 381.265 24.7039 380.13 24.6198C378.926 24.528 377.859 24.3521 377.623 22.8455C377.41 21.4383 377.608 20.3982 379.154 19.8399C380.64 19.2969 382.065 18.578 383.459 17.8285C386.247 16.3448 389.127 16.666 391.939 17.5379C392.731 17.7826 393.691 18.7998 393.79 19.5646C393.889 20.337 393.173 21.4077 392.518 22.0272C391.634 22.8608 390.461 23.3885 389.417 24.0462C389.485 24.2068 389.554 24.3598 389.623 24.5204C390.529 24.2374 391.428 23.9468 392.335 23.6638C393.592 23.2738 394.849 23.2585 395.413 24.6504C395.954 25.9811 395.253 26.9754 394.003 27.5719C392.8 28.1379 391.565 28.6579 390.4 29.2927C389.196 29.9428 388.228 30.8146 388.251 32.4742C389.996 32.4742 391.68 32.4972 393.356 32.4666C394.24 32.4513 395.222 32.0842 395.984 32.3595C397.066 32.7572 398.323 33.4226 398.841 34.3403C399.1 34.7992 398.095 36.5353 397.287 36.9253C395.032 38.0189 392.647 39.0361 390.209 39.5026C385.554 40.3821 380.831 40.8869 376.122 41.4758C375.147 41.5982 374.126 41.4452 373.128 41.3534C372.191 41.2693 371.239 40.9175 370.324 41.0093C366.881 41.3381 365.311 43.4643 366.172 46.7987C366.302 47.2959 367.627 47.7241 368.412 47.7394C369.654 47.7547 370.896 47.227 372.138 47.2423C373.509 47.25 374.606 47.9153 374.598 49.552C374.591 51.1504 373.494 51.5481 372.191 51.6552C370.865 51.7622 369.532 51.8922 368.206 51.9075C366.713 51.9228 366.195 52.5806 365.989 54.0795C365.25 59.5401 364.397 64.9931 363.429 70.4231C363.17 71.8839 362.584 73.4058 361.73 74.5989C361.182 75.356 359.864 75.8531 358.881 75.8684C358.47 75.8761 357.639 74.2929 357.692 73.4746C357.952 69.5512 358.431 65.6432 358.866 61.7351C359.155 59.1348 359.483 56.5345 359.795 53.9419C359.62 53.8654 359.43 53.7966 359.247 53.7354Z" fill="white"/>
<path d="M231.16 47.5864C231.092 48.9477 231 49.8807 231 50.8061C230.985 57.3451 231.1 63.8993 229.507 70.3159C229.263 71.3025 229.05 72.3197 228.623 73.2221C228.372 73.7575 227.641 74.5146 227.275 74.4382C226.673 74.3158 225.919 73.681 225.736 73.0998C225.355 71.9067 225.203 70.6142 225.149 69.3523C224.814 61.0084 225.317 52.7181 226.924 44.5196C227.107 43.6018 227.458 42.6917 227.869 41.8428C228.532 40.4891 229.774 39.7167 231.138 40.3056C231.854 40.6115 232.159 41.8657 232.669 42.7223C233.934 41.7893 235.724 40.7568 237.088 39.319C237.751 38.623 237.804 37.1699 237.789 36.061C237.766 34.6461 237.507 33.2007 237.111 31.847C236.928 31.2199 236.25 30.4168 235.671 30.2945C234.726 30.0956 233.675 30.3709 232.669 30.4933C231.48 30.6386 230.277 30.7151 229.858 29.2773C229.469 27.9389 230.406 27.2735 231.473 26.8682C233.484 26.1111 235.526 25.4228 237.56 24.7115C238.558 24.3673 239.107 23.9696 238.787 22.6389C238.558 21.6829 238.871 20.4822 239.259 19.5262C239.899 17.9431 241.667 17.5607 243.069 18.5549C243.373 18.7691 243.724 19.0368 243.861 19.358C245.301 22.7383 247.96 23.6408 251.396 23.4649C252.645 23.3961 254.055 23.9161 255.159 24.5585C255.799 24.9333 256.348 26.1111 256.287 26.8682C256.241 27.4647 255.22 28.0077 254.588 28.5278C254.42 28.6655 254.1 28.6425 253.849 28.6808C250.306 29.1855 247.815 32.6347 248.318 36.4434C250.756 36.3363 253.201 36.1528 255.655 36.1298C261.963 36.061 263.731 37.3611 264.043 43.7318C264.652 56.2285 264.911 68.7405 265.178 81.2524C265.231 83.7151 264.843 86.3077 262.466 87.822C261.75 88.2809 260.523 88.6709 259.914 88.3497C259.342 88.0514 258.9 86.6824 259.068 85.9406C261.727 74.1017 260.036 62.1174 260.363 50.2096C260.432 47.6323 260.005 45.0167 259.616 42.447C259.296 40.275 258.695 40.122 256.531 40.4279C252.904 40.948 249.225 41.1162 245.613 41.6898C243.13 42.0875 240.631 42.6917 238.307 43.6401C236.821 44.2442 235.457 45.4755 234.398 46.7298C233.53 47.7776 232.913 48.6035 231.16 47.5864ZM243.328 36.9252C243.625 36.9558 243.914 36.994 244.211 37.0246C244.478 34.6997 244.775 32.3747 244.973 30.0421C244.996 29.7515 244.486 29.415 244.219 29.0937C243.922 29.3614 243.381 29.6138 243.373 29.8891C243.297 32.237 243.328 34.5773 243.328 36.9252Z" fill="white"/>
<path d="M101.68 18.6849C99.2873 23.7402 97.1084 28.3595 94.9294 32.9788C95.0589 33.17 95.1884 33.3536 95.3103 33.5448C96.4227 33.1395 97.5426 32.7571 98.6321 32.3211C99.0968 32.1376 99.4854 31.694 99.9578 31.5946C100.811 31.411 101.695 31.4034 102.571 31.3269C102.335 32.3594 102.441 33.7972 101.801 34.3325C100.377 35.5332 98.5864 36.3057 96.9255 37.2081C96.0341 37.69 94.9218 37.8965 94.2361 38.5695C93.6723 39.1201 93.2914 40.2138 93.398 40.9862C93.4742 41.5216 94.457 42.1257 95.1427 42.3322C95.9579 42.577 96.9179 42.3016 97.7712 42.4623C99.333 42.7605 99.6378 43.7547 98.4569 44.8407C97.535 45.6897 96.3617 46.2709 95.3865 47.0739C94.6094 47.724 93.9618 48.5347 93.2609 49.2689C93.3752 49.4448 93.4895 49.6283 93.6037 49.8042C94.2132 49.6513 94.8227 49.4601 95.4398 49.3377C97.9007 48.8482 100.346 48.1752 102.83 48.007C103.752 47.9458 105.146 48.8788 105.618 49.7431C106.357 51.0891 105.443 52.328 104.156 53.024C97.1769 56.7868 90.1067 60.3507 82.4194 62.4615C81.2309 62.7904 79.951 62.9586 79.3034 61.5055C78.7015 60.1366 79.2424 58.9894 80.3243 58.1405C82.2671 56.6109 84.2936 55.1884 86.2364 53.6588C87.3488 52.7793 88.2706 51.7162 87.7297 49.8807C86.8764 49.9495 86.0079 50.1407 85.1698 50.049C84.4536 49.9725 83.1965 49.6283 83.1737 49.3148C83.0975 48.4735 83.3261 47.3799 83.8594 46.768C84.6289 45.8885 85.8098 45.3914 86.7697 44.6572C88.0192 43.7012 88.3697 42.4852 87.7144 40.8715C87.1811 41.0321 86.7393 41.078 86.3812 41.2845C85.2917 41.904 84.4308 41.6592 83.7603 40.665C83.0061 39.556 83.3337 38.5771 84.3089 37.8276C85.2612 37.1011 86.3202 36.5045 87.3107 35.8162C87.5621 35.648 87.7297 35.365 87.7525 35.3497C86.244 33.0477 84.827 30.868 83.3489 28.6119C83.1051 30.998 82.8613 33.476 82.587 35.9462C82.5261 36.5122 82.5337 37.1775 82.229 37.5982C81.7261 38.3018 80.9871 39.3266 80.3624 39.3266C79.57 39.319 78.3739 38.5771 78.0768 37.8582C77.4901 36.4204 77.132 34.7761 77.1777 33.2312C77.2539 30.3327 77.5053 27.4112 78.0158 24.5585C78.4272 22.2794 79.6691 21.6676 81.9395 21.4611C82.8918 21.377 83.9965 20.9028 84.6822 20.2451C87.6535 17.423 90.6324 14.6086 94.9294 14.1344C97.055 13.905 99.2797 13.7291 101.36 14.1115C102.685 14.3562 104.156 15.4116 104.963 16.5359C107.097 19.4956 106.86 22.8836 105.778 26.1952C105.611 26.7076 104.841 27.0211 104.354 27.4188C104.087 26.9141 103.691 26.4322 103.592 25.8969C103.272 24.2832 103.142 22.6312 102.792 21.0252C102.64 20.3063 102.144 19.6333 101.68 18.6849ZM92.2552 28.4054C92.5752 28.4819 92.9028 28.566 93.2228 28.6425C95.516 25.6445 97.2302 22.31 98.434 18.7002C98.5102 18.4784 98.0455 17.8284 98.015 17.8436C96.2551 18.532 94.5104 19.2662 92.7657 20.0004C92.5981 22.7995 92.4228 25.6063 92.2552 28.4054ZM88.1182 30.1109C88.3392 30.0726 88.5677 30.0268 88.7887 29.9885C89.5963 26.9064 89.162 23.8702 88.103 20.6581C87.0592 21.6294 85.566 22.8683 85.726 23.8243C86.084 25.9963 87.2726 28.023 88.1182 30.1109Z" fill="white"/>
<path d="M385.463 72.3888C380.732 71.6011 380.595 71.5934 380.831 67.02C381.174 60.4887 381.722 53.9727 382.233 47.4567C382.362 45.7588 383.338 45.017 384.93 45.5982C386.377 46.1259 387.33 45.6288 388.381 44.8028C389.12 44.2216 389.935 43.6786 390.804 43.3421C393.707 42.2026 396.084 43.2733 396.838 46.2712C397.386 48.4662 397.706 50.7682 397.722 53.0243C397.76 57.8425 397.516 62.6607 397.44 67.4789C397.409 69.2226 396.777 70.4157 394.522 70.8287C395.467 71.4864 396.068 71.9529 396.724 72.3429C400.419 74.5532 404.152 76.7022 407.816 78.966C408.876 79.6237 409.858 80.5109 410.628 81.4898C411.039 82.0175 411.26 83.1724 410.955 83.6695C410.628 84.1972 409.523 84.6025 408.868 84.4725C407.862 84.2813 406.849 83.7154 406.011 83.0882C402.803 80.7021 399.703 78.1859 396.495 75.7998C392.678 72.9624 392.457 73.0618 389.227 76.5646C387.383 78.5683 385.456 80.5185 383.444 82.3464C382.583 83.1265 381.448 83.7918 380.336 84.0442C379.505 84.2354 378.027 83.9601 377.692 83.3865C377.265 82.6676 377.342 81.138 377.852 80.4727C379.353 78.5224 381.174 76.8246 382.88 75.035C383.65 74.2396 384.435 73.4442 385.463 72.3888ZM385.219 67.3795C387.764 66.3546 390.194 65.4522 392.541 64.3662C393.051 64.1291 393.265 63.2266 393.608 62.6225C392.998 62.3012 392.381 61.7047 391.771 61.7124C390.72 61.72 389.676 62.1559 388.61 62.3165C385.844 62.7448 384.747 64.3203 385.219 67.3795ZM392.83 53.1391C390.804 54.0262 388.793 54.9134 386.781 55.8005C386.774 56.03 386.758 56.2594 386.751 56.4888C387.886 56.7718 389.006 57.2001 390.164 57.3148C393.211 57.6054 394.08 56.29 392.83 53.1391ZM386.431 50.2329C386.537 50.4317 386.644 50.6229 386.743 50.8217C388.633 50.577 390.537 50.3935 392.396 50.0111C392.67 49.9575 393.021 48.9021 392.876 48.4662C392.701 47.9385 391.802 47.1202 391.619 47.2196C389.844 48.1297 388.145 49.2004 386.431 50.2329Z" fill="white"/>
<path d="M112.498 72.679C113.077 68.6027 113.374 64.4651 114.296 60.4653C115.576 54.9129 117.496 53.2686 124.277 52.9703C126.349 52.8786 127.781 53.9416 128.596 55.8001C129.815 58.5686 130.158 61.3907 129.115 64.3122C128.665 65.5664 128.261 66.836 127.911 68.1208C127.537 69.4898 128.116 70.0022 129.495 69.7881C131.804 69.4363 134.112 69.0768 136.436 68.855C137.289 68.7709 138.188 69.0539 139.057 69.2068C140.367 69.4363 141.259 70.3234 141.061 71.5547C140.893 72.5949 140.185 73.6503 139.446 74.4609C139.004 74.9504 138.051 74.981 137.32 75.1951C133.625 76.2811 129.953 77.4666 126.212 78.3996C123.522 79.0726 120.757 79.585 117.999 79.8298C114.258 80.1586 112.909 78.782 112.795 75.0192C112.772 74.2544 112.795 73.4897 112.795 72.7325C112.704 72.7096 112.605 72.6943 112.498 72.679ZM118.044 70.4305C118.479 70.1093 118.7 70.0405 118.761 69.8951C120.193 66.5301 121.701 63.1956 122.974 59.7693C123.477 58.4233 122.105 58.125 121.397 58.6221C120.109 59.5246 118.593 60.6259 118.06 61.9949C117.039 64.6028 117.366 67.4478 118.044 70.4305Z" fill="white"/>
<path d="M171.406 56.1219C165.425 55.6248 159.437 55.1965 153.472 54.577C152.161 54.4394 150.683 53.8581 149.716 52.9863C148.908 52.2597 148.268 50.7378 148.443 49.7283C148.596 48.8487 149.891 47.6939 150.851 47.5027C154.378 46.7915 157.967 46.2561 161.555 45.9731C170.065 45.3001 178.591 44.7877 187.116 44.26C188.297 44.1912 189.539 44.2982 190.689 44.5736C192.746 45.063 193.592 47.5792 192.822 50.5466C192.236 52.818 190.544 53.9881 188.434 54.2252C183.032 54.8371 177.608 55.2194 172.198 55.686C171.947 55.7089 171.688 55.686 171.437 55.686C171.429 55.8313 171.414 55.9766 171.406 56.1219Z" fill="white"/>
<path d="M35.824 56.1213C29.8509 55.6242 23.8626 55.1959 17.9047 54.5611C16.5943 54.4234 15.1163 53.8116 14.1715 52.9321C13.3944 52.1979 12.8687 50.6683 13.0287 49.6206C13.1506 48.7946 14.4077 47.6933 15.3144 47.5174C18.9104 46.8214 22.5522 46.2631 26.2015 45.9725C34.6431 45.2995 43.1075 44.7947 51.5643 44.2747C52.7528 44.1982 53.9947 44.2823 55.1299 44.5806C55.846 44.7641 56.6308 45.3683 57.0117 46.0031C58.6116 48.7258 57.286 52.8709 54.2842 53.7734C51.5262 54.607 48.6006 54.8976 45.7284 55.2953C44.1056 55.5247 42.4447 55.5247 40.799 55.5706C39.1534 55.6165 37.5077 55.5783 35.8621 55.5783C35.8545 55.7542 35.8392 55.9377 35.824 56.1213Z" fill="white"/>
<path d="M241.148 52.5655C239.838 53.2997 238.825 53.6056 238.192 54.2786C237.232 55.3111 236.326 55.8541 235.099 54.9287C234.109 54.1868 233.873 51.9689 234.954 51.1583C236.684 49.8581 238.672 48.9098 240.577 47.8544C241.804 47.1661 243.244 46.7531 244.287 45.8659C246.329 44.1298 247.701 43.931 249.849 45.4912C250.771 46.1642 251.799 46.6842 252.691 47.3955C254.253 48.6497 253.963 50.3017 252.097 51.0435C251.86 51.1353 251.617 51.2041 251.373 51.273C247.228 52.4813 246.68 53.2079 246.207 57.6513C246.078 58.8597 246.512 59.3568 247.594 59.3339C251.121 59.265 252.797 61.307 251.639 65.8346C251.038 68.2054 250.398 70.5763 249.674 72.9165C249.537 73.3601 248.996 73.8649 248.539 74.0025C246.169 74.6985 243.785 75.3256 241.377 75.8763C239.998 76.1975 238.977 75.6316 238.695 74.1785C237.895 70.018 238.474 66.0487 240.082 62.1101C241.049 59.7469 241.537 57.1619 242.078 54.6457C242.2 54.1333 241.583 53.4756 241.148 52.5655ZM243.579 69.9721C243.792 70.0562 244.005 70.1404 244.226 70.2245C245.956 68.6108 247.129 66.6147 247.754 64.2974C247.83 64.0067 247.35 63.3643 246.977 63.1884C245.621 62.5536 243.762 63.4637 243.617 64.9321C243.449 66.5917 243.579 68.2896 243.579 69.9721Z" fill="white"/>
<path d="M122.661 32.3287C125 32.4434 126.752 32.4664 128.489 32.6346C130.219 32.8029 131.064 33.9501 131.087 35.6097C131.118 37.231 130.051 37.9499 128.581 38.21C127.773 38.3553 126.966 38.5235 126.166 38.7147C123.24 39.4183 120.825 40.4661 120.665 44.183C120.596 45.812 119.781 47.5098 118.935 48.9629C118.494 49.7277 117.236 50.4466 116.383 50.4084C115.758 50.3778 114.715 49.1006 114.677 48.3434C114.524 44.6801 114.372 40.9785 114.753 37.3457C115.164 33.3918 116.063 29.4761 116.962 25.5833C117.305 24.0766 118.097 22.6235 118.913 21.2928C119.69 20.0232 121.061 19.7173 122.448 20.1991C123.918 20.7192 123.804 22.0117 123.667 23.2507C123.331 26.2639 123.004 29.2619 122.661 32.3287Z" fill="white"/>
<path d="M338.356 81.0841C337.983 80.9771 337.145 80.8547 336.421 80.5029C327.888 76.3577 319.363 72.1896 310.86 67.9833C309.923 67.5244 308.567 66.8437 309.321 65.6354C309.763 64.9241 311.226 64.4576 312.178 64.5341C313.786 64.6641 315.416 65.1612 316.932 65.773C323.957 68.6333 330.966 71.5242 337.907 74.5758C339.141 75.1188 340.276 76.3195 340.992 77.4973C342.127 79.371 340.969 81.0765 338.356 81.0841Z" fill="white"/>
<path d="M73.666 83.0882C74.1231 79.1266 74.5117 75.1573 75.0679 71.211C75.4717 68.366 77.3002 66.4005 79.7001 65.0621C80.3248 64.7103 81.3228 65.0238 82.1457 65.0315C82.0466 65.758 82.1914 66.6605 81.8181 67.1729C80.0581 69.5973 80.1191 72.4194 79.822 75.1726C79.4791 78.3159 79.0982 81.4592 78.6944 84.5948C78.6106 85.2143 78.3896 85.8261 78.1306 86.3997C77.5592 87.6616 76.5688 88.7094 75.205 88.1281C74.5422 87.8452 74.1993 86.5068 73.9631 85.5814C73.7651 84.809 73.925 83.9447 73.925 83.1188C73.8336 83.1111 73.7498 83.0958 73.666 83.0882Z" fill="white"/>
<path d="M220.311 53.8809C222.68 54.1485 223.343 55.2192 222.033 57.1006C219.252 61.1005 215.725 64.3738 211.694 67.0811C210.559 67.8459 209.287 68.0065 208.228 66.9052C207.131 65.7657 207.42 64.435 208.334 63.4637C211.016 60.611 213.728 57.7736 216.639 55.1581C217.523 54.355 219.069 54.2862 220.311 53.8809Z" fill="white"/>
<path d="M83.1816 75.2256C83.4254 72.9083 83.5626 70.8739 83.8673 68.8702C84.0426 67.7077 84.553 66.6676 86.0158 66.5987C87.5243 66.5299 88.2252 67.4782 88.5452 68.7172C89.6195 72.8394 89.8099 76.9922 88.5909 81.1221C88.2329 82.3381 87.6081 83.3706 86.1301 83.3859C84.553 83.4012 84.0883 82.1852 83.8749 80.9997C83.5245 79.0036 83.3797 76.9693 83.1816 75.2256Z" fill="white"/>
<path d="M91.4478 70.0711C91.4478 68.8628 91.2497 67.6162 91.5163 66.469C91.6916 65.7348 92.5068 64.7023 93.1239 64.6411C93.741 64.58 94.9753 65.4824 95.0514 66.0789C95.5619 70.0253 95.8514 74.0022 96.1409 77.9791C96.1638 78.3462 95.6076 79.111 95.4171 79.0804C94.6019 78.9427 93.3906 78.8051 93.101 78.2621C92.3315 76.786 91.8211 75.1264 91.463 73.4821C91.2268 72.3961 91.4173 71.2107 91.4173 70.0711C91.4249 70.0711 91.4325 70.0711 91.4478 70.0711Z" fill="white"/>
<path d="M216.464 39.6479C214.529 38.669 212.624 37.8583 210.91 36.757C210.369 36.4128 209.927 35.128 210.148 34.5467C210.46 33.7437 211.382 32.7495 212.152 32.6424C214.742 32.283 217.043 33.2925 218.658 35.3192C219.169 35.9616 219.275 37.3382 218.94 38.1107C218.666 38.776 217.492 39.0513 216.464 39.6479Z" fill="white"/>
<path d="M100.216 62.7373C103.279 63.1809 106.966 66.2936 107.416 69.1615C107.523 69.8422 107.225 70.9435 106.73 71.2647C106.265 71.563 105.138 71.2953 104.589 70.89C102.715 69.5057 100.909 68.0067 99.1876 66.4236C98.5858 65.8653 97.7858 64.7181 97.9991 64.2592C98.3267 63.5633 99.4391 63.2268 100.216 62.7373Z" fill="white"/>
<path d="M214.574 47.6631C215.283 47.7931 216.22 47.8084 216.989 48.1755C217.5 48.4202 218.063 49.1774 218.071 49.7127C218.071 50.2328 217.477 51.0893 216.997 51.2117C215.42 51.6018 213.782 51.8694 212.159 51.8924C211.008 51.9077 210.14 51.1735 210.178 49.8198C210.208 48.5426 211.031 48.0761 212.144 47.9308C212.89 47.8313 213.645 47.7625 214.574 47.6631Z" fill="white"/>
</g>
<defs>
<filter id="filter0_d_689_5584" x="0" y="0" width="1118" height="111.85" filterUnits="userSpaceOnUse" color-interpolation-filters="sRGB">
<feFlood flood-opacity="0" result="BackgroundImageFix"/>
<feColorMatrix in="SourceAlpha" type="matrix" values="0 0 0 0 0 0 0 0 0 0 0 0 0 0 0 0 0 0 127 0" result="hardAlpha"/>
<feOffset dy="3"/>
<feGaussianBlur stdDeviation="6.5"/>
<feComposite in2="hardAlpha" operator="out"/>
<feColorMatrix type="matrix" values="0 0 0 0 0 0 0 0 0 0 0 0 0 0 0 0 0 0 0.15 0"/>
<feBlend mode="normal" in2="BackgroundImageFix" result="effect1_dropShadow_689_5584"/>
<feBlend mode="normal" in="SourceGraphic" in2="effect1_dropShadow_689_5584" result="shape"/>
</filter>
</defs>
</svg>
