<svg width="1440" height="1050" viewBox="0 0 1440 1050" fill="none" xmlns="http://www.w3.org/2000/svg">
<path d="M0 1049.61H720H1440H0Z" fill="#668C4A"/>
<path d="M1406.35 23.1289C1417.52 24.5784 1428.75 25.4681 1440 26.2095V1049.61H720H0V8.61252C3.50299 8.16965 7.00641 7.72727 10.5101 7.28513L20.6123 6.01096C33.6895 4.36179 46.7686 2.71213 59.8416 1.05002C75.2483 -0.894558 89 -0.38747 105.284 4.69455C125.558 13.1645 145.702 22.2827 164.881 32.9709C197 50.8702 202.5 51.6049 237 40.6124C249.93 36.4925 260.5 32.2576 277.029 32.2576C312 32.9709 335.13 56.5191 355 65.8248C392.091 83.1968 444.045 57.7581 485.14 54.5171C498.545 53.4512 512.886 54.3155 525.73 58.003C546.104 63.8658 565.888 72.1773 585.384 80.6617C612.901 92.6465 640.474 96.867 669.085 85.3001C670.794 84.6102 672.505 83.9246 674.217 83.2388L674.219 83.2381C682.3 80.0015 690.389 76.762 698.242 73.0416C722.562 61.5179 747.458 57.3836 773.62 65.8248C776.327 66.6961 779.048 67.5306 781.77 68.365L781.773 68.3658C788.231 70.346 794.69 72.3265 800.949 74.7989C833.217 87.5184 865.038 86.3372 896.946 73.344C927.688 60.8265 959.135 54.2723 992.468 62.1084C1019.71 68.504 1047.04 69.9734 1073.73 58.9537C1107 45.222 1104 30.7488 1149 22.7488C1163.5 21.1125 1169.17 22.2679 1173.42 22.7488C1183.49 23.8892 1193.57 25.0306 1203.17 27.7962C1236.02 37.2601 1268.62 39.7666 1301.65 29.6976C1336.04 19.211 1370.88 18.5052 1406.35 23.1289Z" fill="#668C4A"/>
</svg>
