<svg width="175" height="33" viewBox="0 0 175 33" fill="none" xmlns="http://www.w3.org/2000/svg">
<path d="M122.141 2.61533C122.409 2.61533 122.539 2.74528 122.539 3.01331V4.6946C122.539 4.96263 122.409 5.09258 122.141 5.09258H116.845C116.74 5.09258 116.683 5.14944 116.683 5.25503V30.2794C116.683 30.5474 116.553 30.6774 116.285 30.6774H114.238C113.97 30.6774 113.84 30.5474 113.84 30.2794V5.26315C113.84 5.15756 113.783 5.10071 113.678 5.10071H108.707C108.439 5.10071 108.309 4.97075 108.309 4.70272V3.01331C108.309 2.74528 108.439 2.61533 108.707 2.61533H122.141Z" fill="#A6BF4B"/>
<path d="M137.273 4.2235C135.989 2.9402 134.308 2.29855 132.221 2.29855C130.166 2.29855 128.493 2.9402 127.209 4.2235C125.95 5.50681 125.325 7.20434 125.325 9.3161V23.9928C125.325 26.1046 125.95 27.8021 127.209 29.0854C128.493 30.3687 130.166 31.0104 132.221 31.0104C134.308 31.0104 135.989 30.3687 137.273 29.0854C138.556 27.7778 139.198 26.0802 139.198 23.9928V9.3161C139.198 7.20434 138.556 5.50681 137.273 4.2235ZM136.355 24.1472C136.355 25.4305 135.965 26.4863 135.193 27.3148C134.446 28.1189 133.455 28.5169 132.229 28.5169C131.027 28.5169 130.052 28.1189 129.305 27.3148C128.558 26.4863 128.184 25.4305 128.184 24.1472V9.19426C128.184 7.8866 128.558 6.83072 129.305 6.02662C130.052 5.19816 131.027 4.78393 132.229 4.78393C133.455 4.78393 134.446 5.19816 135.193 6.02662C135.965 6.83072 136.355 7.8866 136.355 9.19426V24.1472Z" fill="#A6BF4B"/>
<path d="M150.138 31.0023C148.083 31.0023 146.434 30.4012 145.208 29.1991C143.981 27.9727 143.364 26.3401 143.364 24.3096V8.99121C143.364 6.96067 143.981 5.34436 145.208 4.14228C146.434 2.91584 148.083 2.29855 150.138 2.29855C152.193 2.29855 153.842 2.91584 155.068 4.14228C156.327 5.36873 156.953 7.00128 156.953 9.03182V10.7537C156.953 11.0217 156.823 11.1517 156.555 11.1517H154.508C154.24 11.1517 154.11 11.0217 154.11 10.7537V8.9506C154.11 7.69167 153.752 6.69264 153.03 5.9454C152.307 5.1738 151.348 4.78393 150.146 4.78393C148.968 4.78393 148.01 5.1738 147.263 5.9454C146.54 6.71701 146.183 7.72415 146.183 8.9506V24.3502C146.183 25.5767 146.54 26.5838 147.263 27.3554C148.01 28.127 148.977 28.5169 150.146 28.5169C151.348 28.5169 152.315 28.1433 153.03 27.396C153.752 26.6244 154.11 25.601 154.11 24.3502V19.217C154.11 19.1114 154.053 19.0546 153.947 19.0546H150.495C150.227 19.0546 150.097 18.9246 150.097 18.6566V16.9753C150.097 16.7073 150.227 16.5773 150.495 16.5773H156.546C156.814 16.5773 156.944 16.7073 156.944 16.9753V24.3096C156.944 26.3401 156.319 27.9727 155.06 29.1991C153.842 30.4012 152.201 31.0023 150.138 31.0023Z" fill="#F2C53D"/>
<path d="M173.075 4.2235C171.792 2.9402 170.11 2.29855 168.023 2.29855C165.968 2.29855 164.295 2.9402 163.012 4.2235C161.753 5.50681 161.127 7.20434 161.127 9.3161V23.9928C161.127 26.1046 161.753 27.8021 163.012 29.0854C164.295 30.3687 165.968 31.0104 168.023 31.0104C170.11 31.0104 171.792 30.3687 173.075 29.0854C174.358 27.7778 175 26.0802 175 23.9928V9.3161C175 7.20434 174.358 5.50681 173.075 4.2235ZM172.149 24.1472C172.149 25.4305 171.759 26.4863 170.988 27.3148C170.24 28.1189 169.249 28.5169 168.023 28.5169C166.821 28.5169 165.846 28.1189 165.099 27.3148C164.352 26.4863 163.978 25.4305 163.978 24.1472V9.19426C163.978 7.8866 164.352 6.83072 165.099 6.02662C165.846 5.19816 166.821 4.78393 168.023 4.78393C169.249 4.78393 170.24 5.19816 170.988 6.02662C171.759 6.83072 172.149 7.8866 172.149 9.19426V24.1472Z" fill="#F2C53D"/>
<path d="M45.3297 31.0023C43.2748 31.0023 41.626 30.4012 40.3996 29.1991C39.1731 27.9727 38.5558 26.3401 38.5558 24.3096V8.99121C38.5558 6.96067 39.1731 5.34436 40.3996 4.14228C41.626 2.91584 43.2748 2.29855 45.3297 2.29855C47.3846 2.29855 49.0334 2.91584 50.2599 4.14228C51.5188 5.36873 52.1442 7.00128 52.1442 9.03182V10.7537C52.1442 11.0217 52.0143 11.1517 51.7462 11.1517H49.6994C49.4314 11.1517 49.3015 11.0217 49.3015 10.7537V8.9506C49.3015 7.69167 48.9441 6.69264 48.2212 5.9454C47.4983 5.1738 46.5399 4.78393 45.3378 4.78393C44.1601 4.78393 43.2017 5.1738 42.4545 5.9454C41.7316 6.71701 41.3742 7.72415 41.3742 8.9506V24.3502C41.3742 25.5767 41.7316 26.5838 42.4545 27.3554C43.2017 28.127 44.1683 28.5169 45.3378 28.5169C46.5399 28.5169 47.5065 28.1433 48.2212 27.396C48.9441 26.6244 49.3015 25.601 49.3015 24.3502V19.217C49.3015 19.1114 49.2446 19.0546 49.139 19.0546H45.6871C45.4191 19.0546 45.2891 18.9246 45.2891 18.6566V16.9753C45.2891 16.7073 45.4191 16.5773 45.6871 16.5773H51.7381C52.0061 16.5773 52.1361 16.7073 52.1361 16.9753V24.3096C52.1361 26.3401 51.5107 27.9727 50.2518 29.1991C49.0334 30.4012 47.3928 31.0023 45.3297 31.0023Z" fill="#668C4A"/>
<path d="M68.2667 4.2235C66.9834 2.9402 65.3021 2.29855 63.2147 2.29855C61.1598 2.29855 59.4867 2.9402 58.2034 4.2235C56.9444 5.50681 56.319 7.20434 56.319 9.3161V23.9928C56.319 26.1046 56.9444 27.8021 58.2034 29.0854C59.4867 30.3687 61.1598 31.0104 63.2147 31.0104C65.3021 31.0104 66.9834 30.3687 68.2667 29.0854C69.55 27.7778 70.1917 26.0802 70.1917 23.9928V9.3161C70.1917 7.20434 69.55 5.50681 68.2667 4.2235ZM67.3408 24.1472C67.3408 25.4305 66.9509 26.4863 66.1793 27.3148C65.4321 28.1189 64.4412 28.5169 63.2147 28.5169C62.0127 28.5169 61.038 28.1189 60.2908 27.3148C59.5435 26.4863 59.1699 25.4305 59.1699 24.1472V9.19426C59.1699 7.8866 59.5435 6.83072 60.2908 6.02662C61.038 5.19816 62.0127 4.78393 63.2147 4.78393C64.4412 4.78393 65.4321 5.19816 66.1793 6.02662C66.9509 6.83072 67.3408 7.8866 67.3408 9.19426V24.1472Z" fill="#668C4A"/>
<path d="M86.306 4.2235C85.0227 2.9402 83.3414 2.29855 81.254 2.29855C79.1991 2.29855 77.526 2.9402 76.2427 4.2235C74.9837 5.50681 74.3583 7.20434 74.3583 9.3161V23.9928C74.3583 26.1046 74.9837 27.8021 76.2427 29.0854C77.526 30.3687 79.1991 31.0104 81.254 31.0104C83.3414 31.0104 85.0227 30.3687 86.306 29.0854C87.5893 27.7778 88.231 26.0802 88.231 23.9928V9.3161C88.231 7.20434 87.5893 5.50681 86.306 4.2235ZM85.3801 24.1472C85.3801 25.4305 84.9902 26.4863 84.2186 27.3148C83.4714 28.1189 82.4805 28.5169 81.254 28.5169C80.052 28.5169 79.0773 28.1189 78.3301 27.3148C77.5828 26.4863 77.2092 25.4305 77.2092 24.1472V9.19426C77.2092 7.8866 77.5828 6.83072 78.3301 6.02662C79.0773 5.19816 80.052 4.78393 81.254 4.78393C82.4805 4.78393 83.4714 5.19816 84.2186 6.02662C84.9902 6.83072 85.3801 7.8866 85.3801 9.19426V24.1472Z" fill="#668C4A"/>
<path d="M103.907 4.66211C102.68 3.29759 101.031 2.61533 98.9766 2.61533H92.8038C92.5357 2.61533 92.4058 2.74528 92.4058 3.01331V30.2794C92.4058 30.5474 92.5357 30.6774 92.8038 30.6774H98.9766C101.031 30.6774 102.68 30.0114 103.907 28.6712C105.133 27.3067 105.75 25.4873 105.75 23.2212V10.0715C105.75 7.80538 105.133 5.99414 103.907 4.66211ZM102.859 23.1075C102.835 24.6589 102.461 25.8853 101.738 26.795C101.04 27.7047 100.106 28.1595 98.9279 28.1595L95.4028 28.2001C95.2973 28.2001 95.2404 28.1433 95.2404 28.0377V5.26315C95.2404 5.15756 95.2973 5.10071 95.4028 5.10071H98.9279C100.154 5.10071 101.121 5.55555 101.811 6.46523C102.51 7.37491 102.851 8.6176 102.851 10.1933V23.1075H102.859Z" fill="#668C4A"/>
<path d="M16.4023 32.7819C12.1138 32.7819 7.96335 31.0925 4.89317 28.0629C1.52248 24.7491 -0.207541 20.3063 0.0198793 15.5467C0.385376 7.91996 6.11962 1.47909 13.657 0.228282C18.5709 -0.592056 23.5254 0.821199 27.2372 4.10255C27.7164 4.5249 27.757 5.24778 27.3428 5.72698C26.9205 6.20619 26.1976 6.2468 25.7184 5.82445C22.5264 3.00606 18.2704 1.79586 14.0387 2.49436C7.56536 3.57461 2.63521 9.1058 2.32657 15.6604C2.13164 19.7539 3.60987 23.5795 6.50136 26.4222C9.35224 29.2325 13.2834 30.6945 17.2713 30.4508C21.0238 30.2153 24.4676 28.534 26.9611 25.7156C28.9429 23.4658 30.1368 20.7124 30.4211 17.7803C25.9377 20.5824 20.1466 20.4687 15.7281 17.3335C15.2083 16.968 15.0865 16.2452 15.4601 15.7254C15.8256 15.2055 16.5485 15.0837 17.0683 15.4573C21.1781 18.3813 26.7174 18.1295 30.5511 14.84L30.8678 14.572C31.2008 14.2877 31.6638 14.2146 32.0618 14.3852C32.4679 14.5558 32.7359 14.9375 32.7603 15.3761C33.0364 19.7458 31.5907 23.9612 28.6911 27.2426C25.7915 30.5239 21.7954 32.4814 17.4175 32.7575C17.0764 32.7738 16.7353 32.7819 16.4023 32.7819Z" fill="#F2C53D"/>
<path d="M20.707 13.3618C22.9325 13.3618 22.9325 9.90989 20.707 9.90989C18.4897 9.90989 18.4815 13.3618 20.707 13.3618Z" fill="#F2C53D"/>
<path d="M26.6281 13.1912C28.8535 13.1912 28.8535 9.73933 26.6281 9.73933C24.4107 9.7312 24.4026 13.1912 26.6281 13.1912Z" fill="#F2C53D"/>
</svg>
