<svg width="33" height="33" viewBox="0 0 33 33" fill="none" xmlns="http://www.w3.org/2000/svg">
<path d="M16.4023 32.7819C12.1138 32.7819 7.96335 31.0925 4.89317 28.0629C1.52248 24.7491 -0.207541 20.3063 0.0198793 15.5467C0.385376 7.91996 6.11962 1.47909 13.657 0.228282C18.5709 -0.592056 23.5254 0.821199 27.2372 4.10255C27.7164 4.5249 27.757 5.24778 27.3428 5.72698C26.9205 6.20619 26.1976 6.2468 25.7184 5.82445C22.5264 3.00606 18.2704 1.79586 14.0387 2.49436C7.56536 3.57461 2.63521 9.1058 2.32657 15.6604C2.13164 19.7539 3.60987 23.5795 6.50136 26.4222C9.35224 29.2325 13.2834 30.6945 17.2713 30.4508C21.0238 30.2153 24.4676 28.534 26.9611 25.7156C28.9429 23.4658 30.1368 20.7124 30.4211 17.7803C25.9377 20.5824 20.1466 20.4687 15.7281 17.3335C15.2083 16.968 15.0865 16.2452 15.4601 15.7254C15.8256 15.2055 16.5485 15.0837 17.0683 15.4573C21.1781 18.3813 26.7174 18.1295 30.5511 14.84L30.8678 14.572C31.2008 14.2877 31.6638 14.2146 32.0618 14.3852C32.4679 14.5558 32.7359 14.9375 32.7603 15.3761C33.0364 19.7458 31.5907 23.9612 28.6911 27.2426C25.7915 30.5239 21.7954 32.4814 17.4175 32.7575C17.0764 32.7738 16.7353 32.7819 16.4023 32.7819Z" fill="#ffffff"/>
<path d="M20.707 13.3618C22.9325 13.3618 22.9325 9.90989 20.707 9.90989C18.4897 9.90989 18.4815 13.3618 20.707 13.3618Z" fill="#ffffff"/>
<path d="M26.6281 13.1912C28.8535 13.1912 28.8535 9.73933 26.6281 9.73933C24.4107 9.7312 24.4026 13.1912 26.6281 13.1912Z" fill="#ffffff"/>
</svg>
