<svg width="175" height="34" viewBox="0 0 175 34" fill="none" xmlns="http://www.w3.org/2000/svg">
<path d="M122.141 3.2244C122.409 3.2244 122.539 3.35435 122.539 3.62238V5.30367C122.539 5.5717 122.409 5.70165 122.141 5.70165H116.845C116.739 5.70165 116.683 5.75851 116.683 5.8641V30.8885C116.683 31.1565 116.553 31.2864 116.285 31.2864H114.238C113.97 31.2864 113.84 31.1565 113.84 30.8885V5.87222C113.84 5.76663 113.783 5.70978 113.677 5.70978H108.707C108.439 5.70978 108.309 5.57982 108.309 5.31179V3.62238C108.309 3.35435 108.439 3.2244 108.707 3.2244H122.141Z" fill="#A6BF4B"/>
<path d="M137.272 4.83257C135.989 3.54927 134.307 2.90762 132.22 2.90762C130.165 2.90762 128.492 3.54927 127.209 4.83257C125.95 6.11588 125.324 7.81341 125.324 9.92517V24.6019C125.324 26.7137 125.95 28.4112 127.209 29.6945C128.492 30.9778 130.165 31.6194 132.22 31.6194C134.307 31.6194 135.989 30.9778 137.272 29.6945C138.555 28.3868 139.197 26.6893 139.197 24.6019V9.92517C139.197 7.81341 138.555 6.11588 137.272 4.83257ZM136.354 24.7562C136.354 26.0395 135.964 27.0954 135.193 27.9239C134.445 28.728 133.454 29.1259 132.228 29.1259C131.026 29.1259 130.051 28.728 129.304 27.9239C128.557 27.0954 128.183 26.0395 128.183 24.7562V9.80333C128.183 8.49567 128.557 7.43979 129.304 6.63569C130.051 5.80723 131.026 5.393 132.228 5.393C133.454 5.393 134.445 5.80723 135.193 6.63569C135.964 7.43979 136.354 8.49567 136.354 9.80333V24.7562Z" fill="#A6BF4B"/>
<path d="M150.138 31.6113C148.083 31.6113 146.434 31.0103 145.208 29.8082C143.982 28.5818 143.364 26.9492 143.364 24.9187V9.60028C143.364 7.56974 143.982 5.95343 145.208 4.75135C146.434 3.52491 148.083 2.90762 150.138 2.90762C152.193 2.90762 153.842 3.52491 155.068 4.75135C156.327 5.9778 156.953 7.61035 156.953 9.64089V11.3628C156.953 11.6308 156.823 11.7608 156.555 11.7608H154.508C154.24 11.7608 154.11 11.6308 154.11 11.3628V9.55967C154.11 8.30074 153.753 7.30171 153.03 6.55447C152.307 5.78287 151.348 5.393 150.146 5.393C148.969 5.393 148.01 5.78287 147.263 6.55447C146.54 7.32608 146.183 8.33322 146.183 9.55967V24.9593C146.183 26.1857 146.54 27.1929 147.263 27.9645C148.01 28.7361 148.977 29.1259 150.146 29.1259C151.348 29.1259 152.315 28.7523 153.03 28.0051C153.753 27.2335 154.11 26.2101 154.11 24.9593V19.8261C154.11 19.7205 154.053 19.6636 153.947 19.6636H150.496C150.227 19.6636 150.098 19.5337 150.098 19.2656V17.5844C150.098 17.3163 150.227 17.1864 150.496 17.1864H156.547C156.815 17.1864 156.945 17.3163 156.945 17.5844V24.9187C156.945 26.9492 156.319 28.5818 155.06 29.8082C153.842 31.0103 152.201 31.6113 150.138 31.6113Z" fill="#F2C53D"/>
<path d="M173.075 4.83257C171.791 3.54927 170.11 2.90762 168.023 2.90762C165.968 2.90762 164.295 3.54927 163.011 4.83257C161.752 6.11588 161.127 7.81341 161.127 9.92517V24.6019C161.127 26.7137 161.752 28.4112 163.011 29.6945C164.295 30.9778 165.968 31.6194 168.023 31.6194C170.11 31.6194 171.791 30.9778 173.075 29.6945C174.358 28.3868 175 26.6893 175 24.6019V9.92517C175 7.81341 174.358 6.11588 173.075 4.83257ZM172.149 24.7562C172.149 26.0395 171.759 27.0954 170.987 27.9239C170.24 28.728 169.249 29.1259 168.023 29.1259C166.821 29.1259 165.846 28.728 165.099 27.9239C164.351 27.0954 163.978 26.0395 163.978 24.7562V9.80333C163.978 8.49567 164.351 7.43979 165.099 6.63569C165.846 5.80723 166.821 5.393 168.023 5.393C169.249 5.393 170.24 5.80723 170.987 6.63569C171.759 7.43979 172.149 8.49567 172.149 9.80333V24.7562Z" fill="#F2C53D"/>
<path d="M45.3295 31.6113C43.2746 31.6113 41.6258 31.0103 40.3994 29.8082C39.1729 28.5818 38.5557 26.9492 38.5557 24.9187V9.60028C38.5557 7.56974 39.1729 5.95343 40.3994 4.75135C41.6258 3.52491 43.2746 2.90762 45.3295 2.90762C47.3844 2.90762 49.0332 3.52491 50.2597 4.75135C51.5186 5.9778 52.144 7.61035 52.144 9.64089V11.3628C52.144 11.6308 52.0141 11.7608 51.746 11.7608H49.6993C49.4312 11.7608 49.3013 11.6308 49.3013 11.3628V9.55967C49.3013 8.30074 48.9439 7.30171 48.221 6.55447C47.4982 5.78287 46.5397 5.393 45.3377 5.393C44.16 5.393 43.2015 5.78287 42.4543 6.55447C41.7314 7.32608 41.3741 8.33322 41.3741 9.55967V24.9593C41.3741 26.1857 41.7314 27.1929 42.4543 27.9645C43.2015 28.7361 44.1681 29.1259 45.3377 29.1259C46.5397 29.1259 47.5063 28.7523 48.221 28.0051C48.9439 27.2335 49.3013 26.2101 49.3013 24.9593V19.8261C49.3013 19.7205 49.2444 19.6636 49.1388 19.6636H45.6869C45.4189 19.6636 45.2889 19.5337 45.2889 19.2656V17.5844C45.2889 17.3163 45.4189 17.1864 45.6869 17.1864H51.7379C52.006 17.1864 52.1359 17.3163 52.1359 17.5844V24.9187C52.1359 26.9492 51.5105 28.5818 50.2516 29.8082C49.0332 31.0103 47.3926 31.6113 45.3295 31.6113Z" fill="#668C4A"/>
<path d="M68.2661 4.83257C66.9828 3.54927 65.3015 2.90762 63.2141 2.90762C61.1592 2.90762 59.486 3.54927 58.2027 4.83257C56.9438 6.11588 56.3184 7.81341 56.3184 9.92517V24.6019C56.3184 26.7137 56.9438 28.4112 58.2027 29.6945C59.486 30.9778 61.1592 31.6194 63.2141 31.6194C65.3015 31.6194 66.9828 30.9778 68.2661 29.6945C69.5494 28.3868 70.191 26.6893 70.191 24.6019V9.92517C70.191 7.81341 69.5494 6.11588 68.2661 4.83257ZM67.3401 24.7562C67.3401 26.0395 66.9503 27.0954 66.1787 27.9239C65.4314 28.728 64.4405 29.1259 63.2141 29.1259C62.012 29.1259 61.0373 28.728 60.2901 27.9239C59.5429 27.0954 59.1692 26.0395 59.1692 24.7562V9.80333C59.1692 8.49567 59.5429 7.43979 60.2901 6.63569C61.0373 5.80723 62.012 5.393 63.2141 5.393C64.4405 5.393 65.4314 5.80723 66.1787 6.63569C66.9503 7.43979 67.3401 8.49567 67.3401 9.80333V24.7562Z" fill="#668C4A"/>
<path d="M86.3061 4.83257C85.0228 3.54927 83.3415 2.90762 81.2541 2.90762C79.1992 2.90762 77.526 3.54927 76.2427 4.83257C74.9838 6.11588 74.3584 7.81341 74.3584 9.92517V24.6019C74.3584 26.7137 74.9838 28.4112 76.2427 29.6945C77.526 30.9778 79.1992 31.6194 81.2541 31.6194C83.3415 31.6194 85.0228 30.9778 86.3061 29.6945C87.5894 28.3868 88.231 26.6893 88.231 24.6019V9.92517C88.231 7.81341 87.5894 6.11588 86.3061 4.83257ZM85.3802 24.7562C85.3802 26.0395 84.9903 27.0954 84.2187 27.9239C83.4715 28.728 82.4806 29.1259 81.2541 29.1259C80.052 29.1259 79.0774 28.728 78.3301 27.9239C77.5829 27.0954 77.2093 26.0395 77.2093 24.7562V9.80333C77.2093 8.49567 77.5829 7.43979 78.3301 6.63569C79.0774 5.80723 80.052 5.393 81.2541 5.393C82.4806 5.393 83.4715 5.80723 84.2187 6.63569C84.9903 7.43979 85.3802 8.49567 85.3802 9.80333V24.7562Z" fill="#668C4A"/>
<path d="M103.906 5.27118C102.68 3.90666 101.031 3.2244 98.9761 3.2244H92.8033C92.5352 3.2244 92.4053 3.35435 92.4053 3.62238V30.8885C92.4053 31.1565 92.5352 31.2864 92.8033 31.2864H98.9761C101.031 31.2864 102.68 30.6204 103.906 29.2803C105.133 27.9158 105.75 26.0964 105.75 23.8303V10.6805C105.75 8.41445 105.133 6.60321 103.906 5.27118ZM102.858 23.7166C102.834 25.2679 102.461 26.4944 101.738 27.4041C101.039 28.3137 100.105 28.7686 98.9274 28.7686L95.4024 28.8092C95.2968 28.8092 95.2399 28.7523 95.2399 28.6467V5.87222C95.2399 5.76663 95.2968 5.70978 95.4024 5.70978H98.9274C100.154 5.70978 101.12 6.16462 101.811 7.0743C102.509 7.98398 102.85 9.22667 102.85 10.8024V23.7166H102.858Z" fill="#668C4A"/>
<path d="M16.4023 33.391C12.1138 33.391 7.96335 31.7015 4.89317 28.672C1.52248 25.3581 -0.207541 20.9153 0.0198793 16.1557C0.385376 8.52903 6.11962 2.08816 13.657 0.837352C18.5709 0.0170138 23.5254 1.43027 27.2372 4.71162C27.7164 5.13397 27.757 5.85684 27.3428 6.33605C26.9205 6.81526 26.1976 6.85587 25.7184 6.43352C22.5264 3.61513 18.2704 2.40493 14.0387 3.10343C7.56536 4.18368 2.63521 9.71487 2.32657 16.2695C2.13164 20.363 3.60987 24.1886 6.50136 27.0313C9.35224 29.8416 13.2834 31.3036 17.2713 31.0599C21.0238 30.8244 24.4676 29.1431 26.9611 26.3247C28.9429 24.0748 30.1368 21.3214 30.4211 18.3893C25.9377 21.1915 20.1466 21.0778 15.7281 17.9426C15.2083 17.5771 15.0865 16.8542 15.4601 16.3344C15.8256 15.8146 16.5485 15.6928 17.0683 16.0664C21.1781 18.9904 26.7174 18.7386 30.5511 15.4491L30.8678 15.1811C31.2008 14.8968 31.6638 14.8237 32.0618 14.9943C32.4679 15.1648 32.7359 15.5466 32.7603 15.9852C33.0364 20.3549 31.5907 24.5703 28.6911 27.8516C25.7915 31.133 21.7954 33.0904 17.4175 33.3666C17.0764 33.3828 16.7353 33.391 16.4023 33.391Z" fill="#F2C53D"/>
<path d="M20.707 13.9709C22.9325 13.9709 22.9325 10.519 20.707 10.519C18.4897 10.519 18.4815 13.9709 20.707 13.9709Z" fill="#F2C53D"/>
<path d="M26.6281 13.8003C28.8535 13.8003 28.8535 10.3484 26.6281 10.3484C24.4107 10.3403 24.4026 13.8003 26.6281 13.8003Z" fill="#F2C53D"/>
</svg>
