<svg width="20" height="24" viewBox="0 0 20 24" fill="none" xmlns="http://www.w3.org/2000/svg">
<path d="M1 5V21C1 21.5304 1.21071 22.0391 1.58579 22.4142C1.96086 22.7893 2.46957 23 3 23H17C17.5304 23 18.0391 22.7893 18.4142 22.4142C18.7893 22.0391 19 21.5304 19 21V5" stroke="#B1B1AC" stroke-width="1.5" stroke-linecap="round" stroke-linejoin="round"/>
<path d="M1 5H19" stroke="#B1B1AC" stroke-width="1.5" stroke-linecap="round" stroke-linejoin="round"/>
<path d="M1 20H19" stroke="#B1B1AC" stroke-width="1.5" stroke-linecap="round" stroke-linejoin="round"/>
<path d="M6 5C6 3.93913 6.42143 2.92172 7.17157 2.17157C7.92172 1.42143 8.93913 1 10 1C11.0609 1 12.0783 1.42143 12.8284 2.17157C13.5786 2.92172 14 3.93913 14 5" stroke="#B1B1AC" stroke-width="1.5" stroke-linecap="round" stroke-linejoin="round"/>
</svg>
