<svg width="24" height="22" viewBox="0 0 24 22" fill="none" xmlns="http://www.w3.org/2000/svg">
<path d="M2.09961 8.15002V18.6C2.09961 19.1835 2.33139 19.7431 2.74397 20.1557C3.15655 20.5682 3.71613 20.8 4.29961 20.8H19.6996C20.2831 20.8 20.8427 20.5682 21.2552 20.1557C21.6678 19.7431 21.8996 19.1835 21.8996 18.6V8.15002" stroke="#B1B1AC" stroke-width="1.5" stroke-linecap="round" stroke-linejoin="round"/>
<path d="M8.69922 20.8V13.1H15.2992V20.8" stroke="#B1B1AC" stroke-width="1.5" stroke-linecap="round" stroke-linejoin="round"/>
<path d="M2.1 1C1.49249 1 1 1.49249 1 2.1V5.95C1 7.46878 2.23122 8.7 3.75 8.7C5.08043 8.7 6.19019 7.75523 6.44499 6.5H6.55501C6.80981 7.75523 7.91957 8.7 9.25 8.7C10.5804 8.7 11.6902 7.75523 11.945 6.5H12.055C12.3098 7.75523 13.4196 8.7 14.75 8.7C16.0804 8.7 17.1902 7.75523 17.445 6.5H17.555C17.8098 7.75523 18.9196 8.7 20.25 8.7C21.7688 8.7 23 7.46878 23 5.95V2.1C23 1.49249 22.5075 1 21.9 1H12H2.1Z" stroke="#B1B1AC" stroke-width="1.5" stroke-linejoin="round"/>
</svg>
