<svg width="24" height="24" viewBox="0 0 24 24" fill="none" xmlns="http://www.w3.org/2000/svg">
<circle cx="12" cy="12" r="11" stroke="#B1B1AC" stroke-width="1.5"/>
<path d="M19 20V18.6667C19 17.429 18.5786 16.242 17.8284 15.3668C17.0783 14.4917 16.0609 14 15 14H12H9C7.93913 14 6.92172 14.4917 6.17157 15.3668C5.42143 16.242 5 17.429 5 18.6667V20" stroke="#B1B1AC" stroke-width="1.5" stroke-linecap="round" stroke-linejoin="round"/>
<path d="M12 12C14.2091 12 16 10.2091 16 8C16 5.79086 14.2091 4 12 4C9.79086 4 8 5.79086 8 8C8 10.2091 9.79086 12 12 12Z" stroke="#B1B1AC" stroke-width="1.5" stroke-linecap="round" stroke-linejoin="round"/>
</svg>
